<svg width="30" height="32" viewBox="0 0 30 32" fill="none" xmlns="http://www.w3.org/2000/svg">
<circle cx="15" cy="15" r="14.5" stroke="white"/>
<path d="M15.1113 1.55176V5.09668H14.0273V1.55176H15.1113ZM15.1846 25.6045V29.0469H14.1152V25.6045H15.1846ZM19.6084 20.873C19.6084 20.0723 19.4521 19.3887 19.1396 18.8223C18.8271 18.2461 18.29 17.7285 17.5283 17.2695C16.7764 16.8105 15.7461 16.3467 14.4375 15.8779C13.207 15.4678 12.1426 15.0234 11.2441 14.5449C10.3555 14.0566 9.66699 13.4414 9.17871 12.6992C8.7002 11.9473 8.46094 10.9902 8.46094 9.82812C8.46094 8.72461 8.70996 7.7627 9.20801 6.94238C9.70605 6.12207 10.4092 5.4873 11.3174 5.03809C12.2256 4.58887 13.2998 4.36426 14.54 4.36426C15.4873 4.36426 16.3369 4.50586 17.0889 4.78906C17.8506 5.0625 18.4951 5.47266 19.0225 6.01953C19.5498 6.56641 19.9502 7.24023 20.2236 8.04102C20.5068 8.83203 20.6484 9.74512 20.6484 10.7803H19.4912C19.4912 10.0088 19.3838 9.30078 19.1689 8.65625C18.9541 8.01172 18.6367 7.4502 18.2168 6.97168C17.7969 6.49316 17.2793 6.12207 16.6641 5.8584C16.0488 5.58496 15.3408 5.44824 14.54 5.44824C13.417 5.44824 12.4893 5.65332 11.7568 6.06348C11.0342 6.47363 10.4971 7.01074 10.1455 7.6748C9.79395 8.33887 9.61816 9.04688 9.61816 9.79883C9.61816 10.5605 9.75488 11.2295 10.0283 11.8057C10.3018 12.3721 10.8096 12.8945 11.5518 13.373C12.3037 13.8418 13.3926 14.3154 14.8184 14.7939C16.0293 15.2041 17.0791 15.6533 17.9678 16.1416C18.8662 16.6299 19.5596 17.2451 20.0479 17.9873C20.5361 18.7197 20.7803 19.6719 20.7803 20.8438C20.7803 21.9766 20.5215 22.9531 20.0039 23.7734C19.4863 24.584 18.7588 25.209 17.8213 25.6484C16.8838 26.0879 15.7949 26.3076 14.5547 26.3076C13.7246 26.3076 12.9043 26.2002 12.0938 25.9854C11.2832 25.7705 10.5508 25.4189 9.89648 24.9307C9.24219 24.4326 8.71973 23.7783 8.3291 22.9678C7.93848 22.1475 7.74316 21.1416 7.74316 19.9502H8.91504C8.91504 20.9658 9.08105 21.8154 9.41309 22.499C9.75488 23.1729 10.1992 23.71 10.7461 24.1104C11.3027 24.5107 11.9131 24.7988 12.5771 24.9746C13.2412 25.1406 13.9004 25.2236 14.5547 25.2236C15.6191 25.2236 16.5273 25.0234 17.2793 24.623C18.0312 24.2129 18.6074 23.6758 19.0078 23.0117C19.4082 22.3477 19.6084 21.6348 19.6084 20.873Z" fill="white"/>
<line x1="27.5386" y1="21.8872" x2="2.53865" y2="8.88722" stroke="white" stroke-width="2"/>
</svg>
