<svg width="24" height="32" viewBox="0 0 24 32" fill="none" xmlns="http://www.w3.org/2000/svg">
<circle cx="10" cy="14" r="9.5" stroke="white"/>
<path d="M14.5078 11.3125V12.1914H4.73438V11.3125H14.5078ZM14.5078 16.0938V16.9727H4.73438V16.0938H14.5078Z" fill="white"/>
<path d="M23.0417 1.45825C23.0417 1.18211 22.8179 0.958253 22.5417 0.958253L18.0417 0.958253C17.7656 0.958253 17.5417 1.18211 17.5417 1.45825C17.5417 1.7344 17.7656 1.95825 18.0417 1.95825L22.0417 1.95825L22.0417 5.95825C22.0417 6.2344 22.2656 6.45825 22.5417 6.45825C22.8179 6.45825 23.0417 6.2344 23.0417 5.95825L23.0417 1.45825ZM16.8125 7.89457L22.8953 1.81181L22.1882 1.1047L16.1054 7.18746L16.8125 7.89457Z" fill="white"/>
<line x1="10.5" y1="24" x2="10.5" y2="32" stroke="white"/>
<line x1="7" y1="28.5" x2="14" y2="28.5" stroke="#F0F0F0"/>
</svg>
