<svg width="23" height="27" viewBox="0 0 23 27" fill="none" xmlns="http://www.w3.org/2000/svg">
<path d="M1.61426 25.6309V17.365L6.61426 13.1984V25.6309H1.61426Z" stroke="white"/>
<path d="M16.6143 25.6309V12.338L21.6143 7.33797V25.6309H16.6143Z" stroke="white"/>
<path d="M12.4939 15.9563L14.6143 13.4825V25.6309H9.61426V13.4825L11.7346 15.9563L12.1143 16.3992L12.4939 15.9563Z" stroke="white"/>
<path d="M7.61426 7.63086L7.96777 7.27726L7.64036 6.94994L7.28885 7.25124L7.61426 7.63086ZM12.1149 12.1304L11.7614 12.484L12.1322 12.8547L12.4849 12.4667L12.1149 12.1304ZM17.1143 6.63086L16.752 6.28599L16.7443 6.29453L17.1143 6.63086ZM18.9619 4.69034L18.6433 4.30501L18.6203 4.32399L18.5998 4.34556L18.9619 4.69034ZM21.042 2.97025L15.3492 3.93187L19.0284 8.38122L21.042 2.97025ZM0.940787 14.0097L7.93966 8.01048L7.28885 7.25124L0.289983 13.2505L0.940787 14.0097ZM7.26075 7.98446L11.7614 12.484L12.4684 11.7768L7.96777 7.27726L7.26075 7.98446ZM12.4849 12.4667L17.4842 6.96719L16.7443 6.29453L11.745 11.7941L12.4849 12.4667ZM17.4764 6.97564L19.324 5.03512L18.5998 4.34556L16.7521 6.28608L17.4764 6.97564Z" fill="#FEFEFE"/>
</svg>
