<svg xmlns="http://www.w3.org/2000/svg" xmlns:xlink="http://www.w3.org/1999/xlink" width="319.594" height="528.039" viewBox="0 0 319.594 528.039">
  <defs>
    <linearGradient id="linear-gradient" x1="0.5" x2="0.5" y2="1" gradientUnits="objectBoundingBox">
      <stop offset="0" stop-color="#020920"/>
      <stop offset="1" stop-color="#323952"/>
    </linearGradient>
    <filter id="Rectangle_543" x="0" y="325.681" width="319.594" height="202.358" filterUnits="userSpaceOnUse">
      <feOffset dy="3" input="SourceAlpha"/>
      <feGaussianBlur stdDeviation="3" result="blur"/>
      <feFlood flood-opacity="0.161"/>
      <feComposite operator="in" in2="blur"/>
      <feComposite in="SourceGraphic"/>
    </filter>
  </defs>
  <g id="Group_802" data-name="Group 802" transform="translate(-829.142 -3863.141)">
    <rect id="Rectangle_544" data-name="Rectangle 544" width="291.531" height="423.858" transform="translate(843.176 3863.141)" opacity="0.415" fill="url(#linear-gradient)"/>
    <path id="Rectangle_542" data-name="Rectangle 542" d="M159.141,3.572,292.6,71.19a11.941,11.941,0,0,1,3.019,2.111,6.314,6.314,0,0,1,1.587,2.4,3.691,3.691,0,0,1,.04,2.4,4.419,4.419,0,0,1-1.626,2.108L164.538,177.929a12.8,12.8,0,0,1-4.1,1.979,17.245,17.245,0,0,1-4.814.655,18.378,18.378,0,0,1-4.918-.678,15.335,15.335,0,0,1-4.406-2L7.177,84.127a6.126,6.126,0,0,1-2.11-2.258,3.979,3.979,0,0,1-.385-2.527,5.189,5.189,0,0,1,1.266-2.486A9.681,9.681,0,0,1,8.79,74.707L145.7,3.334a11.333,11.333,0,0,1,3.052-1.022,17.034,17.034,0,0,1,3.537-.295,18.213,18.213,0,0,1,3.6.422A13.927,13.927,0,0,1,159.141,3.572Z" transform="translate(838.176 4204.245)" fill="#192137"/>
    <g transform="matrix(1, 0, 0, 1, 829.14, 3863.14)" filter="url(#Rectangle_543)">
      <path id="Rectangle_543-2" data-name="Rectangle 543" d="M168.141,9.572,301.6,77.19a11.941,11.941,0,0,1,3.019,2.111,6.313,6.313,0,0,1,1.587,2.4,3.692,3.692,0,0,1,.04,2.4,4.419,4.419,0,0,1-1.626,2.108L173.538,183.929a12.8,12.8,0,0,1-4.1,1.979,17.245,17.245,0,0,1-4.814.655,18.378,18.378,0,0,1-4.918-.678,15.335,15.335,0,0,1-4.406-2L16.177,90.127a6.126,6.126,0,0,1-2.11-2.258,3.979,3.979,0,0,1-.385-2.527,5.189,5.189,0,0,1,1.266-2.486,9.681,9.681,0,0,1,2.843-2.148L154.7,9.334a11.333,11.333,0,0,1,3.052-1.022,17.033,17.033,0,0,1,3.537-.295,18.213,18.213,0,0,1,3.6.422A13.927,13.927,0,0,1,168.141,9.572Z" transform="translate(0 325.68)" fill="#323952"/>
    </g>
  </g>
</svg>
