<svg xmlns="http://www.w3.org/2000/svg" width="508.45" height="441.477" viewBox="0 0 508.45 441.477">
  <g id="Group_804" data-name="Group 804" transform="translate(156.24 -3704.574)">
    <g id="Group_659" data-name="Group 659" transform="translate(-22.539 3158.574)" opacity="0.458">
      <path id="Path_480" data-name="Path 480" d="M6495.267,6969.75l43.8-25.527,43.7,23.685v51l-43.7,25.241-43.8-25.241Z" transform="translate(-6427 -6321)" fill="none" stroke="#dd4d9b" stroke-width="1"/>
      <path id="Path_481" data-name="Path 481" d="M6495.267,6969.75l43.8-25.527,43.7,23.685v51l-43.7,25.241-43.8-25.241Z" transform="translate(-6208.518 -6248.723)" fill="none" stroke="#dd4d9b" stroke-width="1" opacity="0.172"/>
      <path id="Path_482" data-name="Path 482" d="M6495.267,6969.75l43.8-25.527,43.7,23.685v51l-43.7,25.241-43.8-25.241Z" transform="translate(-6339.5 -6322)" fill="none" stroke="#dd4d9b" stroke-width="1"/>
      <path id="Path_483" data-name="Path 483" d="M6495.267,6969.75l43.8-25.527,43.7,23.685v51l-43.7,25.241-43.8-25.241Z" transform="translate(-6383.017 -6396.149)" fill="none" stroke="#dd4d9b" stroke-width="1" opacity="0.215"/>
      <path id="Path_484" data-name="Path 484" d="M6495.267,6969.75l43.8-25.527,43.7,23.685v51l-43.7,25.241-43.8-25.241Z" transform="translate(-6295.751 -6397.649)" fill="none" stroke="#dd4d9b" stroke-width="1" opacity="0.14"/>
      <path id="Path_485" data-name="Path 485" d="M6495.267,6969.75l43.8-25.527,43.7,23.685v51l-43.7,25.241-43.8-25.241Z" transform="translate(-6252.267 -6323.223)" fill="none" stroke="#dd4d9b" stroke-width="1" opacity="0.293"/>
      <path id="Path_486" data-name="Path 486" d="M6495.267,6969.75l43.8-25.527,43.7,23.685v51l-43.7,25.241-43.8-25.241Z" transform="translate(-6296.517 -6247.723)" fill="none" stroke="#dd4d9b" stroke-width="1"/>
      <path id="Path_487" data-name="Path 487" d="M6495.267,6969.75l43.8-25.527,43.7,23.685v51l-43.7,25.241-43.8-25.241Z" transform="translate(-6384.016 -6246.723)" fill="none" stroke="#dd4d9b" stroke-width="1"/>
      <path id="Path_488" data-name="Path 488" d="M6495.267,6969.75l43.8-25.527,43.7,23.685v51l-43.7,25.241-43.8-25.241Z" transform="translate(-6471.767 -6245.723)" fill="none" stroke="#dd4d9b" stroke-width="1"/>
      <path id="Path_489" data-name="Path 489" d="M6495.267,6969.75l43.8-25.527,43.7,23.685v51l-43.7,25.241-43.8-25.241Z" transform="translate(-6514.767 -6320.223)" fill="none" stroke="#dd4d9b" stroke-width="1"/>
      <path id="Path_490" data-name="Path 490" d="M6495.267,6969.75l43.8-25.527,43.7,23.685v51l-43.7,25.241-43.8-25.241Z" transform="translate(-6470.767 -6396.149)" fill="none" stroke="#dd4d9b" stroke-width="1" opacity="0.259"/>
      <circle id="Ellipse_133" data-name="Ellipse 133" cx="3.5" cy="3.5" r="3.5" transform="translate(109 620)" fill="#dd389a"/>
      <circle id="Ellipse_134" data-name="Ellipse 134" cx="3.5" cy="3.5" r="3.5" transform="translate(108 719)" fill="#dd389a"/>
      <circle id="Ellipse_135" data-name="Ellipse 135" cx="3.5" cy="3.5" r="3.5" transform="translate(65 694)" fill="#dd389a"/>
      <circle id="Ellipse_136" data-name="Ellipse 136" cx="3.5" cy="3.5" r="3.5" transform="translate(152 694)" fill="#dd389a"/>
      <circle id="Ellipse_137" data-name="Ellipse 137" cx="3.5" cy="3.5" r="3.5" transform="translate(152 643)" fill="#dd389a"/>
      <circle id="Ellipse_138" data-name="Ellipse 138" cx="3.5" cy="3.5" r="3.5" transform="translate(196 718)" fill="#dd389a"/>
      <circle id="Ellipse_139" data-name="Ellipse 139" cx="3.5" cy="3.5" r="3.5" transform="translate(240 694)" fill="#dd389a"/>
      <circle id="Ellipse_140" data-name="Ellipse 140" cx="3.5" cy="3.5" r="3.5" transform="translate(196 768)" fill="#dd389a"/>
      <circle id="Ellipse_141" data-name="Ellipse 141" cx="3.5" cy="3.5" r="3.5" transform="translate(283 717)" fill="#dd389a"/>
      <circle id="Ellipse_142" data-name="Ellipse 142" cx="3.5" cy="3.5" r="3.5" transform="translate(283 768)" fill="#dd389a"/>
      <circle id="Ellipse_143" data-name="Ellipse 143" cx="3.5" cy="3.5" r="3.5" transform="translate(327 641)" fill="#dd389a" opacity="0.172"/>
      <circle id="Ellipse_144" data-name="Ellipse 144" cx="3.5" cy="3.5" r="3.5" transform="translate(283 618)" fill="#dd389a" opacity="0.265"/>
      <circle id="Ellipse_145" data-name="Ellipse 145" cx="3.5" cy="3.5" r="3.5" transform="translate(239 641)" fill="#dd389a"/>
      <circle id="Ellipse_146" data-name="Ellipse 146" cx="3.5" cy="3.5" r="3.5" transform="translate(196 619)" fill="#dd389a"/>
      <circle id="Ellipse_147" data-name="Ellipse 147" cx="3.5" cy="3.5" r="3.5" transform="translate(21 620)" fill="#dd389a"/>
      <circle id="Ellipse_148" data-name="Ellipse 148" cx="3.5" cy="3.5" r="3.5" transform="translate(20 719)" fill="#dd389a"/>
      <circle id="Ellipse_149" data-name="Ellipse 149" cx="3.5" cy="3.5" r="3.5" transform="translate(196 568)" fill="#dd389a" opacity="0.501"/>
      <circle id="Ellipse_150" data-name="Ellipse 150" cx="3.5" cy="3.5" r="3.5" transform="translate(108 770)" fill="#dd389a"/>
    </g>
    <g id="Group_661" data-name="Group 661" transform="translate(-136.24 3347.047)" opacity="0.194">
      <path id="Path_480-2" data-name="Path 480" d="M6495.267,6969.75l43.8-25.527,43.7,23.685v51l-43.7,25.241-43.8-25.241Z" transform="translate(-6427 -6321)" fill="none" stroke="#dd4d9b" stroke-width="1"/>
      <path id="Path_481-2" data-name="Path 481" d="M6495.267,6969.75l43.8-25.527,43.7,23.685v51l-43.7,25.241-43.8-25.241Z" transform="translate(-6208.518 -6248.723)" fill="none" stroke="#dd4d9b" stroke-width="1" opacity="0.177"/>
      <path id="Path_482-2" data-name="Path 482" d="M6495.267,6969.75l43.8-25.527,43.7,23.685v51l-43.7,25.241-43.8-25.241Z" transform="translate(-6339.5 -6322)" fill="none" stroke="#dd4d9b" stroke-width="1"/>
      <path id="Path_483-2" data-name="Path 483" d="M6495.267,6969.75l43.8-25.527,43.7,23.685v51l-43.7,25.241-43.8-25.241Z" transform="translate(-6383.017 -6396.149)" fill="none" stroke="#dd4d9b" stroke-width="1"/>
      <path id="Path_484-2" data-name="Path 484" d="M6495.267,6969.75l43.8-25.527,43.7,23.685v51l-43.7,25.241-43.8-25.241Z" transform="translate(-6295.751 -6397.649)" fill="none" stroke="#dd4d9b" stroke-width="1"/>
      <path id="Path_485-2" data-name="Path 485" d="M6495.267,6969.75l43.8-25.527,43.7,23.685v51l-43.7,25.241-43.8-25.241Z" transform="translate(-6252.267 -6323.223)" fill="none" stroke="#dd4d9b" stroke-width="1"/>
      <path id="Path_486-2" data-name="Path 486" d="M6495.267,6969.75l43.8-25.527,43.7,23.685v51l-43.7,25.241-43.8-25.241Z" transform="translate(-6296.517 -6247.723)" fill="none" stroke="#dd4d9b" stroke-width="1" opacity="0.307"/>
      <path id="Path_487-2" data-name="Path 487" d="M6495.267,6969.75l43.8-25.527,43.7,23.685v51l-43.7,25.241-43.8-25.241Z" transform="translate(-6384.016 -6246.723)" fill="none" stroke="#dd4d9b" stroke-width="1" opacity="0.275"/>
      <path id="Path_488-2" data-name="Path 488" d="M6495.267,6969.75l43.8-25.527,43.7,23.685v51l-43.7,25.241-43.8-25.241Z" transform="translate(-6471.767 -6245.723)" fill="none" stroke="#dd4d9b" stroke-width="1"/>
      <path id="Path_489-2" data-name="Path 489" d="M6495.267,6969.75l43.8-25.527,43.7,23.685v51l-43.7,25.241-43.8-25.241Z" transform="translate(-6514.767 -6320.223)" fill="none" stroke="#dd4d9b" stroke-width="1"/>
      <path id="Path_490-2" data-name="Path 490" d="M6495.267,6969.75l43.8-25.527,43.7,23.685v51l-43.7,25.241-43.8-25.241Z" transform="translate(-6470.767 -6396.149)" fill="none" stroke="#dd4d9b" stroke-width="1"/>
      <circle id="Ellipse_133-2" data-name="Ellipse 133" cx="3.5" cy="3.5" r="3.5" transform="translate(109 620)" fill="#dd389a"/>
      <circle id="Ellipse_134-2" data-name="Ellipse 134" cx="3.5" cy="3.5" r="3.5" transform="translate(108 719)" fill="#dd389a"/>
      <circle id="Ellipse_135-2" data-name="Ellipse 135" cx="3.5" cy="3.5" r="3.5" transform="translate(65 694)" fill="#dd389a"/>
      <circle id="Ellipse_136-2" data-name="Ellipse 136" cx="3.5" cy="3.5" r="3.5" transform="translate(152 694)" fill="#dd389a"/>
      <circle id="Ellipse_137-2" data-name="Ellipse 137" cx="3.5" cy="3.5" r="3.5" transform="translate(152 643)" fill="#dd389a"/>
      <circle id="Ellipse_138-2" data-name="Ellipse 138" cx="3.5" cy="3.5" r="3.5" transform="translate(196 718)" fill="#dd389a"/>
      <circle id="Ellipse_139-2" data-name="Ellipse 139" cx="3.5" cy="3.5" r="3.5" transform="translate(240 694)" fill="#dd389a"/>
      <circle id="Ellipse_140-2" data-name="Ellipse 140" cx="3.5" cy="3.5" r="3.5" transform="translate(196 768)" fill="#dd389a" opacity="0.496"/>
      <circle id="Ellipse_141-2" data-name="Ellipse 141" cx="3.5" cy="3.5" r="3.5" transform="translate(283 717)" fill="#dd389a"/>
      <circle id="Ellipse_142-2" data-name="Ellipse 142" cx="3.5" cy="3.5" r="3.5" transform="translate(283 768)" fill="#dd389a" opacity="0.432"/>
      <circle id="Ellipse_143-2" data-name="Ellipse 143" cx="3.5" cy="3.5" r="3.5" transform="translate(327 641)" fill="#dd389a"/>
      <circle id="Ellipse_144-2" data-name="Ellipse 144" cx="3.5" cy="3.5" r="3.5" transform="translate(283 618)" fill="#dd389a"/>
      <circle id="Ellipse_145-2" data-name="Ellipse 145" cx="3.5" cy="3.5" r="3.5" transform="translate(239 641)" fill="#dd389a"/>
      <circle id="Ellipse_146-2" data-name="Ellipse 146" cx="3.5" cy="3.5" r="3.5" transform="translate(196 619)" fill="#dd389a"/>
      <circle id="Ellipse_147-2" data-name="Ellipse 147" cx="3.5" cy="3.5" r="3.5" transform="translate(21 620)" fill="#dd389a"/>
      <circle id="Ellipse_148-2" data-name="Ellipse 148" cx="3.5" cy="3.5" r="3.5" transform="translate(20 719)" fill="#dd389a"/>
      <circle id="Ellipse_149-2" data-name="Ellipse 149" cx="3.5" cy="3.5" r="3.5" transform="translate(196 568)" fill="#dd389a"/>
      <circle id="Ellipse_150-2" data-name="Ellipse 150" cx="3.5" cy="3.5" r="3.5" transform="translate(108 770)" fill="#dd389a"/>
    </g>
  </g>
</svg>
