<svg xmlns="http://www.w3.org/2000/svg" width="478.198" height="727.55" viewBox="0 0 478.198 727.55">
  <g id="fond_carre" data-name="fond carre" transform="translate(50.95 -181.575)">
    <g id="Group_659" data-name="Group 659" transform="translate(20.751 -79.736)" opacity="0.458">
      <path id="Path_480" data-name="Path 480" d="M6495.267,6969.75l43.8-25.527,43.7,23.685v51l-43.7,25.241-43.8-25.241Z" transform="translate(-6427 -6321)" fill="none" stroke="#dd4d9b" stroke-width="1"/>
      <path id="Path_481" data-name="Path 481" d="M6495.267,6969.75l43.8-25.527,43.7,23.685v51l-43.7,25.241-43.8-25.241Z" transform="translate(-6208.518 -6248.723)" fill="none" stroke="#dd4d9b" stroke-width="1" opacity="0.07"/>
      <path id="Path_482" data-name="Path 482" d="M6495.267,6969.75l43.8-25.527,43.7,23.685v51l-43.7,25.241-43.8-25.241Z" transform="translate(-6339.5 -6322)" fill="none" stroke="#dd4d9b" stroke-width="1" opacity="0.39"/>
      <path id="Path_483" data-name="Path 483" d="M6495.267,6969.75l43.8-25.527,43.7,23.685v51l-43.7,25.241-43.8-25.241Z" transform="translate(-6383.017 -6396.149)" fill="none" stroke="#dd4d9b" stroke-width="1" opacity="0.215"/>
      <path id="Path_484" data-name="Path 484" d="M6495.267,6969.75l43.8-25.527,43.7,23.685v51l-43.7,25.241-43.8-25.241Z" transform="translate(-6295.751 -6397.649)" fill="none" stroke="#dd4d9b" stroke-width="1" opacity="0.113"/>
      <path id="Path_485" data-name="Path 485" d="M6495.267,6969.75l43.8-25.527,43.7,23.685v51l-43.7,25.241-43.8-25.241Z" transform="translate(-6252.267 -6323.223)" fill="none" stroke="#dd4d9b" stroke-width="1" opacity="0.003"/>
      <path id="Path_486" data-name="Path 486" d="M6495.267,6969.75l43.8-25.527,43.7,23.685v51l-43.7,25.241-43.8-25.241Z" transform="translate(-6296.517 -6247.723)" fill="none" stroke="#dd4d9b" stroke-width="1" opacity="0.004"/>
      <path id="Path_487" data-name="Path 487" d="M6495.267,6969.75l43.8-25.527,43.7,23.685v51l-43.7,25.241-43.8-25.241Z" transform="translate(-6384.016 -6246.723)" fill="none" stroke="#dd4d9b" stroke-width="1"/>
      <path id="Path_488" data-name="Path 488" d="M6495.267,6969.75l43.8-25.527,43.7,23.685v51l-43.7,25.241-43.8-25.241Z" transform="translate(-6471.767 -6245.723)" fill="none" stroke="#dd4d9b" stroke-width="1"/>
      <path id="Path_489" data-name="Path 489" d="M6495.267,6969.75l43.8-25.527,43.7,23.685v51l-43.7,25.241-43.8-25.241Z" transform="translate(-6514.767 -6320.223)" fill="none" stroke="#dd4d9b" stroke-width="1"/>
      <path id="Path_490" data-name="Path 490" d="M6495.267,6969.75l43.8-25.527,43.7,23.685v51l-43.7,25.241-43.8-25.241Z" transform="translate(-6470.767 -6396.149)" fill="none" stroke="#dd4d9b" stroke-width="1" opacity="0.259"/>
      <circle id="Ellipse_133" data-name="Ellipse 133" cx="3.5" cy="3.5" r="3.5" transform="translate(109 620)" fill="#dd389a"/>
      <circle id="Ellipse_134" data-name="Ellipse 134" cx="3.5" cy="3.5" r="3.5" transform="translate(108 719)" fill="#dd389a"/>
      <circle id="Ellipse_135" data-name="Ellipse 135" cx="3.5" cy="3.5" r="3.5" transform="translate(65 694)" fill="#dd389a"/>
      <circle id="Ellipse_136" data-name="Ellipse 136" cx="3.5" cy="3.5" r="3.5" transform="translate(152 694)" fill="#dd389a"/>
      <circle id="Ellipse_137" data-name="Ellipse 137" cx="3.5" cy="3.5" r="3.5" transform="translate(152 643)" fill="#dd389a"/>
      <circle id="Ellipse_138" data-name="Ellipse 138" cx="3.5" cy="3.5" r="3.5" transform="translate(196 718)" fill="#dd389a"/>
      <circle id="Ellipse_139" data-name="Ellipse 139" cx="3.5" cy="3.5" r="3.5" transform="translate(240 694)" fill="#dd389a" opacity="0.468"/>
      <circle id="Ellipse_140" data-name="Ellipse 140" cx="3.5" cy="3.5" r="3.5" transform="translate(196 768)" fill="#dd389a"/>
      <circle id="Ellipse_141" data-name="Ellipse 141" cx="3.5" cy="3.5" r="3.5" transform="translate(283 717)" fill="#dd389a" opacity="0.094"/>
      <circle id="Ellipse_142" data-name="Ellipse 142" cx="3.5" cy="3.5" r="3.5" transform="translate(283 768)" fill="#dd389a" opacity="0"/>
      <circle id="Ellipse_143" data-name="Ellipse 143" cx="3.5" cy="3.5" r="3.5" transform="translate(327 641)" fill="#dd389a" opacity="0.172"/>
      <circle id="Ellipse_144" data-name="Ellipse 144" cx="3.5" cy="3.5" r="3.5" transform="translate(283 618)" fill="#dd389a" opacity="0.265"/>
      <circle id="Ellipse_145" data-name="Ellipse 145" cx="3.5" cy="3.5" r="3.5" transform="translate(239 641)" fill="#dd389a" opacity="0.473"/>
      <circle id="Ellipse_146" data-name="Ellipse 146" cx="3.5" cy="3.5" r="3.5" transform="translate(196 619)" fill="#dd389a"/>
      <circle id="Ellipse_147" data-name="Ellipse 147" cx="3.5" cy="3.5" r="3.5" transform="translate(21 620)" fill="#dd389a"/>
      <circle id="Ellipse_148" data-name="Ellipse 148" cx="3.5" cy="3.5" r="3.5" transform="translate(20 719)" fill="#dd389a"/>
      <circle id="Ellipse_149" data-name="Ellipse 149" cx="3.5" cy="3.5" r="3.5" transform="translate(196 568)" fill="#dd389a" opacity="0.501"/>
      <circle id="Ellipse_150" data-name="Ellipse 150" cx="3.5" cy="3.5" r="3.5" transform="translate(108 770)" fill="#dd389a"/>
    </g>
    <g id="Group_661" data-name="Group 661" transform="translate(-30.95 110.122)" opacity="0.194">
      <path id="Path_480-2" data-name="Path 480" d="M6495.267,6969.75l43.8-25.527,43.7,23.685v51l-43.7,25.241-43.8-25.241Z" transform="translate(-6427 -6321)" fill="none" stroke="#dd4d9b" stroke-width="1"/>
      <path id="Path_481-2" data-name="Path 481" d="M6495.267,6969.75l43.8-25.527,43.7,23.685v51l-43.7,25.241-43.8-25.241Z" transform="translate(-6208.518 -6248.723)" fill="none" stroke="#dd4d9b" stroke-width="1" opacity="0.177"/>
      <path id="Path_482-2" data-name="Path 482" d="M6495.267,6969.75l43.8-25.527,43.7,23.685v51l-43.7,25.241-43.8-25.241Z" transform="translate(-6339.5 -6322)" fill="none" stroke="#dd4d9b" stroke-width="1" opacity="0.292"/>
      <path id="Path_483-2" data-name="Path 483" d="M6495.267,6969.75l43.8-25.527,43.7,23.685v51l-43.7,25.241-43.8-25.241Z" transform="translate(-6383.017 -6396.149)" fill="none" stroke="#dd4d9b" stroke-width="1"/>
      <path id="Path_484-2" data-name="Path 484" d="M6495.267,6969.75l43.8-25.527,43.7,23.685v51l-43.7,25.241-43.8-25.241Z" transform="translate(-6295.751 -6397.649)" fill="none" stroke="#dd4d9b" stroke-width="1" opacity="0.353"/>
      <path id="Path_485-2" data-name="Path 485" d="M6495.267,6969.75l43.8-25.527,43.7,23.685v51l-43.7,25.241-43.8-25.241Z" transform="translate(-6252.267 -6323.223)" fill="none" stroke="#dd4d9b" stroke-width="1" opacity="0.325"/>
      <path id="Path_486-2" data-name="Path 486" d="M6495.267,6969.75l43.8-25.527,43.7,23.685v51l-43.7,25.241-43.8-25.241Z" transform="translate(-6296.517 -6247.723)" fill="none" stroke="#dd4d9b" stroke-width="1" opacity="0.148"/>
      <path id="Path_487-2" data-name="Path 487" d="M6495.267,6969.75l43.8-25.527,43.7,23.685v51l-43.7,25.241-43.8-25.241Z" transform="translate(-6384.016 -6246.723)" fill="none" stroke="#dd4d9b" stroke-width="1" opacity="0.145"/>
      <path id="Path_488-2" data-name="Path 488" d="M6495.267,6969.75l43.8-25.527,43.7,23.685v51l-43.7,25.241-43.8-25.241Z" transform="translate(-6471.767 -6245.723)" fill="none" stroke="#dd4d9b" stroke-width="1" opacity="0.519"/>
      <path id="Path_489-2" data-name="Path 489" d="M6495.267,6969.75l43.8-25.527,43.7,23.685v51l-43.7,25.241-43.8-25.241Z" transform="translate(-6514.767 -6320.223)" fill="none" stroke="#dd4d9b" stroke-width="1"/>
      <path id="Path_490-2" data-name="Path 490" d="M6495.267,6969.75l43.8-25.527,43.7,23.685v51l-43.7,25.241-43.8-25.241Z" transform="translate(-6470.767 -6396.149)" fill="none" stroke="#dd4d9b" stroke-width="1"/>
      <circle id="Ellipse_133-2" data-name="Ellipse 133" cx="3.5" cy="3.5" r="3.5" transform="translate(109 620)" fill="#dd389a"/>
      <circle id="Ellipse_134-2" data-name="Ellipse 134" cx="3.5" cy="3.5" r="3.5" transform="translate(108 719)" fill="#dd389a"/>
      <circle id="Ellipse_135-2" data-name="Ellipse 135" cx="3.5" cy="3.5" r="3.5" transform="translate(65 694)" fill="#dd389a"/>
      <circle id="Ellipse_136-2" data-name="Ellipse 136" cx="3.5" cy="3.5" r="3.5" transform="translate(152 694)" fill="#dd389a"/>
      <circle id="Ellipse_137-2" data-name="Ellipse 137" cx="3.5" cy="3.5" r="3.5" transform="translate(152 643)" fill="#dd389a"/>
      <circle id="Ellipse_138-2" data-name="Ellipse 138" cx="3.5" cy="3.5" r="3.5" transform="translate(196 718)" fill="#dd389a" opacity="0.649"/>
      <circle id="Ellipse_139-2" data-name="Ellipse 139" cx="3.5" cy="3.5" r="3.5" transform="translate(240 694)" fill="#dd389a"/>
      <circle id="Ellipse_140-2" data-name="Ellipse 140" cx="3.5" cy="3.5" r="3.5" transform="translate(196 768)" fill="#dd389a" opacity="0.496"/>
      <circle id="Ellipse_141-2" data-name="Ellipse 141" cx="3.5" cy="3.5" r="3.5" transform="translate(283 717)" fill="#dd389a" opacity="0.461"/>
      <circle id="Ellipse_142-2" data-name="Ellipse 142" cx="3.5" cy="3.5" r="3.5" transform="translate(283 768)" fill="#dd389a" opacity="0.243"/>
      <circle id="Ellipse_143-2" data-name="Ellipse 143" cx="3.5" cy="3.5" r="3.5" transform="translate(327 641)" fill="#dd389a" opacity="0.2"/>
      <circle id="Ellipse_144-2" data-name="Ellipse 144" cx="3.5" cy="3.5" r="3.5" transform="translate(283 618)" fill="#dd389a"/>
      <circle id="Ellipse_145-2" data-name="Ellipse 145" cx="3.5" cy="3.5" r="3.5" transform="translate(239 641)" fill="#dd389a"/>
      <circle id="Ellipse_146-2" data-name="Ellipse 146" cx="3.5" cy="3.5" r="3.5" transform="translate(196 619)" fill="#dd389a"/>
      <circle id="Ellipse_147-2" data-name="Ellipse 147" cx="3.5" cy="3.5" r="3.5" transform="translate(21 620)" fill="#dd389a"/>
      <circle id="Ellipse_148-2" data-name="Ellipse 148" cx="3.5" cy="3.5" r="3.5" transform="translate(20 719)" fill="#dd389a"/>
      <circle id="Ellipse_149-2" data-name="Ellipse 149" cx="3.5" cy="3.5" r="3.5" transform="translate(196 568)" fill="#dd389a"/>
      <circle id="Ellipse_150-2" data-name="Ellipse 150" cx="3.5" cy="3.5" r="3.5" transform="translate(108 770)" fill="#dd389a" opacity="0.39"/>
    </g>
    <g id="Group_771" data-name="Group 771" transform="translate(-12.243 -257)" opacity="0.458">
      <path id="Path_480-3" data-name="Path 480" d="M6495.267,6969.75l43.8-25.527,43.7,23.685v51l-43.7,25.241-43.8-25.241Z" transform="translate(-6427 -6321)" fill="none" stroke="#dd4d9b" stroke-width="1"/>
      <path id="Path_481-3" data-name="Path 481" d="M6495.267,6969.75l43.8-25.527,43.7,23.685v51l-43.7,25.241-43.8-25.241Z" transform="translate(-6208.518 -6248.723)" fill="none" stroke="#dd4d9b" stroke-width="1" opacity="0.07"/>
      <path id="Path_482-3" data-name="Path 482" d="M6495.267,6969.75l43.8-25.527,43.7,23.685v51l-43.7,25.241-43.8-25.241Z" transform="translate(-6339.5 -6322)" fill="none" stroke="#dd4d9b" stroke-width="1" opacity="0.39"/>
      <path id="Path_483-3" data-name="Path 483" d="M6495.267,6969.75l43.8-25.527,43.7,23.685v51l-43.7,25.241-43.8-25.241Z" transform="translate(-6383.017 -6396.149)" fill="none" stroke="#dd4d9b" stroke-width="1" opacity="0.215"/>
      <path id="Path_484-3" data-name="Path 484" d="M6495.267,6969.75l43.8-25.527,43.7,23.685v51l-43.7,25.241-43.8-25.241Z" transform="translate(-6295.751 -6397.649)" fill="none" stroke="#dd4d9b" stroke-width="1" opacity="0.14"/>
      <path id="Path_485-3" data-name="Path 485" d="M6495.267,6969.75l43.8-25.527,43.7,23.685v51l-43.7,25.241-43.8-25.241Z" transform="translate(-6252.267 -6323.223)" fill="none" stroke="#dd4d9b" stroke-width="1" opacity="0.003"/>
      <path id="Path_486-3" data-name="Path 486" d="M6495.267,6969.75l43.8-25.527,43.7,23.685v51l-43.7,25.241-43.8-25.241Z" transform="translate(-6296.517 -6247.723)" fill="none" stroke="#dd4d9b" stroke-width="1" opacity="0.004"/>
      <path id="Path_487-3" data-name="Path 487" d="M6495.267,6969.75l43.8-25.527,43.7,23.685v51l-43.7,25.241-43.8-25.241Z" transform="translate(-6384.016 -6246.723)" fill="none" stroke="#dd4d9b" stroke-width="1"/>
      <path id="Path_488-3" data-name="Path 488" d="M6495.267,6969.75l43.8-25.527,43.7,23.685v51l-43.7,25.241-43.8-25.241Z" transform="translate(-6471.767 -6245.723)" fill="none" stroke="#dd4d9b" stroke-width="1"/>
      <path id="Path_489-3" data-name="Path 489" d="M6495.267,6969.75l43.8-25.527,43.7,23.685v51l-43.7,25.241-43.8-25.241Z" transform="translate(-6514.767 -6320.223)" fill="none" stroke="#dd4d9b" stroke-width="1"/>
      <path id="Path_490-3" data-name="Path 490" d="M6495.267,6969.75l43.8-25.527,43.7,23.685v51l-43.7,25.241-43.8-25.241Z" transform="translate(-6470.767 -6396.149)" fill="none" stroke="#dd4d9b" stroke-width="1" opacity="0.259"/>
      <circle id="Ellipse_133-3" data-name="Ellipse 133" cx="3.5" cy="3.5" r="3.5" transform="translate(109 620)" fill="#dd389a"/>
      <circle id="Ellipse_134-3" data-name="Ellipse 134" cx="3.5" cy="3.5" r="3.5" transform="translate(108 719)" fill="#dd389a"/>
      <circle id="Ellipse_135-3" data-name="Ellipse 135" cx="3.5" cy="3.5" r="3.5" transform="translate(65 694)" fill="#dd389a"/>
      <circle id="Ellipse_136-3" data-name="Ellipse 136" cx="3.5" cy="3.5" r="3.5" transform="translate(152 694)" fill="#dd389a"/>
      <circle id="Ellipse_137-3" data-name="Ellipse 137" cx="3.5" cy="3.5" r="3.5" transform="translate(152 643)" fill="#dd389a"/>
      <circle id="Ellipse_138-3" data-name="Ellipse 138" cx="3.5" cy="3.5" r="3.5" transform="translate(196 718)" fill="#dd389a"/>
      <circle id="Ellipse_139-3" data-name="Ellipse 139" cx="3.5" cy="3.5" r="3.5" transform="translate(240 694)" fill="#dd389a" opacity="0.468"/>
      <circle id="Ellipse_140-3" data-name="Ellipse 140" cx="3.5" cy="3.5" r="3.5" transform="translate(196 768)" fill="#dd389a"/>
      <circle id="Ellipse_141-3" data-name="Ellipse 141" cx="3.5" cy="3.5" r="3.5" transform="translate(283 717)" fill="#dd389a" opacity="0.094"/>
      <circle id="Ellipse_142-3" data-name="Ellipse 142" cx="3.5" cy="3.5" r="3.5" transform="translate(283 768)" fill="#dd389a" opacity="0"/>
      <circle id="Ellipse_143-3" data-name="Ellipse 143" cx="3.5" cy="3.5" r="3.5" transform="translate(327 641)" fill="#dd389a" opacity="0.172"/>
      <circle id="Ellipse_144-3" data-name="Ellipse 144" cx="3.5" cy="3.5" r="3.5" transform="translate(283 618)" fill="#dd389a" opacity="0.265"/>
      <circle id="Ellipse_145-3" data-name="Ellipse 145" cx="3.5" cy="3.5" r="3.5" transform="translate(239 641)" fill="#dd389a" opacity="0.473"/>
      <circle id="Ellipse_146-3" data-name="Ellipse 146" cx="3.5" cy="3.5" r="3.5" transform="translate(196 619)" fill="#dd389a"/>
      <circle id="Ellipse_147-3" data-name="Ellipse 147" cx="3.5" cy="3.5" r="3.5" transform="translate(21 620)" fill="#dd389a"/>
      <circle id="Ellipse_148-3" data-name="Ellipse 148" cx="3.5" cy="3.5" r="3.5" transform="translate(20 719)" fill="#dd389a"/>
      <circle id="Ellipse_149-3" data-name="Ellipse 149" cx="3.5" cy="3.5" r="3.5" transform="translate(196 568)" fill="#dd389a" opacity="0.501"/>
      <circle id="Ellipse_150-3" data-name="Ellipse 150" cx="3.5" cy="3.5" r="3.5" transform="translate(108 770)" fill="#dd389a"/>
    </g>
    <g id="Group_772" data-name="Group 772" transform="translate(52.5 -364.426)" opacity="0.36">
      <path id="Path_480-4" data-name="Path 480" d="M6495.267,6969.75l43.8-25.527,43.7,23.685v51l-43.7,25.241-43.8-25.241Z" transform="translate(-6427 -6321)" fill="none" stroke="#dd4d9b" stroke-width="1" opacity="0.057"/>
      <path id="Path_481-4" data-name="Path 481" d="M6495.267,6969.75l43.8-25.527,43.7,23.685v51l-43.7,25.241-43.8-25.241Z" transform="translate(-6208.518 -6248.723)" fill="none" stroke="#dd4d9b" stroke-width="1" opacity="0.07"/>
      <path id="Path_482-4" data-name="Path 482" d="M6495.267,6969.75l43.8-25.527,43.7,23.685v51l-43.7,25.241-43.8-25.241Z" transform="translate(-6339.5 -6322)" fill="none" stroke="#dd4d9b" stroke-width="1" opacity="0.099"/>
      <path id="Path_483-4" data-name="Path 483" d="M6495.267,6969.75l43.8-25.527,43.7,23.685v51l-43.7,25.241-43.8-25.241Z" transform="translate(-6383.017 -6396.149)" fill="none" stroke="#dd4d9b" stroke-width="1" opacity="0.027"/>
      <path id="Path_484-4" data-name="Path 484" d="M6495.267,6969.75l43.8-25.527,43.7,23.685v51l-43.7,25.241-43.8-25.241Z" transform="translate(-6295.751 -6397.649)" fill="none" stroke="#dd4d9b" stroke-width="1" opacity="0.067"/>
      <path id="Path_485-4" data-name="Path 485" d="M6495.267,6969.75l43.8-25.527,43.7,23.685v51l-43.7,25.241-43.8-25.241Z" transform="translate(-6252.267 -6323.223)" fill="none" stroke="#dd4d9b" stroke-width="1" opacity="0.003"/>
      <path id="Path_486-4" data-name="Path 486" d="M6495.267,6969.75l43.8-25.527,43.7,23.685v51l-43.7,25.241-43.8-25.241Z" transform="translate(-6296.517 -6247.723)" fill="none" stroke="#dd4d9b" stroke-width="1" opacity="0.004"/>
      <path id="Path_487-4" data-name="Path 487" d="M6495.267,6969.75l43.8-25.527,43.7,23.685v51l-43.7,25.241-43.8-25.241Z" transform="translate(-6384.016 -6246.723)" fill="none" stroke="#dd4d9b" stroke-width="1" opacity="0.317"/>
      <path id="Path_488-4" data-name="Path 488" d="M6495.267,6969.75l43.8-25.527,43.7,23.685v51l-43.7,25.241-43.8-25.241Z" transform="translate(-6471.767 -6245.723)" fill="none" stroke="#dd4d9b" stroke-width="1"/>
      <path id="Path_489-4" data-name="Path 489" d="M6495.267,6969.75l43.8-25.527,43.7,23.685v51l-43.7,25.241-43.8-25.241Z" transform="translate(-6514.767 -6320.223)" fill="none" stroke="#dd4d9b" stroke-width="1" opacity="0.239"/>
      <path id="Path_490-4" data-name="Path 490" d="M6495.267,6969.75l43.8-25.527,43.7,23.685v51l-43.7,25.241-43.8-25.241Z" transform="translate(-6470.767 -6396.149)" fill="none" stroke="#dd4d9b" stroke-width="1" opacity="0.045"/>
      <circle id="Ellipse_133-4" data-name="Ellipse 133" cx="3.5" cy="3.5" r="3.5" transform="translate(109 620)" fill="#dd389a" opacity="0.382"/>
      <circle id="Ellipse_134-4" data-name="Ellipse 134" cx="3.5" cy="3.5" r="3.5" transform="translate(108 719)" fill="#dd389a"/>
      <circle id="Ellipse_135-4" data-name="Ellipse 135" cx="3.5" cy="3.5" r="3.5" transform="translate(65 694)" fill="#dd389a"/>
      <circle id="Ellipse_136-4" data-name="Ellipse 136" cx="3.5" cy="3.5" r="3.5" transform="translate(152 694)" fill="#dd389a" opacity="0.295"/>
      <circle id="Ellipse_137-4" data-name="Ellipse 137" cx="3.5" cy="3.5" r="3.5" transform="translate(152 643)" fill="#dd389a" opacity="0.273"/>
      <circle id="Ellipse_138-4" data-name="Ellipse 138" cx="3.5" cy="3.5" r="3.5" transform="translate(196 718)" fill="#dd389a" opacity="0.188"/>
      <circle id="Ellipse_139-4" data-name="Ellipse 139" cx="3.5" cy="3.5" r="3.5" transform="translate(240 694)" fill="#dd389a" opacity="0.105"/>
      <circle id="Ellipse_140-4" data-name="Ellipse 140" cx="3.5" cy="3.5" r="3.5" transform="translate(196 768)" fill="#dd389a" opacity="0.158"/>
      <circle id="Ellipse_141-4" data-name="Ellipse 141" cx="3.5" cy="3.5" r="3.5" transform="translate(283 717)" fill="#dd389a" opacity="0.007"/>
      <circle id="Ellipse_142-4" data-name="Ellipse 142" cx="3.5" cy="3.5" r="3.5" transform="translate(283 768)" fill="#dd389a" opacity="0"/>
      <circle id="Ellipse_143-4" data-name="Ellipse 143" cx="3.5" cy="3.5" r="3.5" transform="translate(327 641)" fill="#dd389a" opacity="0.06"/>
      <circle id="Ellipse_144-4" data-name="Ellipse 144" cx="3.5" cy="3.5" r="3.5" transform="translate(283 618)" fill="#dd389a" opacity="0.043"/>
      <circle id="Ellipse_145-4" data-name="Ellipse 145" cx="3.5" cy="3.5" r="3.5" transform="translate(239 641)" fill="#dd389a" opacity="0.12"/>
      <circle id="Ellipse_146-4" data-name="Ellipse 146" cx="3.5" cy="3.5" r="3.5" transform="translate(196 619)" fill="#dd389a" opacity="0.169"/>
      <circle id="Ellipse_147-4" data-name="Ellipse 147" cx="3.5" cy="3.5" r="3.5" transform="translate(21 620)" fill="#dd389a" opacity="0.378"/>
      <circle id="Ellipse_148-4" data-name="Ellipse 148" cx="3.5" cy="3.5" r="3.5" transform="translate(20 719)" fill="#dd389a"/>
      <circle id="Ellipse_149-4" data-name="Ellipse 149" cx="3.5" cy="3.5" r="3.5" transform="translate(196 568)" fill="#dd389a" opacity="0.178"/>
      <circle id="Ellipse_150-4" data-name="Ellipse 150" cx="3.5" cy="3.5" r="3.5" transform="translate(108 770)" fill="#dd389a"/>
    </g>
  </g>
</svg>
