<svg xmlns="http://www.w3.org/2000/svg" width="570.56" height="708.057" viewBox="0 0 570.56 708.057">
  <g id="Group_802" data-name="Group 802" transform="translate(-1621.689 -612.338)">
    <g id="Group_776" data-name="Group 776">
      <g id="fond_carre_" data-name="fond carre ">
        <g id="Group_769" data-name="Group 769" transform="translate(1773.498 346.574)" opacity="0.458">
          <path id="Path_480" data-name="Path 480" d="M6495.267,6969.75l43.8-25.527,43.7,23.685v51l-43.7,25.241-43.8-25.241Z" transform="translate(-6427 -6321)" fill="none" stroke="#dd4d9b" stroke-width="1"/>
          <path id="Path_481" data-name="Path 481" d="M6495.267,6969.75l43.8-25.527,43.7,23.685v51l-43.7,25.241-43.8-25.241Z" transform="translate(-6208.518 -6248.723)" fill="none" stroke="#dd4d9b" stroke-width="1" opacity="0.172"/>
          <path id="Path_482" data-name="Path 482" d="M6495.267,6969.75l43.8-25.527,43.7,23.685v51l-43.7,25.241-43.8-25.241Z" transform="translate(-6339.5 -6322)" fill="none" stroke="#dd4d9b" stroke-width="1"/>
          <path id="Path_483" data-name="Path 483" d="M6495.267,6969.75l43.8-25.527,43.7,23.685v51l-43.7,25.241-43.8-25.241Z" transform="translate(-6383.017 -6396.149)" fill="none" stroke="#dd4d9b" stroke-width="1" opacity="0.215"/>
          <path id="Path_484" data-name="Path 484" d="M6495.267,6969.75l43.8-25.527,43.7,23.685v51l-43.7,25.241-43.8-25.241Z" transform="translate(-6295.751 -6397.649)" fill="none" stroke="#dd4d9b" stroke-width="1" opacity="0.14"/>
          <path id="Path_485" data-name="Path 485" d="M6495.267,6969.75l43.8-25.527,43.7,23.685v51l-43.7,25.241-43.8-25.241Z" transform="translate(-6252.267 -6323.223)" fill="none" stroke="#dd4d9b" stroke-width="1" opacity="0.293"/>
          <path id="Path_486" data-name="Path 486" d="M6495.267,6969.75l43.8-25.527,43.7,23.685v51l-43.7,25.241-43.8-25.241Z" transform="translate(-6296.517 -6247.723)" fill="none" stroke="#dd4d9b" stroke-width="1"/>
          <path id="Path_487" data-name="Path 487" d="M6495.267,6969.75l43.8-25.527,43.7,23.685v51l-43.7,25.241-43.8-25.241Z" transform="translate(-6384.016 -6246.723)" fill="none" stroke="#dd4d9b" stroke-width="1"/>
          <path id="Path_488" data-name="Path 488" d="M6495.267,6969.75l43.8-25.527,43.7,23.685v51l-43.7,25.241-43.8-25.241Z" transform="translate(-6471.767 -6245.723)" fill="none" stroke="#dd4d9b" stroke-width="1" opacity="0.323"/>
          <path id="Path_489" data-name="Path 489" d="M6495.267,6969.75l43.8-25.527,43.7,23.685v51l-43.7,25.241-43.8-25.241Z" transform="translate(-6514.767 -6320.223)" fill="none" stroke="#dd4d9b" stroke-width="1" opacity="0.389"/>
          <path id="Path_490" data-name="Path 490" d="M6495.267,6969.75l43.8-25.527,43.7,23.685v51l-43.7,25.241-43.8-25.241Z" transform="translate(-6470.767 -6396.149)" fill="none" stroke="#dd4d9b" stroke-width="1" opacity="0.259"/>
          <circle id="Ellipse_133" data-name="Ellipse 133" cx="3.5" cy="3.5" r="3.5" transform="translate(109 620)" fill="#dd389a"/>
          <circle id="Ellipse_134" data-name="Ellipse 134" cx="3.5" cy="3.5" r="3.5" transform="translate(108 719)" fill="#dd389a"/>
          <circle id="Ellipse_135" data-name="Ellipse 135" cx="3.5" cy="3.5" r="3.5" transform="translate(65 694)" fill="#dd389a"/>
          <circle id="Ellipse_136" data-name="Ellipse 136" cx="3.5" cy="3.5" r="3.5" transform="translate(152 694)" fill="#dd389a"/>
          <circle id="Ellipse_137" data-name="Ellipse 137" cx="3.5" cy="3.5" r="3.5" transform="translate(152 643)" fill="#dd389a"/>
          <circle id="Ellipse_138" data-name="Ellipse 138" cx="3.5" cy="3.5" r="3.5" transform="translate(196 718)" fill="#dd389a"/>
          <circle id="Ellipse_139" data-name="Ellipse 139" cx="3.5" cy="3.5" r="3.5" transform="translate(240 694)" fill="#dd389a"/>
          <circle id="Ellipse_140" data-name="Ellipse 140" cx="3.5" cy="3.5" r="3.5" transform="translate(196 768)" fill="#dd389a"/>
          <circle id="Ellipse_141" data-name="Ellipse 141" cx="3.5" cy="3.5" r="3.5" transform="translate(283 717)" fill="#dd389a"/>
          <circle id="Ellipse_142" data-name="Ellipse 142" cx="3.5" cy="3.5" r="3.5" transform="translate(283 768)" fill="#dd389a"/>
          <circle id="Ellipse_143" data-name="Ellipse 143" cx="3.5" cy="3.5" r="3.5" transform="translate(327 641)" fill="#dd389a" opacity="0.172"/>
          <circle id="Ellipse_144" data-name="Ellipse 144" cx="3.5" cy="3.5" r="3.5" transform="translate(283 618)" fill="#dd389a" opacity="0.265"/>
          <circle id="Ellipse_145" data-name="Ellipse 145" cx="3.5" cy="3.5" r="3.5" transform="translate(239 641)" fill="#dd389a"/>
          <circle id="Ellipse_146" data-name="Ellipse 146" cx="3.5" cy="3.5" r="3.5" transform="translate(196 619)" fill="#dd389a"/>
          <circle id="Ellipse_147" data-name="Ellipse 147" cx="3.5" cy="3.5" r="3.5" transform="translate(21 620)" fill="#dd389a" opacity="0.461"/>
          <circle id="Ellipse_148" data-name="Ellipse 148" cx="3.5" cy="3.5" r="3.5" transform="translate(20 719)" fill="#dd389a" opacity="0.603"/>
          <circle id="Ellipse_149" data-name="Ellipse 149" cx="3.5" cy="3.5" r="3.5" transform="translate(196 568)" fill="#dd389a" opacity="0.501"/>
          <circle id="Ellipse_150" data-name="Ellipse 150" cx="3.5" cy="3.5" r="3.5" transform="translate(108 770)" fill="#dd389a"/>
        </g>
        <g id="Group_770" data-name="Group 770" transform="translate(1641.689 521.392)" opacity="0.194">
          <path id="Path_480-2" data-name="Path 480" d="M6495.267,6969.75l43.8-25.527,43.7,23.685v51l-43.7,25.241-43.8-25.241Z" transform="translate(-6427 -6321)" fill="none" stroke="#dd4d9b" stroke-width="1" opacity="0.48"/>
          <path id="Path_481-2" data-name="Path 481" d="M6495.267,6969.75l43.8-25.527,43.7,23.685v51l-43.7,25.241-43.8-25.241Z" transform="translate(-6208.518 -6248.723)" fill="none" stroke="#dd4d9b" stroke-width="1" opacity="0.177"/>
          <path id="Path_482-2" data-name="Path 482" d="M6495.267,6969.75l43.8-25.527,43.7,23.685v51l-43.7,25.241-43.8-25.241Z" transform="translate(-6339.5 -6322)" fill="none" stroke="#dd4d9b" stroke-width="1"/>
          <path id="Path_483-2" data-name="Path 483" d="M6495.267,6969.75l43.8-25.527,43.7,23.685v51l-43.7,25.241-43.8-25.241Z" transform="translate(-6383.017 -6396.149)" fill="none" stroke="#dd4d9b" stroke-width="1"/>
          <path id="Path_484-2" data-name="Path 484" d="M6495.267,6969.75l43.8-25.527,43.7,23.685v51l-43.7,25.241-43.8-25.241Z" transform="translate(-6295.751 -6397.649)" fill="none" stroke="#dd4d9b" stroke-width="1"/>
          <path id="Path_485-2" data-name="Path 485" d="M6495.267,6969.75l43.8-25.527,43.7,23.685v51l-43.7,25.241-43.8-25.241Z" transform="translate(-6252.267 -6323.223)" fill="none" stroke="#dd4d9b" stroke-width="1"/>
          <path id="Path_486-2" data-name="Path 486" d="M6495.267,6969.75l43.8-25.527,43.7,23.685v51l-43.7,25.241-43.8-25.241Z" transform="translate(-6296.517 -6247.723)" fill="none" stroke="#dd4d9b" stroke-width="1" opacity="0.307"/>
          <path id="Path_487-2" data-name="Path 487" d="M6495.267,6969.75l43.8-25.527,43.7,23.685v51l-43.7,25.241-43.8-25.241Z" transform="translate(-6384.016 -6246.723)" fill="none" stroke="#dd4d9b" stroke-width="1" opacity="0.275"/>
          <path id="Path_488-2" data-name="Path 488" d="M6495.267,6969.75l43.8-25.527,43.7,23.685v51l-43.7,25.241-43.8-25.241Z" transform="translate(-6471.767 -6245.723)" fill="none" stroke="#dd4d9b" stroke-width="1" opacity="0.303"/>
          <path id="Path_489-2" data-name="Path 489" d="M6495.267,6969.75l43.8-25.527,43.7,23.685v51l-43.7,25.241-43.8-25.241Z" transform="translate(-6514.767 -6320.223)" fill="none" stroke="#dd4d9b" stroke-width="1" opacity="0.258"/>
          <path id="Path_490-2" data-name="Path 490" d="M6495.267,6969.75l43.8-25.527,43.7,23.685v51l-43.7,25.241-43.8-25.241Z" transform="translate(-6470.767 -6396.149)" fill="none" stroke="#dd4d9b" stroke-width="1" opacity="0.222"/>
          <circle id="Ellipse_133-2" data-name="Ellipse 133" cx="3.5" cy="3.5" r="3.5" transform="translate(109 620)" fill="#dd389a"/>
          <circle id="Ellipse_134-2" data-name="Ellipse 134" cx="3.5" cy="3.5" r="3.5" transform="translate(108 719)" fill="#dd389a"/>
          <circle id="Ellipse_135-2" data-name="Ellipse 135" cx="3.5" cy="3.5" r="3.5" transform="translate(65 694)" fill="#dd389a" opacity="0.233"/>
          <circle id="Ellipse_136-2" data-name="Ellipse 136" cx="3.5" cy="3.5" r="3.5" transform="translate(152 694)" fill="#dd389a"/>
          <circle id="Ellipse_137-2" data-name="Ellipse 137" cx="3.5" cy="3.5" r="3.5" transform="translate(152 643)" fill="#dd389a"/>
          <circle id="Ellipse_138-2" data-name="Ellipse 138" cx="3.5" cy="3.5" r="3.5" transform="translate(196 718)" fill="#dd389a"/>
          <circle id="Ellipse_139-2" data-name="Ellipse 139" cx="3.5" cy="3.5" r="3.5" transform="translate(240 694)" fill="#dd389a"/>
          <circle id="Ellipse_140-2" data-name="Ellipse 140" cx="3.5" cy="3.5" r="3.5" transform="translate(196 768)" fill="#dd389a" opacity="0.496"/>
          <circle id="Ellipse_141-2" data-name="Ellipse 141" cx="3.5" cy="3.5" r="3.5" transform="translate(283 717)" fill="#dd389a"/>
          <circle id="Ellipse_142-2" data-name="Ellipse 142" cx="3.5" cy="3.5" r="3.5" transform="translate(283 768)" fill="#dd389a" opacity="0.432"/>
          <circle id="Ellipse_143-2" data-name="Ellipse 143" cx="3.5" cy="3.5" r="3.5" transform="translate(327 641)" fill="#dd389a"/>
          <circle id="Ellipse_144-2" data-name="Ellipse 144" cx="3.5" cy="3.5" r="3.5" transform="translate(283 618)" fill="#dd389a"/>
          <circle id="Ellipse_145-2" data-name="Ellipse 145" cx="3.5" cy="3.5" r="3.5" transform="translate(239 641)" fill="#dd389a"/>
          <circle id="Ellipse_146-2" data-name="Ellipse 146" cx="3.5" cy="3.5" r="3.5" transform="translate(196 619)" fill="#dd389a"/>
          <circle id="Ellipse_147-2" data-name="Ellipse 147" cx="3.5" cy="3.5" r="3.5" transform="translate(21 620)" fill="#dd389a" opacity="0.459"/>
          <circle id="Ellipse_148-2" data-name="Ellipse 148" cx="3.5" cy="3.5" r="3.5" transform="translate(20 719)" fill="#dd389a"/>
          <circle id="Ellipse_149-2" data-name="Ellipse 149" cx="3.5" cy="3.5" r="3.5" transform="translate(196 568)" fill="#dd389a"/>
          <circle id="Ellipse_150-2" data-name="Ellipse 150" cx="3.5" cy="3.5" r="3.5" transform="translate(108 770)" fill="#dd389a" opacity="0.619"/>
        </g>
        <g id="Group_773" data-name="Group 773" transform="translate(1817.5 171.926)" opacity="0.458">
          <path id="Path_480-3" data-name="Path 480" d="M6495.267,6969.75l43.8-25.527,43.7,23.685v51l-43.7,25.241-43.8-25.241Z" transform="translate(-6427 -6321)" fill="none" stroke="#dd4d9b" stroke-width="1"/>
          <path id="Path_481-3" data-name="Path 481" d="M6495.267,6969.75l43.8-25.527,43.7,23.685v51l-43.7,25.241-43.8-25.241Z" transform="translate(-6208.518 -6248.723)" fill="none" stroke="#dd4d9b" stroke-width="1" opacity="0.172"/>
          <path id="Path_482-3" data-name="Path 482" d="M6495.267,6969.75l43.8-25.527,43.7,23.685v51l-43.7,25.241-43.8-25.241Z" transform="translate(-6339.5 -6322)" fill="none" stroke="#dd4d9b" stroke-width="1"/>
          <path id="Path_483-3" data-name="Path 483" d="M6495.267,6969.75l43.8-25.527,43.7,23.685v51l-43.7,25.241-43.8-25.241Z" transform="translate(-6383.017 -6396.149)" fill="none" stroke="#dd4d9b" stroke-width="1" opacity="0.087"/>
          <path id="Path_484-3" data-name="Path 484" d="M6495.267,6969.75l43.8-25.527,43.7,23.685v51l-43.7,25.241-43.8-25.241Z" transform="translate(-6295.751 -6397.649)" fill="none" stroke="#dd4d9b" stroke-width="1" opacity="0.14"/>
          <path id="Path_485-3" data-name="Path 485" d="M6495.267,6969.75l43.8-25.527,43.7,23.685v51l-43.7,25.241-43.8-25.241Z" transform="translate(-6252.267 -6323.223)" fill="none" stroke="#dd4d9b" stroke-width="1" opacity="0.293"/>
          <path id="Path_486-3" data-name="Path 486" d="M6495.267,6969.75l43.8-25.527,43.7,23.685v51l-43.7,25.241-43.8-25.241Z" transform="translate(-6296.517 -6247.723)" fill="none" stroke="#dd4d9b" stroke-width="1"/>
          <path id="Path_487-3" data-name="Path 487" d="M6495.267,6969.75l43.8-25.527,43.7,23.685v51l-43.7,25.241-43.8-25.241Z" transform="translate(-6384.016 -6246.723)" fill="none" stroke="#dd4d9b" stroke-width="1"/>
          <path id="Path_488-3" data-name="Path 488" d="M6495.267,6969.75l43.8-25.527,43.7,23.685v51l-43.7,25.241-43.8-25.241Z" transform="translate(-6471.767 -6245.723)" fill="none" stroke="#dd4d9b" stroke-width="1" opacity="0.357"/>
          <path id="Path_489-3" data-name="Path 489" d="M6495.267,6969.75l43.8-25.527,43.7,23.685v51l-43.7,25.241-43.8-25.241Z" transform="translate(-6514.767 -6320.223)" fill="none" stroke="#dd4d9b" stroke-width="1" opacity="0.231"/>
          <path id="Path_490-3" data-name="Path 490" d="M6495.267,6969.75l43.8-25.527,43.7,23.685v51l-43.7,25.241-43.8-25.241Z" transform="translate(-6470.767 -6396.149)" fill="none" stroke="#dd4d9b" stroke-width="1" opacity="0.018"/>
          <circle id="Ellipse_133-3" data-name="Ellipse 133" cx="3.5" cy="3.5" r="3.5" transform="translate(109 620)" fill="#dd389a"/>
          <circle id="Ellipse_134-3" data-name="Ellipse 134" cx="3.5" cy="3.5" r="3.5" transform="translate(108 719)" fill="#dd389a"/>
          <circle id="Ellipse_135-3" data-name="Ellipse 135" cx="3.5" cy="3.5" r="3.5" transform="translate(65 694)" fill="#dd389a"/>
          <circle id="Ellipse_136-3" data-name="Ellipse 136" cx="3.5" cy="3.5" r="3.5" transform="translate(152 694)" fill="#dd389a"/>
          <circle id="Ellipse_137-3" data-name="Ellipse 137" cx="3.5" cy="3.5" r="3.5" transform="translate(152 643)" fill="#dd389a"/>
          <circle id="Ellipse_138-3" data-name="Ellipse 138" cx="3.5" cy="3.5" r="3.5" transform="translate(196 718)" fill="#dd389a"/>
          <circle id="Ellipse_139-3" data-name="Ellipse 139" cx="3.5" cy="3.5" r="3.5" transform="translate(240 694)" fill="#dd389a"/>
          <circle id="Ellipse_140-3" data-name="Ellipse 140" cx="3.5" cy="3.5" r="3.5" transform="translate(196 768)" fill="#dd389a"/>
          <circle id="Ellipse_141-3" data-name="Ellipse 141" cx="3.5" cy="3.5" r="3.5" transform="translate(283 717)" fill="#dd389a"/>
          <circle id="Ellipse_142-3" data-name="Ellipse 142" cx="3.5" cy="3.5" r="3.5" transform="translate(283 768)" fill="#dd389a"/>
          <circle id="Ellipse_143-3" data-name="Ellipse 143" cx="3.5" cy="3.5" r="3.5" transform="translate(327 641)" fill="#dd389a" opacity="0.172"/>
          <circle id="Ellipse_144-3" data-name="Ellipse 144" cx="3.5" cy="3.5" r="3.5" transform="translate(283 618)" fill="#dd389a" opacity="0.265"/>
          <circle id="Ellipse_145-3" data-name="Ellipse 145" cx="3.5" cy="3.5" r="3.5" transform="translate(239 641)" fill="#dd389a"/>
          <circle id="Ellipse_146-3" data-name="Ellipse 146" cx="3.5" cy="3.5" r="3.5" transform="translate(196 619)" fill="#dd389a"/>
          <circle id="Ellipse_147-3" data-name="Ellipse 147" cx="3.5" cy="3.5" r="3.5" transform="translate(21 620)" fill="#dd389a" opacity="0.4"/>
          <circle id="Ellipse_148-3" data-name="Ellipse 148" cx="3.5" cy="3.5" r="3.5" transform="translate(20 719)" fill="#dd389a" opacity="0.373"/>
          <circle id="Ellipse_149-3" data-name="Ellipse 149" cx="3.5" cy="3.5" r="3.5" transform="translate(196 568)" fill="#dd389a" opacity="0.501"/>
          <circle id="Ellipse_150-3" data-name="Ellipse 150" cx="3.5" cy="3.5" r="3.5" transform="translate(108 770)" fill="#dd389a"/>
        </g>
        <g id="Group_774" data-name="Group 774" transform="translate(1759.459 66.338)" opacity="0.458">
          <path id="Path_480-4" data-name="Path 480" d="M6495.267,6969.75l43.8-25.527,43.7,23.685v51l-43.7,25.241-43.8-25.241Z" transform="translate(-6427 -6321)" fill="none" stroke="#dd4d9b" stroke-width="1" opacity="0.073"/>
          <path id="Path_481-4" data-name="Path 481" d="M6495.267,6969.75l43.8-25.527,43.7,23.685v51l-43.7,25.241-43.8-25.241Z" transform="translate(-6208.518 -6248.723)" fill="none" stroke="#dd4d9b" stroke-width="1" opacity="0.172"/>
          <path id="Path_482-4" data-name="Path 482" d="M6495.267,6969.75l43.8-25.527,43.7,23.685v51l-43.7,25.241-43.8-25.241Z" transform="translate(-6339.5 -6322)" fill="none" stroke="#dd4d9b" stroke-width="1" opacity="0.367"/>
          <path id="Path_483-4" data-name="Path 483" d="M6495.267,6969.75l43.8-25.527,43.7,23.685v51l-43.7,25.241-43.8-25.241Z" transform="translate(-6383.017 -6396.149)" fill="none" stroke="#dd4d9b" stroke-width="1" opacity="0.087"/>
          <path id="Path_484-4" data-name="Path 484" d="M6495.267,6969.75l43.8-25.527,43.7,23.685v51l-43.7,25.241-43.8-25.241Z" transform="translate(-6295.751 -6397.649)" fill="none" stroke="#dd4d9b" stroke-width="1" opacity="0.14"/>
          <path id="Path_485-4" data-name="Path 485" d="M6495.267,6969.75l43.8-25.527,43.7,23.685v51l-43.7,25.241-43.8-25.241Z" transform="translate(-6252.267 -6323.223)" fill="none" stroke="#dd4d9b" stroke-width="1" opacity="0.293"/>
          <path id="Path_486-4" data-name="Path 486" d="M6495.267,6969.75l43.8-25.527,43.7,23.685v51l-43.7,25.241-43.8-25.241Z" transform="translate(-6296.517 -6247.723)" fill="none" stroke="#dd4d9b" stroke-width="1"/>
          <path id="Path_487-4" data-name="Path 487" d="M6495.267,6969.75l43.8-25.527,43.7,23.685v51l-43.7,25.241-43.8-25.241Z" transform="translate(-6384.016 -6246.723)" fill="none" stroke="#dd4d9b" stroke-width="1"/>
          <path id="Path_488-4" data-name="Path 488" d="M6495.267,6969.75l43.8-25.527,43.7,23.685v51l-43.7,25.241-43.8-25.241Z" transform="translate(-6471.767 -6245.723)" fill="none" stroke="#dd4d9b" stroke-width="1" opacity="0.324"/>
          <path id="Path_489-4" data-name="Path 489" d="M6495.267,6969.75l43.8-25.527,43.7,23.685v51l-43.7,25.241-43.8-25.241Z" transform="translate(-6514.767 -6320.223)" fill="none" stroke="#dd4d9b" stroke-width="1" opacity="0.135"/>
          <path id="Path_490-4" data-name="Path 490" d="M6495.267,6969.75l43.8-25.527,43.7,23.685v51l-43.7,25.241-43.8-25.241Z" transform="translate(-6470.767 -6396.149)" fill="none" stroke="#dd4d9b" stroke-width="1" opacity="0.06"/>
          <circle id="Ellipse_133-4" data-name="Ellipse 133" cx="3.5" cy="3.5" r="3.5" transform="translate(109 620)" fill="#dd389a" opacity="0.258"/>
          <circle id="Ellipse_134-4" data-name="Ellipse 134" cx="3.5" cy="3.5" r="3.5" transform="translate(108 719)" fill="#dd389a"/>
          <circle id="Ellipse_135-4" data-name="Ellipse 135" cx="3.5" cy="3.5" r="3.5" transform="translate(64.767 696)" fill="#dd389a" opacity="0.442"/>
          <circle id="Ellipse_136-4" data-name="Ellipse 136" cx="3.5" cy="3.5" r="3.5" transform="translate(152 694)" fill="#dd389a" opacity="0.516"/>
          <circle id="Ellipse_137-4" data-name="Ellipse 137" cx="3.5" cy="3.5" r="3.5" transform="translate(152 643)" fill="#dd389a" opacity="0.46"/>
          <circle id="Ellipse_138-4" data-name="Ellipse 138" cx="3.5" cy="3.5" r="3.5" transform="translate(196 718)" fill="#dd389a"/>
          <circle id="Ellipse_139-4" data-name="Ellipse 139" cx="3.5" cy="3.5" r="3.5" transform="translate(240 694)" fill="#dd389a" opacity="0.48"/>
          <circle id="Ellipse_140-4" data-name="Ellipse 140" cx="3.5" cy="3.5" r="3.5" transform="translate(196 768)" fill="#dd389a"/>
          <circle id="Ellipse_141-4" data-name="Ellipse 141" cx="3.5" cy="3.5" r="3.5" transform="translate(283 717)" fill="#dd389a"/>
          <circle id="Ellipse_142-4" data-name="Ellipse 142" cx="3.5" cy="3.5" r="3.5" transform="translate(283 768)" fill="#dd389a"/>
          <circle id="Ellipse_143-4" data-name="Ellipse 143" cx="3.5" cy="3.5" r="3.5" transform="translate(327 641)" fill="#dd389a" opacity="0.172"/>
          <circle id="Ellipse_144-4" data-name="Ellipse 144" cx="3.5" cy="3.5" r="3.5" transform="translate(283 618)" fill="#dd389a" opacity="0.265"/>
          <circle id="Ellipse_145-4" data-name="Ellipse 145" cx="3.5" cy="3.5" r="3.5" transform="translate(239 641)" fill="#dd389a" opacity="0.481"/>
          <circle id="Ellipse_146-4" data-name="Ellipse 146" cx="3.5" cy="3.5" r="3.5" transform="translate(196 619)" fill="#dd389a" opacity="0.378"/>
          <circle id="Ellipse_147-4" data-name="Ellipse 147" cx="3.5" cy="3.5" r="3.5" transform="translate(21 620)" fill="#dd389a" opacity="0.114"/>
          <circle id="Ellipse_148-4" data-name="Ellipse 148" cx="3.5" cy="3.5" r="3.5" transform="translate(20.75 720.426)" fill="#dd389a" opacity="0.387"/>
          <circle id="Ellipse_149-4" data-name="Ellipse 149" cx="3.5" cy="3.5" r="3.5" transform="translate(196 568)" fill="#dd389a" opacity="0.501"/>
          <circle id="Ellipse_150-4" data-name="Ellipse 150" cx="3.5" cy="3.5" r="3.5" transform="translate(108 770)" fill="#dd389a"/>
        </g>
      </g>
    </g>
    <g id="Group_775" data-name="Group 775" transform="translate(1711.689 347.4)" opacity="0.194">
      <path id="Path_480-5" data-name="Path 480" d="M6495.267,6969.75l43.8-25.527,43.7,23.685v51l-43.7,25.241-43.8-25.241Z" transform="translate(-6427 -6321)" fill="none" stroke="#dd4d9b" stroke-width="1" opacity="0.441"/>
      <path id="Path_481-5" data-name="Path 481" d="M6495.267,6969.75l43.8-25.527,43.7,23.685v51l-43.7,25.241-43.8-25.241Z" transform="translate(-6208.518 -6248.723)" fill="none" stroke="#dd4d9b" stroke-width="1" opacity="0.177"/>
      <path id="Path_482-5" data-name="Path 482" d="M6495.267,6969.75l43.8-25.527,43.7,23.685v51l-43.7,25.241-43.8-25.241Z" transform="translate(-6339.5 -6322)" fill="none" stroke="#dd4d9b" stroke-width="1" opacity="0.555"/>
      <path id="Path_483-5" data-name="Path 483" d="M6495.267,6969.75l43.8-25.527,43.7,23.685v51l-43.7,25.241-43.8-25.241Z" transform="translate(-6383.017 -6396.149)" fill="none" stroke="#dd4d9b" stroke-width="1"/>
      <path id="Path_484-5" data-name="Path 484" d="M6495.267,6969.75l43.8-25.527,43.7,23.685v51l-43.7,25.241-43.8-25.241Z" transform="translate(-6295.751 -6397.649)" fill="none" stroke="#dd4d9b" stroke-width="1"/>
      <path id="Path_485-5" data-name="Path 485" d="M6495.267,6969.75l43.8-25.527,43.7,23.685v51l-43.7,25.241-43.8-25.241Z" transform="translate(-6252.267 -6323.223)" fill="none" stroke="#dd4d9b" stroke-width="1"/>
      <path id="Path_486-5" data-name="Path 486" d="M6495.267,6969.75l43.8-25.527,43.7,23.685v51l-43.7,25.241-43.8-25.241Z" transform="translate(-6296.517 -6247.723)" fill="none" stroke="#dd4d9b" stroke-width="1" opacity="0.307"/>
      <path id="Path_487-5" data-name="Path 487" d="M6495.267,6969.75l43.8-25.527,43.7,23.685v51l-43.7,25.241-43.8-25.241Z" transform="translate(-6384.016 -6246.723)" fill="none" stroke="#dd4d9b" stroke-width="1" opacity="0.275"/>
      <path id="Path_488-5" data-name="Path 488" d="M6495.267,6969.75l43.8-25.527,43.7,23.685v51l-43.7,25.241-43.8-25.241Z" transform="translate(-6471.767 -6245.723)" fill="none" stroke="#dd4d9b" stroke-width="1" opacity="0.149"/>
      <path id="Path_489-5" data-name="Path 489" d="M6495.267,6969.75l43.8-25.527,43.7,23.685v51l-43.7,25.241-43.8-25.241Z" transform="translate(-6514.767 -6320.223)" fill="none" stroke="#dd4d9b" stroke-width="1" opacity="0.158"/>
      <path id="Path_490-5" data-name="Path 490" d="M6495.267,6969.75l43.8-25.527,43.7,23.685v51l-43.7,25.241-43.8-25.241Z" transform="translate(-6470.767 -6396.149)" fill="none" stroke="#dd4d9b" stroke-width="1" opacity="0.364"/>
      <circle id="Ellipse_133-5" data-name="Ellipse 133" cx="3.5" cy="3.5" r="3.5" transform="translate(109 620)" fill="#dd389a"/>
      <circle id="Ellipse_134-5" data-name="Ellipse 134" cx="3.5" cy="3.5" r="3.5" transform="translate(108 719)" fill="#dd389a"/>
      <circle id="Ellipse_135-5" data-name="Ellipse 135" cx="3.5" cy="3.5" r="3.5" transform="translate(65 694)" fill="#dd389a"/>
      <circle id="Ellipse_136-5" data-name="Ellipse 136" cx="3.5" cy="3.5" r="3.5" transform="translate(152 694)" fill="#dd389a"/>
      <circle id="Ellipse_137-5" data-name="Ellipse 137" cx="3.5" cy="3.5" r="3.5" transform="translate(152 643)" fill="#dd389a"/>
      <circle id="Ellipse_138-5" data-name="Ellipse 138" cx="3.5" cy="3.5" r="3.5" transform="translate(196 718)" fill="#dd389a"/>
      <circle id="Ellipse_139-5" data-name="Ellipse 139" cx="3.5" cy="3.5" r="3.5" transform="translate(240 694)" fill="#dd389a"/>
      <circle id="Ellipse_140-5" data-name="Ellipse 140" cx="3.5" cy="3.5" r="3.5" transform="translate(196 768)" fill="#dd389a" opacity="0.496"/>
      <circle id="Ellipse_141-5" data-name="Ellipse 141" cx="3.5" cy="3.5" r="3.5" transform="translate(283 717)" fill="#dd389a"/>
      <circle id="Ellipse_142-5" data-name="Ellipse 142" cx="3.5" cy="3.5" r="3.5" transform="translate(283 768)" fill="#dd389a" opacity="0.432"/>
      <circle id="Ellipse_143-5" data-name="Ellipse 143" cx="3.5" cy="3.5" r="3.5" transform="translate(327 641)" fill="#dd389a"/>
      <circle id="Ellipse_144-5" data-name="Ellipse 144" cx="3.5" cy="3.5" r="3.5" transform="translate(283 618)" fill="#dd389a"/>
      <circle id="Ellipse_145-5" data-name="Ellipse 145" cx="3.5" cy="3.5" r="3.5" transform="translate(239 641)" fill="#dd389a"/>
      <circle id="Ellipse_146-5" data-name="Ellipse 146" cx="3.5" cy="3.5" r="3.5" transform="translate(196 619)" fill="#dd389a"/>
      <circle id="Ellipse_147-5" data-name="Ellipse 147" cx="3.5" cy="3.5" r="3.5" transform="translate(21 620)" fill="#dd389a"/>
      <circle id="Ellipse_148-5" data-name="Ellipse 148" cx="3.5" cy="3.5" r="3.5" transform="translate(20 719)" fill="#dd389a" opacity="0.658"/>
      <circle id="Ellipse_149-5" data-name="Ellipse 149" cx="3.5" cy="3.5" r="3.5" transform="translate(196 568)" fill="#dd389a"/>
      <circle id="Ellipse_150-5" data-name="Ellipse 150" cx="3.5" cy="3.5" r="3.5" transform="translate(108 770)" fill="#dd389a" opacity="0.619"/>
    </g>
  </g>
</svg>
