<svg xmlns="http://www.w3.org/2000/svg" width="594.574" height="426.466" viewBox="0 0 594.574 426.466">
  <g id="Group_802" data-name="Group 802" transform="translate(-662.713 -4957.331)">
    <g id="trc" transform="translate(8.504 -142.168)">
      <path id="Path_605" data-name="Path 605" d="M6915.709,11105.895l53.641-27.843,54.925,27.843v56.712l-54.352,29.09-54.214-29.09Z" transform="translate(7680.984 16491.695) rotate(180)" fill="#142127" stroke="#e31076" stroke-linecap="round" stroke-linejoin="round" stroke-width="5"/>
      <path id="Path_606" data-name="Path 606" d="M6915.709,11105.895l53.641-27.843,54.925,27.843v56.712l-54.352,29.09-54.214-29.09Z" transform="translate(7680.984 16448.695) rotate(180)" fill="#142127" stroke="#e31076" stroke-linecap="round" stroke-linejoin="round" stroke-width="5"/>
      <path id="Path_607" data-name="Path 607" d="M6915.709,11105.895l53.641-27.843,54.925,27.843v56.712l-54.352,29.09-54.214-29.09Z" transform="translate(7680.984 16405.695) rotate(180)" fill="#142127" stroke="#e31076" stroke-linecap="round" stroke-linejoin="round" stroke-width="5"/>
    </g>
    <g id="trc-2" data-name="trc" transform="translate(88.504 -129.168)">
      <path id="Path_605-2" data-name="Path 605" d="M6915.709,11105.895l53.641-27.843,54.925,27.843v56.712l-54.352,29.09-54.214-29.09Z" transform="translate(7680.984 16491.695) rotate(180)" fill="#142127" stroke="#e31076" stroke-linecap="round" stroke-linejoin="round" stroke-width="5"/>
      <path id="Path_606-2" data-name="Path 606" d="M6915.709,11105.895l53.641-27.843,54.925,27.843v56.712l-54.352,29.09-54.214-29.09Z" transform="translate(7680.984 16448.695) rotate(180)" fill="#142127" stroke="#e31076" stroke-linecap="round" stroke-linejoin="round" stroke-width="5"/>
      <path id="Path_607-2" data-name="Path 607" d="M6915.709,11105.895l53.641-27.843,54.925,27.843v56.712l-54.352,29.09-54.214-29.09Z" transform="translate(7680.984 16405.695) rotate(180)" fill="#142127" stroke="#e31076" stroke-linecap="round" stroke-linejoin="round" stroke-width="5"/>
    </g>
    <g id="trc-3" data-name="trc" transform="translate(166.504 -254.168)">
      <path id="Path_604" data-name="Path 604" d="M6915.709,11105.895l53.641-27.843,54.925,27.843v56.712l-54.352,29.09-54.214-29.09Z" transform="translate(7680.992 16541.695) rotate(180)" fill="#142127" stroke="#e31076" stroke-linecap="round" stroke-linejoin="round" stroke-width="5"/>
      <path id="Path_605-3" data-name="Path 605" d="M6915.709,11105.895l53.641-27.843,54.925,27.843v56.712l-54.352,29.09-54.214-29.09Z" transform="translate(7680.984 16491.695) rotate(180)" fill="#142127" stroke="#e31076" stroke-linecap="round" stroke-linejoin="round" stroke-width="5"/>
      <path id="Path_606-3" data-name="Path 606" d="M6915.709,11105.895l53.641-27.843,54.925,27.843v56.712l-54.352,29.09-54.214-29.09Z" transform="translate(7680.984 16448.695) rotate(180)" fill="#142127" stroke="#e31076" stroke-linecap="round" stroke-linejoin="round" stroke-width="5"/>
      <path id="Path_607-3" data-name="Path 607" d="M6915.709,11105.895l53.641-27.843,54.925,27.843v56.712l-54.352,29.09-54.214-29.09Z" transform="translate(7680.984 16405.695) rotate(180)" fill="#142127" stroke="#e31076" stroke-linecap="round" stroke-linejoin="round" stroke-width="5"/>
    </g>
    <g id="trc-4" data-name="trc" transform="translate(260.504 -246.274)">
      <path id="Path_604-2" data-name="Path 604" d="M6915.709,11105.895l53.641-27.843,54.925,27.843v56.712l-54.352,29.09-54.214-29.09Z" transform="translate(7680.992 16541.695) rotate(180)" fill="#142127" stroke="#e31076" stroke-linecap="round" stroke-linejoin="round" stroke-width="5"/>
      <path id="Path_605-4" data-name="Path 605" d="M6915.709,11105.895l53.641-27.843,54.925,27.843v56.712l-54.352,29.09-54.214-29.09Z" transform="translate(7680.984 16491.695) rotate(180)" fill="#142127" stroke="#e31076" stroke-linecap="round" stroke-linejoin="round" stroke-width="5"/>
      <path id="Path_606-4" data-name="Path 606" d="M6915.709,11105.895l53.641-27.843,54.925,27.843v56.712l-54.352,29.09-54.214-29.09Z" transform="translate(7680.984 16448.695) rotate(180)" fill="#142127" stroke="#e31076" stroke-linecap="round" stroke-linejoin="round" stroke-width="5"/>
      <path id="Path_607-4" data-name="Path 607" d="M6915.709,11105.895l53.641-27.843,54.925,27.843v56.712l-54.352,29.09-54.214-29.09Z" transform="translate(7680.984 16405.695) rotate(180)" fill="#142127" stroke="#e31076" stroke-linecap="round" stroke-linejoin="round" stroke-width="5"/>
      <g id="mickmisamu_TRCY_Token" data-name="mickmisamu_TRCY Token" transform="translate(681.14 5247.204)">
        <path id="Path_496" data-name="Path 496" d="M225.872,181.3H215.644l-5.114-8.856,5.114-8.859h10.228l5.114,8.859Zm-9.6-1.093h8.965l4.483-7.762-4.483-7.765h-8.965l-4.483,7.765Z" transform="translate(-192.458 -163.59)" fill="#b7166d" stroke="#b7166d" stroke-width="2"/>
        <rect id="Rectangle_489" data-name="Rectangle 489" width="16.955" height="1.093" transform="translate(37.897 8.312)" fill="#b7166d" stroke="#b7166d" stroke-width="2"/>
        <path id="Path_497" data-name="Path 497" d="M225.872,289.314H215.644l-5.114-8.859,5.114-8.856h10.228l5.114,8.856Zm-9.6-1.093h8.965l4.483-7.765-4.483-7.763h-8.965l-4.483,7.763Z" transform="translate(-192.458 -242.078)" fill="#b7166d" stroke="#b7166d" stroke-width="2"/>
        <rect id="Rectangle_490" data-name="Rectangle 490" width="16.955" height="1.093" transform="translate(1.749 37.831)" fill="#b7166d" stroke="#b7166d" stroke-width="2"/>
        <path id="Path_498" data-name="Path 498" d="M159.752,235.307H149.524l-5.114-8.859,5.114-8.859h10.228l5.114,8.859Zm-9.6-1.093h8.965l4.483-7.765-4.483-7.765h-8.965l-4.491,7.765Z" transform="translate(-144.41 -202.83)" fill="#b7166d" stroke="#b7166d" stroke-width="2"/>
        <path id="Path_499" data-name="Path 499" d="M296.092,235.307H285.864l-5.114-8.859,5.114-8.859h10.228l5.114,8.859Zm-9.6-1.093h8.965l4.491-7.765-4.483-7.765H286.5l-4.491,7.765Z" transform="translate(-243.485 -202.83)" fill="#ba176f" stroke="#b7166d" stroke-width="2"/>
        <rect id="Rectangle_491" data-name="Rectangle 491" width="18.075" height="1.093" transform="translate(19.824 23.072)" fill="#ba176f" stroke="#ba176f" stroke-width="2"/>
      </g>
    </g>
    <g id="trc-5" data-name="trc" transform="translate(186.504 -129.346)">
      <path id="Path_608" data-name="Path 608" d="M6915.709,11105.895l53.641-27.843,54.925,27.843v56.712l-54.352,29.09-54.214-29.09Z" transform="translate(7680.992 16588.695) rotate(180)" fill="#142127" stroke="#e31076" stroke-linecap="round" stroke-linejoin="round" stroke-width="5"/>
      <path id="Path_604-3" data-name="Path 604" d="M6915.709,11105.895l53.641-27.843,54.925,27.843v56.712l-54.352,29.09-54.214-29.09Z" transform="translate(7680.992 16541.695) rotate(180)" fill="#142127" stroke="#e31076" stroke-linecap="round" stroke-linejoin="round" stroke-width="5"/>
      <path id="Path_605-5" data-name="Path 605" d="M6915.709,11105.895l53.641-27.843,54.925,27.843v56.712l-54.352,29.09-54.214-29.09Z" transform="translate(7680.984 16491.695) rotate(180)" fill="#142127" stroke="#e31076" stroke-linecap="round" stroke-linejoin="round" stroke-width="5"/>
      <path id="Path_606-5" data-name="Path 606" d="M6915.709,11105.895l53.641-27.843,54.925,27.843v56.712l-54.352,29.09-54.214-29.09Z" transform="translate(7680.984 16448.695) rotate(180)" fill="#142127" stroke="#e31076" stroke-linecap="round" stroke-linejoin="round" stroke-width="5"/>
      <path id="Path_607-5" data-name="Path 607" d="M6915.709,11105.895l53.641-27.843,54.925,27.843v56.712l-54.352,29.09-54.214-29.09Z" transform="translate(7680.984 16405.695) rotate(180)" fill="#142127" stroke="#e31076" stroke-linecap="round" stroke-linejoin="round" stroke-width="5"/>
      <g id="mickmisamu_TRCY_Token-2" data-name="mickmisamu_TRCY Token" transform="translate(681.14 5247.204)">
        <path id="Path_496-2" data-name="Path 496" d="M225.872,181.3H215.644l-5.114-8.856,5.114-8.859h10.228l5.114,8.859Zm-9.6-1.093h8.965l4.483-7.762-4.483-7.765h-8.965l-4.483,7.765Z" transform="translate(-192.458 -163.59)" fill="#b7166d" stroke="#b7166d" stroke-width="2"/>
        <rect id="Rectangle_489-2" data-name="Rectangle 489" width="16.955" height="1.093" transform="translate(37.897 8.312)" fill="#b7166d" stroke="#b7166d" stroke-width="2"/>
        <path id="Path_497-2" data-name="Path 497" d="M225.872,289.314H215.644l-5.114-8.859,5.114-8.856h10.228l5.114,8.856Zm-9.6-1.093h8.965l4.483-7.765-4.483-7.763h-8.965l-4.483,7.763Z" transform="translate(-192.458 -242.078)" fill="#b7166d" stroke="#b7166d" stroke-width="2"/>
        <rect id="Rectangle_490-2" data-name="Rectangle 490" width="16.955" height="1.093" transform="translate(1.749 37.831)" fill="#b7166d" stroke="#b7166d" stroke-width="2"/>
        <path id="Path_498-2" data-name="Path 498" d="M159.752,235.307H149.524l-5.114-8.859,5.114-8.859h10.228l5.114,8.859Zm-9.6-1.093h8.965l4.483-7.765-4.483-7.765h-8.965l-4.491,7.765Z" transform="translate(-144.41 -202.83)" fill="#b7166d" stroke="#b7166d" stroke-width="2"/>
        <path id="Path_499-2" data-name="Path 499" d="M296.092,235.307H285.864l-5.114-8.859,5.114-8.859h10.228l5.114,8.859Zm-9.6-1.093h8.965l4.491-7.765-4.483-7.765H286.5l-4.491,7.765Z" transform="translate(-243.485 -202.83)" fill="#ba176f" stroke="#b7166d" stroke-width="2"/>
        <rect id="Rectangle_491-2" data-name="Rectangle 491" width="18.075" height="1.093" transform="translate(19.824 23.072)" fill="#ba176f" stroke="#ba176f" stroke-width="2"/>
      </g>
    </g>
    <g id="trc-6" data-name="trc" transform="translate(489.504 -119.168)" opacity="0.911">
      <path id="Path_604-4" data-name="Path 604" d="M6915.709,11105.895l53.641-27.843,54.925,27.843v56.712l-54.352,29.09-54.214-29.09Z" transform="translate(7680.992 16541.695) rotate(180)" fill="#142127" stroke="#e31076" stroke-linecap="round" stroke-linejoin="round" stroke-width="5"/>
      <path id="Path_605-6" data-name="Path 605" d="M6915.709,11105.895l53.641-27.843,54.925,27.843v56.712l-54.352,29.09-54.214-29.09Z" transform="translate(7680.984 16491.695) rotate(180)" fill="#142127" stroke="#e31076" stroke-linecap="round" stroke-linejoin="round" stroke-width="5"/>
      <path id="Path_606-6" data-name="Path 606" d="M6915.709,11105.895l53.641-27.843,54.925,27.843v56.712l-54.352,29.09-54.214-29.09Z" transform="translate(7680.984 16448.695) rotate(180)" fill="#142127" stroke="#e31076" stroke-linecap="round" stroke-linejoin="round" stroke-width="5"/>
      <path id="Path_607-6" data-name="Path 607" d="M6915.709,11105.895l53.641-27.843,54.925,27.843v56.712l-54.352,29.09-54.214-29.09Z" transform="translate(7680.984 16405.695) rotate(180)" fill="#142127" stroke="#e31076" stroke-linecap="round" stroke-linejoin="round" stroke-width="5"/>
    </g>
    <g id="trc-7" data-name="trc" transform="translate(38.504 -42.346)">
      <path id="Path_605-7" data-name="Path 605" d="M6915.709,11105.895l53.641-27.843,54.925,27.843v56.712l-54.352,29.09-54.214-29.09Z" transform="translate(7680.984 16491.695) rotate(180)" fill="#142127" stroke="#e31076" stroke-linecap="round" stroke-linejoin="round" stroke-width="5"/>
      <path id="Path_606-7" data-name="Path 606" d="M6915.709,11105.895l53.641-27.843,54.925,27.843v56.712l-54.352,29.09-54.214-29.09Z" transform="translate(7680.984 16448.695) rotate(180)" fill="#142127" stroke="#e31076" stroke-linecap="round" stroke-linejoin="round" stroke-width="5"/>
      <path id="Path_607-7" data-name="Path 607" d="M6915.709,11105.895l53.641-27.843,54.925,27.843v56.712l-54.352,29.09-54.214-29.09Z" transform="translate(7680.984 16405.695) rotate(180)" fill="#142127" stroke="#e31076" stroke-linecap="round" stroke-linejoin="round" stroke-width="5"/>
      <g id="mickmisamu_TRCY_Token-3" data-name="mickmisamu_TRCY Token" transform="translate(681.14 5247.204)">
        <path id="Path_496-3" data-name="Path 496" d="M225.872,181.3H215.644l-5.114-8.856,5.114-8.859h10.228l5.114,8.859Zm-9.6-1.093h8.965l4.483-7.762-4.483-7.765h-8.965l-4.483,7.765Z" transform="translate(-192.458 -163.59)" fill="#b7166d" stroke="#b7166d" stroke-width="2"/>
        <rect id="Rectangle_489-3" data-name="Rectangle 489" width="16.955" height="1.093" transform="translate(37.897 8.312)" fill="#b7166d" stroke="#b7166d" stroke-width="2"/>
        <path id="Path_497-3" data-name="Path 497" d="M225.872,289.314H215.644l-5.114-8.859,5.114-8.856h10.228l5.114,8.856Zm-9.6-1.093h8.965l4.483-7.765-4.483-7.763h-8.965l-4.483,7.763Z" transform="translate(-192.458 -242.078)" fill="#b7166d" stroke="#b7166d" stroke-width="2"/>
        <rect id="Rectangle_490-3" data-name="Rectangle 490" width="16.955" height="1.093" transform="translate(1.749 37.831)" fill="#b7166d" stroke="#b7166d" stroke-width="2"/>
        <path id="Path_498-3" data-name="Path 498" d="M159.752,235.307H149.524l-5.114-8.859,5.114-8.859h10.228l5.114,8.859Zm-9.6-1.093h8.965l4.483-7.765-4.483-7.765h-8.965l-4.491,7.765Z" transform="translate(-144.41 -202.83)" fill="#b7166d" stroke="#b7166d" stroke-width="2"/>
        <path id="Path_499-3" data-name="Path 499" d="M296.092,235.307H285.864l-5.114-8.859,5.114-8.859h10.228l5.114,8.859Zm-9.6-1.093h8.965l4.491-7.765-4.483-7.765H286.5l-4.491,7.765Z" transform="translate(-243.485 -202.83)" fill="#ba176f" stroke="#b7166d" stroke-width="2"/>
        <rect id="Rectangle_491-3" data-name="Rectangle 491" width="18.075" height="1.093" transform="translate(19.824 23.072)" fill="#ba176f" stroke="#ba176f" stroke-width="2"/>
      </g>
    </g>
    <g id="trc-8" data-name="trc" transform="translate(408.504 -149.274)">
      <path id="Path_604-5" data-name="Path 604" d="M6915.709,11105.895l53.641-27.843,54.925,27.843v56.712l-54.352,29.09-54.214-29.09Z" transform="translate(7680.992 16541.695) rotate(180)" fill="#142127" stroke="#e31076" stroke-linecap="round" stroke-linejoin="round" stroke-width="5"/>
      <path id="Path_605-8" data-name="Path 605" d="M6915.709,11105.895l53.641-27.843,54.925,27.843v56.712l-54.352,29.09-54.214-29.09Z" transform="translate(7680.984 16491.695) rotate(180)" fill="#142127" stroke="#e31076" stroke-linecap="round" stroke-linejoin="round" stroke-width="5"/>
      <path id="Path_606-8" data-name="Path 606" d="M6915.709,11105.895l53.641-27.843,54.925,27.843v56.712l-54.352,29.09-54.214-29.09Z" transform="translate(7680.984 16448.695) rotate(180)" fill="#142127" stroke="#e31076" stroke-linecap="round" stroke-linejoin="round" stroke-width="5"/>
      <path id="Path_607-8" data-name="Path 607" d="M6915.709,11105.895l53.641-27.843,54.925,27.843v56.712l-54.352,29.09-54.214-29.09Z" transform="translate(7680.984 16405.695) rotate(180)" fill="#142127" stroke="#e31076" stroke-linecap="round" stroke-linejoin="round" stroke-width="5"/>
      <g id="mickmisamu_TRCY_Token-4" data-name="mickmisamu_TRCY Token" transform="translate(681.14 5247.204)">
        <path id="Path_496-4" data-name="Path 496" d="M225.872,181.3H215.644l-5.114-8.856,5.114-8.859h10.228l5.114,8.859Zm-9.6-1.093h8.965l4.483-7.762-4.483-7.765h-8.965l-4.483,7.765Z" transform="translate(-192.458 -163.59)" fill="#b7166d" stroke="#b7166d" stroke-width="2"/>
        <rect id="Rectangle_489-4" data-name="Rectangle 489" width="16.955" height="1.093" transform="translate(37.897 8.312)" fill="#b7166d" stroke="#b7166d" stroke-width="2"/>
        <path id="Path_497-4" data-name="Path 497" d="M225.872,289.314H215.644l-5.114-8.859,5.114-8.856h10.228l5.114,8.856Zm-9.6-1.093h8.965l4.483-7.765-4.483-7.763h-8.965l-4.483,7.763Z" transform="translate(-192.458 -242.078)" fill="#b7166d" stroke="#b7166d" stroke-width="2"/>
        <rect id="Rectangle_490-4" data-name="Rectangle 490" width="16.955" height="1.093" transform="translate(1.749 37.831)" fill="#b7166d" stroke="#b7166d" stroke-width="2"/>
        <path id="Path_498-4" data-name="Path 498" d="M159.752,235.307H149.524l-5.114-8.859,5.114-8.859h10.228l5.114,8.859Zm-9.6-1.093h8.965l4.483-7.765-4.483-7.765h-8.965l-4.491,7.765Z" transform="translate(-144.41 -202.83)" fill="#b7166d" stroke="#b7166d" stroke-width="2"/>
        <path id="Path_499-4" data-name="Path 499" d="M296.092,235.307H285.864l-5.114-8.859,5.114-8.859h10.228l5.114,8.859Zm-9.6-1.093h8.965l4.491-7.765-4.483-7.765H286.5l-4.491,7.765Z" transform="translate(-243.485 -202.83)" fill="#ba176f" stroke="#b7166d" stroke-width="2"/>
        <rect id="Rectangle_491-4" data-name="Rectangle 491" width="18.075" height="1.093" transform="translate(19.824 23.072)" fill="#ba176f" stroke="#ba176f" stroke-width="2"/>
      </g>
    </g>
    <g id="trc-9" data-name="trc" transform="translate(315.504 -84.346)">
      <path id="Path_604-6" data-name="Path 604" d="M6915.709,11105.895l53.641-27.843,54.925,27.843v56.712l-54.352,29.09-54.214-29.09Z" transform="translate(7680.992 16541.695) rotate(180)" fill="#142127" stroke="#e31076" stroke-linecap="round" stroke-linejoin="round" stroke-width="5"/>
      <path id="Path_605-9" data-name="Path 605" d="M6915.709,11105.895l53.641-27.843,54.925,27.843v56.712l-54.352,29.09-54.214-29.09Z" transform="translate(7680.984 16491.695) rotate(180)" fill="#142127" stroke="#e31076" stroke-linecap="round" stroke-linejoin="round" stroke-width="5"/>
      <path id="Path_606-9" data-name="Path 606" d="M6915.709,11105.895l53.641-27.843,54.925,27.843v56.712l-54.352,29.09-54.214-29.09Z" transform="translate(7680.984 16448.695) rotate(180)" fill="#142127" stroke="#e31076" stroke-linecap="round" stroke-linejoin="round" stroke-width="5"/>
      <path id="Path_607-9" data-name="Path 607" d="M6915.709,11105.895l53.641-27.843,54.925,27.843v56.712l-54.352,29.09-54.214-29.09Z" transform="translate(7680.984 16405.695) rotate(180)" fill="#142127" stroke="#e31076" stroke-linecap="round" stroke-linejoin="round" stroke-width="5"/>
      <g id="mickmisamu_TRCY_Token-5" data-name="mickmisamu_TRCY Token" transform="translate(681.14 5247.204)">
        <path id="Path_496-5" data-name="Path 496" d="M225.872,181.3H215.644l-5.114-8.856,5.114-8.859h10.228l5.114,8.859Zm-9.6-1.093h8.965l4.483-7.762-4.483-7.765h-8.965l-4.483,7.765Z" transform="translate(-192.458 -163.59)" fill="#b7166d" stroke="#b7166d" stroke-width="2"/>
        <rect id="Rectangle_489-5" data-name="Rectangle 489" width="16.955" height="1.093" transform="translate(37.897 8.312)" fill="#b7166d" stroke="#b7166d" stroke-width="2"/>
        <path id="Path_497-5" data-name="Path 497" d="M225.872,289.314H215.644l-5.114-8.859,5.114-8.856h10.228l5.114,8.856Zm-9.6-1.093h8.965l4.483-7.765-4.483-7.763h-8.965l-4.483,7.763Z" transform="translate(-192.458 -242.078)" fill="#b7166d" stroke="#b7166d" stroke-width="2"/>
        <rect id="Rectangle_490-5" data-name="Rectangle 490" width="16.955" height="1.093" transform="translate(1.749 37.831)" fill="#b7166d" stroke="#b7166d" stroke-width="2"/>
        <path id="Path_498-5" data-name="Path 498" d="M159.752,235.307H149.524l-5.114-8.859,5.114-8.859h10.228l5.114,8.859Zm-9.6-1.093h8.965l4.483-7.765-4.483-7.765h-8.965l-4.491,7.765Z" transform="translate(-144.41 -202.83)" fill="#b7166d" stroke="#b7166d" stroke-width="2"/>
        <path id="Path_499-5" data-name="Path 499" d="M296.092,235.307H285.864l-5.114-8.859,5.114-8.859h10.228l5.114,8.859Zm-9.6-1.093h8.965l4.491-7.765-4.483-7.765H286.5l-4.491,7.765Z" transform="translate(-243.485 -202.83)" fill="#ba176f" stroke="#b7166d" stroke-width="2"/>
        <rect id="Rectangle_491-5" data-name="Rectangle 491" width="18.075" height="1.093" transform="translate(19.824 23.072)" fill="#ba176f" stroke="#ba176f" stroke-width="2"/>
      </g>
    </g>
    <g id="trc-10" data-name="trc" transform="translate(458.504 6.726)">
      <path id="Path_606-10" data-name="Path 606" d="M6915.709,11105.895l53.641-27.843,54.925,27.843v56.712l-54.352,29.09-54.214-29.09Z" transform="translate(7680.984 16448.695) rotate(180)" fill="#142127" stroke="#e31076" stroke-linecap="round" stroke-linejoin="round" stroke-width="5"/>
      <path id="Path_607-10" data-name="Path 607" d="M6915.709,11105.895l53.641-27.843,54.925,27.843v56.712l-54.352,29.09-54.214-29.09Z" transform="translate(7680.984 16405.695) rotate(180)" fill="#142127" stroke="#e31076" stroke-linecap="round" stroke-linejoin="round" stroke-width="5"/>
      <g id="mickmisamu_TRCY_Token-6" data-name="mickmisamu_TRCY Token" transform="translate(681.14 5247.204)">
        <path id="Path_496-6" data-name="Path 496" d="M225.872,181.3H215.644l-5.114-8.856,5.114-8.859h10.228l5.114,8.859Zm-9.6-1.093h8.965l4.483-7.762-4.483-7.765h-8.965l-4.483,7.765Z" transform="translate(-192.458 -163.59)" fill="#b7166d" stroke="#b7166d" stroke-width="2"/>
        <rect id="Rectangle_489-6" data-name="Rectangle 489" width="16.955" height="1.093" transform="translate(37.897 8.312)" fill="#b7166d" stroke="#b7166d" stroke-width="2"/>
        <path id="Path_497-6" data-name="Path 497" d="M225.872,289.314H215.644l-5.114-8.859,5.114-8.856h10.228l5.114,8.856Zm-9.6-1.093h8.965l4.483-7.765-4.483-7.763h-8.965l-4.483,7.763Z" transform="translate(-192.458 -242.078)" fill="#b7166d" stroke="#b7166d" stroke-width="2"/>
        <rect id="Rectangle_490-6" data-name="Rectangle 490" width="16.955" height="1.093" transform="translate(1.749 37.831)" fill="#b7166d" stroke="#b7166d" stroke-width="2"/>
        <path id="Path_498-6" data-name="Path 498" d="M159.752,235.307H149.524l-5.114-8.859,5.114-8.859h10.228l5.114,8.859Zm-9.6-1.093h8.965l4.483-7.765-4.483-7.765h-8.965l-4.491,7.765Z" transform="translate(-144.41 -202.83)" fill="#b7166d" stroke="#b7166d" stroke-width="2"/>
        <path id="Path_499-6" data-name="Path 499" d="M296.092,235.307H285.864l-5.114-8.859,5.114-8.859h10.228l5.114,8.859Zm-9.6-1.093h8.965l4.491-7.765-4.483-7.765H286.5l-4.491,7.765Z" transform="translate(-243.485 -202.83)" fill="#ba176f" stroke="#b7166d" stroke-width="2"/>
        <rect id="Rectangle_491-6" data-name="Rectangle 491" width="18.075" height="1.093" transform="translate(19.824 23.072)" fill="#ba176f" stroke="#ba176f" stroke-width="2"/>
      </g>
    </g>
  </g>
</svg>
