<svg width="45" height="50" viewBox="0 0 45 50" fill="none" xmlns="http://www.w3.org/2000/svg">
  <path
    d="M22.5 49.132C16.486 49.132 10.84 46.592 6.59229 41.9905C2.34463 37.389 0 31.2612 0 24.7576C0 18.254 2.34463 12.1263 6.59229 7.52475C10.84 2.92324 16.4965 0.383301 22.5 0.383301C28.5035 0.383301 34.16 2.92324 38.4077 7.52475C42.6554 12.1263 45 18.254 45 24.7576C45 31.2612 42.6554 37.389 38.4077 41.9905C34.16 46.592 28.5035 49.132 22.5 49.132ZM22.5 3.34467C11.597 3.34467 2.73365 12.9463 2.73365 24.7576C2.73365 36.5689 11.597 46.1706 22.5 46.1706C33.403 46.1706 42.2664 36.5689 42.2664 24.7576C42.2664 12.9463 33.3925 3.34467 22.5 3.34467Z"
    fill="white" fill-opacity="0.5" />
  <path
    d="M14.2675 24.5639C14.278 20.9191 14.299 17.2629 14.2675 13.6182C14.2675 13.0259 14.4146 12.8892 14.9403 12.912C15.9392 12.9576 16.938 12.9462 17.9368 12.912C18.3574 12.9006 18.4625 13.0487 18.4625 13.4929C18.452 16.3973 18.452 19.3017 18.4625 22.1948C18.4625 22.3998 18.4205 22.6048 18.5361 22.8668C19.4088 21.8303 20.2604 20.8166 21.1121 19.8029C22.931 17.6274 24.7604 15.452 26.5794 13.2765C26.8002 13.0145 27.021 12.912 27.3469 12.912C28.903 12.9234 30.459 12.9234 32.0887 12.9234C31.6051 13.6979 31.0268 14.2674 30.5011 14.8825C29.313 16.272 28.1144 17.6388 26.9158 19.017C25.6121 20.5204 24.3189 22.0467 23.0256 23.5501C22.195 24.393 22.195 24.393 22.9731 25.2586C25.896 28.5275 28.8083 31.8078 31.7207 35.0767C32.0572 35.4526 32.3411 35.8854 32.7301 36.2157C32.8352 36.3068 32.9614 36.4321 32.8773 36.6029C32.8142 36.751 32.667 36.7055 32.5513 36.7055C31.0478 36.7055 29.5443 36.6941 28.0408 36.7055C27.778 36.7055 27.6203 36.5574 27.4626 36.3752C26.1693 34.9059 24.8866 33.4252 23.5829 31.9787C22.7312 31.0333 21.9111 30.0652 21.049 29.1426C20.4076 28.4478 19.8083 27.7075 19.1985 26.9899C18.9988 26.7507 18.778 26.5457 18.5572 26.3179C18.389 26.4887 18.4625 26.7051 18.4625 26.8988C18.452 29.9285 18.4415 32.9696 18.4731 35.9993C18.4731 36.5232 18.3784 36.7396 17.8422 36.7055C16.8434 36.6599 15.8446 36.6713 14.8457 36.6941C14.4147 36.7055 14.2885 36.5802 14.2885 36.1018C14.3095 32.4798 14.299 28.8578 14.299 25.2358C14.2885 25.0194 14.278 24.7916 14.2675 24.5639Z"
    fill="#FDFEFE" fill-opacity="0.5" />
</svg>