<svg width="22" height="31" viewBox="0 0 22 31" fill="none" xmlns="http://www.w3.org/2000/svg">
<path d="M11.0394 30.5238C8.22128 30.5238 5.5756 28.9827 3.58519 26.1906C1.59477 23.3985 0.496094 19.6803 0.496094 15.7341C0.496094 11.7879 1.59477 8.06968 3.58519 5.2776C5.5756 2.48551 8.22621 0.944336 11.0394 0.944336C13.8526 0.944336 16.5032 2.48551 18.4936 5.2776C20.484 8.06968 21.5827 11.7879 21.5827 15.7341C21.5827 19.6803 20.484 23.3985 18.4936 26.1906C16.5032 28.9827 13.8526 30.5238 11.0394 30.5238ZM11.0394 2.74122C5.93033 2.74122 1.77706 8.56728 1.77706 15.7341C1.77706 22.9009 5.93033 28.727 11.0394 28.727C16.1485 28.727 20.3017 22.9009 20.3017 15.7341C20.3017 8.56728 16.1435 2.74122 11.0394 2.74122Z" fill="white" fill-opacity="0.5"/>
<path d="M7.18164 15.6164C7.18657 13.4048 7.19642 11.1864 7.18164 8.97483C7.18164 8.61545 7.25061 8.53252 7.49695 8.54634C7.965 8.57399 8.43304 8.56708 8.90109 8.54634C9.09816 8.53943 9.14742 8.62928 9.14742 8.89881C9.1425 10.6611 9.1425 12.4235 9.14742 14.1789C9.14742 14.3033 9.12772 14.4277 9.18191 14.5866C9.59083 13.9577 9.9899 13.3426 10.389 12.7276C11.2413 11.4075 12.0986 10.0875 12.9509 8.7675C13.0544 8.60854 13.1578 8.54634 13.3106 8.54634C14.0397 8.55325 14.7689 8.55325 15.5325 8.55325C15.3059 9.02321 15.0349 9.36877 14.7886 9.74196C14.2319 10.5851 13.6702 11.4144 13.1086 12.2507C12.4976 13.163 11.8916 14.089 11.2856 15.0013C10.8964 15.5127 10.8964 15.5127 11.261 16.038C12.6307 18.0215 13.9954 20.0119 15.3601 21.9953C15.5178 22.2234 15.6508 22.486 15.8331 22.6865C15.8823 22.7417 15.9415 22.8178 15.902 22.9214C15.8725 23.0113 15.8035 22.9836 15.7493 22.9836C15.0448 22.9836 14.3403 22.9767 13.6357 22.9836C13.5126 22.9836 13.4387 22.8938 13.3647 22.7832C12.7588 21.8917 12.1577 20.9932 11.5468 20.1155C11.1477 19.5419 10.7634 18.9545 10.3594 18.3947C10.0589 17.9731 9.77805 17.5239 9.4923 17.0885C9.39869 16.9433 9.29523 16.8189 9.19177 16.6807C9.11294 16.7844 9.14742 16.9157 9.14742 17.0332C9.1425 18.8715 9.13757 20.7168 9.15235 22.5551C9.15235 22.8731 9.10801 23.0044 8.85675 22.9836C8.3887 22.956 7.92066 22.9629 7.45261 22.9767C7.25062 22.9836 7.19149 22.9076 7.19149 22.6173C7.20135 20.4196 7.19642 18.2219 7.19642 16.0242C7.19149 15.8928 7.18657 15.7546 7.18164 15.6164Z" fill="#FDFEFE" fill-opacity="0.5"/>
</svg>
