<svg width="25" height="25" viewBox="0 0 25 25" fill="none" xmlns="http://www.w3.org/2000/svg">
  <path
    d="M12.5 25C9.15888 25 6.0222 23.6974 3.66238 21.3376C1.30257 18.9778 0 15.8353 0 12.5C0 9.16472 1.30257 6.0222 3.66238 3.66238C6.0222 1.30257 9.16472 0 12.5 0C15.8353 0 18.9778 1.30257 21.3376 3.66238C23.6974 6.0222 25 9.16472 25 12.5C25 15.8353 23.6974 18.9778 21.3376 21.3376C18.9778 23.6974 15.8353 25 12.5 25ZM12.5 1.51869C6.44276 1.51869 1.51869 6.44276 1.51869 12.5C1.51869 18.5572 6.44276 23.4813 12.5 23.4813C18.5572 23.4813 23.4813 18.5572 23.4813 12.5C23.4813 6.44276 18.5514 1.51869 12.5 1.51869Z"
    fill="white" fill-opacity="1" />
  <path
    d="M7.92676 12.4005C7.9326 10.5313 7.94428 8.65634 7.92676 6.78718C7.92676 6.48344 8.00853 6.41335 8.30059 6.42503C8.85549 6.44839 9.4104 6.44255 9.96531 6.42503C10.199 6.41919 10.2574 6.49512 10.2574 6.72293C10.2515 8.21241 10.2515 9.7019 10.2574 11.1855C10.2574 11.2907 10.234 11.3958 10.2983 11.5302C10.7831 10.9986 11.2562 10.4788 11.7293 9.95891C12.7398 8.84326 13.7562 7.7276 14.7667 6.61195C14.8894 6.4776 15.012 6.42503 15.1931 6.42503C16.0576 6.43087 16.9221 6.43087 17.8275 6.43087C17.5588 6.82807 17.2375 7.12012 16.9454 7.43554C16.2854 8.14816 15.6195 8.84909 14.9536 9.55587C14.2293 10.3269 13.5109 11.1096 12.7924 11.8806C12.331 12.3129 12.331 12.3129 12.7632 12.7568C14.387 14.4332 16.005 16.1154 17.623 17.7919C17.8099 17.9846 17.9676 18.2066 18.1838 18.376C18.2422 18.4227 18.3123 18.4869 18.2655 18.5746C18.2305 18.6505 18.1487 18.6271 18.0845 18.6271C17.2492 18.6271 16.4139 18.6213 15.5786 18.6271C15.4326 18.6271 15.345 18.5512 15.2574 18.4577C14.5389 17.7042 13.8263 16.9449 13.102 16.2031C12.6289 15.7183 12.1733 15.2218 11.6943 14.7486C11.338 14.3923 11.005 14.0126 10.6662 13.6447C10.5553 13.522 10.4326 13.4168 10.3099 13.3C10.2165 13.3876 10.2574 13.4986 10.2574 13.5979C10.2515 15.1517 10.2457 16.7112 10.2632 18.265C10.2632 18.5337 10.2106 18.6447 9.91274 18.6271C9.35783 18.6038 8.80293 18.6096 8.24802 18.6213C8.00853 18.6271 7.93844 18.5629 7.93844 18.3176C7.95012 16.4601 7.94428 14.6026 7.94428 12.7451C7.93844 12.6341 7.9326 12.5173 7.92676 12.4005Z"
    fill="#FDFEFE" fill-opacity="1" />
</svg>