<svg width="44" height="45" viewBox="0 0 44 45" fill="none" xmlns="http://www.w3.org/2000/svg">
<path d="M0 32.7034C0.0390785 32.5764 0.0683875 32.4389 0.117236 32.3119C1.03558 29.3273 1.9637 26.3428 2.89181 23.3688C2.98951 23.0407 3.00905 22.7444 2.93089 22.3951C1.98324 18.0453 1.05512 13.6955 0.117236 9.34571C0.0488482 9.0282 0.0390785 8.73187 0.117236 8.41436C0.732723 5.82141 1.34821 3.23904 1.92462 0.635505C2.03208 0.138081 2.19817 0.159248 2.56941 0.28625C7.29792 2.04311 12.0264 3.7788 16.7549 5.52507C16.9601 5.59916 17.1653 5.63091 17.3802 5.63091C20.4381 5.63091 23.496 5.63091 26.5539 5.63091C26.8176 5.63091 27.0717 5.56741 27.3159 5.48274C32.0444 3.7788 36.7924 2.07486 41.521 0.349751C42.0192 0.169832 42.1364 0.28625 42.2439 0.794257C42.791 3.37663 43.3772 5.95899 43.9634 8.54136C44.0122 8.7742 44.0122 8.97529 43.9634 9.20812C42.9962 13.6744 42.0485 18.1512 41.0813 22.6174C41.0227 22.8926 41.0422 23.136 41.1204 23.3794C42.0387 26.3428 42.9473 29.3062 43.8754 32.2695C43.9731 32.5659 43.9731 32.8305 43.895 33.1374C42.9962 36.4394 42.0974 39.7415 41.2181 43.0541C41.1106 43.4563 41.0032 43.5303 40.6221 43.4245C37.6522 42.599 34.6724 41.8158 31.6927 41.0009C31.4485 40.9374 31.2726 40.9691 31.0674 41.1173C29.5336 42.2074 27.99 43.2869 26.4562 44.377C26.2217 44.5464 25.9872 44.6416 25.6941 44.631C23.3006 44.6204 20.907 44.6204 18.5135 44.631C18.2595 44.631 18.0445 44.5675 17.8296 44.4194C16.2567 43.3293 14.674 42.2497 13.1109 41.1491C12.8568 40.9691 12.6419 40.9374 12.3391 41.0221C9.38862 41.837 6.42842 42.6308 3.46822 43.4351C3.1849 43.5092 3.04813 43.488 2.95043 43.1388C2.00278 39.7626 1.03558 36.3865 0.0781571 33.0104C0.0488482 32.9151 0.0293089 32.8093 0 32.7034ZM35.8741 4.69956C33.1191 5.68382 30.364 6.66809 27.609 7.66294C27.3257 7.76877 27.0521 7.8111 26.7493 7.8111C23.5448 7.80052 20.3404 7.80052 17.1359 7.8111C16.8526 7.8111 16.5986 7.75819 16.3251 7.66294C13.7752 6.72101 11.2253 5.77908 8.68521 4.83715C8.52889 4.78423 8.39212 4.71014 8.21626 4.78423C8.32373 4.8689 8.42143 4.95356 8.51912 5.03823C11.9776 7.99102 15.436 10.9544 18.9042 13.8966C19.1583 14.1189 19.1192 14.2353 18.9433 14.4787C17.6244 16.3626 16.3153 18.2464 15.0159 20.1409C14.7717 20.5007 14.4981 20.7124 14.0976 20.8394C11.1374 21.7707 8.18696 22.7338 5.23653 23.6757C4.95321 23.7604 4.81643 23.9086 4.71873 24.2155C4.02509 26.5227 3.32168 28.8193 2.58895 31.1159C2.43264 31.6028 2.54988 31.6451 2.9602 31.6451C6.84852 31.6345 10.7368 31.6451 14.6251 31.6239C14.9769 31.6239 15.0452 31.698 14.9866 32.0896C14.6545 34.3333 14.3614 36.577 14.0487 38.8313C14.0097 39.1065 14.0683 39.2758 14.3027 39.424C15.69 40.3659 17.0773 41.329 18.4548 42.2815C18.6209 42.3979 18.7968 42.4508 19.0019 42.4508C21.0731 42.4403 23.1345 42.4508 25.2057 42.4508C25.4108 42.4508 25.5867 42.4085 25.7528 42.2921C27.101 41.3396 28.4394 40.3871 29.7974 39.4451C30.0221 39.2864 30.0905 39.117 30.0514 38.8419C29.7388 36.6088 29.4555 34.3862 29.1331 32.1531C29.0744 31.7298 29.1233 31.6239 29.5336 31.6345C33.3535 31.6557 37.1832 31.6451 41.0032 31.6451C41.1693 31.6451 41.3451 31.6451 41.5307 31.6451C41.5014 31.5075 41.5014 31.4334 41.4819 31.3699C40.7492 28.9886 39.9969 26.6074 39.2739 24.2261C39.186 23.9297 39.0102 23.8662 38.7855 23.7922C35.8155 22.7867 32.8455 21.7707 29.8658 20.7759C29.6411 20.7018 29.4555 20.5959 29.3187 20.3843C27.9802 18.4052 26.6418 16.4366 25.2936 14.4787C25.1177 14.2247 25.1275 14.1083 25.3717 13.9072C26.72 12.7748 28.0584 11.6212 29.3968 10.4676C31.5852 8.5837 33.7736 6.69984 35.9523 4.8054C35.962 4.76306 35.9816 4.73131 35.9913 4.68898C35.9523 4.68898 35.9132 4.68898 35.8741 4.69956ZM2.0907 8.8377C2.11024 8.99645 2.12001 9.10229 2.14932 9.20812C2.99928 13.1769 3.85901 17.1457 4.70896 21.1251C4.78712 21.485 4.89459 21.5485 5.22676 21.4426C7.84502 20.5854 10.4731 19.7387 13.1011 18.9026C13.3453 18.8285 13.5309 18.7015 13.6873 18.4687C14.5079 17.2622 15.3383 16.0662 16.1785 14.8809C16.3934 14.5845 16.3446 14.4575 16.0808 14.2459C14.2734 12.7218 12.4758 11.1767 10.6782 9.64205C8.37258 7.67352 6.05717 5.70499 3.75154 3.7153C3.46822 3.47188 3.34122 3.41896 3.24352 3.88463C3.0579 4.81598 2.82343 5.72616 2.60849 6.64692C2.43264 7.39835 2.24702 8.13919 2.0907 8.8377ZM40.7785 3.51421C40.7003 3.54596 40.671 3.55655 40.6417 3.57771C36.4603 7.15493 32.2789 10.7427 28.0877 14.3199C27.8435 14.5316 27.9119 14.648 28.0584 14.8597C28.8693 16.0345 29.6704 17.2092 30.4617 18.384C30.6376 18.6486 30.8427 18.8285 31.1456 18.9238C33.7052 19.7704 36.2551 20.6383 38.805 21.5061C39.1372 21.6225 39.2642 21.5908 39.3423 21.1886C40.1825 17.1775 41.052 13.1769 41.9117 9.16579C41.9508 8.97529 41.9606 8.79537 41.9215 8.59428C41.5307 6.92209 41.1595 5.22873 40.7785 3.51421ZM7.57147 33.7935C5.95948 33.7935 4.35726 33.7935 2.74527 33.7935C2.58895 33.7935 2.36425 33.6983 2.47172 34.0687C3.10674 36.2595 3.732 38.4609 4.34749 40.6622C4.41588 40.8951 4.48426 40.9162 4.68943 40.8527C7.04391 40.2071 9.39839 39.5615 11.7626 38.9371C11.9776 38.8842 12.0557 38.7678 12.085 38.5561C12.2707 37.1062 12.4661 35.6668 12.6712 34.2275C12.7201 33.8782 12.6321 33.7724 12.3 33.783C10.7271 33.8041 9.15415 33.7935 7.57147 33.7935ZM36.5287 33.8041C34.9851 33.8041 33.4415 33.8253 31.8979 33.7935C31.4778 33.783 31.3801 33.8994 31.4485 34.3439C31.6634 35.7092 31.8392 37.085 32.0053 38.4714C32.0444 38.7995 32.1714 38.8948 32.445 38.9689C34.7408 39.5721 37.0465 40.1966 39.3326 40.8421C39.6745 40.9374 39.7429 40.7998 39.8113 40.5141C40.3584 38.4609 40.9055 36.3971 41.4721 34.3439C41.5893 33.9205 41.5698 33.783 41.1009 33.783C39.5866 33.8253 38.0527 33.8041 36.5287 33.8041Z" fill="#FEFEFE"/>
<path d="M22.0305 39.2119C21.1512 39.2119 20.2719 39.2014 19.3927 39.2225C19.1191 39.2225 19.0214 39.1484 19.0312 38.8415C19.0507 37.9737 19.0312 37.1164 19.0409 36.2486C19.0507 35.6453 19.7737 34.8833 20.3208 34.8833C21.4638 34.8833 22.5971 34.8833 23.7401 34.8833C24.2775 34.8833 25.0395 35.6559 25.0493 36.2274C25.059 37.1058 25.0395 37.9843 25.059 38.8733C25.0688 39.1696 24.9516 39.2225 24.7073 39.2225C23.8183 39.2119 22.9293 39.2119 22.0305 39.2119Z" fill="#FEFEFE"/>
<path d="M19.0411 29.4441C17.351 29.0737 15.7683 28.735 14.0684 28.3646C14.5568 28.0047 14.9476 27.6978 15.3677 27.4226C15.9441 27.0416 16.4424 26.5442 17.0774 26.269C17.4487 26.8617 17.8297 27.4544 18.2009 28.0577C18.4549 28.4916 18.7187 28.9255 19.0411 29.4441Z" fill="#FEFEFE"/>
<path d="M25.0493 29.4542C25.7234 28.3641 26.3291 27.3693 26.9349 26.3744C27.0423 26.2051 27.1205 26.2474 27.2475 26.3427C28.1463 26.9988 29.0451 27.6444 30.0416 28.3747C28.3515 28.7451 26.759 29.0838 25.0493 29.4542Z" fill="#FEFEFE"/>
</svg>
