<svg width="22" height="31" viewBox="0 0 22 31" fill="none" xmlns="http://www.w3.org/2000/svg">
<path d="M0.496094 22.2642C0.514822 22.1796 0.528868 22.088 0.552278 22.0035C0.992387 20.0161 1.43718 18.0288 1.88197 16.0486C1.92879 15.8301 1.93815 15.6328 1.9007 15.4002C1.44654 12.5038 1.00175 9.60739 0.552278 6.71099C0.519504 6.49957 0.514822 6.30225 0.552278 6.09083C0.847245 4.36426 1.14221 2.64474 1.41845 0.911123C1.46995 0.579904 1.54955 0.593998 1.72746 0.678565C3.99356 1.8484 6.25965 3.00415 8.52575 4.16694C8.62407 4.21627 8.72239 4.23741 8.82539 4.23741C10.2909 4.23741 11.7563 4.23741 13.2218 4.23741C13.3482 4.23741 13.47 4.19513 13.587 4.13875C15.8531 3.00415 18.1286 1.86955 20.3946 0.720848C20.6334 0.601046 20.6896 0.678565 20.7411 1.01683C21.0033 2.73635 21.2842 4.45587 21.5652 6.1754C21.5886 6.33044 21.5886 6.46433 21.5652 6.61937C21.1016 9.5933 20.6475 12.5743 20.184 15.5482C20.1559 15.7314 20.1652 15.8935 20.2027 16.0556C20.6428 18.0288 21.0782 20.002 21.523 21.9753C21.5698 22.1726 21.5698 22.3488 21.5324 22.5531C21.1016 24.7519 20.6709 26.9506 20.2495 29.1564C20.198 29.4242 20.1465 29.4735 19.9639 29.403C18.5406 28.8534 17.1126 28.3319 15.6845 27.7892C15.5675 27.7469 15.4832 27.7681 15.3849 27.8667C14.6498 28.5926 13.9101 29.3114 13.175 30.0373C13.0626 30.15 12.9502 30.2135 12.8098 30.2064C11.6627 30.1994 10.5156 30.1994 9.36851 30.2064C9.24678 30.2064 9.14377 30.1641 9.04077 30.0655C8.28696 29.3396 7.52848 28.6208 6.77935 27.8879C6.65762 27.7681 6.55462 27.7469 6.40948 27.8033C4.99551 28.346 3.57686 28.8745 2.15821 29.4101C2.02243 29.4594 1.95688 29.4453 1.91006 29.2128C1.45591 26.9647 0.992387 24.7166 0.53355 22.4686C0.519504 22.4051 0.51014 22.3347 0.496094 22.2642ZM17.6884 3.61726C16.3681 4.27265 15.0478 4.92804 13.7275 5.59048C13.5917 5.66095 13.4606 5.68914 13.3154 5.68914C11.7797 5.68209 10.244 5.68209 8.70834 5.68914C8.57257 5.68914 8.45083 5.6539 8.31974 5.59048C7.09773 4.96328 5.87573 4.33607 4.6584 3.70887C4.58349 3.67363 4.51794 3.6243 4.43367 3.67363C4.48517 3.73001 4.53199 3.78639 4.57881 3.84277C6.23624 5.80894 7.89367 7.78216 9.55579 9.74129C9.67752 9.88928 9.65879 9.9668 9.57452 10.1289C8.94244 11.3833 8.31505 12.6377 7.69235 13.8992C7.5753 14.1388 7.4442 14.2797 7.25224 14.3643C5.83359 14.9844 4.41962 15.6257 3.00565 16.2529C2.86987 16.3093 2.80433 16.408 2.75751 16.6123C2.42508 18.1486 2.08798 19.6779 1.73683 21.2071C1.66191 21.5313 1.7181 21.5595 1.91474 21.5595C3.77818 21.5524 5.64163 21.5595 7.50507 21.5454C7.67362 21.5454 7.70639 21.5947 7.6783 21.8555C7.51911 23.3495 7.37865 24.8435 7.22883 26.3445C7.2101 26.5278 7.23819 26.6405 7.35056 26.7392C8.01541 27.3664 8.68025 28.0077 9.34042 28.6419C9.42001 28.7195 9.50429 28.7547 9.60261 28.7547C10.5952 28.7476 11.5831 28.7547 12.5757 28.7547C12.674 28.7547 12.7583 28.7265 12.8379 28.649C13.484 28.0147 14.1254 27.3805 14.7762 26.7533C14.8839 26.6476 14.9167 26.5348 14.898 26.3516C14.7481 24.8646 14.6124 23.3847 14.4579 21.8977C14.4298 21.6159 14.4532 21.5454 14.6498 21.5524C16.4805 21.5665 18.3158 21.5595 20.1465 21.5595C20.2261 21.5595 20.3104 21.5595 20.3993 21.5595C20.3853 21.4679 20.3853 21.4185 20.3759 21.3763C20.0248 19.7906 19.6643 18.205 19.3178 16.6194C19.2756 16.4221 19.1914 16.3798 19.0837 16.3304C17.6604 15.661 16.237 14.9844 14.809 14.322C14.7013 14.2727 14.6124 14.2022 14.5468 14.0612C13.9054 12.7434 13.2639 11.4326 12.6178 10.1289C12.5335 9.95975 12.5382 9.88223 12.6553 9.74834C13.3014 8.99429 13.9428 8.22614 14.5843 7.45799C15.633 6.20359 16.6818 4.94918 17.7259 3.68773C17.7306 3.65954 17.7399 3.6384 17.7446 3.61021C17.7259 3.61021 17.7072 3.61021 17.6884 3.61726ZM1.49804 6.37272C1.50741 6.47843 1.51209 6.5489 1.52614 6.61937C1.93347 9.26208 2.34549 11.9048 2.75282 14.5545C2.79028 14.7941 2.84178 14.8364 3.00097 14.766C4.25575 14.1951 5.51521 13.6314 6.77467 13.0746C6.89172 13.0253 6.98068 12.9407 7.05559 12.7857C7.44888 11.9823 7.84685 11.186 8.24951 10.3967C8.35251 10.1994 8.3291 10.1148 8.20269 9.97385C7.33651 8.95905 6.47502 7.93015 5.61353 6.90831C4.50858 5.59752 3.39894 4.28674 2.29399 2.96186C2.15821 2.79978 2.09734 2.76454 2.05052 3.07462C1.96156 3.69478 1.8492 4.30084 1.74619 4.91394C1.66191 5.4143 1.57296 5.9076 1.49804 6.37272ZM20.0388 2.82797C20.0014 2.84911 19.9873 2.85616 19.9733 2.87025C17.9694 5.25221 15.9655 7.64122 13.9569 10.0232C13.8398 10.1641 13.8726 10.2416 13.9428 10.3826C14.3314 11.1648 14.7154 11.9471 15.0946 12.7293C15.1789 12.9055 15.2772 13.0253 15.4223 13.0887C16.649 13.6525 17.871 14.2304 19.093 14.8082C19.2522 14.8858 19.3131 14.8646 19.3506 14.5968C19.7532 11.9259 20.1699 9.26208 20.5819 6.59118C20.6007 6.46433 20.6053 6.34453 20.5866 6.21063C20.3993 5.09717 20.2214 3.96962 20.0388 2.82797ZM4.12465 22.9901C3.35212 22.9901 2.58427 22.9901 1.81174 22.9901C1.73683 22.9901 1.62914 22.9266 1.68064 23.1733C1.98497 24.6321 2.28462 26.0979 2.57959 27.5637C2.61236 27.7188 2.64514 27.7328 2.74346 27.6906C3.87182 27.2607 5.00019 26.8308 6.13324 26.415C6.23624 26.3798 6.2737 26.3023 6.28774 26.1613C6.3767 25.1958 6.47034 24.2374 6.56866 23.279C6.59207 23.0464 6.54994 22.976 6.39075 22.983C5.63694 22.9971 4.88314 22.9901 4.12465 22.9901ZM18.0021 22.9971C17.2624 22.9971 16.5226 23.0112 15.7829 22.9901C15.5815 22.983 15.5347 23.0605 15.5675 23.3565C15.6705 24.2656 15.7548 25.1818 15.8344 26.1049C15.8531 26.3234 15.914 26.3868 16.0451 26.4362C17.1453 26.8378 18.2503 27.2536 19.3459 27.6835C19.5097 27.7469 19.5425 27.6553 19.5753 27.465C19.8375 26.0979 20.0997 24.7237 20.3712 23.3565C20.4274 23.0746 20.4181 22.983 20.1933 22.983C19.4676 23.0112 18.7325 22.9971 18.0021 22.9971Z" fill="#FEFEFE"/>
<path d="M11.054 26.5981C10.6326 26.5981 10.2113 26.5911 9.78988 26.6052C9.65879 26.6052 9.61197 26.5559 9.61665 26.3515C9.62601 25.7736 9.61665 25.2028 9.62133 24.6249C9.62601 24.2232 9.97248 23.7158 10.2347 23.7158C10.7825 23.7158 11.3256 23.7158 11.8734 23.7158C12.1309 23.7158 12.4961 24.2303 12.5008 24.6108C12.5055 25.1957 12.4961 25.7807 12.5055 26.3726C12.5101 26.5699 12.4539 26.6052 12.3369 26.6052C11.9108 26.5981 11.4848 26.5981 11.054 26.5981Z" fill="#FEFEFE"/>
<path d="M9.62143 20.0937C8.81144 19.847 8.05295 19.6215 7.23828 19.3748C7.47238 19.1352 7.65966 18.9309 7.86099 18.7476C8.13723 18.4939 8.37601 18.1627 8.68034 17.9795C8.85826 18.3741 9.04086 18.7688 9.21877 19.1705C9.34051 19.4594 9.46692 19.7483 9.62143 20.0937Z" fill="#FEFEFE"/>
<path d="M12.5009 20.101C12.8239 19.3752 13.1142 18.7127 13.4045 18.0503C13.456 17.9375 13.4934 17.9657 13.5543 18.0292C13.9851 18.4661 14.4158 18.896 14.8934 19.3822C14.0834 19.6289 13.3202 19.8544 12.5009 20.101Z" fill="#FEFEFE"/>
</svg>
