<svg width="20" height="29" viewBox="0 0 20 29" fill="none" xmlns="http://www.w3.org/2000/svg">
<path d="M17.2517 28.1826H3.20505C1.71149 28.1826 0.496094 26.4782 0.496094 24.3837V4.67726C0.496094 2.58281 1.71149 0.878418 3.20505 0.878418H17.2517C18.7453 0.878418 19.9607 2.58281 19.9607 4.67726V24.3753C19.9607 26.4782 18.7453 28.1826 17.2517 28.1826ZM3.199 2.74392C2.43711 2.74392 1.82033 3.60884 1.82033 4.67726V24.3753C1.82033 25.4437 2.43711 26.3086 3.199 26.3086H17.2457C18.0076 26.3086 18.6243 25.4437 18.6243 24.3753V4.67726C18.6243 3.60884 18.0076 2.74392 17.2457 2.74392H3.199Z" fill="#FBFCFD" fill-opacity="0.5"/>
<path d="M10.2796 27.2414C9.62658 24.9265 8.97353 22.6116 8.31443 20.2967C7.11717 16.0738 5.91386 11.851 4.7166 7.61972C4.69241 7.5434 4.68032 7.45861 4.64404 7.31445C5.1943 7.45013 5.71432 7.57732 6.2283 7.71299C10.5517 8.82381 14.8752 9.93464 19.1986 11.0455C19.2289 11.0539 19.2591 11.0455 19.2893 11.0539C19.2893 11.6475 19.2893 12.2411 19.2893 12.8346C19.2168 12.8262 19.1503 12.8262 19.0777 12.8092C16.3264 12.1224 13.5751 11.427 10.8238 10.7402C9.88659 10.5028 8.94935 10.2738 8 10.0364C8.03024 10.189 8.10884 10.2399 8.16931 10.3077C10.715 13.1823 13.2607 16.0569 15.8064 18.9314C15.9757 19.1265 16.0845 19.1604 16.278 18.9399C17.2697 17.7952 18.2795 16.6759 19.2833 15.5481C19.2833 16.3706 19.2833 17.1847 19.2833 18.0072C18.7572 18.482 18.3158 19.101 17.7655 19.7031C18.3279 19.5759 18.8056 19.4657 19.2833 19.3639C19.2833 20.0168 19.2833 20.6613 19.2833 21.3142C19.2651 21.2972 19.247 21.2718 19.2349 21.2718C18.4367 21.4668 17.6386 21.6703 16.8343 21.8654C16.7074 21.8993 16.6832 21.9926 16.6711 22.1537C16.6288 22.7388 16.5622 23.3239 16.5199 23.9089C16.4353 25.0282 16.2962 26.1306 16.2539 27.2584C16.2478 27.2838 16.2478 27.3092 16.2599 27.3347C15.8548 27.3347 15.4557 27.3347 15.0505 27.3347C15.0626 27.3092 15.0626 27.2923 15.0566 27.2668C15.0687 27.2329 15.0868 27.1905 15.0929 27.1566C15.2622 25.2572 15.4254 23.3493 15.5948 21.4499C15.6129 21.2209 15.5403 21.0937 15.4254 20.9581C13.0249 18.1852 10.6303 15.4124 8.22978 12.6396C7.9093 12.2665 7.58277 11.9019 7.2502 11.5203C7.18973 11.6899 7.2502 11.7832 7.28044 11.8849C7.63115 13.1145 7.97582 14.344 8.32653 15.5735C9.43914 19.4657 10.5517 23.3578 11.6643 27.2499C11.6643 27.2753 11.6643 27.3092 11.6643 27.3347C11.1987 27.3347 10.7392 27.3347 10.2736 27.3347C10.2857 27.3008 10.2796 27.2668 10.2796 27.2414Z" fill="#FBFCFD" fill-opacity="0.5"/>
</svg>
