<svg width="39" height="42" viewBox="0 0 39 42" fill="none" xmlns="http://www.w3.org/2000/svg">
<path d="M32.7797 41.9186H5.29964C2.37773 41.9186 0 39.3428 0 36.1775V6.39542C0 3.23011 2.37773 0.654297 5.29964 0.654297H32.7797C35.7016 0.654297 38.0793 3.23011 38.0793 6.39542V36.1647C38.0793 39.3428 35.7016 41.9186 32.7797 41.9186ZM5.28781 3.4736C3.79728 3.4736 2.59066 4.78073 2.59066 6.39542V36.1647C2.59066 37.7794 3.79728 39.0865 5.28781 39.0865H32.7679C34.2584 39.0865 35.465 37.7794 35.465 36.1647V6.39542C35.465 4.78073 34.2584 3.4736 32.7679 3.4736H5.28781Z" fill="#FBFCFD" fill-opacity="0.5"/>
<path d="M19.1401 40.4961C17.8625 36.9976 16.585 33.4991 15.2955 30.0006C12.9533 23.6188 10.5992 17.2369 8.25694 10.8422C8.20962 10.7269 8.18597 10.5987 8.11499 10.3809C9.19148 10.5859 10.2088 10.7781 11.2143 10.9832C19.6725 12.6619 28.1306 14.3407 36.5887 16.0195C36.6479 16.0323 36.707 16.0195 36.7662 16.0323C36.7662 16.9293 36.7662 17.8264 36.7662 18.7234C36.6242 18.7106 36.4941 18.7106 36.3522 18.685C30.9697 17.647 25.5872 16.5961 20.2048 15.5581C18.3712 15.1993 16.5376 14.8533 14.6804 14.4945C14.7395 14.7252 14.8933 14.802 15.0116 14.9046C19.9919 19.2488 24.9721 23.5931 29.9524 27.9374C30.2836 28.2322 30.4965 28.2834 30.8751 27.9502C32.8151 26.2202 34.7907 24.5286 36.7544 22.8242C36.7544 24.0673 36.7544 25.2975 36.7544 26.5406C35.7252 27.2582 34.8616 28.1937 33.7851 29.1036C34.8853 28.9114 35.8198 28.7448 36.7544 28.591C36.7544 29.5777 36.7544 30.5517 36.7544 31.5384C36.7189 31.5128 36.6834 31.4744 36.6597 31.4744C35.0982 31.7691 33.5367 32.0767 31.9634 32.3714C31.715 32.4227 31.6677 32.5636 31.644 32.8071C31.5612 33.6914 31.4311 34.5756 31.3483 35.4598C31.1826 37.1514 30.9106 38.8174 30.8278 40.5218C30.8159 40.5602 30.8159 40.5986 30.8396 40.6371C30.047 40.6371 29.2662 40.6371 28.4737 40.6371C28.4973 40.5986 28.4973 40.573 28.4855 40.5346C28.5092 40.4833 28.5446 40.4192 28.5565 40.368C28.8877 37.4974 29.2071 34.614 29.5383 31.7435C29.5738 31.3975 29.4319 31.2052 29.2071 31.0002C24.5108 26.8097 19.8262 22.6192 15.1299 18.4287C14.5029 17.8648 13.8642 17.3138 13.2135 16.7371C13.0952 16.9934 13.2135 17.1344 13.2727 17.2881C13.9588 19.1463 14.6331 21.0045 15.3192 22.8627C17.4958 28.7448 19.6725 34.6269 21.8491 40.5089C21.8491 40.5474 21.8491 40.5986 21.8491 40.6371C20.9382 40.6371 20.0392 40.6371 19.1283 40.6371C19.152 40.5858 19.1401 40.5346 19.1401 40.4961Z" fill="#FBFCFD" fill-opacity="0.5"/>
</svg>
