<svg width="22" height="30" viewBox="0 0 22 30" fill="none" xmlns="http://www.w3.org/2000/svg">
<path d="M11.0394 0.286133C5.22368 0.286133 0.496094 6.91781 0.496094 15.0759C0.496094 23.234 5.22368 29.8656 11.0394 29.8656C16.8551 29.8656 21.5827 23.234 21.5827 15.0759C21.5827 6.91781 16.8551 0.286133 11.0394 0.286133ZM11.0394 27.7183C6.07206 27.7183 2.02687 22.0439 2.02687 15.0759C2.02687 8.10789 6.07206 2.43345 11.0394 2.43345C16.0067 2.43345 20.0519 8.10789 20.0519 15.0759C20.0519 22.0439 16.0067 27.7183 11.0394 27.7183Z" fill="#FAFCFD" fill-opacity="0.5"/>
<path d="M16.0005 8.64267C14.4143 8.65992 12.9573 8.15974 11.7032 6.71957C11.4573 6.44361 11.1868 6.40912 10.9347 6.70232C9.67447 8.15974 8.19902 8.66854 6.60062 8.65129C6.15183 8.64267 5.91822 8.97038 5.93052 9.61716C5.96125 12.2043 6.00429 14.7828 6.30552 17.344C6.56373 19.5345 7.27072 21.2506 8.74002 22.2596C9.50233 22.7856 10.2401 23.3893 10.9347 24.0878C11.1991 24.3465 11.4512 24.3293 11.7094 24.0706C12.4225 23.3548 13.191 22.7512 13.9656 22.1906C15.232 21.2765 15.9513 19.8277 16.2402 17.8873C16.5415 15.8694 16.5968 13.8256 16.6951 11.7731C16.6951 11.0573 16.6951 10.3502 16.6951 9.6344C16.689 8.96175 16.48 8.64267 16.0005 8.64267ZM15.4656 10.7986C15.4472 11.2988 15.4595 11.799 15.4595 12.2905C15.3488 14.2136 15.3058 16.1367 14.943 18.0167C14.734 19.1033 14.3098 19.9398 13.5967 20.4917C12.8836 21.0436 12.1827 21.6214 11.488 22.1992C11.3466 22.32 11.2483 22.32 11.113 22.1906C10.5351 21.6387 9.93267 21.1471 9.29946 20.7332C8.05148 19.9139 7.63958 18.3961 7.45515 16.6455C7.25227 14.6966 7.21539 12.739 7.15391 10.7814C7.14161 10.4192 7.23383 10.3416 7.46744 10.3157C8.79534 10.1863 10.0372 9.66027 11.1438 8.59955C11.2729 8.47882 11.3589 8.49607 11.4757 8.60818C12.5885 9.6689 13.8242 10.1863 15.1582 10.3071C15.4164 10.3416 15.4779 10.4709 15.4656 10.7986Z" fill="#FAFCFD" fill-opacity="0.5"/>
</svg>
