<svg width="25" height="25" viewBox="0 0 25 25" fill="none" xmlns="http://www.w3.org/2000/svg">
<path d="M12.5 0C5.60496 0 0 5.60496 0 12.5C0 19.395 5.60496 25 12.5 25C19.395 25 25 19.395 25 12.5C25 5.60496 19.395 0 12.5 0ZM12.5 23.1851C6.61079 23.1851 1.81487 18.3892 1.81487 12.5C1.81487 6.61079 6.61079 1.81487 12.5 1.81487C18.3892 1.81487 23.1851 6.61079 23.1851 12.5C23.1851 18.3892 18.3892 23.1851 12.5 23.1851Z" fill="#FAFCFD" fill-opacity="1"/>
<path d="M18.3817 7.06342C16.5012 7.07799 14.7738 6.65526 13.287 5.43805C12.9954 5.20482 12.6747 5.17566 12.3759 5.42348C10.8817 6.65525 9.13244 7.08528 7.23739 7.07071C6.70532 7.06342 6.42835 7.34039 6.44293 7.88703C6.47937 10.0736 6.53039 12.2529 6.88753 14.4176C7.19366 16.269 8.03186 17.7194 9.77384 18.5722C10.6776 19.0168 11.5523 19.527 12.3759 20.1174C12.6893 20.336 12.9881 20.3214 13.2942 20.1028C14.1397 19.4978 15.0508 18.9876 15.9692 18.5139C17.4706 17.7413 18.3234 16.5168 18.666 14.8768C19.0231 13.1713 19.0887 11.4439 19.2053 9.70919C19.2053 9.10423 19.2053 8.50657 19.2053 7.90161C19.198 7.3331 18.9502 7.06342 18.3817 7.06342ZM17.7476 8.88557C17.7257 9.30832 17.7403 9.73106 17.7403 10.1465C17.6091 11.7719 17.5581 13.3972 17.1281 14.9862C16.8802 15.9045 16.3773 16.6115 15.5319 17.078C14.6864 17.5445 13.8555 18.0328 13.0319 18.5211C12.8642 18.6232 12.7476 18.6232 12.5872 18.5139C11.9021 18.0474 11.1878 17.6319 10.4371 17.2821C8.95751 16.5897 8.46917 15.3069 8.25051 13.8273C8.00999 12.18 7.96626 10.5255 7.89337 8.871C7.87879 8.56488 7.98812 8.49928 8.26509 8.47741C9.83943 8.36808 11.3117 7.92348 12.6237 7.02697C12.7768 6.92493 12.8788 6.93951 13.0173 7.03426C14.3365 7.93076 15.8015 8.36808 17.3832 8.47012C17.6893 8.49928 17.7622 8.60861 17.7476 8.88557Z" fill="#FAFCFD" fill-opacity="1"/>
</svg>
