<svg width="45" height="50" viewBox="0 0 45 50" fill="none" xmlns="http://www.w3.org/2000/svg">
<path d="M22.5 0.59668C10.0889 0.59668 0 11.526 0 24.971C0 38.416 10.0889 49.3453 22.5 49.3453C34.9111 49.3453 45 38.416 45 24.971C45 11.526 34.9111 0.59668 22.5 0.59668ZM22.5 45.8064C11.8994 45.8064 3.26677 36.4547 3.26677 24.971C3.26677 13.4874 11.8994 4.13557 22.5 4.13557C33.1006 4.13557 41.7332 13.4874 41.7332 24.971C41.7332 36.4547 33.1006 45.8064 22.5 45.8064Z" fill="#FAFCFD" fill-opacity="0.5"/>
<path d="M33.0875 14.3691C29.7026 14.3975 26.5933 13.5732 23.9169 11.1997C23.3921 10.7449 22.8149 10.6881 22.277 11.1713C19.5875 13.5732 16.4388 14.4117 13.0277 14.3833C12.07 14.3691 11.5714 14.9091 11.5977 15.9751C11.6633 20.2388 11.7551 24.4883 12.398 28.7094C12.949 32.3194 14.4577 35.1477 17.5933 36.8105C19.2201 37.6775 20.7945 38.6723 22.277 39.8235C22.8411 40.2499 23.379 40.2215 23.93 39.7951C25.4519 38.6155 27.0918 37.6206 28.7449 36.6968C31.4475 35.1903 32.9825 32.8026 33.5991 29.6048C34.242 26.2791 34.3601 22.9107 34.57 19.5282C34.57 18.3486 34.57 17.1831 34.57 16.0035C34.5568 14.8949 34.1108 14.3691 33.0875 14.3691ZM31.9461 17.9222C31.9067 18.7465 31.9329 19.5708 31.9329 20.3809C31.6968 23.5503 31.6049 26.7197 30.8309 29.818C30.3848 31.6088 29.4796 32.9874 27.9577 33.897C26.4359 34.8066 24.9402 35.7588 23.4577 36.711C23.156 36.91 22.9461 36.91 22.6574 36.6968C21.4242 35.7872 20.1385 34.9771 18.7872 34.2949C16.1239 32.9447 15.2449 30.4433 14.8513 27.5582C14.4184 24.3462 14.3397 21.12 14.2085 17.8938C14.1822 17.2968 14.379 17.1689 14.8775 17.1263C17.7114 16.9131 20.3615 16.0461 22.723 14.298C22.9985 14.099 23.1822 14.1275 23.4315 14.3122C25.8061 16.0604 28.4431 16.9131 31.2901 17.1121C31.8411 17.1689 31.9723 17.3821 31.9461 17.9222Z" fill="#FAFCFD" fill-opacity="0.5"/>
</svg>
