<svg width="47" height="40" viewBox="0 0 47 40" fill="none" xmlns="http://www.w3.org/2000/svg">
<path d="M43.652 16.058C41.299 16.058 39.1862 16.0416 37.0735 16.0635C33.3511 16.1072 31.1768 18.2216 31.1042 21.8714C31.0762 23.2537 31.0706 24.6361 31.1042 26.0129C31.188 29.4988 33.3063 31.5695 36.8555 31.6515C38.9738 31.6952 41.0922 31.7007 43.2049 31.7335C43.3055 31.7335 43.4117 31.8373 43.6409 31.9575C43.6409 33.837 43.7079 35.7875 43.6185 37.7326C43.5514 39.1532 42.5789 39.9673 41.176 39.9728C28.2872 40.0055 15.3984 40.0165 2.50957 39.9782C0.911048 39.9728 0.0279462 38.9456 0.022357 37.3939C-0.00558925 28.4115 -0.0111785 19.4346 0.0279462 10.4577C0.0335355 8.67649 0.972529 7.76951 2.78345 7.76951C15.499 7.74219 28.2089 7.74219 40.9245 7.76951C42.7186 7.77498 43.6073 8.70927 43.652 10.4741C43.6912 12.2443 43.652 14.02 43.652 16.058Z" fill="white"/>
<path d="M47 29.4221C43.4229 29.4221 40.0078 29.4658 36.5984 29.4057C34.7148 29.3729 33.5075 28.1818 33.4349 26.3678C33.3678 24.7014 33.3678 23.0295 33.4405 21.363C33.5131 19.6966 34.6589 18.4345 36.291 18.3962C39.8178 18.3143 43.3446 18.3689 47 18.3689C47 22.0515 47 25.6357 47 29.4221ZM40.2314 23.8217C40.0917 22.647 39.4545 21.8438 38.1075 21.8438C36.8499 21.8438 36.101 22.6197 36.0506 23.778C36.0003 25.0237 36.7493 25.8925 38.0684 25.9253C39.3818 25.9635 40.1029 25.1986 40.2314 23.8217Z" fill="white"/>
<path d="M24.2685 5.15229C27.5382 3.63337 30.8023 2.10899 34.2229 0.519043C35.039 2.16909 35.7991 3.69347 36.6487 5.40909C32.412 5.40909 28.3654 5.40909 24.3244 5.40909C24.3076 5.32167 24.2853 5.23971 24.2685 5.15229Z" fill="white"/>
<path d="M22.9271 0C23.3742 0.928835 23.7487 1.69376 24.14 2.50785C20.4064 5.02117 16.4436 6.26144 11.6201 5.29436C15.4766 3.49133 19.0929 1.7921 22.9271 0Z" fill="white"/>
</svg>
