<?xml version="1.0" standalone="no"?>
<!DOCTYPE svg PUBLIC "-//W3C//DTD SVG 1.1//EN" "http://www.w3.org/Graphics/SVG/1.1/DTD/svg11.dtd" >
<svg xmlns="http://www.w3.org/2000/svg" xmlns:xlink="http://www.w3.org/1999/xlink" version="1.1">
<metadata>
Created by FontForge 20170731 at Sat Dec  3 14:51:44 2022
 By Aleksey,,,
Copyright (c) FontPeople Ltd 2020. All rights reserved.
</metadata>
<defs>
<font id="CercoDEMO-Thin" horiz-adv-x="1331" >
  <font-face 
    font-family="Cerco DEMO Thin"
    font-weight="250"
    font-stretch="normal"
    units-per-em="2048"
    panose-1="0 0 3 0 0 0 0 0 0 0"
    ascent="1638"
    descent="-410"
    x-height="1024"
    cap-height="1434"
    bbox="-291 -506 2716 2173"
    underline-thickness="143"
    underline-position="-349"
    unicode-range="U+0020-FB02"
  />
<missing-glyph 
d="M686 442q-143 30 -221 101.5t-78 165.5q0 51 20.5 100t50.5 87.5t59.5 75.5t50 79t20.5 84q0 46 -28 78t-79 48t-90.5 22.5t-93.5 10.5q49 62 163.5 112t268.5 50q42 0 82.5 -6.5t84 -25t75.5 -46.5t52.5 -75t20.5 -107q0 -83 -38 -176t-87.5 -168.5t-119 -191.5
t-113.5 -218zM737 776q14 23 63.5 100t68.5 111t40 89t21 98q0 93 -59 137.5t-156 44.5q-50 0 -113 -13q99 -26 149 -58t50 -85q0 -34 -27 -65t-84 -35q-37 -78 -37 -150q0 -112 84 -174zM606 -10q-83 0 -137.5 53t-54.5 135q0 83 54 135t138 52t138.5 -52t54.5 -135
q0 -82 -55 -135t-138 -53z" />
    <glyph glyph-name="fi" unicode="fi" horiz-adv-x="1114" 
d="M860 1024h8q21 0 21 -23v-978q0 -23 -21 -23h-8q-20 0 -20 23v978q0 23 20 23zM864 1458q22 0 38 -15.5t16 -37.5t-16 -37.5t-38 -15.5t-37.5 15.5t-15.5 37.5t15.5 37.5t37.5 15.5zM51 999v5q0 20 23 20h162v205q0 149 79 240.5t215 91.5q102 0 175 -33q16 -8 16 -15
q0 -4 -2 -6l-4 -8q-3 -12 -17 -12q-6 0 -8 2q-77 27 -160 27q-118 0 -181.5 -81t-63.5 -216v-195h315q23 0 23 -20v-5q0 -20 -23 -20h-315v-956q0 -23 -21 -23h-8q-20 0 -20 23v956h-162q-23 0 -23 20z" />
    <glyph glyph-name="fl" unicode="fl" horiz-adv-x="1091" 
d="M51 999v5q0 20 23 20h162v205q0 149 79 240.5t215 91.5q102 0 175 -33q16 -8 16 -15q0 -4 -2 -6l-4 -8q-3 -12 -17 -12q-6 0 -8 2q-77 27 -160 27q-118 0 -181.5 -81t-63.5 -216v-195h315q23 0 23 -20v-5q0 -20 -23 -20h-315v-956q0 -23 -21 -23h-8q-20 0 -20 23v956
h-162q-23 0 -23 20zM897 1513v-1490q0 -23 -20 -23h-9q-20 0 -20 23v1480q0 19 12 23l19 6q10 3 14 -1.5t4 -17.5z" />
    <glyph glyph-name=".notdef" 
d="M686 442q-143 30 -221 101.5t-78 165.5q0 51 20.5 100t50.5 87.5t59.5 75.5t50 79t20.5 84q0 46 -28 78t-79 48t-90.5 22.5t-93.5 10.5q49 62 163.5 112t268.5 50q42 0 82.5 -6.5t84 -25t75.5 -46.5t52.5 -75t20.5 -107q0 -83 -38 -176t-87.5 -168.5t-119 -191.5
t-113.5 -218zM737 776q14 23 63.5 100t68.5 111t40 89t21 98q0 93 -59 137.5t-156 44.5q-50 0 -113 -13q99 -26 149 -58t50 -85q0 -34 -27 -65t-84 -35q-37 -78 -37 -150q0 -112 84 -174zM606 -10q-83 0 -137.5 53t-54.5 135q0 83 54 135t138 52t138.5 -52t54.5 -135
q0 -82 -55 -135t-138 -53z" />
    <glyph glyph-name=".null" horiz-adv-x="0" 
 />
    <glyph glyph-name="nonmarkingreturn" horiz-adv-x="682" 
 />
    <glyph glyph-name="space" unicode=" " horiz-adv-x="604" 
 />
    <glyph glyph-name="exclam" unicode="!" horiz-adv-x="626" 
d="M313 -25q-24 0 -40.5 17t-16.5 41t16.5 40.5t40.5 16.5q25 0 41.5 -17t16.5 -40q0 -24 -17 -41t-41 -17zM342 1409l-4 -1026q0 -25 -23 -25h-4q-22 0 -22 25l-4 1026q0 25 22 25h12q10 0 16.5 -7t6.5 -18z" />
    <glyph glyph-name="quotedbl" unicode="&#x22;" horiz-adv-x="614" 
d="M213 1096h-16q-13 0 -13 12l-10 313q0 13 12 13h37q13 0 13 -13l-11 -313q0 -12 -12 -12zM418 1096h-17q-12 0 -12 12l-10 313q0 13 12 13h37q12 0 12 -13l-10 -313q0 -12 -12 -12z" />
    <glyph glyph-name="numbersign" unicode="#" horiz-adv-x="1626" 
d="M1286 1049h193q22 0 16 -19l-4 -10q-5 -16 -27 -16h-196l-248 -574h203q22 0 16 -18l-4 -11q-5 -16 -27 -16h-207l-157 -367q-9 -18 -27 -18h-8q-14 0 -14 12q0 7 2 11l155 362h-563l-158 -367q-9 -18 -26 -18h-8q-6 0 -10.5 3.5t-4.5 8.5q0 7 2 11l156 362h-193
q-22 0 -16 18l4 11q5 16 27 16h196l248 574h-227q-23 0 -17 18l5 10q6 17 26 17h232l157 366q10 19 27 19h8q14 0 14 -13q0 -6 -2 -10l-155 -362h563l158 366q9 19 26 19h9q14 0 14 -13q0 -6 -2 -10zM971 430l248 574h-564l-247 -574h563z" />
    <glyph glyph-name="dollar" unicode="$" 
d="M682 -23v-157q0 -25 -23 -25h-4q-22 0 -22 25v155q-145 6 -258 70q-110 64 -168 178q-12 24 -12 33q0 12 12 14l8 2q19 5 29 -12q39 -65 71.5 -103t83.5 -69q101 -62 248 -65q182 0 296 86.5t114 242.5q0 106 -69 180t-234 148l-244 104q-260 113 -260 353q6 177 156 262
q89 52 227 59v156q0 24 22 24h4q23 0 23 -24v-156q209 -16 340 -145q16 -16 16 -27q0 -7 -8 -12l-6 -4q-8 -4 -12 -4q-5 0 -21 12q-78 68 -151 100q-85 35 -193 35q-155 0 -250.5 -78t-95.5 -198q0 -211 244 -316l250 -106q166 -73 240.5 -157.5t74.5 -205.5
q-6 -212 -174 -309q-102 -59 -254 -66z" />
    <glyph glyph-name="percent" unicode="%" horiz-adv-x="2048" 
d="M1479 678q156 0 260 -99t104 -247t-104 -247t-260 -99q-157 0 -261 99t-104 247t104 247t261 99zM1479 27q143 0 230 86t87 219t-87 219t-230 86t-231.5 -86.5t-88.5 -218.5t88.5 -218.5t231.5 -86.5zM569 1448q157 0 261 -99t104 -247t-104 -247t-261 -99
q-156 0 -260 99t-104 247t104 247t260 99zM569 797q143 0 230.5 86.5t87.5 218.5t-87.5 218.5t-230.5 86.5t-231 -86.5t-88 -218.5t88 -218.5t231 -86.5zM1452 1417l-803 -1405q-6 -12 -24 -12h-15q-12 0 -12 10q0 4 2 6l805 1405q7 13 22 13h17q10 0 10 -9q0 -6 -2 -8z" />
    <glyph glyph-name="ampersand" unicode="&#x26;" horiz-adv-x="1361" 
d="M1192 0h-14q-22 0 -37 18l-88 97q-65 -59 -148 -95q-105 -42 -239 -45q-156 0 -283 66.5t-198.5 182t-71.5 257.5q6 168 98 281q64 76 156 127q-64 108 -70 237q0 153 98.5 242.5t261.5 89.5q95 0 180.5 -40t143.5 -113q14 -19 14 -27q0 -9 -10 -14l-6 -4q-6 -3 -8 -3
q-8 0 -23 15q-63 70 -125 104q-75 37 -166 37q-139 0 -224 -78.5t-85 -208.5q0 -60 12 -108t44 -99t61.5 -87t91.5 -105l496 -545q110 118 116 299q0 138 -88 260q-8 16 -8 21q0 6 6 12l11 6q8 4 10 4q6 0 22 -16q47 -60 73 -136t24 -151q-3 -106 -37 -188t-97 -148
l115 -125q4 -8 4 -10q0 -10 -12 -10zM1020 150l-512 561q-75 83 -117 141q-82 -45 -137 -111q-84 -104 -90 -260q0 -195 143.5 -328t358.5 -133q220 7 354 130z" />
    <glyph glyph-name="quotesingle" unicode="'" horiz-adv-x="409" 
d="M213 1096h-16q-13 0 -13 12l-10 313q0 13 12 13h37q13 0 13 -13l-11 -313q0 -12 -12 -12z" />
    <glyph glyph-name="parenleft" unicode="(" horiz-adv-x="583" 
d="M403 1673l11 -6q8 -5 8 -14q0 -13 -12 -29q-4 -7 -12.5 -22.5t-12.5 -22.5q-49 -92 -84 -186q-117 -317 -117 -676q0 -354 119 -674q28 -76 105 -227q14 -28 14 -35q0 -9 -8 -14l-11 -7q-4 -2 -10 -2q-17 0 -31 33q-73 127 -122 279q-107 319 -107 647q0 260 74 534
q59 224 153 385q20 39 37 39q4 0 6 -2z" />
    <glyph glyph-name="parenright" unicode=")" horiz-adv-x="583" 
d="M170 1667l10 6q2 2 8 2q16 0 35 -39q96 -164 154 -385q74 -274 74 -534q0 -328 -107 -647q-48 -148 -123 -279q-14 -33 -31 -33q-6 0 -10 2l-10 7q-8 5 -8 14q0 7 14 35q77 151 105 227q118 317 118 674q0 361 -116 676q-35 94 -84 186q-4 7 -12.5 22.5t-12.5 22.5
q-12 16 -12 29q0 9 8 14z" />
    <glyph glyph-name="asterisk" unicode="*" horiz-adv-x="839" 
d="M254 981l135 182l-213 78q-8 3 -8 8q0 6 2 8l8 21q4 8 10 8q5 0 7 -2l204 -82l-4 219q0 13 13 13h24q12 0 12 -13l-4 -219l207 82q12 4 15 -6l10 -21q2 -2 2 -6q0 -7 -10 -10l-213 -76l135 -184q4 -4 4 -8q0 -5 -6 -8l-21 -15q-2 -2 -6 -2q-7 0 -10 6l-127 187l-125 -187
q-3 -6 -10 -6t-9 2l-20 15q-6 3 -6 8q0 4 4 8z" />
    <glyph glyph-name="plus" unicode="+" 
d="M641 279v385h-387q-23 0 -23 20v4q0 21 23 21h387v385q0 22 21 22h8q20 0 20 -22v-385h387q23 0 23 -21v-4q0 -20 -23 -20h-387v-385q0 -23 -20 -23h-8q-21 0 -21 23z" />
    <glyph glyph-name="comma" unicode="," horiz-adv-x="450" 
d="M178 -197l-6 7q-4 4 -4 8q0 8 12 20q38 45 49 137q-24 0 -40.5 17t-16.5 41t16.5 40.5t40.5 16.5q25 0 41.5 -17t16.5 -40q0 -61 -22.5 -121.5t-63.5 -104.5q-8 -8 -13 -8q-2 0 -10 4z" />
    <glyph glyph-name="hyphen" unicode="-" horiz-adv-x="665" 
d="M172 535h322q18 0 18 -17v-12q0 -17 -18 -17h-322q-18 0 -18 17v12q0 17 18 17z" />
    <glyph glyph-name="period" unicode="." horiz-adv-x="442" 
d="M221 90q25 0 41.5 -17t16.5 -40q0 -24 -17 -41t-41 -17t-40.5 17t-16.5 41t16.5 40.5t40.5 16.5z" />
    <glyph glyph-name="slash" unicode="/" horiz-adv-x="1116" 
d="M1014 1417l-803 -1405q-6 -12 -25 -12h-14q-12 0 -12 10q0 4 2 6l805 1405q7 13 22 13h17q10 0 10 -9q0 -6 -2 -8z" />
    <glyph glyph-name="zero" unicode="0" 
d="M666 1458q238 0 375 -198t137 -543t-137 -543.5t-375 -198.5t-375 198.5t-137 543.5t137 543t375 198zM666 1411q-146 0 -250.5 -88.5t-156.5 -244t-52 -361.5t52 -361.5t156.5 -244t250.5 -88.5q145 0 249.5 88.5t156.5 243.5t52 362t-52 362t-156.5 243.5t-249.5 88.5z
" />
    <glyph glyph-name="one" unicode="1" 
d="M432 1284l246 129q42 21 63 21h4q23 0 23 -25v-1362h283q24 0 24 -20v-4q0 -23 -24 -23h-689q-24 0 -24 20v7q0 20 24 20h355v1333l-264 -137q-8 -4 -15 -4q-9 0 -14 8l-4 6q-4 8 -4 11q0 14 16 20z" />
    <glyph glyph-name="two" unicode="2" 
d="M287 47h784q25 0 25 -20v-7q0 -20 -25 -20h-821q-25 0 -25 23v4q0 16 19 43l555 647q51 60 69 81.5t50.5 65.5t43.5 71t21 67t10 83q0 147 -97 237.5t-257 90.5q-103 0 -193 -37q-79 -38 -151 -106q-15 -15 -23 -15l-10 5l-6 4q-10 7 -10 12q0 8 16 29q70 75 170 114
t207 39q184 0 294.5 -102t110.5 -271q0 -32 -5.5 -64t-12 -56t-22.5 -54t-25 -46.5t-32 -46.5t-31.5 -40t-35.5 -41t-32 -37z" />
    <glyph glyph-name="three" unicode="3" 
d="M639 752h-68q-24 0 -24 22v4q0 21 24 21h68q156 0 254 85t98 222q0 131 -99 218t-253 87q-102 0 -186 -37q-29 -13 -76 -43q-25 -18 -74 -63l-6 -6q-9 -9 -14 -9t-13 4l-6 5q-8 5 -8 12q0 11 18 29q68 74 165 113.5t200 39.5q174 0 286.5 -98.5t112.5 -251.5
q0 -116 -62 -200t-183 -128q128 -35 217.5 -143.5t89.5 -249.5q0 -183 -130 -296.5t-331 -113.5q-176 0 -311 99q-76 55 -111 116q-10 15 -10 23q0 10 14 16l6 2q2 2 9 2q11 0 18 -10q41 -55 74 -86q129 -114 311 -114q178 0 293 101t115 261q0 155 -116 261t-292 106z" />
    <glyph glyph-name="four" unicode="4" 
d="M915 385h191q24 0 24 -20v-7q0 -20 -24 -20h-191v-313q0 -25 -22 -25h-6q-23 0 -23 25v313h-682q-24 0 -24 22v2q0 27 20 54l641 1022q7 14 19 14q2 0 10 -4l12 -8q8 -5 8 -15q0 -7 -6 -16l-649 -1024h651v391q0 25 23 25h6q22 0 22 -25v-391z" />
    <glyph glyph-name="five" unicode="5" 
d="M248 256l10 4q4 2 8 2q8 0 15 -10q2 -3 6 -9.5t6 -9.5q38 -59 65 -86q127 -124 308 -124q174 0 290.5 120t116.5 297q0 173 -116.5 291.5t-290.5 118.5q-177 0 -318 -107q-13 -10 -20 -10q-5 0 -9 2l-12 4q-19 6 -16 29l104 643q3 23 27 23h577q25 0 25 -21v-4
q0 -23 -25 -23h-557l-96 -589q133 98 320 98q199 0 329.5 -129.5t130.5 -325.5q0 -200 -130.5 -332.5t-329.5 -132.5q-174 0 -308 109q-67 52 -114 129q-11 18 -11 29q0 8 15 14z" />
    <glyph glyph-name="six" unicode="6" 
d="M281 696l493 742q12 12 19 12q2 0 10 -4l8 -6q8 -5 8 -15q0 -7 -6 -16l-381 -569q96 58 244 65q205 0 343 -133t138 -332q0 -131 -63 -237.5t-172 -167t-240 -60.5q-201 0 -339 133.5t-138 331.5q7 151 76 256zM682 23q178 0 301 120.5t123 296.5q0 177 -124 298.5
t-304 121.5q-181 0 -301.5 -121t-120.5 -299q0 -176 124 -296.5t302 -120.5z" />
    <glyph glyph-name="seven" unicode="7" 
d="M1044 1386h-800q-25 0 -25 23v4q0 10 7.5 15.5t17.5 5.5h831q10 0 17.5 -5.5t7.5 -15.5v-2q0 -20 -21 -68l-645 -1347q-7 -14 -18 -14q-6 0 -10 2l-5 2q-12 6 -12 18q0 6 4 14z" />
    <glyph glyph-name="eight" unicode="8" 
d="M512 778q-110 44 -167.5 128t-57.5 200q0 153 107 252.5t272 99.5q164 0 271 -99t107 -253q0 -116 -57.5 -200t-167.5 -128q128 -35 217.5 -143.5t89.5 -249.5q0 -183 -129.5 -296.5t-330.5 -113.5t-331 113.5t-130 296.5q0 141 89.5 249.5t217.5 143.5zM666 752
q-176 0 -292 -106t-116 -261q0 -160 115 -261t293 -101t292.5 101t114.5 261q0 155 -116 261t-291 106zM666 1413q-145 0 -238.5 -87.5t-93.5 -219.5q0 -137 92.5 -222t239.5 -85t239 85t92 222q0 132 -93 219.5t-238 87.5z" />
    <glyph glyph-name="nine" unicode="9" 
d="M1051 725l-494 -729q-11 -14 -16 -14q-3 0 -11 4l-10 8q-6 6 -6 12q0 10 6 19l379 559q-104 -61 -246 -68q-204 0 -344.5 136t-140.5 335t139.5 335t339.5 136q201 0 342 -136.5t141 -334.5q-6 -146 -79 -262zM647 1411q-177 0 -302.5 -123.5t-125.5 -300.5t126 -301.5
t306 -124.5q181 0 304.5 124t123.5 302q0 176 -127 300t-305 124z" />
    <glyph glyph-name="colon" unicode=":" horiz-adv-x="544" 
d="M272 90q24 0 41 -17t17 -40q0 -24 -17 -41t-41 -17t-40.5 17t-16.5 41t16.5 40.5t40.5 16.5zM272 1049q24 0 41 -17t17 -41q0 -23 -17 -40t-41 -17t-40.5 16.5t-16.5 40.5t16.5 41t40.5 17z" />
    <glyph glyph-name="semicolon" unicode=";" horiz-adv-x="450" 
d="M229 1049q24 0 41 -17t17 -41q0 -23 -16.5 -40t-41.5 -17q-24 0 -40.5 16.5t-16.5 40.5t16.5 41t40.5 17zM178 -197l-6 7q-4 4 -4 8q0 8 12 20q38 45 49 137q-24 0 -40.5 17t-16.5 41t16.5 40.5t40.5 16.5q25 0 41.5 -17t16.5 -40q0 -61 -22.5 -121.5t-63.5 -104.5
q-8 -8 -13 -8q-2 0 -10 4z" />
    <glyph glyph-name="less" unicode="&#x3c;" 
d="M260 725l758 352q2 2 6 2q10 0 10 -12v-18q0 -15 -14 -21l-737 -342l737 -342q14 -6 14 -20v-19q0 -12 -10 -12q-4 0 -6 2l-758 352q-14 6 -14 21v37q0 14 14 20z" />
    <glyph glyph-name="equal" unicode="=" 
d="M258 494h815q23 0 23 -21v-4q0 -20 -23 -20h-815q-22 0 -22 20v4q0 21 22 21zM258 924h815q23 0 23 -21v-4q0 -20 -23 -20h-815q-22 0 -22 20v4q0 21 22 21z" />
    <glyph glyph-name="greater" unicode="&#x3e;" 
d="M313 1077l758 -352q14 -6 14 -20v-37q0 -15 -14 -21l-758 -352q-2 -2 -6 -2q-10 0 -10 12v19q0 14 14 20l738 342l-738 342q-14 6 -14 21v18q0 12 10 12q4 0 6 -2z" />
    <glyph glyph-name="question" unicode="?" horiz-adv-x="1044" 
d="M422 90q24 0 40.5 -16.5t16.5 -40.5t-16.5 -41t-40.5 -17t-40.5 17t-16.5 41t16.5 40.5t40.5 16.5zM127 1260l-8 6q-8 5 -8 14q0 4 16 25q67 74 165 113.5t204 39.5q184 0 294.5 -102t110.5 -271q0 -203 -174 -313l-133 -82q-67 -41 -95 -69.5t-40.5 -75t-12.5 -135.5
v-27q0 -25 -22 -25h-6q-21 0 -21 25v27q0 130 33 192t135 125l142 88q72 44 107.5 108.5t35.5 161.5q0 147 -97 237.5t-257 90.5q-102 0 -189 -37q-78 -37 -147 -106q-2 -2 -7 -6.5t-8.5 -6.5t-7.5 -2z" />
    <glyph glyph-name="at" unicode="@" horiz-adv-x="1904" 
d="M1268 879h6q20 0 20 -23v-475q0 -224 174 -229q215 0 215 360q0 155 -53 288t-147.5 228t-231.5 149t-299 54q-208 0 -375.5 -92.5t-261.5 -257t-94 -369.5t94 -368t261 -254t376 -91q132 0 234 31q85 25 188 86q13 10 23 10q9 0 14 -8l4 -4q6 -6 6 -10q0 -12 -22 -25
q-201 -123 -447 -123q-223 0 -400.5 96t-277.5 269t-100 391t100 392.5t277.5 272t400.5 97.5q172 0 318 -57t247 -158t157.5 -242t56.5 -305q0 -194 -67 -298.5t-196 -104.5q-104 3 -159 64t-60 159q-64 -120 -144.5 -171.5t-199.5 -51.5q-163 0 -270 115t-107 288t107 287
t270 114q119 0 199.5 -51.5t144.5 -171.5l-2 166q0 23 21 23zM905 152q146 0 244 103.5t98 256.5q0 152 -98 255t-244 103q-139 0 -234.5 -103t-95.5 -255t96 -256t234 -104z" />
    <glyph glyph-name="A" unicode="A" horiz-adv-x="1400" 
d="M688 1434h25q19 0 28 -21l588 -1388q2 -2 2 -9q0 -6 -5.5 -11t-12.5 -5h-8q-20 0 -29 20l-158 375h-835l-158 -375q-9 -20 -27 -20h-10q-18 0 -18 14q0 4 8 25l581 1374q9 21 29 21zM1098 442l-398 944l-397 -944h795z" />
    <glyph glyph-name="B" unicode="B" 
d="M240 1434h395q84 0 151.5 -9.5t128.5 -34.5t102 -64.5t65 -103t24 -147.5q0 -127 -62.5 -211.5t-173.5 -124.5q150 -36 229 -127.5t79 -236.5q0 -101 -35.5 -175t-101 -116.5t-148.5 -63t-186 -20.5h-467q-25 0 -25 25v1384q0 25 25 25zM266 758h400q63 0 117.5 9
t105.5 32t87 58t57.5 91t21.5 127q0 311 -400 311h-389v-628zM266 47h461q79 0 147.5 17.5t126 54t90.5 102t33 154.5q0 75 -24 133t-65 95.5t-99.5 61.5t-122 34t-137.5 10h-410v-662z" />
    <glyph glyph-name="C" unicode="C" horiz-adv-x="1566" 
d="M1419 274l6 -4q9 -6 9 -16q0 -9 -21 -35q-102 -119 -251 -181.5t-312 -62.5q-212 0 -381 97.5t-262.5 267t-93.5 377.5t93.5 377t262.5 266.5t381 97.5q163 0 312 -62.5t251 -181.5q2 -2 9 -9.5t10.5 -13.5t3.5 -11q0 -9 -9 -15l-8 -6q-6 -6 -14 -6q-10 0 -27 21
q-59 66 -112 104q-183 133 -416 133q-196 0 -353 -92t-244 -250.5t-87 -351.5t87 -351.5t244 -250.5t353 -92q233 0 416 133q49 35 114 104q19 19 27 19q2 0 12 -5z" />
    <glyph glyph-name="D" unicode="D" horiz-adv-x="1576" 
d="M240 1434h456q171 0 311 -52t236 -145.5t148.5 -226.5t52.5 -293t-52.5 -293t-148.5 -226.5t-236 -145.5t-311 -52h-456q-25 0 -25 25v1384q0 25 25 25zM266 1386v-1339h441q313 0 498.5 184.5t185.5 485.5t-185.5 485t-498.5 184h-441z" />
    <glyph glyph-name="E" unicode="E" horiz-adv-x="1157" 
d="M1034 1413v-4q0 -23 -24 -23h-744v-651h590q25 0 25 -20v-4q0 -23 -25 -23h-590v-641h764q25 0 25 -20v-4q0 -23 -25 -23h-790q-25 0 -25 25v1384q0 25 25 25h770q24 0 24 -21z" />
    <glyph glyph-name="F" unicode="F" horiz-adv-x="1136" 
d="M266 1386v-651h600q25 0 25 -20v-4q0 -23 -25 -23h-600v-663q0 -25 -22 -25h-4q-25 0 -25 25v1384q0 25 25 25h811q24 0 24 -21v-4q0 -23 -24 -23h-785z" />
    <glyph glyph-name="G" unicode="G" horiz-adv-x="1566" 
d="M1352 219v469h-478q-24 0 -24 23v4q0 20 24 20h504q25 0 25 -24v-478q0 -29 -27 -59q-94 -97 -243 -148t-304 -51q-157 0 -291 57t-227 156t-145.5 236t-52.5 293t52.5 292.5t145.5 235.5t227 156t291 57q149 0 289.5 -50.5t243.5 -147.5q20 -20 20 -29t-8 -17l-6 -6
q-6 -6 -14 -6q-10 0 -25 15q-57 54 -110 86q-175 108 -390 108q-192 0 -344.5 -92t-235.5 -250.5t-83 -351.5q0 -194 83 -352t235.5 -250.5t344.5 -91.5q152 0 287.5 49t235.5 147z" />
    <glyph glyph-name="H" unicode="H" horiz-adv-x="1505" 
d="M238 1434h6q22 0 22 -25v-664h973v664q0 25 23 25h6q22 0 22 -25v-1384q0 -25 -22 -25h-6q-23 0 -23 25v673h-973v-673q0 -25 -22 -25h-6q-23 0 -23 25v1384q0 25 23 25z" />
    <glyph glyph-name="I" unicode="I" horiz-adv-x="481" 
d="M266 1409v-1384q0 -25 -22 -25h-6q-23 0 -23 25v1384q0 25 23 25h6q22 0 22 -25z" />
    <glyph glyph-name="J" unicode="J" horiz-adv-x="1085" 
d="M66 213l6 6q6 6 10 6q7 0 27 -20q26 -29 40 -44t38 -36t53 -39q100 -63 229 -63q177 0 268.5 85t91.5 281v1020q0 11 6.5 18t16.5 7h6q23 0 23 -25v-1030q0 -404 -412 -404q-102 0 -190 37q-112 47 -203 158q-2 3 -7 9.5t-7.5 11t-2.5 8.5q0 7 7 14z" />
    <glyph glyph-name="K" unicode="K" horiz-adv-x="1290" 
d="M1126 1434h15q12 0 12 -11q0 -2 -4 -10l-563 -620l606 -773q2 -2 2 -8q0 -12 -12 -12h-15q-19 0 -34 18l-578 740l-289 -318v-415q0 -25 -22 -25h-6q-23 0 -23 25v1384q0 25 23 25h6q22 0 22 -25v-905l824 911q16 19 36 19z" />
    <glyph glyph-name="L" unicode="L" horiz-adv-x="1075" 
d="M266 47h692q25 0 25 -20v-4q0 -23 -25 -23h-718q-25 0 -25 25v1384q0 25 23 25h6q22 0 22 -25v-1362z" />
    <glyph glyph-name="M" unicode="M" horiz-adv-x="1792" 
d="M1554 0h-6q-22 0 -22 25v1361l-588 -1024q-9 -18 -31 -18h-20q-22 0 -31 18l-590 1024v-1361q0 -25 -22 -25h-6q-23 0 -23 25v1384q0 25 25 25h34q22 0 33 -19l590 -1024l588 1024q11 19 33 19h34q25 0 25 -25v-1384q0 -25 -23 -25z" />
    <glyph glyph-name="N" unicode="N" horiz-adv-x="1505" 
d="M1266 0h-31q-24 0 -35 18l-934 1368v-1361q0 -25 -22 -25h-6q-23 0 -23 25v1384q0 25 25 25h30q24 0 35 -19l934 -1368v1362q0 25 23 25h6q22 0 22 -25v-1384q0 -25 -24 -25z" />
    <glyph glyph-name="O" unicode="O" horiz-adv-x="1720" 
d="M860 1458q160 0 299.5 -57t237.5 -155.5t154.5 -235.5t56.5 -293t-56.5 -293t-154.5 -236t-237.5 -156t-299.5 -57q-212 0 -383.5 97.5t-267.5 267t-96 377.5q0 155 56.5 292.5t154.5 236t237.5 155.5t298.5 57zM860 23q196 0 355.5 92t249 251t89.5 351t-89.5 351
t-249 251t-355.5 92t-355.5 -92t-249 -251t-89.5 -351t89.5 -351t249 -251t355.5 -92z" />
    <glyph glyph-name="P" unicode="P" horiz-adv-x="1228" 
d="M240 1434h385q83 0 154.5 -14t136.5 -46.5t110.5 -82t72.5 -125t27 -171.5t-27 -172t-72.5 -127t-110 -84.5t-137 -48t-154.5 -14.5h-359v-524q0 -25 -22 -25h-6q-23 0 -23 25v1384q0 25 25 25zM266 596h379q69 0 131 13.5t117.5 44.5t95 76.5t63 113t23.5 151.5
q0 104 -35 181.5t-96.5 122t-136 66t-162.5 21.5h-379v-790z" />
    <glyph glyph-name="Q" unicode="Q" horiz-adv-x="1720" 
d="M860 1458q160 0 299.5 -57t237.5 -155.5t154.5 -235.5t56.5 -293t-56.5 -293t-154.5 -236t-237.5 -156t-299.5 -57q-212 0 -383.5 97.5t-267.5 267t-96 377.5q0 155 56.5 292.5t154.5 236t237.5 155.5t298.5 57zM1427 -102l7 2q3 0 6 12l-2 2q-184 105 -276.5 209.5
t-92.5 200.5q0 8 -41 8l-6 -2q-3 0 -6 -13l2 -2q184 -105 276 -209t92 -200q0 -8 41 -8zM860 23q196 0 355.5 92t249 251t89.5 351t-89.5 351t-249 251t-355.5 92t-355.5 -92t-249 -251t-89.5 -351t89.5 -351t249 -251t355.5 -92z" />
    <glyph glyph-name="R" unicode="R" horiz-adv-x="1300" 
d="M1141 0h-13q-21 0 -30 18l-330 590q-46 -6 -92 -6q-10 -2 -31 -2h-379v-575q0 -25 -22 -25h-6q-23 0 -23 25v1384q0 25 25 25h405q104 0 191.5 -22t158.5 -69t111.5 -129.5t40.5 -193.5q0 -163 -87.5 -264t-240.5 -138l336 -595q2 -2 2 -9q0 -14 -16 -14zM266 647h400
q69 0 131 13t117.5 42t95.5 71.5t63 105.5t23 141q0 96 -35 168.5t-96 114.5t-136 62.5t-163 20.5h-400v-739z" />
    <glyph glyph-name="S" unicode="S" horiz-adv-x="1116" 
d="M924 1274l-6 -4q-8 -4 -13 -4q-4 0 -20 12q-77 67 -152 100q-85 35 -192 35q-155 0 -250.5 -78t-95.5 -198q0 -105 58.5 -183.5t184.5 -132.5l250 -106q166 -73 241 -157.5t75 -205.5q0 -178 -128.5 -277.5t-334.5 -99.5q-157 3 -273 70q-110 64 -168 178q-12 24 -12 33
q0 11 12 14l9 2q18 5 28 -12q39 -64 72 -102.5t84 -69.5q101 -62 248 -65q182 0 295.5 86.5t113.5 242.5q0 106 -69 180t-234 148l-244 104q-260 113 -260 353q0 142 109.5 231.5t288.5 89.5q113 0 211 -39q101 -41 163 -106q17 -17 17 -27q0 -7 -8 -12z" />
    <glyph glyph-name="T" unicode="T" horiz-adv-x="1177" 
d="M1126 1413v-4q0 -23 -24 -23h-488v-1361q0 -25 -22 -25h-6q-23 0 -23 25v1361h-487q-25 0 -25 23v4q0 10 7.5 15.5t17.5 5.5h1026q24 0 24 -21z" />
    <glyph glyph-name="U" unicode="U" horiz-adv-x="1515" 
d="M217 1434h6q23 0 23 -25v-887q0 -224 131.5 -361.5t380.5 -137.5t380.5 137.5t131.5 361.5v887q0 25 22 25h6q23 0 23 -25v-897q0 -116 -37 -213.5t-107 -170t-177.5 -113t-241.5 -40.5t-241.5 40.5t-177.5 113t-107 170t-37 213.5v897q0 25 22 25z" />
    <glyph glyph-name="V" unicode="V" horiz-adv-x="1392" 
d="M86 1434h12q20 0 29 -21l569 -1366l572 1366q9 21 28 21h11q16 0 16 -15q0 -6 -2 -10l-582 -1389q-9 -20 -30 -20h-23q-22 0 -31 20l-577 1375q-8 19 -8 26q0 5 5 9t11 4z" />
    <glyph glyph-name="W" unicode="W" horiz-adv-x="2041" 
d="M616 0h-22q-20 0 -29 20l-489 1373q-8 21 -8 26t4.5 10t11.5 5h12q21 0 27 -21l483 -1366l383 1366q7 21 27 21h10q20 0 27 -21l383 -1366l481 1366q9 21 29 21h10q10 0 14.5 -8t1.5 -17l-497 -1389q-6 -20 -29 -20h-23q-20 0 -26 20l-375 1326l-377 -1326
q-6 -20 -29 -20z" />
    <glyph glyph-name="X" unicode="X" horiz-adv-x="1218" 
d="M639 737l512 -714q4 -8 4 -11q0 -12 -14 -12h-13q-19 0 -34 18l-484 682l-487 -682q-12 -18 -33 -18h-12q-15 0 -15 12q0 1 5 11l512 714l-484 674q-2 4 -2 10q0 13 15 13h12q20 0 33 -19l454 -639l455 639q16 19 35 19h12q14 0 14 -13q0 -2 -4 -10z" />
    <glyph glyph-name="Y" unicode="Y" horiz-adv-x="1275" 
d="M1192 1411l-528 -881v-505q0 -25 -23 -25h-6q-23 0 -23 25v505l-526 881q-2 4 -2 10q0 13 14 13h13q17 0 30 -19l498 -837l498 837q13 19 30 19h13q14 0 14 -13q0 -6 -2 -10z" />
    <glyph glyph-name="Z" unicode="Z" horiz-adv-x="1157" 
d="M1055 1413v-6q0 -19 -19 -49l-905 -1311h950q25 0 25 -20v-4q0 -23 -25 -23h-985q-24 0 -24 20v7q0 20 18 49l905 1310h-868q-25 0 -25 23v4q0 10 7.5 15.5t17.5 5.5h903q10 0 17.5 -5.5t7.5 -15.5z" />
    <glyph glyph-name="bracketleft" unicode="[" horiz-adv-x="624" 
d="M193 1638h219q18 0 18 -16v-10q0 -17 -18 -17h-189v-1757h189q18 0 18 -16v-10q0 -17 -18 -17h-219q-19 0 -19 19v1806q0 18 19 18z" />
    <glyph glyph-name="backslash" unicode="\" horiz-adv-x="276" 
d="M516 12l-805 1405q-2 2 -2 6q0 11 12 11h15q18 0 24 -13l803 -1405q2 -2 2 -8q0 -8 -10 -8h-16q-17 0 -23 12z" />
    <glyph glyph-name="bracketright" unicode="]" horiz-adv-x="624" 
d="M213 1638h219q19 0 19 -18v-1806q0 -19 -19 -19h-219q-18 0 -18 17v10q0 16 18 16h188v1757h-188q-18 0 -18 17v10q0 16 18 16z" />
    <glyph glyph-name="asciicircum" unicode="^" 
d="M649 1366h31q16 0 25 -12l370 -588q4 -2 4 -8q0 -8 -14 -8h-18q-14 0 -23 12l-358 561l-361 -561q-9 -12 -24 -12h-17q-10 0 -10 8q0 4 2 8l371 588q9 12 22 12z" />
    <glyph glyph-name="underscore" unicode="_" 
d="M207 -184h917q23 0 23 -21v-4q0 -20 -23 -20h-917q-23 0 -23 20v4q0 21 23 21z" />
    <glyph glyph-name="grave" unicode="`" horiz-adv-x="1024" 
d="M727 1217l-4 -5q-8 -4 -10 -4q-3 0 -11 4l-258 189q-8 5 -8 12q0 6 6 12l17 21q3 6 10 6q5 0 14 -6l240 -207q6 -6 6 -14q0 -6 -2 -8z" />
    <glyph glyph-name="a" unicode="a" horiz-adv-x="1177" 
d="M983 0h-8q-21 0 -21 23v161q-120 -209 -401 -209q-172 0 -285.5 92.5t-113.5 243.5t119 242.5t300 91.5q116 0 191 -11t190 -40l-2 61q0 158 -90.5 253.5t-257.5 95.5q-200 0 -346 -109q-12 -8 -20 -8q-7 0 -13 6l-6 6q-6 6 -6 12q0 5 18 23q71 56 170.5 85.5t202.5 29.5
q185 0 292.5 -106t107.5 -277v-643q0 -23 -21 -23zM954 358v189q-100 31 -181 42t-200 11q-158 0 -263 -80t-105 -209t99.5 -210t248.5 -81q175 0 288 90.5t113 247.5z" />
    <glyph glyph-name="b" unicode="b" horiz-adv-x="1316" 
d="M223 0h-8q-20 0 -20 23v1478q0 19 12 23l18 6q10 3 14.5 -2t4.5 -17v-759q65 140 185 218.5t273 78.5q222 0 367 -153t145 -384t-145 -384t-367 -153q-153 0 -273 78.5t-185 218.5v-249q0 -23 -21 -23zM702 20q198 0 329.5 142t131.5 350t-131.5 350t-329.5 142
q-130 0 -235 -65t-163 -177.5t-58 -249.5t58 -249.5t163 -177.5t235 -65z" />
    <glyph glyph-name="c" unicode="c" horiz-adv-x="1153" 
d="M1036 193l8 -7q9 -6 9 -14q0 -5 -15 -25q-73 -84 -181 -128t-224 -44q-228 0 -379.5 153t-151.5 384t151.5 384t379.5 153q233 0 403 -170q17 -17 17 -29q0 -6 -9 -12l-8 -7q-8 -4 -12 -4q-7 0 -14 7q-3 3 -9.5 9t-9.5 9q-44 44 -65 59q-131 93 -293 93
q-206 0 -342.5 -142t-136.5 -350t136.5 -350t342.5 -142q117 0 223 50q82 42 148 114q13 13 20 13q4 0 12 -4z" />
    <glyph glyph-name="d" unicode="d" horiz-adv-x="1316" 
d="M1102 0h-8q-21 0 -21 23v249q-65 -140 -185.5 -218.5t-273.5 -78.5q-222 0 -367 153t-145 384t145 384t367 153q153 0 273.5 -78.5t185.5 -218.5v749q0 19 12 23l19 6q10 3 14 -1.5t4 -17.5v-1488q0 -23 -20 -23zM614 20q98 0 183.5 38.5t145 104t94 156.5t34.5 193
t-34.5 193t-94 156.5t-145 104t-183.5 38.5q-198 0 -329 -142t-131 -350t131 -350t329 -142z" />
    <glyph glyph-name="e" unicode="e" horiz-adv-x="1198" 
d="M1073 492h-919q13 -218 151 -347q131 -125 318 -125q166 0 297 93q21 15 65 59l19 18q7 7 14 7q4 0 12 -4l8 -7q9 -9 9 -16l-5 -10q-77 -89 -185 -137t-234 -48q-224 0 -372.5 153.5t-148.5 383.5t148.5 383.5t372.5 153.5q134 0 243.5 -71.5t169.5 -188.5t60 -254v-21
q0 -22 -23 -22zM154 535h893q-3 98 -36.5 188.5t-97.5 155.5q-125 125 -290 125q-193 0 -318 -125q-138 -129 -151 -344z" />
    <glyph glyph-name="f" unicode="f" horiz-adv-x="653" 
d="M51 999v5q0 20 23 20h162v205q0 149 79 240.5t215 91.5q102 0 175 -33q16 -8 16 -15q0 -4 -2 -6l-4 -8q-3 -12 -17 -12q-6 0 -8 2q-77 27 -160 27q-118 0 -181.5 -81t-63.5 -216v-195h315q23 0 23 -20v-5q0 -20 -23 -20h-315v-956q0 -23 -21 -23h-8q-20 0 -20 23v956
h-162q-23 0 -23 20z" />
    <glyph glyph-name="g" unicode="g" horiz-adv-x="1280" 
d="M170 -244l6 6q7 7 14 7q10 0 21 -11q77 -67 166 -104q105 -43 235 -43q209 0 316.5 99t107.5 270v321q-61 -132 -179.5 -206.5t-264.5 -74.5q-213 0 -351.5 146t-138.5 369t138.5 368.5t351.5 145.5q146 0 264.5 -74.5t179.5 -206.5v233q0 23 21 23h8q20 0 20 -23v-1032
q0 -191 -125 -297t-348 -106q-262 0 -430 149q-18 13 -18 27q0 8 6 14zM592 66q192 0 317 133t125 336t-125 336t-317 133q-190 0 -314 -133t-124 -336t124 -336t314 -133z" />
    <glyph glyph-name="h" unicode="h" horiz-adv-x="1218" 
d="M1044 614v-591q0 -23 -20 -23h-8q-21 0 -21 23v581q0 182 -93 291t-267 109q-184 0 -287.5 -115t-103.5 -285v-581q0 -23 -21 -23h-8q-20 0 -20 23v1480q0 19 12 23l18 6q10 3 14.5 -2t4.5 -17v-704q54 113 153.5 176.5t237.5 63.5q189 0 299 -120t110 -315z" />
    <glyph glyph-name="i" unicode="i" horiz-adv-x="442" 
d="M217 1024h8q21 0 21 -23v-978q0 -23 -21 -23h-8q-20 0 -20 23v978q0 23 20 23zM221 1458q22 0 37.5 -15.5t15.5 -37.5t-15.5 -37.5t-37.5 -15.5t-37.5 15.5t-15.5 37.5t15.5 37.5t37.5 15.5z" />
    <glyph glyph-name="j" unicode="j" horiz-adv-x="460" 
d="M240 1458q22 0 37.5 -15.5t15.5 -37.5t-15.5 -37.5t-37.5 -15.5t-38 15.5t-16 37.5t16 37.5t38 15.5zM236 1024h8q20 0 20 -23v-1107q0 -41 -2.5 -74t-11 -71.5t-23 -67.5t-40.5 -56t-62 -43q-25 -10 -33 -10q-13 0 -18 10l-4 8q-4 11 2 19q2 2 22 12q28 10 49 29
q44 41 58 102.5t14 141.5v1107q0 23 21 23z" />
    <glyph glyph-name="k" unicode="k" horiz-adv-x="1013" 
d="M891 1024h16q11 0 11 -10q0 -5 -3 -8l-413 -431l446 -557q2 -2 2 -8q0 -10 -12 -10h-16q-22 0 -33 16l-418 527l-227 -236v-284q0 -23 -21 -23h-8q-20 0 -20 23v1478q0 19 12 23l18 6q10 3 14.5 -2t4.5 -17v-1142l610 639q16 16 37 16z" />
    <glyph glyph-name="l" unicode="l" horiz-adv-x="438" 
d="M244 1513v-1490q0 -23 -21 -23h-8q-20 0 -20 23v1480q0 19 12 23l18 6q10 3 14.5 -2t4.5 -17z" />
    <glyph glyph-name="m" unicode="m" horiz-adv-x="1966" 
d="M1772 0h-9q-20 0 -20 23v581q0 181 -90.5 290.5t-255.5 109.5q-183 0 -280 -111.5t-97 -288.5v-581q0 -23 -21 -23h-8q-20 0 -20 23v581q0 184 -87.5 292t-260.5 108q-93 0 -167 -33.5t-119 -90t-69 -127t-24 -149.5v-581q0 -23 -21 -23h-8q-20 0 -20 23v978q0 23 20 23
h8q21 0 21 -23v-192q114 240 379 240q179 -7 280 -105q68 -71 98 -180q49 143 150 214t246 71q182 0 288.5 -120t106.5 -315v-591q0 -23 -20 -23z" />
    <glyph glyph-name="n" unicode="n" horiz-adv-x="1218" 
d="M1044 614v-591q0 -23 -20 -23h-8q-21 0 -21 23v581q0 182 -93 291t-267 109q-184 0 -287.5 -115t-103.5 -285v-581q0 -23 -21 -23h-8q-20 0 -20 23v978q0 23 20 23h8q21 0 21 -23v-192q54 113 153.5 176.5t237.5 63.5q189 0 299 -120t110 -315z" />
    <glyph glyph-name="o" unicode="o" horiz-adv-x="1286" 
d="M643 1049q153 0 277 -70t194 -192.5t70 -274.5t-70 -274.5t-194 -192.5t-277 -70t-277 70t-194 192.5t-70 274.5t70 274.5t194 192.5t277 70zM643 20q211 0 350.5 142t139.5 350t-139.5 350t-350.5 142q-139 0 -251.5 -65t-175 -177.5t-62.5 -249.5t62.5 -249.5
t175 -177.5t251.5 -65z" />
    <glyph glyph-name="p" unicode="p" horiz-adv-x="1316" 
d="M215 1024h8q21 0 21 -23v-249q65 140 185 218.5t273 78.5q222 0 367 -153t145 -384t-145 -384t-367 -153q-153 0 -273 78.5t-185 218.5v-659q0 -23 -21 -23h-8q-20 0 -20 23v1388q0 23 20 23zM702 20q198 0 329.5 142t131.5 350t-131.5 350t-329.5 142q-130 0 -235 -65
t-163 -177.5t-58 -249.5t58 -249.5t163 -177.5t235 -65z" />
    <glyph glyph-name="q" unicode="q" horiz-adv-x="1316" 
d="M1094 1024h8q20 0 20 -23v-1388q0 -23 -20 -23h-8q-21 0 -21 23v659q-65 -140 -185.5 -218.5t-273.5 -78.5q-222 0 -367 153t-145 384t145 384t367 153q153 0 273.5 -78.5t185.5 -218.5v249q0 23 21 23zM614 20q98 0 183.5 38.5t145 104t94 156.5t34.5 193t-34.5 193
t-94 156.5t-145 104t-183.5 38.5q-198 0 -329 -142t-131 -350t131 -350t329 -142z" />
    <glyph glyph-name="r" unicode="r" horiz-adv-x="653" 
d="M623 1024h22q30 0 27 -18l-2 -13q-2 -14 -45 -14q-100 0 -175 -29.5t-119 -82t-65.5 -118.5t-21.5 -145v-581q0 -23 -21 -23h-8q-20 0 -20 23v978q0 23 20 23h8q21 0 21 -23v-192q105 215 379 215z" />
    <glyph glyph-name="s" unicode="s" horiz-adv-x="890" 
d="M520 487l-178 70q-90 35 -144.5 98.5t-54.5 145.5q0 115 83 181.5t225 66.5q180 0 294 -136q5 -5 5 -10q0 -7 -11 -14l-6 -4q-8 -4 -10 -4q-9 0 -18 12q-107 113 -254 113q-120 0 -189 -56t-69 -149q0 -138 165 -201l185 -72q90 -35 139.5 -68t77.5 -84.5t28 -127.5
q0 -136 -89.5 -204.5t-247.5 -68.5q-147 0 -250 74q-49 37 -101 105q-10 15 -10 24q0 12 10 17l9 4q4 2 10 2t14 -8q3 -4 10.5 -14.5t10.5 -14.5q38 -48 61 -66q90 -78 236 -78q134 0 210 58t76 170q0 42 -11 76t-28 56.5t-47.5 43t-58.5 33.5t-72 30z" />
    <glyph glyph-name="t" unicode="t" horiz-adv-x="714" 
d="M285 1411v-387h315q23 0 23 -20v-5q0 -20 -23 -20h-315v-662q0 -134 56 -215.5t159 -81.5q82 0 159 27q4 2 11 2q9 0 12 -8l4 -8q2 -2 2 -8q0 -10 -14 -17q-81 -37 -174 -33q-123 4 -193.5 94t-70.5 238v672h-162q-23 0 -23 20v5q0 20 23 20h162v377q0 18 12 22l18 7
q10 3 14.5 -2t4.5 -17z" />
    <glyph glyph-name="u" unicode="u" horiz-adv-x="1198" 
d="M174 410v591q0 23 21 23h8q20 0 20 -23v-581q0 -182 90.5 -291t259.5 -109q121 0 209 56t130 145t42 199v581q0 23 21 23h8q21 0 21 -23v-978q0 -23 -21 -23h-8q-21 0 -21 23v192q-52 -113 -149 -176.5t-232 -63.5q-185 0 -292 120t-107 315z" />
    <glyph glyph-name="v" unicode="v" horiz-adv-x="1105" 
d="M1010 1024h12q16 0 16 -12q0 -3 -4 -11l-442 -983q-8 -18 -29 -18h-22q-19 0 -27 18l-442 983q-2 4 -2 11q0 12 14 12h12q18 0 27 -18l430 -959l430 959q9 18 27 18z" />
    <glyph glyph-name="w" unicode="w" horiz-adv-x="1525" 
d="M434 18l-364 983q-3 9 1 16t13 7h12q19 0 25 -18l350 -959l254 959q6 18 25 18h30q19 0 25 -18l250 -959l352 959q6 18 25 18h10q16 0 16 -14q0 -7 -2 -9l-364 -983q-5 -18 -25 -18h-23q-21 0 -24 18l-256 959l-256 -959q-6 -18 -25 -18h-22q-22 0 -27 18z" />
    <glyph glyph-name="x" unicode="x" horiz-adv-x="993" 
d="M92 0h-16q-13 0 -13 10q0 5 3 8l401 512l-371 476q-2 2 -2 8q0 10 12 10h15q20 0 33 -16l344 -441l344 441q11 16 32 16h13q14 0 14 -10q0 -4 -4 -8l-371 -476l402 -512q4 -4 4 -8q0 -10 -14 -10h-15q-22 0 -33 16l-372 478l-373 -478q-13 -16 -33 -16z" />
    <glyph glyph-name="y" unicode="y" horiz-adv-x="1097" 
d="M518 0l-446 1001q-2 4 -2 11q0 12 14 12h12q18 0 27 -18l426 -959l426 959q9 18 26 18h13q16 0 16 -12q0 -3 -4 -11l-563 -1261q-41 -94 -84 -134t-111 -40q-63 0 -114 26q-19 10 -19 21q0 6 2 10l4 6q6 9 13 9l10 -5q49 -24 104 -24q47 0 80 29t66 102l116 260h-12z" />
    <glyph glyph-name="z" unicode="z" horiz-adv-x="1075" 
d="M182 45h738q22 0 22 -20v-5q0 -20 -22 -20h-775q-22 0 -22 20v7q0 19 16 41l707 911h-670q-22 0 -22 20v5q0 20 22 20h703q22 0 22 -20v-7q0 -19 -16 -41z" />
    <glyph glyph-name="braceleft" unicode="{" horiz-adv-x="753" 
d="M215 711v12q0 21 29 29q27 8 45.5 30t23.5 45q11 36 11 123v27v313q0 138 16 223q8 38 30 63.5t56 38t66.5 17.5t76.5 6q21 0 21 -20v-2q0 -8 -5 -14.5t-14 -6.5q-83 -5 -96 -8q-69 -15 -88 -88q-14 -59 -14 -209v-319q0 -111 -19.5 -166.5t-81.5 -87.5
q62 -32 81.5 -87.5t19.5 -166.5v-320q0 -129 14 -211q6 -33 29.5 -55.5t56.5 -30.5q52 -10 96 -10q19 0 19 -18v-2q0 -9 -6.5 -15t-14.5 -6q-37 1 -59.5 3t-55 9.5t-56 23.5t-38.5 42q-8 14 -14 31.5t-9.5 40.5t-6 39t-3.5 45.5t-1 39.5v41.5v32.5v314v38t-1.5 37t-4.5 39
t-9.5 34t-15.5 34t-23.5 26t-33.5 21q-21 7 -21 25z" />
    <glyph glyph-name="bar" unicode="|" horiz-adv-x="1024" 
d="M514 -410h-6q-21 0 -21 23v1900q0 23 21 23h6q21 0 21 -23v-1900q0 -23 -21 -23z" />
    <glyph glyph-name="braceright" unicode="}" horiz-adv-x="753" 
d="M430 1290v-313v-27q0 -91 10 -123q5 -23 24 -45t46 -30q29 -8 29 -29v-12q0 -18 -21 -25q-19 -8 -33.5 -21t-23.5 -26t-15.5 -34t-9.5 -34t-4.5 -39t-1.5 -37v-38v-314v-25v-30.5t-0.5 -30.5t-1.5 -34t-2.5 -32.5t-4 -34t-6 -30t-9 -29.5t-11.5 -24q-15 -26 -38.5 -42
t-56 -23.5t-55 -9.5t-59.5 -3q-8 0 -14 6t-6 15v2q0 18 18 18q45 0 97 10q33 8 56.5 30.5t29.5 55.5q14 82 14 211v320q0 112 19 167t81 87q-62 32 -81 87t-19 167v319q0 150 -14 209q-19 73 -88 88q-12 3 -97 8q-18 0 -18 21v2q0 20 20 20q44 -1 77 -6t67 -17.5t56 -38
t30 -63.5q16 -85 16 -223z" />
    <glyph glyph-name="asciitilde" unicode="~" 
d="M238 1257l-2 3q-7 7 -7 12q0 8 9 22q31 50 63 82q62 66 154 66q60 0 149 -41l107 -49q111 -49 174 -49q73 0 125 45q20 16 61 73q9 13 12 13q7 0 11 -4l6 -7q4 -4 4 -8q0 -5 -8 -18q-45 -71 -96 -109.5t-123 -38.5q-34 0 -71.5 11t-119.5 47l-119 53q-71 29 -125 29
q-60 0 -98.5 -30t-81.5 -91q-10 -15 -16 -15q-4 0 -8 4z" />
    <glyph glyph-name="uni00A0" unicode="&#xa0;" horiz-adv-x="604" 
 />
    <glyph glyph-name="exclamdown" unicode="&#xa1;" horiz-adv-x="626" 
d="M313 934q-24 0 -40.5 16.5t-16.5 40.5t16.5 41t40.5 17t41 -17t17 -41q0 -23 -16.5 -40t-41.5 -17zM285 -385l4 1026q0 25 22 25h4q23 0 23 -25l4 -1026q0 -11 -6.5 -18t-16.5 -7h-12q-22 0 -22 25z" />
    <glyph glyph-name="cent" unicode="&#xa2;" 
d="M416 68l-109 -154q-13 -16 -31 -16h-10q-10 0 -10 10q0 6 2 10l123 176q-96 83 -139.5 184t-48.5 234q0 231 151 384t379 153q156 -3 272 -70l92 131q11 16 29 16h12q13 0 13 -12q0 -4 -2 -8l-105 -150q5 -4 23.5 -17.5t26 -19.5t20 -17.5t22.5 -22.5q17 -17 17 -29
q0 -7 -8 -12l-9 -7q-8 -4 -10 -4q-10 0 -16 9q-3 3 -9.5 9t-9.5 9q-36 36 -65 57l-8 7l-566 -809q116 -83 281 -89q117 0 223 50q82 42 148 114q13 13 20 13q4 0 12 -4l9 -7q8 -5 8 -14q0 -5 -15 -25q-73 -84 -181 -128t-224 -44q-122 3 -213 41q-48 21 -94 52zM410 135
l559 805q-113 64 -246 64q-206 0 -342.5 -142t-136.5 -350q9 -238 166 -377z" />
    <glyph glyph-name="sterling" unicode="&#xa3;" 
d="M195 20v9q0 14 8.5 21t29.5 16q25 12 44 33t31 40t20 52.5t12 52t6 59.5t2 53.5v53.5v288h-129q-24 0 -24 23v4q0 20 24 20h129v330q0 170 111.5 276.5t294.5 106.5q105 0 202 -39.5t166 -113.5q15 -20 15 -27q0 -8 -9 -14l-6 -4l-10 -5q-7 0 -22 15q-74 71 -148 106
q-87 37 -188 37q-159 0 -257 -95t-98 -243v-330h385q25 0 25 -20v-4q0 -23 -25 -23h-385v-350q0 -233 -114 -301h858q24 0 24 -20v-4q0 -23 -24 -23h-924q-24 0 -24 20z" />
    <glyph glyph-name="currency" unicode="&#xa4;" 
d="M1200 147l-207 197q-148 -133 -331 -133q-192 0 -328 133l-205 -197q-8 -8 -12 -8l-8 4l-9 9q-6 6 -6 12q0 9 6 12l205 195q-119 140 -119 315t117 315l-203 195q-6 6 -6 12q0 7 6 13l6 6q6 6 11 6q7 0 12 -8l205 -195q54 51 123 88q89 45 205 45q73 0 137 -20
q109 -30 192 -113l203 195q5 8 14 8q5 0 11 -6l6 -6q6 -6 6 -11q0 -6 -6 -12l-205 -197q119 -140 119 -315q0 -180 -117 -309l209 -199q6 -6 6 -12t-6 -12l-6 -7q-6 -6 -13 -6q-6 0 -12 6zM662 1118q-90 0 -171 -36t-141 -99q-117 -123 -117 -297q0 -97 37 -172
q29 -70 82 -125.5t121 -89.5q91 -43 189 -43q91 0 172.5 35.5t140.5 99.5q117 127 117 295q0 174 -119 299q-130 133 -311 133z" />
    <glyph glyph-name="yen" unicode="&#xa5;" 
d="M639 530l-526 881q-2 4 -2 10q0 13 14 13h12q18 0 31 -19l498 -837l497 837q13 19 31 19h12q15 0 15 -13q0 -6 -2 -10l-529 -881h303q25 0 25 -20v-4q0 -21 -25 -21h-303v-245h303q25 0 25 -21v-4q0 -20 -25 -20h-303v-170q0 -25 -22 -25h-6q-23 0 -23 25v170h-301
q-27 0 -27 20v4q0 21 27 21h301v245h-301q-27 0 -27 21v4q0 20 27 20h301z" />
    <glyph glyph-name="brokenbar" unicode="&#xa6;" horiz-adv-x="1024" 
d="M514 809h-6q-21 0 -21 22v682q0 23 21 23h6q21 0 21 -23v-682q0 -22 -21 -22zM508 317h6q21 0 21 -22v-682q0 -23 -21 -23h-6q-21 0 -21 23v682q0 22 21 22z" />
    <glyph glyph-name="section" unicode="&#xa7;" 
d="M537 887l223 -96q149 -65 216.5 -142t67.5 -186q0 -197 -170 -287q88 -56 129 -116t41 -152q0 -162 -118 -252t-308 -90q-132 2 -245.5 62t-169.5 171q-15 20 -15 31t13 14l10 4q17 6 27 -14q55 -103 147 -160q104 -61 233 -61q165 0 269 78t104 217q0 96 -60.5 162
t-207.5 131l-219 94q-125 54 -183.5 129t-58.5 180q0 94 51.5 164t141.5 104q-96 49 -144.5 117.5t-48.5 169.5q0 132 101.5 215.5t265.5 83.5q94 0 183.5 -33.5t150.5 -97.5q16 -16 16 -24q0 -7 -4 -11l-8 -6q-8 -4 -13 -4q-3 0 -18 10q-139 121 -307 121
q-140 0 -228 -72.5t-88 -181.5q0 -91 53 -155.5t171 -116.5zM537 332l286 -125q168 71 168 256q0 96 -60.5 162t-207.5 131l-207 88q-90 -22 -146.5 -86t-56.5 -154q0 -91 53 -155.5t171 -116.5z" />
    <glyph glyph-name="dieresis" unicode="&#xa8;" horiz-adv-x="1024" 
d="M307 1458q22 0 37.5 -15.5t15.5 -37.5t-15.5 -37.5t-37.5 -15.5t-37.5 15.5t-15.5 37.5t15.5 37.5t37.5 15.5zM717 1458q22 0 37.5 -15.5t15.5 -37.5t-15.5 -37.5t-37.5 -15.5t-37.5 15.5t-15.5 37.5t15.5 37.5t37.5 15.5z" />
    <glyph glyph-name="copyright" unicode="&#xa9;" horiz-adv-x="1933" 
d="M1241 524l8 -6q8 -5 8 -12q0 -4 -4 -8q-115 -130 -286 -127q-156 0 -258.5 99t-102.5 247t102.5 247t258.5 99q129 0 215 -59q64 -48 75 -72q3 -3 3 -6q0 -5 -9 -11l-12 -8q-8 -4 -12 -4q-7 0 -17 10q-52 59 -108 84.5t-135 24.5q-135 0 -225.5 -88t-90.5 -217t90.5 -217
t225.5 -88q77 -1 133 24t112 82q10 10 17 10q4 0 12 -4zM967 1458q153 0 292.5 -58.5t239.5 -157.5t159.5 -236.5t59.5 -288.5t-59.5 -288.5t-159.5 -237t-239.5 -158t-292.5 -58.5q-205 0 -378 99.5t-273.5 270t-100.5 372.5q0 151 59.5 288.5t160 236.5t240 157.5
t292.5 58.5zM967 1417q-144 0 -275 -55t-225.5 -148.5t-150.5 -223.5t-56 -273q0 -191 94.5 -352.5t257.5 -255t355 -93.5t354.5 93.5t257 255t94.5 352.5t-94.5 352.5t-257 254.5t-354.5 93z" />
    <glyph glyph-name="ordfeminine" unicode="&#xaa;" horiz-adv-x="958" 
d="M731 774h-22q-13 0 -13 12v93l-20 -25q-83 -98 -244 -98q-123 0 -200.5 60t-77.5 157q2 97 81 158t209 61q91 2 230 -27q4 -2 10 -2q12 0 12 13v16q0 101 -60 158t-169 57q-145 3 -236 -70q-8 -4 -10 -4q-4 0 -12 4l-12 11q-4 8 -4 10q0 4 4 8q117 85 270 82
q129 0 202.5 -67t73.5 -183v-412q0 -12 -12 -12zM696 997v121q-109 31 -252 31q-109 0 -176 -49.5t-67 -128.5q0 -78 64 -127t167 -49q115 0 189.5 57t74.5 145z" />
    <glyph glyph-name="guillemotleft" unicode="&#xab;" horiz-adv-x="1095" 
d="M502 930l10 -8q8 -5 8 -15q0 -2 -4 -10l-274 -385l274 -387q4 -8 4 -10q0 -10 -8 -15l-10 -8q-2 -2 -8 -2q-7 0 -15 8l-286 402q-5 10 -5 12t5 12l286 402q5 8 15 8q4 0 8 -4zM866 930l11 -8q8 -5 8 -15q0 -2 -4 -10l-275 -385l275 -387q4 -8 4 -10q0 -10 -8 -15l-11 -8
q-2 -2 -8 -2t-14 8l-287 402q-4 8 -4 12t4 12l287 402q5 8 14 8q4 0 8 -4z" />
    <glyph glyph-name="logicalnot" unicode="&#xac;" 
d="M1040 0h-12q-18 0 -18 18v418h-721q-19 0 -19 17v12q0 16 19 16h751q19 0 19 -18v-445q0 -18 -19 -18z" />
    <glyph glyph-name="uni00AD" unicode="&#xad;" horiz-adv-x="665" 
d="M172 535h322q18 0 18 -17v-12q0 -17 -18 -17h-322q-18 0 -18 17v12q0 17 18 17z" />
    <glyph glyph-name="registered" unicode="&#xae;" horiz-adv-x="1153" 
d="M729 913h-22q-11 0 -17 11l-84 141q-10 -2 -28 -2h-93v-137q0 -13 -12 -13h-14q-13 0 -13 13v358q0 12 13 12h119q72 0 110.5 -30t38.5 -86q0 -40 -20 -66t-64 -43l92 -145q2 -2 2 -6q0 -7 -8 -7zM485 1100h99q50 0 77 21t27 59q0 80 -104 80h-99v-160zM578 1448
q156 0 258 -99t102 -247t-102 -247t-258 -99t-259.5 99t-103.5 247t103.5 247t259.5 99zM578 795q143 0 231 87t88 220t-88 220t-231 87t-232.5 -87.5t-89.5 -219.5t89.5 -219.5t232.5 -87.5z" />
    <glyph glyph-name="macron" unicode="&#xaf;" horiz-adv-x="1024" 
d="M264 1348h496q18 0 18 -17v-10q0 -16 -18 -16h-496q-18 0 -18 16v10q0 17 18 17z" />
    <glyph glyph-name="degree" unicode="&#xb0;" horiz-adv-x="819" 
d="M666 1192q0 -107 -74.5 -181.5t-181.5 -74.5t-181.5 74.5t-74.5 181.5t74.5 181.5t181.5 74.5t181.5 -74.5t74.5 -181.5zM197 1192q0 -93 60.5 -155t152.5 -62t152.5 62t60.5 155t-60.5 155t-152.5 62t-152.5 -62t-60.5 -155z" />
    <glyph glyph-name="plusminus" unicode="&#xb1;" 
d="M254 45h823q23 0 23 -20v-5q0 -20 -23 -20h-823q-23 0 -23 20v5q0 20 23 20zM641 279v385h-387q-23 0 -23 20v4q0 21 23 21h387v385q0 22 21 22h8q20 0 20 -22v-385h387q23 0 23 -21v-4q0 -20 -23 -20h-387v-385q0 -23 -20 -23h-8q-21 0 -21 23z" />
    <glyph glyph-name="twosuperior" unicode="&#xb2;" horiz-adv-x="649" 
d="M547 1004v-17q0 -12 -12 -12h-431q-12 0 -12 12v10q0 13 10 23l279 293q60 63 77 92t17 68q0 64 -45.5 101.5t-120.5 37.5q-52 0 -90 -16t-80 -52q-6 -6 -12 -6q-7 0 -16 6l-7 4q-6 4 -6 8q0 9 8 17q18 18 39 33q71 47 164 47q97 0 155 -49t58 -131q0 -46 -19.5 -81
t-80.5 -98l-264 -278h377q12 0 12 -12z" />
    <glyph glyph-name="threesuperior" unicode="&#xb3;" horiz-adv-x="671" 
d="M262 1325v16q0 13 12 13h45q73 0 119.5 36t46.5 93t-47 93t-119 36q-85 0 -153 -58q-22 -18 -27 -18q-6 0 -12 6l-6 6q-4 4 -4 11q0 6 6 12q79 82 196 82q91 0 150 -47.5t59 -122.5q0 -101 -102 -148q63 -25 98 -72t35 -106q0 -87 -67.5 -141.5t-172.5 -54.5
q-97 0 -161 47q-41 29 -62 61q-8 12 -8 16q0 5 14 11l13 4q10 2 18 -6q39 -44 57 -56q50 -34 129 -34q85 0 139 43t54 110q0 66 -55.5 111t-137.5 45h-45q-12 0 -12 12z" />
    <glyph glyph-name="acute" unicode="&#xb4;" horiz-adv-x="1024" 
d="M444 1212l-4 5q-4 4 -4 8q0 9 8 14l240 207q6 6 12 6q7 0 13 -6l18 -21q4 -8 4 -10q0 -6 -8 -14l-256 -189q-6 -6 -12 -6q-5 0 -11 6z" />
    <glyph glyph-name="mu" unicode="&#xb5;" horiz-adv-x="1146" 
d="M190 -410h-10q-20 0 -20 23v1388q0 23 20 23h10q21 0 21 -23v-581q3 -183 92 -291.5t256 -108.5q121 0 209 56t130 145t42 199v581q0 23 21 23h8q20 0 20 -23v-978q0 -23 -20 -23h-8q-21 0 -21 23v192q-52 -113 -149 -176.5t-232 -63.5q-113 0 -205 50.5t-143 150.5v-563
q0 -23 -21 -23z" />
    <glyph glyph-name="paragraph" unicode="&#xb6;" 
d="M678 1434h135q18 0 18 -19v-1806q0 -19 -18 -19h-14q-19 0 -19 19v860h-102q-210 0 -349 138t-139 345t139 344.5t349 137.5zM1036 -391v1806q0 19 19 19h14q18 0 18 -19v-1806q0 -19 -18 -19h-14q-19 0 -19 19z" />
    <glyph glyph-name="periodcentered" unicode="&#xb7;" horiz-adv-x="360" 
d="M180 702q24 0 41 -17t17 -40t-17 -40t-41 -17t-40.5 16.5t-16.5 40.5t16.5 40.5t40.5 16.5z" />
    <glyph glyph-name="cedilla" unicode="&#xb8;" horiz-adv-x="1024" 
d="M553 0l-29 -113q77 0 124.5 -30.5t47.5 -89.5q0 -60 -48 -92.5t-126 -32.5q-86 0 -141 32q-8 3 -8 13q0 2 4 10l6 10q3 8 10 8q5 0 13 -4q53 -26 116 -26t96 21.5t33 60.5q0 79 -133 79h-29q-17 0 -14 19l35 135h43z" />
    <glyph glyph-name="onesuperior" unicode="&#xb9;" horiz-adv-x="481" 
d="M252 975h-19q-12 0 -12 12v600l-127 -57q-11 -4 -16 4l-10 14q-2 2 -2 6q0 8 6 11l135 63q20 10 37 10h8q14 0 14 -12v-639q0 -12 -14 -12z" />
    <glyph glyph-name="ordmasculine" unicode="&#xba;" horiz-adv-x="1052" 
d="M526 1448q162 0 267.5 -97t105.5 -249t-105.5 -249t-267.5 -97t-267 97t-105 249t105 249t267 97zM526 797q139 0 232.5 86.5t93.5 218.5t-93.5 218.5t-232.5 86.5t-232 -86t-93 -219t93 -219t232 -86z" />
    <glyph glyph-name="guillemotright" unicode="&#xbb;" horiz-adv-x="1095" 
d="M584 922l10 8q4 4 8 4q9 0 14 -8l287 -402q4 -8 4 -12t-4 -12l-287 -402q-8 -8 -14 -8t-8 2l-10 8q-9 6 -9 15l5 10l274 387l-274 385l-5 10q0 9 9 15zM219 922l10 8q4 4 9 4q9 0 14 -8l287 -402q4 -8 4 -12t-4 -12l-287 -402q-8 -8 -14 -8q-7 0 -9 2l-10 8q-8 5 -8 15
q0 2 4 10l274 387l-274 385q-4 8 -4 10q0 10 8 15z" />
    <glyph glyph-name="onequarter" unicode="&#xbc;" horiz-adv-x="1689" 
d="M377 1382l-127 -57q-12 -4 -17 4l-10 14q-2 2 -2 7q0 7 6 10l135 63q22 11 37 11h9q14 0 14 -13v-639q0 -12 -14 -12h-19q-12 0 -12 12v600zM1200 1417l-803 -1405q-6 -12 -24 -12h-15q-12 0 -12 10q0 4 2 6l805 1405q7 13 23 13h16q10 0 10 -9q0 -6 -2 -8zM1339 645
l-317 -455h295v177q0 12 12 12h23q12 0 12 -12v-177h94q12 0 12 -12v-16q0 -12 -12 -12h-94v-138q0 -12 -12 -12h-23q-12 0 -12 12v138h-340q-12 0 -12 12v10q0 10 10 27l330 469q3 6 10 6q4 0 6 -2l16 -10q4 -4 4 -9q0 -6 -2 -8z" />
    <glyph glyph-name="onehalf" unicode="&#xbd;" horiz-adv-x="1689" 
d="M383 1382l-127 -57q-11 -4 -16 4l-11 14q-2 2 -2 7q0 7 6 10l136 63q22 11 37 11h8q14 0 14 -13v-639q0 -12 -14 -12h-19q-12 0 -12 12v600zM1206 1417l-803 -1405q-6 -12 -24 -12h-14q-13 0 -13 10q0 4 2 6l805 1405q7 13 23 13h16q10 0 10 -9q0 -6 -2 -8zM1466 29v-17
q0 -12 -12 -12h-430q-12 0 -12 12v11q0 12 10 22l278 293q60 63 77.5 92.5t17.5 67.5q0 64 -45.5 101.5t-120.5 37.5q-52 0 -90 -16t-80 -52q-6 -6 -12 -6q-8 0 -17 6l-6 4q-6 4 -6 9q0 8 8 16q18 18 39 33q71 47 164 47q97 0 155 -49t58 -131q0 -46 -20 -81t-81 -98
l-264 -278h377q12 0 12 -12z" />
    <glyph glyph-name="threequarters" unicode="&#xbe;" horiz-adv-x="1689" 
d="M311 1120v17q0 12 13 12h45q73 0 119.5 36t46.5 93t-47 93t-119 36q-87 0 -154 -57q-23 -19 -27 -19q-6 0 -12 6l-6 6q-4 4 -4 11q0 6 6 12q79 82 197 82q91 0 150 -47.5t59 -122.5q0 -101 -103 -148q63 -25 98 -72t35 -106q0 -87 -67 -141.5t-172 -54.5q-98 0 -162 47
q-41 29 -62 61q-8 12 -8 17q0 4 15 10l12 4q10 2 18 -6q35 -39 58 -55q52 -35 129 -35q85 0 138.5 42.5t53.5 110.5q0 66 -55 111t-137 45h-45q-13 0 -13 12zM1284 1417l-803 -1405q-6 -12 -24 -12h-15q-12 0 -12 10q0 4 2 6l805 1405q7 13 23 13h16q10 0 10 -9q0 -6 -2 -8z
M1423 645l-317 -455h295v177q0 12 12 12h23q12 0 12 -12v-177h94q12 0 12 -12v-16q0 -12 -12 -12h-94v-138q0 -12 -12 -12h-23q-12 0 -12 12v138h-340q-12 0 -12 12v10q0 10 10 27l330 469q3 6 10 6q4 0 6 -2l16 -10q4 -4 4 -9q0 -6 -2 -8z" />
    <glyph glyph-name="questiondown" unicode="&#xbf;" horiz-adv-x="1044" 
d="M623 934q-25 0 -41.5 17t-16.5 40q0 24 17 41t41 17t40.5 -17t16.5 -41t-16.5 -40.5t-40.5 -16.5zM918 -236l6 -4q8 -5 8 -14q0 -8 -14 -27q-69 -75 -166 -114t-203 -39q-184 0 -295 102t-111 271q0 203 174 313l134 82q51 31 75.5 51t43 52t23.5 70.5t5 106.5v27
q0 25 23 25h4q22 0 22 -25v-27q0 -130 -33 -192t-135 -125l-141 -88q-72 -44 -107.5 -108.5t-35.5 -161.5q0 -147 97 -237.5t257 -90.5q102 0 186 37q77 37 150 106q15 15 22 15q1 0 11 -5z" />
    <glyph glyph-name="Agrave" unicode="&#xc0;" horiz-adv-x="1400" 
d="M795 1595l-4 -4q-4 -4 -11 -4q-2 0 -10 4l-258 189q-8 5 -8 12q0 6 6 12l16 21q6 6 11 6q8 0 14 -6l240 -207q8 -5 8 -14q0 -5 -4 -9zM688 1434h25q19 0 28 -21l588 -1388q2 -2 2 -9q0 -6 -5.5 -11t-12.5 -5h-8q-20 0 -29 20l-158 375h-835l-158 -375q-9 -20 -27 -20h-10
q-18 0 -18 14q0 4 8 25l581 1374q9 21 29 21zM1098 442l-398 944l-397 -944h795z" />
    <glyph glyph-name="Aacute" unicode="&#xc1;" horiz-adv-x="1400" 
d="M612 1591l-4 4q-4 4 -4 9q0 9 8 14l240 207q6 6 12 6q7 0 13 -6l18 -21q4 -8 4 -10q0 -6 -8 -14l-256 -189q-6 -6 -12 -6q-5 0 -11 6zM688 1434h25q19 0 28 -21l588 -1388q2 -2 2 -9q0 -6 -5.5 -11t-12.5 -5h-8q-20 0 -29 20l-158 375h-835l-158 -375q-9 -20 -27 -20h-10
q-18 0 -18 14q0 4 8 25l581 1374q9 21 29 21zM1098 442l-398 944l-397 -944h795z" />
    <glyph glyph-name="Acircumflex" unicode="&#xc2;" horiz-adv-x="1400" 
d="M432 1591l-4 4q-4 4 -4 9q0 9 8 14l227 207q15 12 33 12h17q18 0 30 -12l230 -207q8 -8 8 -14q0 -1 -4 -9l-4 -4q-4 -4 -11 -4q-4 0 -12 4l-246 195l-245 -195q-8 -4 -13 -4q-2 0 -10 4zM688 1434h25q19 0 28 -21l588 -1388q2 -2 2 -9q0 -6 -5.5 -11t-12.5 -5h-8
q-20 0 -29 20l-158 375h-835l-158 -375q-9 -20 -27 -20h-10q-18 0 -18 14q0 4 8 25l581 1374q9 21 29 21zM1098 442l-398 944l-397 -944h795z" />
    <glyph glyph-name="Atilde" unicode="&#xc3;" horiz-adv-x="1400" 
d="M946 1794h10q17 0 17 -14q2 -66 -33.5 -118.5t-97.5 -51.5q-28 0 -57.5 13t-48.5 27.5t-48 39.5q-26 22 -41.5 34t-39 22.5t-44.5 10.5q-79 0 -88 -123q0 -18 -18 -18h-11q-16 0 -16 14q2 70 34.5 120.5t98.5 49.5q28 0 57.5 -13t48.5 -27.5t48 -39.5q26 -22 41.5 -34
t39 -22.5t44.5 -10.5q79 0 88 123q0 18 16 18zM688 1434h25q19 0 28 -21l588 -1388q2 -2 2 -9q0 -6 -5.5 -11t-12.5 -5h-8q-20 0 -29 20l-158 375h-835l-158 -375q-9 -20 -27 -20h-10q-18 0 -18 14q0 4 8 25l581 1374q9 21 29 21zM1098 442l-398 944l-397 -944h795z" />
    <glyph glyph-name="Adieresis" unicode="&#xc4;" horiz-adv-x="1400" 
d="M498 1837q22 0 37.5 -15.5t15.5 -37.5t-15.5 -37.5t-37.5 -15.5t-38 15.5t-16 37.5t16 37.5t38 15.5zM907 1837q22 0 38 -15.5t16 -37.5t-16 -37.5t-38 -15.5t-37.5 15.5t-15.5 37.5t15.5 37.5t37.5 15.5zM688 1434h25q19 0 28 -21l588 -1388q2 -2 2 -9q0 -6 -5.5 -11
t-12.5 -5h-8q-20 0 -29 20l-158 375h-835l-158 -375q-9 -20 -27 -20h-10q-18 0 -18 14q0 4 8 25l581 1374q9 21 29 21zM1098 442l-398 944l-397 -944h795z" />
    <glyph glyph-name="Aring" unicode="&#xc5;" horiz-adv-x="1400" 
d="M702 1837q65 0 106.5 -41t41.5 -102q0 -60 -43.5 -103t-104.5 -43t-104 43t-43 103q0 61 40.5 102t106.5 41zM596 1694q0 -44 31.5 -76.5t74.5 -32.5t75 32.5t32 76.5q0 45 -30 75.5t-77 30.5q-45 0 -75.5 -30.5t-30.5 -75.5zM688 1434h25q19 0 28 -21l588 -1388
q2 -2 2 -9q0 -6 -5.5 -11t-12.5 -5h-8q-20 0 -29 20l-158 375h-835l-158 -375q-9 -20 -27 -20h-10q-18 0 -18 14q0 4 8 25l581 1374q9 21 29 21zM1098 442l-398 944l-397 -944h795z" />
    <glyph glyph-name="AE" unicode="&#xc6;" horiz-adv-x="1976" 
d="M1034 25v329h-678l-221 -336q-12 -18 -33 -18h-14q-14 0 -14 14q0 7 2 9l921 1392q14 19 35 19h797q24 0 24 -21v-4q0 -23 -24 -23h-744v-651h590q25 0 25 -20v-4q0 -23 -25 -23h-590v-641h764q25 0 25 -20v-4q0 -23 -25 -23h-790q-25 0 -25 25zM1034 401v985l-647 -985
h647z" />
    <glyph glyph-name="Ccedilla" unicode="&#xc7;" horiz-adv-x="1566" 
d="M786 -135l29 112q-230 9 -408.5 137.5t-252.5 344.5q-34 98 -41 258q0 208 93.5 377t262.5 266.5t381 97.5q163 0 312 -62.5t251 -181.5q2 -2 9 -9.5t10.5 -13.5t3.5 -11q0 -9 -9 -15l-8 -6q-6 -6 -14 -6q-10 0 -27 21q-59 66 -112 104q-183 133 -416 133
q-196 0 -353 -92t-244 -250.5t-87 -351.5t87 -351.5t244 -250.5t353 -92q233 0 416 133q49 35 114 104q19 19 27 19q2 0 12 -5l6 -4q9 -6 9 -16q0 -9 -21 -35q-103 -117 -248 -179t-307 -65l-22 -88q77 0 124.5 -30.5t47.5 -89.5q0 -60 -48 -92.5t-126 -32.5q-87 0 -142 32
q-8 3 -8 13q0 2 4 10l6 10q5 8 11 8q4 0 12 -4q53 -26 117 -26q63 0 96 21.5t33 60.5q0 79 -134 79h-28q-18 0 -15 19z" />
    <glyph glyph-name="Egrave" unicode="&#xc8;" horiz-adv-x="1157" 
d="M1034 1413v-4q0 -23 -24 -23h-744v-651h590q25 0 25 -20v-4q0 -23 -25 -23h-590v-641h764q25 0 25 -20v-4q0 -23 -25 -23h-790q-25 0 -25 25v1384q0 25 25 25h770q24 0 24 -21zM729 1595l-4 -4q-4 -4 -10 -4q-2 0 -10 4l-259 189q-8 5 -8 12q0 6 6 12l17 21q6 6 10 6
q8 0 14 -6l240 -207q8 -5 8 -14q0 -5 -4 -9z" />
    <glyph glyph-name="Eacute" unicode="&#xc9;" horiz-adv-x="1157" 
d="M1034 1413v-4q0 -23 -24 -23h-744v-651h590q25 0 25 -20v-4q0 -23 -25 -23h-590v-641h764q25 0 25 -20v-4q0 -23 -25 -23h-790q-25 0 -25 25v1384q0 25 25 25h770q24 0 24 -21zM545 1591l-4 4q-4 4 -4 9q0 9 8 14l239 207q6 6 13 6q6 0 12 -6l18 -21q4 -8 4 -10
q0 -6 -8 -14l-256 -189q-6 -6 -12 -6q-4 0 -10 6z" />
    <glyph glyph-name="Ecircumflex" unicode="&#xca;" horiz-adv-x="1157" 
d="M1034 1413v-4q0 -23 -24 -23h-744v-651h590q25 0 25 -20v-4q0 -23 -25 -23h-590v-641h764q25 0 25 -20v-4q0 -23 -25 -23h-790q-25 0 -25 25v1384q0 25 25 25h770q24 0 24 -21zM367 1591l-5 4q-4 4 -4 9q0 8 9 14l227 207q15 12 33 12h16q19 0 31 -12l229 -207
q8 -8 8 -14q0 -1 -4 -9l-4 -4q-4 -4 -10 -4q-4 0 -12 4l-246 195l-246 -195q-8 -4 -12 -4q-2 0 -10 4z" />
    <glyph glyph-name="Edieresis" unicode="&#xcb;" horiz-adv-x="1157" 
d="M1034 1413v-4q0 -23 -24 -23h-744v-651h590q25 0 25 -20v-4q0 -23 -25 -23h-590v-641h764q25 0 25 -20v-4q0 -23 -25 -23h-790q-25 0 -25 25v1384q0 25 25 25h770q24 0 24 -21zM430 1837q22 0 37.5 -15.5t15.5 -37.5t-15.5 -37.5t-37.5 -15.5t-37.5 15.5t-15.5 37.5
t15.5 37.5t37.5 15.5zM840 1837q22 0 37.5 -15.5t15.5 -37.5t-15.5 -37.5t-37.5 -15.5t-38 15.5t-16 37.5t16 37.5t38 15.5z" />
    <glyph glyph-name="Igrave" unicode="&#xcc;" horiz-adv-x="481" 
d="M266 1409v-1384q0 -25 -22 -25h-6q-23 0 -23 25v1384q0 25 23 25h6q22 0 22 -25zM334 1595l-4 -4q-8 -4 -11 -4q-2 0 -10 4l-258 189q-8 5 -8 12q0 6 6 12l17 21q3 6 10 6q5 0 14 -6l240 -207q6 -6 6 -14q0 -7 -2 -9z" />
    <glyph glyph-name="Iacute" unicode="&#xcd;" horiz-adv-x="481" 
d="M268 1409v-1384q0 -25 -22 -25h-6q-23 0 -23 25v1384q0 25 23 25h6q22 0 22 -25zM152 1591l-5 4q-4 4 -4 9q0 8 9 14l239 207q6 6 12 6q7 0 13 -6l18 -21q4 -8 4 -10q0 -6 -8 -14l-256 -189q-6 -6 -12 -6q-4 0 -10 6z" />
    <glyph glyph-name="Icircumflex" unicode="&#xce;" horiz-adv-x="481" 
d="M266 1409v-1384q0 -25 -22 -25h-6q-23 0 -23 25v1384q0 25 23 25h6q22 0 22 -25zM-29 1591l-4 4q-4 4 -4 9q0 9 8 14l228 207q15 12 32 12h17q19 0 31 -12l229 -207q8 -8 8 -14q0 -1 -4 -9l-4 -4q-8 -4 -10 -4q-5 0 -13 4l-245 195l-246 -195q-8 -4 -12 -4q-7 0 -11 4z
" />
    <glyph glyph-name="Idieresis" unicode="&#xcf;" horiz-adv-x="481" 
d="M266 1409v-1384q0 -25 -22 -25h-6q-23 0 -23 25v1384q0 25 23 25h6q22 0 22 -25zM35 1837q22 0 37.5 -15.5t15.5 -37.5t-15.5 -37.5t-37.5 -15.5t-37.5 15.5t-15.5 37.5t15.5 37.5t37.5 15.5zM444 1837q22 0 38 -15.5t16 -37.5t-16 -37.5t-38 -15.5t-37.5 15.5
t-15.5 37.5t15.5 37.5t37.5 15.5z" />
    <glyph glyph-name="Eth" unicode="&#xd0;" horiz-adv-x="1658" 
d="M297 698h-129q-25 0 -25 23v4q0 20 25 20h129v664q0 25 25 25h456q171 0 311 -52t236 -145.5t148.5 -226.5t52.5 -293t-52.5 -293t-148.5 -226.5t-236 -145.5t-311 -52h-456q-25 0 -25 25v673zM348 745h385q25 0 25 -20v-4q0 -23 -25 -23h-385v-651h440q313 0 499 184.5
t186 485.5t-186 485t-499 184h-440v-641z" />
    <glyph glyph-name="Ntilde" unicode="&#xd1;" horiz-adv-x="1505" 
d="M1266 0h-31q-24 0 -35 18l-934 1368v-1361q0 -25 -22 -25h-6q-23 0 -23 25v1384q0 25 25 25h30q24 0 35 -19l934 -1368v1362q0 25 23 25h6q22 0 22 -25v-1384q0 -25 -24 -25zM997 1794h11q16 0 16 -14q2 -66 -33.5 -118.5t-97.5 -51.5q-28 0 -57.5 13t-48.5 27.5
t-48 39.5q-26 22 -41.5 34t-39 22.5t-44.5 10.5q-79 0 -88 -123q0 -18 -18 -18h-10q-17 0 -17 14q2 70 34.5 120.5t98.5 49.5q28 0 57.5 -13t48.5 -27.5t48 -39.5q26 -22 41.5 -34t39 -22.5t44.5 -10.5q79 0 88 123q0 18 16 18z" />
    <glyph glyph-name="Ograve" unicode="&#xd2;" horiz-adv-x="1720" 
d="M860 1458q160 0 299.5 -57t237.5 -155.5t154.5 -235.5t56.5 -293t-56.5 -293t-154.5 -236t-237.5 -156t-299.5 -57q-212 0 -383.5 97.5t-267.5 267t-96 377.5q0 155 56.5 292.5t154.5 236t237.5 155.5t298.5 57zM860 23q196 0 355.5 92t249 251t89.5 351t-89.5 351
t-249 251t-355.5 92t-355.5 -92t-249 -251t-89.5 -351t89.5 -351t249 -251t355.5 -92zM954 1595l-4 -4q-4 -4 -10 -4q-2 0 -10 4l-258 189q-8 5 -8 12q0 6 6 12l16 21q6 6 10 6q9 0 15 -6l239 -207q8 -5 8 -14q0 -5 -4 -9z" />
    <glyph glyph-name="Oacute" unicode="&#xd3;" horiz-adv-x="1720" 
d="M860 1458q160 0 299.5 -57t237.5 -155.5t154.5 -235.5t56.5 -293t-56.5 -293t-154.5 -236t-237.5 -156t-299.5 -57q-212 0 -383.5 97.5t-267.5 267t-96 377.5q0 155 56.5 292.5t154.5 236t237.5 155.5t298.5 57zM860 23q196 0 355.5 92t249 251t89.5 351t-89.5 351
t-249 251t-355.5 92t-355.5 -92t-249 -251t-89.5 -351t89.5 -351t249 -251t355.5 -92zM770 1591l-4 4q-4 4 -4 9q0 9 8 14l240 207q6 6 12 6t12 -6l19 -21q4 -8 4 -10q0 -6 -8 -14l-256 -189q-6 -6 -13 -6q-4 0 -10 6z" />
    <glyph glyph-name="Ocircumflex" unicode="&#xd4;" horiz-adv-x="1720" 
d="M860 1458q160 0 299.5 -57t237.5 -155.5t154.5 -235.5t56.5 -293t-56.5 -293t-154.5 -236t-237.5 -156t-299.5 -57q-212 0 -383.5 97.5t-267.5 267t-96 377.5q0 155 56.5 292.5t154.5 236t237.5 155.5t298.5 57zM860 23q196 0 355.5 92t249 251t89.5 351t-89.5 351
t-249 251t-355.5 92t-355.5 -92t-249 -251t-89.5 -351t89.5 -351t249 -251t355.5 -92zM592 1591l-4 4q-4 4 -4 9q0 9 8 14l227 207q15 12 33 12h16q19 0 31 -12l229 -207q9 -9 9 -14q0 -1 -4 -9l-5 -4q-4 -4 -10 -4q-4 0 -12 4l-246 195l-246 -195q-8 -4 -12 -4q-2 0 -10 4z
" />
    <glyph glyph-name="Otilde" unicode="&#xd5;" horiz-adv-x="1720" 
d="M860 1458q160 0 299.5 -57t237.5 -155.5t154.5 -235.5t56.5 -293t-56.5 -293t-154.5 -236t-237.5 -156t-299.5 -57q-212 0 -383.5 97.5t-267.5 267t-96 377.5q0 155 56.5 292.5t154.5 236t237.5 155.5t298.5 57zM860 23q196 0 355.5 92t249 251t89.5 351t-89.5 351
t-249 251t-355.5 92t-355.5 -92t-249 -251t-89.5 -351t89.5 -351t249 -251t355.5 -92zM1104 1794h10q16 0 16 -14q2 -66 -33.5 -118.5t-97.5 -51.5q-28 0 -57.5 13.5t-48 27.5t-47.5 39q-26 22 -41.5 34t-39 22.5t-44.5 10.5q-79 0 -88 -123q0 -18 -19 -18h-10q-16 0 -16 14
q2 70 34.5 120.5t98.5 49.5q28 0 57.5 -13.5t48 -27.5t47.5 -39q26 -22 41.5 -34t39 -22.5t44.5 -10.5q79 0 88 123q0 18 17 18z" />
    <glyph glyph-name="Odieresis" unicode="&#xd6;" horiz-adv-x="1720" 
d="M860 1458q160 0 299.5 -57t237.5 -155.5t154.5 -235.5t56.5 -293t-56.5 -293t-154.5 -236t-237.5 -156t-299.5 -57q-212 0 -383.5 97.5t-267.5 267t-96 377.5q0 155 56.5 292.5t154.5 236t237.5 155.5t298.5 57zM860 23q196 0 355.5 92t249 251t89.5 351t-89.5 351
t-249 251t-355.5 92t-355.5 -92t-249 -251t-89.5 -351t89.5 -351t249 -251t355.5 -92zM655 1837q22 0 38 -15.5t16 -37.5t-16 -37.5t-38 -15.5t-37.5 15.5t-15.5 37.5t15.5 37.5t37.5 15.5zM1065 1837q22 0 37.5 -15.5t15.5 -37.5t-15.5 -37.5t-37.5 -15.5t-37.5 15.5
t-15.5 37.5t15.5 37.5t37.5 15.5z" />
    <glyph glyph-name="multiply" unicode="&#xd7;" 
d="M940 381l-274 272l-273 -272q-5 -8 -16 -8q-6 0 -15 6l-4 4q-6 6 -6 14q0 5 8 17l273 272l-273 272q-8 12 -8 17q0 8 6 14l4 4q9 6 15 6q11 0 16 -8l273 -272l274 272q8 8 16 8q7 0 13 -6l4 -4q8 -5 8 -14q0 -7 -10 -17l-275 -272l275 -272q10 -10 10 -17q0 -9 -8 -14
l-4 -4q-6 -6 -13 -6q-8 0 -16 8z" />
    <glyph glyph-name="Oslash" unicode="&#xd8;" horiz-adv-x="1740" 
d="M463 88l-119 -172q-12 -18 -33 -18h-10q-12 0 -12 12q0 6 2 10l133 193q-208 157 -274 397q-24 89 -27 207q0 155 56.5 292.5t154.5 236t237.5 155.5t298.5 57q185 -7 306 -59q28 -10 102 -51l119 170q12 18 33 18h10q12 0 12 -12q0 -7 -2 -11l-133 -192
q208 -151 274 -397q24 -89 27 -207q0 -156 -56.5 -293t-154.5 -236t-237.5 -156t-299.5 -57q-178 7 -305 60q-39 15 -102 53zM1288 1278l-796 -1149q55 -34 104 -53q113 -46 274 -53q196 0 355.5 92t249.5 251t90 351q-6 158 -54 276q-74 179 -223 285zM453 156l796 1149
q-55 34 -104 53q-112 46 -275 53q-196 0 -355.5 -92t-249 -251t-89.5 -351q7 -162 53 -277q73 -176 224 -284z" />
    <glyph glyph-name="Ugrave" unicode="&#xd9;" horiz-adv-x="1515" 
d="M217 1434h6q23 0 23 -25v-887q0 -224 131.5 -361.5t380.5 -137.5t380.5 137.5t131.5 361.5v887q0 25 22 25h6q23 0 23 -25v-897q0 -116 -37 -213.5t-107 -170t-177.5 -113t-241.5 -40.5t-241.5 40.5t-177.5 113t-107 170t-37 213.5v897q0 25 22 25zM852 1595l-4 -4
q-4 -4 -10 -4q-3 0 -11 4l-258 189q-8 5 -8 12q0 6 6 12l17 21q6 6 10 6q8 0 14 -6l240 -207q8 -5 8 -14q0 -5 -4 -9z" />
    <glyph glyph-name="Uacute" unicode="&#xda;" horiz-adv-x="1515" 
d="M217 1434h6q23 0 23 -25v-887q0 -224 131.5 -361.5t380.5 -137.5t380.5 137.5t131.5 361.5v887q0 25 22 25h6q23 0 23 -25v-897q0 -116 -37 -213.5t-107 -170t-177.5 -113t-241.5 -40.5t-241.5 40.5t-177.5 113t-107 170t-37 213.5v897q0 25 22 25zM668 1591l-4 4
q-5 5 -5 9q0 8 9 14l239 207q6 6 13 6q6 0 12 -6l18 -21q4 -8 4 -10q0 -6 -8 -14l-256 -189q-6 -6 -12 -6q-4 0 -10 6z" />
    <glyph glyph-name="Ucircumflex" unicode="&#xdb;" horiz-adv-x="1515" 
d="M217 1434h6q23 0 23 -25v-887q0 -224 131.5 -361.5t380.5 -137.5t380.5 137.5t131.5 361.5v887q0 25 22 25h6q23 0 23 -25v-897q0 -116 -37 -213.5t-107 -170t-177.5 -113t-241.5 -40.5t-241.5 40.5t-177.5 113t-107 170t-37 213.5v897q0 25 22 25zM489 1591l-4 4
q-4 4 -4 9q0 9 8 14l228 207q15 12 33 12h16q19 0 31 -12l229 -207q8 -8 8 -14q0 -1 -4 -9l-4 -4q-4 -4 -10 -4q-4 0 -12 4l-246 195l-246 -195q-8 -4 -12 -4q-3 0 -11 4z" />
    <glyph glyph-name="Udieresis" unicode="&#xdc;" horiz-adv-x="1515" 
d="M217 1434h6q23 0 23 -25v-887q0 -224 131.5 -361.5t380.5 -137.5t380.5 137.5t131.5 361.5v887q0 25 22 25h6q23 0 23 -25v-897q0 -116 -37 -213.5t-107 -170t-177.5 -113t-241.5 -40.5t-241.5 40.5t-177.5 113t-107 170t-37 213.5v897q0 25 22 25zM553 1837
q22 0 37.5 -15.5t15.5 -37.5t-15.5 -37.5t-37.5 -15.5t-37.5 15.5t-15.5 37.5t15.5 37.5t37.5 15.5zM963 1837q22 0 37.5 -15.5t15.5 -37.5t-15.5 -37.5t-37.5 -15.5t-38 15.5t-16 37.5t16 37.5t38 15.5z" />
    <glyph glyph-name="Yacute" unicode="&#xdd;" horiz-adv-x="1275" 
d="M1192 1411l-528 -881v-505q0 -25 -23 -25h-6q-23 0 -23 25v505l-526 881q-2 4 -2 10q0 13 14 13h13q17 0 30 -19l498 -837l498 837q13 19 30 19h13q14 0 14 -13q0 -6 -2 -10zM549 1591l-4 4q-2 2 -2 9q0 8 6 14l239 207q6 6 13 6q6 0 12 -6l18 -21q7 -7 7 -10
q0 -7 -11 -14l-256 -189q-6 -6 -12 -6q-4 0 -10 6z" />
    <glyph glyph-name="Thorn" unicode="&#xde;" horiz-adv-x="1228" 
d="M266 1214h359q105 0 191.5 -23t158 -72.5t111.5 -136.5t40 -206q0 -96 -27 -172t-72.5 -127t-110 -84.5t-137 -48t-154.5 -14.5h-359v-305q0 -25 -22 -25h-6q-23 0 -23 25v1384q0 25 23 25h6q22 0 22 -25v-195zM266 377h379q69 0 131 13.5t117.5 44.5t95 76.5t63 113
t23.5 151.5q0 104 -35 181.5t-96.5 122t-136 66t-162.5 21.5h-379v-790z" />
    <glyph glyph-name="germandbls" unicode="&#xdf;" horiz-adv-x="1187" 
d="M346 90l4 6q5 10 17 10q7 0 16 -6q118 -77 262 -77q168 0 277.5 109.5t109.5 283.5q0 164 -115.5 275.5t-291.5 111.5h-39q-23 0 -23 20v6q0 21 23 21h39q147 0 239 90.5t92 237.5q0 145 -95.5 240t-248.5 95q-163 0 -265.5 -105t-102.5 -273v-1112q0 -23 -21 -23h-8
q-20 0 -20 23v1112q0 191 115.5 307.5t301.5 116.5q173 0 282.5 -106.5t109.5 -274.5q0 -254 -226 -349q128 -37 217.5 -151t89.5 -262q0 -196 -124 -318.5t-316 -122.5q-104 0 -194 37q-32 12 -93 47q-16 6 -16 21q0 2 4 10z" />
    <glyph glyph-name="agrave" unicode="&#xe0;" horiz-adv-x="1177" 
d="M983 0h-8q-21 0 -21 23v161q-120 -209 -401 -209q-172 0 -285.5 92.5t-113.5 243.5t119 242.5t300 91.5q116 0 191 -11t190 -40l-2 61q0 158 -90.5 253.5t-257.5 95.5q-200 0 -346 -109q-12 -8 -20 -8q-7 0 -13 6l-6 6q-6 6 -6 12q0 5 18 23q71 56 170.5 85.5t202.5 29.5
q185 0 292.5 -106t107.5 -277v-643q0 -23 -21 -23zM954 358v189q-100 31 -181 42t-200 11q-158 0 -263 -80t-105 -209t99.5 -210t248.5 -81q175 0 288 90.5t113 247.5zM672 1217l-4 -5q-4 -4 -11 -4q-2 0 -10 4l-258 189q-8 5 -8 12q0 6 6 12l16 21q6 6 11 6q8 0 14 -6
l240 -207q8 -5 8 -14q0 -4 -4 -8z" />
    <glyph glyph-name="aacute" unicode="&#xe1;" horiz-adv-x="1177" 
d="M983 0h-8q-21 0 -21 23v161q-120 -209 -401 -209q-172 0 -285.5 92.5t-113.5 243.5t119 242.5t300 91.5q116 0 191 -11t190 -40l-2 61q0 158 -90.5 253.5t-257.5 95.5q-200 0 -346 -109q-12 -8 -20 -8q-7 0 -13 6l-6 6q-6 6 -6 12q0 5 18 23q71 56 170.5 85.5t202.5 29.5
q185 0 292.5 -106t107.5 -277v-643q0 -23 -21 -23zM954 358v189q-100 31 -181 42t-200 11q-158 0 -263 -80t-105 -209t99.5 -210t248.5 -81q175 0 288 90.5t113 247.5zM489 1212l-4 5q-4 4 -4 8q0 9 8 14l240 207q6 6 12 6q7 0 13 -6l18 -21q4 -8 4 -10q0 -6 -8 -14
l-256 -189q-6 -6 -12 -6q-5 0 -11 6z" />
    <glyph glyph-name="acircumflex" unicode="&#xe2;" horiz-adv-x="1177" 
d="M983 0h-8q-21 0 -21 23v161q-120 -209 -401 -209q-172 0 -285.5 92.5t-113.5 243.5t119 242.5t300 91.5q116 0 191 -11t190 -40l-2 61q0 158 -90.5 253.5t-257.5 95.5q-200 0 -346 -109q-12 -8 -20 -8q-7 0 -13 6l-6 6q-6 6 -6 12q0 5 18 23q71 56 170.5 85.5t202.5 29.5
q185 0 292.5 -106t107.5 -277v-643q0 -23 -21 -23zM954 358v189q-100 31 -181 42t-200 11q-158 0 -263 -80t-105 -209t99.5 -210t248.5 -81q175 0 288 90.5t113 247.5zM309 1212l-4 5q-4 4 -4 8q0 9 8 14l228 207q15 12 32 12h17q18 0 30 -12l230 -207q8 -8 8 -14l-4 -8
l-4 -5q-4 -4 -10 -4q-5 0 -13 4l-245 195l-246 -195q-8 -4 -13 -4q-2 0 -10 4z" />
    <glyph glyph-name="atilde" unicode="&#xe3;" horiz-adv-x="1177" 
d="M983 0h-8q-21 0 -21 23v161q-120 -209 -401 -209q-172 0 -285.5 92.5t-113.5 243.5t119 242.5t300 91.5q116 0 191 -11t190 -40l-2 61q0 158 -90.5 253.5t-257.5 95.5q-200 0 -346 -109q-12 -8 -20 -8q-7 0 -13 6l-6 6q-6 6 -6 12q0 5 18 23q71 56 170.5 85.5t202.5 29.5
q185 0 292.5 -106t107.5 -277v-643q0 -23 -21 -23zM954 358v189q-100 31 -181 42t-200 11q-158 0 -263 -80t-105 -209t99.5 -210t248.5 -81q175 0 288 90.5t113 247.5zM823 1415h11q16 0 16 -14q2 -66 -33.5 -118.5t-97.5 -51.5q-28 0 -57.5 13t-48.5 27.5t-48 39.5
q-26 22 -41.5 34t-39 22.5t-44.5 10.5q-79 0 -88 -123q0 -18 -18 -18h-10q-17 0 -17 14q2 70 34.5 120.5t98.5 49.5q28 0 57.5 -13t48.5 -27.5t48 -39.5q26 -22 41.5 -34t39 -22.5t44.5 -10.5q79 0 88 123q0 18 16 18z" />
    <glyph glyph-name="adieresis" unicode="&#xe4;" horiz-adv-x="1177" 
d="M983 0h-8q-21 0 -21 23v161q-120 -209 -401 -209q-172 0 -285.5 92.5t-113.5 243.5t119 242.5t300 91.5q116 0 191 -11t190 -40l-2 61q0 158 -90.5 253.5t-257.5 95.5q-200 0 -346 -109q-12 -8 -20 -8q-7 0 -13 6l-6 6q-6 6 -6 12q0 5 18 23q71 56 170.5 85.5t202.5 29.5
q185 0 292.5 -106t107.5 -277v-643q0 -23 -21 -23zM954 358v189q-100 31 -181 42t-200 11q-158 0 -263 -80t-105 -209t99.5 -210t248.5 -81q175 0 288 90.5t113 247.5zM375 1458q22 0 37.5 -15.5t15.5 -37.5t-15.5 -37.5t-37.5 -15.5t-37.5 15.5t-15.5 37.5t15.5 37.5
t37.5 15.5zM784 1458q22 0 38 -15.5t16 -37.5t-16 -37.5t-38 -15.5t-37.5 15.5t-15.5 37.5t15.5 37.5t37.5 15.5z" />
    <glyph glyph-name="aring" unicode="&#xe5;" horiz-adv-x="1177" 
d="M983 0h-8q-21 0 -21 23v161q-120 -209 -401 -209q-172 0 -285.5 92.5t-113.5 243.5t119 242.5t300 91.5q116 0 191 -11t190 -40l-2 61q0 158 -90.5 253.5t-257.5 95.5q-200 0 -346 -109q-12 -8 -20 -8q-7 0 -13 6l-6 6q-6 6 -6 12q0 5 18 23q71 56 170.5 85.5t202.5 29.5
q185 0 292.5 -106t107.5 -277v-643q0 -23 -21 -23zM954 358v189q-100 31 -181 42t-200 11q-158 0 -263 -80t-105 -209t99.5 -210t248.5 -81q175 0 288 90.5t113 247.5zM580 1458q65 0 106 -41t41 -102q0 -60 -43 -103t-104 -43t-104.5 43t-43.5 103q0 61 41 102t107 41z
M473 1315q0 -44 32 -76.5t75 -32.5t74.5 32.5t31.5 76.5q0 45 -29.5 75.5t-76.5 30.5q-46 0 -76.5 -30.5t-30.5 -75.5z" />
    <glyph glyph-name="ae" unicode="&#xe6;" horiz-adv-x="2048" 
d="M952 594v61q0 158 -90.5 253.5t-257.5 95.5q-124 3 -237 -46q-46 -20 -109 -61q-1 0 -2 -1t-2 -1q-12 -8 -16 -8q-3 0 -11 4l-8 8q-6 6 -6 12q0 7 18 25q141 113 353 113q176 0 284 -82q106 -81 129 -226q57 126 158 203q133 105 318 105q134 0 243.5 -71.5t169.5 -188.5
t60 -254v-21q0 -22 -23 -22h-919q13 -218 151 -347q131 -125 318 -125q165 0 296 93q25 18 66 59l18 18q7 7 15 7q4 0 12 -4l8 -7q8 -8 8 -14q0 -4 -4 -12q-68 -84 -166 -129q-127 -59 -253 -56q-193 7 -318 105q-102 77 -158 205q-39 -129 -112 -197q-113 -113 -332 -113
q-172 0 -285.5 92.5t-113.5 243.5t118.5 242.5t300.5 91.5q116 0 189.5 -11t189.5 -40zM1004 535h892q-7 215 -133 344q-125 125 -290 125q-193 0 -318 -125q-138 -129 -151 -344zM952 348v199q-100 31 -180 42t-199 11q-159 0 -263.5 -80t-104.5 -209t99 -210t249 -81
q170 0 284.5 91t114.5 237z" />
    <glyph glyph-name="ccedilla" unicode="&#xe7;" horiz-adv-x="1153" 
d="M555 -135l29 112q-135 9 -249.5 85.5t-174.5 197.5q-51 105 -58 252q0 231 151.5 384t379.5 153q233 0 403 -170q17 -17 17 -29q0 -6 -9 -12l-8 -7q-8 -4 -12 -4q-7 0 -14 7q-3 3 -9.5 9t-9.5 9q-44 44 -65 59q-131 93 -293 93q-206 0 -342.5 -142t-136.5 -350
t136.5 -350t342.5 -142q117 0 223 50q82 42 148 114q13 13 20 13q4 0 12 -4l8 -7q9 -6 9 -14q0 -5 -15 -25q-73 -84 -181 -128t-224 -44h-6l-23 -88q77 0 124.5 -30.5t47.5 -89.5q0 -60 -48 -92.5t-126 -32.5q-86 0 -141 32q-8 3 -8 13q0 2 4 10l6 10q5 8 10 8q4 0 12 -4
q53 -26 117 -26q63 0 96 21.5t33 60.5q0 79 -133 79h-29q-17 0 -14 19z" />
    <glyph glyph-name="egrave" unicode="&#xe8;" horiz-adv-x="1198" 
d="M1073 492h-919q13 -218 151 -347q131 -125 318 -125q166 0 297 93q21 15 65 59l19 18q7 7 14 7q4 0 12 -4l8 -7q9 -9 9 -16l-5 -10q-77 -89 -185 -137t-234 -48q-224 0 -372.5 153.5t-148.5 383.5t148.5 383.5t372.5 153.5q134 0 243.5 -71.5t169.5 -188.5t60 -254v-21
q0 -22 -23 -22zM154 535h893q-3 98 -36.5 188.5t-97.5 155.5q-125 125 -290 125q-193 0 -318 -125q-138 -129 -151 -344zM702 1217l-4 -5q-4 -4 -10 -4q-2 0 -10 4l-258 189q-8 5 -8 12q0 6 6 12l16 21q6 6 10 6q9 0 15 -6l239 -207q9 -6 9 -14q0 -3 -5 -8z" />
    <glyph glyph-name="eacute" unicode="&#xe9;" horiz-adv-x="1198" 
d="M1073 492h-919q13 -218 151 -347q131 -125 318 -125q166 0 297 93q21 15 65 59l19 18q7 7 14 7q4 0 12 -4l8 -7q9 -9 9 -16l-5 -10q-77 -89 -185 -137t-234 -48q-224 0 -372.5 153.5t-148.5 383.5t148.5 383.5t372.5 153.5q134 0 243.5 -71.5t169.5 -188.5t60 -254v-21
q0 -22 -23 -22zM154 535h893q-3 98 -36.5 188.5t-97.5 155.5q-125 125 -290 125q-193 0 -318 -125q-138 -129 -151 -344zM520 1212l-4 5q-4 4 -4 8q0 9 8 14l240 207q6 6 12 6t12 -6l19 -21q4 -8 4 -10q0 -6 -8 -14l-256 -189q-6 -6 -13 -6q-4 0 -10 6z" />
    <glyph glyph-name="ecircumflex" unicode="&#xea;" horiz-adv-x="1198" 
d="M1073 492h-919q13 -218 151 -347q131 -125 318 -125q166 0 297 93q21 15 65 59l19 18q7 7 14 7q4 0 12 -4l8 -7q9 -9 9 -16l-5 -10q-77 -89 -185 -137t-234 -48q-224 0 -372.5 153.5t-148.5 383.5t148.5 383.5t372.5 153.5q134 0 243.5 -71.5t169.5 -188.5t60 -254v-21
q0 -22 -23 -22zM154 535h893q-3 98 -36.5 188.5t-97.5 155.5q-125 125 -290 125q-193 0 -318 -125q-138 -129 -151 -344zM340 1212l-4 5q-4 4 -4 8q0 9 8 14l227 207q15 12 33 12h16q19 0 31 -12l230 -207q8 -8 8 -14l-4 -8l-4 -5q-4 -4 -11 -4q-4 0 -12 4l-246 195
l-246 -195q-8 -4 -12 -4q-2 0 -10 4z" />
    <glyph glyph-name="edieresis" unicode="&#xeb;" horiz-adv-x="1198" 
d="M1073 492h-919q13 -218 151 -347q131 -125 318 -125q166 0 297 93q21 15 65 59l19 18q7 7 14 7q4 0 12 -4l8 -7q9 -9 9 -16l-5 -10q-77 -89 -185 -137t-234 -48q-224 0 -372.5 153.5t-148.5 383.5t148.5 383.5t372.5 153.5q134 0 243.5 -71.5t169.5 -188.5t60 -254v-21
q0 -22 -23 -22zM154 535h893q-3 98 -36.5 188.5t-97.5 155.5q-125 125 -290 125q-193 0 -318 -125q-138 -129 -151 -344zM395 1458q22 0 38 -15.5t16 -37.5t-16 -37.5t-38 -15.5t-37.5 15.5t-15.5 37.5t15.5 37.5t37.5 15.5zM805 1458q22 0 37.5 -15.5t15.5 -37.5
t-15.5 -37.5t-37.5 -15.5t-37.5 15.5t-15.5 37.5t15.5 37.5t37.5 15.5z" />
    <glyph glyph-name="igrave" unicode="&#xec;" horiz-adv-x="438" 
d="M215 1024h8q21 0 21 -23v-978q0 -23 -21 -23h-8q-20 0 -20 23v978q0 23 20 23zM313 1217l-4 -5q-8 -4 -10 -4t-10 4l-258 189q-8 5 -8 12q0 6 6 12l16 21q3 6 10 6q6 0 15 -6l239 -207q6 -6 6 -14q0 -6 -2 -8z" />
    <glyph glyph-name="iacute" unicode="&#xed;" horiz-adv-x="438" 
d="M215 1024h8q21 0 21 -23v-978q0 -23 -21 -23h-8q-20 0 -20 23v978q0 23 20 23zM129 1212l-4 5q-4 4 -4 8q0 9 8 14l240 207q6 6 12 6t12 -6l19 -21q4 -8 4 -10q0 -6 -8 -14l-256 -189q-6 -6 -13 -6q-4 0 -10 6z" />
    <glyph glyph-name="icircumflex" unicode="&#xee;" horiz-adv-x="438" 
d="M215 1024h8q21 0 21 -23v-978q0 -23 -21 -23h-8q-20 0 -20 23v978q0 23 20 23zM-51 1212l-4 5q-4 4 -4 8q0 9 8 14l227 207q15 12 33 12h16q19 0 31 -12l229 -207q9 -9 9 -14q0 -1 -1 -2t-2 -2.5t-2 -3.5l-4 -5q-8 -4 -10 -4q-4 0 -12 4l-246 195l-246 -195q-8 -4 -12 -4
q-6 0 -10 4z" />
    <glyph glyph-name="idieresis" unicode="&#xef;" horiz-adv-x="438" 
d="M215 1024h8q21 0 21 -23v-978q0 -23 -21 -23h-8q-20 0 -20 23v978q0 23 20 23zM14 1458q22 0 38 -15.5t16 -37.5t-16 -37.5t-38 -15.5t-37.5 15.5t-15.5 37.5t15.5 37.5t37.5 15.5zM424 1458q22 0 37.5 -15.5t15.5 -37.5t-15.5 -37.5t-37.5 -15.5t-37.5 15.5t-15.5 37.5
t15.5 37.5t37.5 15.5z" />
    <glyph glyph-name="eth" unicode="&#xf0;" horiz-adv-x="1159" 
d="M844 1350l-152 -82q6 -4 41 -29q324 -271 324 -778q0 -98 -38 -188t-101.5 -155t-152.5 -104t-187 -39q-130 0 -240 65.5t-173 177.5t-63 243t63 242.5t172.5 177t240.5 65.5q79 0 143 -19t112.5 -56.5t82.5 -77.5t69 -97q-19 145 -88 272t-182 224q-57 45 -70 53
l-168 -90q-4 -2 -12 -2q-7 0 -13 6t-6 12q0 11 13 17l151 80q-84 55 -188 98q-14 5 -49 14q-15 4 -41.5 14t-36.5 13q-18 7 -12 23l4 10q5 10 14 10q1 0 5.5 -1t6.5 -1q146 -41 269 -107q25 -13 75 -49l168 90q8 4 13 4q18 0 18 -18q0 -12 -12 -18zM578 899q-115 0 -213 -60
t-153.5 -160.5t-55.5 -217.5t55.5 -217.5t153.5 -160.5t213 -60q113 0 211 59.5t156.5 160t58.5 216.5t-58.5 217.5t-157 162t-210.5 60.5z" />
    <glyph glyph-name="ntilde" unicode="&#xf1;" horiz-adv-x="1218" 
d="M1044 614v-591q0 -23 -20 -23h-8q-21 0 -21 23v581q0 182 -93 291t-267 109q-184 0 -287.5 -115t-103.5 -285v-581q0 -23 -21 -23h-8q-20 0 -20 23v978q0 23 20 23h8q21 0 21 -23v-192q54 113 153.5 176.5t237.5 63.5q189 0 299 -120t110 -315zM864 1415h10q17 0 17 -14
q2 -66 -33.5 -118.5t-97.5 -51.5q-28 0 -57.5 13t-48.5 27.5t-48 39.5q-26 22 -41.5 34t-39 22.5t-44.5 10.5q-79 0 -88 -123q0 -18 -18 -18h-10q-17 0 -17 14q2 70 34.5 120.5t98.5 49.5q28 0 57.5 -13t48.5 -27.5t48 -39.5q26 -22 41.5 -34t39 -22.5t44.5 -10.5
q79 0 88 123q0 18 16 18z" />
    <glyph glyph-name="ograve" unicode="&#xf2;" horiz-adv-x="1286" 
d="M643 1049q153 0 277 -70t194 -192.5t70 -274.5t-70 -274.5t-194 -192.5t-277 -70t-277 70t-194 192.5t-70 274.5t70 274.5t194 192.5t277 70zM643 20q211 0 350.5 142t139.5 350t-139.5 350t-350.5 142q-139 0 -251.5 -65t-175 -177.5t-62.5 -249.5t62.5 -249.5
t175 -177.5t251.5 -65zM737 1217l-4 -5q-4 -4 -10 -4q-2 0 -10 4l-258 189q-9 6 -9 12q0 5 7 12l16 21q6 6 10 6q9 0 15 -6l239 -207q8 -5 8 -14q0 -4 -4 -8z" />
    <glyph glyph-name="oacute" unicode="&#xf3;" horiz-adv-x="1286" 
d="M643 1049q153 0 277 -70t194 -192.5t70 -274.5t-70 -274.5t-194 -192.5t-277 -70t-277 70t-194 192.5t-70 274.5t70 274.5t194 192.5t277 70zM643 20q211 0 350.5 142t139.5 350t-139.5 350t-350.5 142q-139 0 -251.5 -65t-175 -177.5t-62.5 -249.5t62.5 -249.5
t175 -177.5t251.5 -65zM553 1212l-4 5q-4 4 -4 8q0 9 8 14l240 207q6 6 12 6t12 -6l19 -21q4 -8 4 -10q0 -5 -9 -14l-256 -189q-6 -6 -12 -6q-4 0 -10 6z" />
    <glyph glyph-name="ocircumflex" unicode="&#xf4;" horiz-adv-x="1286" 
d="M643 1049q153 0 277 -70t194 -192.5t70 -274.5t-70 -274.5t-194 -192.5t-277 -70t-277 70t-194 192.5t-70 274.5t70 274.5t194 192.5t277 70zM643 20q211 0 350.5 142t139.5 350t-139.5 350t-350.5 142q-139 0 -251.5 -65t-175 -177.5t-62.5 -249.5t62.5 -249.5
t175 -177.5t251.5 -65zM375 1212l-4 5q-4 4 -4 8q0 9 8 14l227 207q15 12 33 12h16q19 0 31 -12l229 -207q9 -9 9 -14q0 -1 -1 -2t-2 -2.5t-2 -3.5l-4 -5q-4 -4 -10 -4q-4 0 -12 4l-246 195l-246 -195q-8 -4 -12 -4q-2 0 -10 4z" />
    <glyph glyph-name="otilde" unicode="&#xf5;" horiz-adv-x="1286" 
d="M643 1049q153 0 277 -70t194 -192.5t70 -274.5t-70 -274.5t-194 -192.5t-277 -70t-277 70t-194 192.5t-70 274.5t70 274.5t194 192.5t277 70zM643 20q211 0 350.5 142t139.5 350t-139.5 350t-350.5 142q-139 0 -251.5 -65t-175 -177.5t-62.5 -249.5t62.5 -249.5
t175 -177.5t251.5 -65zM887 1415h10q16 0 16 -14q2 -66 -33.5 -118.5t-97.5 -51.5q-28 0 -57.5 13.5t-48 27.5t-47.5 39q-26 22 -41.5 34t-39 22.5t-44.5 10.5q-79 0 -88 -123q0 -18 -19 -18h-10q-16 0 -16 14q2 70 34.5 120.5t98.5 49.5q28 0 57.5 -13.5t48 -27.5t47.5 -39
q26 -22 41.5 -34t39 -22.5t44.5 -10.5q79 0 88 123q0 18 17 18z" />
    <glyph glyph-name="odieresis" unicode="&#xf6;" horiz-adv-x="1286" 
d="M643 1049q153 0 277 -70t194 -192.5t70 -274.5t-70 -274.5t-194 -192.5t-277 -70t-277 70t-194 192.5t-70 274.5t70 274.5t194 192.5t277 70zM643 20q211 0 350.5 142t139.5 350t-139.5 350t-350.5 142q-139 0 -251.5 -65t-175 -177.5t-62.5 -249.5t62.5 -249.5
t175 -177.5t251.5 -65zM438 1458q22 0 38 -15.5t16 -37.5t-16 -37.5t-38 -15.5t-37.5 15.5t-15.5 37.5t15.5 37.5t37.5 15.5zM848 1458q22 0 37.5 -15.5t15.5 -37.5t-15.5 -37.5t-37.5 -15.5t-37.5 15.5t-15.5 37.5t15.5 37.5t37.5 15.5z" />
    <glyph glyph-name="divide" unicode="&#xf7;" 
d="M731 317q0 -26 -19.5 -45.5t-45.5 -19.5t-46 19.5t-20 45.5q0 28 18.5 47t47.5 19q30 0 47.5 -18.5t17.5 -47.5zM731 1059q0 -26 -19.5 -46t-45.5 -20t-46 20t-20 46q0 27 18.5 45t47.5 18q30 0 47.5 -18t17.5 -45zM258 709h815q23 0 23 -21v-4q0 -20 -23 -20h-815
q-22 0 -22 20v4q0 21 22 21z" />
    <glyph glyph-name="oslash" unicode="&#xf8;" horiz-adv-x="1286" 
d="M168 -84l131 174q-131 107 -176 270q-18 64 -21 152q0 152 70 274.5t194 192.5t277 70q167 0 309 -91l115 152q11 16 31 16h12q10 0 10 -10q0 -6 -2 -8l-131 -174q131 -107 176 -270q18 -64 21 -152q0 -152 -70 -274.5t-194 -192.5t-277 -70q-177 6 -309 91l-115 -152
q-11 -16 -31 -16h-12q-10 0 -10 10q0 6 2 8zM328 129l596 791q-121 84 -281 84q-139 0 -251.5 -65t-175 -177.5t-62.5 -249.5q0 -112 44.5 -212t129.5 -171zM958 895l-596 -791q121 -84 281 -84q211 0 350.5 142t139.5 350q0 112 -45 212t-130 171z" />
    <glyph glyph-name="ugrave" unicode="&#xf9;" horiz-adv-x="1198" 
d="M174 410v591q0 23 21 23h8q20 0 20 -23v-581q0 -182 90.5 -291t259.5 -109q121 0 209 56t130 145t42 199v581q0 23 21 23h8q21 0 21 -23v-978q0 -23 -21 -23h-8q-21 0 -21 23v192q-52 -113 -149 -176.5t-232 -63.5q-185 0 -292 120t-107 315zM682 1217l-4 -5
q-4 -4 -10 -4q-3 0 -11 4l-258 189q-8 5 -8 12q0 6 6 12l17 21q6 6 10 6q8 0 14 -6l240 -207q8 -5 8 -14q0 -4 -4 -8z" />
    <glyph glyph-name="uacute" unicode="&#xfa;" horiz-adv-x="1198" 
d="M174 410v591q0 23 21 23h8q20 0 20 -23v-581q0 -182 90.5 -291t259.5 -109q121 0 209 56t130 145t42 199v581q0 23 21 23h8q21 0 21 -23v-978q0 -23 -21 -23h-8q-21 0 -21 23v192q-52 -113 -149 -176.5t-232 -63.5q-185 0 -292 120t-107 315zM500 1212l-4 5q-4 4 -4 8
q0 9 8 14l239 207q6 6 13 6q6 0 12 -6l18 -21q4 -8 4 -10q0 -6 -8 -14l-256 -189q-6 -6 -12 -6q-4 0 -10 6z" />
    <glyph glyph-name="ucircumflex" unicode="&#xfb;" horiz-adv-x="1198" 
d="M174 410v591q0 23 21 23h8q20 0 20 -23v-581q0 -182 90.5 -291t259.5 -109q121 0 209 56t130 145t42 199v581q0 23 21 23h8q21 0 21 -23v-978q0 -23 -21 -23h-8q-21 0 -21 23v192q-52 -113 -149 -176.5t-232 -63.5q-185 0 -292 120t-107 315zM319 1212l-4 5q-4 4 -4 8
q0 9 8 14l228 207q15 12 33 12h16q19 0 31 -12l229 -207q8 -8 8 -14l-4 -8l-4 -5q-4 -4 -10 -4q-4 0 -12 4l-246 195l-246 -195q-8 -4 -12 -4q-3 0 -11 4z" />
    <glyph glyph-name="udieresis" unicode="&#xfc;" horiz-adv-x="1198" 
d="M174 410v591q0 23 21 23h8q20 0 20 -23v-581q0 -182 90.5 -291t259.5 -109q121 0 209 56t130 145t42 199v581q0 23 21 23h8q21 0 21 -23v-978q0 -23 -21 -23h-8q-21 0 -21 23v192q-52 -113 -149 -176.5t-232 -63.5q-185 0 -292 120t-107 315zM385 1458q22 0 37.5 -15.5
t15.5 -37.5t-15.5 -37.5t-37.5 -15.5t-37.5 15.5t-15.5 37.5t15.5 37.5t37.5 15.5zM795 1458q22 0 37.5 -15.5t15.5 -37.5t-15.5 -37.5t-37.5 -15.5t-38 15.5t-16 37.5t16 37.5t38 15.5z" />
    <glyph glyph-name="yacute" unicode="&#xfd;" horiz-adv-x="1097" 
d="M518 0l-446 1001q-2 4 -2 11q0 12 14 12h12q18 0 27 -18l426 -959l426 959q9 18 26 18h13q16 0 16 -12q0 -3 -4 -11l-563 -1261q-41 -94 -84 -134t-111 -40q-63 0 -114 26q-19 10 -19 21q0 6 2 10l4 6q6 9 13 9l10 -5q49 -24 104 -24q47 0 80 29t66 102l116 260h-12z
M459 1212l-4 5q-2 2 -2 8q0 8 6 14l239 207q6 6 13 6q6 0 12 -6l18 -21q7 -7 7 -10q0 -7 -11 -14l-256 -189q-6 -6 -12 -6q-4 0 -10 6z" />
    <glyph glyph-name="thorn" unicode="&#xfe;" horiz-adv-x="1316" 
d="M213 1528l10 2q9 3 15 -2.5t6 -14.5v-761q65 140 185 218.5t273 78.5q222 0 367 -153t145 -384t-145 -384t-367 -153q-153 0 -273 78.5t-185 218.5v-659q0 -23 -21 -23h-8q-20 0 -20 23v1890q0 20 18 25zM702 20q198 0 329.5 142t131.5 350t-131.5 350t-329.5 142
q-130 0 -235 -65t-163 -177.5t-58 -249.5t58 -249.5t163 -177.5t235 -65z" />
    <glyph glyph-name="ydieresis" unicode="&#xff;" horiz-adv-x="1097" 
d="M518 0l-446 1001q-2 4 -2 11q0 12 14 12h12q18 0 27 -18l426 -959l426 959q9 18 26 18h13q16 0 16 -12q0 -3 -4 -11l-563 -1261q-41 -94 -84 -134t-111 -40q-63 0 -114 26q-19 10 -19 21q0 6 2 10l4 6q6 9 13 9l10 -5q49 -24 104 -24q47 0 80 29t66 102l116 260h-12z
M344 1458q22 0 37.5 -15.5t15.5 -37.5t-15.5 -37.5t-37.5 -15.5t-37.5 15.5t-15.5 37.5t15.5 37.5t37.5 15.5zM754 1458q22 0 37.5 -15.5t15.5 -37.5t-15.5 -37.5t-37.5 -15.5t-38 15.5t-16 37.5t16 37.5t38 15.5z" />
    <glyph glyph-name="Amacron" unicode="&#x100;" horiz-adv-x="1400" 
d="M455 1726h495q19 0 19 -16v-10q0 -17 -19 -17h-495q-19 0 -19 17v10q0 16 19 16zM688 1434h25q19 0 28 -21l588 -1388q2 -2 2 -9q0 -6 -5.5 -11t-12.5 -5h-8q-20 0 -29 20l-158 375h-835l-158 -375q-9 -20 -27 -20h-10q-18 0 -18 14q0 4 8 25l581 1374q9 21 29 21z
M1098 442l-398 944l-397 -944h795z" />
    <glyph glyph-name="amacron" unicode="&#x101;" horiz-adv-x="1177" 
d="M983 0h-8q-21 0 -21 23v161q-120 -209 -401 -209q-172 0 -285.5 92.5t-113.5 243.5t119 242.5t300 91.5q116 0 191 -11t190 -40l-2 61q0 158 -90.5 253.5t-257.5 95.5q-200 0 -346 -109q-12 -8 -20 -8q-7 0 -13 6l-6 6q-6 6 -6 12q0 5 18 23q71 56 170.5 85.5t202.5 29.5
q185 0 292.5 -106t107.5 -277v-643q0 -23 -21 -23zM954 358v189q-100 31 -181 42t-200 11q-158 0 -263 -80t-105 -209t99.5 -210t248.5 -81q175 0 288 90.5t113 247.5zM332 1348h495q19 0 19 -17v-10q0 -16 -19 -16h-495q-19 0 -19 16v10q0 17 19 17z" />
    <glyph glyph-name="Abreve" unicode="&#x102;" horiz-adv-x="1400" 
d="M688 1434h25q19 0 28 -21l588 -1388q2 -2 2 -9q0 -6 -5.5 -11t-12.5 -5h-8q-20 0 -29 20l-158 375h-835l-158 -375q-9 -20 -27 -20h-10q-18 0 -18 14q0 4 8 25l581 1374q9 21 29 21zM1098 442l-398 944l-397 -944h795zM461 1829h10q7 0 11 -3t6.5 -9.5t4 -12t3 -15
t2.5 -15.5q19 -70 72 -110t128 -40t128.5 40t72.5 110q1 6 2.5 15.5t3 15t4 12t6.5 9.5t11 3h10q16 0 16 -14q0 -22 -8 -54q-22 -79 -90.5 -129.5t-155.5 -50.5t-155 50.5t-90 129.5q-9 36 -9 54q0 14 17 14z" />
    <glyph glyph-name="abreve" unicode="&#x103;" horiz-adv-x="1177" 
d="M983 0h-8q-21 0 -21 23v161q-120 -209 -401 -209q-172 0 -285.5 92.5t-113.5 243.5t119 242.5t300 91.5q116 0 191 -11t190 -40l-2 61q0 158 -90.5 253.5t-257.5 95.5q-200 0 -346 -109q-12 -8 -20 -8q-7 0 -13 6l-6 6q-6 6 -6 12q0 5 18 23q71 56 170.5 85.5t202.5 29.5
q185 0 292.5 -106t107.5 -277v-643q0 -23 -21 -23zM954 358v189q-100 31 -181 42t-200 11q-158 0 -263 -80t-105 -209t99.5 -210t248.5 -81q175 0 288 90.5t113 247.5zM336 1450h10q7 0 11 -3t6.5 -9.5t4 -12t3 -15t2.5 -15.5q19 -70 72 -110t128 -40t128.5 40t72.5 110
q1 6 2.5 15.5t3 15t4 12t6.5 9.5t11 3h10q16 0 16 -14q0 -22 -8 -54q-22 -79 -90.5 -129.5t-155.5 -50.5t-155 50.5t-90 129.5q-9 36 -9 54q0 14 17 14z" />
    <glyph glyph-name="Aogonek" unicode="&#x104;" horiz-adv-x="1400" 
d="M1282 4l-6 16l-158 375h-835l-158 -375q-9 -20 -27 -20h-10q-10 0 -14.5 8t-1.5 17l587 1388q9 21 29 21h25q19 0 28 -21l590 -1393q2 -4 2 -10q0 -14 -20 -24q-71 -40 -111.5 -83t-40.5 -108q0 -54 32.5 -82t94.5 -28q10 0 31.5 3t30.5 3q11 0 14 -13l2 -10
q3 -17 -12 -20q-34 -6 -66 -6q-83 0 -128.5 41.5t-45.5 111.5q3 69 50 121.5t118 87.5zM1098 442l-398 944l-397 -944h795z" />
    <glyph glyph-name="aogonek" unicode="&#x105;" horiz-adv-x="1177" 
d="M954 8v176q-120 -209 -401 -209q-172 0 -285.5 92.5t-113.5 243.5t119 242.5t300 91.5q116 0 191 -11t190 -40l-2 61q0 158 -90.5 253.5t-257.5 95.5q-200 0 -346 -109q-12 -8 -20 -8q-7 0 -13 6l-6 6q-6 6 -6 12q0 5 18 23q71 56 170.5 85.5t202.5 29.5
q185 0 292.5 -106t107.5 -277v-646q0 -18 -21 -30q-74 -41 -116 -85t-42 -110q0 -54 32.5 -82t94.5 -28q10 0 31.5 3t30.5 3q11 0 14 -13l2 -10q3 -17 -12 -20q-35 -6 -66 -6q-83 0 -128.5 41.5t-45.5 111.5q5 133 176 213zM954 358v189q-100 31 -181 42t-200 11
q-158 0 -263 -80t-105 -209t99.5 -210t248.5 -81q175 0 288 90.5t113 247.5z" />
    <glyph glyph-name="Cacute" unicode="&#x106;" horiz-adv-x="1566" 
d="M752 1591l-4 4q-5 5 -5 9q0 8 9 14l239 207q6 6 13 6q6 0 12 -6l18 -21q4 -8 4 -10q0 -6 -8 -14l-256 -189q-6 -6 -12 -6q-4 0 -10 6zM1419 274l6 -4q9 -6 9 -16q0 -9 -21 -35q-102 -119 -251 -181.5t-312 -62.5q-212 0 -381 97.5t-262.5 267t-93.5 377.5t93.5 377
t262.5 266.5t381 97.5q163 0 312 -62.5t251 -181.5q2 -2 9 -9.5t10.5 -13.5t3.5 -11q0 -9 -9 -15l-8 -6q-6 -6 -14 -6q-10 0 -27 21q-59 66 -112 104q-183 133 -416 133q-196 0 -353 -92t-244 -250.5t-87 -351.5t87 -351.5t244 -250.5t353 -92q233 0 416 133q49 35 114 104
q19 19 27 19q2 0 12 -5z" />
    <glyph glyph-name="cacute" unicode="&#x107;" horiz-adv-x="1153" 
d="M1036 193l8 -7q9 -6 9 -14q0 -5 -15 -25q-73 -84 -181 -128t-224 -44q-228 0 -379.5 153t-151.5 384t151.5 384t379.5 153q233 0 403 -170q17 -17 17 -29q0 -6 -9 -12l-8 -7q-8 -4 -12 -4q-7 0 -14 7q-3 3 -9.5 9t-9.5 9q-44 44 -65 59q-131 93 -293 93
q-206 0 -342.5 -142t-136.5 -350t136.5 -350t342.5 -142q117 0 223 50q82 42 148 114q13 13 20 13q4 0 12 -4zM522 1212l-4 5q-4 4 -4 8q0 9 8 14l240 207q6 6 12 6t12 -6l19 -21q4 -8 4 -10q0 -6 -8 -14l-256 -189q-6 -6 -13 -6q-4 0 -10 6z" />
    <glyph glyph-name="Ccircumflex" unicode="&#x108;" horiz-adv-x="1566" 
d="M573 1591l-4 4q-4 4 -4 9q0 9 8 14l228 207q15 12 33 12h16q19 0 31 -12l229 -207q8 -8 8 -14q0 -1 -4 -9l-4 -4q-4 -4 -10 -4q-5 0 -13 4l-245 195l-246 -195q-8 -4 -12 -4q-3 0 -11 4zM1419 274l6 -4q9 -6 9 -16q0 -9 -21 -35q-102 -119 -251 -181.5t-312 -62.5
q-212 0 -381 97.5t-262.5 267t-93.5 377.5t93.5 377t262.5 266.5t381 97.5q163 0 312 -62.5t251 -181.5q2 -2 9 -9.5t10.5 -13.5t3.5 -11q0 -9 -9 -15l-8 -6q-6 -6 -14 -6q-10 0 -27 21q-59 66 -112 104q-183 133 -416 133q-196 0 -353 -92t-244 -250.5t-87 -351.5
t87 -351.5t244 -250.5t353 -92q233 0 416 133q49 35 114 104q19 19 27 19q2 0 12 -5z" />
    <glyph glyph-name="ccircumflex" unicode="&#x109;" horiz-adv-x="1153" 
d="M1036 193l8 -7q9 -6 9 -14q0 -5 -15 -25q-73 -84 -181 -128t-224 -44q-228 0 -379.5 153t-151.5 384t151.5 384t379.5 153q233 0 403 -170q17 -17 17 -29q0 -6 -9 -12l-8 -7q-8 -4 -12 -4q-7 0 -14 7q-3 3 -9.5 9t-9.5 9q-44 44 -65 59q-131 93 -293 93
q-206 0 -342.5 -142t-136.5 -350t136.5 -350t342.5 -142q117 0 223 50q82 42 148 114q13 13 20 13q4 0 12 -4zM344 1212l-4 5q-4 4 -4 8q0 9 8 14l227 207q15 12 33 12h17q18 0 30 -12l230 -207q8 -8 8 -14l-4 -8l-4 -5q-4 -4 -11 -4q-4 0 -12 4l-246 195l-245 -195
q-8 -4 -13 -4q-2 0 -10 4z" />
    <glyph glyph-name="Cdotaccent" unicode="&#x10a;" horiz-adv-x="1566" 
d="M842 1837q22 0 37.5 -15.5t15.5 -37.5t-15.5 -37.5t-37.5 -15.5t-38 15.5t-16 37.5t16 37.5t38 15.5zM1419 274l6 -4q9 -6 9 -16q0 -9 -21 -35q-102 -119 -251 -181.5t-312 -62.5q-212 0 -381 97.5t-262.5 267t-93.5 377.5t93.5 377t262.5 266.5t381 97.5
q163 0 312 -62.5t251 -181.5q2 -2 9 -9.5t10.5 -13.5t3.5 -11q0 -9 -9 -15l-8 -6q-6 -6 -14 -6q-10 0 -27 21q-59 66 -112 104q-183 133 -416 133q-196 0 -353 -92t-244 -250.5t-87 -351.5t87 -351.5t244 -250.5t353 -92q233 0 416 133q49 35 114 104q19 19 27 19q2 0 12 -5
z" />
    <glyph glyph-name="cdotaccent" unicode="&#x10b;" horiz-adv-x="1153" 
d="M1036 193l8 -7q9 -6 9 -14q0 -5 -15 -25q-73 -84 -181 -128t-224 -44q-228 0 -379.5 153t-151.5 384t151.5 384t379.5 153q233 0 403 -170q17 -17 17 -29q0 -6 -9 -12l-8 -7q-8 -4 -12 -4q-7 0 -14 7q-3 3 -9.5 9t-9.5 9q-44 44 -65 59q-131 93 -293 93
q-206 0 -342.5 -142t-136.5 -350t136.5 -350t342.5 -142q117 0 223 50q82 42 148 114q13 13 20 13q4 0 12 -4zM612 1458q22 0 38 -15.5t16 -37.5t-16 -37.5t-38 -15.5t-37.5 15.5t-15.5 37.5t15.5 37.5t37.5 15.5z" />
    <glyph glyph-name="Ccaron" unicode="&#x10c;" horiz-adv-x="1566" 
d="M569 1823l4 4q8 4 11 4q4 0 12 -4l246 -195l245 195q8 4 13 4q6 0 10 -4l4 -4l4 -8q0 -7 -8 -15l-229 -207q-12 -12 -31 -12h-16q-18 0 -33 12l-228 207q-8 5 -8 15q0 4 4 8zM1419 274l6 -4q9 -6 9 -16q0 -9 -21 -35q-102 -119 -251 -181.5t-312 -62.5q-212 0 -381 97.5
t-262.5 267t-93.5 377.5t93.5 377t262.5 266.5t381 97.5q163 0 312 -62.5t251 -181.5q2 -2 9 -9.5t10.5 -13.5t3.5 -11q0 -9 -9 -15l-8 -6q-6 -6 -14 -6q-10 0 -27 21q-59 66 -112 104q-183 133 -416 133q-196 0 -353 -92t-244 -250.5t-87 -351.5t87 -351.5t244 -250.5
t353 -92q233 0 416 133q49 35 114 104q19 19 27 19q2 0 12 -5z" />
    <glyph glyph-name="ccaron" unicode="&#x10d;" horiz-adv-x="1153" 
d="M1036 193l8 -7q9 -6 9 -14q0 -5 -15 -25q-73 -84 -181 -128t-224 -44q-228 0 -379.5 153t-151.5 384t151.5 384t379.5 153q233 0 403 -170q17 -17 17 -29q0 -6 -9 -12l-8 -7q-8 -4 -12 -4q-7 0 -14 7q-3 3 -9.5 9t-9.5 9q-44 44 -65 59q-131 93 -293 93
q-206 0 -342.5 -142t-136.5 -350t136.5 -350t342.5 -142q117 0 223 50q82 42 148 114q13 13 20 13q4 0 12 -4zM340 1444l4 4q8 4 10 4q5 0 13 -4l245 -195l246 195q8 4 12 4q7 0 11 -4l4 -4l4 -8q0 -7 -8 -15l-230 -207q-12 -12 -30 -12h-17q-18 0 -33 12l-227 207
q-8 5 -8 15q0 4 4 8z" />
    <glyph glyph-name="Dcaron" unicode="&#x10e;" horiz-adv-x="1576" 
d="M240 1434h456q171 0 311 -52t236 -145.5t148.5 -226.5t52.5 -293t-52.5 -293t-148.5 -226.5t-236 -145.5t-311 -52h-456q-25 0 -25 25v1384q0 25 25 25zM266 1386v-1339h441q313 0 498.5 184.5t185.5 485.5t-185.5 485t-498.5 184h-441zM463 1823l4 4q8 4 10 4q4 0 12 -4
l246 -195l246 195q8 4 12 4q7 0 11 -4l4 -4l4 -8q0 -7 -8 -15l-230 -207q-12 -12 -31 -12h-16q-18 0 -33 12l-227 207q-8 5 -8 15q0 4 4 8z" />
    <glyph glyph-name="dcaron" unicode="&#x10f;" horiz-adv-x="1525" 
d="M1102 0h-8q-21 0 -21 23v249q-65 -140 -185.5 -218.5t-273.5 -78.5q-222 0 -367 153t-145 384t145 384t367 153q153 0 273.5 -78.5t185.5 -218.5v749q0 19 12 23l19 6q10 3 14 -1.5t4 -17.5v-1488q0 -23 -20 -23zM614 20q98 0 183.5 38.5t145 104t94 156.5t34.5 193
t-34.5 193t-94 156.5t-145 104t-183.5 38.5q-198 0 -329 -142t-131 -350t131 -350t329 -142zM1470 1217l89 305q3 14 18 14h33q18 0 12 -16l-109 -306q-6 -16 -20 -16h-10q-7 0 -11 5.5t-2 13.5z" />
    <glyph glyph-name="Dcroat" unicode="&#x110;" horiz-adv-x="1658" 
d="M297 698h-129q-25 0 -25 23v4q0 20 25 20h129v664q0 25 25 25h456q171 0 311 -52t236 -145.5t148.5 -226.5t52.5 -293t-52.5 -293t-148.5 -226.5t-236 -145.5t-311 -52h-456q-25 0 -25 25v673zM348 745h385q25 0 25 -20v-4q0 -23 -25 -23h-385v-651h440q313 0 499 184.5
t186 485.5t-186 485t-499 184h-440v-641z" />
    <glyph glyph-name="dcroat" unicode="&#x111;" horiz-adv-x="1357" 
d="M1122 1294v-1271q0 -23 -20 -23h-8q-21 0 -21 23v249q-65 -140 -185.5 -218.5t-273.5 -78.5q-222 0 -367 153t-145 384t145 384t367 153q153 0 273.5 -78.5t185.5 -218.5v542h-315q-23 0 -23 21v6q0 20 23 20h315v160q0 19 12 23l19 6q10 3 14 -1.5t4 -17.5v-170h162
q23 0 23 -20v-6q0 -21 -23 -21h-162zM614 20q98 0 183.5 38.5t145 104t94 156.5t34.5 193t-34.5 193t-94 156.5t-145 104t-183.5 38.5q-198 0 -329 -142t-131 -350t131 -350t329 -142z" />
    <glyph glyph-name="Emacron" unicode="&#x112;" horiz-adv-x="1157" 
d="M1034 1413v-4q0 -23 -24 -23h-744v-651h590q25 0 25 -20v-4q0 -23 -25 -23h-590v-641h764q25 0 25 -20v-4q0 -23 -25 -23h-790q-25 0 -25 25v1384q0 25 25 25h770q24 0 24 -21zM387 1726h496q18 0 18 -16v-10q0 -17 -18 -17h-496q-18 0 -18 17v10q0 16 18 16z" />
    <glyph glyph-name="emacron" unicode="&#x113;" horiz-adv-x="1198" 
d="M1073 492h-919q13 -218 151 -347q131 -125 318 -125q166 0 297 93q21 15 65 59l19 18q7 7 14 7q4 0 12 -4l8 -7q9 -9 9 -16l-5 -10q-77 -89 -185 -137t-234 -48q-224 0 -372.5 153.5t-148.5 383.5t148.5 383.5t372.5 153.5q134 0 243.5 -71.5t169.5 -188.5t60 -254v-21
q0 -22 -23 -22zM154 535h893q-3 98 -36.5 188.5t-97.5 155.5q-125 125 -290 125q-193 0 -318 -125q-138 -129 -151 -344zM352 1348h496q18 0 18 -17v-10q0 -16 -18 -16h-496q-18 0 -18 16v10q0 17 18 17z" />
    <glyph glyph-name="Ebreve" unicode="&#x114;" horiz-adv-x="1157" 
d="M1034 1413v-4q0 -23 -24 -23h-744v-651h590q25 0 25 -20v-4q0 -23 -25 -23h-590v-641h764q25 0 25 -20v-4q0 -23 -25 -23h-790q-25 0 -25 25v1384q0 25 25 25h770q24 0 24 -21zM397 1829h11q8 0 13 -5.5t6.5 -12t3.5 -19t3 -18.5q19 -70 72.5 -110t128.5 -40t128.5 40
t72.5 110q1 6 3 18.5t3.5 19t6.5 12t13 5.5h10q17 0 17 -14q0 -22 -8 -54q-22 -79 -90.5 -129.5t-155.5 -50.5t-155.5 50.5t-90.5 129.5q-8 32 -8 54q0 14 16 14z" />
    <glyph glyph-name="ebreve" unicode="&#x115;" horiz-adv-x="1198" 
d="M1073 492h-919q13 -218 151 -347q131 -125 318 -125q166 0 297 93q21 15 65 59l19 18q7 7 14 7q4 0 12 -4l8 -7q9 -9 9 -16l-5 -10q-77 -89 -185 -137t-234 -48q-224 0 -372.5 153.5t-148.5 383.5t148.5 383.5t372.5 153.5q134 0 243.5 -71.5t169.5 -188.5t60 -254v-21
q0 -22 -23 -22zM154 535h893q-3 98 -36.5 188.5t-97.5 155.5q-125 125 -290 125q-193 0 -318 -125q-138 -129 -151 -344zM360 1450h11q8 0 13 -5.5t6.5 -12t3.5 -19t3 -18.5q19 -70 72.5 -110t128.5 -40t128.5 40t72.5 110q1 6 3 18.5t3.5 19t6.5 12t13 5.5h11q16 0 16 -14
q0 -22 -8 -54q-22 -79 -90.5 -129.5t-155.5 -50.5t-155.5 50.5t-90.5 129.5q-8 32 -8 54q0 14 16 14z" />
    <glyph glyph-name="Edotaccent" unicode="&#x116;" horiz-adv-x="1157" 
d="M1034 1413v-4q0 -23 -24 -23h-744v-651h590q25 0 25 -20v-4q0 -23 -25 -23h-590v-641h764q25 0 25 -20v-4q0 -23 -25 -23h-790q-25 0 -25 25v1384q0 25 25 25h770q24 0 24 -21zM635 1837q22 0 37.5 -15.5t15.5 -37.5t-15.5 -37.5t-37.5 -15.5t-37.5 15.5t-15.5 37.5
t15.5 37.5t37.5 15.5z" />
    <glyph glyph-name="edotaccent" unicode="&#x117;" horiz-adv-x="1198" 
d="M1073 492h-919q13 -218 151 -347q131 -125 318 -125q166 0 297 93q21 15 65 59l19 18q7 7 14 7q4 0 12 -4l8 -7q9 -9 9 -16l-5 -10q-77 -89 -185 -137t-234 -48q-224 0 -372.5 153.5t-148.5 383.5t148.5 383.5t372.5 153.5q134 0 243.5 -71.5t169.5 -188.5t60 -254v-21
q0 -22 -23 -22zM154 535h893q-3 98 -36.5 188.5t-97.5 155.5q-125 125 -290 125q-193 0 -318 -125q-138 -129 -151 -344zM610 1458q22 0 38 -15.5t16 -37.5t-16 -37.5t-38 -15.5t-37.5 15.5t-15.5 37.5t15.5 37.5t37.5 15.5z" />
    <glyph glyph-name="Eogonek" unicode="&#x118;" horiz-adv-x="1157" 
d="M1079 -322l2 -10q3 -17 -12 -20q-35 -6 -65 -6q-83 0 -129 41.5t-46 111.5q3 67 47.5 119t112.5 86h-749q-25 0 -25 25v1384q0 25 25 25h770q24 0 24 -21v-4q0 -23 -24 -23h-744v-651h590q25 0 25 -20v-4q0 -23 -25 -23h-590v-641h764q25 0 25 -20v-7q0 -16 -13 -26
q-77 -41 -121 -86t-44 -113q0 -54 32.5 -82t94.5 -28q10 0 31 3t30 3q11 0 14 -13z" />
    <glyph glyph-name="eogonek" unicode="&#x119;" horiz-adv-x="1198" 
d="M1030 193l8 -7q9 -9 9 -16l-5 -10q-142 -154 -340 -178q-68 -39 -104 -80.5t-37 -106.5q0 -54 32.5 -82t94.5 -28q10 0 31.5 3t30.5 3q11 0 14 -13l2 -10q3 -17 -12 -20q-34 -6 -66 -6q-83 0 -128.5 41.5t-45.5 111.5q5 104 117 180h-8q-224 0 -372.5 153.5t-148.5 383.5
t148.5 383.5t372.5 153.5q134 0 243.5 -71.5t169.5 -188.5t60 -254v-21q0 -22 -23 -22h-919q13 -218 151 -347q131 -125 318 -125q166 0 297 93q21 15 65 59l19 18q7 7 14 7q4 0 12 -4zM154 535h893q-3 98 -36.5 188.5t-97.5 155.5q-125 125 -290 125q-193 0 -318 -125
q-138 -129 -151 -344z" />
    <glyph glyph-name="Ecaron" unicode="&#x11a;" horiz-adv-x="1157" 
d="M1034 1413v-4q0 -23 -24 -23h-744v-651h590q25 0 25 -20v-4q0 -23 -25 -23h-590v-641h764q25 0 25 -20v-4q0 -23 -25 -23h-790q-25 0 -25 25v1384q0 25 25 25h770q24 0 24 -21zM362 1823l5 4q8 4 10 4q4 0 12 -4l246 -195l246 195q8 4 12 4q6 0 10 -4l4 -4l4 -8
q0 -7 -8 -15l-229 -207q-12 -12 -31 -12h-16q-18 0 -33 12l-227 207q-9 6 -9 15q0 4 4 8z" />
    <glyph glyph-name="ecaron" unicode="&#x11b;" horiz-adv-x="1198" 
d="M1073 492h-919q13 -218 151 -347q131 -125 318 -125q166 0 297 93q21 15 65 59l19 18q7 7 14 7q4 0 12 -4l8 -7q9 -9 9 -16l-5 -10q-77 -89 -185 -137t-234 -48q-224 0 -372.5 153.5t-148.5 383.5t148.5 383.5t372.5 153.5q134 0 243.5 -71.5t169.5 -188.5t60 -254v-21
q0 -22 -23 -22zM154 535h893q-3 98 -36.5 188.5t-97.5 155.5q-125 125 -290 125q-193 0 -318 -125q-138 -129 -151 -344zM346 1444l4 4q8 4 10 4q5 0 13 -4l245 -195l246 195q8 4 13 4q6 0 10 -4l4 -4l4 -8q0 -7 -8 -15l-230 -207q-12 -12 -30 -12h-17q-17 0 -32 12
l-228 207q-8 5 -8 15q0 4 4 8z" />
    <glyph glyph-name="Gcircumflex" unicode="&#x11c;" horiz-adv-x="1566" 
d="M551 1591l-4 4q-4 4 -4 9q0 9 8 14l227 207q15 12 33 12h16q19 0 31 -12l229 -207q9 -9 9 -14q0 -1 -4 -9l-5 -4q-4 -4 -10 -4q-4 0 -12 4l-246 195l-246 -195q-8 -4 -12 -4q-2 0 -10 4zM1352 219v469h-478q-24 0 -24 23v4q0 20 24 20h504q25 0 25 -24v-478
q0 -29 -27 -59q-94 -97 -243 -148t-304 -51q-157 0 -291 57t-227 156t-145.5 236t-52.5 293t52.5 292.5t145.5 235.5t227 156t291 57q149 0 289.5 -50.5t243.5 -147.5q20 -20 20 -29t-8 -17l-6 -6q-6 -6 -14 -6q-10 0 -25 15q-57 54 -110 86q-175 108 -390 108
q-192 0 -344.5 -92t-235.5 -250.5t-83 -351.5q0 -194 83 -352t235.5 -250.5t344.5 -91.5q152 0 287.5 49t235.5 147z" />
    <glyph glyph-name="gcircumflex" unicode="&#x11d;" horiz-adv-x="1280" 
d="M170 -244l6 6q7 7 14 7q10 0 21 -11q77 -67 166 -104q105 -43 235 -43q209 0 316.5 99t107.5 270v321q-61 -132 -179.5 -206.5t-264.5 -74.5q-213 0 -351.5 146t-138.5 369t138.5 368.5t351.5 145.5q146 0 264.5 -74.5t179.5 -206.5v233q0 23 21 23h8q20 0 20 -23v-1032
q0 -191 -125 -297t-348 -106q-262 0 -430 149q-18 13 -18 27q0 8 6 14zM592 66q192 0 317 133t125 336t-125 336t-317 133q-190 0 -314 -133t-124 -336t124 -336t314 -133zM326 1212l-4 5q-5 5 -5 8q0 8 9 14l227 207q15 12 33 12h16q19 0 31 -12l229 -207q8 -8 8 -14l-4 -8
l-4 -5q-4 -4 -10 -4q-4 0 -12 4l-246 195l-246 -195q-8 -4 -12 -4q-2 0 -10 4z" />
    <glyph glyph-name="Gbreve" unicode="&#x11e;" horiz-adv-x="1566" 
d="M1352 219v469h-478q-24 0 -24 23v4q0 20 24 20h504q25 0 25 -24v-478q0 -29 -27 -59q-94 -97 -243 -148t-304 -51q-157 0 -291 57t-227 156t-145.5 236t-52.5 293t52.5 292.5t145.5 235.5t227 156t291 57q149 0 289.5 -50.5t243.5 -147.5q20 -20 20 -29t-8 -17l-6 -6
q-6 -6 -14 -6q-10 0 -25 15q-57 54 -110 86q-175 108 -390 108q-192 0 -344.5 -92t-235.5 -250.5t-83 -351.5q0 -194 83 -352t235.5 -250.5t344.5 -91.5q152 0 287.5 49t235.5 147zM573 1829h11q8 0 13 -5.5t6.5 -12t3.5 -19t3 -18.5q19 -70 72.5 -110t128.5 -40t128.5 40
t72.5 110q1 6 3 18.5t3.5 19t6.5 12t13 5.5h11q16 0 16 -14q0 -22 -8 -54q-22 -79 -90.5 -129.5t-155.5 -50.5t-155.5 50.5t-90.5 129.5q-8 32 -8 54q0 14 16 14z" />
    <glyph glyph-name="gbreve" unicode="&#x11f;" horiz-adv-x="1280" 
d="M170 -244l6 6q7 7 14 7q10 0 21 -11q77 -67 166 -104q105 -43 235 -43q209 0 316.5 99t107.5 270v321q-61 -132 -179.5 -206.5t-264.5 -74.5q-213 0 -351.5 146t-138.5 369t138.5 368.5t351.5 145.5q146 0 264.5 -74.5t179.5 -206.5v233q0 23 21 23h8q20 0 20 -23v-1032
q0 -191 -125 -297t-348 -106q-262 0 -430 149q-18 13 -18 27q0 8 6 14zM592 66q192 0 317 133t125 336t-125 336t-317 133q-190 0 -314 -133t-124 -336t124 -336t314 -133zM354 1450h11q8 0 13 -5.5t6.5 -12t3.5 -19t3 -18.5q19 -70 72.5 -110t128.5 -40t128.5 40t72.5 110
q1 6 3 18.5t3.5 19t6.5 12t13 5.5h10q17 0 17 -14q0 -22 -8 -54q-22 -79 -90.5 -129.5t-155.5 -50.5t-155.5 50.5t-90.5 129.5q-8 32 -8 54q0 14 16 14z" />
    <glyph glyph-name="Gdotaccent" unicode="&#x120;" horiz-adv-x="1566" 
d="M819 1837q22 0 37.5 -15.5t15.5 -37.5t-15.5 -37.5t-37.5 -15.5t-37.5 15.5t-15.5 37.5t15.5 37.5t37.5 15.5zM1352 219v469h-478q-24 0 -24 23v4q0 20 24 20h504q25 0 25 -24v-478q0 -29 -27 -59q-94 -97 -243 -148t-304 -51q-157 0 -291 57t-227 156t-145.5 236
t-52.5 293t52.5 292.5t145.5 235.5t227 156t291 57q149 0 289.5 -50.5t243.5 -147.5q20 -20 20 -29t-8 -17l-6 -6q-6 -6 -14 -6q-10 0 -25 15q-57 54 -110 86q-175 108 -390 108q-192 0 -344.5 -92t-235.5 -250.5t-83 -351.5q0 -194 83 -352t235.5 -250.5t344.5 -91.5
q152 0 287.5 49t235.5 147z" />
    <glyph glyph-name="gdotaccent" unicode="&#x121;" horiz-adv-x="1280" 
d="M170 -244l6 6q7 7 14 7q10 0 21 -11q77 -67 166 -104q105 -43 235 -43q209 0 316.5 99t107.5 270v321q-61 -132 -179.5 -206.5t-264.5 -74.5q-213 0 -351.5 146t-138.5 369t138.5 368.5t351.5 145.5q146 0 264.5 -74.5t179.5 -206.5v233q0 23 21 23h8q20 0 20 -23v-1032
q0 -191 -125 -297t-348 -106q-262 0 -430 149q-18 13 -18 27q0 8 6 14zM592 66q192 0 317 133t125 336t-125 336t-317 133q-190 0 -314 -133t-124 -336t124 -336t314 -133zM594 1458q22 0 37.5 -15.5t15.5 -37.5t-15.5 -37.5t-37.5 -15.5t-37.5 15.5t-15.5 37.5t15.5 37.5
t37.5 15.5z" />
    <glyph glyph-name="Gcommaaccent" unicode="&#x122;" horiz-adv-x="1566" 
d="M819 -25l-22 -88q77 0 124.5 -30.5t47.5 -89.5q0 -60 -48 -92.5t-126 -32.5q-87 0 -142 32q-8 3 -8 13q0 2 4 10l6 10q5 8 11 8q4 0 12 -4q53 -26 117 -26q63 0 96 21.5t33 60.5q0 79 -133 79h-29q-17 0 -14 19l28 112q-129 8 -245.5 58.5t-206.5 140.5
q-116 116 -170 277q-34 100 -41 264q0 156 52.5 292.5t145.5 235.5t227 156t291 57q149 0 289.5 -50.5t243.5 -147.5q20 -20 20 -29t-8 -17l-6 -6q-6 -6 -14 -6q-10 0 -25 15q-57 54 -110 86q-175 108 -390 108q-192 0 -344.5 -92t-235.5 -250.5t-83 -351.5q0 -194 83 -352
t235.5 -250.5t344.5 -91.5q152 0 287.5 49t235.5 147v469h-478q-24 0 -24 23v4q0 20 24 20h504q25 0 25 -24v-478q0 -29 -27 -59q-94 -97 -243 -148t-304 -51h-10z" />
    <glyph glyph-name="gcommaaccent" unicode="&#x123;" horiz-adv-x="1280" 
d="M170 -244l6 6q7 7 14 7q10 0 21 -11q77 -67 166 -104q105 -43 235 -43q209 0 316.5 99t107.5 270v321q-61 -132 -179.5 -206.5t-264.5 -74.5q-213 0 -351.5 146t-138.5 369t138.5 368.5t351.5 145.5q146 0 264.5 -74.5t179.5 -206.5v233q0 23 21 23h8q20 0 20 -23v-1032
q0 -191 -125 -297t-348 -106q-262 0 -430 149q-18 13 -18 27q0 8 6 14zM592 66q192 0 317 133t125 336t-125 336t-317 133q-190 0 -314 -133t-124 -336t124 -336t314 -133zM686 1446l2 -2q6 -6 6 -10q0 -3 -4 -11q-46 -49 -49 -106q24 0 40.5 -16.5t16.5 -40.5t-16.5 -41
t-40.5 -17t-40.5 17t-16.5 41q0 53 21 102t54 82q12 8 15 8q6 0 12 -6z" />
    <glyph glyph-name="Hcircumflex" unicode="&#x124;" horiz-adv-x="1505" 
d="M238 1434h6q22 0 22 -25v-664h973v664q0 25 23 25h6q22 0 22 -25v-1384q0 -25 -22 -25h-6q-23 0 -23 25v673h-973v-673q0 -25 -22 -25h-6q-23 0 -23 25v1384q0 25 23 25zM483 1591l-4 4q-4 4 -4 9q0 9 8 14l228 207q15 12 32 12h17q19 0 31 -12l229 -207q8 -8 8 -14
q0 -1 -4 -9l-4 -4q-4 -4 -10 -4q-5 0 -13 4l-245 195l-246 -195q-8 -4 -12 -4q-3 0 -11 4z" />
    <glyph glyph-name="hcircumflex" unicode="&#x125;" horiz-adv-x="1218" 
d="M1044 614v-591q0 -23 -20 -23h-8q-21 0 -21 23v581q0 182 -93 291t-267 109q-184 0 -287.5 -115t-103.5 -285v-581q0 -23 -21 -23h-8q-20 0 -20 23v1480q0 19 12 23l18 6q10 3 14.5 -2t4.5 -17v-704q54 113 153.5 176.5t237.5 63.5q189 0 299 -120t110 -315zM-49 1591
l-4 4q-4 4 -4 9q0 9 8 14l227 207q15 12 33 12h16q19 0 31 -12l229 -207q9 -9 9 -14q0 -1 -4 -9l-5 -4q-8 -4 -10 -4q-4 0 -12 4l-246 195l-246 -195q-8 -4 -12 -4q-6 0 -10 4z" />
    <glyph glyph-name="Hbar" unicode="&#x126;" horiz-adv-x="1505" 
d="M238 1434h6q22 0 22 -25v-664h973v664q0 25 23 25h6q22 0 22 -25v-1384q0 -25 -22 -25h-6q-23 0 -23 25v673h-973v-673q0 -25 -22 -25h-6q-23 0 -23 25v1384q0 25 23 25zM506 1726h495q19 0 19 -16v-10q0 -17 -19 -17h-495q-19 0 -19 17v10q0 16 19 16z" />
    <glyph glyph-name="hbar" unicode="&#x127;" horiz-adv-x="1259" 
d="M285 1294v-485q54 113 153.5 176.5t237.5 63.5q189 0 299 -120t110 -315v-591q0 -23 -20 -23h-8q-21 0 -21 23v581q0 182 -93 291t-267 109q-184 0 -287.5 -115t-103.5 -285v-581q0 -23 -21 -23h-8q-20 0 -20 23v1271h-166q-19 0 -19 17v14q0 16 19 16h166v162
q0 19 12 23l18 6q10 3 14.5 -2t4.5 -17v-172h325q19 0 19 -16v-14q0 -17 -19 -17h-325z" />
    <glyph glyph-name="Itilde" unicode="&#x128;" horiz-adv-x="481" 
d="M266 1409v-1384q0 -25 -22 -25h-6q-23 0 -23 25v1384q0 25 23 25h6q22 0 22 -25zM483 1794h11q16 0 16 -14q2 -66 -33.5 -118.5t-97.5 -51.5q-28 0 -57.5 13t-48.5 27.5t-48 39.5q-26 22 -41.5 34t-39 22.5t-44.5 10.5q-79 0 -88 -123q0 -18 -18 -18h-10q-17 0 -17 14
q2 70 34.5 120.5t98.5 49.5q28 0 57.5 -13t48.5 -27.5t48 -39.5q26 -22 41.5 -34t39 -22.5t44.5 -10.5q79 0 88 123q0 18 16 18z" />
    <glyph glyph-name="itilde" unicode="&#x129;" horiz-adv-x="438" 
d="M215 1024h8q21 0 21 -23v-978q0 -23 -21 -23h-8q-20 0 -20 23v978q0 23 20 23zM463 1415h10q16 0 16 -14q2 -66 -33.5 -118.5t-97.5 -51.5q-28 0 -57.5 13.5t-48 27.5t-47.5 39q-26 22 -41.5 34t-39 22.5t-44.5 10.5q-79 0 -88 -123q0 -18 -19 -18h-10q-16 0 -16 14
q2 70 34.5 120.5t98.5 49.5q28 0 57.5 -13.5t48 -27.5t47.5 -39q26 -22 41.5 -34t39 -22.5t44.5 -10.5q79 0 88 123q0 18 17 18z" />
    <glyph glyph-name="Imacron" unicode="&#x12a;" horiz-adv-x="481" 
d="M266 1409v-1384q0 -25 -22 -25h-6q-23 0 -23 25v1384q0 25 23 25h6q22 0 22 -25zM-8 1726h495q19 0 19 -16v-10q0 -17 -19 -17h-495q-19 0 -19 17v10q0 16 19 16z" />
    <glyph glyph-name="imacron" unicode="&#x12b;" horiz-adv-x="438" 
d="M215 1024h8q21 0 21 -23v-978q0 -23 -21 -23h-8q-20 0 -20 23v978q0 23 20 23zM-29 1348h496q18 0 18 -17v-10q0 -16 -18 -16h-496q-18 0 -18 16v10q0 17 18 17z" />
    <glyph glyph-name="Ibreve" unicode="&#x12c;" horiz-adv-x="481" 
d="M266 1409v-1384q0 -25 -22 -25h-6q-23 0 -23 25v1384q0 25 23 25h6q22 0 22 -25zM-2 1829h10q7 0 11 -3t6.5 -9.5t4 -12t3 -15t2.5 -15.5q19 -70 72.5 -110t128.5 -40t128 40t72 110q1 6 2.5 15.5t3 15t4 12t6.5 9.5t11 3h10q16 0 16 -14q0 -22 -8 -54
q-22 -79 -90 -129.5t-155 -50.5t-155.5 50.5t-90.5 129.5q-8 32 -8 54q0 14 16 14z" />
    <glyph glyph-name="ibreve" unicode="&#x12d;" horiz-adv-x="438" 
d="M215 1024h8q21 0 21 -23v-978q0 -23 -21 -23h-8q-20 0 -20 23v978q0 23 20 23zM-20 1450h10q8 0 13 -5.5t6.5 -12t3.5 -19t3 -18.5q19 -70 72.5 -110t128.5 -40t128.5 40t72.5 110q1 6 3 18.5t3.5 19t6.5 12t13 5.5h11q16 0 16 -14q0 -22 -8 -54q-22 -79 -90.5 -129.5
t-155.5 -50.5t-155.5 50.5t-90.5 129.5q-8 32 -8 54q0 14 17 14z" />
    <glyph glyph-name="Iogonek" unicode="&#x12e;" horiz-adv-x="481" 
d="M293 -322l2 -10q3 -17 -12 -20q-35 -6 -66 -6q-83 0 -128.5 41.5t-45.5 111.5q5 132 174 211v1403q0 25 23 25h6q22 0 22 -25v-1386q0 -22 -12 -29q-36 -20 -60.5 -36t-51.5 -40.5t-40.5 -55.5t-13.5 -67q0 -54 32.5 -82t94.5 -28q10 0 31.5 3t30.5 3q11 0 14 -13z" />
    <glyph glyph-name="iogonek" unicode="&#x12f;" horiz-adv-x="442" 
d="M197 8v993q0 23 20 23h8q21 0 21 -23v-981q0 -18 -21 -30q-73 -40 -115 -84.5t-42 -110.5q0 -54 32.5 -82t94.5 -28q10 0 31 3t30 3q11 0 14 -13l2 -10q3 -17 -12 -20q-35 -6 -65 -6q-83 0 -129 41.5t-46 111.5q5 133 177 213zM221 1458q22 0 37.5 -15.5t15.5 -37.5
t-15.5 -37.5t-37.5 -15.5t-37.5 15.5t-15.5 37.5t15.5 37.5t37.5 15.5z" />
    <glyph glyph-name="Idotaccent" unicode="&#x130;" horiz-adv-x="481" 
d="M268 1409v-1384q0 -25 -22 -25h-6q-23 0 -23 25v1384q0 25 23 25h6q22 0 22 -25zM242 1837q22 0 37.5 -15.5t15.5 -37.5t-15.5 -37.5t-37.5 -15.5t-38 15.5t-16 37.5t16 37.5t38 15.5z" />
    <glyph glyph-name="dotlessi" unicode="&#x131;" horiz-adv-x="438" 
d="M215 1024h8q21 0 21 -23v-978q0 -23 -21 -23h-8q-20 0 -20 23v978q0 23 20 23z" />
    <glyph glyph-name="IJ" unicode="&#x132;" horiz-adv-x="1556" 
d="M266 1409v-1384q0 -25 -22 -25h-6q-23 0 -23 25v1384q0 25 23 25h6q22 0 22 -25zM537 213l4 4q6 6 12 6q9 0 27 -18q4 -4 15 -16.5t15 -16.5t14 -14.5t15 -15.5t14.5 -13.5t17.5 -14.5t18.5 -13.5t21.5 -14.5q100 -63 229 -63q177 0 268.5 85t91.5 281v1020q0 11 6.5 18
t16.5 7h6q23 0 23 -25v-1030q0 -404 -412 -404q-102 0 -190 37q-112 47 -203 158q-17 21 -17 31q0 5 7 12z" />
    <glyph glyph-name="ij" unicode="&#x133;" horiz-adv-x="892" 
d="M217 1024h8q21 0 21 -23v-978q0 -23 -21 -23h-8q-20 0 -20 23v978q0 23 20 23zM221 1458q22 0 37.5 -15.5t15.5 -37.5t-15.5 -37.5t-37.5 -15.5t-37.5 15.5t-15.5 37.5t15.5 37.5t37.5 15.5zM672 1458q22 0 37.5 -15.5t15.5 -37.5t-15.5 -37.5t-37.5 -15.5t-38 15.5
t-16 37.5t16 37.5t38 15.5zM668 1024h8q20 0 20 -23v-1107q0 -41 -2.5 -74t-11 -71.5t-23 -67.5t-40.5 -56t-62 -43q-25 -10 -33 -10q-13 0 -18 10l-4 8q-4 11 4 19q2 2 22 12q27 12 47 29q44 41 58 102.5t14 141.5v1107q0 23 21 23z" />
    <glyph glyph-name="Jcircumflex" unicode="&#x134;" horiz-adv-x="1085" 
d="M578 1591l-5 4q-4 4 -4 9q0 8 9 14l227 207q15 12 33 12h16q19 0 31 -12l229 -207q8 -8 8 -14q0 -1 -4 -9l-4 -4q-4 -4 -10 -4q-4 0 -12 4l-246 195l-246 -195q-8 -4 -12 -4q-2 0 -10 4zM66 213l6 6q6 6 10 6q7 0 27 -20q26 -29 40 -44t38 -36t53 -39q100 -63 229 -63
q177 0 268.5 85t91.5 281v1020q0 11 6.5 18t16.5 7h6q23 0 23 -25v-1030q0 -404 -412 -404q-102 0 -190 37q-112 47 -203 158q-2 3 -7 9.5t-7.5 11t-2.5 8.5q0 7 7 14z" />
    <glyph glyph-name="jcircumflex" unicode="&#x135;" horiz-adv-x="460" 
d="M236 1024h8q20 0 20 -23v-1107q0 -41 -2.5 -74t-11 -71.5t-23 -67.5t-40.5 -56t-62 -43q-25 -10 -33 -10q-13 0 -18 10l-4 8q-4 11 4 19q2 2 22 12q27 12 47 29q44 41 58 102.5t14 141.5v1107q0 23 21 23zM-29 1212l-4 5q-4 4 -4 8q0 9 8 14l228 207q15 12 32 12h17
q19 0 31 -12l229 -207q8 -8 8 -14l-4 -8l-4 -5q-8 -4 -10 -4q-5 0 -13 4l-245 195l-246 -195q-8 -4 -12 -4q-7 0 -11 4z" />
    <glyph glyph-name="Kcommaaccent" unicode="&#x136;" horiz-adv-x="1290" 
d="M1126 1434h15q12 0 12 -11q0 -2 -4 -10l-563 -620l606 -773q2 -2 2 -8q0 -12 -12 -12h-15q-19 0 -34 18l-578 740l-289 -318v-415q0 -25 -22 -25h-6q-23 0 -23 25v1384q0 25 23 25h6q22 0 22 -25v-905l824 911q16 19 36 19zM588 -500l-2 2q-6 6 -6 11q0 2 4 10
q46 49 49 106q-24 0 -41 17t-17 41q0 23 16.5 40t41.5 17q24 0 40.5 -16.5t16.5 -40.5q0 -53 -21.5 -102.5t-54.5 -82.5q-12 -8 -14 -8q-6 0 -12 6z" />
    <glyph glyph-name="kcommaaccent" unicode="&#x137;" horiz-adv-x="1013" 
d="M891 1024h16q11 0 11 -10q0 -5 -3 -8l-413 -431l446 -557q2 -2 2 -8q0 -10 -12 -10h-16q-22 0 -33 16l-418 527l-227 -236v-284q0 -23 -21 -23h-8q-20 0 -20 23v1478q0 19 12 23l18 6q10 3 14.5 -2t4.5 -17v-1142l610 639q16 16 37 16zM504 -500l-2 2q-6 6 -6 11
q0 2 4 10q46 49 49 106q-24 0 -40.5 17t-16.5 41t16.5 40.5t40.5 16.5t40.5 -16.5t16.5 -40.5q0 -53 -21.5 -102.5t-54.5 -82.5q-12 -8 -14 -8q-6 0 -12 6z" />
    <glyph glyph-name="kgreenlandic" unicode="&#x138;" horiz-adv-x="1013" 
d="M891 1024h16q11 0 11 -10q0 -5 -3 -8l-413 -431l446 -557q2 -2 2 -8q0 -10 -12 -10h-16q-22 0 -33 16l-418 527l-227 -236v-284q0 -23 -21 -23h-8q-20 0 -20 23v978q0 23 20 23h8q21 0 21 -23v-632l610 639q16 16 37 16z" />
    <glyph glyph-name="Lacute" unicode="&#x139;" horiz-adv-x="1075" 
d="M266 47h692q25 0 25 -20v-4q0 -23 -25 -23h-718q-25 0 -25 25v1384q0 25 23 25h6q22 0 22 -25v-1362zM410 1591l-4 4q-5 5 -5 9q0 8 9 14l239 207q6 6 13 6q6 0 12 -6l18 -21q4 -8 4 -10q0 -6 -8 -14l-256 -189q-6 -6 -12 -6q-4 0 -10 6z" />
    <glyph glyph-name="lacute" unicode="&#x13a;" horiz-adv-x="438" 
d="M244 1513v-1490q0 -23 -21 -23h-8q-20 0 -20 23v1480q0 19 12 23l18 6q10 3 14.5 -2t4.5 -17zM129 1591l-4 4q-4 4 -4 9q0 9 8 14l240 207q6 6 12 6t12 -6l19 -21q4 -8 4 -10q0 -6 -8 -14l-256 -189q-6 -6 -13 -6q-4 0 -10 6z" />
    <glyph glyph-name="Lcommaaccent" unicode="&#x13b;" horiz-adv-x="1075" 
d="M266 47h692q25 0 25 -20v-4q0 -23 -25 -23h-718q-25 0 -25 25v1384q0 25 23 25h6q22 0 22 -25v-1362zM588 -500l-2 2q-6 6 -6 11q0 2 4 10q46 49 49 106q-24 0 -41 17t-17 41q0 23 16.5 40t41.5 17q24 0 40.5 -16.5t16.5 -40.5q0 -53 -21.5 -102.5t-54.5 -82.5
q-12 -8 -14 -8q-6 0 -12 6z" />
    <glyph glyph-name="lcommaaccent" unicode="&#x13c;" horiz-adv-x="438" 
d="M244 1513v-1490q0 -23 -21 -23h-8q-20 0 -20 23v1480q0 19 12 23l18 6q10 3 14.5 -2t4.5 -17zM174 -500l-2 2q-6 6 -6 11q0 2 4 10q46 49 49 106q-24 0 -40.5 17t-16.5 41t16.5 40.5t40.5 16.5t40.5 -16.5t16.5 -40.5q0 -53 -21 -102.5t-54 -82.5q-12 -8 -15 -8
q-6 0 -12 6z" />
    <glyph glyph-name="Lcaron" unicode="&#x13d;" horiz-adv-x="1075" 
d="M238 1434h6q22 0 22 -25v-1362h692q25 0 25 -20v-4q0 -23 -25 -23h-718q-25 0 -25 25v1384q0 25 23 25zM555 1118l84 295q6 21 29 21h16q25 0 18 -25l-104 -293q-10 -20 -27 -20h-2q-18 0 -14 22z" />
    <glyph glyph-name="lcaron" unicode="&#x13e;" horiz-adv-x="647" 
d="M244 1513v-1490q0 -23 -21 -23h-8q-20 0 -20 23v1480q0 19 12 23l18 6q10 3 14.5 -2t4.5 -17zM592 1217l88 305q3 14 18 14h33q18 0 12 -16l-108 -306q-6 -16 -21 -16h-10q-16 0 -12 19z" />
    <glyph glyph-name="Ldot" unicode="&#x13f;" horiz-adv-x="1075" 
d="M266 47h692q25 0 25 -20v-4q0 -23 -25 -23h-718q-25 0 -25 25v1384q0 25 23 25h6q22 0 22 -25v-1362zM764 702q24 0 40.5 -16.5t16.5 -40.5t-16.5 -40.5t-40.5 -16.5t-40.5 16.5t-16.5 40.5t16.5 40.5t40.5 16.5z" />
    <glyph glyph-name="ldot" unicode="&#x140;" horiz-adv-x="614" 
d="M244 1513v-1490q0 -23 -21 -23h-8q-20 0 -20 23v1480q0 19 12 23l18 6q10 3 14.5 -2t4.5 -17zM526 702q24 0 41 -17t17 -40t-17 -40t-41 -17t-40.5 16.5t-16.5 40.5t16.5 40.5t40.5 16.5z" />
    <glyph glyph-name="Lslash" unicode="&#x141;" horiz-adv-x="1157" 
d="M348 836l236 198q2 2 8 2q12 0 12 -12v-14q0 -20 -18 -35l-238 -199v-729h692q25 0 25 -20v-4q0 -23 -25 -23h-718q-25 0 -25 25v708l-133 -112q-3 -3 -8 -3q-13 0 -13 13v14q0 19 19 35l135 113v616q0 25 22 25h7q22 0 22 -25v-573z" />
    <glyph glyph-name="lslash" unicode="&#x142;" horiz-adv-x="499" 
d="M205 795v708q0 19 12 23l19 6q10 3 14 -1.5t4 -17.5v-677l240 198q4 4 8 4q10 0 10 -12v-16q0 -22 -16 -35l-242 -201v-751q0 -23 -21 -23h-8q-20 0 -20 23v712l-135 -112q-5 -5 -9 -5q-10 0 -10 13v16q0 21 17 35z" />
    <glyph glyph-name="Nacute" unicode="&#x143;" horiz-adv-x="1505" 
d="M1266 0h-31q-24 0 -35 18l-934 1368v-1361q0 -25 -22 -25h-6q-23 0 -23 25v1384q0 25 25 25h30q24 0 35 -19l934 -1368v1362q0 25 23 25h6q22 0 22 -25v-1384q0 -25 -24 -25zM664 1591l-5 4q-4 4 -4 9q0 8 9 14l239 207q6 6 12 6q7 0 13 -6l18 -21q4 -8 4 -10
q0 -6 -8 -14l-256 -189q-6 -6 -12 -6q-4 0 -10 6z" />
    <glyph glyph-name="nacute" unicode="&#x144;" horiz-adv-x="1218" 
d="M1044 614v-591q0 -23 -20 -23h-8q-21 0 -21 23v581q0 182 -93 291t-267 109q-184 0 -287.5 -115t-103.5 -285v-581q0 -23 -21 -23h-8q-20 0 -20 23v978q0 23 20 23h8q21 0 21 -23v-192q54 113 153.5 176.5t237.5 63.5q189 0 299 -120t110 -315zM530 1212l-4 5q-4 4 -4 8
q0 9 8 14l240 207q6 6 12 6q7 0 13 -6l18 -21q4 -8 4 -10q0 -6 -8 -14l-256 -189q-6 -6 -12 -6q-5 0 -11 6z" />
    <glyph glyph-name="Ncommaaccent" unicode="&#x145;" horiz-adv-x="1505" 
d="M1266 0h-31q-24 0 -35 18l-934 1368v-1361q0 -25 -22 -25h-6q-23 0 -23 25v1384q0 25 25 25h30q24 0 35 -19l934 -1368v1362q0 25 23 25h6q22 0 22 -25v-1384q0 -25 -24 -25zM733 -500l-2 2q-6 6 -6 11q0 2 4 10q46 49 49 106q-24 0 -40.5 17t-16.5 41t16.5 40.5
t40.5 16.5t41 -17t17 -40q0 -53 -21.5 -102.5t-54.5 -82.5q-12 -8 -15 -8q-6 0 -12 6z" />
    <glyph glyph-name="ncommaaccent" unicode="&#x146;" horiz-adv-x="1218" 
d="M1044 614v-591q0 -23 -20 -23h-8q-21 0 -21 23v581q0 182 -93 291t-267 109q-184 0 -287.5 -115t-103.5 -285v-581q0 -23 -21 -23h-8q-20 0 -20 23v978q0 23 20 23h8q21 0 21 -23v-192q54 113 153.5 176.5t237.5 63.5q189 0 299 -120t110 -315zM578 -500l-3 2q-6 6 -6 11
q0 2 4 10q47 51 50 106q-24 0 -41 17t-17 41q0 23 16.5 40t41.5 17q24 0 40.5 -16.5t16.5 -40.5q0 -53 -21.5 -102.5t-54.5 -82.5q-12 -8 -14 -8q-6 0 -12 6z" />
    <glyph glyph-name="Ncaron" unicode="&#x147;" horiz-adv-x="1505" 
d="M1266 0h-31q-24 0 -35 18l-934 1368v-1361q0 -25 -22 -25h-6q-23 0 -23 25v1384q0 25 25 25h30q24 0 35 -19l934 -1368v1362q0 25 23 25h6q22 0 22 -25v-1384q0 -25 -24 -25zM479 1823l4 4q8 4 11 4q4 0 12 -4l246 -195l245 195q8 4 13 4q6 0 10 -4l4 -4l4 -8
q0 -7 -8 -15l-229 -207q-12 -12 -31 -12h-17q-17 0 -32 12l-228 207q-8 5 -8 15q0 4 4 8z" />
    <glyph glyph-name="ncaron" unicode="&#x148;" horiz-adv-x="1218" 
d="M1044 614v-591q0 -23 -20 -23h-8q-21 0 -21 23v581q0 182 -93 291t-267 109q-184 0 -287.5 -115t-103.5 -285v-581q0 -23 -21 -23h-8q-20 0 -20 23v978q0 23 20 23h8q21 0 21 -23v-192q54 113 153.5 176.5t237.5 63.5q189 0 299 -120t110 -315zM346 1444l4 4q8 4 10 4
q5 0 13 -4l245 -195l246 195q8 4 13 4q6 0 10 -4l4 -4l4 -8q0 -7 -8 -15l-230 -207q-12 -12 -30 -12h-17q-17 0 -32 12l-228 207q-8 5 -8 15q0 4 4 8z" />
    <glyph glyph-name="napostrophe" unicode="&#x149;" horiz-adv-x="1298" 
d="M-98 1217l88 305q3 14 18 14h33q18 0 12 -16l-108 -306q-6 -16 -21 -16h-10q-16 0 -12 19zM1124 614v-591q0 -23 -20 -23h-8q-21 0 -21 23v581q0 182 -93 291t-267 109q-184 0 -287.5 -115t-103.5 -285v-581q0 -23 -21 -23h-8q-21 0 -21 23v978q0 23 21 23h8q21 0 21 -23
v-192q54 113 153.5 176.5t237.5 63.5q189 0 299 -120t110 -315z" />
    <glyph glyph-name="Eng" unicode="&#x14a;" horiz-adv-x="1505" 
d="M1290 1409v-1515q0 -41 -2.5 -74t-11 -71.5t-23 -67.5t-40.5 -56t-62 -43q-25 -10 -33 -10q-13 0 -18 10l-4 8q-4 11 4 19q2 2 22 12q27 12 47 29q44 41 58 102.5t14 141.5v106h-6q-24 0 -35 18l-934 1368v-1361q0 -25 -22 -25h-6q-23 0 -23 25v1384q0 25 25 25h30
q24 0 35 -19l934 -1368v1362q0 25 23 25h6q22 0 22 -25z" />
    <glyph glyph-name="eng" unicode="&#x14b;" horiz-adv-x="1218" 
d="M995 -106v710q0 182 -93 291t-267 109q-184 0 -287.5 -115t-103.5 -285v-581q0 -23 -21 -23h-8q-20 0 -20 23v978q0 23 20 23h8q21 0 21 -23v-192q54 113 153.5 176.5t237.5 63.5q189 0 299 -120t110 -315v-720q0 -41 -2.5 -74t-11 -71.5t-23 -67.5t-40.5 -56t-62 -43
q-25 -10 -33 -10q-13 0 -18 10l-4 8q-4 11 4 19q1 1 23 12q27 12 47 29q44 41 57.5 102t13.5 142z" />
    <glyph glyph-name="Omacron" unicode="&#x14c;" horiz-adv-x="1720" 
d="M860 1458q160 0 299.5 -57t237.5 -155.5t154.5 -235.5t56.5 -293t-56.5 -293t-154.5 -236t-237.5 -156t-299.5 -57q-212 0 -383.5 97.5t-267.5 267t-96 377.5q0 155 56.5 292.5t154.5 236t237.5 155.5t298.5 57zM860 23q196 0 355.5 92t249 251t89.5 351t-89.5 351
t-249 251t-355.5 92t-355.5 -92t-249 -251t-89.5 -351t89.5 -351t249 -251t355.5 -92zM612 1726h496q18 0 18 -16v-10q0 -17 -18 -17h-496q-18 0 -18 17v10q0 16 18 16z" />
    <glyph glyph-name="omacron" unicode="&#x14d;" horiz-adv-x="1286" 
d="M643 1049q153 0 277 -70t194 -192.5t70 -274.5t-70 -274.5t-194 -192.5t-277 -70t-277 70t-194 192.5t-70 274.5t70 274.5t194 192.5t277 70zM643 20q211 0 350.5 142t139.5 350t-139.5 350t-350.5 142q-139 0 -251.5 -65t-175 -177.5t-62.5 -249.5t62.5 -249.5
t175 -177.5t251.5 -65zM395 1348h496q18 0 18 -17v-10q0 -16 -18 -16h-496q-18 0 -18 16v10q0 17 18 17z" />
    <glyph glyph-name="Obreve" unicode="&#x14e;" horiz-adv-x="1720" 
d="M860 1458q160 0 299.5 -57t237.5 -155.5t154.5 -235.5t56.5 -293t-56.5 -293t-154.5 -236t-237.5 -156t-299.5 -57q-212 0 -383.5 97.5t-267.5 267t-96 377.5q0 155 56.5 292.5t154.5 236t237.5 155.5t298.5 57zM860 23q196 0 355.5 92t249 251t89.5 351t-89.5 351
t-249 251t-355.5 92t-355.5 -92t-249 -251t-89.5 -351t89.5 -351t249 -251t355.5 -92zM623 1829h10q8 0 13 -5.5t6.5 -12t3.5 -19t3 -18.5q19 -70 72.5 -110t128.5 -40t128.5 40t72.5 110q1 6 3 18.5t3.5 19t6.5 12t13 5.5h11q16 0 16 -14q0 -22 -8 -54
q-22 -79 -90.5 -129.5t-155.5 -50.5t-155.5 50.5t-90.5 129.5q-8 32 -8 54q0 14 17 14z" />
    <glyph glyph-name="obreve" unicode="&#x14f;" horiz-adv-x="1286" 
d="M643 1049q153 0 277 -70t194 -192.5t70 -274.5t-70 -274.5t-194 -192.5t-277 -70t-277 70t-194 192.5t-70 274.5t70 274.5t194 192.5t277 70zM643 20q211 0 350.5 142t139.5 350t-139.5 350t-350.5 142q-139 0 -251.5 -65t-175 -177.5t-62.5 -249.5t62.5 -249.5
t175 -177.5t251.5 -65zM406 1450h10q8 0 13 -5.5t6.5 -12t3.5 -19t3 -18.5q19 -70 72.5 -110t128.5 -40t128.5 40t72.5 110q1 6 3 18.5t3.5 19t6.5 12t13 5.5h11q16 0 16 -14q0 -22 -8 -54q-22 -79 -90.5 -129.5t-155.5 -50.5t-155.5 50.5t-90.5 129.5q-8 32 -8 54
q0 14 17 14z" />
    <glyph glyph-name="Ohungarumlaut" unicode="&#x150;" horiz-adv-x="1720" 
d="M860 1458q160 0 299.5 -57t237.5 -155.5t154.5 -235.5t56.5 -293t-56.5 -293t-154.5 -236t-237.5 -156t-299.5 -57q-212 0 -383.5 97.5t-267.5 267t-96 377.5q0 155 56.5 292.5t154.5 236t237.5 155.5t298.5 57zM860 23q196 0 355.5 92t249 251t89.5 351t-89.5 351
t-249 251t-355.5 92t-355.5 -92t-249 -251t-89.5 -351t89.5 -351t249 -251t355.5 -92zM684 1591l-6 6q-4 4 -4 9q0 4 8 12l195 207q6 6 12 6q7 0 10 -6l19 -21q6 -6 6 -12t-6 -12l-211 -189q-6 -6 -13 -6q-4 0 -10 6zM997 1591l-6 6q-4 4 -4 9q0 4 8 12l195 207q6 6 12 6
q7 0 10 -6l19 -21q6 -6 6 -12t-6 -12l-211 -189q-6 -6 -12 -6q-5 0 -11 6z" />
    <glyph glyph-name="ohungarumlaut" unicode="&#x151;" horiz-adv-x="1286" 
d="M643 1049q153 0 277 -70t194 -192.5t70 -274.5t-70 -274.5t-194 -192.5t-277 -70t-277 70t-194 192.5t-70 274.5t70 274.5t194 192.5t277 70zM643 20q211 0 350.5 142t139.5 350t-139.5 350t-350.5 142q-139 0 -251.5 -65t-175 -177.5t-62.5 -249.5t62.5 -249.5
t175 -177.5t251.5 -65zM467 1212l-6 7q-4 4 -4 8t8 12l194 207q6 6 13 6t10 -6l18 -21q7 -7 7 -12t-7 -12l-211 -189q-6 -6 -12 -6q-4 0 -10 6zM780 1212l-6 7q-4 4 -4 8t8 12l195 207q6 6 12 6q7 0 10 -6l19 -21q6 -6 6 -12t-6 -12l-211 -189q-6 -6 -12 -6q-5 0 -11 6z" />
    <glyph glyph-name="OE" unicode="&#x152;" horiz-adv-x="2498" 
d="M1556 997v412q0 25 25 25h770q10 0 17.5 -5.5t7.5 -15.5v-4q0 -23 -25 -23h-743v-651h590q24 0 24 -20v-4q0 -23 -24 -23h-590v-641h764q24 0 24 -20v-7q0 -20 -24 -20h-791q-25 0 -25 25v411q-83 -218 -273 -339.5t-423 -121.5q-212 0 -383.5 97.5t-267.5 267t-96 377.5
q0 155 56.5 292.5t154.5 236t237.5 155.5t298.5 57q232 0 421.5 -122t274.5 -339zM860 23q196 0 355.5 92t249 251t89.5 351t-89.5 351t-249 251t-355.5 92t-355.5 -92t-249 -251t-89.5 -351t89.5 -351t249 -251t355.5 -92z" />
    <glyph glyph-name="oe" unicode="&#x153;" horiz-adv-x="2228" 
d="M2060 193l8 -7q9 -6 9 -14q0 -4 -4 -12q-50 -71 -156 -123q-130 -65 -264 -62q-193 7 -318 105q-125 96 -178 260q-49 -157 -178 -256q-134 -103 -336 -109q-153 0 -277 70t-194 192.5t-70 274.5t70 274.5t194 192.5t277 70q202 -6 336 -109q129 -99 178 -256
q53 164 178 260q125 98 318 105q134 0 243.5 -71.5t169.5 -188.5t60 -254v-21q0 -22 -23 -22h-919q13 -218 151 -347q131 -125 318 -125q166 0 297 93q21 15 65 59l19 18q7 7 14 7q4 0 12 -4zM1184 535h893q-7 215 -133 344q-125 125 -291 125q-193 0 -318 -125
q-138 -129 -151 -344zM643 20q211 0 350.5 142t139.5 350t-139.5 350t-350.5 142q-139 0 -251.5 -65t-175 -177.5t-62.5 -249.5t62.5 -249.5t175 -177.5t251.5 -65z" />
    <glyph glyph-name="Racute" unicode="&#x154;" horiz-adv-x="1300" 
d="M1141 0h-13q-21 0 -30 18l-330 590q-46 -6 -92 -6q-10 -2 -31 -2h-379v-575q0 -25 -22 -25h-6q-23 0 -23 25v1384q0 25 25 25h405q104 0 191.5 -22t158.5 -69t111.5 -129.5t40.5 -193.5q0 -163 -87.5 -264t-240.5 -138l336 -595q2 -2 2 -9q0 -14 -16 -14zM266 647h400
q69 0 131 13t117.5 42t95.5 71.5t63 105.5t23 141q0 96 -35 168.5t-96 114.5t-136 62.5t-163 20.5h-400v-739zM598 1591l-4 4q-4 4 -4 9q0 9 8 14l240 207q6 6 12 6t12 -6l19 -21q4 -8 4 -10q0 -6 -8 -14l-256 -189q-6 -6 -13 -6q-4 0 -10 6z" />
    <glyph glyph-name="racute" unicode="&#x155;" horiz-adv-x="653" 
d="M623 1024h22q30 0 27 -18l-2 -13q-2 -14 -45 -14q-100 0 -175 -29.5t-119 -82t-65.5 -118.5t-21.5 -145v-581q0 -23 -21 -23h-8q-20 0 -20 23v978q0 23 20 23h8q21 0 21 -23v-192q105 215 379 215zM344 1212l-4 5q-4 4 -4 8q0 9 8 14l240 207q6 6 12 6t12 -6l19 -21
q4 -8 4 -10q0 -6 -8 -14l-256 -189q-6 -6 -13 -6q-4 0 -10 6z" />
    <glyph glyph-name="Rcommaaccent" unicode="&#x156;" horiz-adv-x="1300" 
d="M1141 0h-13q-21 0 -30 18l-330 590q-46 -6 -92 -6q-10 -2 -31 -2h-379v-575q0 -25 -22 -25h-6q-23 0 -23 25v1384q0 25 25 25h405q104 0 191.5 -22t158.5 -69t111.5 -129.5t40.5 -193.5q0 -163 -87.5 -264t-240.5 -138l336 -595q2 -2 2 -9q0 -14 -16 -14zM266 647h400
q69 0 131 13t117.5 42t95.5 71.5t63 105.5t23 141q0 96 -35 168.5t-96 114.5t-136 62.5t-163 20.5h-400v-739zM588 -500l-2 2q-6 6 -6 11q0 2 4 10q46 49 49 106q-24 0 -41 17t-17 41q0 23 16.5 40t41.5 17q24 0 40.5 -16.5t16.5 -40.5q0 -53 -21.5 -102.5t-54.5 -82.5
q-12 -8 -14 -8q-6 0 -12 6z" />
    <glyph glyph-name="rcommaaccent" unicode="&#x157;" horiz-adv-x="653" 
d="M623 1024h22q30 0 27 -18l-2 -13q-2 -14 -45 -14q-100 0 -175 -29.5t-119 -82t-65.5 -118.5t-21.5 -145v-581q0 -23 -21 -23h-8q-20 0 -20 23v978q0 23 20 23h8q21 0 21 -23v-192q105 215 379 215zM178 -500l-2 2q-6 6 -6 11q0 2 4 10q46 49 49 106q-24 0 -40.5 17
t-16.5 41t16.5 40.5t40.5 16.5q25 0 41.5 -17t16.5 -40q0 -53 -21.5 -102.5t-54.5 -82.5q-12 -8 -15 -8q-6 0 -12 6z" />
    <glyph glyph-name="Rcaron" unicode="&#x158;" horiz-adv-x="1300" 
d="M1141 0h-13q-21 0 -30 18l-330 590q-46 -6 -92 -6q-10 -2 -31 -2h-379v-575q0 -25 -22 -25h-6q-23 0 -23 25v1384q0 25 25 25h405q104 0 191.5 -22t158.5 -69t111.5 -129.5t40.5 -193.5q0 -163 -87.5 -264t-240.5 -138l336 -595q2 -2 2 -9q0 -14 -16 -14zM266 647h400
q69 0 131 13t117.5 42t95.5 71.5t63 105.5t23 141q0 96 -35 168.5t-96 114.5t-136 62.5t-163 20.5h-400v-739zM322 1823l4 4q8 4 10 4q4 0 12 -4l246 -195l246 195q8 4 12 4q6 0 10 -4l4 -4l4 -8q0 -7 -8 -15l-229 -207q-12 -12 -31 -12h-16q-18 0 -33 12l-227 207
q-9 6 -9 15q0 3 5 8z" />
    <glyph glyph-name="rcaron" unicode="&#x159;" horiz-adv-x="653" 
d="M625 1024h22q30 0 27 -18l-2 -13q-2 -14 -45 -14q-100 0 -175 -29.5t-119 -82t-65.5 -118.5t-21.5 -145v-581q0 -23 -21 -23h-8q-20 0 -20 23v978q0 23 20 23h8q21 0 21 -23v-192q105 215 379 215zM162 1444l4 4q4 4 10 4q4 0 12 -4l246 -195l246 195q8 4 12 4q2 0 10 -4
l5 -4l4 -8q0 -6 -9 -15l-229 -207q-12 -12 -31 -12h-16q-18 0 -33 12l-227 207q-8 5 -8 15q0 4 4 8z" />
    <glyph glyph-name="Sacute" unicode="&#x15a;" horiz-adv-x="1116" 
d="M451 1591l-5 4q-4 4 -4 9q0 8 9 14l239 207q6 6 12 6q7 0 13 -6l18 -21q4 -8 4 -10q0 -6 -8 -14l-256 -189q-6 -6 -12 -6q-4 0 -10 6zM924 1274l-6 -4q-8 -4 -13 -4q-4 0 -20 12q-77 67 -152 100q-85 35 -192 35q-155 0 -250.5 -78t-95.5 -198q0 -105 58.5 -183.5
t184.5 -132.5l250 -106q166 -73 241 -157.5t75 -205.5q0 -178 -128.5 -277.5t-334.5 -99.5q-157 3 -273 70q-110 64 -168 178q-12 24 -12 33q0 11 12 14l9 2q18 5 28 -12q39 -64 72 -102.5t84 -69.5q101 -62 248 -65q182 0 295.5 86.5t113.5 242.5q0 106 -69 180t-234 148
l-244 104q-260 113 -260 353q0 142 109.5 231.5t288.5 89.5q113 0 211 -39q101 -41 163 -106q17 -17 17 -27q0 -7 -8 -12z" />
    <glyph glyph-name="sacute" unicode="&#x15b;" horiz-adv-x="890" 
d="M520 487l-178 70q-90 35 -144.5 98.5t-54.5 145.5q0 115 83 181.5t225 66.5q180 0 294 -136q5 -5 5 -10q0 -7 -11 -14l-6 -4q-8 -4 -10 -4q-9 0 -18 12q-107 113 -254 113q-120 0 -189 -56t-69 -149q0 -138 165 -201l185 -72q90 -35 139.5 -68t77.5 -84.5t28 -127.5
q0 -136 -89.5 -204.5t-247.5 -68.5q-147 0 -250 74q-49 37 -101 105q-10 15 -10 24q0 12 10 17l9 4q4 2 10 2t14 -8q3 -4 10.5 -14.5t10.5 -14.5q38 -48 61 -66q90 -78 236 -78q134 0 210 58t76 170q0 42 -11 76t-28 56.5t-47.5 43t-58.5 33.5t-72 30zM346 1212l-4 5
q-2 2 -2 8q0 8 6 14l240 207q6 6 12 6t12 -6l19 -21q6 -6 6 -10q0 -7 -10 -14l-256 -189q-6 -6 -13 -6q-4 0 -10 6z" />
    <glyph glyph-name="Scircumflex" unicode="&#x15c;" horiz-adv-x="1116" 
d="M270 1591l-4 4q-4 4 -4 9q0 9 8 14l228 207q15 12 32 12h17q19 0 31 -12l229 -207q8 -8 8 -14q0 -1 -4 -9l-4 -4q-4 -4 -10 -4q-5 0 -13 4l-245 195l-246 -195q-8 -4 -12 -4q-3 0 -11 4zM924 1274l-6 -4q-8 -4 -13 -4q-4 0 -20 12q-77 67 -152 100q-85 35 -192 35
q-155 0 -250.5 -78t-95.5 -198q0 -105 58.5 -183.5t184.5 -132.5l250 -106q166 -73 241 -157.5t75 -205.5q0 -178 -128.5 -277.5t-334.5 -99.5q-157 3 -273 70q-110 64 -168 178q-12 24 -12 33q0 11 12 14l9 2q18 5 28 -12q39 -64 72 -102.5t84 -69.5q101 -62 248 -65
q182 0 295.5 86.5t113.5 242.5q0 106 -69 180t-234 148l-244 104q-260 113 -260 353q0 142 109.5 231.5t288.5 89.5q113 0 211 -39q101 -41 163 -106q17 -17 17 -27q0 -7 -8 -12z" />
    <glyph glyph-name="scircumflex" unicode="&#x15d;" horiz-adv-x="890" 
d="M520 487l-178 70q-90 35 -144.5 98.5t-54.5 145.5q0 115 83 181.5t225 66.5q180 0 294 -136q5 -5 5 -10q0 -7 -11 -14l-6 -4q-8 -4 -10 -4q-9 0 -18 12q-107 113 -254 113q-120 0 -189 -56t-69 -149q0 -138 165 -201l185 -72q90 -35 139.5 -68t77.5 -84.5t28 -127.5
q0 -136 -89.5 -204.5t-247.5 -68.5q-147 0 -250 74q-49 37 -101 105q-10 15 -10 24q0 12 10 17l9 4q4 2 10 2t14 -8q3 -4 10.5 -14.5t10.5 -14.5q38 -48 61 -66q90 -78 236 -78q134 0 210 58t76 170q0 42 -11 76t-28 56.5t-47.5 43t-58.5 33.5t-72 30zM166 1212l-4 5
q-2 2 -2 8q0 8 6 14l227 207q15 12 33 12h16q19 0 31 -12l229 -207q11 -7 11 -14q0 -2 -6 -8l-5 -5q-4 -4 -10 -4q-4 0 -12 4l-246 195l-246 -195q-8 -4 -12 -4q-2 0 -10 4z" />
    <glyph glyph-name="Scedilla" unicode="&#x15e;" horiz-adv-x="1116" 
d="M553 -25l-23 -88q77 0 124.5 -30.5t47.5 -89.5q0 -60 -48 -92.5t-126 -32.5q-86 0 -141 32q-8 3 -8 13q0 2 4 10l6 10q5 8 10 8t13 -4q53 -26 116 -26t96 21.5t33 60.5q0 79 -133 79h-28q-18 0 -15 19l29 112q-130 6 -242 68q-110 64 -168 178q-12 24 -12 33q0 12 12 14
l9 2q18 5 28 -12q39 -64 72 -102.5t84 -69.5q101 -62 248 -65q182 0 295.5 86.5t113.5 242.5q0 106 -69 180t-234 148l-244 104q-260 113 -260 353q0 142 109.5 231.5t288.5 89.5q105 0 204.5 -37t169.5 -108q17 -17 17 -27q0 -7 -8 -12l-6 -4q-8 -4 -13 -4q-4 0 -20 12
q-77 67 -152 100q-85 35 -192 35q-155 0 -250.5 -78t-95.5 -198q0 -105 58.5 -183.5t184.5 -132.5l250 -106q166 -73 241 -157.5t75 -205.5q-6 -211 -175 -309q-104 -61 -276 -68z" />
    <glyph glyph-name="scedilla" unicode="&#x15f;" horiz-adv-x="890" 
d="M377 -135l29 112q-116 9 -205 72q-49 37 -101 105q-10 15 -10 24q0 12 10 17l9 4q4 2 10 2t14 -8q3 -4 10.5 -14.5t10.5 -14.5q38 -48 61 -66q90 -78 236 -78q134 0 210 58t76 170q0 42 -11 76t-28 56.5t-47.5 43t-58.5 33.5t-72 30l-178 70q-90 35 -144.5 98.5
t-54.5 145.5q0 115 83 181.5t225 66.5q180 0 294 -136q5 -5 5 -10q0 -7 -11 -14l-6 -4q-8 -4 -10 -4q-9 0 -18 12q-107 113 -254 113q-120 0 -189 -56t-69 -149q0 -138 165 -201l185 -72q90 -35 139.5 -68t77.5 -84.5t28 -127.5q0 -136 -89.5 -204.5t-247.5 -68.5h-2
l-23 -88q77 0 124.5 -30.5t47.5 -89.5q0 -60 -48 -92.5t-126 -32.5q-84 0 -139 32q-9 3 -9 13q0 4 3 10l6 10q5 8 12 8q2 0 10 -4q53 -26 117 -26q63 0 96 21.5t33 60.5q0 79 -133 79h-29q-17 0 -14 19z" />
    <glyph glyph-name="Scaron" unicode="&#x160;" horiz-adv-x="1116" 
d="M266 1823l4 4q8 4 11 4q4 0 12 -4l246 -195l245 195q8 4 13 4q6 0 10 -4l4 -4l4 -8q0 -7 -8 -15l-229 -207q-12 -12 -31 -12h-17q-17 0 -32 12l-228 207q-8 5 -8 15q0 4 4 8zM924 1274l-6 -4q-8 -4 -13 -4q-4 0 -20 12q-77 67 -152 100q-85 35 -192 35q-155 0 -250.5 -78
t-95.5 -198q0 -105 58.5 -183.5t184.5 -132.5l250 -106q166 -73 241 -157.5t75 -205.5q0 -178 -128.5 -277.5t-334.5 -99.5q-157 3 -273 70q-110 64 -168 178q-12 24 -12 33q0 11 12 14l9 2q18 5 28 -12q39 -64 72 -102.5t84 -69.5q101 -62 248 -65q182 0 295.5 86.5
t113.5 242.5q0 106 -69 180t-234 148l-244 104q-260 113 -260 353q0 142 109.5 231.5t288.5 89.5q113 0 211 -39q101 -41 163 -106q17 -17 17 -27q0 -7 -8 -12z" />
    <glyph glyph-name="scaron" unicode="&#x161;" horiz-adv-x="890" 
d="M520 487l-178 70q-90 35 -144.5 98.5t-54.5 145.5q0 115 83 181.5t225 66.5q180 0 294 -136q5 -5 5 -10q0 -7 -11 -14l-6 -4q-8 -4 -10 -4q-9 0 -18 12q-107 113 -254 113q-120 0 -189 -56t-69 -149q0 -138 165 -201l185 -72q90 -35 139.5 -68t77.5 -84.5t28 -127.5
q0 -136 -89.5 -204.5t-247.5 -68.5q-147 0 -250 74q-49 37 -101 105q-10 15 -10 24q0 12 10 17l9 4q4 2 10 2t14 -8q3 -4 10.5 -14.5t10.5 -14.5q38 -48 61 -66q90 -78 236 -78q134 0 210 58t76 170q0 42 -11 76t-28 56.5t-47.5 43t-58.5 33.5t-72 30zM162 1444l4 4
q8 4 10 4q4 0 12 -4l246 -195l246 195q8 4 12 4q6 0 10 -4l5 -4q6 -6 6 -8q0 -8 -11 -15l-229 -207q-12 -12 -31 -12h-16q-18 0 -33 12l-227 207q-6 6 -6 15q0 6 2 8z" />
    <glyph glyph-name="Tcommaaccent" unicode="&#x162;" horiz-adv-x="1177" 
d="M612 4l-32 -117q77 0 124.5 -30.5t47.5 -89.5q0 -60 -48 -92.5t-126 -32.5q-87 0 -142 32q-8 3 -8 13q0 2 4 10l6 10q5 8 11 8q4 0 12 -4q53 -26 117 -26q63 0 96 21.5t33 60.5q0 79 -134 79h-28q-8 0 -13 5.5t-2 13.5l33 127v1394h-487q-25 0 -25 23v4q0 10 7.5 15.5
t17.5 5.5h1026q24 0 24 -21v-4q0 -23 -24 -23h-488v-1361q0 -13 -2 -21z" />
    <glyph glyph-name="tcommaaccent" unicode="&#x163;" horiz-adv-x="714" 
d="M510 -25l-23 -88q77 0 124.5 -30.5t47.5 -89.5q0 -60 -48 -92.5t-126 -32.5q-86 0 -141 32q-8 3 -8 13q0 2 4 10l6 10q5 8 10 8t13 -4q53 -26 116 -26t96 21.5t33 60.5q0 79 -133 79h-28q-18 0 -15 19l29 112q-101 15 -166 99q-61 85 -65 231v672h-162q-23 0 -23 20v5
q0 20 23 20h162v377q0 18 12 22l18 7q10 3 14.5 -2t4.5 -17v-387h315q23 0 23 -20v-5q0 -20 -23 -20h-315v-662q0 -134 56 -215.5t159 -81.5q82 0 159 27q4 2 11 2q9 0 12 -8l4 -8q2 -2 2 -8q0 -10 -14 -17q-73 -33 -164 -33z" />
    <glyph glyph-name="Tcaron" unicode="&#x164;" horiz-adv-x="1177" 
d="M1126 1413v-4q0 -23 -24 -23h-488v-1361q0 -25 -22 -25h-6q-23 0 -23 25v1361h-487q-25 0 -25 23v4q0 10 7.5 15.5t17.5 5.5h1026q24 0 24 -21zM315 1823l4 4q8 4 11 4q4 0 12 -4l246 -195l246 195q8 4 12 4q6 0 10 -4l4 -4l4 -8q0 -7 -8 -15l-229 -207q-12 -12 -31 -12
h-16q-18 0 -33 12l-228 207q-8 5 -8 15q0 4 4 8z" />
    <glyph glyph-name="tcaron" unicode="&#x165;" horiz-adv-x="811" 
d="M285 1411v-387h315q23 0 23 -20v-5q0 -20 -23 -20h-315v-662q0 -134 56 -215.5t159 -81.5q82 0 159 27q4 2 11 2q9 0 12 -8l4 -8q2 -2 2 -8q0 -10 -14 -17q-81 -37 -174 -33q-123 4 -193.5 94t-70.5 238v672h-162q-23 0 -23 20v5q0 20 23 20h162v377q0 18 12 22l18 7
q10 3 14.5 -2t4.5 -17zM756 1217l88 305q3 14 18 14h33q18 0 12 -16l-108 -306q-6 -16 -21 -16h-10q-16 0 -12 19z" />
    <glyph glyph-name="Tbar" unicode="&#x166;" horiz-adv-x="1177" 
d="M614 870h224q18 0 18 -16v-10q0 -17 -18 -17h-224v-802q0 -25 -22 -25h-6q-23 0 -23 25v802h-221q-18 0 -18 17v10q0 16 18 16h221v516h-487q-25 0 -25 23v4q0 10 7.5 15.5t17.5 5.5h1026q24 0 24 -21v-4q0 -23 -24 -23h-488v-516z" />
    <glyph glyph-name="tbar" unicode="&#x167;" horiz-adv-x="714" 
d="M236 741v238h-162q-23 0 -23 20v5q0 20 23 20h162v377q0 18 12 22l18 7q10 3 14.5 -2t4.5 -17v-387h315q23 0 23 -20v-5q0 -20 -23 -20h-315v-238h319q19 0 19 -16v-10q0 -17 -19 -17h-319v-381q0 -134 56 -215.5t159 -81.5q82 0 159 27q4 2 11 2q9 0 12 -8l4 -8
q2 -2 2 -8q0 -10 -14 -17q-81 -37 -174 -33q-123 4 -193.5 94t-70.5 238v391h-166q-19 0 -19 17v10q0 16 19 16h166z" />
    <glyph glyph-name="Utilde" unicode="&#x168;" horiz-adv-x="1515" 
d="M217 1434h6q23 0 23 -25v-887q0 -224 131.5 -361.5t380.5 -137.5t380.5 137.5t131.5 361.5v887q0 25 22 25h6q23 0 23 -25v-897q0 -116 -37 -213.5t-107 -170t-177.5 -113t-241.5 -40.5t-241.5 40.5t-177.5 113t-107 170t-37 213.5v897q0 25 22 25zM1001 1794h11
q16 0 16 -14q2 -66 -33.5 -118.5t-97.5 -51.5q-28 0 -57.5 13t-48.5 27.5t-48 39.5q-26 22 -41.5 34t-39 22.5t-44.5 10.5q-79 0 -88 -123q0 -18 -18 -18h-10q-17 0 -17 14q2 70 34.5 120.5t98.5 49.5q28 0 57.5 -13t48.5 -27.5t48 -39.5q26 -22 41.5 -34t39 -22.5
t44.5 -10.5q79 0 88 123q0 18 16 18z" />
    <glyph glyph-name="utilde" unicode="&#x169;" horiz-adv-x="1198" 
d="M174 410v591q0 23 21 23h8q20 0 20 -23v-581q0 -182 90.5 -291t259.5 -109q121 0 209 56t130 145t42 199v581q0 23 21 23h8q21 0 21 -23v-978q0 -23 -21 -23h-8q-21 0 -21 23v192q-52 -113 -149 -176.5t-232 -63.5q-185 0 -292 120t-107 315zM834 1415h10q16 0 16 -14
q2 -66 -33.5 -118.5t-97.5 -51.5q-28 0 -57.5 13t-48.5 27.5t-48 39.5q-27 23 -42 34t-38 22t-44 11q-80 0 -89 -123q0 -18 -18 -18h-10q-17 0 -17 14q2 69 35 120t99 50q28 0 57.5 -13.5t48 -27.5t47.5 -39q26 -22 41.5 -34t39 -22.5t44.5 -10.5q79 0 88 123q0 18 17 18z
" />
    <glyph glyph-name="Umacron" unicode="&#x16a;" horiz-adv-x="1515" 
d="M217 1434h6q23 0 23 -25v-887q0 -224 131.5 -361.5t380.5 -137.5t380.5 137.5t131.5 361.5v887q0 25 22 25h6q23 0 23 -25v-897q0 -116 -37 -213.5t-107 -170t-177.5 -113t-241.5 -40.5t-241.5 40.5t-177.5 113t-107 170t-37 213.5v897q0 25 22 25zM510 1726h496
q18 0 18 -16v-10q0 -17 -18 -17h-496q-18 0 -18 17v10q0 16 18 16z" />
    <glyph glyph-name="umacron" unicode="&#x16b;" horiz-adv-x="1198" 
d="M174 410v591q0 23 21 23h8q20 0 20 -23v-581q0 -182 90.5 -291t259.5 -109q121 0 209 56t130 145t42 199v581q0 23 21 23h8q21 0 21 -23v-978q0 -23 -21 -23h-8q-21 0 -21 23v192q-52 -113 -149 -176.5t-232 -63.5q-185 0 -292 120t-107 315zM342 1348h496q18 0 18 -17
v-10q0 -16 -18 -16h-496q-18 0 -18 16v10q0 17 18 17z" />
    <glyph glyph-name="Ubreve" unicode="&#x16c;" horiz-adv-x="1515" 
d="M217 1434h6q23 0 23 -25v-887q0 -224 131.5 -361.5t380.5 -137.5t380.5 137.5t131.5 361.5v887q0 25 22 25h6q23 0 23 -25v-897q0 -116 -37 -213.5t-107 -170t-177.5 -113t-241.5 -40.5t-241.5 40.5t-177.5 113t-107 170t-37 213.5v897q0 25 22 25zM516 1829h10
q7 0 11 -3t6.5 -9.5t4 -12t3 -15t2.5 -15.5q19 -70 72.5 -110t128.5 -40t128 40t72 110q1 6 2.5 15.5t3 15t4 12t6.5 9.5t11 3h10q17 0 17 -14q0 -18 -9 -54q-22 -79 -90 -129.5t-155 -50.5t-155.5 50.5t-90.5 129.5q-8 32 -8 54q0 14 16 14z" />
    <glyph glyph-name="ubreve" unicode="&#x16d;" horiz-adv-x="1198" 
d="M174 410v591q0 23 21 23h8q20 0 20 -23v-581q0 -182 90.5 -291t259.5 -109q121 0 209 56t130 145t42 199v581q0 23 21 23h8q21 0 21 -23v-978q0 -23 -21 -23h-8q-21 0 -21 23v192q-52 -113 -149 -176.5t-232 -63.5q-185 0 -292 120t-107 315zM348 1450h10q7 0 11 -3
t6.5 -9.5t4 -12t3 -15t2.5 -15.5q19 -70 72.5 -110t128.5 -40t128 40t72 110q1 6 2.5 15.5t3 15t4 12t6.5 9.5t11 3h10q17 0 17 -14q0 -18 -9 -54q-22 -79 -90 -129.5t-155 -50.5t-155.5 50.5t-90.5 129.5q-8 32 -8 54q0 14 16 14z" />
    <glyph glyph-name="Uring" unicode="&#x16e;" horiz-adv-x="1515" 
d="M217 1434h6q23 0 23 -25v-887q0 -224 131.5 -361.5t380.5 -137.5t380.5 137.5t131.5 361.5v887q0 25 22 25h6q23 0 23 -25v-897q0 -116 -37 -213.5t-107 -170t-177.5 -113t-241.5 -40.5t-241.5 40.5t-177.5 113t-107 170t-37 213.5v897q0 25 22 25zM758 1837
q65 0 106 -41t41 -102q0 -60 -43 -103t-104 -43t-104.5 43t-43.5 103q0 61 41 102t107 41zM651 1694q0 -44 32 -76.5t75 -32.5t74.5 32.5t31.5 76.5q0 45 -29.5 75.5t-76.5 30.5q-46 0 -76.5 -31t-30.5 -75z" />
    <glyph glyph-name="uring" unicode="&#x16f;" horiz-adv-x="1198" 
d="M174 410v591q0 23 21 23h8q20 0 20 -23v-581q0 -182 90.5 -291t259.5 -109q121 0 209 56t130 145t42 199v581q0 23 21 23h8q21 0 21 -23v-978q0 -23 -21 -23h-8q-21 0 -21 23v192q-52 -113 -149 -176.5t-232 -63.5q-185 0 -292 120t-107 315zM590 1458q65 0 106 -41
t41 -102q0 -60 -43 -103t-104 -43t-104.5 43t-43.5 103q0 61 41 102t107 41zM483 1315q0 -44 32 -76.5t75 -32.5t74.5 32.5t31.5 76.5q0 45 -29.5 75.5t-76.5 30.5q-46 0 -76.5 -30.5t-30.5 -75.5z" />
    <glyph glyph-name="Uhungarumlaut" unicode="&#x170;" horiz-adv-x="1515" 
d="M217 1434h6q23 0 23 -25v-887q0 -224 131.5 -361.5t380.5 -137.5t380.5 137.5t131.5 361.5v887q0 25 22 25h6q23 0 23 -25v-897q0 -116 -37 -213.5t-107 -170t-177.5 -113t-241.5 -40.5t-241.5 40.5t-177.5 113t-107 170t-37 213.5v897q0 25 22 25zM582 1591l-7 6
q-4 4 -4 9q0 3 9 12l194 207q6 6 12 6q8 0 11 -6l18 -21q6 -6 6 -12t-6 -12l-211 -189q-6 -6 -12 -6q-4 0 -10 6zM895 1591l-6 6q-4 4 -4 9q0 4 8 12l194 207q6 6 13 6t10 -6l18 -21q7 -7 7 -12t-7 -12l-210 -189q-6 -6 -13 -6q-4 0 -10 6z" />
    <glyph glyph-name="uhungarumlaut" unicode="&#x171;" horiz-adv-x="1198" 
d="M174 410v591q0 23 21 23h8q20 0 20 -23v-581q0 -182 90.5 -291t259.5 -109q121 0 209 56t130 145t42 199v581q0 23 21 23h8q21 0 21 -23v-978q0 -23 -21 -23h-8q-21 0 -21 23v192q-52 -113 -149 -176.5t-232 -63.5q-185 0 -292 120t-107 315zM414 1212l-6 7q-5 5 -5 8
t9 12l194 207q6 6 12 6q8 0 11 -6l18 -21q6 -6 6 -12t-6 -12l-211 -189q-6 -6 -12 -6q-4 0 -10 6zM727 1212l-6 7q-4 4 -4 8t8 12l195 207q6 6 12 6q7 0 10 -6l19 -21q6 -6 6 -12t-6 -12l-211 -189q-6 -6 -13 -6q-4 0 -10 6z" />
    <glyph glyph-name="Uogonek" unicode="&#x172;" horiz-adv-x="1515" 
d="M1321 1409v-897q-3 -134 -43 -229q-52 -127 -161.5 -203.5t-250.5 -95.5q-70 -40 -107 -81.5t-38 -107.5q0 -54 32.5 -82t94.5 -28q10 0 31 3t30 3q12 0 15 -13l2 -10q3 -17 -13 -20q-35 -6 -65 -6q-83 0 -128.5 41.5t-45.5 111.5q6 108 119 182q-12 -2 -35 -2
q-134 0 -241.5 40.5t-177.5 113t-107 170t-37 213.5v897q0 25 22 25h6q23 0 23 -25v-887q0 -224 131.5 -361.5t380.5 -137.5t380.5 137.5t131.5 361.5v887q0 25 22 25h6q23 0 23 -25z" />
    <glyph glyph-name="uogonek" unicode="&#x173;" horiz-adv-x="1198" 
d="M954 8v207q-52 -113 -149 -176.5t-232 -63.5q-185 0 -292 120t-107 315v591q0 23 21 23h8q20 0 20 -23v-581q0 -182 90.5 -291t259.5 -109q121 0 209 56t130 145t42 199v581q0 23 21 23h8q21 0 21 -23v-981q0 -18 -21 -30q-74 -41 -116 -85t-42 -110q0 -54 32.5 -82
t94.5 -28q10 0 31.5 3t30.5 3q11 0 14 -13l2 -10q3 -17 -12 -20q-35 -6 -66 -6q-83 0 -128.5 41.5t-45.5 111.5q5 133 176 213z" />
    <glyph glyph-name="Wcircumflex" unicode="&#x174;" horiz-adv-x="2041" 
d="M752 1591l-4 4q-5 5 -5 9q0 8 9 14l227 207q15 12 33 12h16q19 0 31 -12l229 -207q8 -8 8 -14q0 -1 -4 -9l-4 -4q-4 -4 -10 -4q-4 0 -12 4l-246 195l-246 -195q-8 -4 -12 -4q-2 0 -10 4zM616 0h-22q-20 0 -29 20l-489 1373q-8 21 -8 26t4.5 10t11.5 5h12q21 0 27 -21
l483 -1366l383 1366q7 21 27 21h10q20 0 27 -21l383 -1366l481 1366q9 21 29 21h10q10 0 14.5 -8t1.5 -17l-497 -1389q-6 -20 -29 -20h-23q-20 0 -26 20l-375 1326l-377 -1326q-6 -20 -29 -20z" />
    <glyph glyph-name="wcircumflex" unicode="&#x175;" horiz-adv-x="1525" 
d="M434 18l-364 983q-3 9 1 16t13 7h12q19 0 25 -18l350 -959l254 959q6 18 25 18h30q19 0 25 -18l250 -959l352 959q6 18 25 18h10q16 0 16 -14q0 -7 -2 -9l-364 -983q-5 -18 -25 -18h-23q-21 0 -24 18l-256 959l-256 -959q-6 -18 -25 -18h-22q-22 0 -27 18zM494 1212l-5 5
q-4 4 -4 8q0 8 9 14l227 207q15 12 33 12h16q19 0 31 -12l229 -207q8 -8 8 -14l-4 -8l-4 -5q-4 -4 -10 -4q-4 0 -12 4l-246 195l-246 -195q-8 -4 -12 -4q-2 0 -10 4z" />
    <glyph glyph-name="Ycircumflex" unicode="&#x176;" horiz-adv-x="1275" 
d="M1192 1411l-528 -881v-505q0 -25 -23 -25h-6q-23 0 -23 25v505l-526 881q-2 4 -2 10q0 13 14 13h13q17 0 30 -19l498 -837l498 837q13 19 30 19h13q14 0 14 -13q0 -6 -2 -10zM371 1591l-4 4q-2 2 -2 9q0 8 6 14l227 207q15 12 33 12h16q19 0 31 -12l229 -207
q11 -7 11 -14q0 -2 -7 -9l-4 -4q-4 -4 -10 -4q-4 0 -12 4l-246 195l-246 -195q-8 -4 -12 -4q-2 0 -10 4z" />
    <glyph glyph-name="ycircumflex" unicode="&#x177;" horiz-adv-x="1097" 
d="M518 0l-446 1001q-2 4 -2 11q0 12 14 12h12q18 0 27 -18l426 -959l426 959q9 18 26 18h13q16 0 16 -12q0 -3 -4 -11l-563 -1261q-41 -94 -84 -134t-111 -40q-63 0 -114 26q-19 10 -19 21q0 6 2 10l4 6q6 9 13 9l10 -5q49 -24 104 -24q47 0 80 29t66 102l116 260h-12z
M281 1212l-5 5q-2 2 -2 8q0 7 7 14l227 207q15 12 33 12h16q19 0 31 -12l229 -207q10 -7 10 -14q0 -2 -6 -8l-4 -5q-4 -4 -10 -4q-4 0 -12 4l-246 195l-246 -195q-8 -4 -12 -4q-2 0 -10 4z" />
    <glyph glyph-name="Ydieresis" unicode="&#x178;" horiz-adv-x="1275" 
d="M1192 1411l-528 -881v-505q0 -25 -23 -25h-6q-23 0 -23 25v505l-526 881q-2 4 -2 10q0 13 14 13h13q17 0 30 -19l498 -837l498 837q13 19 30 19h13q14 0 14 -13q0 -6 -2 -10zM434 1837q22 0 37.5 -15.5t15.5 -37.5t-15.5 -37.5t-37.5 -15.5t-37.5 15.5t-15.5 37.5
t15.5 37.5t37.5 15.5zM844 1837q22 0 37.5 -15.5t15.5 -37.5t-15.5 -37.5t-37.5 -15.5t-37.5 15.5t-15.5 37.5t15.5 37.5t37.5 15.5z" />
    <glyph glyph-name="Zacute" unicode="&#x179;" horiz-adv-x="1157" 
d="M1055 1413v-6q0 -19 -19 -49l-905 -1311h950q25 0 25 -20v-4q0 -23 -25 -23h-985q-24 0 -24 20v7q0 20 18 49l905 1310h-868q-25 0 -25 23v4q0 10 7.5 15.5t17.5 5.5h903q10 0 17.5 -5.5t7.5 -15.5zM500 1591l-4 4q-4 4 -4 9q0 9 8 14l239 207q6 6 13 6q6 0 12 -6l18 -21
q4 -8 4 -10q0 -6 -8 -14l-256 -189q-6 -6 -12 -6q-4 0 -10 6z" />
    <glyph glyph-name="zacute" unicode="&#x17a;" horiz-adv-x="1075" 
d="M182 45h738q22 0 22 -20v-5q0 -20 -22 -20h-775q-22 0 -22 20v7q0 19 16 41l707 911h-670q-22 0 -22 20v5q0 20 22 20h703q22 0 22 -20v-7q0 -19 -16 -41zM442 1212l-4 5q-4 4 -4 8q0 9 8 14l240 207q6 6 12 6q7 0 13 -6l18 -21q4 -8 4 -10q0 -6 -8 -14l-256 -189
q-6 -6 -12 -6q-5 0 -11 6z" />
    <glyph glyph-name="Zdotaccent" unicode="&#x17b;" horiz-adv-x="1157" 
d="M1055 1413v-6q0 -19 -19 -49l-905 -1311h950q25 0 25 -20v-4q0 -23 -25 -23h-985q-24 0 -24 20v7q0 20 18 49l905 1310h-868q-25 0 -25 23v4q0 10 7.5 15.5t17.5 5.5h903q10 0 17.5 -5.5t7.5 -15.5zM590 1837q22 0 37.5 -15.5t15.5 -37.5t-15.5 -37.5t-37.5 -15.5
t-37.5 15.5t-15.5 37.5t15.5 37.5t37.5 15.5z" />
    <glyph glyph-name="zdotaccent" unicode="&#x17c;" horiz-adv-x="1075" 
d="M182 45h738q22 0 22 -20v-5q0 -20 -22 -20h-775q-22 0 -22 20v7q0 19 16 41l707 911h-670q-22 0 -22 20v5q0 20 22 20h703q22 0 22 -20v-7q0 -19 -16 -41zM532 1458q22 0 38 -15.5t16 -37.5t-16 -37.5t-38 -15.5t-37.5 15.5t-15.5 37.5t15.5 37.5t37.5 15.5z" />
    <glyph glyph-name="Zcaron" unicode="&#x17d;" horiz-adv-x="1157" 
d="M1055 1413v-6q0 -19 -19 -49l-905 -1311h950q25 0 25 -20v-4q0 -23 -25 -23h-985q-24 0 -24 20v7q0 20 18 49l905 1310h-868q-25 0 -25 23v4q0 10 7.5 15.5t17.5 5.5h903q10 0 17.5 -5.5t7.5 -15.5zM315 1823l4 4q8 4 11 4q4 0 12 -4l246 -195l246 195q8 4 12 4
q6 0 10 -4l4 -4l4 -8q0 -7 -8 -15l-229 -207q-12 -12 -31 -12h-16q-18 0 -33 12l-228 207q-8 5 -8 15q0 4 4 8z" />
    <glyph glyph-name="zcaron" unicode="&#x17e;" horiz-adv-x="1075" 
d="M182 45h738q22 0 22 -20v-5q0 -20 -22 -20h-775q-22 0 -22 20v7q0 19 16 41l707 911h-670q-22 0 -22 20v5q0 20 22 20h703q22 0 22 -20v-7q0 -19 -16 -41zM260 1444l4 4q8 4 10 4q5 0 13 -4l245 -195l246 195q8 4 13 4q6 0 10 -4l4 -4l4 -8q0 -7 -8 -15l-230 -207
q-12 -12 -30 -12h-17q-17 0 -32 12l-228 207q-8 5 -8 15q0 4 4 8z" />
    <glyph glyph-name="longs" unicode="&#x17f;" horiz-adv-x="653" 
d="M51 999v5q0 20 23 20h162v205q0 149 79 240.5t215 91.5q102 0 175 -33q16 -8 16 -15q0 -4 -2 -6l-4 -8q-3 -12 -17 -12q-6 0 -8 2q-77 27 -160 27q-118 0 -181.5 -81t-63.5 -216v-1196q0 -23 -21 -23h-8q-20 0 -20 23v956h-162q-23 0 -23 20z" />
    <glyph glyph-name="florin" unicode="&#x192;" 
d="M637 1024v205q0 148 79.5 240t215.5 92q96 0 178 -33q12 -8 12 -15q0 -4 -2 -6l-4 -8q-3 -12 -16 -12q-6 0 -8 2q-76 27 -160 27q-118 0 -182 -81t-64 -216v-195h315q23 0 23 -20v-5q0 -20 -23 -20h-315v-1022q0 -148 -79.5 -240t-215.5 -92q-90 0 -166 33q-14 7 -14 16
q0 7 2 9l4 8q5 8 14 8q7 0 11 -2q70 -27 149 -27q118 0 182 81t64 216v1012h-162q-22 0 -22 20v5q0 20 22 20h162z" />
    <glyph glyph-name="uni01C4" unicode="&#x1c4;" horiz-adv-x="2734" 
d="M240 1434h456q171 0 311 -52t236 -145.5t148.5 -226.5t52.5 -293t-52.5 -293t-148.5 -226.5t-236 -145.5t-311 -52h-456q-25 0 -25 25v1384q0 25 25 25zM266 1386v-1339h441q313 0 498.5 184.5t185.5 485.5t-185.5 485t-498.5 184h-441zM2632 1413v-6q0 -19 -19 -49
l-905 -1311h950q25 0 25 -20v-4q0 -23 -25 -23h-985q-24 0 -24 20v7q0 20 18 49l905 1310h-868q-25 0 -25 23v4q0 10 7.5 15.5t17.5 5.5h903q10 0 17.5 -5.5t7.5 -15.5zM1892 1823l4 4q8 4 11 4q4 0 12 -4l246 -195l245 195q8 4 13 4q6 0 10 -4l4 -4l4 -8q0 -7 -8 -15
l-229 -207q-12 -12 -31 -12h-16q-18 0 -33 12l-228 207q-8 5 -8 15q0 4 4 8z" />
    <glyph glyph-name="uni01C5" unicode="&#x1c5;" horiz-adv-x="2652" 
d="M240 1434h456q171 0 311 -52t236 -145.5t148.5 -226.5t52.5 -293t-52.5 -293t-148.5 -226.5t-236 -145.5t-311 -52h-456q-25 0 -25 25v1384q0 25 25 25zM266 1386v-1339h441q313 0 498.5 184.5t185.5 485.5t-185.5 485t-498.5 184h-441zM1759 45h738q22 0 22 -20v-5
q0 -20 -22 -20h-775q-22 0 -22 20v7q0 19 16 41l707 911h-670q-22 0 -22 20v5q0 20 22 20h703q22 0 22 -20v-7q0 -19 -16 -41zM1837 1444l4 4q8 4 10 4q5 0 13 -4l245 -195l246 195q8 4 12 4q7 0 11 -4l4 -4l4 -8q0 -7 -8 -15l-230 -207q-12 -12 -30 -12h-17q-18 0 -33 12
l-227 207q-8 5 -8 15q0 4 4 8z" />
    <glyph glyph-name="uni01C6" unicode="&#x1c6;" horiz-adv-x="2392" 
d="M1102 0h-8q-21 0 -21 23v249q-65 -140 -185.5 -218.5t-273.5 -78.5q-222 0 -367 153t-145 384t145 384t367 153q153 0 273.5 -78.5t185.5 -218.5v749q0 19 12 23l19 6q10 3 14 -1.5t4 -17.5v-1488q0 -23 -20 -23zM614 20q98 0 183.5 38.5t145 104t94 156.5t34.5 193
t-34.5 193t-94 156.5t-145 104t-183.5 38.5q-198 0 -329 -142t-131 -350t131 -350t329 -142zM1499 45h737q23 0 23 -20v-5q0 -20 -23 -20h-774q-22 0 -22 20v7q0 19 16 41l707 911h-670q-23 0 -23 20v5q0 20 23 20h702q23 0 23 -20v-7q0 -19 -16 -41zM1577 1444l4 4
q8 4 10 4q5 0 13 -4l245 -195l246 195q8 4 12 4q7 0 11 -4l4 -4l4 -8q0 -7 -8 -15l-230 -207q-12 -12 -30 -12h-17q-18 0 -33 12l-227 207q-8 5 -8 15q0 4 4 8z" />
    <glyph glyph-name="uni01C7" unicode="&#x1c7;" horiz-adv-x="2160" 
d="M266 47h692q25 0 25 -20v-4q0 -23 -25 -23h-718q-25 0 -25 25v1384q0 25 23 25h6q22 0 22 -25v-1362zM1141 213l6 6q6 6 10 6q7 0 27 -20q26 -29 40 -44t38 -36t53 -39q100 -63 229 -63q177 0 269 85t92 281v1020q0 25 22 25h6q23 0 23 -25v-1030q0 -404 -412 -404
q-102 0 -190 37q-112 47 -203 158q-16 20 -16 31q0 6 6 12z" />
    <glyph glyph-name="uni01C8" unicode="&#x1c8;" horiz-adv-x="1536" 
d="M266 47h692q25 0 25 -20v-4q0 -23 -25 -23h-718q-25 0 -25 25v1384q0 25 23 25h6q22 0 22 -25v-1362zM1315 1458q22 0 37.5 -15.5t15.5 -37.5t-15.5 -37.5t-37.5 -15.5t-37.5 15.5t-15.5 37.5t15.5 37.5t37.5 15.5zM1311 1024h8q20 0 20 -23v-1107q0 -41 -2.5 -74
t-11 -71.5t-23 -67.5t-40.5 -56t-62 -43q-25 -10 -33 -10q-13 0 -18 10l-4 8q-4 11 4 19q2 2 22 12q29 12 48 29q44 41 57.5 102t13.5 142v1107q0 23 21 23z" />
    <glyph glyph-name="uni01C9" unicode="&#x1c9;" horiz-adv-x="899" 
d="M244 1513v-1490q0 -23 -21 -23h-8q-20 0 -20 23v1480q0 19 12 23l18 6q10 3 14.5 -2t4.5 -17zM678 1458q22 0 37.5 -15.5t15.5 -37.5t-15.5 -37.5t-37.5 -15.5t-37.5 15.5t-15.5 37.5t15.5 37.5t37.5 15.5zM674 1024h8q20 0 20 -23v-1107q0 -41 -2.5 -74t-11 -71.5
t-23 -67.5t-40.5 -56t-62 -43q-25 -10 -33 -10q-13 0 -18 10l-4 8q-4 11 4 19q1 1 23 12q27 12 47 29q44 41 57.5 102t13.5 142v1107q0 23 21 23z" />
    <glyph glyph-name="uni01CA" unicode="&#x1ca;" horiz-adv-x="2590" 
d="M1266 0h-31q-24 0 -35 18l-934 1368v-1361q0 -25 -22 -25h-6q-23 0 -23 25v1384q0 25 25 25h30q24 0 35 -19l934 -1368v1362q0 25 23 25h6q22 0 22 -25v-1384q0 -25 -24 -25zM1571 213l6 6q6 6 10 6q7 0 27 -20q26 -29 40 -44t38 -36t53 -39q100 -63 229 -63
q177 0 269 85t92 281v1020q0 25 22 25h6q23 0 23 -25v-1030q0 -404 -412 -404q-102 0 -190 37q-112 47 -203 158q-16 20 -16 31q0 6 6 12z" />
    <glyph glyph-name="uni01CB" unicode="&#x1cb;" horiz-adv-x="1966" 
d="M1266 0h-31q-24 0 -35 18l-934 1368v-1361q0 -25 -22 -25h-6q-23 0 -23 25v1384q0 25 25 25h30q24 0 35 -19l934 -1368v1362q0 25 23 25h6q22 0 22 -25v-1384q0 -25 -24 -25zM1745 1458q22 0 37.5 -15.5t15.5 -37.5t-15.5 -37.5t-37.5 -15.5t-37.5 15.5t-15.5 37.5
t15.5 37.5t37.5 15.5zM1741 1024h8q20 0 20 -23v-1107q0 -41 -2.5 -74t-11 -71.5t-23 -67.5t-40.5 -56t-62 -43q-25 -10 -33 -10q-13 0 -18 10l-4 8q-4 11 4 19q1 1 23 12q27 12 47 29q44 41 57.5 102t13.5 142v1107q0 23 21 23z" />
    <glyph glyph-name="uni01CC" unicode="&#x1cc;" horiz-adv-x="1679" 
d="M1044 614v-591q0 -23 -20 -23h-8q-21 0 -21 23v581q0 182 -93 291t-267 109q-184 0 -287.5 -115t-103.5 -285v-581q0 -23 -21 -23h-8q-20 0 -20 23v978q0 23 20 23h8q21 0 21 -23v-192q54 113 153.5 176.5t237.5 63.5q189 0 299 -120t110 -315zM1458 1458
q22 0 37.5 -15.5t15.5 -37.5t-15.5 -37.5t-37.5 -15.5t-37.5 15.5t-15.5 37.5t15.5 37.5t37.5 15.5zM1454 1024h8q21 0 21 -23v-1107q0 -112 -28.5 -192.5t-111.5 -119.5q-25 -10 -32 -10q-14 0 -19 10l-4 8q-4 11 4 19q1 1 23 12q27 12 47 29q44 41 58 102.5t14 141.5v1107
q0 23 20 23z" />
    <glyph glyph-name="uni01CD" unicode="&#x1cd;" horiz-adv-x="1400" 
d="M428 1823l4 4q8 4 10 4q5 0 13 -4l245 -195l246 195q8 4 12 4q7 0 11 -4l4 -4l4 -8q0 -7 -8 -15l-230 -207q-12 -12 -30 -12h-17q-18 0 -33 12l-227 207q-8 5 -8 15q0 4 4 8zM688 1434h25q19 0 28 -21l588 -1388q2 -2 2 -9q0 -6 -5.5 -11t-12.5 -5h-8q-20 0 -29 20
l-158 375h-835l-158 -375q-9 -20 -27 -20h-10q-18 0 -18 14q0 4 8 25l581 1374q9 21 29 21zM1098 442l-398 944l-397 -944h795z" />
    <glyph glyph-name="uni01CE" unicode="&#x1ce;" horiz-adv-x="1177" 
d="M983 0h-8q-21 0 -21 23v161q-120 -209 -401 -209q-172 0 -285.5 92.5t-113.5 243.5t119 242.5t300 91.5q116 0 191 -11t190 -40l-2 61q0 158 -90.5 253.5t-257.5 95.5q-200 0 -346 -109q-12 -8 -20 -8q-7 0 -13 6l-6 6q-6 6 -6 12q0 5 18 23q71 56 170.5 85.5t202.5 29.5
q185 0 292.5 -106t107.5 -277v-643q0 -23 -21 -23zM954 358v189q-100 31 -181 42t-200 11q-158 0 -263 -80t-105 -209t99.5 -210t248.5 -81q175 0 288 90.5t113 247.5zM305 1444l4 4q8 4 10 4q5 0 13 -4l246 -195l245 195q8 4 13 4q6 0 10 -4l4 -4l4 -8q0 -7 -8 -15
l-230 -207q-12 -12 -30 -12h-17q-17 0 -32 12l-228 207q-8 5 -8 15q0 4 4 8z" />
    <glyph glyph-name="uni01CF" unicode="&#x1cf;" horiz-adv-x="481" 
d="M266 1409v-1384q0 -25 -22 -25h-6q-23 0 -23 25v1384q0 25 23 25h6q22 0 22 -25zM-33 1823l4 4q4 4 11 4q4 0 12 -4l246 -195l245 195q8 4 13 4q2 0 10 -4l4 -4l4 -8q0 -7 -8 -15l-229 -207q-12 -12 -31 -12h-17q-17 0 -32 12l-228 207q-8 5 -8 15q0 4 4 8z" />
    <glyph glyph-name="uni01D0" unicode="&#x1d0;" horiz-adv-x="438" 
d="M215 1024h8q21 0 21 -23v-978q0 -23 -21 -23h-8q-20 0 -20 23v978q0 23 20 23zM-55 1444l4 4q4 4 10 4q4 0 12 -4l246 -195l246 195q8 4 12 4q2 0 10 -4l4 -4q1 -2 2 -3.5t2 -2.5t1 -2q0 -6 -9 -15l-229 -207q-12 -12 -31 -12h-16q-18 0 -33 12l-227 207q-8 5 -8 15
q0 4 4 8z" />
    <glyph glyph-name="uni01D1" unicode="&#x1d1;" horiz-adv-x="1720" 
d="M860 1458q160 0 299.5 -57t237.5 -155.5t154.5 -235.5t56.5 -293t-56.5 -293t-154.5 -236t-237.5 -156t-299.5 -57q-212 0 -383.5 97.5t-267.5 267t-96 377.5q0 155 56.5 292.5t154.5 236t237.5 155.5t298.5 57zM860 23q196 0 355.5 92t249 251t89.5 351t-89.5 351
t-249 251t-355.5 92t-355.5 -92t-249 -251t-89.5 -351t89.5 -351t249 -251t355.5 -92zM588 1823l4 4q8 4 10 4q4 0 12 -4l246 -195l246 195q8 4 12 4q6 0 10 -4l5 -4l4 -8q0 -6 -9 -15l-229 -207q-12 -12 -31 -12h-16q-18 0 -33 12l-227 207q-8 5 -8 15q0 4 4 8z" />
    <glyph glyph-name="uni01D2" unicode="&#x1d2;" horiz-adv-x="1286" 
d="M643 1049q153 0 277 -70t194 -192.5t70 -274.5t-70 -274.5t-194 -192.5t-277 -70t-277 70t-194 192.5t-70 274.5t70 274.5t194 192.5t277 70zM643 20q211 0 350.5 142t139.5 350t-139.5 350t-350.5 142q-139 0 -251.5 -65t-175 -177.5t-62.5 -249.5t62.5 -249.5
t175 -177.5t251.5 -65zM371 1444l4 4q8 4 10 4q4 0 12 -4l246 -195l246 195q8 4 12 4q6 0 10 -4l4 -4q1 -2 2 -3.5t2 -2.5t1 -2q0 -6 -9 -15l-229 -207q-12 -12 -31 -12h-16q-18 0 -33 12l-227 207q-8 5 -8 15q0 4 4 8z" />
    <glyph glyph-name="uni01D3" unicode="&#x1d3;" horiz-adv-x="1515" 
d="M217 1434h6q23 0 23 -25v-887q0 -224 131.5 -361.5t380.5 -137.5t380.5 137.5t131.5 361.5v887q0 25 22 25h6q23 0 23 -25v-897q0 -116 -37 -213.5t-107 -170t-177.5 -113t-241.5 -40.5t-241.5 40.5t-177.5 113t-107 170t-37 213.5v897q0 25 22 25zM485 1823l4 4
q8 4 11 4q4 0 12 -4l246 -195l246 195q8 4 12 4q6 0 10 -4l4 -4l4 -8q0 -7 -8 -15l-229 -207q-12 -12 -31 -12h-16q-18 0 -33 12l-228 207q-8 5 -8 15q0 4 4 8z" />
    <glyph glyph-name="uni01D4" unicode="&#x1d4;" horiz-adv-x="1198" 
d="M174 410v591q0 23 21 23h8q20 0 20 -23v-581q0 -182 90.5 -291t259.5 -109q121 0 209 56t130 145t42 199v581q0 23 21 23h8q21 0 21 -23v-978q0 -23 -21 -23h-8q-21 0 -21 23v192q-52 -113 -149 -176.5t-232 -63.5q-185 0 -292 120t-107 315zM315 1444l4 4q8 4 11 4
q4 0 12 -4l246 -195l246 195q8 4 12 4q6 0 10 -4l4 -4l4 -8q0 -7 -8 -15l-229 -207q-12 -12 -31 -12h-16q-18 0 -33 12l-228 207q-8 5 -8 15q0 4 4 8z" />
    <glyph glyph-name="Gcaron" unicode="&#x1e6;" horiz-adv-x="1566" 
d="M547 1823l4 4q8 4 10 4q4 0 12 -4l246 -195l246 195q8 4 12 4q6 0 10 -4l5 -4l4 -8q0 -6 -9 -15l-229 -207q-12 -12 -31 -12h-16q-18 0 -33 12l-227 207q-8 5 -8 15q0 4 4 8zM1352 219v469h-478q-24 0 -24 23v4q0 20 24 20h504q25 0 25 -24v-478q0 -29 -27 -59
q-94 -97 -243 -148t-304 -51q-157 0 -291 57t-227 156t-145.5 236t-52.5 293t52.5 292.5t145.5 235.5t227 156t291 57q149 0 289.5 -50.5t243.5 -147.5q20 -20 20 -29t-8 -17l-6 -6q-6 -6 -14 -6q-10 0 -25 15q-57 54 -110 86q-175 108 -390 108q-192 0 -344.5 -92
t-235.5 -250.5t-83 -351.5q0 -194 83 -352t235.5 -250.5t344.5 -91.5q152 0 287.5 49t235.5 147z" />
    <glyph glyph-name="gcaron" unicode="&#x1e7;" horiz-adv-x="1280" 
d="M170 -244l6 6q7 7 14 7q10 0 21 -11q77 -67 166 -104q105 -43 235 -43q209 0 316.5 99t107.5 270v321q-61 -132 -179.5 -206.5t-264.5 -74.5q-213 0 -351.5 146t-138.5 369t138.5 368.5t351.5 145.5q146 0 264.5 -74.5t179.5 -206.5v233q0 23 21 23h8q20 0 20 -23v-1032
q0 -191 -125 -297t-348 -106q-262 0 -430 149q-18 13 -18 27q0 8 6 14zM592 66q192 0 317 133t125 336t-125 336t-317 133q-190 0 -314 -133t-124 -336t124 -336t314 -133zM322 1444l4 4q8 4 10 4q4 0 12 -4l246 -195l246 195q8 4 12 4q6 0 10 -4l4 -4l4 -8q0 -7 -8 -15
l-229 -207q-12 -12 -31 -12h-16q-18 0 -33 12l-227 207q-9 6 -9 15q0 3 5 8z" />
    <glyph glyph-name="uni01F4" unicode="&#x1f4;" horiz-adv-x="1566" 
d="M729 1591l-4 4q-4 4 -4 9q0 9 8 14l240 207q6 6 12 6t12 -6l19 -21q4 -8 4 -10q0 -6 -8 -14l-256 -189q-6 -6 -13 -6q-4 0 -10 6zM1352 219v469h-478q-24 0 -24 23v4q0 20 24 20h504q25 0 25 -24v-478q0 -29 -27 -59q-94 -97 -243 -148t-304 -51q-157 0 -291 57t-227 156
t-145.5 236t-52.5 293t52.5 292.5t145.5 235.5t227 156t291 57q149 0 289.5 -50.5t243.5 -147.5q20 -20 20 -29t-8 -17l-6 -6q-6 -6 -14 -6q-10 0 -25 15q-57 54 -110 86q-175 108 -390 108q-192 0 -344.5 -92t-235.5 -250.5t-83 -351.5q0 -194 83 -352t235.5 -250.5
t344.5 -91.5q152 0 287.5 49t235.5 147z" />
    <glyph glyph-name="uni01F5" unicode="&#x1f5;" horiz-adv-x="1280" 
d="M170 -244l6 6q7 7 14 7q10 0 21 -11q77 -67 166 -104q105 -43 235 -43q209 0 316.5 99t107.5 270v321q-61 -132 -179.5 -206.5t-264.5 -74.5q-213 0 -351.5 146t-138.5 369t138.5 368.5t351.5 145.5q146 0 264.5 -74.5t179.5 -206.5v233q0 23 21 23h8q20 0 20 -23v-1032
q0 -191 -125 -297t-348 -106q-262 0 -430 149q-18 13 -18 27q0 8 6 14zM592 66q192 0 317 133t125 336t-125 336t-317 133q-190 0 -314 -133t-124 -336t124 -336t314 -133zM504 1212l-4 5q-4 4 -4 8q0 9 8 14l239 207q6 6 13 6q6 0 12 -6l18 -21l5 -10q0 -5 -9 -14
l-256 -189q-6 -6 -12 -6q-4 0 -10 6z" />
    <glyph glyph-name="Aringacute" unicode="&#x1fa;" horiz-adv-x="1400" 
d="M621 1933l-5 4q-4 4 -4 9q0 8 9 14l239 207q6 6 12 6q7 0 13 -6l18 -21q4 -8 4 -10q0 -6 -8 -14l-256 -189q-6 -6 -12 -6q-4 0 -10 6zM702 1837q65 0 106.5 -41t41.5 -102q0 -60 -43.5 -103t-104.5 -43t-104 43t-43 103q0 61 40.5 102t106.5 41zM596 1694
q0 -44 31.5 -76.5t74.5 -32.5t75 32.5t32 76.5q0 45 -30 75.5t-77 30.5q-45 0 -75.5 -30.5t-30.5 -75.5zM688 1434h25q19 0 28 -21l588 -1388q2 -2 2 -9q0 -6 -5.5 -11t-12.5 -5h-8q-20 0 -29 20l-158 375h-835l-158 -375q-9 -20 -27 -20h-10q-18 0 -18 14q0 4 8 25
l581 1374q9 21 29 21zM1098 442l-398 944l-397 -944h795z" />
    <glyph glyph-name="aringacute" unicode="&#x1fb;" horiz-adv-x="1177" 
d="M983 0h-8q-21 0 -21 23v161q-120 -209 -401 -209q-172 0 -285.5 92.5t-113.5 243.5t119 242.5t300 91.5q116 0 191 -11t190 -40l-2 61q0 158 -90.5 253.5t-257.5 95.5q-200 0 -346 -109q-12 -8 -20 -8q-7 0 -13 6l-6 6q-6 6 -6 12q0 5 18 23q71 56 170.5 85.5t202.5 29.5
q185 0 292.5 -106t107.5 -277v-643q0 -23 -21 -23zM954 358v189q-100 31 -181 42t-200 11q-158 0 -263 -80t-105 -209t99.5 -210t248.5 -81q175 0 288 90.5t113 247.5zM530 1591l-4 4q-4 4 -4 9q0 9 8 14l240 207q6 6 12 6q7 0 13 -6l18 -21q4 -8 4 -10q0 -6 -8 -14
l-256 -189q-6 -6 -12 -6q-5 0 -11 6zM580 1458q65 0 106 -41t41 -102q0 -60 -43 -103t-104 -43t-104.5 43t-43.5 103q0 61 41 102t107 41zM473 1315q0 -44 32 -76.5t75 -32.5t74.5 32.5t31.5 76.5q0 45 -29.5 75.5t-76.5 30.5q-46 0 -76.5 -30.5t-30.5 -75.5z" />
    <glyph glyph-name="AEacute" unicode="&#x1fc;" horiz-adv-x="1976" 
d="M1034 23v331h-678l-221 -336q-12 -18 -33 -18h-14q-14 0 -14 14q0 7 2 9l921 1392q14 19 35 19h797q24 0 24 -21v-4q0 -23 -24 -23h-744v-651h590q25 0 25 -20v-4q0 -23 -25 -23h-590v-641h764q25 0 25 -20v-4q0 -23 -25 -23h-792q-23 0 -23 23zM1034 401v985l-647 -985
h647zM1143 1591l-4 4q-4 4 -4 9q0 9 8 14l239 207q6 6 13 6q6 0 12 -6l18 -21l5 -10q0 -5 -9 -14l-256 -189q-6 -6 -12 -6q-4 0 -10 6z" />
    <glyph glyph-name="aeacute" unicode="&#x1fd;" horiz-adv-x="2048" 
d="M952 594v61q0 158 -90.5 253.5t-257.5 95.5q-124 3 -237 -46q-46 -20 -109 -61q-1 0 -2 -1t-2 -1q-12 -8 -16 -8q-3 0 -11 4l-8 8q-6 6 -6 12q0 7 18 25q141 113 353 113q176 0 284 -82q106 -81 129 -226q57 126 158 203q133 105 318 105q134 0 243.5 -71.5t169.5 -188.5
t60 -254v-21q0 -22 -23 -22h-919q13 -218 151 -347q131 -125 318 -125q165 0 296 93q25 18 66 59l18 18q7 7 15 7q4 0 12 -4l8 -7q8 -8 8 -14q0 -4 -4 -12q-68 -84 -166 -129q-127 -59 -253 -56q-193 7 -318 105q-102 77 -158 205q-39 -129 -112 -197q-113 -113 -332 -113
q-172 0 -285.5 92.5t-113.5 243.5t118.5 242.5t300.5 91.5q116 0 189.5 -11t189.5 -40zM1004 535h892q-7 215 -133 344q-125 125 -290 125q-193 0 -318 -125q-138 -129 -151 -344zM952 348v199q-100 31 -180 42t-199 11q-159 0 -263.5 -80t-104.5 -209t99 -210t249 -81
q170 0 284.5 91t114.5 237zM909 1212l-4 5q-4 4 -4 8q0 9 8 14l240 207q6 6 12 6q7 0 13 -6l18 -21q4 -8 4 -10q0 -6 -8 -14l-256 -189q-6 -6 -12 -6q-5 0 -11 6z" />
    <glyph glyph-name="Oslashacute" unicode="&#x1fe;" horiz-adv-x="1740" 
d="M776 1591l-4 4q-4 4 -4 9q0 9 8 14l240 207q6 6 12 6t12 -6l19 -21q4 -8 4 -10q0 -6 -8 -14l-256 -189q-6 -6 -13 -6q-4 0 -10 6zM463 88l-119 -172q-12 -18 -33 -18h-10q-12 0 -12 12q0 6 2 10l133 193q-208 157 -274 397q-24 89 -27 207q0 155 56.5 292.5t154.5 236
t237.5 155.5t298.5 57q185 -7 306 -59q28 -10 102 -51l119 170q12 18 33 18h10q12 0 12 -12q0 -7 -2 -11l-133 -192q208 -151 274 -397q24 -89 27 -207q0 -156 -56.5 -293t-154.5 -236t-237.5 -156t-299.5 -57q-178 7 -305 60q-39 15 -102 53zM1288 1278l-796 -1149
q55 -34 104 -53q113 -46 274 -53q196 0 355.5 92t249.5 251t90 351q-6 158 -54 276q-74 179 -223 285zM453 156l796 1149q-55 34 -104 53q-112 46 -275 53q-196 0 -355.5 -92t-249 -251t-89.5 -351q7 -162 53 -277q73 -176 224 -284z" />
    <glyph glyph-name="oslashacute" unicode="&#x1ff;" horiz-adv-x="1286" 
d="M559 1212l-4 5q-4 4 -4 8q0 9 8 14l240 207q6 6 12 6t12 -6l19 -21q4 -8 4 -10q0 -6 -8 -14l-256 -189q-6 -6 -13 -6q-4 0 -10 6zM168 -84l131 174q-131 107 -176 270q-18 64 -21 152q0 152 70 274.5t194 192.5t277 70q167 0 309 -91l115 152q11 16 31 16h12q10 0 10 -10
q0 -6 -2 -8l-131 -174q131 -107 176 -270q18 -64 21 -152q0 -152 -70 -274.5t-194 -192.5t-277 -70q-177 6 -309 91l-115 -152q-11 -16 -31 -16h-12q-10 0 -10 10q0 6 2 8zM328 129l596 791q-121 84 -281 84q-139 0 -251.5 -65t-175 -177.5t-62.5 -249.5q0 -112 44.5 -212
t129.5 -171zM958 895l-596 -791q121 -84 281 -84q211 0 350.5 142t139.5 350q0 112 -45 212t-130 171z" />
    <glyph glyph-name="uni0200" unicode="&#x200;" horiz-adv-x="1400" 
d="M688 1434h25q19 0 28 -21l588 -1388q2 -2 2 -9q0 -6 -5.5 -11t-12.5 -5h-8q-20 0 -29 20l-158 375h-835l-158 -375q-9 -20 -27 -20h-10q-10 0 -14.5 8t-1.5 17l587 1388q9 21 29 21zM1098 442l-398 944l-397 -944h795zM883 1597l-6 -6q-6 -6 -11 -6q-3 0 -12 6l-211 189
q-6 6 -6 12t6 12l19 21q6 6 12 6q7 0 10 -6l195 -207q8 -8 8 -12q0 -5 -4 -9zM569 1597l-6 -6q-6 -6 -10 -6q-3 0 -12 6l-211 189q-6 6 -6 12t6 12l18 21q6 6 12 6q8 0 11 -6l194 -207q8 -8 8 -12q0 -5 -4 -9z" />
    <glyph glyph-name="uni0201" unicode="&#x201;" horiz-adv-x="1177" 
d="M983 0h-8q-21 0 -21 23v161q-120 -209 -401 -209q-172 0 -285.5 92.5t-113.5 243.5t119 242.5t300 91.5q116 0 191 -11t190 -40l-2 61q0 158 -90.5 253.5t-257.5 95.5q-200 0 -346 -109q-12 -8 -20 -8q-7 0 -13 6l-6 6q-6 6 -6 12q0 5 18 23q71 56 170.5 85.5t202.5 29.5
q185 0 292.5 -106t107.5 -277v-643q0 -23 -21 -23zM954 358v189q-100 31 -181 42t-200 11q-158 0 -263 -80t-105 -209t99.5 -210t248.5 -81q175 0 288 90.5t113 247.5zM760 1219l-6 -7q-6 -6 -11 -6q-3 0 -12 6l-211 189q-6 6 -6 12t6 12l19 21q6 6 12 6q7 0 10 -6l195 -207
q8 -8 8 -12t-4 -8zM446 1219l-6 -7q-6 -6 -10 -6q-3 0 -12 6l-211 189q-6 6 -6 12t6 12l18 21q6 6 13 6t10 -6l194 -207q9 -9 9 -12t-5 -8z" />
    <glyph glyph-name="Scommaaccent" unicode="&#x218;" horiz-adv-x="1116" 
d="M518 -500l-2 2q-6 6 -6 11q0 2 4 10q46 49 49 106q-24 0 -40.5 17t-16.5 41t16.5 40.5t40.5 16.5q25 0 41.5 -17t16.5 -40q0 -53 -21.5 -102.5t-54.5 -82.5q-12 -8 -15 -8q-6 0 -12 6zM924 1274l-6 -4q-8 -4 -13 -4q-4 0 -20 12q-77 67 -152 100q-85 35 -192 35
q-155 0 -250.5 -78t-95.5 -198q0 -105 58.5 -183.5t184.5 -132.5l250 -106q166 -73 241 -157.5t75 -205.5q0 -178 -128.5 -277.5t-334.5 -99.5q-157 3 -273 70q-110 64 -168 178q-12 24 -12 33q0 12 12 14l9 2q18 5 28 -12q39 -64 72 -102.5t84 -69.5q101 -62 248 -65
q182 0 295.5 86.5t113.5 242.5q0 106 -69 180t-234 148l-244 104q-260 113 -260 353q0 142 109.5 231.5t288.5 89.5q105 0 204.5 -37t169.5 -108q17 -17 17 -27q0 -7 -8 -12z" />
    <glyph glyph-name="scommaaccent" unicode="&#x219;" horiz-adv-x="890" 
d="M520 487l-178 70q-90 35 -144.5 98.5t-54.5 145.5q0 115 83 181.5t225 66.5q180 0 294 -136q5 -5 5 -10q0 -7 -11 -14l-6 -4q-8 -4 -10 -4q-9 0 -18 12q-107 113 -254 113q-120 0 -189 -56t-69 -149q0 -138 165 -201l185 -72q90 -35 139.5 -68t77.5 -84.5t28 -127.5
q0 -136 -89.5 -204.5t-247.5 -68.5q-147 0 -250 74q-49 37 -101 105q-10 15 -10 24q0 12 10 17l9 4q4 2 10 2t14 -8q3 -4 10.5 -14.5t10.5 -14.5q38 -48 61 -66q90 -78 236 -78q134 0 210 58t76 170q0 42 -11 76t-28 56.5t-47.5 43t-58.5 33.5t-72 30zM430 -500l-2 2
q-4 8 -4 11q0 6 2 10q46 49 49 106q-24 0 -40.5 17t-16.5 41t16.5 40.5t40.5 16.5t40.5 -16.5t16.5 -40.5q0 -53 -21 -102.5t-54 -82.5q-8 -8 -15 -8q-3 0 -12 6z" />
    <glyph glyph-name="uni021A" unicode="&#x21a;" horiz-adv-x="1177" 
d="M612 4l-32 -117q77 0 124.5 -30.5t47.5 -89.5q0 -60 -48 -92.5t-126 -32.5q-87 0 -142 32q-8 3 -8 13q0 2 4 10l6 10q5 8 11 8q4 0 12 -4q53 -26 117 -26q63 0 96 21.5t33 60.5q0 79 -134 79h-28q-8 0 -13 5.5t-2 13.5l33 127v1394h-487q-25 0 -25 23v4q0 10 7.5 15.5
t17.5 5.5h1026q24 0 24 -21v-4q0 -23 -24 -23h-488v-1361q0 -13 -2 -21z" />
    <glyph glyph-name="uni021B" unicode="&#x21b;" horiz-adv-x="714" 
d="M510 -25l-23 -88q77 0 124.5 -30.5t47.5 -89.5q0 -60 -48 -92.5t-126 -32.5q-86 0 -141 32q-8 3 -8 13q0 2 4 10l6 10q5 8 10 8t13 -4q53 -26 116 -26t96 21.5t33 60.5q0 79 -133 79h-28q-18 0 -15 19l29 112q-101 15 -166 99q-61 85 -65 231v672h-162q-23 0 -23 20v5
q0 20 23 20h162v377q0 18 12 22l18 7q10 3 14.5 -2t4.5 -17v-387h315q23 0 23 -20v-5q0 -20 -23 -20h-315v-662q0 -134 56 -215.5t159 -81.5q82 0 159 27q4 2 11 2q9 0 12 -8l4 -8q2 -2 2 -8q0 -10 -14 -17q-73 -33 -164 -33z" />
    <glyph glyph-name="uni0226" unicode="&#x226;" horiz-adv-x="1400" 
d="M702 1837q22 0 38 -15.5t16 -37.5t-16 -37.5t-38 -15.5t-37.5 15.5t-15.5 37.5t15.5 37.5t37.5 15.5zM688 1434h25q19 0 28 -21l588 -1388q2 -2 2 -9q0 -6 -5.5 -11t-12.5 -5h-8q-20 0 -29 20l-158 375h-835l-158 -375q-9 -20 -27 -20h-10q-18 0 -18 14q0 4 8 25
l581 1374q9 21 29 21zM1098 442l-398 944l-397 -944h795z" />
    <glyph glyph-name="uni0227" unicode="&#x227;" horiz-adv-x="1177" 
d="M983 0h-8q-21 0 -21 23v161q-120 -209 -401 -209q-172 0 -285.5 92.5t-113.5 243.5t119 242.5t300 91.5q116 0 191 -11t190 -40l-2 61q0 158 -90.5 253.5t-257.5 95.5q-200 0 -346 -109q-12 -8 -20 -8q-7 0 -13 6l-6 6q-6 6 -6 12q0 5 18 23q71 56 170.5 85.5t202.5 29.5
q185 0 292.5 -106t107.5 -277v-643q0 -23 -21 -23zM954 358v189q-100 31 -181 42t-200 11q-158 0 -263 -80t-105 -209t99.5 -210t248.5 -81q175 0 288 90.5t113 247.5zM580 1458q22 0 37.5 -15.5t15.5 -37.5t-15.5 -37.5t-37.5 -15.5t-38 15.5t-16 37.5t16 37.5t38 15.5z
" />
    <glyph glyph-name="uni0237" unicode="&#x237;" horiz-adv-x="458" 
d="M236 1024h8q20 0 20 -23v-1107q0 -41 -2.5 -74t-11 -71.5t-23 -67.5t-40.5 -56t-62 -43q-25 -10 -33 -10q-13 0 -18 10l-4 8q-4 11 2 19q2 2 22 12q28 10 49 29q44 41 58 102.5t14 141.5v1107q0 23 21 23z" />
    <glyph glyph-name="uni02BB" unicode="&#x2bb;" horiz-adv-x="452" 
d="M272 1448l7 -6q4 -4 4 -8q0 -8 -13 -21q-38 -45 -49 -137q25 0 41.5 -17t16.5 -40q0 -24 -17 -41t-41 -17t-40.5 17t-16.5 41q0 61 22.5 121t63.5 104q8 8 12 8q2 0 10 -4z" />
    <glyph glyph-name="afii57929" unicode="&#x2bc;" horiz-adv-x="444" 
d="M178 1171l-6 7q-4 4 -4 8q0 8 12 20q38 45 49 137q-24 0 -40.5 17t-16.5 41t16.5 40.5t40.5 16.5q25 0 41.5 -17t16.5 -40q0 -61 -22.5 -121t-63.5 -104q-9 -9 -13 -9q-2 0 -10 4z" />
    <glyph glyph-name="circumflex" unicode="&#x2c6;" horiz-adv-x="1024" 
d="M244 1212l-4 5q-4 4 -4 8q0 9 8 14l227 207q15 12 33 12h16q19 0 31 -12l229 -207q8 -8 8 -14l-4 -8l-4 -5q-8 -4 -10 -4q-4 0 -12 4l-246 195l-246 -195q-8 -4 -12 -4q-6 0 -10 4z" />
    <glyph glyph-name="caron" unicode="&#x2c7;" horiz-adv-x="1024" 
d="M240 1444l4 4q4 4 10 4q4 0 12 -4l246 -195l246 195q8 4 12 4q2 0 10 -4l4 -4l4 -8q0 -7 -8 -15l-229 -207q-12 -12 -31 -12h-16q-18 0 -33 12l-227 207q-8 5 -8 15q0 4 4 8z" />
    <glyph glyph-name="uni02C9" unicode="&#x2c9;" horiz-adv-x="1024" 
d="M264 1348h496q18 0 18 -17v-10q0 -16 -18 -16h-496q-18 0 -18 16v10q0 17 18 17z" />
    <glyph glyph-name="breve" unicode="&#x2d8;" horiz-adv-x="1024" 
d="M274 1450h11q8 0 13 -5.5t6.5 -12t3.5 -19t3 -18.5q19 -70 72.5 -110t128.5 -40t128.5 40t72.5 110q1 6 3 18.5t3.5 19t6.5 12t13 5.5h11q16 0 16 -14q0 -22 -8 -54q-22 -79 -90.5 -129.5t-155.5 -50.5t-155.5 50.5t-90.5 129.5q-8 32 -8 54q0 14 16 14z" />
    <glyph glyph-name="dotaccent" unicode="&#x2d9;" horiz-adv-x="1024" 
d="M512 1458q22 0 37.5 -15.5t15.5 -37.5t-15.5 -37.5t-37.5 -15.5t-37.5 15.5t-15.5 37.5t15.5 37.5t37.5 15.5z" />
    <glyph glyph-name="ring" unicode="&#x2da;" horiz-adv-x="1024" 
d="M512 1458q65 0 106 -41t41 -102q0 -60 -43 -103t-104 -43t-104 43t-43 103q0 61 40.5 102t106.5 41zM406 1315q0 -44 31.5 -76.5t74.5 -32.5t74.5 32.5t31.5 76.5q0 45 -29.5 75.5t-76.5 30.5q-45 0 -75.5 -30.5t-30.5 -75.5z" />
    <glyph glyph-name="ogonek" unicode="&#x2db;" horiz-adv-x="1024" 
d="M598 16l31 -16q-104 -52 -141 -99t-37 -106q0 -54 32.5 -82t94.5 -28q10 0 31 3t30 3q11 0 14 -13l2 -10q3 -17 -12 -20q-34 -6 -65 -6q-83 0 -129 41.5t-46 111.5q0 64 48.5 122t146.5 99z" />
    <glyph glyph-name="tilde" unicode="&#x2dc;" horiz-adv-x="1024" 
d="M756 1415h10q16 0 16 -14q2 -66 -33.5 -118.5t-97.5 -51.5q-28 0 -57.5 13.5t-48 27.5t-47.5 39q-26 22 -41.5 34t-39 22.5t-44.5 10.5q-79 0 -88 -123q0 -18 -19 -18h-10q-16 0 -16 14q2 70 34.5 120.5t98.5 49.5q28 0 57.5 -13.5t48 -27.5t47.5 -39q26 -22 41.5 -34
t39 -22.5t44.5 -10.5q79 0 88 123q0 18 17 18z" />
    <glyph glyph-name="hungarumlaut" unicode="&#x2dd;" horiz-adv-x="1024" 
d="M342 1212l-6 7q-4 4 -4 8t8 12l195 207q3 6 10 6q6 0 12 -6l18 -21q7 -7 7 -12t-7 -12l-210 -189q-9 -6 -13 -6t-10 6zM655 1212l-6 7q-4 4 -4 8t8 12l195 207q3 6 10 6q6 0 12 -6l19 -21q6 -6 6 -12t-6 -12l-211 -189q-9 -6 -12 -6q-5 0 -11 6z" />
    <glyph glyph-name="uni0312" unicode="&#x312;" horiz-adv-x="1024" 
d="M557 1446l2 -2q6 -6 6 -10q0 -3 -4 -11q-46 -49 -49 -106q24 0 40.5 -16.5t16.5 -40.5t-16.5 -41t-40.5 -17t-40.5 17t-16.5 41q0 53 21 102t54 82q12 8 15 8q6 0 12 -6z" />
    <glyph glyph-name="uni0323" unicode="&#x323;" horiz-adv-x="1024" 
d="M512 -256q22 0 37.5 -15.5t15.5 -37.5t-15.5 -37.5t-37.5 -15.5t-37.5 15.5t-15.5 37.5t15.5 37.5t37.5 15.5z" />
    <glyph glyph-name="uni037E" unicode="&#x37e;" horiz-adv-x="450" 
d="M229 1049q24 0 41 -17t17 -41q0 -23 -16.5 -40t-41.5 -17q-24 0 -40.5 16.5t-16.5 40.5t16.5 41t40.5 17zM178 -197l-6 7q-4 4 -4 8q0 8 12 20q38 45 49 137q-24 0 -40.5 17t-16.5 41t16.5 40.5t40.5 16.5q25 0 41.5 -17t16.5 -40q0 -61 -22.5 -121.5t-63.5 -104.5
q-8 -8 -13 -8q-2 0 -10 4z" />
    <glyph glyph-name="uni0387" unicode="&#x387;" horiz-adv-x="360" 
d="M180 702q24 0 41 -17t17 -40t-17 -40t-41 -17t-40.5 16.5t-16.5 40.5t16.5 40.5t40.5 16.5z" />
    <glyph glyph-name="uni04D4" unicode="&#x4d4;" horiz-adv-x="1976" 
d="M1034 25v329h-678l-221 -336q-12 -18 -33 -18h-14q-14 0 -14 14q0 7 2 9l921 1392q14 19 35 19h797q24 0 24 -21v-4q0 -23 -24 -23h-744v-651h590q25 0 25 -20v-4q0 -23 -25 -23h-590v-641h764q25 0 25 -20v-4q0 -23 -25 -23h-790q-25 0 -25 25zM1034 401v985l-647 -985
h647z" />
    <glyph glyph-name="uni04D5" unicode="&#x4d5;" horiz-adv-x="2048" 
d="M952 594v61q0 158 -90.5 253.5t-257.5 95.5q-124 3 -237 -46q-46 -20 -109 -61q-1 0 -2 -1t-2 -1q-12 -8 -16 -8q-3 0 -11 4l-8 8q-6 6 -6 12q0 7 18 25q141 113 353 113q176 0 284 -82q106 -81 129 -226q57 126 158 203q133 105 318 105q134 0 243.5 -71.5t169.5 -188.5
t60 -254v-21q0 -22 -23 -22h-919q13 -218 151 -347q131 -125 318 -125q165 0 296 93q25 18 66 59l18 18q7 7 15 7q4 0 12 -4l8 -7q8 -8 8 -14q0 -4 -4 -12q-68 -84 -166 -129q-127 -59 -253 -56q-193 7 -318 105q-102 77 -158 205q-39 -129 -112 -197q-113 -113 -332 -113
q-172 0 -285.5 92.5t-113.5 243.5t118.5 242.5t300.5 91.5q116 0 189.5 -11t189.5 -40zM1004 535h892q-7 215 -133 344q-125 125 -290 125q-193 0 -318 -125q-138 -129 -151 -344zM952 348v199q-100 31 -180 42t-199 11q-159 0 -263.5 -80t-104.5 -209t99 -210t249 -81
q170 0 284.5 91t114.5 237z" />
    <glyph glyph-name="uni1E1E" unicode="&#x1e1e;" horiz-adv-x="1136" 
d="M266 1386v-651h600q25 0 25 -20v-4q0 -23 -25 -23h-600v-663q0 -25 -22 -25h-4q-25 0 -25 25v1384q0 25 25 25h811q24 0 24 -21v-4q0 -23 -24 -23h-785zM645 1837q22 0 37.5 -15.5t15.5 -37.5t-15.5 -37.5t-37.5 -15.5t-37.5 15.5t-15.5 37.5t15.5 37.5t37.5 15.5z" />
    <glyph glyph-name="uni1E1F" unicode="&#x1e1f;" horiz-adv-x="653" 
d="M51 999v5q0 20 23 20h162v205q0 149 79 240.5t215 91.5q102 0 175 -33q16 -8 16 -15q0 -4 -2 -6l-4 -8q-3 -12 -17 -12q-6 0 -8 2q-77 27 -160 27q-118 0 -181.5 -81t-63.5 -216v-195h315q23 0 23 -20v-5q0 -20 -23 -20h-315v-956q0 -23 -21 -23h-8q-20 0 -20 23v956
h-162q-23 0 -23 20zM481 1837q22 0 38 -15.5t16 -37.5t-16 -37.5t-38 -15.5t-37.5 15.5t-15.5 37.5t15.5 37.5t37.5 15.5z" />
    <glyph glyph-name="Wgrave" unicode="&#x1e80;" horiz-adv-x="2041" 
d="M1114 1595l-4 -4q-4 -4 -10 -4q-2 0 -10 4l-259 189q-8 5 -8 12q0 6 6 12l17 21q6 6 10 6q8 0 14 -6l240 -207q8 -5 8 -14q0 -5 -4 -9zM616 0h-22q-20 0 -29 20l-489 1373q-8 21 -8 26t4.5 10t11.5 5h12q21 0 27 -21l483 -1366l383 1366q7 21 27 21h10q20 0 27 -21
l383 -1366l481 1366q9 21 29 21h10q10 0 14.5 -8t1.5 -17l-497 -1389q-6 -20 -29 -20h-23q-20 0 -26 20l-375 1326l-377 -1326q-6 -20 -29 -20z" />
    <glyph glyph-name="wgrave" unicode="&#x1e81;" horiz-adv-x="1525" 
d="M434 18l-364 983q-3 9 1 16t13 7h12q19 0 25 -18l350 -959l254 959q6 18 25 18h30q19 0 25 -18l250 -959l352 959q6 18 25 18h10q16 0 16 -14q0 -7 -2 -9l-364 -983q-5 -18 -25 -18h-23q-21 0 -24 18l-256 959l-256 -959q-6 -18 -25 -18h-22q-22 0 -27 18zM856 1217
l-4 -5q-4 -4 -10 -4q-3 0 -11 4l-258 189q-8 5 -8 12q0 6 6 12l17 21q6 6 10 6q8 0 14 -6l240 -207q8 -5 8 -14q0 -4 -4 -8z" />
    <glyph glyph-name="Wacute" unicode="&#x1e82;" horiz-adv-x="2041" 
d="M932 1591l-4 4q-4 4 -4 9q0 9 8 14l239 207q6 6 13 6q6 0 12 -6l18 -21l5 -10q0 -5 -9 -14l-256 -189q-6 -6 -12 -6q-4 0 -10 6zM616 0h-22q-20 0 -29 20l-489 1373q-8 21 -8 26t4.5 10t11.5 5h12q21 0 27 -21l483 -1366l383 1366q7 21 27 21h10q20 0 27 -21l383 -1366
l481 1366q9 21 29 21h10q10 0 14.5 -8t1.5 -17l-497 -1389q-6 -20 -29 -20h-23q-20 0 -26 20l-375 1326l-377 -1326q-6 -20 -29 -20z" />
    <glyph glyph-name="wacute" unicode="&#x1e83;" horiz-adv-x="1525" 
d="M434 18l-364 983q-3 9 1 16t13 7h12q19 0 25 -18l350 -959l254 959q6 18 25 18h30q19 0 25 -18l250 -959l352 959q6 18 25 18h10q16 0 16 -14q0 -7 -2 -9l-364 -983q-5 -18 -25 -18h-23q-21 0 -24 18l-256 959l-256 -959q-6 -18 -25 -18h-22q-22 0 -27 18zM674 1212l-4 5
q-4 4 -4 8q0 9 8 14l239 207q6 6 13 6q6 0 12 -6l18 -21l5 -10q0 -5 -9 -14l-256 -189q-6 -6 -12 -6q-4 0 -10 6z" />
    <glyph glyph-name="Wdieresis" unicode="&#x1e84;" horiz-adv-x="2041" 
d="M817 1837q22 0 37.5 -15.5t15.5 -37.5t-15.5 -37.5t-37.5 -15.5t-37.5 15.5t-15.5 37.5t15.5 37.5t37.5 15.5zM1227 1837q22 0 37.5 -15.5t15.5 -37.5t-15.5 -37.5t-37.5 -15.5t-37.5 15.5t-15.5 37.5t15.5 37.5t37.5 15.5zM616 0h-22q-20 0 -29 20l-489 1373
q-8 21 -8 26t4.5 10t11.5 5h12q21 0 27 -21l483 -1366l383 1366q7 21 27 21h10q20 0 27 -21l383 -1366l481 1366q9 21 29 21h10q10 0 14.5 -8t1.5 -17l-497 -1389q-6 -20 -29 -20h-23q-20 0 -26 20l-375 1326l-377 -1326q-6 -20 -29 -20z" />
    <glyph glyph-name="wdieresis" unicode="&#x1e85;" horiz-adv-x="1525" 
d="M434 18l-364 983q-3 9 1 16t13 7h12q19 0 25 -18l350 -959l254 959q6 18 25 18h30q19 0 25 -18l250 -959l352 959q6 18 25 18h10q16 0 16 -14q0 -7 -2 -9l-364 -983q-5 -18 -25 -18h-23q-21 0 -24 18l-256 959l-256 -959q-6 -18 -25 -18h-22q-22 0 -27 18zM559 1458
q22 0 37.5 -15.5t15.5 -37.5t-15.5 -37.5t-37.5 -15.5t-37.5 15.5t-15.5 37.5t15.5 37.5t37.5 15.5zM969 1458q22 0 37.5 -15.5t15.5 -37.5t-15.5 -37.5t-37.5 -15.5t-38 15.5t-16 37.5t16 37.5t38 15.5z" />
    <glyph glyph-name="Ygrave" unicode="&#x1ef2;" horiz-adv-x="1275" 
d="M1192 1411l-528 -881v-505q0 -25 -23 -25h-6q-23 0 -23 25v505l-526 881q-2 4 -2 10q0 13 14 13h13q17 0 30 -19l498 -837l498 837q13 19 30 19h13q14 0 14 -13q0 -6 -2 -10zM700 1595l-4 -4q-4 -4 -8 -4t-12 4l-258 189q-6 6 -6 12q0 4 4 12l16 21q6 6 12 6q7 0 13 -6
l239 -207q9 -6 9 -14q0 -4 -5 -9z" />
    <glyph glyph-name="ygrave" unicode="&#x1ef3;" horiz-adv-x="1097" 
d="M518 0l-446 1001q-2 4 -2 11q0 12 14 12h12q18 0 27 -18l426 -959l426 959q9 18 26 18h13q16 0 16 -12q0 -3 -4 -11l-563 -1261q-41 -94 -84 -134t-111 -40q-63 0 -114 26q-19 10 -19 21q0 6 2 10l4 6q6 9 13 9l10 -5q49 -24 104 -24q47 0 80 29t66 102l116 260h-12z
M610 1217l-4 -5q-4 -4 -8 -4t-12 4l-258 189q-6 6 -6 12q0 4 4 12l16 21q6 6 12 6q7 0 13 -6l239 -207q8 -5 8 -14q0 -4 -4 -8z" />
    <glyph glyph-name="uni2002" unicode="&#x2002;" horiz-adv-x="1114" 
 />
    <glyph glyph-name="uni2003" unicode="&#x2003;" horiz-adv-x="2138" 
 />
    <glyph glyph-name="uni2004" unicode="&#x2004;" horiz-adv-x="772" 
 />
    <glyph glyph-name="uni2005" unicode="&#x2005;" horiz-adv-x="602" 
 />
    <glyph glyph-name="uni2006" unicode="&#x2006;" horiz-adv-x="227" 
 />
    <glyph glyph-name="uni2007" unicode="&#x2007;" horiz-adv-x="1345" 
 />
    <glyph glyph-name="uni2009" unicode="&#x2009;" horiz-adv-x="346" 
 />
    <glyph glyph-name="uni200A" unicode="&#x200a;" horiz-adv-x="157" 
 />
    <glyph glyph-name="uni2010" unicode="&#x2010;" horiz-adv-x="665" 
d="M172 535h322q18 0 18 -17v-12q0 -17 -18 -17h-322q-18 0 -18 17v12q0 17 18 17z" />
    <glyph glyph-name="uni2011" unicode="&#x2011;" horiz-adv-x="665" 
d="M172 535h322q18 0 18 -17v-12q0 -17 -18 -17h-322q-18 0 -18 17v12q0 17 18 17z" />
    <glyph glyph-name="figuredash" unicode="&#x2012;" horiz-adv-x="1280" 
d="M274 535h732q18 0 18 -17v-12q0 -17 -18 -17h-732q-18 0 -18 17v12q0 17 18 17z" />
    <glyph glyph-name="endash" unicode="&#x2013;" horiz-adv-x="1280" 
d="M274 535h732q18 0 18 -17v-12q0 -17 -18 -17h-732q-18 0 -18 17v12q0 17 18 17z" />
    <glyph glyph-name="emdash" unicode="&#x2014;" horiz-adv-x="1894" 
d="M274 535h1346q18 0 18 -17v-12q0 -17 -18 -17h-1346q-18 0 -18 17v12q0 17 18 17z" />
    <glyph glyph-name="afii00208" unicode="&#x2015;" horiz-adv-x="1894" 
d="M274 535h1346q18 0 18 -17v-12q0 -17 -18 -17h-1346q-18 0 -18 17v12q0 17 18 17z" />
    <glyph glyph-name="underscoredbl" unicode="&#x2017;" 
d="M207 -434h917q23 0 23 -21v-4q0 -20 -23 -20h-917q-23 0 -23 20v4q0 21 23 21zM207 -184h917q23 0 23 -21v-4q0 -20 -23 -20h-917q-23 0 -23 20v4q0 21 23 21z" />
    <glyph glyph-name="quoteleft" unicode="&#x2018;" horiz-adv-x="450" 
d="M272 1448l7 -6q4 -4 4 -8q0 -8 -13 -21q-38 -45 -49 -137q25 0 41.5 -17t16.5 -40q0 -24 -17 -41t-41 -17t-40.5 17t-16.5 41q0 61 22.5 121t63.5 104q8 8 12 8q2 0 10 -4z" />
    <glyph glyph-name="quoteright" unicode="&#x2019;" horiz-adv-x="450" 
d="M178 1171l-6 7q-4 4 -4 8q0 8 12 20q38 45 49 137q-24 0 -40.5 17t-16.5 41t16.5 40.5t40.5 16.5q25 0 41.5 -17t16.5 -40q0 -61 -22.5 -121t-63.5 -104q-9 -9 -13 -9q-2 0 -10 4z" />
    <glyph glyph-name="quotesinglbase" unicode="&#x201a;" horiz-adv-x="450" 
d="M178 -197l-6 7q-4 4 -4 8q0 8 12 20q38 45 49 137q-24 0 -40.5 17t-16.5 41t16.5 40.5t40.5 16.5q25 0 41.5 -17t16.5 -40q2 -60 -21.5 -121t-64.5 -105q-8 -8 -13 -8q-2 0 -10 4z" />
    <glyph glyph-name="quotereversed" unicode="&#x201b;" horiz-adv-x="450" 
d="M279 1178l-7 -7q-8 -4 -10 -4q-3 0 -12 9q-41 44 -63.5 104t-22.5 121q0 24 16.5 40.5t40.5 16.5q25 0 41.5 -17t16.5 -40q0 -24 -17 -41t-41 -17q11 -92 49 -137q13 -13 13 -20q0 -4 -4 -8z" />
    <glyph glyph-name="quotedblleft" unicode="&#x201c;" horiz-adv-x="657" 
d="M479 1448l6 -6q4 -4 4 -8q0 -9 -12 -21q-38 -45 -49 -137q24 0 40.5 -16.5t16.5 -40.5t-16.5 -41t-40.5 -17t-40.5 17t-16.5 41q0 61 22.5 121t63.5 104q8 8 12 8q2 0 10 -4zM272 1448l7 -6q4 -4 4 -8q0 -8 -13 -21q-38 -45 -49 -137q25 0 41.5 -17t16.5 -40
q0 -24 -17 -41t-41 -17t-40.5 17t-16.5 41q0 61 22.5 121t63.5 104q8 8 12 8q2 0 10 -4z" />
    <glyph glyph-name="quotedblright" unicode="&#x201d;" horiz-adv-x="657" 
d="M178 1171l-6 7q-4 4 -4 8q0 8 12 20q38 45 49 137q-24 0 -40.5 17t-16.5 41t16.5 40.5t40.5 16.5q25 0 41.5 -17t16.5 -40q0 -61 -22.5 -121t-63.5 -104q-9 -9 -13 -9q-2 0 -10 4zM385 1171l-6 7q-4 4 -4 8q0 8 12 20q38 45 49 137q-24 0 -40.5 17t-16.5 41t16.5 40.5
t40.5 16.5t41 -17t17 -40q0 -61 -22.5 -121t-63.5 -104q-9 -9 -13 -9q-2 0 -10 4z" />
    <glyph glyph-name="quotedblbase" unicode="&#x201e;" horiz-adv-x="657" 
d="M178 -197l-6 7q-4 4 -4 8q0 8 12 20q38 51 49 137q-24 0 -40.5 17t-16.5 41t16.5 40.5t40.5 16.5q25 0 41.5 -17t16.5 -40q0 -61 -22.5 -121.5t-63.5 -104.5q-8 -8 -13 -8q-2 0 -10 4zM385 -197l-6 7q-4 4 -4 8q0 8 12 20q38 51 49 137q-24 0 -40.5 17t-16.5 41
t16.5 40.5t40.5 16.5t41 -17t17 -40q0 -61 -22.5 -121.5t-63.5 -104.5q-8 -8 -13 -8q-2 0 -10 4z" />
    <glyph glyph-name="dagger" unicode="&#x2020;" 
d="M326 1049h313v360q0 25 23 25h6q22 0 22 -25v-360h314q24 0 24 -21v-4q0 -20 -24 -20h-314v-1389q0 -25 -22 -25h-6q-23 0 -23 25v1389h-313q-25 0 -25 20v4q0 10 7.5 15.5t17.5 5.5z" />
    <glyph glyph-name="daggerdbl" unicode="&#x2021;" 
d="M326 1049h313v360q0 25 23 25h6q22 0 22 -25v-360h314q24 0 24 -21v-4q0 -20 -24 -20h-314v-959h314q24 0 24 -20v-5q0 -20 -24 -20h-314v-385q0 -25 -22 -25h-6q-23 0 -23 25v385h-313q-25 0 -25 20v5q0 20 25 20h313v959h-313q-25 0 -25 20v4q0 10 7.5 15.5t17.5 5.5z
" />
    <glyph glyph-name="bullet" unicode="&#x2022;" horiz-adv-x="1177" 
d="M588 946q95 0 163 -67.5t68 -161.5q0 -97 -67.5 -164.5t-163.5 -67.5q-95 0 -162.5 67.5t-67.5 164.5q0 94 67.5 161.5t162.5 67.5z" />
    <glyph glyph-name="ellipsis" unicode="&#x2026;" horiz-adv-x="1306" 
d="M221 90q25 0 41.5 -17t16.5 -40q0 -24 -17 -41t-41 -17t-40.5 17t-16.5 41t16.5 40.5t40.5 16.5zM653 90q25 0 41.5 -17t16.5 -40q0 -24 -17 -41t-41 -17t-40.5 17t-16.5 41t16.5 40.5t40.5 16.5zM1085 90q25 0 41.5 -17t16.5 -40q0 -24 -17 -41t-41 -17t-40.5 17
t-16.5 41t16.5 40.5t40.5 16.5z" />
    <glyph glyph-name="perthousand" unicode="&#x2030;" horiz-adv-x="2920" 
d="M1479 678q156 0 260 -99t104 -247t-104 -247t-260 -99q-157 0 -261 99t-104 247t104 247t261 99zM1479 27q143 0 230 86t87 219t-87 219t-230 86t-231.5 -86.5t-88.5 -218.5t88.5 -218.5t231.5 -86.5zM569 1448q157 0 261 -99t104 -247t-104 -247t-261 -99
q-156 0 -260 99t-104 247t104 247t260 99zM569 797q143 0 230.5 86.5t87.5 218.5t-87.5 218.5t-230.5 86.5t-231 -86.5t-88 -218.5t88 -218.5t231 -86.5zM2351 678q157 0 261 -99t104 -247t-104 -247t-261 -99q-156 0 -260 99t-104 247t104 247t260 99zM2351 27
q143 0 230.5 86.5t87.5 218.5t-87.5 218.5t-230.5 86.5t-231 -86.5t-88 -218.5t88 -218.5t231 -86.5zM1452 1417l-803 -1405q-6 -12 -24 -12h-15q-12 0 -12 10q0 4 2 6l805 1405q7 13 22 13h17q10 0 10 -9q0 -6 -2 -8z" />
    <glyph glyph-name="minute" unicode="&#x2032;" horiz-adv-x="448" 
d="M158 1114l88 305q3 15 18 15h33q8 0 11.5 -5t0.5 -12l-108 -305q-6 -16 -21 -16h-10q-16 0 -12 18z" />
    <glyph glyph-name="second" unicode="&#x2033;" horiz-adv-x="647" 
d="M158 1114l88 305q3 15 18 15h33q8 0 11.5 -5t0.5 -12l-108 -305q-6 -16 -21 -16h-10q-16 0 -12 18zM356 1114l88 305q3 15 19 15h33q8 0 11.5 -5t0.5 -12l-109 -305q-6 -16 -20 -16h-10q-17 0 -13 18z" />
    <glyph glyph-name="guilsinglleft" unicode="&#x2039;" horiz-adv-x="731" 
d="M502 930l10 -8q8 -5 8 -15q0 -2 -4 -10l-274 -385l274 -387q4 -8 4 -10q0 -10 -8 -15l-10 -8q-2 -2 -8 -2q-7 0 -15 8l-286 402q-5 10 -5 12t5 12l286 402q5 8 15 8q4 0 8 -4z" />
    <glyph glyph-name="guilsinglright" unicode="&#x203a;" horiz-adv-x="731" 
d="M219 922l10 8q4 4 9 4q9 0 14 -8l287 -402q4 -8 4 -12t-4 -12l-287 -402q-8 -8 -14 -8q-7 0 -9 2l-10 8q-8 5 -8 15q0 2 4 10l274 387l-274 385q-4 8 -4 10q0 10 8 15z" />
    <glyph glyph-name="uni203E" unicode="&#x203e;" 
d="M207 1700h917q23 0 23 -21v-4q0 -20 -23 -20h-917q-23 0 -23 20v4q0 21 23 21z" />
    <glyph glyph-name="fraction" unicode="&#x2044;" horiz-adv-x="276" 
d="M563 1417l-803 -1405q-6 -12 -24 -12h-15q-12 0 -12 10q0 4 2 6l805 1405q6 13 23 13h16q10 0 10 -9q0 -6 -2 -8z" />
    <glyph glyph-name="zerosuperior" unicode="&#x2070;" horiz-adv-x="798" 
d="M399 1653q125 0 196 -90.5t71 -251.5q0 -162 -71.5 -256t-195.5 -94q-123 0 -194.5 94.5t-71.5 255.5t70.5 251.5t195.5 90.5zM399 1612q-104 0 -161.5 -79.5t-57.5 -221.5t58.5 -226t160.5 -84q103 0 161 83.5t58 226.5q0 142 -57.5 221.5t-161.5 79.5z" />
    <glyph glyph-name="foursuperior" unicode="&#x2074;" horiz-adv-x="649" 
d="M426 1620l-317 -455h294v176q0 13 13 13h22q13 0 13 -13v-176h94q12 0 12 -12v-16q0 -13 -12 -13h-94v-137q0 -12 -13 -12h-22q-13 0 -13 12v137h-340q-12 0 -12 13v10q0 10 10 27l330 468q3 7 10 7q5 0 7 -2l16 -11q4 -4 4 -8q0 -6 -2 -8z" />
    <glyph glyph-name="fivesuperior" unicode="&#x2075;" horiz-adv-x="681" 
d="M223 1638h303q13 0 13 -12v-16q0 -13 -13 -13h-280l-43 -235q65 33 145 33q106 0 174 -60.5t68 -154.5t-69.5 -156.5t-172.5 -62.5q-91 0 -153 45q-34 24 -56 55q-18 24 -18 35q0 10 12 12l8 2q4 2 9 2q4 0 6 -2q6 -3 12 -12q1 -1 3 -4t3 -4q30 -39 47 -50
q51 -39 127 -39q83 0 140 51.5t57 127.5t-56.5 125t-140.5 49t-155 -47q-10 -7 -21 -4l-12 4q-13 3 -10 14l55 301q3 16 18 16z" />
    <glyph glyph-name="sixsuperior" unicode="&#x2076;" horiz-adv-x="694" 
d="M440 1614l-170 -230q44 12 88 15q106 0 179 -63t73 -156q0 -94 -71 -156.5t-177 -62.5q-107 0 -178 62.5t-71 156.5q3 68 34 112l259 346q7 7 10 7q5 0 8 -3l14 -10q6 -3 6 -10q0 -4 -4 -8zM565 1180q0 75 -59.5 126.5t-145.5 51.5t-144 -51.5t-58 -126.5
q0 -78 56.5 -128.5t147.5 -50.5q92 0 147.5 50.5t55.5 128.5z" />
    <glyph glyph-name="sevensuperior" unicode="&#x2077;" horiz-adv-x="552" 
d="M53 1638h436q13 0 13 -12v-8q0 -14 -10 -31l-328 -616q-3 -8 -10 -8q-5 0 -7 2l-18 10q-6 3 -6 10q0 4 2 6l324 606h-396q-12 0 -12 13v16q0 12 12 12z" />
    <glyph glyph-name="eightsuperior" unicode="&#x2078;" horiz-adv-x="706" 
d="M248 1337q-94 49 -94 146q0 74 56.5 122t143.5 48t143 -48t56 -122q0 -98 -92 -146q63 -26 98 -73.5t35 -106.5q0 -86 -67 -141t-173 -55t-173.5 55t-67.5 141q0 58 36 106t99 74zM158 1157q0 -67 55.5 -111.5t140.5 -44.5t140 44.5t55 111.5t-55 112.5t-140 45.5
t-140.5 -45.5t-55.5 -112.5zM354 1614q-73 0 -115 -36t-42 -95t42 -94t115 -35q72 0 115 35t43 94t-43 95t-115 36z" />
    <glyph glyph-name="ninesuperior" unicode="&#x2079;" horiz-adv-x="694" 
d="M252 995l164 224q-32 -10 -82 -13q-106 0 -179 64.5t-73 159.5t71 159t177 64q107 0 178.5 -64t71.5 -159q0 -14 -1.5 -26.5t-3.5 -22t-7 -21t-7.5 -17.5t-10.5 -17.5t-10.5 -15.5t-13 -17.5t-12.5 -16.5l-225 -303q-5 -8 -15 -8q-4 0 -6 2l-14 10q-6 3 -6 10q0 4 4 8z
M330 1612q-92 0 -147.5 -51.5t-55.5 -130.5q0 -77 59.5 -130t145.5 -53t144.5 53t58.5 130q0 79 -57 130.5t-148 51.5z" />
    <glyph glyph-name="zeroinferior" unicode="&#x2080;" horiz-adv-x="798" 
d="M399 473q125 0 196 -90.5t71 -251.5q0 -162 -71.5 -256t-195.5 -94q-123 0 -194.5 94.5t-71.5 255.5t70.5 251.5t195.5 90.5zM399 432q-104 0 -161.5 -79.5t-57.5 -221.5t58.5 -225.5t160.5 -83.5q103 0 161 83.5t58 225.5t-57.5 221.5t-161.5 79.5z" />
    <glyph glyph-name="oneinferior" unicode="&#x2081;" horiz-adv-x="481" 
d="M252 -205h-19q-12 0 -12 12v601l-127 -58q-11 -4 -16 4l-10 15q-2 2 -2 6q0 7 6 10l135 64q20 10 37 10h8q14 0 14 -13v-639q0 -12 -14 -12z" />
    <glyph glyph-name="twoinferior" unicode="&#x2082;" horiz-adv-x="649" 
d="M547 -176v-17q0 -12 -12 -12h-431q-12 0 -12 12v11q0 12 10 22l279 293q60 63 77 92t17 68q0 64 -45.5 101.5t-120.5 37.5q-52 0 -90 -16t-80 -51q-7 -7 -12 -7t-16 7l-7 4q-6 4 -6 8q0 8 8 16q18 18 39 33q71 47 164 47q97 0 155 -49t58 -131q0 -46 -19.5 -80.5
t-80.5 -97.5l-264 -279h377q12 0 12 -12z" />
    <glyph glyph-name="threeinferior" unicode="&#x2083;" horiz-adv-x="671" 
d="M262 145v17q0 12 12 12h45q73 0 119.5 36t46.5 93t-47 93t-119 36q-86 0 -153 -57q-23 -19 -27 -19q-6 0 -12 6l-6 7q-4 4 -4 10t6 12q79 82 196 82q91 0 150 -47.5t59 -122.5q0 -101 -102 -147q63 -25 98 -72.5t35 -106.5q0 -87 -67.5 -141.5t-172.5 -54.5
q-97 0 -161 47q-41 29 -62 61q-8 12 -8 17q0 4 14 10l13 4q10 2 18 -6q37 -41 57 -55q52 -35 129 -35q85 0 139 43t54 110q0 66 -55.5 111t-137.5 45h-45q-12 0 -12 12z" />
    <glyph glyph-name="fourinferior" unicode="&#x2084;" horiz-adv-x="649" 
d="M426 440l-317 -454h294v176q0 12 13 12h22q13 0 13 -12v-176h94q12 0 12 -13v-16q0 -12 -12 -12h-94v-138q0 -12 -13 -12h-22q-13 0 -13 12v138h-340q-12 0 -12 12v10q0 10 10 27l330 469q3 6 10 6q5 0 7 -2l16 -10q4 -4 4 -8q0 -7 -2 -9z" />
    <glyph glyph-name="fiveinferior" unicode="&#x2085;" horiz-adv-x="681" 
d="M223 459h303q13 0 13 -13v-16q0 -12 -13 -12h-280l-43 -236q65 33 145 33q106 0 174 -60.5t68 -154.5t-69.5 -156.5t-172.5 -62.5q-91 0 -153 45q-34 24 -56 55q-18 24 -18 35q0 10 12 12l8 2q4 2 9 2q4 0 6 -2q6 -3 12 -12q1 -1 3 -4t3 -4q29 -37 47 -49q51 -39 127 -39
q84 0 140.5 51t56.5 127t-56.5 125t-140.5 49t-155 -47q-10 -7 -21 -4l-12 4q-13 3 -10 14l55 301q3 17 18 17z" />
    <glyph glyph-name="sixinferior" unicode="&#x2086;" horiz-adv-x="694" 
d="M440 434l-170 -229q39 11 88 14q106 0 179 -63t73 -156q0 -94 -71 -156.5t-177 -62.5q-107 0 -178 62.5t-71 156.5q3 69 34 113l259 346q6 6 10 6q6 0 8 -2l14 -10q6 -3 6 -11q0 -4 -4 -8zM565 0q0 75 -59.5 126.5t-145.5 51.5t-144 -51.5t-58 -126.5q0 -77 56.5 -127.5
t147.5 -50.5q92 0 147.5 50t55.5 128z" />
    <glyph glyph-name="seveninferior" unicode="&#x2087;" horiz-adv-x="552" 
d="M53 459h436q13 0 13 -13v-8q0 -13 -10 -30l-328 -617q-3 -8 -10 -8q-5 0 -7 2l-18 10q-6 3 -6 10q0 5 2 7l324 606h-396q-12 0 -12 12v16q0 13 12 13z" />
    <glyph glyph-name="eightinferior" unicode="&#x2088;" horiz-adv-x="706" 
d="M248 158q-94 49 -94 145q0 74 56.5 122t143.5 48t143 -48t56 -122q0 -97 -92 -145q63 -26 98 -74t35 -107q0 -86 -67 -141t-173 -55t-173.5 55t-67.5 141q0 58 36 106.5t99 74.5zM158 -23q0 -67 55 -111t141 -44t140.5 44t54.5 111t-55 112.5t-140 45.5t-140.5 -45.5
t-55.5 -112.5zM354 434q-73 0 -115 -36t-42 -95t42 -94t115 -35q72 0 115 35t43 94t-43 95t-115 36z" />
    <glyph glyph-name="nineinferior" unicode="&#x2089;" horiz-adv-x="694" 
d="M252 -184l164 223q-28 -8 -82 -12q-106 0 -179 64t-73 159t71 159t177 64q107 0 178.5 -64t71.5 -159q0 -14 -1.5 -26.5t-3.5 -22t-7 -21t-7.5 -17.5t-10.5 -17.5t-10.5 -15.5t-13 -17.5t-12.5 -16.5l-225 -303q-5 -8 -15 -8q-4 0 -6 2l-14 10q-6 3 -6 10q0 5 4 9z
M330 432q-92 0 -147.5 -51.5t-55.5 -130.5q0 -77 59.5 -129.5t145.5 -52.5t144.5 52.5t58.5 129.5q0 79 -57 130.5t-148 51.5z" />
    <glyph glyph-name="lira" unicode="&#x20a4;" 
d="M416 690l458 205q2 2 9 2q16 0 16 -16v-7q0 -17 -20 -26l-463 -207v-604q72 3 139 12q157 20 303 129q93 72 156.5 177t85.5 223q1 4 2 11t2 11q4 21 6 41q4 61 6 68q3 8 14 8h17q12 0 14 -6q2 -4 2 -19q0 -6 -1 -19t-1 -22q-2 -29 -10 -84q-33 -179 -138.5 -310.5
t-259.5 -199t-337 -67.5h-27q-24 0 -24 24v602l-129 -57q-2 -2 -9 -2q-16 0 -16 16v7q0 17 20 26l134 60v243l-129 -57q-2 -2 -9 -2q-16 0 -16 16v6q0 18 20 27l134 59v451q0 25 22 25h6q23 0 23 -25v-426l458 205q4 2 11 2q14 0 14 -16v-7q0 -17 -20 -26l-463 -207v-244z
" />
    <glyph glyph-name="peseta" unicode="&#x20a7;" 
d="M369 1434h385q83 0 154.5 -14t136.5 -46.5t110.5 -82t72.5 -125t27 -171.5t-27 -172t-72.5 -127t-110 -84.5t-137 -48t-154.5 -14.5h-359v-227h477q10 0 17.5 -5.5t7.5 -15.5v-4q0 -10 -7.5 -15.5t-17.5 -5.5h-477v-253q0 -25 -22 -25h-6q-23 0 -23 25v253h-129
q-10 0 -17.5 5.5t-7.5 15.5v4q0 10 7.5 15.5t17.5 5.5h129v227h-129q-25 0 -25 20v6q0 10 7.5 15.5t17.5 5.5h129v813q0 25 25 25zM395 596h379q69 0 131 13.5t117.5 44.5t95 76.5t63 113t23.5 151.5q0 104 -35 181.5t-96.5 122t-136 66t-162.5 21.5h-379v-790z" />
    <glyph glyph-name="Euro" unicode="&#x20ac;" 
d="M1255 272l7 -4q10 -5 10 -16q0 -7 -17 -35q-77 -117 -200.5 -179.5t-266.5 -62.5q-127 0 -236 46t-186 126t-128 182.5t-70 219.5h-164q-24 0 -24 20v4q0 21 24 21h158q-8 70 -8 123t8 123h-158q-24 0 -24 20v4q0 21 24 21h164q19 117 70 219.5t128 182t186 125.5t236 46
q144 0 267 -62t200 -179q17 -28 17 -35q0 -12 -10 -17l-11 -6q-4 -2 -8 -2q-6 0 -16 10q-5 6 -13 18.5t-12 16.5q-41 55 -74 86q-141 123 -340 123q-115 0 -215 -43t-170.5 -116.5t-117 -167.5t-64.5 -199h473q10 0 17.5 -5.5t7.5 -15.5v-4q0 -20 -25 -20h-479
q-8 -57 -8 -123t8 -123h479q10 0 17.5 -5.5t7.5 -15.5v-4q0 -20 -25 -20h-471q18 -105 64 -199t116.5 -167.5t170 -116.5t214.5 -43q200 0 340 122q45 40 95 111q12 20 22 20q2 0 10 -4z" />
    <glyph glyph-name="uni2101" unicode="&#x2101;" horiz-adv-x="1863" 
d="M1618 580l-6 -5q-8 -4 -10 -4q-8 0 -31 19q-22 16 -33 23.5t-42.5 17t-68.5 8.5q-70 0 -113.5 -33t-43.5 -88q0 -84 114 -129l119 -47q156 -63 156 -174q0 -83 -63.5 -132.5t-168.5 -49.5q-75 0 -133 32.5t-88 96.5q-2 2 -2 8q0 13 13 16l4 2q2 2 8 2q11 0 18 -14
q63 -102 180 -102q85 0 135 38t50 103q0 45 -30.5 76t-106.5 61l-115 47q-135 57 -135 166q0 72 55.5 116t146.5 44q124 0 195 -74q4 -8 4 -10q0 -9 -8 -14zM213 793l281 622q10 19 24 19h10q16 0 25 -19l281 -622q2 -4 2 -11q0 -5 -4.5 -8.5t-10.5 -3.5h-10q-16 0 -25 18
l-69 158h-385l-72 -158q-9 -18 -24 -18h-11q-14 0 -14 12q0 7 2 11zM350 987h348l-174 391zM1444 1413l-799 -1397q-10 -16 -29 -16h-8q-12 0 -12 12q0 6 2 8l799 1397q10 17 28 17h9q12 0 12 -13q0 -6 -2 -8z" />
    <glyph glyph-name="afii61248" unicode="&#x2105;" horiz-adv-x="2048" 
d="M1468 678q157 0 261 -99t104 -247t-104 -247t-261 -99q-156 0 -260 99t-104 247t104 247t260 99zM1468 27q143 0 230.5 86.5t87.5 218.5t-87.5 218.5t-230.5 86.5t-231 -86.5t-88 -218.5t88 -218.5t231 -86.5zM850 909l6 -4q8 -5 8 -16q0 -2 -4 -10q-117 -126 -285 -123
q-156 0 -258 99t-102 247t102 247t258 99q167 3 279 -115q10 -15 10 -20q0 -10 -8 -15l-6 -4q-8 -4 -12 -4q-9 0 -19 13q-54 55 -111.5 80t-132.5 24q-135 0 -225 -88t-90 -217t90 -217t225 -88q75 -1 132.5 24t111.5 80q9 12 21 12q2 0 10 -4zM1434 1413l-799 -1397
q-10 -16 -29 -16h-8q-12 0 -12 12q0 6 2 8l798 1397q10 17 29 17h8q13 0 13 -13q0 -6 -2 -8z" />
    <glyph glyph-name="afii61289" unicode="&#x2113;" 
d="M487 463l5 26q-128 -120 -140 -120q-6 0 -6 6q0 9 35 41q51 44 119 123q118 609 245 804q75 115 162 115q51 0 81 -41.5t30 -113.5q0 -87 -34 -193t-97 -209q-77 -129 -254 -315l-8 -39q-66 -351 -66 -418q0 -96 59 -96q38 0 70 28q38 32 70 105q10 27 18 27h2
q3 0 3.5 -0.5t0.5 -4.5q0 -8 -11 -38t-26 -56q-68 -119 -165 -119q-55 0 -87 46t-32 131q0 114 26 311zM649 686l-10 -55q113 125 148.5 170.5t78.5 118.5q55 95 86 193.5t31 178.5q0 58 -21.5 93.5t-56.5 35.5q-21 0 -39 -12q-56 -34 -104.5 -195t-112.5 -528z" />
    <glyph glyph-name="trademark" unicode="&#x2122;" horiz-adv-x="1556" 
d="M633 1417v-8q0 -16 -19 -16h-223v-605q0 -18 -16 -18h-13q-16 0 -16 18v605h-225q-19 0 -19 16v8q0 17 19 17h493q19 0 19 -17zM1386 770h-12q-16 0 -16 18v578l-266 -442h-43l-269 442v-578q0 -18 -16 -18h-12q-17 0 -17 18v627q0 19 19 19h20q15 0 25 -13l270 -446
l270 446q10 13 25 13h20q19 0 19 -19v-627q0 -18 -17 -18z" />
    <glyph glyph-name="uni2126" unicode="&#x2126;" horiz-adv-x="1744" 
d="M1507 0h-469q-22 0 -22 23v51q217 126 339 294t122 375q0 134 -44 256t-121.5 213t-191.5 145t-246 54q-176 0 -316 -92t-215 -244t-75 -332q0 -207 122 -375t339 -294v-51q0 -23 -22 -23h-469q-23 0 -23 20v5q0 20 23 20h460q-229 123 -356 299t-127 399q0 195 79 357
t230.5 260t347.5 98q147 0 272 -57t208.5 -154.5t130.5 -227.5t47 -276q0 -223 -127 -399t-356 -299h460q23 0 23 -20v-5q0 -20 -23 -20z" />
    <glyph glyph-name="estimated" unicode="&#x212e;" horiz-adv-x="1691" 
d="M1454 727h-1069v-354q99 -350 471 -350q262 0 406 141q11 11 22.5 24.5t18.5 22.5t19.5 28t16 24t18 29.5t15.5 26.5q7 11 21 11h2q16 0 16 -15q0 -6 -8 -22q-16 -37 -35 -68q-52 -83 -123 -137q-146 -113 -389 -113q-311 0 -476 196t-165 546t165 545.5t476 195.5
q277 -4 426 -155q97 -97 146 -240.5t49 -294.5q0 -41 -23 -41zM1348 748v309q-45 160 -184 257t-308 97q-339 0 -471 -352v-311h963z" />
    <glyph glyph-name="onethird" unicode="&#x2153;" horiz-adv-x="1689" 
d="M377 1382l-127 -57q-12 -4 -17 4l-10 14q-2 2 -2 7q0 7 6 10l135 63q22 11 37 11h9q14 0 14 -13v-639q0 -12 -14 -12h-19q-12 0 -12 12v600zM1200 1417l-803 -1405q-6 -12 -24 -12h-15q-12 0 -12 10q0 4 2 6l805 1405q7 13 23 13h16q10 0 10 -9q0 -6 -2 -8zM1176 350v17
q0 12 12 12h45q73 0 119.5 36t46.5 93t-47 93t-119 36q-87 0 -154 -57q-23 -19 -26 -19q-7 0 -13 6l-6 6q-4 4 -4 11q0 6 6 12q79 82 197 82q91 0 150 -47.5t59 -122.5q0 -101 -103 -148q63 -25 98.5 -72t35.5 -106q0 -87 -67.5 -141.5t-172.5 -54.5q-98 0 -162 47
q-40 28 -61 61q-9 14 -9 17q0 4 15 10l12 4q10 3 19 -6q39 -44 57 -56q50 -34 129 -34q85 0 138.5 42.5t53.5 110.5q0 66 -55 111t-137 45h-45q-12 0 -12 12z" />
    <glyph glyph-name="twothirds" unicode="&#x2154;" horiz-adv-x="1689" 
d="M604 799v-17q0 -12 -12 -12h-430q-12 0 -12 12v11q0 12 10 22l278 293q60 63 77 92t17 68q0 64 -45 101.5t-120 37.5q-52 0 -90 -16t-80 -52q-6 -6 -13 -6t-16 6l-6 4q-6 4 -6 9q0 8 8 16q18 18 39 33q71 47 164 47q97 0 155 -49t58 -131q0 -46 -19.5 -80.5t-81.5 -97.5
l-264 -279h377q12 0 12 -12zM1270 1417l-803 -1405q-6 -12 -25 -12h-14q-12 0 -12 10q0 4 2 6l805 1405q7 13 22 13h17q10 0 10 -9q0 -6 -2 -8zM1245 350v17q0 12 12 12h46q73 0 119 36t46 93t-46.5 93t-118.5 36q-87 0 -154 -57q-23 -19 -27 -19q-6 0 -12 6l-6 6
q-4 4 -4 11q0 6 6 12q79 82 197 82q91 0 149.5 -47.5t58.5 -122.5q0 -102 -102 -148q63 -25 98 -72t35 -106q0 -87 -67 -141.5t-172 -54.5q-98 0 -162 47q-41 29 -62 61q-8 12 -8 17q0 4 14 10l13 4q10 2 18 -6q37 -42 58 -56q50 -34 129 -34q85 0 138.5 42.5t53.5 110.5
q0 66 -55 111t-137 45h-46q-12 0 -12 12z" />
    <glyph glyph-name="uni2155" unicode="&#x2155;" horiz-adv-x="1689" 
d="M360 1382l-127 -57q-11 -4 -16 4l-10 14q-2 2 -2 7q0 7 6 10l135 63q22 11 37 11h8q15 0 15 -13v-639q0 -12 -15 -12h-18q-13 0 -13 12v600zM1184 1417l-803 -1405q-6 -12 -25 -12h-14q-12 0 -12 10q0 4 2 6l805 1405q7 13 22 13h17q10 0 10 -9q0 -6 -2 -8zM1120 664h303
q13 0 13 -13v-16q0 -12 -13 -12h-280l-43 -236q65 33 145 33q106 0 174 -60.5t68 -154.5t-69.5 -156.5t-172.5 -62.5q-91 0 -153 45q-34 24 -56 55q-18 24 -18 35q0 10 12 12l8 2q4 2 9 2q4 0 6 -2q6 -3 12 -12q1 -1 3 -4t3 -4q29 -37 47 -49q51 -39 127 -39q84 0 140.5 51
t56.5 127t-56.5 125t-140.5 49t-155 -47q-10 -7 -21 -4l-12 4q-13 3 -10 14l55 301q3 17 18 17z" />
    <glyph glyph-name="uni2156" unicode="&#x2156;" horiz-adv-x="1689" 
d="M588 799v-17q0 -12 -13 -12h-430q-12 0 -12 12v11q0 12 10 22l279 293q60 63 77 92t17 68q0 64 -45.5 101.5t-120.5 37.5q-52 0 -90 -16t-80 -52q-6 -6 -12 -6q-7 0 -16 6l-7 4q-6 4 -6 9q0 8 8 16q18 18 39 33q71 47 164 47q97 0 155 -49t58 -131q0 -46 -19.5 -80.5
t-80.5 -97.5l-264 -279h376q13 0 13 -12zM1253 1417l-802 -1405q-6 -12 -25 -12h-14q-13 0 -13 10q0 4 2 6l805 1405q6 13 23 13h16q10 0 10 -9q0 -6 -2 -8zM1190 664h303q12 0 12 -13v-16q0 -12 -12 -12h-281l-43 -236q65 33 146 33q106 0 173.5 -60.5t67.5 -154.5
t-69 -156.5t-172 -62.5q-92 0 -154 45q-32 23 -55 55q-19 25 -19 35q0 9 13 12l8 2q4 2 8 2t6 -2q8 -4 13 -12q1 -1 3 -4t3 -4q29 -37 47 -49q51 -39 127 -39q83 0 139.5 51t56.5 127t-56 125t-140 49q-85 0 -156 -47q-10 -7 -20 -4l-13 4q-13 3 -10 14l55 301q3 17 19 17z
" />
    <glyph glyph-name="uni2157" unicode="&#x2157;" horiz-adv-x="1689" 
d="M295 1120v17q0 12 12 12h45q73 0 119.5 36t46.5 93t-47 93t-119 36q-86 0 -153 -57q-23 -19 -27 -19q-6 0 -12 6l-6 6q-4 4 -4 11q0 6 6 12q79 82 196 82q91 0 150 -47.5t59 -122.5q0 -102 -102 -148q63 -25 98 -72t35 -106q0 -87 -67.5 -141.5t-172.5 -54.5
q-98 0 -162 47q-40 28 -61 61q-8 12 -8 17q0 4 14 10l12 4q10 3 19 -6q37 -41 57 -55q52 -35 129 -35q85 0 139 43t54 110q0 66 -55.5 111t-137.5 45h-45q-12 0 -12 12zM1268 1417l-803 -1405q-6 -12 -25 -12h-14q-12 0 -12 10q0 4 2 6l805 1405q7 13 22 13h17q10 0 10 -9
q0 -6 -2 -8zM1204 664h303q13 0 13 -13v-16q0 -12 -13 -12h-280l-43 -236q65 33 145 33q106 0 174 -60.5t68 -154.5t-69.5 -156.5t-172.5 -62.5q-91 0 -153 45q-34 24 -56 55q-18 24 -18 35q0 10 12 12l8 2q4 2 8 2q5 0 7 -2q6 -3 12 -12q1 -1 3 -4t3 -4q29 -37 47 -49
q51 -39 127 -39q84 0 140.5 51t56.5 127t-56.5 125t-140.5 49t-155 -47q-10 -7 -21 -4l-12 4q-14 3 -11 14l56 301q3 17 18 17z" />
    <glyph glyph-name="uni2158" unicode="&#x2158;" horiz-adv-x="1689" 
d="M487 1415l-317 -454h295v176q0 12 12 12h23q12 0 12 -12v-176h94q12 0 12 -13v-16q0 -12 -12 -12h-94v-138q0 -12 -12 -12h-23q-12 0 -12 12v138h-340q-12 0 -12 12v10q0 10 10 27l330 469q3 6 10 6q4 0 6 -2l16 -10q4 -4 4 -9q0 -6 -2 -8zM1274 1417l-803 -1405
q-6 -12 -25 -12h-14q-12 0 -12 10q0 4 2 6l805 1405q7 13 22 13h17q10 0 10 -9q0 -6 -2 -8zM1210 664h303q13 0 13 -13v-16q0 -12 -13 -12h-280l-43 -236q65 33 145 33q106 0 174 -60.5t68 -154.5t-69.5 -156.5t-172.5 -62.5q-91 0 -153 45q-34 24 -56 55q-18 24 -18 35
q0 10 12 12l8 2q4 2 9 2q4 0 6 -2q6 -3 12 -12q1 -1 3 -4t3 -4q29 -37 47 -49q51 -39 127 -39q84 0 140.5 51t56.5 127t-56.5 125t-140.5 49t-155 -47q-10 -7 -21 -4l-12 4q-13 3 -10 14l55 301q3 17 18 17z" />
    <glyph glyph-name="uni2159" unicode="&#x2159;" horiz-adv-x="1689" 
d="M350 1382l-127 -57q-11 -4 -16 4l-10 14q-2 2 -2 7q0 7 6 10l135 63q22 11 37 11h8q14 0 14 -13v-639q0 -12 -14 -12h-19q-12 0 -12 12v600zM1174 1417l-803 -1405q-6 -12 -25 -12h-14q-13 0 -13 10q0 3 3 6l804 1405q6 13 23 13h16q11 0 11 -9q0 -6 -2 -8zM1327 639
l-170 -229q39 11 88 14q106 0 179 -63t73 -156q0 -94 -71 -156.5t-177 -62.5q-107 0 -178.5 62.5t-71.5 156.5q3 66 35 112l258 347q6 6 11 6q6 0 8 -2l14 -11q6 -3 6 -10q0 -4 -4 -8zM1452 205q0 75 -59.5 126.5t-145.5 51.5t-144.5 -51.5t-58.5 -126.5q0 -77 57 -127.5
t148 -50.5q92 0 147.5 50t55.5 128z" />
    <glyph glyph-name="uni215A" unicode="&#x215a;" horiz-adv-x="1689" 
d="M223 1434h303q13 0 13 -13v-16q0 -12 -13 -12h-280l-43 -236q65 33 145 33q106 0 174 -60.5t68 -154.5t-69.5 -156.5t-172.5 -62.5q-91 0 -153 45q-34 24 -56 55q-18 24 -18 35q0 10 12 12l8 2q4 2 9 2q4 0 6 -2q6 -3 12 -12q1 -1 3 -4t3 -4q29 -37 47 -49
q51 -39 127 -39q84 0 140.5 51t56.5 127t-56.5 125t-140.5 49t-155 -47q-10 -7 -21 -4l-12 4q-13 3 -10 14l55 301q3 17 18 17zM1245 1417l-803 -1405q-6 -12 -24 -12h-15q-12 0 -12 10q0 4 2 6l805 1405q6 13 23 13h16q10 0 10 -9q0 -6 -2 -8zM1399 639l-170 -229
q39 11 88 14q106 0 179 -63t73 -156q0 -94 -71 -156.5t-177 -62.5q-107 0 -178.5 62.5t-71.5 156.5q3 66 35 112l258 347q6 6 10 6q6 0 8 -2l15 -11q6 -3 6 -10q0 -4 -4 -8zM1524 205q0 75 -59.5 126.5t-145.5 51.5t-144.5 -51.5t-58.5 -126.5q0 -77 57 -127.5t148 -50.5
q92 0 147.5 50t55.5 128z" />
    <glyph glyph-name="oneeighth" unicode="&#x215b;" horiz-adv-x="1689" 
d="M358 1382l-127 -57q-11 -4 -16 4l-10 14q-2 2 -2 7q0 7 6 10l135 63q22 11 37 11h8q14 0 14 -13v-639q0 -12 -14 -12h-18q-13 0 -13 12v600zM1182 1417l-803 -1405q-6 -12 -25 -12h-14q-12 0 -12 10q0 4 2 6l805 1405q7 13 22 13h17q10 0 10 -9q0 -6 -2 -8zM1143 362
q-94 49 -94 146q0 74 56.5 122t143.5 48t143 -48t56 -122q0 -98 -92 -146q63 -26 98 -73.5t35 -106.5q0 -86 -67 -141t-173 -55t-173.5 55t-67.5 141q0 58 36 106t99 74zM1053 182q0 -67 55 -111t141 -44t140.5 44t54.5 111t-55 112.5t-140 45.5t-140.5 -45.5t-55.5 -112.5z
M1249 639q-73 0 -115 -36t-42 -95t42 -94t115 -35q72 0 115 35t43 94t-43 95t-115 36z" />
    <glyph glyph-name="threeeighths" unicode="&#x215c;" horiz-adv-x="1689" 
d="M293 1120v17q0 12 12 12h45q73 0 119.5 36t46.5 93t-47 93t-119 36q-86 0 -153 -57q-23 -19 -27 -19q-6 0 -12 6l-6 6q-5 5 -5 11q0 5 7 12q79 82 196 82q91 0 150 -47.5t59 -122.5q0 -102 -102 -148q63 -25 98 -72t35 -106q0 -87 -67.5 -141.5t-172.5 -54.5
q-98 0 -162 47q-40 28 -61 61q-8 12 -8 17q0 4 14 10l12 4q10 3 19 -6q37 -41 57 -55q52 -35 129 -35q85 0 139 43t54 110q0 66 -55.5 111t-137.5 45h-45q-12 0 -12 12zM1266 1417l-803 -1405q-6 -12 -25 -12h-14q-12 0 -12 10q0 4 2 6l805 1405q7 13 22 13h16q11 0 11 -9
q0 -6 -2 -8zM1227 362q-94 49 -94 146q0 74 56.5 122t143.5 48t143 -48t56 -122q0 -98 -92 -146q63 -26 98 -73.5t35 -106.5q0 -86 -67 -141t-173 -55t-173.5 55t-67.5 141q0 58 36 106t99 74zM1137 182q0 -67 55 -111t141 -44t140.5 44t54.5 111t-55 112.5t-140 45.5
t-140.5 -45.5t-55.5 -112.5zM1333 639q-73 0 -115 -36t-42 -95t42 -94t115 -35q72 0 115 35t43 94t-43 95t-115 36z" />
    <glyph glyph-name="fiveeighths" unicode="&#x215d;" horiz-adv-x="1689" 
d="M231 1434h304q12 0 12 -13v-16q0 -12 -12 -12h-281l-43 -236q65 33 145 33q106 0 174 -60.5t68 -154.5t-69.5 -156.5t-172.5 -62.5q-91 0 -153 45q-34 24 -56 55q-18 24 -18 35q0 10 12 12l9 2q4 2 8 2t6 -2q6 -3 12 -12q1 -1 3 -4t3 -4q29 -37 47 -49q51 -39 127 -39
q84 0 140.5 51t56.5 127t-56.5 125t-140.5 49t-155 -47q-10 -7 -21 -4l-12 4q-13 3 -10 14l55 301q3 17 18 17zM1253 1417l-802 -1405q-6 -12 -25 -12h-14q-13 0 -13 10q0 4 2 6l805 1405q6 13 23 13h16q10 0 10 -9q0 -6 -2 -8zM1214 362q-94 49 -94 146q0 74 56.5 122
t144.5 48q87 0 143 -48t56 -122q0 -97 -93 -146q63 -26 98.5 -74t35.5 -106q0 -86 -67 -141t-173 -55t-174 55t-68 141q0 58 36 106t99 74zM1124 182q0 -66 55.5 -110.5t141.5 -44.5t140.5 44t54.5 111t-55 112.5t-140 45.5t-141 -45.5t-56 -112.5zM1321 639
q-73 0 -115.5 -36t-42.5 -95t42.5 -94t115.5 -35q72 0 115 35t43 94t-43 95t-115 36z" />
    <glyph glyph-name="seveneighths" unicode="&#x215e;" horiz-adv-x="1689" 
d="M166 1434h436q12 0 12 -13v-8q0 -14 -10 -31l-328 -616q-3 -8 -10 -8q-4 0 -6 2l-18 10q-6 3 -6 10q0 4 2 6l323 607h-395q-12 0 -12 12v16q0 13 12 13zM1229 1417l-803 -1405q-6 -12 -25 -12h-14q-12 0 -12 10q0 4 2 6l805 1405q6 13 22 13h17q10 0 10 -9q0 -6 -2 -8z
M1190 362q-94 49 -94 146q0 74 56.5 122t143.5 48t143 -48t56 -122q0 -98 -92 -146q63 -26 98 -73.5t35 -106.5q0 -86 -67 -141t-173 -55t-173.5 55t-67.5 141q0 58 36 106t99 74zM1100 182q0 -67 55 -111t141 -44t140.5 44t54.5 111t-55 112.5t-140 45.5t-140.5 -45.5
t-55.5 -112.5zM1296 639q-73 0 -115 -36t-42 -95t42 -94t115 -35q72 0 115 35t43 94t-43 95t-115 36z" />
    <glyph glyph-name="partialdiff" unicode="&#x2202;" 
d="M352 1427l2 15q1 8 4 10t11 2q11 0 23 -1.5t22 -3.5t24 -6.5t22 -7.5t24.5 -9.5t22 -9t23 -10t21.5 -9.5q158 -63 270 -158q322 -269 322 -778q0 -98 -38 -188t-101.5 -155t-152.5 -104t-187 -39q-130 0 -240 65.5t-173 177.5t-63 243t63 242.5t172.5 177t240.5 65.5
q79 0 143 -19t112.5 -56.5t82.5 -77.5t69 -97q-19 145 -88 272t-182 224q-122 108 -293 174q-39 15 -139 43q-11 3 -14.5 7t-2.5 11zM242 461q0 -117 55.5 -217.5t153.5 -160.5t213 -60q113 0 211 59.5t156.5 160t58.5 216.5t-58.5 217.5t-157 162t-210.5 60.5
q-115 0 -213 -60t-153.5 -160.5t-55.5 -217.5z" />
    <glyph glyph-name="emptyset" unicode="&#x2205;" horiz-adv-x="1536" 
d="M264 0h-18q-10 0 -10 8q0 4 2 6l196 273q-101 77 -154 189.5t-53 240.5q0 230 154 383t387 153q167 -3 299 -82l178 248q9 15 27 15h18q10 0 10 -9q0 -4 -2 -6l-196 -272q101 -77 154 -189.5t53 -240.5q0 -152 -70 -274.5t-194 -192.5t-277 -70q-167 3 -299 82l-178 -248
q-8 -14 -27 -14zM463 328l575 802q-113 75 -270 78q-211 0 -350 -141.5t-139 -349.5q7 -254 184 -389zM1073 1106l-575 -803q113 -75 270 -78q139 0 251.5 65t175 177.5t62.5 249.5q-7 254 -184 389z" />
    <glyph glyph-name="Delta" unicode="&#x2206;" horiz-adv-x="1458" 
d="M154 25l534 1388q9 21 29 21h24q20 0 29 -21l535 -1388q2 -4 2 -9q0 -16 -19 -16h-1118q-18 0 -18 16q0 5 2 9zM219 47h1022l-512 1346z" />
    <glyph glyph-name="product" unicode="&#x220f;" horiz-adv-x="1525" 
d="M137 1434h1252q24 0 24 -21v-4q0 -23 -24 -23h-191v-1361q0 -25 -22 -25h-7q-22 0 -22 25v1361h-768v-1361q0 -25 -23 -25h-6q-22 0 -22 25v1361h-191q-24 0 -24 23v4q0 21 24 21z" />
    <glyph glyph-name="summation" unicode="&#x2211;" horiz-adv-x="1208" 
d="M131 -334l610 883l-548 809q-19 30 -19 49v6q0 10 7.5 15.5t17.5 5.5h862q24 0 24 -21v-4q0 -23 -24 -23h-828l555 -819q7 -11 7 -18q0 -5 -7 -19l-616 -892h950q10 0 17.5 -5.5t7.5 -15.5v-6q0 -10 -7.5 -15.5t-17.5 -5.5h-985q-24 0 -24 21v6q0 20 18 49z" />
    <glyph glyph-name="minus" unicode="&#x2212;" 
d="M258 709h815q23 0 23 -21v-4q0 -20 -23 -20h-815q-22 0 -22 20v4q0 21 22 21z" />
    <glyph glyph-name="uni2215" unicode="&#x2215;" horiz-adv-x="276" 
d="M563 1417l-803 -1405q-6 -12 -24 -12h-15q-12 0 -12 10q0 4 2 6l805 1405q6 13 23 13h16q10 0 10 -9q0 -6 -2 -8z" />
    <glyph glyph-name="uni2218" unicode="&#x2218;" horiz-adv-x="1177" 
d="M588 946q95 0 163 -67.5t68 -161.5q0 -97 -67.5 -164.5t-163.5 -67.5q-95 0 -162.5 67.5t-67.5 164.5q0 94 67.5 161.5t162.5 67.5zM588 913q-79 0 -136 -58.5t-57 -137.5q0 -82 57 -140.5t136 -58.5q80 0 137 58.5t57 140.5q0 79 -57.5 137.5t-136.5 58.5z" />
    <glyph glyph-name="uni2219" unicode="&#x2219;" horiz-adv-x="360" 
d="M180 702q24 0 41 -17t17 -40t-17 -40t-41 -17t-40.5 16.5t-16.5 40.5t16.5 40.5t40.5 16.5z" />
    </font>
</defs>
</svg>
