<?xml version="1.0" standalone="no"?>
<!DOCTYPE svg PUBLIC "-//W3C//DTD SVG 1.1//EN" "http://www.w3.org/Graphics/SVG/1.1/DTD/svg11.dtd" >
<svg xmlns="http://www.w3.org/2000/svg" xmlns:xlink="http://www.w3.org/1999/xlink" version="1.1">
<metadata>
Created by FontForge 20170731 at Sat Dec  3 14:51:43 2022
 By Aleksey,,,
Copyright (c) FontPeople Ltd 2020. All rights reserved.
</metadata>
<defs>
<font id="CercoDEMO-Medium" horiz-adv-x="1331" >
  <font-face 
    font-family="Cerco DEMO Medium"
    font-weight="500"
    font-stretch="normal"
    units-per-em="2048"
    panose-1="0 0 6 0 0 0 0 0 0 0"
    ascent="1638"
    descent="-410"
    x-height="1024"
    cap-height="1434"
    bbox="-315 -684 2793 2324"
    underline-thickness="143"
    underline-position="-349"
    unicode-range="U+0020-FB02"
  />
<missing-glyph 
d="M686 442q-143 30 -221 101.5t-78 165.5q0 51 20.5 100t50.5 87.5t59.5 75.5t50 79t20.5 84q0 46 -28 78t-79 48t-90.5 22.5t-93.5 10.5q49 62 163.5 112t268.5 50q42 0 82.5 -6.5t84 -25t75.5 -46.5t52.5 -75t20.5 -107q0 -83 -38 -176t-87.5 -168.5t-119 -191.5
t-113.5 -218zM737 776q14 23 63.5 100t68.5 111t40 89t21 98q0 93 -59 137.5t-156 44.5q-50 0 -113 -13q99 -26 149 -58t50 -85q0 -34 -27 -65t-84 -35q-37 -78 -37 -150q0 -112 84 -174zM606 -10q-83 0 -137.5 53t-54.5 135q0 83 54 135t138 52t138.5 -52t54.5 -135
q0 -82 -55 -135t-138 -53z" />
    <glyph glyph-name="fi" unicode="fi" horiz-adv-x="1335" 
d="M457 1024h241q66 0 66 -66v-61q0 -66 -66 -66h-241v-765q0 -66 -66 -66h-127q-65 0 -65 66v765h-119q-66 0 -66 66v61q0 66 66 66h119v119q0 188 109.5 303.5t289.5 116.5q124 0 203 -29q41 -14 41 -51q0 -16 -6 -31l-29 -72q-14 -47 -53 -47q-9 0 -13 2q-56 15 -112 15
q-172 0 -172 -211v-115zM979 1024h127q65 0 65 -66v-892q0 -66 -65 -66h-127q-66 0 -66 66v892q0 66 66 66zM1042 1532q63 0 110.5 -47.5t47.5 -110.5t-47.5 -110t-110.5 -47t-110 47t-47 110t47 110.5t110 47.5z" />
    <glyph glyph-name="fl" unicode="fl" horiz-adv-x="1318" 
d="M457 1024h241q66 0 66 -66v-61q0 -66 -66 -66h-241v-765q0 -66 -66 -66h-127q-65 0 -65 66v765h-119q-66 0 -66 66v61q0 66 66 66h119v119q0 188 109.5 303.5t289.5 116.5q124 0 203 -29q41 -14 41 -51q0 -16 -6 -31l-29 -72q-14 -47 -53 -47q-9 0 -13 2q-56 15 -112 15
q-172 0 -172 -211v-115zM1167 1468v-1402q0 -66 -65 -66h-127q-66 0 -66 66v1347q0 31 12.5 47t43.5 23l137 37q6 2 20 2q21 0 33 -14.5t12 -39.5z" />
    <glyph glyph-name=".notdef" 
d="M686 442q-143 30 -221 101.5t-78 165.5q0 51 20.5 100t50.5 87.5t59.5 75.5t50 79t20.5 84q0 46 -28 78t-79 48t-90.5 22.5t-93.5 10.5q49 62 163.5 112t268.5 50q42 0 82.5 -6.5t84 -25t75.5 -46.5t52.5 -75t20.5 -107q0 -83 -38 -176t-87.5 -168.5t-119 -191.5
t-113.5 -218zM737 776q14 23 63.5 100t68.5 111t40 89t21 98q0 93 -59 137.5t-156 44.5q-50 0 -113 -13q99 -26 149 -58t50 -85q0 -34 -27 -65t-84 -35q-37 -78 -37 -150q0 -112 84 -174zM606 -10q-83 0 -137.5 53t-54.5 135q0 83 54 135t138 52t138.5 -52t54.5 -135
q0 -82 -55 -135t-138 -53z" />
    <glyph glyph-name=".null" horiz-adv-x="0" 
 />
    <glyph glyph-name="nonmarkingreturn" horiz-adv-x="682" 
 />
    <glyph glyph-name="space" unicode=" " horiz-adv-x="518" 
 />
    <glyph glyph-name="exclam" unicode="!" horiz-adv-x="749" 
d="M375 -25q-66 0 -114 48t-48 114t48 114t114 48q67 0 114.5 -46.5t47.5 -113.5q0 -66 -48 -115t-114 -49zM518 1360l-18 -825q-3 -72 -74 -72h-102q-71 0 -74 72l-19 825q-3 74 72 74h143q75 0 72 -74z" />
    <glyph glyph-name="quotedbl" unicode="&#x22;" horiz-adv-x="860" 
d="M303 973h-94q-33 0 -49 15t-17 48l-10 332q-3 66 64 66h120q65 0 62 -66l-10 -332q-1 -33 -17 -48t-49 -15zM649 973h-94q-33 0 -49 15t-17 48l-10 332q-3 66 64 66h121q64 0 61 -66l-10 -332q-1 -33 -17 -48t-49 -15z" />
    <glyph glyph-name="numbersign" unicode="#" horiz-adv-x="1730" 
d="M860 1104h342l117 274q13 32 31.5 44t52.5 12h100q51 0 51 -41q0 -12 -6 -27l-112 -262h141q51 0 51 -43q0 -13 -6 -25l-29 -69q-12 -32 -29.5 -44t-52.5 -12h-159l-168 -391h151q51 0 51 -43q0 -12 -6 -24l-28 -68q-13 -32 -31 -43.5t-53 -11.5h-166l-117 -277
q-14 -31 -31.5 -42t-52.5 -11h-100q-51 0 -51 41q0 12 6 27l112 262h-342l-116 -277q-14 -31 -31.5 -42t-52.5 -11h-101q-51 0 -51 41q0 12 6 27l113 262h-141q-23 0 -37.5 12.5t-14.5 32.5q0 6 4 22l27 68q12 32 29 43.5t51 11.5h164l168 391h-172q-24 0 -38 11.5t-14 31.5
q0 11 7 25l26 70q12 32 29 43.5t51 11.5h195l116 274q13 32 31.5 44t52.5 12h101q51 0 51 -41q0 -12 -6 -27zM950 520l168 391h-342l-168 -391h342z" />
    <glyph glyph-name="dollar" unicode="$" 
d="M528 1446v119q0 38 18 55.5t56 17.5h117q38 0 56 -17.5t18 -55.5v-117q130 -19 241 -80q78 -46 78 -88q0 -23 -18 -47l-54 -62q-24 -34 -55 -34q-19 0 -31 10q-141 86 -299 86q-107 0 -168 -44t-61 -114q0 -125 170 -188l262 -101q192 -72 267 -165.5t73 -243.5
q-3 -184 -137 -287q-106 -80 -270 -104l2 -117q0 -74 -74 -74h-117q-74 0 -74 74v117q-172 25 -301 125q-78 59 -102 106q-6 12 -6 25q0 28 24 55l52 65q23 29 47 29q22 0 39 -20q70 -77 165.5 -117.5t202.5 -40.5q124 0 199.5 44.5t75.5 131.5q0 61 -38.5 103t-129.5 77
l-275 109q-327 127 -321 397q0 164 131 271q100 78 237 100z" />
    <glyph glyph-name="percent" unicode="%" horiz-adv-x="2035" 
d="M1497 678q165 0 271 -97.5t106 -248.5t-106 -248.5t-271 -97.5q-163 0 -270 98t-107 248t107 248t270 98zM1497 117q103 0 164 60t61 155t-61 155t-164 60q-102 0 -163.5 -60t-61.5 -155t61.5 -155t163.5 -60zM639 0h-49q-17 0 -27 8.5t-10 22.5q0 10 6 22l764 1338
q15 25 31 34t45 9h47q18 0 28.5 -8.5t10.5 -22.5q0 -11 -6 -23l-766 -1337q-13 -24 -29.5 -33.5t-44.5 -9.5zM539 1448q164 0 270 -97.5t106 -248.5t-106 -248.5t-270 -97.5t-270.5 97.5t-106.5 248.5t106.5 248.5t270.5 97.5zM539 887q102 0 163.5 60t61.5 155t-61.5 155
t-163.5 60t-165 -60.5t-63 -154.5t63 -154.5t165 -60.5z" />
    <glyph glyph-name="ampersand" unicode="&#x26;" horiz-adv-x="1404" 
d="M1225 0h-105q-41 0 -64 8.5t-48 36.5l-13 14q-70 -40 -147 -59q-85 -23 -176 -23q-261 -2 -430.5 140.5t-169.5 369.5q3 174 94 291q48 63 121 111q-49 91 -49 194q-1 178 112.5 276.5t306.5 98.5q90 0 181 -31t151 -90q31 -28 31 -57q0 -24 -27 -51l-47 -53
q-26 -29 -51 -29q-22 0 -43 18q-92 82 -195 82q-91 0 -144.5 -43t-53.5 -121q0 -66 29 -115t110 -143l406 -467q45 57 45 129q1 49 -11 87.5t-39 87.5q-8 13 -8 30q0 26 25 51l45 50q27 30 55 30q22 0 43 -18q28 -28 55 -80q61 -116 58 -238q-3 -100 -31 -176
q-32 -79 -84 -139l94 -111q13 -16 13 -28q0 -14 -10.5 -23.5t-28.5 -9.5zM846 233l-354 400q-12 13 -33.5 38.5t-32.5 39.5q-41 -25 -78 -78q-41 -61 -41 -146q-1 -137 101.5 -222t263.5 -83q107 0 174 51z" />
    <glyph glyph-name="quotesingle" unicode="'" horiz-adv-x="514" 
d="M303 973h-94q-33 0 -49 15t-17 48l-10 332q-3 66 64 66h120q65 0 62 -66l-10 -332q-1 -33 -17 -48t-49 -15z" />
    <glyph glyph-name="parenleft" unicode="(" horiz-adv-x="669" 
d="M414 1647l82 -45q41 -23 41 -58q0 -15 -11 -41q-44 -96 -77 -190q-93 -290 -93 -596q0 -300 88 -574q36 -117 82 -211q11 -29 11 -43q0 -34 -41 -57l-82 -45q-24 -14 -43 -14q-13 0 -25 6q-48 31 -125 235q-131 337 -131 703t131 706q50 131 92 195q24 43 58 43
q21 0 43 -14z" />
    <glyph glyph-name="parenright" unicode=")" horiz-adv-x="669" 
d="M256 -213l-82 45q-41 23 -41 57q0 16 10 43q51 106 84 211q88 274 88 574q0 303 -94 596q-38 108 -78 190q-10 23 -10 41q0 35 41 58l82 45q25 14 45 14q30 0 57 -43q40 -61 91 -195q131 -340 131 -706q0 -371 -129 -703q-77 -204 -127 -235q-9 -6 -23 -6q-17 0 -45 14z
" />
    <glyph glyph-name="asterisk" unicode="*" horiz-adv-x="886" 
d="M328 1090l-164 59q-31 12 -31 35q0 10 6 22l25 60q12 30 35 30q12 0 24 -6l146 -57l-2 156q-3 45 45 45h63q45 0 45 -45l-4 -156l148 57q16 4 20 4q27 0 39 -30l25 -58q4 -16 4 -20q0 -25 -31 -37l-164 -57l107 -146q12 -15 12 -28q0 -17 -23 -33l-55 -35
q-20 -10 -31 -10q-19 0 -35 22l-90 135l-88 -135q-16 -22 -37 -22q-15 0 -26 8l-55 37q-25 16 -25 33q0 15 12 30z" />
    <glyph glyph-name="plus" unicode="+" 
d="M567 590h-344q-65 0 -65 65v62q0 65 65 65h344v342q0 66 66 66h65q66 0 66 -66v-342h344q66 0 66 -65v-62q0 -65 -66 -65h-344v-342q0 -66 -66 -66h-65q-66 0 -66 66v342z" />
    <glyph glyph-name="comma" unicode="," horiz-adv-x="579" 
d="M180 -326l-28 33q-15 15 -15 31t21 37q51 49 75 93.5t33 111.5q-58 11 -94.5 54.5t-36.5 102.5q0 66 48 114t114 48q67 0 114.5 -48t47.5 -114q0 -131 -54.5 -254t-152.5 -209q-22 -18 -39 -18q-15 0 -33 18z" />
    <glyph glyph-name="hyphen" unicode="-" horiz-adv-x="708" 
d="M176 608h356q66 0 66 -65v-62q0 -65 -66 -65h-356q-65 0 -65 65v62q0 65 65 65z" />
    <glyph glyph-name="period" unicode="." horiz-adv-x="565" 
d="M283 299q66 0 113.5 -48t47.5 -114t-47.5 -114t-113.5 -48t-114 48t-48 114t48 114t114 48z" />
    <glyph glyph-name="slash" unicode="/" horiz-adv-x="1175" 
d="M936 1434h113q23 0 36 -11t13 -30q0 -16 -8 -29l-697 -1309q-19 -33 -37.5 -44t-56.5 -11h-111q-23 0 -36 10.5t-13 28.5q0 16 8 29l697 1310q17 33 36.5 44.5t55.5 11.5z" />
    <glyph glyph-name="zero" unicode="0" 
d="M666 1458q181 0 315.5 -93t205 -260.5t70.5 -387.5t-70.5 -387.5t-205 -261t-315.5 -93.5t-315.5 93t-205.5 261t-71 388t71 387.5t205.5 260.5t315.5 93zM666 1233q-155 0 -242.5 -141.5t-87.5 -374.5t87.5 -374.5t242.5 -141.5t242 141t87 375t-87 375t-242 141z" />
    <glyph glyph-name="one" unicode="1" 
d="M877 225h233q38 0 56 -17.5t18 -55.5v-78q0 -74 -74 -74h-811q-74 0 -74 74v78q0 38 18 55.5t56 17.5h311v922l-164 -94q-24 -15 -43 -15q-33 0 -57 41l-51 80q-14 22 -14 45q0 36 38 56l216 118q44 23 63 32t51 16.5t70 7.5h84q74 0 74 -74v-1135z" />
    <glyph glyph-name="two" unicode="2" 
d="M528 225h574q38 0 56 -17.5t18 -55.5v-78q0 -74 -74 -74h-877q-73 0 -73 72v61q0 43 11 67t42 54l467 467q110 110 137 146q54 74 55 157q0 95 -65 152.5t-181 58.5q-177 0 -313 -100q-20 -13 -33 -13q-30 0 -53 37l-45 66q-16 24 -16 47q0 33 47 65q83 60 192 90.5
t221 30.5q229 0 367.5 -119t138.5 -315q0 -64 -15.5 -120.5t-47.5 -106t-60 -83t-71 -77.5z" />
    <glyph glyph-name="three" unicode="3" 
d="M244 1163l-39 66q-17 23 -17 43q0 34 48 67q83 59 190 88t217 29q203 0 338 -105.5t135 -263.5q0 -117 -52 -190.5t-159 -118.5q116 -37 194.5 -135t78.5 -240q0 -188 -151 -308t-384 -120q-173 0 -317 66q-122 58 -168 113q-25 28 -25 53q0 22 21 49l41 59q19 31 45 31
q21 0 43 -16q51 -37 75 -51q125 -76 285 -76q122 0 197 61t75 176q0 105 -77 169.5t-195 64.5l-76 2q-71 0 -71 72v55q0 71 71 71l76 3q103 0 167 47t64 127q0 86 -64 136t-167 50q-177 0 -313 -100q-20 -13 -33 -13q-33 0 -53 39z" />
    <glyph glyph-name="four" unicode="4" 
d="M1022 465h111q38 0 55.5 -18t17.5 -56v-72q0 -38 -17.5 -55.5t-55.5 -17.5h-111v-172q0 -74 -74 -74h-112q-74 0 -74 74v172h-590q-38 0 -56 17.5t-18 55.5v74q0 53 12 84t46 80l561 860q24 37 53 37q25 0 47 -14l96 -58q39 -23 39 -55q0 -19 -16 -45l-537 -817h363v188
q0 74 74 74h112q74 0 74 -74v-188z" />
    <glyph glyph-name="five" unicode="5" 
d="M530 1208l-53 -344q109 62 264 62q196 0 324.5 -132t128.5 -335q0 -99 -40.5 -188t-110 -154t-169 -103.5t-212.5 -38.5q-202 0 -365 99q-112 65 -147 141q-9 15 -9 31q0 25 27 49l47 47q20 20 41 20q15 0 27 -12q41 -41 102 -80q119 -77 277 -77q117 2 193.5 73.5
t76.5 186.5t-76.5 187.5t-193.5 72.5q-119 0 -226 -70q-20 -14 -41 -14q-15 0 -45 10l-78 27q-55 18 -55 65q0 15 2 21l96 616q4 35 22.5 50.5t53.5 15.5h627q74 0 74 -74v-78q0 -74 -74 -74h-488z" />
    <glyph glyph-name="six" unicode="6" 
d="M881 1276l-232 -328h19q236 0 395.5 -138t159.5 -347q0 -210 -158.5 -349t-390.5 -139q-150 0 -276 62.5t-200.5 175t-74.5 250.5q7 151 67 244l463 708q23 39 58 39q18 0 47 -16l100 -62q41 -24 41 -55q0 -21 -18 -45zM674 186q122 0 207.5 81t85.5 196q0 114 -86.5 195
t-210.5 81q-121 0 -204 -80.5t-83 -195.5t85.5 -196t205.5 -81z" />
    <glyph glyph-name="seven" unicode="7" 
d="M868 1202h-651q-74 0 -74 74v84q0 74 74 74h887q74 0 74 -72v-51q0 -37 -9.5 -72t-18 -54t-32.5 -65l-581 -1100q-21 -40 -56 -40q-23 0 -43 14l-102 61q-39 23 -39 58q0 19 12 43z" />
    <glyph glyph-name="eight" unicode="8" 
d="M399 778q-91 41 -138.5 121.5t-47.5 187.5q0 162 128 266.5t325 104.5t324.5 -104.5t127.5 -266.5q0 -107 -47.5 -187.5t-138.5 -121.5q109 -34 185.5 -136.5t76.5 -238.5q0 -192 -148.5 -310t-379.5 -118t-380 118t-149 310q0 136 76.5 238.5t185.5 136.5zM666 680
q-116 0 -193.5 -71.5t-77.5 -176.5q0 -106 77 -175t194 -69t193.5 69t76.5 175q0 105 -77 176.5t-193 71.5zM666 1270q-94 0 -153.5 -54t-59.5 -141q0 -89 59.5 -143.5t153.5 -54.5t153.5 54.5t59.5 143.5q0 87 -59.5 141t-153.5 54z" />
    <glyph glyph-name="nine" unicode="9" 
d="M467 160l213 319h-21q-155 0 -282.5 63t-201 175.5t-73.5 251.5q0 140 73.5 252.5t199.5 174.5t278 62q151 0 277.5 -62t201 -175t74.5 -252q-6 -141 -90 -279l-409 -670q-24 -40 -58 -40q-23 0 -45 14l-112 63q-41 23 -41 56q0 21 16 47zM653 1247q-120 0 -206.5 -81.5
t-86.5 -196.5q0 -116 87 -198.5t210 -82.5q122 0 205.5 82.5t83.5 198.5q0 115 -86.5 196.5t-206.5 81.5z" />
    <glyph glyph-name="colon" unicode=":" horiz-adv-x="667" 
d="M334 299q66 0 114 -48t48 -114t-48 -114t-114 -48t-114 48t-48 114t48 114t114 48zM334 1049q66 0 114 -48t48 -114t-48 -114t-114 -48t-114 48t-48 114t48 114t114 48z" />
    <glyph glyph-name="semicolon" unicode=";" horiz-adv-x="579" 
d="M297 1049q67 0 114.5 -48t47.5 -114t-47.5 -114t-114.5 -48q-66 0 -114 48t-48 114t48 114t114 48zM180 -326l-28 33q-15 15 -15 31t21 37q51 49 75 93.5t33 111.5q-58 11 -94.5 54.5t-36.5 102.5q0 66 48 114t114 48q67 0 114.5 -48t47.5 -114q0 -131 -54.5 -254
t-152.5 -209q-22 -18 -39 -18q-15 0 -33 18z" />
    <glyph glyph-name="less" unicode="&#x3c;" 
d="M459 686l600 -272q28 -14 38.5 -30.5t10.5 -47.5v-98q0 -45 -37 -45q-12 0 -24 6l-826 385q-27 12 -38 28.5t-11 46.5v54q0 30 11 46.5t38 28.5l826 386q12 6 24 6q37 0 37 -45v-99q0 -31 -10.5 -47.5t-38.5 -30.5z" />
    <glyph glyph-name="equal" unicode="=" 
d="M227 567h877q65 0 65 -65v-62q0 -65 -65 -65h-877q-65 0 -65 65v62q0 65 65 65zM227 997h877q65 0 65 -65v-62q0 -65 -65 -65h-877q-65 0 -65 65v62q0 65 65 65z" />
    <glyph glyph-name="greater" unicode="&#x3e;" 
d="M872 686l-600 272q-28 14 -38.5 30.5t-10.5 47.5v99q0 45 37 45q13 0 25 -6l825 -386q27 -12 38 -28.5t11 -46.5v-54q0 -30 -11 -46.5t-38 -28.5l-825 -385q-12 -6 -25 -6q-37 0 -37 45v98q0 31 10.5 47.5t38.5 30.5z" />
    <glyph glyph-name="question" unicode="?" horiz-adv-x="1118" 
d="M453 299q67 0 114 -48t47 -114t-47 -114t-114 -48q-66 0 -114 48t-48 114t48 114t114 48zM475 791l164 102q61 37 87 74t26 94q0 78 -59.5 127t-164.5 49q-147 0 -284 -90q-17 -10 -33 -10q-28 0 -55 30l-50 62q-22 29 -22 49q0 10 2 16q14 40 92 80q156 84 350 84
q225 0 357.5 -104t132.5 -293q0 -111 -46 -182t-136 -125l-127 -76q-28 -17 -43.5 -28t-33.5 -27.5t-28 -35.5t-14 -44q-7 -41 -21.5 -60.5t-52.5 -19.5h-121q-48 0 -59.5 15t-11.5 63q0 159 151 250z" />
    <glyph glyph-name="at" unicode="@" horiz-adv-x="1966" 
d="M1452 -63l16 -37q7 -18 7 -29q0 -35 -58 -61q-183 -84 -434 -84q-182 0 -341 60t-271 164t-176 250t-64 312t64.5 313t176.5 252.5t272.5 166.5t344.5 61q186 0 344 -56t268.5 -156t172 -241.5t61.5 -308.5q0 -208 -88.5 -321t-259.5 -113q-201 3 -285 149
q-57 -82 -125.5 -115.5t-167.5 -33.5q-166 0 -273.5 112.5t-107.5 290.5t107 289.5t274 111.5q89 0 155 -33t120 -116v61q0 29 16.5 44.5t46.5 15.5h45q64 0 64 -66v-377q0 -78 32.5 -125.5t98.5 -48.5q86 0 126 67.5t40 207.5q0 273 -182.5 434.5t-481.5 161.5
q-145 0 -271 -47.5t-215 -130.5t-139.5 -199.5t-50.5 -249.5q0 -178 86.5 -320t239.5 -222t344 -81q206 0 395 80q12 6 27 6q35 0 47 -38zM948 274q100 0 167 68.5t67 169.5t-67 168.5t-167 67.5q-97 0 -163 -67.5t-66 -168.5t66 -169.5t163 -68.5z" />
    <glyph glyph-name="A" unicode="A" horiz-adv-x="1492" 
d="M410 272l-86 -215q-13 -34 -31 -45.5t-55 -11.5h-142q-25 0 -39 11.5t-14 31.5q0 14 6 29l539 1304q13 33 31.5 45.5t54.5 12.5h147q36 0 54.5 -12.5t31.5 -45.5l539 -1304q6 -15 6 -27q0 -21 -14.5 -33t-40.5 -12h-142q-36 0 -54.5 12t-31.5 45l-82 215h-677zM999 504
l-251 637l-254 -637h505z" />
    <glyph glyph-name="B" unicode="B" horiz-adv-x="1392" 
d="M246 1434h432q88 0 163.5 -10t146.5 -36t120.5 -66.5t79 -105t29.5 -147.5q0 -245 -218 -330q289 -74 289 -358q0 -88 -29.5 -155t-79 -109t-120 -69t-145.5 -37.5t-164 -10.5h-504q-74 0 -74 74v1286q0 74 74 74zM434 842h273q126 0 191 44.5t65 151.5t-69 150t-198 43
h-262v-389zM434 203h328q264 0 264 209q0 113 -77.5 163t-231.5 50h-283v-422z" />
    <glyph glyph-name="C" unicode="C" horiz-adv-x="1492" 
d="M1280 371l88 -72q31 -27 31 -53q0 -9 -2 -15q-3 -12 -11.5 -24.5t-23.5 -26.5t-25 -22.5t-28.5 -23t-20.5 -15.5q-200 -144 -463 -144q-221 0 -393.5 96.5t-267 265.5t-94.5 380t94.5 380t267 265t393.5 96q207 0 383 -92q124 -71 174 -143q15 -18 15 -37q0 -25 -29 -51
l-88 -72q-26 -23 -51 -23q-19 0 -41 19q-75 71 -169 111t-194 40q-211 0 -346 -139t-135 -354t135 -354.5t346 -139.5q101 0 194.5 40t168.5 112q21 18 41 18q26 0 51 -22z" />
    <glyph glyph-name="D" unicode="D" horiz-adv-x="1589" 
d="M729 0h-483q-74 0 -74 74v1286q0 74 74 74h483q355 0 562.5 -194.5t207.5 -522.5t-207.5 -522.5t-562.5 -194.5zM438 1202v-971h301q224 0 355 133.5t131 352.5t-131 352t-355 133h-301z" />
    <glyph glyph-name="E" unicode="E" horiz-adv-x="1236" 
d="M434 1208v-387h484q38 0 55.5 -17.5t17.5 -55.5v-72q0 -38 -17.5 -56t-55.5 -18h-484v-377h658q38 0 55.5 -17.5t17.5 -55.5v-78q0 -38 -17.5 -56t-55.5 -18h-846q-74 0 -74 74v1286q0 74 74 74h825q74 0 74 -74v-78q0 -74 -74 -74h-637z" />
    <glyph glyph-name="F" unicode="F" horiz-adv-x="1210" 
d="M440 797h494q74 0 74 -74v-84q0 -74 -74 -74h-494v-491q0 -38 -17.5 -56t-55.5 -18h-121q-74 0 -74 74v1286q0 74 74 74h866q74 0 74 -74v-84q0 -74 -74 -74h-672v-405z" />
    <glyph glyph-name="G" unicode="G" horiz-adv-x="1529" 
d="M1149 580h-311q-38 0 -56 17.5t-18 55.5v74q0 74 74 74h497q74 0 74 -74v-412q0 -46 -7.5 -74t-33.5 -57q-62 -69 -186 -131q-166 -78 -365 -78q-218 0 -389 96.5t-264.5 265.5t-93.5 380t93.5 380t264.5 265t389 96q244 0 436 -123q88 -51 103 -92q2 -6 2 -16
q0 -27 -31 -51l-92 -76q-31 -21 -53 -21q-19 0 -37 15q-145 123 -328 123q-211 0 -342 -140t-131 -360t131 -360t342 -140q192 0 332 119v244z" />
    <glyph glyph-name="H" unicode="H" horiz-adv-x="1572" 
d="M438 606v-532q0 -38 -17.5 -56t-55.5 -18h-119q-74 0 -74 74v1286q0 74 74 74h119q38 0 55.5 -18t17.5 -56v-522h697v522q0 38 17.5 56t55.5 18h119q74 0 74 -74v-1286q0 -74 -74 -74h-119q-38 0 -55.5 18t-17.5 56v532h-697z" />
    <glyph glyph-name="I" unicode="I" horiz-adv-x="610" 
d="M438 1360v-1286q0 -38 -17.5 -56t-55.5 -18h-119q-74 0 -74 74v1286q0 74 74 74h119q38 0 55.5 -18t17.5 -56z" />
    <glyph glyph-name="J" unicode="J" horiz-adv-x="1146" 
d="M719 451v909q0 74 72 74h120q74 0 74 -74v-920q0 -238 -129.5 -351.5t-359.5 -113.5q-220 0 -373 121q-70 56 -80 90q-2 4 -2 13q0 20 20 47l48 61q25 31 51 31q18 0 43 -19q70 -61 130.5 -86.5t149.5 -25.5q114 0 175 54t61 190z" />
    <glyph glyph-name="K" unicode="K" horiz-adv-x="1413" 
d="M784 809l549 -746q10 -17 10 -28q0 -35 -40 -35h-189q-40 0 -60.5 10.5t-43.5 44.5l-396 563l-176 -196v-348q0 -38 -17.5 -56t-55.5 -18h-119q-74 0 -74 74v1286q0 74 74 74h119q38 0 55.5 -18t17.5 -56v-600l525 618q28 34 50 45t64 11h183q18 0 29 -9.5t11 -23.5
q0 -15 -12 -27z" />
    <glyph glyph-name="L" unicode="L" horiz-adv-x="1142" 
d="M438 231h582q38 0 56 -17.5t18 -55.5v-84q0 -74 -74 -74h-774q-74 0 -74 74v1286q0 74 74 74h119q38 0 55.5 -18t17.5 -56v-1129z" />
    <glyph glyph-name="M" unicode="M" horiz-adv-x="1865" 
d="M934 575l422 803q18 33 36 44.5t56 11.5h172q74 0 74 -74v-1286q0 -74 -74 -74h-119q-74 0 -74 74v944l-340 -709q-15 -34 -33 -45.5t-55 -11.5h-133q-37 0 -55 11.5t-33 45.5l-340 709v-944q0 -38 -17.5 -56t-55.5 -18h-119q-74 0 -74 74v1286q0 74 74 74h172
q38 0 56 -11.5t36 -44.5z" />
    <glyph glyph-name="N" unicode="N" horiz-adv-x="1572" 
d="M1135 416v944q0 38 17.5 56t55.5 18h119q74 0 74 -74v-1286q0 -74 -74 -74h-141q-40 0 -60.5 11t-42.5 44l-645 963v-944q0 -38 -17.5 -56t-55.5 -18h-119q-74 0 -74 74v1286q0 74 74 74h141q40 0 60 -11t42 -45z" />
    <glyph glyph-name="O" unicode="O" horiz-adv-x="1683" 
d="M842 1458q166 0 310 -56t245.5 -154t159 -235.5t57.5 -295.5t-57.5 -295.5t-159 -235.5t-245.5 -154.5t-310 -56.5t-309.5 56.5t-245 154.5t-159.5 235.5t-58 295.5t58 295.5t159.5 235.5t245 154t309.5 56zM842 223q213 0 355 140.5t142 353.5t-142 353t-355 140
t-355.5 -140t-142.5 -353t142.5 -353.5t355.5 -140.5z" />
    <glyph glyph-name="P" unicode="P" horiz-adv-x="1296" 
d="M438 444v-370q0 -38 -17.5 -56t-55.5 -18h-119q-74 0 -74 74v1286q0 74 74 74h411q85 0 163 -13.5t155.5 -49t134 -90.5t92 -144t35.5 -203t-35 -202t-91.5 -141.5t-135 -87.5t-156 -46.5t-164.5 -12.5h-217zM438 659h240q61 0 113 15.5t94.5 47t67 86t24.5 126.5
t-24.5 126t-67 85t-94.5 46t-113 15h-240v-547z" />
    <glyph glyph-name="Q" unicode="Q" horiz-adv-x="1683" 
d="M1204 -49l-63 76q-54 -19 -70 -23q-97 -26 -229 -29q-166 0 -309.5 56.5t-245 154.5t-159.5 235.5t-58 295.5t58 295.5t159.5 235.5t245 154t309.5 56t310 -56t245.5 -154t159 -235.5t57.5 -295.5q-3 -115 -27 -205q-61 -226 -241 -371l155 -184q12 -12 12 -29
q0 -13 -10 -21.5t-28 -8.5h-156q-43 0 -65 10.5t-50 42.5zM842 223q213 0 355 140.5t142 353.5t-142 353t-355 140t-355.5 -140t-142.5 -353t142.5 -353.5t355.5 -140.5z" />
    <glyph glyph-name="R" unicode="R" horiz-adv-x="1386" 
d="M979 55l-244 455h-84l-213 -2v-434q0 -38 -17.5 -56t-55.5 -18h-119q-74 0 -74 74v1286q0 74 74 74h438q87 0 164 -11t156.5 -42t136.5 -79.5t93 -130.5t36 -188q0 -151 -73 -261t-206 -159l269 -495q8 -13 8 -29q0 -18 -13 -28.5t-36 -10.5h-146q-38 0 -56.5 11
t-37.5 44zM438 711l273 2q85 0 150.5 23t108 80t42.5 142q0 88 -42.5 146.5t-108 82t-150.5 23.5l-273 2v-501z" />
    <glyph glyph-name="S" unicode="S" horiz-adv-x="1208" 
d="M532 887l263 -101q193 -72 268.5 -165.5t75.5 -243.5q0 -128 -72.5 -220t-196.5 -136.5t-284 -43.5q-250 0 -426 129q-72 58 -92 90q-6 10 -9 19q-4 16 -4 21q0 24 25 53l53 69q23 29 47 29q21 0 39 -18q69 -77 165 -116.5t202 -39.5q124 0 199 44.5t75 131.5
q0 61 -38.5 103t-129.5 77l-274 109q-324 126 -324 397q0 163 138 273t360 110q198 0 362 -80q97 -45 97 -94q0 -24 -21 -51l-51 -64q-26 -32 -57 -32q-18 0 -31 10q-141 86 -299 86q-107 0 -168.5 -44t-61.5 -114q0 -125 170 -188z" />
    <glyph glyph-name="T" unicode="T" horiz-adv-x="1245" 
d="M489 1202h-407q-74 0 -74 74v84q0 74 74 74h1081q74 0 74 -74v-84q0 -74 -74 -74h-407v-1128q0 -74 -74 -74h-119q-74 0 -74 74v1128z" />
    <glyph glyph-name="U" unicode="U" horiz-adv-x="1583" 
d="M418 1360v-776q0 -103 40 -183t126.5 -129t208.5 -49q181 0 276.5 101t95.5 260v776q0 74 74 74h121q72 0 72 -74v-787q0 -130 -42 -239.5t-121 -189.5t-201 -124.5t-275 -44.5t-275 45t-202 125t-122 189t-42 239v787q0 38 17.5 56t55.5 18h119q74 0 74 -74z" />
    <glyph glyph-name="V" unicode="V" horiz-adv-x="1484" 
d="M741 293l420 1083q14 34 31.5 46t54.5 12h142q53 0 53 -45q0 -7 -4 -27l-531 -1305q-13 -33 -31.5 -45t-54.5 -12h-159q-36 0 -55 12t-32 45l-528 1305q-6 15 -6 27q0 45 55 45h144q36 0 54 -12.5t30 -45.5z" />
    <glyph glyph-name="W" unicode="W" horiz-adv-x="2109" 
d="M1057 1069l-260 -1006q-9 -35 -27 -49t-53 -14h-166q-34 0 -53 13.5t-29 45.5l-426 1301q-4 16 -4 24q0 23 15.5 36.5t41.5 13.5h150q34 0 52.5 -14t27.5 -48l315 -1048l262 1046q9 35 27 49.5t53 14.5h145q34 0 52.5 -14.5t27.5 -49.5l262 -1046l316 1048q9 34 27.5 48
t52.5 14h149q28 0 43 -13.5t15 -36.5q0 -4 -5 -24l-430 -1301q-11 -32 -29 -45.5t-53 -13.5h-163q-34 0 -52.5 14t-25.5 49z" />
    <glyph glyph-name="X" unicode="X" horiz-adv-x="1353" 
d="M676 936l303 442q22 34 42 45t60 11h154q21 0 33 -10.5t12 -26.5q0 -12 -10 -29l-447 -631l477 -671q11 -18 11 -29q0 -16 -12 -26.5t-33 -10.5h-154q-40 0 -60 10.5t-42 44.5l-332 486l-332 -486q-23 -34 -43.5 -44.5t-60.5 -10.5h-156q-20 0 -31.5 10.5t-11.5 26.5
q0 12 10 29l477 671l-446 631q-10 17 -10 29q0 16 11.5 26.5t31.5 10.5h155q40 0 61 -11t44 -45z" />
    <glyph glyph-name="Y" unicode="Y" horiz-adv-x="1404" 
d="M702 737l353 641q17 33 36.5 44.5t55.5 11.5h149q22 0 34.5 -10.5t12.5 -26.5q0 -18 -8 -31l-499 -874v-418q0 -74 -74 -74h-121q-72 0 -72 74v418l-503 874q-9 15 -9 29q0 18 13 28.5t36 10.5h148q37 0 56 -11.5t38 -44.5z" />
    <glyph glyph-name="Z" unicode="Z" horiz-adv-x="1243" 
d="M827 1202h-669q-74 0 -74 74v84q0 74 74 74h921q74 0 74 -72v-59q0 -45 -11.5 -73.5t-41.5 -66.5l-711 -932h741q38 0 56 -17.5t18 -55.5v-84q0 -74 -74 -74h-1003q-74 0 -74 72v59q0 46 12 73t44 66z" />
    <glyph glyph-name="bracketleft" unicode="[" horiz-adv-x="747" 
d="M389 1442v-1450h133q74 0 74 -72v-53q0 -72 -74 -72h-317q-74 0 -74 74v1696q0 38 18 55.5t56 17.5h317q74 0 74 -71v-54q0 -71 -74 -71h-133z" />
    <glyph glyph-name="backslash" unicode="\" horiz-adv-x="301" 
d="M580 0h-48q-30 0 -45.5 9t-29.5 34l-766 1337q-6 12 -6 23q0 14 9.5 22.5t26.5 8.5h50q28 0 44 -9t29 -34l768 -1338q6 -12 6 -22q0 -31 -38 -31z" />
    <glyph glyph-name="bracketright" unicode="]" horiz-adv-x="747" 
d="M358 1442h-133q-37 0 -55 16.5t-18 54.5v54q0 38 18 54.5t55 16.5h318q38 0 55.5 -17.5t17.5 -55.5v-1696q0 -38 -17.5 -56t-55.5 -18h-318q-73 0 -73 72v53q0 72 73 72h133v1450z" />
    <glyph glyph-name="asciicircum" unicode="^" 
d="M666 1176l-269 -383q-19 -25 -35.5 -34t-46.5 -9h-112q-15 0 -24 7.5t-9 18.5q0 12 8 23l383 524q18 24 35 33.5t45 9.5h45q28 0 45 -9.5t35 -33.5l385 -524q8 -11 8 -23q0 -11 -9 -18.5t-26 -7.5h-112q-31 0 -48 9t-34 34z" />
    <glyph glyph-name="underscore" unicode="_" 
d="M176 -111h979q66 0 66 -65v-62q0 -65 -66 -65h-979q-65 0 -65 65v62q0 65 65 65z" />
    <glyph glyph-name="grave" unicode="`" horiz-adv-x="1146" 
d="M836 1233l-35 -43q-18 -21 -37 -21q-12 0 -35 13l-260 186q-25 19 -25 37q0 13 15 35l59 69q18 21 39 21q15 0 35 -17l237 -208q21 -18 21 -37q0 -18 -14 -35z" />
    <glyph glyph-name="a" unicode="a" horiz-adv-x="1208" 
d="M856 63v56q-107 -144 -346 -144q-177 0 -291.5 97.5t-114.5 257.5t117.5 255t296.5 95q91 0 157 -12t150 -39l-2 26q-5 98 -65.5 154.5t-177.5 56.5q-151 3 -285 -61q-12 -6 -25 -6q-31 0 -47 39l-20 51q-8 16 -8 33q0 30 32 49q137 78 353 78q228 0 359.5 -116.5
t131.5 -303.5v-563q0 -66 -65 -66h-86q-64 0 -64 63zM825 358v111q-111 41 -239 41q-99 0 -166.5 -49t-67.5 -131q0 -81 64 -129.5t155 -48.5q112 0 183 56t71 150z" />
    <glyph glyph-name="b" unicode="b" horiz-adv-x="1310" 
d="M397 1468v-577q60 74 149 116t187 42q228 0 367 -148.5t139 -388.5t-139 -388.5t-367 -148.5q-114 0 -207.5 45.5t-158.5 131.5v-91q0 -61 -66 -61h-84q-65 0 -65 66v1343q0 31 12 47t41 25l127 37q8 2 20 2q45 0 45 -52zM684 199q130 0 215.5 89t85.5 224t-85.5 224
t-215.5 89t-213.5 -88.5t-83.5 -224.5t83.5 -224.5t213.5 -88.5z" />
    <glyph glyph-name="c" unicode="c" horiz-adv-x="1122" 
d="M946 287l74 -70q24 -21 24 -45q0 -12 -10 -29q-29 -42 -98 -86q-140 -82 -309 -82q-240 0 -397.5 151.5t-157.5 385.5t157.5 385.5t397.5 151.5q119 0 229 -43q106 -43 168 -111q20 -20 20 -41q0 -26 -24 -47l-74 -70q-21 -18 -41 -18q-23 0 -43 20l-49 35
q-85 51 -186 51q-130 0 -215.5 -89.5t-85.5 -223.5t85.5 -223.5t215.5 -89.5q81 0 151 30q42 19 94 64q15 12 33 12q23 0 41 -18z" />
    <glyph glyph-name="d" unicode="d" horiz-adv-x="1310" 
d="M913 891v518q0 31 12.5 47t41.5 25l127 37q8 2 20 2q45 0 45 -52v-1402q0 -66 -65 -66h-84q-66 0 -66 61v91q-65 -86 -158.5 -131.5t-207.5 -45.5q-228 0 -367 148.5t-139 388.5t139 388.5t367 148.5q98 0 186.5 -42t148.5 -116zM627 199q130 0 213.5 88.5t83.5 224.5
t-83.5 224.5t-213.5 88.5t-215.5 -89t-85.5 -224t85.5 -224t215.5 -89z" />
    <glyph glyph-name="e" unicode="e" horiz-adv-x="1196" 
d="M1059 432h-735q6 -112 86 -186q80 -68 206 -68q112 0 191 39q22 8 72 43q31 21 51 21q19 0 39 -17l61 -49q29 -23 29 -45q0 -18 -23 -41q-78 -74 -191.5 -114t-234.5 -40q-234 0 -386 151.5t-152 385.5t152 385.5t386 151.5q151 0 268.5 -71t181.5 -195t64 -279v-12
q0 -60 -65 -60zM328 594h544q-7 119 -81 190q-74 74 -181 74q-119 0 -194 -72q-79 -76 -88 -192z" />
    <glyph glyph-name="f" unicode="f" horiz-adv-x="751" 
d="M457 831v-765q0 -66 -66 -66h-127q-65 0 -65 66v765h-119q-66 0 -66 66v61q0 66 66 66h119v119q0 188 109.5 303.5t289.5 116.5q124 0 203 -29q41 -14 41 -51q0 -16 -6 -31l-29 -72q-14 -47 -53 -47q-9 0 -13 2q-56 15 -112 15q-172 0 -172 -211v-115h241q66 0 66 -66
v-61q0 -66 -66 -66h-241z" />
    <glyph glyph-name="g" unicode="g" horiz-adv-x="1273" 
d="M883 -2v170q-56 -71 -139.5 -109.5t-184.5 -38.5q-216 0 -351 140.5t-134 374.5q0 234 134.5 374t350.5 140q225 0 348 -166v80q0 61 66 61h84q65 0 65 -66v-970q0 -194 -139.5 -308t-384.5 -114q-249 0 -424 112q-37 24 -37 54q0 19 8 35l27 65q16 39 47 39q16 0 29 -8
q62 -41 133 -66q98 -39 217 -39q285 0 285 240zM608 238q125 0 207 84t82 213t-82 212.5t-207 83.5t-207 -83.5t-82 -212.5t82 -213t207 -84z" />
    <glyph glyph-name="h" unicode="h" horiz-adv-x="1273" 
d="M397 1468v-581q45 76 131.5 119t204.5 43q187 0 295.5 -118.5t108.5 -316.5v-548q0 -66 -66 -66h-127q-65 0 -65 66v507q0 118 -59 185t-167 67q-119 0 -181 -68.5t-62 -183.5v-507q0 -66 -66 -66h-127q-65 0 -65 66v1345q0 31 12 47t41 23l127 37q8 2 20 2q45 0 45 -52z
" />
    <glyph glyph-name="i" unicode="i" horiz-adv-x="565" 
d="M219 1024h127q66 0 66 -66v-892q0 -66 -66 -66h-127q-65 0 -65 66v892q0 66 65 66zM283 1532q63 0 110 -47.5t47 -110.5t-47 -110t-110 -47t-110.5 47t-47.5 110t47.5 110.5t110.5 47.5z" />
    <glyph glyph-name="j" unicode="j" horiz-adv-x="577" 
d="M295 1532q63 0 110.5 -47.5t47.5 -110.5t-47.5 -110t-110.5 -47q-64 0 -111 47t-47 110t47 110.5t111 47.5zM424 958v-911q0 -181 -66 -291q-72 -125 -249 -172q-18 -6 -35 -6q-40 0 -51 49l-25 78q-4 16 -4 25q0 37 39 51q56 21 90 80q43 72 43 186v911q0 66 63 66h131
q64 0 64 -66z" />
    <glyph glyph-name="k" unicode="k" horiz-adv-x="1155" 
d="M410 301v-235q0 -66 -66 -66h-127q-65 0 -65 66v1343q0 31 12 47t41 25l127 37q8 2 20 2q45 0 45 -52v-921l394 430q28 30 47.5 38.5t58.5 8.5h150q16 0 25 -8t9 -19t-10 -24l-348 -402l383 -516q10 -13 10 -26q0 -12 -10.5 -20.5t-28.5 -8.5h-176q-35 0 -53.5 9.5
t-38.5 37.5l-270 389z" />
    <glyph glyph-name="l" unicode="l" horiz-adv-x="561" 
d="M410 1468v-1402q0 -66 -66 -66h-127q-65 0 -65 66v1347q0 31 12 47t43 23l137 37q6 2 21 2q21 0 33 -14.5t12 -39.5z" />
    <glyph glyph-name="m" unicode="m" horiz-adv-x="1935" 
d="M379 958v-96q46 89 133.5 137t208.5 48q133 0 221 -60q73 -51 121 -145q44 93 137 150t215 57q177 0 280 -118.5t103 -316.5v-548q0 -66 -65 -66h-127q-66 0 -66 66v507q0 119 -53 185.5t-156 66.5q-113 0 -169 -67t-56 -185v-507q0 -66 -66 -66h-127q-65 0 -65 66v507
q0 120 -53 186t-158 66q-113 0 -170 -69.5t-57 -182.5v-507q0 -66 -66 -66h-127q-65 0 -65 66v892q0 66 65 66h96q66 0 66 -66z" />
    <glyph glyph-name="n" unicode="n" horiz-adv-x="1273" 
d="M379 958v-96q48 88 138.5 137.5t215.5 49.5q187 0 295.5 -118.5t108.5 -316.5v-548q0 -66 -66 -66h-127q-65 0 -65 66v507q0 118 -59 185t-167 67q-119 0 -181 -68.5t-62 -183.5v-507q0 -66 -66 -66h-127q-65 0 -65 66v892q0 66 65 66h96q66 0 66 -66z" />
    <glyph glyph-name="o" unicode="o" horiz-adv-x="1273" 
d="M637 1049q245 0 405 -151.5t160 -385.5t-160 -385.5t-405 -151.5t-405 151.5t-160 385.5t160 385.5t405 151.5zM637 193q135 0 223 90.5t88 228.5t-88 228.5t-223 90.5t-223 -90.5t-88 -228.5t88 -228.5t223 -90.5z" />
    <glyph glyph-name="p" unicode="p" horiz-adv-x="1310" 
d="M397 133v-477q0 -66 -65 -66h-115q-65 0 -65 66v1302q0 66 65 66h84q66 0 66 -61v-91q65 86 158.5 131.5t207.5 45.5q228 0 367 -148.5t139 -388.5t-139 -388.5t-367 -148.5q-98 0 -187 42t-149 116zM684 199q130 0 215.5 89t85.5 224t-85.5 224t-215.5 89t-213.5 -88.5
t-83.5 -224.5t83.5 -224.5t213.5 -88.5z" />
    <glyph glyph-name="q" unicode="q" horiz-adv-x="1310" 
d="M944 872v91q0 61 66 61h84q65 0 65 -66v-1302q0 -66 -65 -66h-115q-66 0 -66 66v477q-60 -74 -148.5 -116t-186.5 -42q-228 0 -367 148.5t-139 388.5t139 388.5t367 148.5q114 0 207.5 -45.5t158.5 -131.5zM627 199q130 0 213.5 88.5t83.5 224.5t-83.5 224.5t-213.5 88.5
t-215.5 -89t-85.5 -224t85.5 -224t215.5 -89z" />
    <glyph glyph-name="r" unicode="r" horiz-adv-x="800" 
d="M379 958v-96q44 84 130.5 130t211.5 46q63 0 86 -10q35 -14 35 -47q0 -17 -8 -33l-39 -100q-12 -27 -21 -34t-33 -7q-13 0 -48 4t-50 4q-119 0 -176 -65t-57 -177v-507q0 -66 -66 -66h-127q-65 0 -65 66v892q0 66 65 66h96q66 0 66 -66z" />
    <glyph glyph-name="s" unicode="s" horiz-adv-x="972" 
d="M850 854l-47 -59q-19 -29 -47 -29q-16 0 -33 10q-115 86 -229 86q-68 0 -108 -26.5t-40 -71.5q0 -72 98 -107l209 -73q57 -20 98.5 -43.5t77.5 -58.5t55 -84.5t19 -112.5q0 -158 -109.5 -234t-306.5 -76q-149 3 -256 54q-95 44 -155 106q-19 22 -19 45q0 20 19 45l55 68
q20 26 45 26q19 0 37 -18q129 -122 281 -125q163 0 163 109q0 56 -32.5 82t-114.5 55l-184 63q-101 36 -157 108t-56 171q0 138 103 211.5t271 73.5q208 0 353 -107q28 -22 28 -45q0 -19 -18 -43z" />
    <glyph glyph-name="t" unicode="t" horiz-adv-x="831" 
d="M199 1024v287q0 31 12 46.5t43 24.5l131 35q6 2 21 2q45 0 45 -53v-342h235q66 0 66 -66v-61q0 -66 -66 -66h-235v-409q0 -223 147 -223q57 0 104 20q12 4 19 4q31 0 47 -39l37 -86q8 -16 8 -35q0 -30 -33 -47q-82 -41 -215 -41q-174 0 -273 106.5t-99 293.5v456h-119
q-66 0 -66 66v61q0 66 66 66h125z" />
    <glyph glyph-name="u" unicode="u" horiz-adv-x="1253" 
d="M874 66v96q-47 -89 -134.5 -138t-209.5 -49q-183 0 -288 118.5t-105 316.5v548q0 66 66 66h127q65 0 65 -66v-507q0 -118 56 -185t159 -67q115 0 174.5 68.5t59.5 183.5v507q0 66 65 66h127q66 0 66 -66v-892q0 -66 -66 -66h-96q-66 0 -66 66z" />
    <glyph glyph-name="v" unicode="v" horiz-adv-x="1179" 
d="M590 262l287 711q10 29 26 40t47 11h144q47 0 47 -39q0 -12 -6 -24l-394 -910q-12 -29 -29 -40t-48 -11h-148q-31 0 -47.5 11t-28.5 40l-393 910q-6 15 -6 26q0 37 45 37h143q31 0 48.5 -11t27.5 -40z" />
    <glyph glyph-name="w" unicode="w" horiz-adv-x="1611" 
d="M807 768l-160 -713q-6 -30 -22 -42.5t-47 -12.5h-166q-31 0 -48 12t-26 41l-299 908q-4 16 -4 20q0 43 51 43h147q31 0 48 -12.5t24 -42.5l191 -701l161 701q6 30 22.5 42.5t47.5 12.5h160q31 0 47 -12.5t22 -42.5l160 -701l191 703q9 29 24.5 41t46.5 12h148
q49 0 49 -41q0 -6 -4 -22l-299 -908q-9 -29 -25 -41t-47 -12h-168q-30 0 -46 12.5t-23 42.5z" />
    <glyph glyph-name="x" unicode="x" horiz-adv-x="1103" 
d="M551 694l213 283q22 28 40.5 37.5t53.5 9.5h143q17 0 27 -8.5t10 -20.5q0 -13 -8 -26l-340 -441l365 -473q8 -13 8 -26q0 -12 -10 -20.5t-27 -8.5h-145q-35 0 -54 9.5t-41 37.5l-233 313l-234 -313q-22 -28 -40.5 -37.5t-53.5 -9.5h-147q-17 0 -27 8.5t-10 20.5
q0 16 10 26l363 475l-338 439q-10 10 -10 26q0 12 9.5 20.5t26.5 8.5h138q36 0 55 -9.5t41 -37.5z" />
    <glyph glyph-name="y" unicode="y" horiz-adv-x="1171" 
d="M586 262l282 711q10 29 26.5 40t47.5 11h143q48 0 48 -39q0 -10 -7 -24l-485 -1129q-66 -152 -141 -209t-195 -57q-114 0 -176 41q-27 18 -27 45q0 17 9 35l36 82q18 32 43 32q7 0 19 -4q43 -16 84 -16q48 0 75.5 20t49.5 68l57 131h-18l-410 961q-6 15 -6 26q0 37 45 37
h143q31 0 48.5 -11t27.5 -40z" />
    <glyph glyph-name="z" unicode="z" horiz-adv-x="1075" 
d="M397 193h523q65 0 65 -66v-61q0 -66 -65 -66h-762q-66 0 -66 63v62q0 38 10 61.5t37 53.5l520 591h-471q-65 0 -65 66v61q0 66 65 66h691q65 0 65 -63v-62q0 -39 -9.5 -61.5t-37.5 -55.5z" />
    <glyph glyph-name="braceleft" unicode="{" horiz-adv-x="901" 
d="M780 -82v-49q0 -66 -63 -72q-79 1 -139.5 12.5t-112 37t-84.5 67t-51.5 104t-18.5 146.5v262q0 48 -7 81t-22.5 52t-26 27t-30.5 18q-18 9 -27.5 15.5t-17.5 23t-8 41.5v64q0 37 14 52t51 32q6 3 9 4q12 6 21.5 12.5t16 16t11.5 16t8 19.5t4.5 19t2.5 22.5t1 21v23.5v22
v264q0 251 178 327q31 12 96.5 25.5t112.5 13.5q28 0 43 -6q39 -13 39 -67v-49q0 -73 -61 -76q-106 -4 -133 -66q-17 -46 -17 -157v-228q0 -119 -25 -179.5t-106 -92.5q81 -32 106 -93t25 -180v-227q0 -130 23 -170q9 -15 20.5 -24.5t27 -14t25.5 -6.5t29 -4
q23 -3 33.5 -5.5t25.5 -10t21 -23.5t6 -41z" />
    <glyph glyph-name="bar" unicode="|" horiz-adv-x="1085" 
d="M502 1536h80q57 0 57 -57v-1831q0 -58 -57 -58h-80q-58 0 -58 58v1831q0 57 58 57z" />
    <glyph glyph-name="braceright" unicode="}" horiz-adv-x="901" 
d="M590 426v-262q0 -84 -18.5 -146.5t-51.5 -104t-84.5 -67t-112 -37t-139.5 -12.5q-63 6 -63 72v49q0 25 6 41t21 23.5t25.5 10t33.5 5.5q19 2 29 4t25.5 6.5t27 14t20.5 24.5q23 40 23 170v227q0 119 25 180t106 93q-81 32 -106 92.5t-25 179.5v228q0 111 -17 157
q-27 62 -133 66q-61 3 -61 76v49q0 54 39 67q15 6 43 6q47 0 112.5 -13.5t96.5 -25.5q178 -76 178 -327v-264v-22v-23.5t1 -21t2.5 -22.5t4.5 -19t8 -19.5t11.5 -16t16 -16t21.5 -12.5q48 -23 59 -35q15 -18 15 -53v-64q0 -36 -13 -51.5t-40 -28.5q-20 -10 -30.5 -18
t-26 -27t-22.5 -52t-7 -81z" />
    <glyph glyph-name="asciitilde" unicode="~" 
d="M213 1182l-41 32q-29 23 -29 50q0 10 11 32q118 220 297 220q75 0 182 -48l106 -49q91 -43 142 -43q31 0 57.5 15.5t37 28.5t32.5 42q13 20 20.5 30t19 19t23.5 9q16 0 41 -19l43 -33q29 -25 29 -51q0 -15 -8 -28q-58 -100 -128.5 -156.5t-168.5 -56.5q-83 0 -199 53
l-111 51q-77 35 -125 35q-29 0 -57.5 -19.5t-43 -38t-38.5 -53.5q-27 -39 -55 -39q-17 0 -37 17z" />
    <glyph glyph-name="uni00A0" unicode="&#xa0;" horiz-adv-x="518" 
 />
    <glyph glyph-name="exclamdown" unicode="&#xa1;" horiz-adv-x="749" 
d="M375 725q-66 0 -114 48t-48 114t48 114t114 48t114 -48t48 -114t-48 -114t-114 -48zM231 -336l19 825q3 72 74 72h102q71 0 74 -72l18 -825q3 -74 -72 -74h-143q-75 0 -72 74z" />
    <glyph glyph-name="cent" unicode="&#xa2;" 
d="M451 37l-64 -94q-19 -28 -35.5 -36.5t-48.5 -8.5h-51q-15 0 -25 8t-10 20q0 14 8 25l113 164q-63 60 -98 123q-65 110 -72 274q0 234 157.5 385.5t397.5 151.5q114 0 223 -41l49 73q19 28 35.5 36.5t48.5 8.5h51q15 0 25 -8t10 -20q0 -14 -8 -25l-88 -131q1 -1 11.5 -9
t14 -11t13 -11.5t13.5 -14t9.5 -13t8 -15t2.5 -14.5q0 -25 -25 -47l-74 -70q-21 -18 -41 -18q-23 0 -43 20q-9 9 -18 15l-356 -523q56 -29 139 -32q81 0 151 30q44 20 95 64q15 12 32 12q23 0 41 -18l74 -70q25 -22 25 -45q0 -17 -10.5 -34t-32 -34t-32.5 -25t-34 -22
q-140 -82 -309 -82q-162 7 -272 62zM479 324l334 489q-43 12 -90 12q-130 0 -215.5 -89.5t-85.5 -223.5q3 -109 57 -188z" />
    <glyph glyph-name="sterling" unicode="&#xa3;" 
d="M547 612v-184q0 -154 -78 -197h692q38 0 56 -17.5t18 -55.5v-84q0 -74 -74 -74h-960q-74 0 -74 74v94q0 33 12 51t37 29q61 26 83 81.5t22 147.5v135h-80q-74 0 -74 74v72q0 38 18 55.5t56 17.5h80v213q0 181 132.5 297.5t346.5 116.5q106 0 213 -31t186 -90
q43 -34 43 -65q0 -23 -18 -47l-51 -68q-26 -33 -56 -33q-17 0 -33 13q-122 86 -266 86q-107 0 -169 -54.5t-62 -154.5v-183h274q38 0 56 -17.5t18 -55.5v-72q0 -74 -74 -74h-274z" />
    <glyph glyph-name="currency" unicode="&#xa4;" 
d="M1106 395l174 -168q25 -22 25 -45q0 -20 -23 -43l-39 -39q-25 -22 -47 -22q-23 0 -43 20l-174 166q-139 -108 -315 -108q-182 0 -314 106l-172 -164q-20 -20 -45 -20q-23 0 -43 20l-39 39q-22 22 -22 43q0 23 24 47l170 162q-92 142 -92 297q0 158 90 297l-168 164
q-24 24 -24 47q0 21 22 43l39 39q22 22 43 22q23 0 45 -22l172 -164q135 107 314 107q172 0 313 -105l168 160q22 22 45 22t43 -20l43 -37q22 -22 22 -43q0 -25 -20 -45l-174 -168q92 -142 92 -297q0 -161 -90 -291zM664 1036q-148 0 -247.5 -101.5t-99.5 -248.5
q0 -145 101 -245.5t246 -100.5q143 0 244.5 101t101.5 245q0 148 -98.5 249t-247.5 101z" />
    <glyph glyph-name="yen" unicode="&#xa5;" 
d="M668 737l352 641q17 33 36.5 44.5t55.5 11.5h150q22 0 34.5 -10.5t12.5 -26.5t-9 -31l-464 -805h221q51 0 51 -47v-31q0 -47 -51 -47h-258v-147h258q51 0 51 -47v-31q0 -47 -51 -47h-258v-90q0 -74 -74 -74h-119q-74 0 -74 74v90h-258q-51 0 -51 47v31q0 47 51 47h258
v147h-258q-51 0 -51 47v31q0 47 51 47h222l-465 805q-8 13 -8 29q0 18 13 28.5t36 10.5h147q37 0 56 -11.5t38 -44.5z" />
    <glyph glyph-name="brokenbar" unicode="&#xa6;" horiz-adv-x="1085" 
d="M502 1536h80q57 0 57 -57v-686q0 -58 -57 -58h-80q-58 0 -58 58v686q0 57 58 57zM502 391h80q57 0 57 -57v-686q0 -58 -57 -58h-80q-58 0 -58 58v686q0 57 58 57z" />
    <glyph glyph-name="section" unicode="&#xa7;" 
d="M573 942l234 -90q173 -66 241 -150t68 -219q0 -172 -143 -270q76 -57 109.5 -123.5t33.5 -161.5q0 -172 -139 -267t-361 -93q-217 0 -372 117q-90 68 -107 114q-4 16 -4 23q0 24 23 51l37 43q24 27 47 27q20 0 36 -19q63 -72 151.5 -108.5t188.5 -36.5q111 0 180.5 41
t69.5 119q0 56 -34.5 93.5t-116.5 69.5l-248 97q-153 61 -224 148t-71 206q0 87 43 157t121 113q-164 105 -164 285q0 149 125.5 249.5t327.5 100.5q179 0 327 -74q84 -43 84 -88q0 -21 -20 -47l-41 -49q-22 -31 -51 -31q-18 0 -35 11q-130 73 -264 73q-97 0 -152 -40
t-55 -105q0 -56 37 -95.5t118 -70.5zM571 385l144 -59q77 13 114 58t37 110q0 56 -34 94t-117 71l-144 58q-75 -8 -114 -55t-39 -109q0 -55 36.5 -95.5t116.5 -72.5z" />
    <glyph glyph-name="dieresis" unicode="&#xa8;" horiz-adv-x="1146" 
d="M340 1513q58 0 99.5 -41.5t41.5 -97.5t-41.5 -97.5t-99.5 -41.5q-56 0 -97.5 41.5t-41.5 97.5t41.5 97.5t97.5 41.5zM805 1513q57 0 98 -41.5t41 -97.5t-41 -97.5t-98 -41.5t-98 41.5t-41 97.5t41 97.5t98 41.5z" />
    <glyph glyph-name="copyright" unicode="&#xa9;" horiz-adv-x="1847" 
d="M924 1458q153 0 292.5 -58.5t239.5 -157.5t159.5 -236.5t59.5 -288.5t-59.5 -288.5t-159.5 -237t-239.5 -158t-292.5 -58.5q-205 0 -378 99.5t-273.5 270t-100.5 372.5q0 151 59.5 288.5t160 236.5t240 157.5t292.5 58.5zM924 1325q-165 0 -305.5 -81t-222 -221
t-81.5 -306t81.5 -306t222 -221t305.5 -81t305 81t221.5 221t81.5 306t-81.5 306t-221.5 221t-305 81zM1157 567l39 -30q18 -15 18 -33q0 -17 -14 -31q-105 -102 -266 -102q-162 0 -266.5 97.5t-104.5 248.5t104.5 248.5t266.5 97.5q171 0 270 -107q13 -13 13 -26
q0 -17 -19 -33l-41 -33q-18 -12 -31 -12q-14 0 -32 14q-69 66 -160 66q-96 0 -157.5 -61t-61.5 -154t61.5 -154t157.5 -61q93 0 164 65q16 13 28 13q15 0 31 -13z" />
    <glyph glyph-name="ordfeminine" unicode="&#xaa;" horiz-adv-x="946" 
d="M598 1180v14q0 63 -40.5 97t-117.5 36q-106 0 -196 -43q-12 -4 -17 -4q-21 0 -32 25l-17 34q-6 12 -6 25q0 20 25 33q105 51 243 51q154 0 244 -72t90 -196v-361q0 -45 -45 -45h-63q-45 0 -45 43v35q-74 -96 -228 -96q-126 0 -204 63.5t-78 165.5q2 102 79.5 163.5
t206.5 61.5q105 0 201 -30zM598 1004v69q-74 27 -154 27q-70 0 -113.5 -32t-43.5 -83q0 -52 41 -84.5t106 -32.5q72 0 118 38t46 98z" />
    <glyph glyph-name="guillemotleft" unicode="&#xab;" horiz-adv-x="1292" 
d="M395 512l230 -319q16 -22 16 -41q0 -27 -29 -50l-61 -47q-22 -16 -43 -16q-25 0 -47 31l-287 397q-18 24 -18 45t18 45l287 397q22 31 47 31q19 0 41 -16l63 -49q29 -23 29 -50q0 -19 -16 -41zM864 512l230 -319q16 -22 16 -41q0 -27 -29 -50l-61 -47q-22 -16 -43 -16
q-25 0 -47 31l-287 397q-18 24 -18 45t18 45l287 397q22 31 47 31q19 0 41 -16l63 -49q29 -23 29 -50q0 -19 -16 -41z" />
    <glyph glyph-name="logicalnot" unicode="&#xac;" 
d="M918 362h-656q-65 0 -65 66v61q0 66 65 66h805q66 0 66 -66v-423q0 -66 -66 -66h-84q-65 0 -65 66v296z" />
    <glyph glyph-name="uni00AD" unicode="&#xad;" horiz-adv-x="708" 
d="M176 608h356q66 0 66 -65v-62q0 -65 -66 -65h-356q-65 0 -65 65v62q0 65 65 65z" />
    <glyph glyph-name="registered" unicode="&#xae;" horiz-adv-x="1067" 
d="M535 1448q156 0 258 -99t102 -247t-102 -247t-258 -99t-259.5 99t-103.5 247t103.5 247t259.5 99zM535 813q133 0 217 83t84 206q0 125 -84 207t-217 82q-134 0 -219 -82.5t-85 -206.5q0 -123 85.5 -206t218.5 -83zM678 907h-14q-25 0 -43 27l-72 123h-33h-55v-115
q0 -35 -29 -35h-4q-31 0 -31 35v326q0 35 35 35h103q74 0 114.5 -32.5t40.5 -90.5q0 -75 -82 -111l84 -131q4 -8 4 -12q0 -19 -18 -19zM461 1112h80q41 3 60.5 19t19.5 49t-19.5 48.5t-60.5 18.5h-80v-135z" />
    <glyph glyph-name="macron" unicode="&#xaf;" horiz-adv-x="1146" 
d="M289 1434h567q53 0 53 -54v-77q0 -54 -53 -54h-567q-53 0 -53 54v77q0 54 53 54z" />
    <glyph glyph-name="degree" unicode="&#xb0;" horiz-adv-x="882" 
d="M772 1143q0 -135 -93.5 -221t-238.5 -86q-143 0 -236 86t-93 221q0 132 93.5 218.5t235.5 86.5q145 0 238.5 -86.5t93.5 -218.5zM440 987q68 0 111 44t43 112q0 65 -43 109t-111 44q-65 0 -108 -44t-43 -109q0 -68 42.5 -112t108.5 -44z" />
    <glyph glyph-name="plusminus" unicode="&#xb1;" 
d="M223 193h885q66 0 66 -66v-61q0 -66 -66 -66h-885q-65 0 -65 66v61q0 66 65 66zM567 745h-344q-65 0 -65 66v63q0 64 65 64h344v319q0 64 66 64h65q66 0 66 -64v-319h344q66 0 66 -64v-63q0 -66 -66 -66h-344v-317q0 -66 -66 -66h-65q-66 0 -66 66v317z" />
    <glyph glyph-name="twosuperior" unicode="&#xb2;" horiz-adv-x="649" 
d="M285 1096h241q45 0 45 -45v-31q0 -45 -45 -45h-407q-45 0 -45 43v24q0 23 7.5 37.5t27.5 34.5l210 203q60 57 74.5 77.5t14.5 51.5q0 40 -29 63t-78 23q-59 0 -131 -39q-20 -10 -33 -10q-19 0 -33 20l-16 25q-10 17 -10 28q0 20 16 31q80 66 207 66q111 0 178.5 -56.5
t67.5 -150.5q0 -50 -21 -90.5t-73 -91.5z" />
    <glyph glyph-name="threesuperior" unicode="&#xb3;" horiz-adv-x="671" 
d="M244 1321v20q0 45 49 45h26q44 0 72.5 19.5t30.5 50.5q0 34 -28 54t-75 20q-70 0 -135 -41q-9 -6 -20 -6q-21 0 -37 22l-14 21q-9 15 -9 28q0 18 21 39q71 58 194 58q101 -2 166 -51t66 -127q3 -92 -80 -140q54 -25 83 -69t28 -101q-1 -89 -74 -144.5t-189 -55.5
q-148 0 -223 75q-18 18 -18 41q0 12 10 29l16 22q13 19 33 19q12 0 25 -10q63 -54 157 -54q57 0 89 26.5t30 70.5q0 43 -32.5 68.5t-86.5 25.5h-26q-49 0 -49 45z" />
    <glyph glyph-name="acute" unicode="&#xb4;" horiz-adv-x="1146" 
d="M483 1192l-32 39q-17 20 -17 35q0 19 23 39l237 211q19 16 37 16q19 0 37 -21l63 -71q15 -18 15 -35t-23 -37l-266 -186q-20 -13 -35 -13q-19 0 -39 23z" />
    <glyph glyph-name="mu" unicode="&#xb5;" 
d="M414 139v-483q0 -66 -66 -66h-98q-66 0 -66 66v1302q0 66 66 66h129q65 0 65 -66v-507q2 -119 56 -185.5t157 -66.5q115 0 174.5 68.5t59.5 183.5v507q0 66 65 66h127q66 0 66 -66v-892q0 -66 -66 -66h-96q-65 0 -65 66v112q-51 -104 -113.5 -153.5t-151.5 -49.5
q-75 0 -140 41.5t-103 122.5z" />
    <glyph glyph-name="paragraph" unicode="&#xb6;" horiz-adv-x="1581" 
d="M715 432h-103q-95 0 -184 38.5t-155.5 104.5t-107 160t-40.5 199q0 217 138 358.5t349 141.5h283q74 0 74 -74v-1696q0 -74 -74 -74h-107q-38 0 -55.5 18t-17.5 56v768zM1137 -336v1696q0 38 17.5 56t55.5 18h107q74 0 74 -74v-1696q0 -74 -74 -74h-107q-38 0 -55.5 18
t-17.5 56z" />
    <glyph glyph-name="periodcentered" unicode="&#xb7;" horiz-adv-x="483" 
d="M242 807q66 0 113.5 -48t47.5 -114t-47.5 -114t-113.5 -48t-114 48t-48 114t48 114t114 48z" />
    <glyph glyph-name="cedilla" unicode="&#xb8;" horiz-adv-x="1146" 
d="M502 0h172l-21 -88q97 -12 149 -60t52 -131q0 -95 -76.5 -148.5t-204.5 -53.5q-97 0 -190 41q-33 13 -33 41q0 14 6 26l13 31q17 33 45 33q10 0 16 -2q82 -29 143 -29q107 0 107 61q0 60 -111 60h-69q-43 0 -43 37q0 12 2 18z" />
    <glyph glyph-name="onesuperior" unicode="&#xb9;" horiz-adv-x="481" 
d="M195 1489l-68 -35q-15 -6 -25 -6q-20 0 -32 18l-25 37q-8 13 -8 25q0 18 22 31l107 55q47 24 90 24h31q43 0 43 -41v-581q0 -41 -43 -41h-51q-22 0 -31.5 9.5t-9.5 31.5v473z" />
    <glyph glyph-name="ordmasculine" unicode="&#xba;" horiz-adv-x="1001" 
d="M502 1448q170 0 279.5 -97t109.5 -249t-109.5 -249t-279.5 -97q-171 0 -281 97t-110 249t110 249t281 97zM502 909q88 0 145.5 54.5t57.5 138.5t-57.5 138t-145.5 54q-90 0 -148.5 -54t-58.5 -138t58.5 -138.5t148.5 -54.5z" />
    <glyph glyph-name="guillemotright" unicode="&#xbb;" horiz-adv-x="1292" 
d="M897 512l-229 317q-17 24 -17 41q0 25 31 50l61 49q22 16 41 16q25 0 47 -31l287 -397q19 -25 19 -45t-19 -45l-287 -397q-22 -31 -47 -31q-19 0 -41 16l-61 47q-31 25 -31 50q0 17 17 41zM428 512l-229 317q-17 24 -17 41q0 25 31 50l61 49q22 16 41 16q25 0 47 -31
l287 -397q19 -25 19 -45t-19 -45l-287 -397q-22 -31 -47 -31q-19 0 -41 16l-61 47q-31 25 -31 50q0 17 17 41z" />
    <glyph glyph-name="onequarter" unicode="&#xbc;" horiz-adv-x="1689" 
d="M344 1284l-68 -35q-15 -6 -24 -6q-20 0 -33 19l-24 36q-9 15 -9 25q0 18 23 31l106 55q48 25 91 25h30q43 0 43 -41v-582q0 -41 -43 -41h-51q-22 0 -31.5 9.5t-9.5 31.5v473zM401 0h-49q-17 0 -27 8.5t-10 22.5q0 8 7 22l765 1338q14 25 29.5 34t46.5 9h47
q18 0 28.5 -8.5t10.5 -22.5q0 -11 -6 -23l-768 -1337q-13 -24 -29.5 -33.5t-44.5 -9.5zM1423 111v-66q0 -45 -47 -45h-47q-47 0 -47 45v66h-264q-45 0 -45 45v26q0 44 37 97l252 374q16 23 34 23q14 0 27 -8l43 -25q25 -16 25 -35q0 -8 -11 -26l-239 -353h141v72q0 43 47 43
h47q47 0 47 -43v-72h43q43 0 43 -43v-28q0 -47 -43 -47h-43z" />
    <glyph glyph-name="onehalf" unicode="&#xbd;" horiz-adv-x="1689" 
d="M348 1284l-67 -35q-15 -6 -25 -6q-20 0 -33 19l-24 36q-9 15 -9 25q0 18 23 31l106 55q48 25 91 25h30q43 0 43 -41v-582q0 -41 -43 -41h-51q-22 0 -31.5 9.5t-9.5 31.5v473zM406 0h-50q-17 0 -27 8.5t-10 22.5q0 8 7 22l766 1338q14 25 29.5 34t45.5 9h47
q18 0 28.5 -8.5t10.5 -22.5q0 -11 -6 -23l-768 -1337q-13 -25 -29 -34t-44 -9zM1221 121h241q45 0 45 -45v-31q0 -45 -45 -45h-407q-45 0 -45 43v25q0 24 7 37.5t27 33.5l211 203q60 57 74 77.5t14 51.5q0 40 -28.5 63t-77.5 23q-59 0 -131 -39q-20 -10 -33 -10
q-19 0 -33 20l-16 25q-10 17 -10 29q0 19 16 30q80 66 207 66q111 0 178.5 -56.5t67.5 -150.5q0 -50 -21 -90.5t-73 -91.5z" />
    <glyph glyph-name="threequarters" unicode="&#xbe;" horiz-adv-x="1689" 
d="M279 1116v21q0 45 49 45h26q44 0 73 19t30 50q0 34 -28 54t-75 20q-70 0 -135 -41q-9 -6 -20 -6q-21 0 -37 22l-15 21q-8 13 -8 29q0 18 21 39q70 57 194 57q101 -2 166 -51t66 -127q3 -92 -80 -140q54 -25 82.5 -69t27.5 -101q-2 -89 -74.5 -144.5t-187.5 -55.5
q-147 0 -223 76q-18 18 -18 40q0 12 10 29l16 23q12 18 33 18q12 0 25 -10q62 -53 157 -53q57 0 89 26t30 70q0 43 -32.5 68.5t-86.5 25.5h-26q-49 0 -49 45zM477 0h-49q-17 0 -27 8.5t-10 22.5q0 10 6 22l766 1338q14 25 29.5 34t46.5 9h47q19 0 30 -8.5t11 -22.5
q0 -12 -8 -23l-768 -1337q-13 -24 -29.5 -33.5t-44.5 -9.5zM1499 111v-66q0 -45 -47 -45h-47q-47 0 -47 45v66h-264q-45 0 -45 45v26q0 45 36 97l252 374q16 23 35 23q14 0 27 -8l43 -25q24 -15 24 -35q0 -9 -10 -26l-239 -353h141v72q0 43 47 43h47q47 0 47 -43v-72h43
q43 0 43 -43v-28q0 -47 -43 -47h-43z" />
    <glyph glyph-name="questiondown" unicode="&#xbf;" horiz-adv-x="1118" 
d="M666 725q-67 0 -114.5 48t-47.5 114t47.5 114t114.5 48q66 0 113.5 -48t47.5 -114t-47.5 -114t-113.5 -48zM643 233l-164 -102q-60 -36 -86 -73.5t-26 -94.5q0 -79 58 -127.5t163 -48.5q145 0 286 90q17 10 33 10q29 0 56 -30l49 -62q22 -29 22 -51q0 -8 -2 -12
q-14 -42 -92 -82q-161 -84 -350 -84q-226 0 -358 104t-132 293q0 111 46.5 181.5t134.5 125.5l127 76q28 17 43 27t33.5 26.5t29 36.5t14.5 45q7 41 21.5 60.5t52.5 19.5h121q48 0 60 -15t12 -63q0 -158 -152 -250z" />
    <glyph glyph-name="Agrave" unicode="&#xc0;" horiz-adv-x="1492" 
d="M410 272l-86 -215q-13 -34 -31 -45.5t-55 -11.5h-142q-25 0 -39 11.5t-14 31.5q0 14 6 29l539 1304q13 33 31.5 45.5t54.5 12.5h147q36 0 54.5 -12.5t31.5 -45.5l539 -1304q6 -15 6 -27q0 -21 -14.5 -33t-40.5 -12h-142q-36 0 -54.5 12t-31.5 45l-82 215h-677zM999 504
l-251 637l-254 -637h505zM866 1612l-35 -43q-18 -21 -36 -21q-12 0 -35 13l-260 186q-25 19 -25 37t14 35l60 69q18 21 39 21q15 0 35 -17l237 -209q21 -18 21 -36q0 -17 -15 -35z" />
    <glyph glyph-name="Aacute" unicode="&#xc1;" horiz-adv-x="1492" 
d="M410 272l-86 -215q-13 -34 -31 -45.5t-55 -11.5h-142q-25 0 -39 11.5t-14 31.5q0 14 6 29l539 1304q13 33 31.5 45.5t54.5 12.5h147q36 0 54.5 -12.5t31.5 -45.5l539 -1304q6 -15 6 -27q0 -21 -14.5 -33t-40.5 -12h-142q-36 0 -54.5 12t-31.5 45l-82 215h-677zM999 504
l-251 637l-254 -637h505zM662 1571l-35 39q-15 18 -15 35q0 20 21 38l237 211q24 17 37 17q22 0 37 -21l66 -71q16 -19 16 -35q0 -19 -27 -37l-266 -186q-16 -13 -33 -13q-18 0 -38 23z" />
    <glyph glyph-name="Acircumflex" unicode="&#xc2;" horiz-adv-x="1492" 
d="M410 272l-86 -215q-13 -34 -31 -45.5t-55 -11.5h-142q-25 0 -39 11.5t-14 31.5q0 14 6 29l539 1304q13 33 31.5 45.5t54.5 12.5h147q36 0 54.5 -12.5t31.5 -45.5l539 -1304q6 -15 6 -27q0 -21 -14.5 -33t-40.5 -12h-142q-36 0 -54.5 12t-31.5 45l-82 215h-677zM999 504
l-251 637l-254 -637h505zM748 1761l-222 -188q-20 -17 -34 -17q-21 0 -39 21l-43 45q-17 20 -17 37q0 21 21 39l211 192q24 22 43.5 30.5t50.5 8.5h57q31 0 49.5 -8t42.5 -31l213 -192q21 -18 21 -39q0 -18 -19 -37l-41 -45q-18 -21 -36 -21q-15 0 -39 17z" />
    <glyph glyph-name="Atilde" unicode="&#xc3;" horiz-adv-x="1492" 
d="M410 272l-86 -215q-13 -34 -31 -45.5t-55 -11.5h-142q-25 0 -39 11.5t-14 31.5q0 14 6 29l539 1304q13 33 31.5 45.5t54.5 12.5h147q36 0 54.5 -12.5t31.5 -45.5l539 -1304q6 -15 6 -27q0 -21 -14.5 -33t-40.5 -12h-142q-36 0 -54.5 12t-31.5 45l-82 215h-677zM999 504
l-251 637l-254 -637h505zM516 1587h-72q-31 0 -42 16.5t-9 49.5q7 107 66 166q56 53 143 53q30 -1 62.5 -13t50 -22.5t50.5 -32.5l9 -6q64 -49 100 -49q14 0 23.5 6t15 19.5t8 21.5t5.5 25q10 43 55 43h74q51 0 51 -45q0 -106 -57 -172q-54 -66 -154 -66q-33 0 -66.5 12.5
t-54.5 25.5t-51 36q-59 40 -82 45q-8 2 -16 2q-45 0 -54 -72q-10 -43 -55 -43z" />
    <glyph glyph-name="Adieresis" unicode="&#xc4;" horiz-adv-x="1492" 
d="M410 272l-86 -215q-13 -34 -31 -45.5t-55 -11.5h-142q-25 0 -39 11.5t-14 31.5q0 14 6 29l539 1304q13 33 31.5 45.5t54.5 12.5h147q36 0 54.5 -12.5t31.5 -45.5l539 -1304q6 -15 6 -27q0 -21 -14.5 -33t-40.5 -12h-142q-36 0 -54.5 12t-31.5 45l-82 215h-677zM999 504
l-251 637l-254 -637h505zM514 1892q58 0 99.5 -41.5t41.5 -97.5t-41.5 -97.5t-99.5 -41.5q-56 0 -97.5 42t-41.5 97t41.5 97t97.5 42zM979 1892q57 0 98 -41.5t41 -97.5t-41 -97.5t-98 -41.5t-98 41.5t-41 97.5t41 97.5t98 41.5z" />
    <glyph glyph-name="Aring" unicode="&#xc5;" horiz-adv-x="1492" 
d="M410 272l-86 -215q-13 -34 -31 -45.5t-55 -11.5h-142q-25 0 -39 11.5t-14 31.5q0 14 6 29l539 1304q13 33 31.5 45.5t54.5 12.5h147q36 0 54.5 -12.5t31.5 -45.5l539 -1304q6 -15 6 -27q0 -21 -14.5 -33t-40.5 -12h-142q-36 0 -54.5 12t-31.5 45l-82 215h-677zM999 504
l-251 637l-254 -637h505zM748 1894q89 0 144.5 -53.5t55.5 -134.5q0 -80 -58 -136.5t-142 -56.5q-83 0 -142 56.5t-59 136.5q0 81 55 134.5t146 53.5zM637 1706q0 -46 32.5 -78.5t78.5 -32.5q44 0 77 32.5t33 78.5q0 45 -30.5 75.5t-79.5 30.5t-80 -30.5t-31 -75.5z" />
    <glyph glyph-name="AE" unicode="&#xc6;" horiz-adv-x="2154" 
d="M1090 250h-617l-125 -195q-22 -34 -42 -44.5t-60 -10.5h-148q-21 0 -33 10.5t-12 26.5q0 12 10 29l869 1312q24 34 43.5 45t58.5 11h957q71 0 71 -74v-78q0 -74 -71 -74h-641v-387h487q72 0 72 -73v-72q0 -74 -72 -74h-487v-377h661q72 0 72 -73v-78q0 -74 -72 -74h-848
q-38 0 -55.5 18t-17.5 56v176zM1090 481v721l-467 -721h467z" />
    <glyph glyph-name="Ccedilla" unicode="&#xc7;" horiz-adv-x="1492" 
d="M678 -164l39 146q-200 24 -358 138t-232 296q-50 123 -57 301q0 211 94.5 380t267 265t393.5 96q207 0 383 -92q124 -71 174 -143q15 -18 15 -37q0 -25 -29 -51l-88 -72q-26 -23 -51 -23q-19 0 -41 19q-75 71 -169 111t-194 40q-211 0 -346 -139t-135 -354t135 -354.5
t346 -139.5q101 0 194.5 40t168.5 112q21 18 41 18q26 0 51 -22l88 -72q31 -27 31 -53q0 -9 -2 -15q-3 -12 -11.5 -24.5t-23.5 -26.5t-25 -22.5t-28.5 -23t-20.5 -15.5q-175 -123 -401 -142l-15 -65q97 -12 149 -60t52 -131q0 -95 -76 -148.5t-204 -53.5q-98 0 -191 41
q-33 13 -33 41q0 14 6 26l13 31q16 33 45 33q10 0 16 -2q82 -29 144 -29q106 0 106 61q0 60 -111 60h-69q-43 0 -43 37q0 12 2 18z" />
    <glyph glyph-name="Egrave" unicode="&#xc8;" horiz-adv-x="1236" 
d="M434 1208v-387h484q38 0 55.5 -17.5t17.5 -55.5v-72q0 -38 -17.5 -56t-55.5 -18h-484v-377h658q38 0 55.5 -17.5t17.5 -55.5v-78q0 -38 -17.5 -56t-55.5 -18h-846q-74 0 -74 74v1286q0 74 74 74h825q74 0 74 -74v-78q0 -74 -74 -74h-637zM788 1612l-34 -43
q-18 -21 -37 -21q-15 0 -35 13l-260 186q-25 19 -25 37q0 17 15 35l59 69q18 21 37 21q17 0 37 -17l237 -209q21 -18 21 -36q0 -17 -15 -35z" />
    <glyph glyph-name="Eacute" unicode="&#xc9;" horiz-adv-x="1236" 
d="M434 1208v-387h484q38 0 55.5 -17.5t17.5 -55.5v-72q0 -38 -17.5 -56t-55.5 -18h-484v-377h658q38 0 55.5 -17.5t17.5 -55.5v-78q0 -38 -17.5 -56t-55.5 -18h-846q-74 0 -74 74v1286q0 74 74 74h825q74 0 74 -74v-78q0 -74 -74 -74h-637zM584 1571l-35 39q-17 20 -17 35
q0 18 23 38l238 211q20 17 36 17q19 0 37 -21l66 -71q14 -17 14 -35q0 -19 -24 -37l-267 -186q-20 -13 -32 -13q-19 0 -39 23z" />
    <glyph glyph-name="Ecircumflex" unicode="&#xca;" horiz-adv-x="1236" 
d="M434 1208v-387h484q38 0 55.5 -17.5t17.5 -55.5v-72q0 -38 -17.5 -56t-55.5 -18h-484v-377h658q38 0 55.5 -17.5t17.5 -55.5v-78q0 -38 -17.5 -56t-55.5 -18h-846q-74 0 -74 74v1286q0 74 74 74h825q74 0 74 -74v-78q0 -74 -74 -74h-637zM670 1761l-221 -188
q-20 -17 -37 -17q-19 0 -37 21l-43 45q-17 20 -17 37q0 21 21 39l211 192q24 22 43.5 30.5t50.5 8.5h57q31 0 50 -8t43 -31l213 -192q20 -17 20 -39q0 -19 -18 -37l-41 -45q-18 -21 -37 -21q-15 0 -39 17z" />
    <glyph glyph-name="Edieresis" unicode="&#xcb;" horiz-adv-x="1236" 
d="M434 1208v-387h484q38 0 55.5 -17.5t17.5 -55.5v-72q0 -38 -17.5 -56t-55.5 -18h-484v-377h658q38 0 55.5 -17.5t17.5 -55.5v-78q0 -38 -17.5 -56t-55.5 -18h-846q-74 0 -74 74v1286q0 74 74 74h825q74 0 74 -74v-78q0 -74 -74 -74h-637zM436 1892q58 0 100 -41.5
t42 -97.5t-42 -97.5t-100 -41.5q-56 0 -97.5 42t-41.5 97t41.5 97t97.5 42zM901 1892q57 0 98 -41.5t41 -97.5t-41 -97.5t-98 -41.5t-98 41.5t-41 97.5t41 97.5t98 41.5z" />
    <glyph glyph-name="Igrave" unicode="&#xcc;" horiz-adv-x="610" 
d="M438 1360v-1286q0 -38 -17.5 -56t-55.5 -18h-119q-74 0 -74 74v1286q0 74 74 74h119q38 0 55.5 -18t17.5 -56zM424 1612l-35 -43q-18 -21 -37 -21q-12 0 -35 13l-260 186q-24 18 -24 37q0 14 14 35l59 69q18 21 39 21q15 0 35 -17l238 -209q20 -17 20 -36q0 -18 -14 -35z
" />
    <glyph glyph-name="Iacute" unicode="&#xcd;" horiz-adv-x="610" 
d="M438 1360v-1286q0 -38 -17.5 -56t-55.5 -18h-121q-72 0 -72 74v1286q0 74 72 74h121q38 0 55.5 -18t17.5 -56zM217 1571l-33 39q-16 19 -16 35q0 19 22 38l238 211q20 17 37 17q19 0 37 -21l63 -71q15 -18 15 -35t-23 -37l-266 -186q-19 -13 -35 -13q-19 0 -39 23z" />
    <glyph glyph-name="Icircumflex" unicode="&#xce;" horiz-adv-x="610" 
d="M438 1360v-1286q0 -74 -71 -74h-121q-74 0 -74 74v1286q0 74 74 74h121q71 0 71 -74zM307 1761l-221 -188q-24 -17 -37 -17q-21 0 -39 21l-41 45q-18 18 -18 39q0 20 20 37l211 192q26 23 44.5 31t49.5 8h58q32 0 50 -8t44 -31l211 -192q20 -17 20 -39q0 -18 -16 -37
l-41 -45q-18 -21 -39 -21q-17 0 -37 17z" />
    <glyph glyph-name="Idieresis" unicode="&#xcf;" horiz-adv-x="610" 
d="M438 1360v-1286q0 -38 -17.5 -56t-55.5 -18h-119q-74 0 -74 74v1286q0 74 74 74h119q38 0 55.5 -18t17.5 -56zM72 1892q58 0 99.5 -41.5t41.5 -97.5t-41.5 -97.5t-99.5 -41.5q-56 0 -98 42t-42 97t42 97t98 42zM537 1892q57 0 98 -41.5t41 -97.5t-41 -97.5t-98 -41.5
t-98.5 41.5t-41.5 97.5t41.5 97.5t98.5 41.5z" />
    <glyph glyph-name="Eth" unicode="&#xd0;" horiz-adv-x="1671" 
d="M254 625h-84q-70 0 -70 69v56q0 69 70 69h84v541q0 74 74 74h483q355 0 562.5 -194.5t207.5 -522.5t-207.5 -522.5t-562.5 -194.5h-483q-74 0 -74 74v551zM520 1202v-383h273q69 0 69 -69v-56q0 -69 -69 -69h-273v-394h301q224 0 355 133.5t131 352.5t-131 352t-355 133
h-301z" />
    <glyph glyph-name="Ntilde" unicode="&#xd1;" horiz-adv-x="1572" 
d="M1135 416v944q0 38 17.5 56t55.5 18h119q74 0 74 -74v-1286q0 -74 -74 -74h-141q-40 0 -60.5 11t-42.5 44l-645 963v-944q0 -38 -17.5 -56t-55.5 -18h-119q-74 0 -74 74v1286q0 74 74 74h141q40 0 60 -11t42 -45zM555 1587h-72q-31 0 -42 16.5t-9 49.5q7 107 66 166
q56 53 143 53q30 -1 62.5 -13t50 -22.5t50.5 -32.5l9 -6q64 -49 100 -49q14 0 23.5 6t15 19.5t8 21.5t5.5 25q10 43 55 43h74q51 0 51 -45q0 -105 -58 -172q-54 -66 -153 -66q-33 0 -66.5 12.5t-54.5 25.5t-51 36q-59 40 -82 45q-8 2 -16 2q-45 0 -54 -72q-10 -43 -55 -43z
" />
    <glyph glyph-name="Ograve" unicode="&#xd2;" horiz-adv-x="1683" 
d="M842 1458q166 0 310 -56t245.5 -154t159 -235.5t57.5 -295.5t-57.5 -295.5t-159 -235.5t-245.5 -154.5t-310 -56.5t-309.5 56.5t-245 154.5t-159.5 235.5t-58 295.5t58 295.5t159.5 235.5t245 154t309.5 56zM842 223q213 0 355 140.5t142 353.5t-142 353t-355 140
t-355.5 -140t-142.5 -353t142.5 -353.5t355.5 -140.5zM961 1612l-35 -43q-18 -21 -37 -21q-16 0 -35 13l-260 186q-25 19 -25 37q0 15 17 35l57 69q18 21 37 21q17 0 37 -17l237 -209q23 -20 23 -36t-16 -35z" />
    <glyph glyph-name="Oacute" unicode="&#xd3;" horiz-adv-x="1683" 
d="M842 1458q166 0 310 -56t245.5 -154t159 -235.5t57.5 -295.5t-57.5 -295.5t-159 -235.5t-245.5 -154.5t-310 -56.5t-309.5 56.5t-245 154.5t-159.5 235.5t-58 295.5t58 295.5t159.5 235.5t245 154t309.5 56zM842 223q213 0 355 140.5t142 353.5t-142 353t-355 140
t-355.5 -140t-142.5 -353t142.5 -353.5t355.5 -140.5zM756 1571l-33 39q-16 19 -16 35q0 19 22 38l236 211q20 17 36 17q21 0 39 -21l64 -71q14 -17 14 -35t-22 -37l-269 -186q-20 -13 -32 -13q-19 0 -39 23z" />
    <glyph glyph-name="Ocircumflex" unicode="&#xd4;" horiz-adv-x="1683" 
d="M842 1458q166 0 310 -56t245.5 -154t159 -235.5t57.5 -295.5t-57.5 -295.5t-159 -235.5t-245.5 -154.5t-310 -56.5t-309.5 56.5t-245 154.5t-159.5 235.5t-58 295.5t58 295.5t159.5 235.5t245 154t309.5 56zM842 223q213 0 355 140.5t142 353.5t-142 353t-355 140
t-355.5 -140t-142.5 -353t142.5 -353.5t355.5 -140.5zM844 1761l-221 -188q-24 -17 -37 -17q-21 0 -39 21l-41 45q-19 19 -19 39q0 19 21 37l211 192q26 23 44.5 31t49.5 8h57q32 0 50.5 -8t44.5 -31l211 -192q20 -17 20 -39q0 -18 -16 -37l-41 -45q-18 -21 -39 -21
q-17 0 -37 17z" />
    <glyph glyph-name="Otilde" unicode="&#xd5;" horiz-adv-x="1683" 
d="M842 1458q166 0 310 -56t245.5 -154t159 -235.5t57.5 -295.5t-57.5 -295.5t-159 -235.5t-245.5 -154.5t-310 -56.5t-309.5 56.5t-245 154.5t-159.5 235.5t-58 295.5t58 295.5t159.5 235.5t245 154t309.5 56zM842 223q213 0 355 140.5t142 353.5t-142 353t-355 140
t-355.5 -140t-142.5 -353t142.5 -353.5t355.5 -140.5zM612 1587h-73q-31 0 -40.5 10.5t-9.5 40.5q0 50 17.5 101t48.5 80q53 53 141 53q32 -1 66.5 -14t53.5 -25t52 -35q67 -49 101 -49q26 0 36.5 19.5t16.5 52.5q7 43 53 43h74q51 0 51 -45q0 -106 -57 -172
q-51 -66 -152 -66q-33 0 -68 13t-53.5 24.5t-52.5 36.5q-66 47 -98 47q-26 0 -36.5 -19t-16.5 -53q-7 -43 -54 -43z" />
    <glyph glyph-name="Odieresis" unicode="&#xd6;" horiz-adv-x="1683" 
d="M842 1458q166 0 310 -56t245.5 -154t159 -235.5t57.5 -295.5t-57.5 -295.5t-159 -235.5t-245.5 -154.5t-310 -56.5t-309.5 56.5t-245 154.5t-159.5 235.5t-58 295.5t58 295.5t159.5 235.5t245 154t309.5 56zM842 223q213 0 355 140.5t142 353.5t-142 353t-355 140
t-355.5 -140t-142.5 -353t142.5 -353.5t355.5 -140.5zM610 1892q57 0 99.5 -41.5t42.5 -97.5t-42.5 -97.5t-99.5 -41.5t-99 41.5t-42 97.5t42 97.5t99 41.5zM1073 1892q57 0 99 -41.5t42 -97.5t-42 -97.5t-99 -41.5q-55 0 -97 42t-42 97t42 97t97 42z" />
    <glyph glyph-name="multiply" unicode="&#xd7;" 
d="M666 823l245 244q26 23 45 23q22 0 45 -23l46 -47q24 -21 24 -45q0 -21 -24 -45l-246 -244l246 -244q24 -21 24 -45q0 -21 -24 -45l-46 -47q-22 -22 -45 -22q-20 0 -45 22l-245 244l-244 -244q-22 -22 -45 -22q-20 0 -45 22l-47 47q-23 26 -23 45q0 22 23 45l243 244
l-243 244q-23 26 -23 45q0 22 23 45l47 47q26 23 45 23q22 0 45 -23z" />
    <glyph glyph-name="Oslash" unicode="&#xd8;" horiz-adv-x="1703" 
d="M469 63l-86 -118q-21 -28 -38 -37.5t-50 -9.5h-55q-17 0 -27 9t-10 21q0 14 8 25l137 188q-180 147 -242 371q-23 85 -26 205q0 158 58 295.5t159.5 235.5t245 154t309.5 56q168 -7 278 -45q38 -12 105 -43l86 119q21 28 38 37.5t50 9.5h55q17 0 27 -9t10 -22t-8 -24
l-137 -189q180 -142 241 -370q24 -90 27 -205q0 -158 -57.5 -295.5t-159 -235.5t-245.5 -154.5t-310 -56.5q-114 5 -201.5 24t-181.5 64zM1200 1077l-577 -803q98 -48 229 -51q213 0 355.5 140.5t142.5 353.5q-3 115 -39 198q-35 86 -111 162zM504 356l577 803
q-98 48 -229 51q-213 0 -355.5 -140t-142.5 -353q3 -116 39 -199q35 -86 111 -162z" />
    <glyph glyph-name="Ugrave" unicode="&#xd9;" horiz-adv-x="1583" 
d="M418 1360v-776q0 -103 40 -183t126.5 -129t208.5 -49q181 0 276.5 101t95.5 260v776q0 74 74 74h121q72 0 72 -74v-787q0 -130 -42 -239.5t-121 -189.5t-201 -124.5t-275 -44.5t-275 45t-202 125t-122 189t-42 239v787q0 38 17.5 56t55.5 18h119q74 0 74 -74zM911 1612
l-34 -43q-18 -21 -37 -21q-16 0 -35 13l-260 186q-25 19 -25 37q0 17 15 35l59 69q18 21 37 21q17 0 37 -17l237 -209q21 -18 21 -36q0 -17 -15 -35z" />
    <glyph glyph-name="Uacute" unicode="&#xda;" horiz-adv-x="1583" 
d="M418 1360v-776q0 -103 40 -183t126.5 -129t208.5 -49q181 0 276.5 101t95.5 260v776q0 74 74 74h121q72 0 72 -74v-787q0 -130 -42 -239.5t-121 -189.5t-201 -124.5t-275 -44.5t-275 45t-202 125t-122 189t-42 239v787q0 38 17.5 56t55.5 18h119q74 0 74 -74zM707 1571
l-35 39q-17 20 -17 35q0 18 23 38l237 211q20 17 37 17q19 0 37 -21l66 -71q14 -17 14 -35t-25 -37l-266 -186q-20 -13 -33 -13q-18 0 -38 23z" />
    <glyph glyph-name="Ucircumflex" unicode="&#xdb;" horiz-adv-x="1583" 
d="M418 1360v-776q0 -103 40 -183t126.5 -129t208.5 -49q181 0 276.5 101t95.5 260v776q0 74 74 74h121q72 0 72 -74v-787q0 -130 -42 -239.5t-121 -189.5t-201 -124.5t-275 -44.5t-275 45t-202 125t-122 189t-42 239v787q0 38 17.5 56t55.5 18h119q74 0 74 -74zM793 1761
l-222 -188q-20 -17 -36 -17q-19 0 -37 21l-43 45q-17 20 -17 37q0 21 21 39l211 192q24 22 43.5 30.5t50.5 8.5h57q31 0 49.5 -8t42.5 -31l213 -192q21 -18 21 -39q0 -18 -19 -37l-41 -45q-18 -21 -36 -21q-15 0 -39 17z" />
    <glyph glyph-name="Udieresis" unicode="&#xdc;" horiz-adv-x="1583" 
d="M418 1360v-776q0 -103 40 -183t126.5 -129t208.5 -49q181 0 276.5 101t95.5 260v776q0 74 74 74h121q72 0 72 -74v-787q0 -130 -42 -239.5t-121 -189.5t-201 -124.5t-275 -44.5t-275 45t-202 125t-122 189t-42 239v787q0 38 17.5 56t55.5 18h119q74 0 74 -74zM559 1892
q58 0 99.5 -41.5t41.5 -97.5t-41.5 -97.5t-99.5 -41.5q-55 0 -97 42t-42 97t42 97t97 42zM1024 1892q57 0 98 -41.5t41 -97.5t-41 -97.5t-98 -41.5t-98 41.5t-41 97.5t41 97.5t98 41.5z" />
    <glyph glyph-name="Yacute" unicode="&#xdd;" horiz-adv-x="1404" 
d="M702 737l353 641q17 33 36.5 44.5t55.5 11.5h149q22 0 34.5 -10.5t12.5 -26.5q0 -18 -8 -31l-499 -874v-418q0 -74 -74 -74h-121q-72 0 -72 74v418l-503 874q-9 15 -9 29q0 18 13 28.5t36 10.5h148q37 0 56 -11.5t38 -44.5zM614 1571l-32 39q-15 18 -15 35q0 20 21 38
l237 211q20 17 37 17q19 0 37 -21l64 -71q16 -19 16 -35q0 -18 -25 -37l-266 -186q-20 -13 -33 -13q-21 0 -41 23z" />
    <glyph glyph-name="Thorn" unicode="&#xde;" horiz-adv-x="1296" 
d="M438 1268h219q85 0 163 -13.5t155.5 -49t134 -90.5t92 -144t35.5 -203t-35 -202t-91.5 -141t-135 -87t-156 -46.5t-164.5 -12.5h-217v-205q0 -38 -17.5 -56t-55.5 -18h-119q-74 0 -74 74v1286q0 74 74 74h119q73 0 73 -72v-94zM438 492h240q61 0 113 15.5t94.5 47t67 86
t24.5 127.5t-24.5 127.5t-67 85.5t-94.5 46t-113 15h-240v-550z" />
    <glyph glyph-name="germandbls" unicode="&#xdf;" horiz-adv-x="1261" 
d="M152 66v1032q0 212 136.5 336.5t354.5 124.5q200 0 329.5 -107t129.5 -281q0 -118 -53.5 -205.5t-147.5 -136.5q118 -38 203.5 -148t85.5 -259q0 -208 -134.5 -327.5t-348.5 -119.5q-39 0 -79.5 3.5t-90.5 19t-62 41.5q-10 25 -10 37t2 18l12 70q8 43 43 43q15 0 27 -6
q73 -29 139 -29q110 0 175 73t65 208q0 134 -72 205t-207 71h-10q-45 0 -45 51v92q0 23 11.5 37.5t33.5 14.5h10q93 0 151 58t58 161t-55 163t-160 60q-109 0 -171 -69t-62 -199v-1032q0 -66 -66 -66h-127q-65 0 -65 66z" />
    <glyph glyph-name="agrave" unicode="&#xe0;" horiz-adv-x="1208" 
d="M856 63v56q-107 -144 -346 -144q-177 0 -291.5 97.5t-114.5 257.5t117.5 255t296.5 95q91 0 157 -12t150 -39l-2 26q-5 98 -65.5 154.5t-177.5 56.5q-151 3 -285 -61q-12 -6 -25 -6q-31 0 -47 39l-20 51q-8 16 -8 33q0 30 32 49q137 78 353 78q228 0 359.5 -116.5
t131.5 -303.5v-563q0 -66 -65 -66h-86q-64 0 -64 63zM825 358v111q-111 41 -239 41q-99 0 -166.5 -49t-67.5 -131q0 -81 64 -129.5t155 -48.5q112 0 183 56t71 150zM707 1233l-35 -43q-18 -21 -37 -21q-15 0 -35 13l-260 186q-25 19 -25 37q0 17 15 35l59 69q18 21 37 21
q17 0 37 -17l237 -208q21 -18 21 -37q0 -18 -14 -35z" />
    <glyph glyph-name="aacute" unicode="&#xe1;" horiz-adv-x="1208" 
d="M856 63v56q-107 -144 -346 -144q-177 0 -291.5 97.5t-114.5 257.5t117.5 255t296.5 95q91 0 157 -12t150 -39l-2 26q-5 98 -65.5 154.5t-177.5 56.5q-151 3 -285 -61q-12 -6 -25 -6q-31 0 -47 39l-20 51q-8 16 -8 33q0 30 32 49q137 78 353 78q228 0 359.5 -116.5
t131.5 -303.5v-563q0 -66 -65 -66h-86q-64 0 -64 63zM825 358v111q-111 41 -239 41q-99 0 -166.5 -49t-67.5 -131q0 -81 64 -129.5t155 -48.5q112 0 183 56t71 150zM502 1192l-35 39q-16 19 -16 35q0 20 22 39l238 211q19 16 37 16t36 -21l66 -71q14 -17 14 -35
q0 -19 -24 -37l-267 -186q-19 -13 -32 -13q-19 0 -39 23z" />
    <glyph glyph-name="acircumflex" unicode="&#xe2;" horiz-adv-x="1208" 
d="M856 63v56q-107 -144 -346 -144q-177 0 -291.5 97.5t-114.5 257.5t117.5 255t296.5 95q91 0 157 -12t150 -39l-2 26q-5 98 -65.5 154.5t-177.5 56.5q-151 3 -285 -61q-12 -6 -25 -6q-31 0 -47 39l-20 51q-8 16 -8 33q0 30 32 49q137 78 353 78q228 0 359.5 -116.5
t131.5 -303.5v-563q0 -66 -65 -66h-86q-64 0 -64 63zM825 358v111q-111 41 -239 41q-99 0 -166.5 -49t-67.5 -131q0 -81 64 -129.5t155 -48.5q112 0 183 56t71 150zM588 1382l-221 -188q-19 -16 -37 -16q-20 0 -37 20l-43 45q-17 20 -17 37q0 21 21 39l211 192
q24 22 43.5 30.5t50.5 8.5h57q31 0 50 -8t43 -31l213 -192q20 -17 20 -39q0 -19 -18 -37l-41 -45q-17 -20 -37 -20q-17 0 -39 16z" />
    <glyph glyph-name="atilde" unicode="&#xe3;" horiz-adv-x="1208" 
d="M856 63v56q-107 -144 -346 -144q-177 0 -291.5 97.5t-114.5 257.5t117.5 255t296.5 95q91 0 157 -12t150 -39l-2 26q-5 98 -65.5 154.5t-177.5 56.5q-151 3 -285 -61q-12 -6 -25 -6q-31 0 -47 39l-20 51q-8 16 -8 33q0 30 32 49q137 78 353 78q228 0 359.5 -116.5
t131.5 -303.5v-563q0 -66 -65 -66h-86q-64 0 -64 63zM825 358v111q-111 41 -239 41q-99 0 -166.5 -49t-67.5 -131q0 -81 64 -129.5t155 -48.5q112 0 183 56t71 150zM356 1208h-71q-32 0 -43 17t-9 49q7 107 66 166q56 53 143 53q30 -1 62.5 -13t50 -22.5t50.5 -32.5l9 -6
q64 -49 101 -49q18 0 29.5 13.5t14 24t7.5 34.5q10 43 55 43h74q51 0 51 -45q0 -106 -57 -172q-54 -66 -154 -66q-33 0 -66.5 12.5t-54.5 25.5t-51 36q-59 40 -82 45q-8 2 -16 2q-19 0 -31 -12t-15.5 -25.5t-6.5 -34.5q-10 -43 -56 -43z" />
    <glyph glyph-name="adieresis" unicode="&#xe4;" horiz-adv-x="1208" 
d="M856 63v56q-107 -144 -346 -144q-177 0 -291.5 97.5t-114.5 257.5t117.5 255t296.5 95q91 0 157 -12t150 -39l-2 26q-5 98 -65.5 154.5t-177.5 56.5q-151 3 -285 -61q-12 -6 -25 -6q-31 0 -47 39l-20 51q-8 16 -8 33q0 30 32 49q137 78 353 78q228 0 359.5 -116.5
t131.5 -303.5v-563q0 -66 -65 -66h-86q-64 0 -64 63zM825 358v111q-111 41 -239 41q-99 0 -166.5 -49t-67.5 -131q0 -81 64 -129.5t155 -48.5q112 0 183 56t71 150zM356 1513q57 0 99.5 -41.5t42.5 -97.5t-42.5 -97.5t-99.5 -41.5t-98 41.5t-41 97.5t41 97.5t98 41.5z
M821 1513q56 0 98 -42t42 -97t-42 -97t-98 -42q-57 0 -99 41.5t-42 97.5t42 97.5t99 41.5z" />
    <glyph glyph-name="aring" unicode="&#xe5;" horiz-adv-x="1208" 
d="M856 63v56q-107 -144 -346 -144q-177 0 -291.5 97.5t-114.5 257.5t117.5 255t296.5 95q91 0 157 -12t150 -39l-2 26q-5 98 -65.5 154.5t-177.5 56.5q-151 3 -285 -61q-12 -6 -25 -6q-31 0 -47 39l-20 51q-8 16 -8 33q0 30 32 49q137 78 353 78q228 0 359.5 -116.5
t131.5 -303.5v-563q0 -66 -65 -66h-86q-64 0 -64 63zM825 358v111q-111 41 -239 41q-99 0 -166.5 -49t-67.5 -131q0 -81 64 -129.5t155 -48.5q112 0 183 56t71 150zM588 1505q89 0 144.5 -53.5t55.5 -134.5q0 -80 -58 -136.5t-142 -56.5q-83 0 -142 56.5t-59 136.5
q0 81 55 134.5t146 53.5zM477 1317q0 -46 32.5 -78.5t78.5 -32.5q44 0 77 33t33 78t-30.5 75.5t-79.5 30.5t-80 -30.5t-31 -75.5z" />
    <glyph glyph-name="ae" unicode="&#xe6;" horiz-adv-x="1931" 
d="M1806 436h-735q10 -117 90 -186q38 -34 92.5 -53t110.5 -19q170 -3 283 92q16 13 30 13q20 0 43 -19l58 -47q28 -25 28 -49q0 -22 -20 -39q-71 -68 -172 -106q-126 -49 -256 -46q-155 0 -277 70q-47 26 -79.5 57.5t-65.5 77.5q-57 -93 -139 -141q-110 -66 -287 -66
t-291.5 97.5t-114.5 257.5t117.5 255t296.5 95q91 0 155.5 -12t149.5 -39v26q0 96 -62 153t-181 58q-149 0 -283 -61q-12 -6 -25 -6q-33 0 -49 39l-20 51q-8 16 -8 33q0 30 32 49q140 80 353 76q142 -3 231 -48q98 -49 154 -135q52 67 125 115q122 70 268 70q124 0 224 -47
t162 -124.5t95 -173t33 -198.5v-10q0 -60 -66 -60zM1075 594h547q-7 117 -82 190q-77 74 -184 74q-118 0 -193 -72t-88 -192zM823 354v115q-108 41 -237 41q-102 0 -170 -49t-68 -131q0 -81 64.5 -129.5t158.5 -48.5q111 0 181.5 56.5t70.5 145.5z" />
    <glyph glyph-name="ccedilla" unicode="&#xe7;" horiz-adv-x="1122" 
d="M481 -164l39 148q-121 23 -220 87t-157 167q-64 108 -71 274q0 234 157.5 385.5t397.5 151.5q119 0 229 -43q106 -43 168 -111q20 -20 20 -41q0 -26 -24 -47l-74 -70q-21 -18 -41 -18q-23 0 -43 20l-49 35q-85 51 -186 51q-130 0 -215.5 -89.5t-85.5 -223.5t85.5 -223.5
t215.5 -89.5q81 0 151 30q42 19 94 64q15 12 33 12q23 0 41 -18l74 -70q24 -21 24 -45q0 -12 -10 -29q-29 -42 -98 -86q-117 -68 -244 -77l-16 -68q97 -12 149 -60t52 -131q0 -95 -76.5 -148.5t-204.5 -53.5q-97 0 -190 41q-33 13 -33 41q0 14 6 26l12 31q17 33 45 33
q11 0 17 -2q82 -29 143 -29q106 0 106 61q0 60 -110 60h-70q-43 0 -43 37q0 12 2 18z" />
    <glyph glyph-name="egrave" unicode="&#xe8;" horiz-adv-x="1196" 
d="M1059 432h-735q6 -112 86 -186q80 -68 206 -68q112 0 191 39q22 8 72 43q31 21 51 21q19 0 39 -17l61 -49q29 -23 29 -45q0 -18 -23 -41q-78 -74 -191.5 -114t-234.5 -40q-234 0 -386 151.5t-152 385.5t152 385.5t386 151.5q151 0 268.5 -71t181.5 -195t64 -279v-12
q0 -60 -65 -60zM328 594h544q-7 119 -81 190q-74 74 -181 74q-119 0 -194 -72q-79 -76 -88 -192zM723 1233l-35 -43q-15 -21 -35 -21q-15 0 -35 13l-262 186q-22 19 -22 37t14 35l58 69q18 21 38 21q17 0 37 -17l236 -208q22 -19 22 -37q0 -16 -16 -35z" />
    <glyph glyph-name="eacute" unicode="&#xe9;" horiz-adv-x="1196" 
d="M1059 432h-735q6 -112 86 -186q80 -68 206 -68q112 0 191 39q22 8 72 43q31 21 51 21q19 0 39 -17l61 -49q29 -23 29 -45q0 -18 -23 -41q-78 -74 -191.5 -114t-234.5 -40q-234 0 -386 151.5t-152 385.5t152 385.5t386 151.5q151 0 268.5 -71t181.5 -195t64 -279v-12
q0 -60 -65 -60zM328 594h544q-7 119 -81 190q-74 74 -181 74q-119 0 -194 -72q-79 -76 -88 -192zM512 1192l-33 39q-16 19 -16 35q0 20 22 39l236 211q19 16 37 16q21 0 39 -21l63 -71q14 -17 14 -35t-22 -37l-268 -186q-20 -13 -33 -13q-19 0 -39 23z" />
    <glyph glyph-name="ecircumflex" unicode="&#xea;" horiz-adv-x="1196" 
d="M1059 432h-735q6 -112 86 -186q80 -68 206 -68q112 0 191 39q22 8 72 43q31 21 51 21q19 0 39 -17l61 -49q29 -23 29 -45q0 -18 -23 -41q-78 -74 -191.5 -114t-234.5 -40q-234 0 -386 151.5t-152 385.5t152 385.5t386 151.5q151 0 268.5 -71t181.5 -195t64 -279v-12
q0 -60 -65 -60zM328 594h544q-7 119 -81 190q-74 74 -181 74q-119 0 -194 -72q-79 -76 -88 -192zM600 1382l-221 -188q-22 -16 -37 -16q-22 0 -39 20l-41 45q-18 18 -18 39q0 20 20 37l211 192q26 23 44.5 31t49.5 8h58q32 0 50 -8t44 -31l211 -192q20 -17 20 -39
q0 -18 -16 -37l-41 -45q-17 -20 -39 -20q-18 0 -37 16z" />
    <glyph glyph-name="edieresis" unicode="&#xeb;" horiz-adv-x="1196" 
d="M1059 432h-735q6 -112 86 -186q80 -68 206 -68q112 0 191 39q22 8 72 43q31 21 51 21q19 0 39 -17l61 -49q29 -23 29 -45q0 -18 -23 -41q-78 -74 -191.5 -114t-234.5 -40q-234 0 -386 151.5t-152 385.5t152 385.5t386 151.5q151 0 268.5 -71t181.5 -195t64 -279v-12
q0 -60 -65 -60zM328 594h544q-7 119 -81 190q-74 74 -181 74q-119 0 -194 -72q-79 -76 -88 -192zM367 1513q57 0 99 -41.5t42 -97.5t-42 -97.5t-99 -41.5t-99.5 41.5t-42.5 97.5t42.5 97.5t99.5 41.5zM829 1513q57 0 99.5 -41.5t42.5 -97.5t-42.5 -97.5t-99.5 -41.5
q-55 0 -97 41.5t-42 97.5t42 97.5t97 41.5z" />
    <glyph glyph-name="igrave" unicode="&#xec;" horiz-adv-x="561" 
d="M215 1024h129q66 0 66 -66v-892q0 -66 -66 -66h-129q-63 0 -63 66v892q0 66 63 66zM399 1233l-34 -43q-18 -21 -37 -21q-12 0 -35 13l-260 186q-25 19 -25 37q0 13 15 35l59 69q18 21 39 21q15 0 35 -17l237 -208q21 -18 21 -37q0 -17 -15 -35z" />
    <glyph glyph-name="iacute" unicode="&#xed;" horiz-adv-x="561" 
d="M217 1024h129q64 0 64 -66v-892q0 -66 -64 -66h-129q-65 0 -65 66v892q0 66 65 66zM195 1192l-33 39q-17 20 -17 35q0 19 23 39l238 211q19 16 36 16q19 0 37 -21l64 -71q14 -17 14 -35t-22 -37l-267 -186q-20 -13 -35 -13q-18 0 -38 23z" />
    <glyph glyph-name="icircumflex" unicode="&#xee;" horiz-adv-x="561" 
d="M215 1024h129q66 0 66 -66v-892q0 -66 -66 -66h-129q-63 0 -63 66v892q0 66 63 66zM281 1382l-222 -188q-22 -16 -36 -16q-22 0 -39 20l-41 45q-19 19 -19 39q0 19 21 37l211 192q26 23 44.5 31t49.5 8h57q32 0 50 -8t44 -31l211 -192q21 -18 21 -39q0 -17 -17 -37
l-41 -45q-17 -20 -38 -20q-18 0 -37 16z" />
    <glyph glyph-name="idieresis" unicode="&#xef;" horiz-adv-x="561" 
d="M215 1024h129q66 0 66 -66v-892q0 -66 -66 -66h-129q-63 0 -63 66v892q0 66 63 66zM47 1513q58 0 99.5 -41.5t41.5 -97.5t-41.5 -97.5t-99.5 -41.5q-55 0 -97 41.5t-42 97.5t42 97.5t97 41.5zM512 1513q57 0 98 -41.5t41 -97.5t-41 -97.5t-98 -41.5t-98 41.5t-41 97.5
t41 97.5t98 41.5z" />
    <glyph glyph-name="eth" unicode="&#xf0;" horiz-adv-x="1208" 
d="M946 1270l-112 -49q133 -112 213 -279q87 -185 90 -450q0 -227 -154 -369.5t-381 -142.5q-146 0 -266.5 62t-192 175.5t-71.5 255.5q0 136 70 250t183.5 178t241.5 64q76 0 148.5 -31.5t122.5 -79.5q-37 138 -162 244q-15 15 -47 35l-160 -70q-15 -6 -31 -6q-30 0 -47 33
l-22 38q-9 18 -9 31q0 32 35 47l54 23q-20 9 -46 16q-53 17 -104 29q-39 5 -39 49q0 10 2 16l8 58q5 28 15 40.5t34 12.5q141 0 361 -121l192 84q15 6 31 6q30 0 47 -33l23 -38q8 -16 8 -31q0 -32 -35 -47zM309 473q0 -123 86.5 -213t206.5 -90q117 0 206 90t89 211
q0 123 -88.5 212t-206.5 89q-120 0 -206.5 -88t-86.5 -211z" />
    <glyph glyph-name="ntilde" unicode="&#xf1;" horiz-adv-x="1273" 
d="M379 958v-96q48 88 138.5 137.5t215.5 49.5q187 0 295.5 -118.5t108.5 -316.5v-548q0 -66 -66 -66h-127q-65 0 -65 66v507q0 118 -59 185t-167 67q-119 0 -181 -68.5t-62 -183.5v-507q0 -66 -66 -66h-127q-65 0 -65 66v892q0 66 65 66h96q66 0 66 -66zM414 1208h-72
q-31 0 -42 16.5t-9 49.5q7 111 65 166q53 53 144 53q32 -1 66 -14t52.5 -25t51.5 -35q67 -49 100 -49q19 0 31 13.5t14.5 24t7.5 34.5q10 43 56 43h71q54 0 54 -45q-3 -105 -58 -172q-54 -66 -153 -66q-33 0 -66.5 12.5t-54.5 25.5t-51 36q-70 47 -101 47q-26 0 -36.5 -19
t-16.5 -53q-7 -43 -53 -43z" />
    <glyph glyph-name="ograve" unicode="&#xf2;" horiz-adv-x="1273" 
d="M637 1049q245 0 405 -151.5t160 -385.5t-160 -385.5t-405 -151.5t-405 151.5t-160 385.5t160 385.5t405 151.5zM637 193q135 0 223 90.5t88 228.5t-88 228.5t-223 90.5t-223 -90.5t-88 -228.5t88 -228.5t223 -90.5zM756 1233l-35 -43q-18 -21 -37 -21q-16 0 -35 13
l-260 186q-24 18 -24 37q0 16 16 35l57 69q18 21 37 21q17 0 37 -17l238 -208q22 -19 22 -37q0 -16 -16 -35z" />
    <glyph glyph-name="oacute" unicode="&#xf3;" horiz-adv-x="1273" 
d="M637 1049q245 0 405 -151.5t160 -385.5t-160 -385.5t-405 -151.5t-405 151.5t-160 385.5t160 385.5t405 151.5zM637 193q135 0 223 90.5t88 228.5t-88 228.5t-223 90.5t-223 -90.5t-88 -228.5t88 -228.5t223 -90.5zM551 1192l-33 39q-16 19 -16 35q0 20 22 39l236 211
q19 16 37 16q21 0 39 -21l63 -71q14 -17 14 -35t-22 -37l-268 -186q-20 -13 -33 -13q-19 0 -39 23z" />
    <glyph glyph-name="ocircumflex" unicode="&#xf4;" horiz-adv-x="1273" 
d="M637 1049q245 0 405 -151.5t160 -385.5t-160 -385.5t-405 -151.5t-405 151.5t-160 385.5t160 385.5t405 151.5zM637 193q135 0 223 90.5t88 228.5t-88 228.5t-223 90.5t-223 -90.5t-88 -228.5t88 -228.5t223 -90.5zM639 1382l-221 -188q-22 -16 -37 -16q-22 0 -39 20
l-41 45q-18 18 -18 39q0 20 20 37l211 192q26 23 44.5 31t49.5 8h58q32 0 50 -8t44 -31l211 -192q20 -17 20 -39q0 -18 -16 -37l-41 -45q-17 -20 -39 -20q-18 0 -37 16z" />
    <glyph glyph-name="otilde" unicode="&#xf5;" horiz-adv-x="1273" 
d="M637 1049q245 0 405 -151.5t160 -385.5t-160 -385.5t-405 -151.5t-405 151.5t-160 385.5t160 385.5t405 151.5zM637 193q135 0 223 90.5t88 228.5t-88 228.5t-223 90.5t-223 -90.5t-88 -228.5t88 -228.5t223 -90.5zM408 1208h-74q-31 0 -40 10.5t-9 41.5q0 50 17 100.5
t48 79.5q53 53 142 53q32 -1 66.5 -14t53.5 -25t52 -35q67 -49 100 -49q26 0 36.5 19.5t16.5 52.5q7 43 53 43h74q51 0 51 -45q0 -106 -57 -172q-51 -66 -152 -66q-33 0 -68 13t-53.5 24.5t-52.5 36.5q-66 47 -98 47q-26 0 -36.5 -19t-16.5 -53q-7 -43 -53 -43z" />
    <glyph glyph-name="odieresis" unicode="&#xf6;" horiz-adv-x="1273" 
d="M637 1049q245 0 405 -151.5t160 -385.5t-160 -385.5t-405 -151.5t-405 151.5t-160 385.5t160 385.5t405 151.5zM637 193q135 0 223 90.5t88 228.5t-88 228.5t-223 90.5t-223 -90.5t-88 -228.5t88 -228.5t223 -90.5zM406 1513q57 0 99 -41.5t42 -97.5t-42 -97.5t-99 -41.5
t-99.5 41.5t-42.5 97.5t42.5 97.5t99.5 41.5zM868 1513q57 0 99.5 -41.5t42.5 -97.5t-42.5 -97.5t-99.5 -41.5q-56 0 -97.5 41.5t-41.5 97.5t41.5 97.5t97.5 41.5z" />
    <glyph glyph-name="divide" unicode="&#xf7;" 
d="M805 299q0 -58 -41 -98.5t-98 -40.5t-98.5 40.5t-41.5 98.5q0 61 38 100t102 39q62 0 100.5 -39t38.5 -100zM805 1077q0 -58 -41 -98.5t-98 -40.5t-98.5 41t-41.5 98q0 59 38 97.5t102 39.5q62 -1 100.5 -39.5t38.5 -97.5zM227 782h877q65 0 65 -65v-62q0 -65 -65 -65
h-877q-65 0 -65 65v62q0 65 65 65z" />
    <glyph glyph-name="oslash" unicode="&#xf8;" horiz-adv-x="1273" 
d="M125 -57l125 166q-90 83 -131 180q-45 101 -45 223q-1 154 71.5 277t201.5 191t290 67q140 0 272 -60l74 100q18 24 33 31.5t45 7.5h63q15 0 24 -6.5t9 -17.5q0 -9 -8 -21l-125 -166q90 -83 131 -180q45 -101 45 -223q1 -234 -158.5 -384.5t-404.5 -147.5q-147 0 -272 57
l-74 -100q-18 -24 -33 -31.5t-45 -7.5h-63q-15 0 -24 6.5t-9 17.5q0 9 8 21zM401 313l365 484q-53 34 -129 34q-134 0 -222.5 -92t-88.5 -227q0 -118 75 -199zM872 711l-364 -484q53 -34 129 -34q134 0 222.5 92t88.5 227q0 117 -76 199z" />
    <glyph glyph-name="ugrave" unicode="&#xf9;" horiz-adv-x="1253" 
d="M874 66v96q-47 -89 -134.5 -138t-209.5 -49q-183 0 -288 118.5t-105 316.5v548q0 66 66 66h127q65 0 65 -66v-507q0 -118 56 -185t159 -67q115 0 174.5 68.5t59.5 183.5v507q0 66 65 66h127q66 0 66 -66v-892q0 -66 -66 -66h-96q-66 0 -66 66zM737 1233l-35 -43
q-15 -21 -34 -21q-16 0 -35 13l-262 186q-23 20 -23 37q0 18 14 35l58 69q18 21 39 21q17 0 37 -17l235 -208q23 -20 23 -37q0 -15 -17 -35z" />
    <glyph glyph-name="uacute" unicode="&#xfa;" horiz-adv-x="1253" 
d="M874 66v96q-47 -89 -134.5 -138t-209.5 -49q-183 0 -288 118.5t-105 316.5v548q0 66 66 66h127q65 0 65 -66v-507q0 -118 56 -185t159 -67q115 0 174.5 68.5t59.5 183.5v507q0 66 65 66h127q66 0 66 -66v-892q0 -66 -66 -66h-96q-66 0 -66 66zM532 1192l-32 39
q-17 20 -17 35q0 19 23 39l237 211q19 16 37 16q19 0 37 -21l64 -71q16 -19 16 -35q0 -18 -25 -37l-266 -186q-20 -13 -33 -13q-21 0 -41 23z" />
    <glyph glyph-name="ucircumflex" unicode="&#xfb;" horiz-adv-x="1253" 
d="M874 66v96q-47 -89 -134.5 -138t-209.5 -49q-183 0 -288 118.5t-105 316.5v548q0 66 66 66h127q65 0 65 -66v-507q0 -118 56 -185t159 -67q115 0 174.5 68.5t59.5 183.5v507q0 66 65 66h127q66 0 66 -66v-892q0 -66 -66 -66h-96q-66 0 -66 66zM621 1382l-222 -188
q-22 -16 -37 -16q-21 0 -38 20l-41 45q-17 20 -17 37q0 21 21 39l211 192q24 23 42.5 31t51.5 8h57q31 0 49.5 -8t42.5 -31l211 -192q21 -18 21 -39q0 -17 -17 -37l-41 -45q-17 -20 -38 -20q-18 0 -37 16z" />
    <glyph glyph-name="udieresis" unicode="&#xfc;" horiz-adv-x="1253" 
d="M874 66v96q-47 -89 -134.5 -138t-209.5 -49q-183 0 -288 118.5t-105 316.5v548q0 66 66 66h127q65 0 65 -66v-507q0 -118 56 -185t159 -67q115 0 174.5 68.5t59.5 183.5v507q0 66 65 66h127q66 0 66 -66v-892q0 -66 -66 -66h-96q-66 0 -66 66zM389 1513q57 0 99 -41.5
t42 -97.5t-42 -97.5t-99 -41.5t-99 41.5t-42 97.5t42 97.5t99 41.5zM852 1513q57 0 99 -41.5t42 -97.5t-42 -97.5t-99 -41.5q-56 0 -97.5 41.5t-41.5 97.5t41.5 97.5t97.5 41.5z" />
    <glyph glyph-name="yacute" unicode="&#xfd;" horiz-adv-x="1171" 
d="M586 262l282 711q10 29 26.5 40t47.5 11h143q48 0 48 -39q0 -10 -7 -24l-485 -1129q-66 -152 -141 -209t-195 -57q-114 0 -176 41q-27 18 -27 45q0 17 9 35l36 82q18 32 43 32q7 0 19 -4q43 -16 84 -16q48 0 75.5 20t49.5 68l57 131h-18l-410 961q-6 15 -6 26q0 37 45 37
h143q31 0 48.5 -11t27.5 -40zM500 1192l-33 39q-14 17 -14 35q0 22 20 39l238 211q19 16 37 16t36 -21l64 -71q16 -19 16 -35q0 -19 -24 -37l-267 -186q-19 -13 -32 -13q-21 0 -41 23z" />
    <glyph glyph-name="thorn" unicode="&#xfe;" horiz-adv-x="1310" 
d="M203 1483l135 37q6 2 18 2q19 0 30 -13t11 -36v-599q60 85 146.5 130t189.5 45q228 1 367 -148t139 -389t-139 -388.5t-367 -148.5q-99 0 -187.5 46t-148.5 129v-500q0 -60 -59 -60h-127q-59 0 -59 60v1767q0 28 11.5 43.5t39.5 22.5zM684 199q130 0 215.5 89t85.5 224
t-85.5 224t-215.5 89t-213.5 -88.5t-83.5 -224.5t83.5 -224.5t213.5 -88.5z" />
    <glyph glyph-name="ydieresis" unicode="&#xff;" horiz-adv-x="1171" 
d="M586 262l282 711q10 29 26.5 40t47.5 11h143q48 0 48 -39q0 -10 -7 -24l-485 -1129q-66 -152 -141 -209t-195 -57q-114 0 -176 41q-27 18 -27 45q0 17 9 35l36 82q18 32 43 32q7 0 19 -4q43 -16 84 -16q48 0 75.5 20t49.5 68l57 131h-18l-410 961q-6 15 -6 26q0 37 45 37
h143q31 0 48.5 -11t27.5 -40zM354 1513q57 0 99.5 -41.5t42.5 -97.5t-42.5 -97.5t-99.5 -41.5t-98 41.5t-41 97.5t41 97.5t98 41.5zM819 1513q55 0 97 -41.5t42 -97.5t-42 -97.5t-97 -41.5q-57 0 -99 41.5t-42 97.5t42 97.5t99 41.5z" />
    <glyph glyph-name="Amacron" unicode="&#x100;" horiz-adv-x="1492" 
d="M410 272l-86 -215q-13 -34 -31 -45.5t-55 -11.5h-142q-25 0 -39 11.5t-14 31.5q0 14 6 29l539 1304q13 33 31.5 45.5t54.5 12.5h147q36 0 54.5 -12.5t31.5 -45.5l539 -1304q6 -15 6 -27q0 -21 -14.5 -33t-40.5 -12h-142q-36 0 -54.5 12t-31.5 45l-82 215h-677zM999 504
l-251 637l-254 -637h505zM465 1812h565q53 0 53 -53v-78q0 -53 -53 -53h-565q-55 0 -55 53v78q0 53 55 53z" />
    <glyph glyph-name="amacron" unicode="&#x101;" horiz-adv-x="1208" 
d="M856 63v56q-107 -144 -346 -144q-177 0 -291.5 97.5t-114.5 257.5t117.5 255t296.5 95q91 0 157 -12t150 -39l-2 26q-5 98 -65.5 154.5t-177.5 56.5q-151 3 -285 -61q-12 -6 -25 -6q-31 0 -47 39l-20 51q-8 16 -8 33q0 30 32 49q137 78 353 78q228 0 359.5 -116.5
t131.5 -303.5v-563q0 -66 -65 -66h-86q-64 0 -64 63zM825 358v111q-111 41 -239 41q-99 0 -166.5 -49t-67.5 -131q0 -81 64 -129.5t155 -48.5q112 0 183 56t71 150zM305 1434h567q54 0 54 -54v-77q0 -54 -54 -54h-567q-53 0 -53 54v77q0 54 53 54z" />
    <glyph glyph-name="Abreve" unicode="&#x102;" horiz-adv-x="1492" 
d="M410 272l-86 -215q-13 -34 -31 -45.5t-55 -11.5h-142q-25 0 -39 11.5t-14 31.5q0 14 6 29l539 1304q13 33 31.5 45.5t54.5 12.5h147q36 0 54.5 -12.5t31.5 -45.5l539 -1304q6 -15 6 -27q0 -21 -14.5 -33t-40.5 -12h-142q-36 0 -54.5 12t-31.5 45l-82 215h-677zM999 504
l-251 637l-254 -637h505zM944 1878h78q51 0 51 -45q0 -54 -21.5 -106t-58.5 -91q-86 -86 -245 -86q-164 0 -246 86q-38 38 -60 90.5t-22 106.5q0 45 51 45h78q27 0 39.5 -12.5t15.5 -36.5q8 -63 43.5 -100t100.5 -37t100 37t43 100q7 49 53 49z" />
    <glyph glyph-name="abreve" unicode="&#x103;" horiz-adv-x="1208" 
d="M856 63v56q-107 -144 -346 -144q-177 0 -291.5 97.5t-114.5 257.5t117.5 255t296.5 95q91 0 157 -12t150 -39l-2 26q-5 98 -65.5 154.5t-177.5 56.5q-151 3 -285 -61q-12 -6 -25 -6q-31 0 -47 39l-20 51q-8 16 -8 33q0 30 32 49q137 78 353 78q228 0 359.5 -116.5
t131.5 -303.5v-563q0 -66 -65 -66h-86q-64 0 -64 63zM825 358v111q-111 41 -239 41q-99 0 -166.5 -49t-67.5 -131q0 -81 64 -129.5t155 -48.5q112 0 183 56t71 150zM788 1499h78q23 0 37.5 -11.5t14.5 -33.5q0 -54 -22 -106.5t-60 -90.5q-82 -86 -246 -86q-160 0 -246 86
q-37 39 -58.5 91t-21.5 106q0 45 51 45h78q46 0 53 -49q8 -63 43.5 -100t100.5 -37t100 37t43 100q3 24 15.5 36.5t39.5 12.5z" />
    <glyph glyph-name="Aogonek" unicode="&#x104;" horiz-adv-x="1492" 
d="M1284 0h-29q-36 0 -54.5 12t-31.5 45l-82 215h-677l-86 -215q-13 -34 -31 -45.5t-55 -11.5h-142q-26 0 -40.5 12t-14.5 33q0 12 6 27l541 1304q13 33 31.5 45.5t54.5 12.5h147q36 0 54.5 -12.5t31.5 -45.5l547 -1321q6 -18 6 -35q0 -26 -28 -45q-63 -39 -103 -78.5
t-49 -91.5q-2 -8 -2 -24q0 -60 68 -100q37 -21 75 -19q6 0 18.5 1t18.5 1q17 0 25.5 -9t13.5 -30l4 -41q2 -6 2 -16q0 -37 -39 -43q-23 -6 -69 -6q-150 0 -225.5 61.5t-73.5 177.5q1 79 54.5 142t133.5 100zM999 504l-251 637l-254 -637h505z" />
    <glyph glyph-name="aogonek" unicode="&#x105;" horiz-adv-x="1208" 
d="M1092 -375l6 -41q7 -51 -37 -59q-23 -6 -70 -6q-150 0 -226.5 61.5t-76.5 177.5q3 83 61 147.5t142 98.5q-35 13 -35 59v56q-107 -144 -346 -144q-177 0 -291.5 97.5t-114.5 257.5t117.5 255t296.5 95q91 0 157 -12t150 -39l-2 26q-5 98 -65.5 154.5t-177.5 56.5
q-151 3 -285 -61q-12 -6 -25 -6q-31 0 -47 39l-20 51q-8 24 -8 33q0 30 32 49q137 78 353 78q228 0 359.5 -116.5t131.5 -303.5v-576q0 -51 -31 -71q-94 -65 -122 -93q-60 -57 -60 -125q0 -104 139 -104h19q12 4 37 4q22 0 29 -6.5t10 -32.5zM825 358v111q-111 41 -239 41
q-99 0 -166.5 -49t-67.5 -131q0 -81 64 -129.5t155 -48.5q112 0 183 56t71 150z" />
    <glyph glyph-name="Cacute" unicode="&#x106;" horiz-adv-x="1492" 
d="M1280 371l88 -72q31 -27 31 -53q0 -9 -2 -15q-3 -12 -11.5 -24.5t-23.5 -26.5t-25 -22.5t-28.5 -23t-20.5 -15.5q-200 -144 -463 -144q-221 0 -393.5 96.5t-267 265.5t-94.5 380t94.5 380t267 265t393.5 96q207 0 383 -92q124 -71 174 -143q15 -18 15 -37q0 -25 -29 -51
l-88 -72q-26 -23 -51 -23q-19 0 -41 19q-75 71 -169 111t-194 40q-211 0 -346 -139t-135 -354t135 -354.5t346 -139.5q101 0 194.5 40t168.5 112q21 18 41 18q26 0 51 -22zM713 1571l-33 39q-16 19 -16 35q0 19 22 38l236 211q20 17 36 17q21 0 39 -21l64 -71q14 -17 14 -35
t-22 -37l-269 -186q-20 -13 -32 -13q-19 0 -39 23z" />
    <glyph glyph-name="cacute" unicode="&#x107;" horiz-adv-x="1122" 
d="M946 287l74 -70q24 -21 24 -45q0 -12 -10 -29q-29 -42 -98 -86q-140 -82 -309 -82q-240 0 -397.5 151.5t-157.5 385.5t157.5 385.5t397.5 151.5q119 0 229 -43q106 -43 168 -111q20 -20 20 -41q0 -26 -24 -47l-74 -70q-21 -18 -41 -18q-23 0 -43 20l-49 35
q-85 51 -186 51q-130 0 -215.5 -89.5t-85.5 -223.5t85.5 -223.5t215.5 -89.5q81 0 151 30q42 19 94 64q15 12 33 12q23 0 41 -18zM512 1192l-35 39q-16 19 -16 35q0 20 22 39l238 211q19 16 37 16q19 0 37 -21l65 -71q14 -17 14 -35q0 -19 -24 -37l-266 -186
q-20 -13 -33 -13q-19 0 -39 23z" />
    <glyph glyph-name="Ccircumflex" unicode="&#x108;" horiz-adv-x="1492" 
d="M1280 371l88 -72q31 -27 31 -53q0 -9 -2 -15q-3 -12 -11.5 -24.5t-23.5 -26.5t-25 -22.5t-28.5 -23t-20.5 -15.5q-200 -144 -463 -144q-221 0 -393.5 96.5t-267 265.5t-94.5 380t94.5 380t267 265t393.5 96q207 0 383 -92q124 -71 174 -143q15 -18 15 -37q0 -25 -29 -51
l-88 -72q-26 -23 -51 -23q-19 0 -41 19q-75 71 -169 111t-194 40q-211 0 -346 -139t-135 -354t135 -354.5t346 -139.5q101 0 194.5 40t168.5 112q21 18 41 18q26 0 51 -22zM801 1761l-221 -188q-24 -17 -37 -17q-21 0 -39 21l-41 45q-19 19 -19 39q0 19 21 37l211 192
q26 23 44.5 31t49.5 8h57q32 0 50.5 -8t44.5 -31l211 -192q20 -17 20 -39q0 -18 -16 -37l-41 -45q-18 -21 -39 -21q-17 0 -37 17z" />
    <glyph glyph-name="ccircumflex" unicode="&#x109;" horiz-adv-x="1122" 
d="M946 287l74 -70q24 -21 24 -45q0 -12 -10 -29q-29 -42 -98 -86q-140 -82 -309 -82q-240 0 -397.5 151.5t-157.5 385.5t157.5 385.5t397.5 151.5q119 0 229 -43q106 -43 168 -111q20 -20 20 -41q0 -26 -24 -47l-74 -70q-21 -18 -41 -18q-23 0 -43 20l-49 35
q-85 51 -186 51q-130 0 -215.5 -89.5t-85.5 -223.5t85.5 -223.5t215.5 -89.5q81 0 151 30q42 19 94 64q15 12 33 12q23 0 41 -18zM588 1382l-221 -188q-19 -16 -37 -16q-20 0 -37 20l-43 45q-17 20 -17 37q0 21 21 39l211 192q24 22 43.5 30.5t50.5 8.5h57q31 0 50 -8
t43 -31l213 -192q20 -17 20 -39q0 -19 -18 -37l-41 -45q-17 -20 -37 -20q-17 0 -39 16z" />
    <glyph glyph-name="Cdotaccent" unicode="&#x10a;" horiz-adv-x="1492" 
d="M1280 371l88 -72q31 -27 31 -53q0 -9 -2 -15q-3 -12 -11.5 -24.5t-23.5 -26.5t-25 -22.5t-28.5 -23t-20.5 -15.5q-200 -144 -463 -144q-221 0 -393.5 96.5t-267 265.5t-94.5 380t94.5 380t267 265t393.5 96q207 0 383 -92q124 -71 174 -143q15 -18 15 -37q0 -25 -29 -51
l-88 -72q-26 -23 -51 -23q-19 0 -41 19q-75 71 -169 111t-194 40q-211 0 -346 -139t-135 -354t135 -354.5t346 -139.5q101 0 194.5 40t168.5 112q21 18 41 18q26 0 51 -22zM801 1911q63 0 110 -47.5t47 -110.5t-47 -110.5t-110 -47.5q-64 0 -111 47.5t-47 110.5t47 110.5
t111 47.5z" />
    <glyph glyph-name="cdotaccent" unicode="&#x10b;" horiz-adv-x="1122" 
d="M946 287l74 -70q24 -21 24 -45q0 -12 -10 -29q-29 -42 -98 -86q-140 -82 -309 -82q-240 0 -397.5 151.5t-157.5 385.5t157.5 385.5t397.5 151.5q119 0 229 -43q106 -43 168 -111q20 -20 20 -41q0 -26 -24 -47l-74 -70q-21 -18 -41 -18q-23 0 -43 20l-49 35
q-85 51 -186 51q-130 0 -215.5 -89.5t-85.5 -223.5t85.5 -223.5t215.5 -89.5q81 0 151 30q42 19 94 64q15 12 33 12q23 0 41 -18zM598 1532q64 0 111 -47.5t47 -110.5t-47 -110t-111 -47q-63 0 -110.5 47t-47.5 110t47.5 110.5t110.5 47.5z" />
    <glyph glyph-name="Ccaron" unicode="&#x10c;" horiz-adv-x="1492" 
d="M1280 371l88 -72q31 -27 31 -53q0 -9 -2 -15q-3 -12 -11.5 -24.5t-23.5 -26.5t-25 -22.5t-28.5 -23t-20.5 -15.5q-200 -144 -463 -144q-221 0 -393.5 96.5t-267 265.5t-94.5 380t94.5 380t267 265t393.5 96q207 0 383 -92q124 -71 174 -143q15 -18 15 -37q0 -25 -29 -51
l-88 -72q-26 -23 -51 -23q-19 0 -41 19q-75 71 -169 111t-194 40q-211 0 -346 -139t-135 -354t135 -354.5t346 -139.5q101 0 194.5 40t168.5 112q21 18 41 18q26 0 51 -22zM801 1704l219 188q20 17 37 17q21 0 39 -21l41 -45q16 -19 16 -37q0 -22 -20 -39l-211 -192
q-26 -23 -44.5 -31t-50.5 -8h-57q-31 0 -49.5 8t-44.5 31l-211 192q-21 18 -21 37q0 20 19 39l41 45q18 21 39 21q13 0 37 -17z" />
    <glyph glyph-name="ccaron" unicode="&#x10d;" horiz-adv-x="1122" 
d="M946 287l74 -70q24 -21 24 -45q0 -12 -10 -29q-29 -42 -98 -86q-140 -82 -309 -82q-240 0 -397.5 151.5t-157.5 385.5t157.5 385.5t397.5 151.5q119 0 229 -43q106 -43 168 -111q20 -20 20 -41q0 -26 -24 -47l-74 -70q-21 -18 -41 -18q-23 0 -43 20l-49 35
q-85 51 -186 51q-130 0 -215.5 -89.5t-85.5 -223.5t85.5 -223.5t215.5 -89.5q81 0 151 30q42 19 94 64q15 12 33 12q23 0 41 -18zM598 1325l219 188q24 17 39 17q19 0 37 -21l41 -45q18 -18 18 -37q0 -21 -20 -38l-213 -193q-24 -23 -42.5 -31t-49.5 -8h-58q-31 0 -50.5 8.5
t-43.5 30.5l-211 193q-20 17 -20 38q0 18 16 37l43 45q18 21 37 21q17 0 37 -17z" />
    <glyph glyph-name="Dcaron" unicode="&#x10e;" horiz-adv-x="1589" 
d="M246 1434h483q355 0 562.5 -194.5t207.5 -522.5t-207.5 -522.5t-562.5 -194.5h-483q-74 0 -74 74v1286q0 74 74 74zM438 1202v-971h301q224 0 355 133.5t131 352.5t-131 352t-355 133h-301zM756 1704l219 188q24 17 39 17q19 0 37 -21l41 -45q18 -18 18 -37
q0 -22 -20 -39l-213 -192q-24 -23 -43 -31t-50 -8h-57q-31 0 -50.5 8.5t-43.5 30.5l-211 192q-21 18 -21 39q0 17 17 37l43 45q18 21 37 21q17 0 37 -17z" />
    <glyph glyph-name="dcaron" unicode="&#x10f;" horiz-adv-x="1593" 
d="M913 891v518q0 31 12.5 47t41.5 25l127 37q8 2 20 2q45 0 45 -52v-1402q0 -66 -65 -66h-84q-66 0 -66 61v91q-65 -86 -158.5 -131.5t-207.5 -45.5q-228 0 -367 148.5t-139 388.5t139 388.5t367 148.5q98 0 186.5 -42t148.5 -116zM627 199q130 0 213.5 88.5t83.5 224.5
t-83.5 224.5t-213.5 88.5t-215.5 -89t-85.5 -224t85.5 -224t215.5 -89zM1374 1135l94 350q7 28 22.5 39.5t43.5 11.5h141q45 0 45 -39q0 -4 -4 -20l-135 -355q-10 -27 -25 -37t-45 -10h-90q-23 0 -36 11t-13 30q0 13 2 19z" />
    <glyph glyph-name="Dcroat" unicode="&#x110;" horiz-adv-x="1671" 
d="M254 625h-84q-70 0 -70 69v56q0 69 70 69h84v541q0 74 74 74h483q355 0 562.5 -194.5t207.5 -522.5t-207.5 -522.5t-562.5 -194.5h-483q-74 0 -74 74v551zM520 1202v-383h273q69 0 69 -69v-56q0 -69 -69 -69h-273v-394h301q224 0 355 133.5t131 352.5t-131 352t-355 133
h-301z" />
    <glyph glyph-name="dcroat" unicode="&#x111;" horiz-adv-x="1327" 
d="M913 1171h-278q-60 0 -60 60v51q0 59 60 59h278v68q0 31 12.5 47t41.5 25l127 37q8 2 20 2q45 0 45 -52v-127h125q59 0 59 -59v-51q0 -60 -59 -60h-125v-1105q0 -66 -65 -66h-84q-66 0 -66 61v91q-65 -86 -158.5 -131.5t-207.5 -45.5q-228 0 -367 148.5t-139 388.5
t139 388.5t367 148.5q98 0 186.5 -42t148.5 -116v280zM627 199q130 0 213.5 88.5t83.5 224.5t-83.5 224.5t-213.5 88.5t-215.5 -89t-85.5 -224t85.5 -224t215.5 -89z" />
    <glyph glyph-name="Emacron" unicode="&#x112;" horiz-adv-x="1236" 
d="M434 1208v-387h484q38 0 55.5 -17.5t17.5 -55.5v-72q0 -38 -17.5 -56t-55.5 -18h-484v-377h658q38 0 55.5 -17.5t17.5 -55.5v-78q0 -38 -17.5 -56t-55.5 -18h-846q-74 0 -74 74v1286q0 74 74 74h825q74 0 74 -74v-78q0 -74 -74 -74h-637zM385 1812h567q54 0 54 -53v-78
q0 -53 -54 -53h-567q-53 0 -53 53v78q0 53 53 53z" />
    <glyph glyph-name="emacron" unicode="&#x113;" horiz-adv-x="1196" 
d="M1059 432h-735q6 -112 86 -186q80 -68 206 -68q112 0 191 39q22 8 72 43q31 21 51 21q19 0 39 -17l61 -49q29 -23 29 -45q0 -18 -23 -41q-78 -74 -191.5 -114t-234.5 -40q-234 0 -386 151.5t-152 385.5t152 385.5t386 151.5q151 0 268.5 -71t181.5 -195t64 -279v-12
q0 -60 -65 -60zM328 594h544q-7 119 -81 190q-74 74 -181 74q-119 0 -194 -72q-79 -76 -88 -192zM315 1434h566q53 0 53 -54v-77q0 -54 -53 -54h-566q-55 0 -55 54v77q0 54 55 54z" />
    <glyph glyph-name="Ebreve" unicode="&#x114;" horiz-adv-x="1236" 
d="M434 1208v-387h484q38 0 55.5 -17.5t17.5 -55.5v-72q0 -38 -17.5 -56t-55.5 -18h-484v-377h658q38 0 55.5 -17.5t17.5 -55.5v-78q0 -38 -17.5 -56t-55.5 -18h-846q-74 0 -74 74v1286q0 74 74 74h825q74 0 74 -74v-78q0 -74 -74 -74h-637zM868 1878h78q51 0 51 -45
q0 -54 -21 -106.5t-58 -90.5q-86 -86 -246 -86q-164 0 -246 86q-38 38 -60 90.5t-22 106.5q0 45 51 45h78q27 0 39.5 -12.5t15.5 -36.5q8 -63 43.5 -100t100.5 -37t100 37t43 100q7 49 53 49z" />
    <glyph glyph-name="ebreve" unicode="&#x115;" horiz-adv-x="1196" 
d="M1059 432h-735q6 -112 86 -186q80 -68 206 -68q112 0 191 39q22 8 72 43q31 21 51 21q19 0 39 -17l61 -49q29 -23 29 -45q0 -18 -23 -41q-78 -74 -191.5 -114t-234.5 -40q-234 0 -386 151.5t-152 385.5t152 385.5t386 151.5q151 0 268.5 -71t181.5 -195t64 -279v-12
q0 -60 -65 -60zM328 594h544q-7 119 -81 190q-74 74 -181 74q-119 0 -194 -72q-79 -76 -88 -192zM797 1499h77q54 0 54 -45q0 -53 -22.5 -105.5t-59.5 -91.5q-86 -86 -246 -86t-246 86q-37 39 -59.5 91.5t-22.5 105.5q0 45 54 45h77q47 0 54 -49q8 -63 43 -100t100 -37
t100 37t43 100q7 49 54 49z" />
    <glyph glyph-name="Edotaccent" unicode="&#x116;" horiz-adv-x="1236" 
d="M434 1208v-387h484q38 0 55.5 -17.5t17.5 -55.5v-72q0 -38 -17.5 -56t-55.5 -18h-484v-377h658q38 0 55.5 -17.5t17.5 -55.5v-78q0 -38 -17.5 -56t-55.5 -18h-846q-74 0 -74 74v1286q0 74 74 74h825q74 0 74 -74v-78q0 -74 -74 -74h-637zM670 1911q63 0 110 -47.5
t47 -110.5t-47 -110.5t-110 -47.5q-64 0 -111 47.5t-47 110.5t47 110.5t111 47.5z" />
    <glyph glyph-name="edotaccent" unicode="&#x117;" horiz-adv-x="1196" 
d="M1059 432h-735q6 -112 86 -186q80 -68 206 -68q112 0 191 39q22 8 72 43q31 21 51 21q19 0 39 -17l61 -49q29 -23 29 -45q0 -18 -23 -41q-78 -74 -191.5 -114t-234.5 -40q-234 0 -386 151.5t-152 385.5t152 385.5t386 151.5q151 0 268.5 -71t181.5 -195t64 -279v-12
q0 -60 -65 -60zM328 594h544q-7 119 -81 190q-74 74 -181 74q-119 0 -194 -72q-79 -76 -88 -192zM598 1532q63 0 110.5 -47.5t47.5 -110.5t-47.5 -110t-110.5 -47t-110.5 47t-47.5 110t47.5 110.5t110.5 47.5z" />
    <glyph glyph-name="Eogonek" unicode="&#x118;" horiz-adv-x="1236" 
d="M434 602v-377h658q38 0 55.5 -17.5t17.5 -55.5v-95q0 -30 -6 -47.5t-26 -29.5q-10 -7 -30 -20t-33 -22t-29.5 -22t-28.5 -25q-60 -60 -60 -127q0 -51 36 -77.5t104 -26.5q18 0 30 2q8 2 27 2q34 0 37 -39l6 -41q7 -51 -37 -59q-23 -6 -70 -6q-150 0 -226.5 61.5
t-74.5 177.5q1 79 56 141.5t135 100.5h-729q-74 0 -74 74v1286q0 74 74 74h825q74 0 74 -74v-78q0 -74 -74 -74h-637v-387h484q38 0 55.5 -17.5t17.5 -55.5v-72q0 -38 -17.5 -56t-55.5 -18h-484z" />
    <glyph glyph-name="eogonek" unicode="&#x119;" horiz-adv-x="1196" 
d="M969 264l61 -49q29 -23 29 -45q0 -18 -23 -41q-102 -94 -264 -135q-102 -62 -147 -105q-53 -53 -56 -125q0 -51 36 -77.5t104 -26.5q5 0 25.5 2t29.5 2q22 0 29 -6.5t10 -32.5l6 -41q7 -51 -37 -59q-23 -6 -70 -6q-150 0 -226.5 61.5t-76.5 177.5q5 130 150 222
q-131 13 -223 69q-147 84 -211 244q-40 92 -43 219q0 234 152 385.5t386 151.5q151 0 268.5 -71t181.5 -195t64 -279v-12q0 -60 -65 -60h-735q6 -112 86 -186q80 -68 206 -68q112 0 191 39q22 8 72 43q31 21 51 21q19 0 39 -17zM328 594h544q-7 119 -81 190q-74 74 -181 74
q-119 0 -194 -72q-79 -76 -88 -192z" />
    <glyph glyph-name="Ecaron" unicode="&#x11a;" horiz-adv-x="1236" 
d="M434 1208v-387h484q38 0 55.5 -17.5t17.5 -55.5v-72q0 -38 -17.5 -56t-55.5 -18h-484v-377h658q38 0 55.5 -17.5t17.5 -55.5v-78q0 -38 -17.5 -56t-55.5 -18h-846q-74 0 -74 74v1286q0 74 74 74h825q74 0 74 -74v-78q0 -74 -74 -74h-637zM670 1704l219 188q24 17 39 17
q19 0 37 -21l41 -45q18 -18 18 -37q0 -22 -20 -39l-213 -192q-24 -23 -43 -31t-50 -8h-57q-31 0 -50.5 8.5t-43.5 30.5l-211 192q-21 18 -21 39q0 17 17 37l43 45q18 21 37 21q17 0 37 -17z" />
    <glyph glyph-name="ecaron" unicode="&#x11b;" horiz-adv-x="1196" 
d="M1059 432h-735q6 -112 86 -186q80 -68 206 -68q112 0 191 39q22 8 72 43q31 21 51 21q19 0 39 -17l61 -49q29 -23 29 -45q0 -18 -23 -41q-78 -74 -191.5 -114t-234.5 -40q-234 0 -386 151.5t-152 385.5t152 385.5t386 151.5q151 0 268.5 -71t181.5 -195t64 -279v-12
q0 -60 -65 -60zM328 594h544q-7 119 -81 190q-74 74 -181 74q-119 0 -194 -72q-79 -76 -88 -192zM600 1325l219 188q20 17 37 17q21 0 39 -21l41 -45q16 -19 16 -37q0 -21 -20 -38l-211 -193q-26 -23 -44 -31t-50 -8h-58q-31 0 -49.5 8t-44.5 31l-211 193q-20 17 -20 36
q0 21 18 39l41 45q18 21 39 21q13 0 37 -17z" />
    <glyph glyph-name="Gcircumflex" unicode="&#x11c;" horiz-adv-x="1529" 
d="M803 1761l-221 -188q-24 -17 -37 -17q-21 0 -39 21l-41 45q-19 19 -19 39q0 19 21 37l211 192q26 23 44.5 31t49.5 8h57q32 0 50.5 -8t44.5 -31l211 -192q20 -17 20 -39q0 -18 -16 -37l-41 -45q-18 -21 -39 -21q-17 0 -37 17zM1149 580h-311q-38 0 -56 17.5t-18 55.5v74
q0 74 74 74h497q74 0 74 -74v-412q0 -46 -7.5 -74t-33.5 -57q-62 -69 -186 -131q-166 -78 -365 -78q-218 0 -389 96.5t-264.5 265.5t-93.5 380t93.5 380t264.5 265t389 96q244 0 436 -123q88 -51 103 -92q2 -6 2 -16q0 -27 -31 -51l-92 -76q-31 -21 -53 -21q-19 0 -37 15
q-145 123 -328 123q-211 0 -342 -140t-131 -360t131 -360t342 -140q192 0 332 119v244z" />
    <glyph glyph-name="gcircumflex" unicode="&#x11d;" horiz-adv-x="1273" 
d="M600 1382l-221 -188q-22 -16 -37 -16q-22 0 -39 20l-41 45q-18 18 -18 39q0 20 20 37l211 192q26 23 44.5 31t49.5 8h58q32 0 50 -8t44 -31l211 -192q20 -17 20 -39q0 -18 -16 -37l-41 -45q-17 -20 -39 -20q-18 0 -37 16zM883 -2v170q-56 -71 -139.5 -109.5t-184.5 -38.5
q-216 0 -351 140.5t-134 374.5q0 234 134.5 374t350.5 140q225 0 348 -166v80q0 61 66 61h84q65 0 65 -66v-970q0 -194 -139.5 -308t-384.5 -114q-249 0 -424 112q-37 24 -37 54q0 19 8 35l27 65q16 39 47 39q16 0 29 -8q62 -41 133 -66q98 -39 217 -39q285 0 285 240z
M608 238q125 0 207 84t82 213t-82 212.5t-207 83.5t-207 -83.5t-82 -212.5t82 -213t207 -84z" />
    <glyph glyph-name="Gbreve" unicode="&#x11e;" horiz-adv-x="1529" 
d="M999 1878h78q51 0 51 -45q0 -54 -21 -106.5t-58 -90.5q-86 -86 -246 -86q-164 0 -246 86q-38 38 -60 90.5t-22 106.5q0 45 51 45h78q27 0 39.5 -12.5t15.5 -36.5q8 -63 43.5 -100t100.5 -37t100 37t43 100q7 49 53 49zM1149 580h-311q-38 0 -56 17.5t-18 55.5v74
q0 74 74 74h497q74 0 74 -74v-412q0 -46 -7.5 -74t-33.5 -57q-62 -69 -186 -131q-166 -78 -365 -78q-218 0 -389 96.5t-264.5 265.5t-93.5 380t93.5 380t264.5 265t389 96q244 0 436 -123q88 -51 103 -92q2 -6 2 -16q0 -27 -31 -51l-92 -76q-31 -21 -53 -21q-19 0 -37 15
q-145 123 -328 123q-211 0 -342 -140t-131 -360t131 -360t342 -140q192 0 332 119v244z" />
    <glyph glyph-name="gbreve" unicode="&#x11f;" horiz-adv-x="1273" 
d="M883 -2v170q-56 -71 -139.5 -109.5t-184.5 -38.5q-216 0 -351 140.5t-134 374.5q0 234 134.5 374t350.5 140q225 0 348 -166v80q0 61 66 61h84q65 0 65 -66v-970q0 -194 -139.5 -308t-384.5 -114q-249 0 -424 112q-37 24 -37 54q0 19 8 35l27 65q16 39 47 39q16 0 29 -8
q62 -41 133 -66q98 -39 217 -39q285 0 285 240zM608 238q125 0 207 84t82 213t-82 212.5t-207 83.5t-207 -83.5t-82 -212.5t82 -213t207 -84zM799 1499h78q53 0 53 -45q0 -53 -22.5 -105.5t-59.5 -91.5q-86 -86 -246 -86t-246 86q-37 39 -59.5 91.5t-22.5 105.5q0 45 54 45
h78q46 0 53 -49q8 -63 43 -100t100 -37t100 37t43 100q7 49 54 49z" />
    <glyph glyph-name="Gdotaccent" unicode="&#x120;" horiz-adv-x="1529" 
d="M801 1911q63 0 110 -47.5t47 -110.5t-47 -110.5t-110 -47.5t-110.5 47.5t-47.5 110.5t47.5 110.5t110.5 47.5zM1149 580h-311q-38 0 -56 17.5t-18 55.5v74q0 74 74 74h497q74 0 74 -74v-412q0 -46 -7.5 -74t-33.5 -57q-62 -69 -186 -131q-166 -78 -365 -78
q-218 0 -389 96.5t-264.5 265.5t-93.5 380t93.5 380t264.5 265t389 96q244 0 436 -123q88 -51 103 -92q2 -6 2 -16q0 -27 -31 -51l-92 -76q-31 -21 -53 -21q-19 0 -37 15q-145 123 -328 123q-211 0 -342 -140t-131 -360t131 -360t342 -140q192 0 332 119v244z" />
    <glyph glyph-name="gdotaccent" unicode="&#x121;" horiz-adv-x="1273" 
d="M883 -2v170q-56 -71 -139.5 -109.5t-184.5 -38.5q-216 0 -351 140.5t-134 374.5q0 234 134.5 374t350.5 140q225 0 348 -166v80q0 61 66 61h84q65 0 65 -66v-970q0 -194 -139.5 -308t-384.5 -114q-249 0 -424 112q-37 24 -37 54q0 19 8 35l27 65q16 39 47 39q16 0 29 -8
q62 -41 133 -66q98 -39 217 -39q285 0 285 240zM608 238q125 0 207 84t82 213t-82 212.5t-207 83.5t-207 -83.5t-82 -212.5t82 -213t207 -84zM598 1532q63 0 110.5 -47.5t47.5 -110.5t-47.5 -110t-110.5 -47q-64 0 -111 47t-47 110t47 110.5t111 47.5z" />
    <glyph glyph-name="Gcommaaccent" unicode="&#x122;" horiz-adv-x="1529" 
d="M645 -164l39 150q-224 31 -383 178q-148 136 -203 338q-26 94 -26 215q-1 211 92 380t264 265t389 96q244 0 436 -123q88 -51 103 -92q2 -6 2 -16q0 -27 -31 -51l-92 -76q-31 -21 -53 -21q-19 0 -37 15q-145 123 -328 123q-211 0 -342 -140t-131 -360t131 -360t342 -140
q192 0 332 119v244h-311q-38 0 -56 17.5t-18 55.5v74q0 74 74 74h497q74 0 74 -74v-412q0 -46 -7.5 -74t-33.5 -57q-64 -72 -186 -129q-149 -72 -328 -78l-14 -65q96 -12 147 -60t51 -131q0 -95 -76 -148.5t-204 -53.5q-99 0 -189 41q-34 12 -34 43q0 12 6 24l14 31
q13 33 43 33q10 0 16 -2q85 -29 144 -29q106 0 106 61q0 60 -110 60h-70q-41 0 -41 37q0 12 2 18z" />
    <glyph glyph-name="gcommaaccent" unicode="&#x123;" horiz-adv-x="1273" 
d="M883 -2v170q-56 -71 -139.5 -109.5t-184.5 -38.5q-216 0 -351 140.5t-134 374.5q0 234 134.5 374t350.5 140q225 0 348 -166v80q0 61 66 61h84q65 0 65 -66v-970q0 -194 -139.5 -308t-384.5 -114q-249 0 -424 112q-37 24 -37 54q0 19 8 35l27 65q16 39 47 39q16 0 29 -8
q62 -41 133 -66q98 -39 217 -39q285 0 285 240zM608 238q125 0 207 84t82 213t-82 212.5t-207 83.5t-207 -83.5t-82 -212.5t82 -213t207 -84zM690 1626l15 -16q14 -14 14 -31q0 -14 -10 -27q-27 -30 -43 -61q-16 -36 -21 -70q49 -9 80 -46t31 -85q0 -57 -39 -97t-96 -40
t-95.5 40t-40.5 97q0 93 37 184.5t103 153.5q14 14 32 14q17 0 33 -16z" />
    <glyph glyph-name="Hcircumflex" unicode="&#x124;" horiz-adv-x="1572" 
d="M438 606v-532q0 -38 -17.5 -56t-55.5 -18h-119q-74 0 -74 74v1286q0 74 74 74h119q38 0 55.5 -18t17.5 -56v-522h697v522q0 38 17.5 56t55.5 18h119q74 0 74 -74v-1286q0 -74 -74 -74h-119q-38 0 -55.5 18t-17.5 56v532h-697zM786 1761l-221 -188q-20 -17 -37 -17
q-18 0 -36 21l-43 45q-17 20 -17 37q0 21 21 39l211 192q24 22 43.5 30.5t50.5 8.5h57q31 0 49.5 -8t42.5 -31l213 -192q21 -18 21 -39q0 -18 -19 -37l-41 -45q-18 -21 -37 -21q-14 0 -38 17z" />
    <glyph glyph-name="hcircumflex" unicode="&#x125;" horiz-adv-x="1273" 
d="M397 1468v-581q45 76 131.5 119t204.5 43q187 0 295.5 -118.5t108.5 -316.5v-548q0 -66 -66 -66h-127q-65 0 -65 66v507q0 118 -59 185t-167 67q-119 0 -181 -68.5t-62 -183.5v-507q0 -66 -66 -66h-127q-65 0 -65 66v1345q0 31 12 47t41 23l127 37q8 2 20 2q45 0 45 -52z
M289 1761l-221 -188q-24 -17 -37 -17q-21 0 -39 21l-41 45q-19 19 -19 39q0 19 21 37l211 192q26 23 44.5 31t49.5 8h57q32 0 50.5 -8t44.5 -31l211 -192q20 -17 20 -39q0 -18 -16 -37l-41 -45q-18 -21 -39 -21q-17 0 -37 17z" />
    <glyph glyph-name="Hbar" unicode="&#x126;" horiz-adv-x="1572" 
d="M438 606v-532q0 -38 -17.5 -56t-55.5 -18h-119q-74 0 -74 74v1286q0 74 74 74h119q38 0 55.5 -18t17.5 -56v-522h697v522q0 38 17.5 56t55.5 18h119q74 0 74 -74v-1286q0 -74 -74 -74h-119q-38 0 -55.5 18t-17.5 56v532h-697zM504 1812h567q53 0 53 -53v-78
q0 -53 -53 -53h-567q-53 0 -53 53v78q0 53 53 53z" />
    <glyph glyph-name="hbar" unicode="&#x127;" horiz-adv-x="1290" 
d="M414 1171v-301q45 85 131.5 132t204.5 47q187 0 295 -118.5t108 -316.5v-555q0 -59 -59 -59h-140q-59 0 -59 59v514q0 118 -58.5 185t-166.5 67q-119 0 -181.5 -69t-62.5 -183v-514q0 -59 -59 -59h-140q-59 0 -59 59v1112h-125q-59 0 -59 60v51q0 59 59 59h125v74
q0 52 49 66l137 39q6 2 19 2q19 0 30 -13t11 -36v-132h278q60 0 60 -59v-51q0 -60 -60 -60h-278z" />
    <glyph glyph-name="Itilde" unicode="&#x128;" horiz-adv-x="610" 
d="M438 1360v-1286q0 -38 -17.5 -56t-55.5 -18h-119q-74 0 -74 74v1286q0 74 74 74h119q38 0 55.5 -18t17.5 -56zM74 1587h-72q-31 0 -42 16.5t-9 49.5q7 108 65 166q56 53 144 53q30 -1 62.5 -13t50 -22.5t50.5 -32.5l9 -6q64 -49 100 -49q18 0 29.5 13.5t14 24t7.5 34.5
q10 43 56 43h73q52 0 52 -45q0 -105 -58 -172q-54 -66 -153 -66q-33 0 -66.5 12.5t-54.5 25.5t-51 36q-26 18 -37 24.5t-29 14.5t-33 8q-19 0 -31 -12t-15.5 -25.5t-6.5 -34.5q-10 -43 -55 -43z" />
    <glyph glyph-name="itilde" unicode="&#x129;" horiz-adv-x="561" 
d="M217 1024h129q64 0 64 -66v-892q0 -66 -64 -66h-129q-65 0 -65 66v892q0 66 65 66zM49 1208h-72q-31 0 -42 16.5t-9 49.5q7 107 66 166q56 53 143 53q30 -1 62.5 -13t50 -22.5t50.5 -32.5l9 -6q64 -49 101 -49q18 0 29.5 13.5t14 24t7.5 34.5q10 43 55 43h74q51 0 51 -45
q0 -106 -57 -172q-54 -66 -154 -66q-33 0 -66.5 12.5t-54.5 25.5t-51 36q-59 40 -82 45q-8 2 -16 2q-45 0 -54 -72q-10 -43 -55 -43z" />
    <glyph glyph-name="Imacron" unicode="&#x12a;" horiz-adv-x="610" 
d="M438 1360v-1286q0 -38 -17.5 -56t-55.5 -18h-119q-74 0 -74 74v1286q0 74 74 74h119q38 0 55.5 -18t17.5 -56zM20 1812h568q53 0 53 -53v-78q0 -53 -53 -53h-568q-53 0 -53 53v78q0 53 53 53z" />
    <glyph glyph-name="imacron" unicode="&#x12b;" horiz-adv-x="561" 
d="M215 1024h129q66 0 66 -66v-892q0 -66 -66 -66h-129q-63 0 -63 66v892q0 66 63 66zM-4 1434h567q53 0 53 -54v-77q0 -54 -53 -54h-567q-53 0 -53 54v77q0 54 53 54z" />
    <glyph glyph-name="Ibreve" unicode="&#x12c;" horiz-adv-x="610" 
d="M438 1360v-1286q0 -38 -17.5 -56t-55.5 -18h-119q-74 0 -74 74v1286q0 74 74 74h119q38 0 55.5 -18t17.5 -56zM504 1878h78q51 0 51 -45q0 -54 -21.5 -106t-58.5 -91q-86 -86 -246 -86q-164 0 -246 86q-81 81 -81 197q0 45 51 45h78q27 0 39.5 -12.5t15.5 -36.5
q8 -63 43 -100t100 -37t100.5 37t43.5 100q7 49 53 49z" />
    <glyph glyph-name="ibreve" unicode="&#x12d;" horiz-adv-x="561" 
d="M215 1024h129q66 0 66 -66v-892q0 -66 -66 -66h-129q-63 0 -63 66v892q0 66 63 66zM479 1499h78q51 0 51 -45q0 -54 -21.5 -106t-58.5 -91q-86 -86 -245 -86q-164 0 -246 86q-38 38 -60 90.5t-22 106.5q0 45 51 45h78q27 0 39.5 -12.5t15.5 -36.5q8 -63 43.5 -100
t100.5 -37t100 37t43 100q7 49 53 49z" />
    <glyph glyph-name="Iogonek" unicode="&#x12e;" horiz-adv-x="610" 
d="M248 0h-2q-74 0 -74 74v1286q0 74 74 74h119q38 0 55.5 -18t17.5 -56v-1305q0 -30 -8.5 -47.5t-32.5 -32.5q-37 -23 -60.5 -40t-53 -44.5t-44.5 -59.5t-14 -67q0 -51 36 -77.5t104 -26.5q52 0 88 16l18 -141q-44 -16 -113 -16q-150 0 -226.5 61.5t-76.5 177.5
q3 81 57 143t136 99z" />
    <glyph glyph-name="iogonek" unicode="&#x12f;" horiz-adv-x="565" 
d="M221 0h-2q-65 0 -65 66v892q0 66 65 66h127q66 0 66 -66v-905q0 -30 -8 -46.5t-31 -31.5q-31 -19 -48.5 -30.5t-45.5 -34t-42.5 -42t-26.5 -47.5t-11 -57q0 -104 139 -104h18q12 4 37 4q22 0 29 -6.5t10 -32.5l6 -41q7 -51 -37 -59q-23 -6 -69 -6q-150 0 -226.5 61.5
t-76.5 177.5q3 81 57 143t135 99zM283 1532q63 0 110 -47.5t47 -110.5t-47 -110t-110 -47t-110.5 47t-47.5 110t47.5 110.5t110.5 47.5z" />
    <glyph glyph-name="Idotaccent" unicode="&#x130;" horiz-adv-x="610" 
d="M438 1360v-1286q0 -74 -71 -74h-121q-74 0 -74 74v1286q0 74 74 74h121q71 0 71 -74zM305 1911q63 0 110.5 -47.5t47.5 -110.5t-47.5 -110.5t-110.5 -47.5t-110.5 47.5t-47.5 110.5t47.5 110.5t110.5 47.5z" />
    <glyph glyph-name="dotlessi" unicode="&#x131;" horiz-adv-x="561" 
d="M217 1024h127q66 0 66 -66v-892q0 -66 -66 -66h-127q-65 0 -65 66v892q0 66 65 66z" />
    <glyph glyph-name="IJ" unicode="&#x132;" horiz-adv-x="1751" 
d="M438 1360v-1286q0 -38 -17.5 -56t-55.5 -18h-119q-74 0 -74 74v1286q0 74 74 74h119q38 0 55.5 -18t17.5 -56zM1323 451v909q0 74 72 74h121q38 0 55.5 -18t17.5 -56v-920q0 -238 -129.5 -351.5t-359.5 -113.5q-220 0 -373 121q-70 56 -80 90q-2 4 -2 13q0 19 21 47
l47 61q25 31 51 31q19 0 41 -19q72 -61 132.5 -86.5t149.5 -25.5q114 0 175 54t61 190z" />
    <glyph glyph-name="ij" unicode="&#x133;" horiz-adv-x="1169" 
d="M219 1024h127q66 0 66 -66v-892q0 -66 -66 -66h-127q-65 0 -65 66v892q0 66 65 66zM283 1532q63 0 110 -47.5t47 -110.5t-47 -110t-110 -47t-110.5 47t-47.5 110t47.5 110.5t110.5 47.5zM887 1532q63 0 110 -47.5t47 -110.5t-47 -110t-110 -47t-110.5 47t-47.5 110
t47.5 110.5t110.5 47.5zM614 -373l-22 78q-4 20 -4 27q0 33 30 45q50 21 84 73q56 87 56 197v911q0 66 65 66h129q64 0 64 -66v-911q0 -183 -64 -293q-73 -123 -252 -170q-18 -6 -32 -6q-41 0 -54 49z" />
    <glyph glyph-name="Jcircumflex" unicode="&#x134;" horiz-adv-x="1146" 
d="M719 451v909q0 74 72 74h120q74 0 74 -74v-920q0 -238 -129.5 -351.5t-359.5 -113.5q-220 0 -373 121q-70 56 -80 90q-2 4 -2 13q0 20 20 47l48 61q25 31 51 31q18 0 43 -19q70 -61 130.5 -86.5t149.5 -25.5q114 0 175 54t61 190zM852 1761l-221 -188q-20 -17 -37 -17
q-19 0 -37 21l-43 45q-16 19 -16 37q0 22 20 39l211 192q24 22 43.5 30.5t50.5 8.5h58q31 0 49.5 -8t42.5 -31l213 -192q18 -18 18 -39q0 -18 -16 -37l-41 -45q-18 -21 -39 -21q-17 0 -37 17z" />
    <glyph glyph-name="jcircumflex" unicode="&#x135;" horiz-adv-x="577" 
d="M424 958v-911q0 -184 -64 -291q-73 -125 -251 -172q-18 -6 -33 -6q-40 0 -53 49l-23 78q-4 16 -4 25q0 37 39 51q54 21 88 80q43 72 43 186v911q0 66 65 66h129q64 0 64 -66zM293 1382l-221 -188q-22 -16 -37 -16q-22 0 -39 20l-41 45q-18 18 -18 39q0 20 20 37l211 192
q26 23 44.5 31t49.5 8h57q32 0 50.5 -8t44.5 -31l211 -192q20 -17 20 -39q0 -18 -16 -37l-41 -45q-17 -20 -39 -20q-18 0 -37 16z" />
    <glyph glyph-name="Kcommaaccent" unicode="&#x136;" horiz-adv-x="1413" 
d="M784 809l549 -746q10 -17 10 -28q0 -35 -40 -35h-189q-40 0 -60.5 10.5t-43.5 44.5l-396 563l-176 -196v-348q0 -38 -17.5 -56t-55.5 -18h-119q-74 0 -74 74v1286q0 74 74 74h119q38 0 55.5 -18t17.5 -56v-600l525 618q28 34 50 45t64 11h183q18 0 29 -9.5t11 -23.5
q0 -15 -12 -27zM629 -668l-15 17q-14 14 -14 30q0 14 10 27q25 28 43 62q16 36 21 69q-49 9 -80 46t-31 85q0 57 39 97t96 40t95.5 -40t40.5 -97q0 -93 -37 -184.5t-103 -153.5q-14 -14 -32 -14q-17 0 -33 16z" />
    <glyph glyph-name="kcommaaccent" unicode="&#x137;" horiz-adv-x="1155" 
d="M410 301v-235q0 -66 -66 -66h-127q-65 0 -65 66v1343q0 31 12 47t41 25l127 37q8 2 20 2q45 0 45 -52v-921l394 430q28 30 47.5 38.5t58.5 8.5h150q16 0 25 -8t9 -19t-10 -24l-348 -402l383 -516q10 -13 10 -26q0 -12 -10.5 -20.5t-28.5 -8.5h-176q-35 0 -53.5 9.5
t-38.5 37.5l-270 389zM541 -668l-15 17q-14 14 -14 30q0 14 10 27q25 28 43 62q16 36 21 69q-49 9 -80 46t-31 85q0 57 39 97t96 40q56 0 94.5 -39.5t40.5 -97.5q0 -93 -36.5 -185t-102.5 -153q-14 -14 -33 -14q-16 0 -32 16z" />
    <glyph glyph-name="kgreenlandic" unicode="&#x138;" horiz-adv-x="1155" 
d="M410 301v-235q0 -66 -66 -66h-127q-65 0 -65 66v892q0 66 65 66h115q65 0 65 -66v-411l394 430q28 30 47.5 38.5t58.5 8.5h150q34 0 34 -29q0 -14 -10 -24l-348 -400l383 -516q10 -13 10 -24q0 -14 -10.5 -22.5t-28.5 -8.5h-176q-35 0 -53.5 9.5t-38.5 37.5l-270 389z
" />
    <glyph glyph-name="Lacute" unicode="&#x139;" horiz-adv-x="1142" 
d="M438 231h582q38 0 56 -17.5t18 -55.5v-84q0 -74 -74 -74h-774q-74 0 -74 74v1286q0 74 74 74h119q38 0 55.5 -18t17.5 -56v-1129zM403 1571l-32 39q-17 20 -17 35q0 18 23 38l237 211q20 17 37 17q19 0 37 -21l64 -71q16 -19 16 -35q0 -18 -25 -37l-266 -186
q-19 -13 -33 -13q-21 0 -41 23z" />
    <glyph glyph-name="lacute" unicode="&#x13a;" horiz-adv-x="561" 
d="M410 1468v-1402q0 -66 -64 -66h-129q-65 0 -65 66v1347q0 31 12 47t43 23l139 37q6 2 19 2q21 0 33 -14.5t12 -39.5zM195 1571l-33 39q-17 20 -17 35q0 18 23 38l238 211q20 17 36 17q19 0 37 -21l64 -71q14 -17 14 -35t-22 -37l-267 -186q-19 -13 -35 -13q-18 0 -38 23z
" />
    <glyph glyph-name="Lcommaaccent" unicode="&#x13b;" horiz-adv-x="1142" 
d="M438 231h582q38 0 56 -17.5t18 -55.5v-84q0 -74 -74 -74h-774q-74 0 -74 74v1286q0 74 74 74h119q38 0 55.5 -18t17.5 -56v-1129zM596 -668l-14 17q-15 15 -15 30q0 12 11 27q25 28 43 62q14 33 20 69q-49 9 -80 46t-31 85q0 57 39.5 97t96.5 40q56 0 94.5 -39.5
t40.5 -97.5q0 -93 -36.5 -185t-102.5 -153q-14 -14 -33 -14q-17 0 -33 16z" />
    <glyph glyph-name="lcommaaccent" unicode="&#x13c;" horiz-adv-x="561" 
d="M410 1468v-1402q0 -66 -66 -66h-127q-65 0 -65 66v1347q0 31 12 47t43 23l137 37q6 2 21 2q21 0 33 -14.5t12 -39.5zM217 -668l-14 17q-15 15 -15 30q0 12 11 27q25 28 43 62q14 33 20 69q-49 9 -79.5 46t-30.5 85q0 57 39 97t96 40q56 0 94.5 -39.5t40.5 -97.5
q0 -93 -36.5 -185t-102.5 -153q-14 -14 -33 -14q-17 0 -33 16z" />
    <glyph glyph-name="Lcaron" unicode="&#x13d;" horiz-adv-x="1142" 
d="M438 231h582q38 0 56 -17.5t18 -55.5v-84q0 -74 -74 -74h-774q-74 0 -74 74v1286q0 74 74 74h119q38 0 55.5 -18t17.5 -56v-1129zM649 1034l92 350q14 50 66 50h141q45 0 45 -39q0 -5 -4 -21l-135 -352q-9 -27 -24.5 -38t-45.5 -11h-90q-47 0 -47 41q0 12 2 20z" />
    <glyph glyph-name="lcaron" unicode="&#x13e;" horiz-adv-x="843" 
d="M625 1135l94 350q7 28 22 39.5t43 11.5h142q45 0 45 -39q0 -4 -4 -20l-136 -355q-10 -28 -24.5 -37.5t-44.5 -9.5h-90q-23 0 -36 11t-13 30q0 13 2 19zM410 1468v-1402q0 -66 -66 -66h-127q-65 0 -65 66v1347q0 31 12 47t43 23l137 37q6 2 21 2q21 0 33 -14.5t12 -39.5z
" />
    <glyph glyph-name="Ldot" unicode="&#x13f;" horiz-adv-x="1142" 
d="M438 231h582q38 0 56 -17.5t18 -55.5v-84q0 -74 -74 -74h-774q-74 0 -74 74v1286q0 74 74 74h119q38 0 55.5 -18t17.5 -56v-1129zM864 807q67 0 114.5 -48t47.5 -114t-47.5 -114t-114.5 -48q-66 0 -114 48t-48 114t48 114t114 48z" />
    <glyph glyph-name="ldot" unicode="&#x140;" horiz-adv-x="860" 
d="M410 1468v-1402q0 -66 -66 -66h-127q-65 0 -65 66v1347q0 31 12 47t43 23l137 37q6 2 21 2q21 0 33 -14.5t12 -39.5zM711 807q66 0 113.5 -48t47.5 -114t-47.5 -114t-113.5 -48t-114 48t-48 114t48 114t114 48z" />
    <glyph glyph-name="Lslash" unicode="&#x141;" horiz-adv-x="1224" 
d="M520 797v-566h582q38 0 56 -17.5t18 -55.5v-84q0 -74 -74 -74h-774q-74 0 -74 74v501l-102 -86q-13 -10 -23 -10q-12 0 -20.5 10t-8.5 25v127q0 36 8.5 54.5t36.5 43.5l109 90v531q0 74 74 74h118q74 0 74 -74v-309l156 129q13 10 24 10t19 -9.5t8 -25.5v-125
q0 -36 -8.5 -54.5t-36.5 -43.5z" />
    <glyph glyph-name="lslash" unicode="&#x142;" horiz-adv-x="616" 
d="M174 829v584q0 31 12 47t43 23l138 37q6 2 20 2q21 0 33 -14.5t12 -39.5v-424l178 150q11 8 23 8q11 0 18.5 -9t7.5 -24v-131q0 -35 -8.5 -53t-36.5 -41l-182 -151v-727q0 -66 -65 -66h-127q-66 0 -66 66v512l-104 -89q-11 -8 -23 -8q-11 0 -19 9t-8 24v131q0 35 9 52.5
t37 41.5z" />
    <glyph glyph-name="Nacute" unicode="&#x143;" horiz-adv-x="1572" 
d="M1135 416v944q0 38 17.5 56t55.5 18h119q74 0 74 -74v-1286q0 -74 -74 -74h-141q-40 0 -60.5 11t-42.5 44l-645 963v-944q0 -38 -17.5 -56t-55.5 -18h-119q-74 0 -74 74v1286q0 74 74 74h141q40 0 60 -11t42 -45zM700 1571l-34 39q-17 20 -17 35q0 18 23 38l237 211
q20 17 37 17q19 0 37 -21l66 -71q14 -17 14 -35t-25 -37l-266 -186q-20 -13 -33 -13q-19 0 -39 23z" />
    <glyph glyph-name="nacute" unicode="&#x144;" horiz-adv-x="1273" 
d="M379 958v-96q48 88 138.5 137.5t215.5 49.5q187 0 295.5 -118.5t108.5 -316.5v-548q0 -66 -66 -66h-127q-65 0 -65 66v507q0 118 -59 185t-167 67q-119 0 -181 -68.5t-62 -183.5v-507q0 -66 -66 -66h-127q-65 0 -65 66v892q0 66 65 66h96q66 0 66 -66zM557 1192l-33 39
q-16 19 -16 35q0 20 22 39l238 211q19 16 37 16q19 0 37 -21l63 -71q17 -20 17 -35q0 -18 -25 -37l-266 -186q-19 -13 -33 -13q-21 0 -41 23z" />
    <glyph glyph-name="Ncommaaccent" unicode="&#x145;" horiz-adv-x="1572" 
d="M1135 416v944q0 38 17.5 56t55.5 18h119q74 0 74 -74v-1286q0 -74 -74 -74h-141q-40 0 -60.5 11t-42.5 44l-645 963v-944q0 -38 -17.5 -56t-55.5 -18h-119q-74 0 -74 74v1286q0 74 74 74h141q40 0 60 -11t42 -45zM741 -668l-14 17q-14 14 -14 30q0 14 10 27q25 28 43 62
q14 33 20 69q-49 9 -79.5 46t-30.5 85q0 57 39 97t96 40q56 0 94.5 -39.5t40.5 -97.5q0 -93 -36.5 -185t-102.5 -153q-14 -14 -33 -14q-17 0 -33 16z" />
    <glyph glyph-name="ncommaaccent" unicode="&#x146;" horiz-adv-x="1273" 
d="M379 958v-96q48 88 138.5 137.5t215.5 49.5q187 0 295.5 -118.5t108.5 -316.5v-548q0 -66 -66 -66h-127q-65 0 -65 66v507q0 118 -59 185t-167 67q-119 0 -181 -68.5t-62 -183.5v-507q0 -66 -66 -66h-127q-65 0 -65 66v892q0 66 65 66h96q66 0 66 -66zM588 -668l-15 17
q-14 14 -14 30q0 14 10 27q25 28 43 62q16 36 21 69q-49 9 -80 46t-31 85q0 57 39 97t96 40t95.5 -40t40.5 -97q0 -93 -37 -184.5t-103 -153.5q-14 -14 -32 -14q-17 0 -33 16z" />
    <glyph glyph-name="Ncaron" unicode="&#x147;" horiz-adv-x="1572" 
d="M1135 416v944q0 38 17.5 56t55.5 18h119q74 0 74 -74v-1286q0 -74 -74 -74h-141q-40 0 -60.5 11t-42.5 44l-645 963v-944q0 -38 -17.5 -56t-55.5 -18h-119q-74 0 -74 74v1286q0 74 74 74h141q40 0 60 -11t42 -45zM786 1704l220 188q24 17 38 17q19 0 37 -21l41 -45
q19 -19 19 -37q0 -21 -21 -39l-213 -192q-24 -23 -42.5 -31t-49.5 -8h-57q-31 0 -50.5 8.5t-43.5 30.5l-211 192q-21 18 -21 39q0 17 17 37l43 45q18 21 36 21q17 0 37 -17z" />
    <glyph glyph-name="ncaron" unicode="&#x148;" horiz-adv-x="1273" 
d="M379 958v-96q48 88 138.5 137.5t215.5 49.5q187 0 295.5 -118.5t108.5 -316.5v-548q0 -66 -66 -66h-127q-65 0 -65 66v507q0 118 -59 185t-167 67q-119 0 -181 -68.5t-62 -183.5v-507q0 -66 -66 -66h-127q-65 0 -65 66v892q0 66 65 66h96q66 0 66 -66zM645 1325l219 188
q20 17 37 17q21 0 39 -21l41 -45q16 -19 16 -37q0 -21 -20 -38l-211 -193q-24 -23 -42.5 -31t-49.5 -8h-58q-33 0 -51.5 8t-42.5 31l-211 193q-20 17 -20 38q0 18 16 37l41 45q18 21 39 21q13 0 37 -17z" />
    <glyph glyph-name="napostrophe" unicode="&#x149;" horiz-adv-x="1472" 
d="M578 958v-96q48 88 138.5 137.5t215.5 49.5q187 0 295 -118.5t108 -316.5v-548q0 -66 -65 -66h-127q-66 0 -66 66v507q0 118 -58.5 185t-166.5 67q-119 0 -181.5 -69t-62.5 -183v-507q0 -66 -65 -66h-127q-66 0 -66 66v892q0 66 66 66h96q66 0 66 -66zM-129 1135l94 350
q7 28 22.5 39.5t43.5 11.5h139q45 0 45 -39q0 -4 -4 -20l-131 -355q-11 -26 -26 -36.5t-44 -10.5h-94q-22 0 -34.5 11t-12.5 30q0 13 2 19z" />
    <glyph glyph-name="Eng" unicode="&#x14a;" horiz-adv-x="1572" 
d="M1135 416v944q0 38 17.5 56t55.5 18h119q74 0 74 -74v-1313q0 -181 -66 -291q-72 -125 -250 -172q-18 -6 -34 -6q-41 0 -52 49l-24 78q-4 16 -4 25q0 37 39 51q56 21 90 80q34 62 41 143q-33 10 -58 51l-645 963v-944q0 -38 -17.5 -56t-55.5 -18h-119q-74 0 -74 74v1286
q0 74 74 74h141q40 0 60 -11t42 -45z" />
    <glyph glyph-name="eng" unicode="&#x14b;" horiz-adv-x="1273" 
d="M379 958v-96q48 88 138.5 137.5t215.5 49.5q187 0 295.5 -118.5t108.5 -316.5v-567q0 -184 -64 -291q-76 -126 -252 -172q-18 -6 -33 -6q-40 0 -53 49l-22 78q-4 20 -4 25q0 35 39 51q54 21 88 80q43 72 43 186v526q0 118 -59 185t-167 67q-119 0 -181 -68.5t-62 -183.5
v-507q0 -66 -66 -66h-127q-65 0 -65 66v892q0 66 65 66h96q66 0 66 -66z" />
    <glyph glyph-name="Omacron" unicode="&#x14c;" horiz-adv-x="1683" 
d="M842 1458q166 0 310 -56t245.5 -154t159 -235.5t57.5 -295.5t-57.5 -295.5t-159 -235.5t-245.5 -154.5t-310 -56.5t-309.5 56.5t-245 154.5t-159.5 235.5t-58 295.5t58 295.5t159.5 235.5t245 154t309.5 56zM842 223q213 0 355 140.5t142 353.5t-142 353t-355 140
t-355.5 -140t-142.5 -353t142.5 -353.5t355.5 -140.5zM559 1812h565q56 0 56 -53v-78q0 -53 -56 -53h-565q-53 0 -53 53v78q0 53 53 53z" />
    <glyph glyph-name="omacron" unicode="&#x14d;" horiz-adv-x="1273" 
d="M637 1049q245 0 405 -151.5t160 -385.5t-160 -385.5t-405 -151.5t-405 151.5t-160 385.5t160 385.5t405 151.5zM637 193q135 0 223 90.5t88 228.5t-88 228.5t-223 90.5t-223 -90.5t-88 -228.5t88 -228.5t223 -90.5zM354 1434h566q55 0 55 -54v-77q0 -54 -55 -54h-566
q-53 0 -53 54v77q0 54 53 54z" />
    <glyph glyph-name="Obreve" unicode="&#x14e;" horiz-adv-x="1683" 
d="M842 1458q166 0 310 -56t245.5 -154t159 -235.5t57.5 -295.5t-57.5 -295.5t-159 -235.5t-245.5 -154.5t-310 -56.5t-309.5 56.5t-245 154.5t-159.5 235.5t-58 295.5t58 295.5t159.5 235.5t245 154t309.5 56zM842 223q213 0 355 140.5t142 353.5t-142 353t-355 140
t-355.5 -140t-142.5 -353t142.5 -353.5t355.5 -140.5zM1038 1878h78q53 0 53 -45q0 -53 -22.5 -105.5t-59.5 -91.5q-86 -86 -245 -86q-160 0 -246 86q-37 39 -59.5 91.5t-22.5 105.5q0 45 53 45h78q46 0 53 -49q8 -63 43.5 -100t100.5 -37t100 37t43 100q7 49 53 49z" />
    <glyph glyph-name="obreve" unicode="&#x14f;" horiz-adv-x="1273" 
d="M637 1049q245 0 405 -151.5t160 -385.5t-160 -385.5t-405 -151.5t-405 151.5t-160 385.5t160 385.5t405 151.5zM637 193q135 0 223 90.5t88 228.5t-88 228.5t-223 90.5t-223 -90.5t-88 -228.5t88 -228.5t223 -90.5zM834 1499h77q54 0 54 -45q0 -53 -22.5 -105.5
t-59.5 -91.5q-86 -86 -246 -86t-246 86q-37 39 -59.5 91.5t-22.5 105.5q0 45 53 45h78q47 0 54 -49q8 -63 43 -100t100 -37t100 37t43 100q7 49 54 49z" />
    <glyph glyph-name="Ohungarumlaut" unicode="&#x150;" horiz-adv-x="1683" 
d="M842 1458q166 0 310 -56t245.5 -154t159 -235.5t57.5 -295.5t-57.5 -295.5t-159 -235.5t-245.5 -154.5t-310 -56.5t-309.5 56.5t-245 154.5t-159.5 235.5t-58 295.5t58 295.5t159.5 235.5t245 154t309.5 56zM842 223q213 0 355 140.5t142 353.5t-142 353t-355 140
t-355.5 -140t-142.5 -353t142.5 -353.5t355.5 -140.5zM1034 1565l-39 32q-20 17 -20 37q0 21 18 39l189 215q20 23 37 23q18 0 36 -21l68 -63q20 -17 20 -37q0 -18 -22 -37l-213 -188q-20 -17 -37 -17q-13 0 -37 17zM655 1565l-39 32q-20 17 -20 39q0 18 16 37l189 215
q20 23 37 23q21 0 39 -21l65 -63q21 -18 21 -37t-21 -37l-213 -188q-20 -17 -37 -17t-37 17z" />
    <glyph glyph-name="ohungarumlaut" unicode="&#x151;" horiz-adv-x="1273" 
d="M637 1049q245 0 405 -151.5t160 -385.5t-160 -385.5t-405 -151.5t-405 151.5t-160 385.5t160 385.5t405 151.5zM637 193q135 0 223 90.5t88 228.5t-88 228.5t-223 90.5t-223 -90.5t-88 -228.5t88 -228.5t223 -90.5zM829 1186l-38 33q-21 18 -21 36q0 21 18 39l189 215
q20 23 37 23q19 0 37 -21l67 -63q21 -18 21 -37q0 -17 -23 -37l-213 -188q-20 -17 -37 -17q-13 0 -37 17zM451 1186l-39 33q-21 18 -21 38q0 17 17 37l188 215q20 23 37 23q21 0 39 -21l65 -63q21 -18 21 -37t-21 -37l-213 -188q-20 -17 -37 -17q-16 0 -36 17z" />
    <glyph glyph-name="OE" unicode="&#x152;" horiz-adv-x="2412" 
d="M1608 1208v-387h485q38 0 56 -17.5t18 -55.5v-74q0 -72 -74 -72h-485v-377h659q38 0 56 -17.5t18 -55.5v-80q0 -72 -74 -72h-846q-73 0 -73 68v149q-86 -121 -224 -181.5t-295 -60.5q-161 0 -302 56.5t-241.5 154.5t-158 236t-57.5 295q0 210 98 379.5t272 265.5t389 96
q155 0 294 -61.5t225 -179.5v147q0 70 73 70h826q38 0 55.5 -18t17.5 -56v-80q0 -72 -73 -72h-639zM842 223q213 0 355 140.5t142 353.5t-142 353t-355 140t-355.5 -140t-142.5 -353t142.5 -353.5t355.5 -140.5z" />
    <glyph glyph-name="oe" unicode="&#x153;" horiz-adv-x="2080" 
d="M1858 264l57 -47q29 -26 29 -47q0 -18 -23 -41q-79 -76 -191 -114t-237 -38q-153 0 -268 66q-93 54 -160 156q-56 -93 -154 -152q-115 -70 -274 -70q-161 -1 -290 67t-202 191t-73 277t73 277t202 191t290 67q163 0 283 -74q86 -54 145 -148q70 105 149 152
q118 70 279 70q124 0 224.5 -46.5t162.5 -124t95.5 -172.5t33.5 -198v-10q0 -60 -65 -60h-738q13 -117 90 -186q81 -72 203 -72q174 0 283 92q16 13 30 13q19 0 46 -19zM1212 594h547q-7 117 -82 190q-77 74 -184 74q-116 0 -193 -74q-75 -72 -88 -190zM637 193
q134 0 222.5 92t88.5 227t-88.5 227t-222.5 92t-222.5 -92t-88.5 -227t88.5 -227t222.5 -92z" />
    <glyph glyph-name="Racute" unicode="&#x154;" horiz-adv-x="1386" 
d="M639 1571l-33 39q-16 19 -16 35q0 19 22 38l238 211q20 17 37 17q19 0 37 -21l63 -71q17 -20 17 -35q0 -18 -25 -37l-266 -186q-20 -13 -33 -13q-21 0 -41 23zM979 55l-244 455h-84l-213 -2v-434q0 -38 -17.5 -56t-55.5 -18h-119q-74 0 -74 74v1286q0 74 74 74h438
q87 0 164 -11t156.5 -42t136.5 -79.5t93 -130.5t36 -188q0 -151 -73 -261t-206 -159l269 -495q8 -13 8 -29q0 -18 -13 -28.5t-36 -10.5h-146q-38 0 -56.5 11t-37.5 44zM438 711l273 2q85 0 150.5 23t108 80t42.5 142q0 88 -42.5 146.5t-108 82t-150.5 23.5l-273 2v-501z" />
    <glyph glyph-name="racute" unicode="&#x155;" horiz-adv-x="800" 
d="M379 958v-96q44 84 130.5 130t211.5 46q63 0 86 -10q35 -14 35 -47q0 -17 -8 -33l-39 -100q-12 -27 -21 -34t-33 -7q-13 0 -48 4t-50 4q-119 0 -176 -65t-57 -177v-507q0 -66 -66 -66h-127q-65 0 -65 66v892q0 66 65 66h96q66 0 66 -66zM414 1192l-33 39q-16 19 -16 35
q0 20 22 39l238 211q19 16 37 16t36 -21l64 -71q16 -19 16 -35q0 -19 -24 -37l-267 -186q-20 -13 -32 -13q-21 0 -41 23z" />
    <glyph glyph-name="Rcommaaccent" unicode="&#x156;" horiz-adv-x="1386" 
d="M629 -668l-15 17q-14 14 -14 30q0 14 10 27q25 28 43 62q16 36 21 69q-49 9 -80 46t-31 85q0 57 39 97t96 40t95.5 -40t40.5 -97q0 -93 -37 -184.5t-103 -153.5q-14 -14 -32 -14q-17 0 -33 16zM979 55l-244 455h-84l-213 -2v-434q0 -38 -17.5 -56t-55.5 -18h-119
q-74 0 -74 74v1286q0 74 74 74h438q87 0 164 -11t156.5 -42t136.5 -79.5t93 -130.5t36 -188q0 -151 -73 -261t-206 -159l269 -495q8 -13 8 -29q0 -18 -13 -28.5t-36 -10.5h-146q-38 0 -56.5 11t-37.5 44zM438 711l273 2q85 0 150.5 23t108 80t42.5 142q0 88 -42.5 146.5
t-108 82t-150.5 23.5l-273 2v-501z" />
    <glyph glyph-name="rcommaaccent" unicode="&#x157;" horiz-adv-x="800" 
d="M379 958v-96q44 84 130.5 130t211.5 46q63 0 86 -10q35 -14 35 -47q0 -17 -8 -33l-39 -100q-12 -27 -21 -34t-33 -7q-13 0 -48 4t-50 4q-119 0 -176 -65t-57 -177v-507q0 -66 -66 -66h-127q-65 0 -65 66v892q0 66 65 66h96q66 0 66 -66zM219 -668l-14 17q-15 15 -15 30
q0 12 11 27q25 28 43 62q14 33 20 69q-49 9 -79.5 46t-30.5 85q0 57 39 97t96 40q56 0 94.5 -39.5t40.5 -97.5q0 -93 -36.5 -185t-102.5 -153q-14 -14 -33 -14q-17 0 -33 16z" />
    <glyph glyph-name="Rcaron" unicode="&#x158;" horiz-adv-x="1386" 
d="M606 1704l219 188q20 17 37 17q21 0 39 -21l41 -45q16 -19 16 -37q0 -22 -20 -39l-211 -192q-26 -23 -44 -31t-50 -8h-58q-31 0 -49.5 8t-44.5 31l-211 192q-20 17 -20 37q0 21 18 39l41 45q18 21 39 21q13 0 37 -17zM979 55l-244 455h-84l-213 -2v-434q0 -38 -17.5 -56
t-55.5 -18h-119q-74 0 -74 74v1286q0 74 74 74h438q87 0 164 -11t156.5 -42t136.5 -79.5t93 -130.5t36 -188q0 -151 -73 -261t-206 -159l269 -495q8 -13 8 -29q0 -18 -13 -28.5t-36 -10.5h-146q-38 0 -56.5 11t-37.5 44zM438 711l273 2q85 0 150.5 23t108 80t42.5 142
q0 88 -42.5 146.5t-108 82t-150.5 23.5l-273 2v-501z" />
    <glyph glyph-name="rcaron" unicode="&#x159;" horiz-adv-x="800" 
d="M379 958v-96q45 84 132 130t212 46q61 0 86 -10q35 -14 35 -47q0 -17 -8 -33l-41 -100q-10 -27 -19.5 -34t-32.5 -7q-15 0 -50 4t-50 4q-119 0 -176 -65t-57 -177v-507q0 -66 -64 -66h-129q-65 0 -65 66v892q0 66 65 66h98q64 0 64 -66zM502 1325l219 188q20 17 37 17
q21 0 39 -21l41 -45q16 -19 16 -37q0 -21 -20 -38l-211 -193q-26 -23 -44.5 -31t-50.5 -8h-57q-31 0 -49.5 8t-44.5 31l-211 193q-21 18 -21 36q0 20 19 39l41 45q18 21 39 21q13 0 37 -17z" />
    <glyph glyph-name="Sacute" unicode="&#x15a;" horiz-adv-x="1208" 
d="M532 887l263 -101q193 -72 268.5 -165.5t75.5 -243.5q0 -128 -72.5 -220t-196.5 -136.5t-284 -43.5q-250 0 -426 129q-72 58 -92 90q-6 10 -9 19q-4 16 -4 21q0 24 25 53l53 69q23 29 47 29q21 0 39 -18q69 -77 165 -116.5t202 -39.5q124 0 199 44.5t75 131.5
q0 61 -38.5 103t-129.5 77l-274 109q-324 126 -324 397q0 163 138 273t360 110q198 0 362 -80q97 -45 97 -94q0 -24 -21 -51l-51 -64q-26 -32 -57 -32q-18 0 -31 10q-141 86 -299 86q-107 0 -168.5 -44t-61.5 -114q0 -125 170 -188zM508 1571l-33 39q-16 19 -16 35
q0 19 22 38l236 211q20 17 37 17q21 0 39 -21l63 -71q14 -17 14 -35t-22 -37l-268 -186q-20 -13 -33 -13q-19 0 -39 23z" />
    <glyph glyph-name="sacute" unicode="&#x15b;" horiz-adv-x="972" 
d="M850 854l-47 -59q-19 -29 -47 -29q-16 0 -33 10q-115 86 -229 86q-68 0 -108 -26.5t-40 -71.5q0 -72 98 -107l209 -73q57 -20 98.5 -43.5t77.5 -58.5t55 -84.5t19 -112.5q0 -158 -109.5 -234t-306.5 -76q-149 3 -256 54q-95 44 -155 106q-19 22 -19 45q0 20 19 45l55 68
q20 26 45 26q19 0 37 -18q129 -122 281 -125q163 0 163 109q0 56 -32.5 82t-114.5 55l-184 63q-101 36 -157 108t-56 171q0 138 103 211.5t271 73.5q208 0 353 -107q28 -22 28 -45q0 -19 -18 -43zM389 1192l-33 39q-14 17 -14 35q0 22 20 39l238 211q22 16 37 16
q22 0 37 -21l63 -71q17 -17 17 -35t-25 -37l-266 -186q-20 -13 -33 -13q-18 0 -41 23z" />
    <glyph glyph-name="Scircumflex" unicode="&#x15c;" horiz-adv-x="1208" 
d="M532 887l263 -101q193 -72 268.5 -165.5t75.5 -243.5q0 -128 -72.5 -220t-196.5 -136.5t-284 -43.5q-250 0 -426 129q-72 58 -92 90q-6 10 -9 19q-4 16 -4 21q0 24 25 53l53 69q23 29 47 29q21 0 39 -18q69 -77 165 -116.5t202 -39.5q124 0 199 44.5t75 131.5
q0 61 -38.5 103t-129.5 77l-274 109q-324 126 -324 397q0 163 138 273t360 110q198 0 362 -80q97 -45 97 -94q0 -24 -21 -51l-51 -64q-26 -32 -57 -32q-18 0 -31 10q-141 86 -299 86q-107 0 -168.5 -44t-61.5 -114q0 -125 170 -188zM596 1761l-221 -188q-24 -17 -37 -17
q-21 0 -39 21l-41 45q-18 18 -18 39q0 20 20 37l211 192q26 23 44.5 31t49.5 8h58q32 0 50 -8t44 -31l211 -192q20 -17 20 -39q0 -18 -16 -37l-41 -45q-21 -21 -39 -21q-17 0 -37 17z" />
    <glyph glyph-name="scircumflex" unicode="&#x15d;" horiz-adv-x="972" 
d="M850 854l-47 -59q-19 -29 -47 -29q-16 0 -33 10q-115 86 -229 86q-68 0 -108 -26.5t-40 -71.5q0 -72 98 -107l209 -73q57 -20 98.5 -43.5t77.5 -58.5t55 -84.5t19 -112.5q0 -158 -109.5 -234t-306.5 -76q-149 3 -256 54q-95 44 -155 106q-19 22 -19 45q0 20 19 45l55 68
q20 26 45 26q19 0 37 -18q129 -122 281 -125q163 0 163 109q0 56 -32.5 82t-114.5 55l-184 63q-101 36 -157 108t-56 171q0 138 103 211.5t271 73.5q208 0 353 -107q28 -22 28 -45q0 -19 -18 -43zM477 1382l-221 -188q-19 -16 -37 -16q-19 0 -39 20l-41 45q-16 19 -16 37
q0 19 20 39l211 192q24 23 43 31t52 8h57q31 0 49.5 -8t42.5 -31l211 -192q22 -19 22 -39q0 -19 -18 -37l-41 -45q-17 -20 -39 -20q-18 0 -37 16z" />
    <glyph glyph-name="Scedilla" unicode="&#x15e;" horiz-adv-x="1208" 
d="M451 -164l38 148q-188 19 -329 122q-72 58 -92 90q-6 10 -9 19q-4 16 -4 21q0 24 25 53l53 69q23 29 47 29q21 0 39 -18q69 -77 165 -116.5t202 -39.5q124 0 199 44.5t75 131.5q0 61 -38.5 103t-129.5 77l-274 109q-324 126 -324 397q0 163 138 273t360 110
q198 0 362 -80q97 -45 97 -94q0 -24 -21 -51l-51 -64q-26 -32 -57 -32q-18 0 -31 10q-141 86 -299 86q-107 0 -168.5 -44t-61.5 -114q0 -125 170 -188l263 -101q193 -72 268.5 -165.5t75.5 -243.5q-6 -211 -187 -318q-119 -69 -290 -79l-17 -68q97 -12 149 -60t52 -131
q0 -95 -76.5 -148.5t-204.5 -53.5q-97 0 -190 41q-33 13 -33 41q0 14 6 26l12 31q16 33 46 33q10 0 16 -2q82 -29 143 -29q107 0 107 61q0 60 -111 60h-69q-43 0 -43 37q0 12 2 18z" />
    <glyph glyph-name="scedilla" unicode="&#x15f;" horiz-adv-x="972" 
d="M340 -164l39 150q-88 14 -148 43q-95 44 -155 106q-19 22 -19 45q0 20 19 45l55 68q20 26 45 26q19 0 37 -18q129 -122 281 -125q163 0 163 109q0 56 -32.5 82t-114.5 55l-184 63q-101 36 -157 108t-56 171q0 138 103 211.5t271 73.5q208 0 353 -107q28 -22 28 -45
q0 -19 -18 -43l-47 -59q-19 -29 -47 -29q-16 0 -33 10q-115 86 -229 86q-68 0 -108 -26.5t-40 -71.5q0 -72 98 -107l209 -73q57 -20 98.5 -43.5t77.5 -58.5t55 -84.5t19 -112.5q-7 -176 -135 -250q-91 -51 -219 -58l-14 -65q200 -25 200 -191q0 -95 -76 -148.5t-204 -53.5
q-98 0 -191 41q-33 13 -33 41q0 12 7 26l12 31q16 33 47 33q10 0 14 -2q82 -29 144 -29q106 0 106 61q0 60 -110 60h-70q-43 0 -43 37q0 12 2 18z" />
    <glyph glyph-name="Scaron" unicode="&#x160;" horiz-adv-x="1208" 
d="M532 887l263 -101q193 -72 268.5 -165.5t75.5 -243.5q0 -128 -72.5 -220t-196.5 -136.5t-284 -43.5q-250 0 -426 129q-72 58 -92 90q-6 10 -9 19q-4 16 -4 21q0 24 25 53l53 69q23 29 47 29q21 0 39 -18q69 -77 165 -116.5t202 -39.5q124 0 199 44.5t75 131.5
q0 61 -38.5 103t-129.5 77l-274 109q-324 126 -324 397q0 163 138 273t360 110q198 0 362 -80q97 -45 97 -94q0 -24 -21 -51l-51 -64q-26 -32 -57 -32q-18 0 -31 10q-141 86 -299 86q-107 0 -168.5 -44t-61.5 -114q0 -125 170 -188zM596 1704l219 188q20 17 37 17
q21 0 39 -21l41 -45q16 -19 16 -37q0 -22 -20 -39l-211 -192q-26 -23 -44 -31t-50 -8h-58q-31 0 -49.5 8t-44.5 31l-211 192q-20 17 -20 37q0 21 18 39l41 45q18 21 39 21q13 0 37 -17z" />
    <glyph glyph-name="scaron" unicode="&#x161;" horiz-adv-x="972" 
d="M850 854l-47 -59q-19 -29 -47 -29q-16 0 -33 10q-115 86 -229 86q-68 0 -108 -26.5t-40 -71.5q0 -72 98 -107l209 -73q57 -20 98.5 -43.5t77.5 -58.5t55 -84.5t19 -112.5q0 -158 -109.5 -234t-306.5 -76q-149 3 -256 54q-95 44 -155 106q-19 22 -19 45q0 20 19 45l55 68
q20 26 45 26q19 0 37 -18q129 -122 281 -125q163 0 163 109q0 56 -32.5 82t-114.5 55l-184 63q-101 36 -157 108t-56 171q0 138 103 211.5t271 73.5q208 0 353 -107q28 -22 28 -45q0 -19 -18 -43zM477 1325l219 188q24 17 37 17q21 0 39 -21l41 -45q18 -18 18 -37t-22 -38
l-211 -193q-24 -23 -42.5 -31t-49.5 -8h-57q-33 0 -52 8t-43 31l-211 193q-20 20 -20 38t16 37l41 45q21 21 39 21q17 0 37 -17z" />
    <glyph glyph-name="Tcommaaccent" unicode="&#x162;" horiz-adv-x="1245" 
d="M702 2l-20 -90q97 -12 149 -60t52 -131q0 -95 -76.5 -148.5t-204.5 -53.5q-97 0 -190 41q-33 13 -33 41q0 14 6 26l12 31q17 33 45 33q11 0 17 -2q82 -29 143 -29q107 0 107 61q0 60 -111 60h-70q-43 0 -43 37q0 12 2 18l45 168q-22 9 -32 22t-11 48v1128h-407
q-74 0 -74 74v84q0 74 74 74h1081q74 0 74 -74v-84q0 -74 -74 -74h-407v-1128q-1 -36 -14.5 -51.5t-39.5 -20.5z" />
    <glyph glyph-name="tcommaaccent" unicode="&#x163;" horiz-adv-x="831" 
d="M621 -23l-15 -65q97 -12 149 -60t52 -131q0 -95 -76.5 -148.5t-204.5 -53.5q-97 0 -190 41q-33 13 -33 41q0 14 6 26l13 31q16 33 45 33q10 0 16 -2q82 -29 143 -29q107 0 107 61q0 60 -111 60h-69q-43 0 -43 37q0 12 2 18l41 154q-117 29 -183 116q-70 92 -77 269v456
h-119q-66 0 -66 66v61q0 66 66 66h125v287q0 31 12 46.5t43 24.5l131 35q6 2 21 2q45 0 45 -53v-342h235q66 0 66 -66v-61q0 -66 -66 -66h-235v-409q0 -223 147 -223q57 0 104 20q12 4 19 4q31 0 47 -39l37 -86q8 -16 8 -35q0 -30 -33 -47q-66 -32 -159 -39z" />
    <glyph glyph-name="Tcaron" unicode="&#x164;" horiz-adv-x="1245" 
d="M489 1202h-407q-74 0 -74 74v84q0 74 74 74h1081q74 0 74 -74v-84q0 -74 -74 -74h-407v-1128q0 -74 -74 -74h-119q-74 0 -74 74v1128zM623 1704l219 188q24 17 39 17q19 0 37 -21l40 -45q19 -19 19 -37q0 -21 -21 -39l-213 -192q-24 -23 -42.5 -31t-49.5 -8h-57
q-31 0 -50.5 8.5t-43.5 30.5l-211 192q-21 18 -21 39q0 17 17 37l43 45q18 21 37 21q16 0 36 -17z" />
    <glyph glyph-name="tcaron" unicode="&#x165;" horiz-adv-x="976" 
d="M199 1024v287q0 31 12 46.5t43 24.5l131 35q6 2 21 2q45 0 45 -53v-342h235q66 0 66 -66v-61q0 -66 -66 -66h-235v-409q0 -223 147 -223q57 0 104 20q12 4 19 4q31 0 47 -39l37 -86q8 -13 8 -32q0 -92 -239 -91h-5h-4q-174 0 -273 106.5t-99 293.5v456h-119q-66 0 -66 66
v61q0 66 66 66h125zM766 1165l86 320q7 28 22.5 39.5t43.5 11.5h141q45 0 45 -39q0 -4 -4 -20l-127 -324q-10 -27 -25 -37t-45 -10h-90q-23 0 -36 11t-13 30q0 12 2 18z" />
    <glyph glyph-name="Tbar" unicode="&#x166;" horiz-adv-x="1245" 
d="M756 870h151q54 0 54 -55v-76q0 -53 -54 -53h-151v-612q0 -74 -74 -74h-119q-74 0 -74 74v612h-149q-53 0 -53 53v76q0 55 53 55h149v332h-407q-74 0 -74 74v84q0 74 74 74h1081q74 0 74 -74v-84q0 -74 -74 -74h-407v-332z" />
    <glyph glyph-name="tbar" unicode="&#x167;" horiz-adv-x="831" 
d="M451 717h241q60 0 60 -60v-73q0 -60 -60 -60h-241v-102q0 -223 147 -223q52 0 107 22q6 2 16 2q30 0 45 -37l41 -92q8 -16 8 -31q0 -30 -33 -47q-84 -41 -217 -41q-174 0 -273 106.5t-99 293.5v149h-125q-60 0 -60 60v73q0 60 60 60h125v114h-125q-60 0 -60 60v74
q0 59 60 59h131v291q0 28 11.5 43t39.5 22l141 37q6 2 19 2q19 0 30 -13t11 -36v-346h241q60 0 60 -59v-74q0 -60 -60 -60h-241v-114z" />
    <glyph glyph-name="Utilde" unicode="&#x168;" horiz-adv-x="1583" 
d="M418 1360v-776q0 -103 40 -183t126.5 -129t208.5 -49q181 0 276.5 101t95.5 260v776q0 74 74 74h121q72 0 72 -74v-787q0 -130 -42 -239.5t-121 -189.5t-201 -124.5t-275 -44.5t-275 45t-202 125t-122 189t-42 239v787q0 38 17.5 56t55.5 18h119q74 0 74 -74zM561 1587
h-72q-31 0 -42 16.5t-9 49.5q7 107 66 166q56 53 143 53q30 -1 62.5 -13t50 -22.5t50.5 -32.5l9 -6q64 -49 101 -49q18 0 29.5 13.5t14 24t7.5 34.5q10 43 55 43h74q51 0 51 -45q0 -106 -57 -172q-54 -66 -154 -66q-33 0 -66.5 12.5t-54.5 25.5t-51 36q-59 40 -82 45
q-8 2 -16 2q-45 0 -54 -72q-10 -43 -55 -43z" />
    <glyph glyph-name="utilde" unicode="&#x169;" horiz-adv-x="1253" 
d="M874 66v96q-47 -89 -134.5 -138t-209.5 -49q-183 0 -288 118.5t-105 316.5v548q0 66 66 66h127q65 0 65 -66v-507q0 -118 56 -185t159 -67q115 0 174.5 68.5t59.5 183.5v507q0 66 65 66h127q66 0 66 -66v-892q0 -66 -66 -66h-96q-66 0 -66 66zM389 1208h-72
q-31 0 -42 16.5t-9 49.5q7 110 66 166q53 53 143 53q32 -1 66 -14t52.5 -25t51.5 -35q67 -49 100 -49q12 0 21 5t14 11t9.5 18t5.5 18t4 20q10 43 55 43h72q53 0 53 -45q-3 -107 -57 -172q-54 -66 -154 -66q-33 0 -66.5 12.5t-54.5 25.5t-51 36q-70 47 -100 47
q-18 0 -30 -12.5t-16 -25.5t-8 -34q-7 -43 -53 -43z" />
    <glyph glyph-name="Umacron" unicode="&#x16a;" horiz-adv-x="1583" 
d="M418 1360v-776q0 -103 40 -183t126.5 -129t208.5 -49q181 0 276.5 101t95.5 260v776q0 74 74 74h121q72 0 72 -74v-787q0 -130 -42 -239.5t-121 -189.5t-201 -124.5t-275 -44.5t-275 45t-202 125t-122 189t-42 239v787q0 38 17.5 56t55.5 18h119q74 0 74 -74zM510 1812
h565q53 0 53 -53v-78q0 -53 -53 -53h-565q-55 0 -55 53v78q0 53 55 53z" />
    <glyph glyph-name="umacron" unicode="&#x16b;" horiz-adv-x="1253" 
d="M874 66v96q-47 -89 -134.5 -138t-209.5 -49q-183 0 -288 118.5t-105 316.5v548q0 66 66 66h127q65 0 65 -66v-507q0 -118 56 -185t159 -67q115 0 174.5 68.5t59.5 183.5v507q0 66 65 66h127q66 0 66 -66v-892q0 -66 -66 -66h-96q-66 0 -66 66zM338 1434h565q53 0 53 -54
v-77q0 -54 -53 -54h-565q-55 0 -55 54v77q0 54 55 54z" />
    <glyph glyph-name="Ubreve" unicode="&#x16c;" horiz-adv-x="1583" 
d="M418 1360v-776q0 -103 40 -183t126.5 -129t208.5 -49q181 0 276.5 101t95.5 260v776q0 74 74 74h121q72 0 72 -74v-787q0 -130 -42 -239.5t-121 -189.5t-201 -124.5t-275 -44.5t-275 45t-202 125t-122 189t-42 239v787q0 38 17.5 56t55.5 18h119q74 0 74 -74zM991 1878
h78q53 0 53 -45q0 -53 -22.5 -105.5t-59.5 -91.5q-86 -86 -245 -86q-160 0 -246 86q-37 39 -59.5 91.5t-22.5 105.5q0 45 53 45h78q46 0 53 -49q8 -63 43.5 -100t100.5 -37t100 37t43 100q7 49 53 49z" />
    <glyph glyph-name="ubreve" unicode="&#x16d;" horiz-adv-x="1253" 
d="M874 66v96q-47 -89 -134.5 -138t-209.5 -49q-183 0 -288 118.5t-105 316.5v548q0 66 66 66h127q65 0 65 -66v-507q0 -118 56 -185t159 -67q115 0 174.5 68.5t59.5 183.5v507q0 66 65 66h127q66 0 66 -66v-892q0 -66 -66 -66h-96q-66 0 -66 66zM819 1499h78q53 0 53 -45
q0 -53 -22.5 -105.5t-59.5 -91.5q-86 -86 -245 -86q-160 0 -246 86q-37 39 -59.5 91.5t-22.5 105.5q0 45 53 45h78q46 0 53 -49q8 -63 43.5 -100t100.5 -37t100 37t43 100q7 49 53 49z" />
    <glyph glyph-name="Uring" unicode="&#x16e;" horiz-adv-x="1583" 
d="M418 1360v-776q0 -103 40 -183t126.5 -129t208.5 -49q181 0 276.5 101t95.5 260v776q0 74 74 74h121q72 0 72 -74v-787q0 -130 -42 -239.5t-121 -189.5t-201 -124.5t-275 -44.5t-275 45t-202 125t-122 189t-42 239v787q0 38 17.5 56t55.5 18h119q74 0 74 -74zM793 1894
q89 0 144.5 -53.5t55.5 -134.5q0 -80 -58 -136.5t-142 -56.5q-83 0 -142 56.5t-59 136.5q0 81 55 134.5t146 53.5zM682 1706q0 -46 32.5 -78.5t78.5 -32.5q45 0 77.5 32.5t32.5 78.5q0 45 -30.5 75.5t-79.5 30.5t-80 -30.5t-31 -75.5z" />
    <glyph glyph-name="uring" unicode="&#x16f;" horiz-adv-x="1253" 
d="M874 66v96q-47 -89 -134.5 -138t-209.5 -49q-183 0 -288 118.5t-105 316.5v548q0 66 66 66h127q65 0 65 -66v-507q0 -118 56 -185t159 -67q115 0 174.5 68.5t59.5 183.5v507q0 66 65 66h127q66 0 66 -66v-892q0 -66 -66 -66h-96q-66 0 -66 66zM618 1505q90 0 146.5 -53.5
t56.5 -134.5q0 -80 -59.5 -136.5t-143.5 -56.5q-83 0 -141.5 56.5t-58.5 136.5q0 81 55.5 134.5t144.5 53.5zM508 1317q0 -45 33 -78t77 -33q45 0 79 33t34 78t-32 75.5t-81 30.5q-47 0 -78.5 -30.5t-31.5 -75.5z" />
    <glyph glyph-name="Uhungarumlaut" unicode="&#x170;" horiz-adv-x="1583" 
d="M418 1360v-776q0 -103 40 -183t126.5 -129t208.5 -49q181 0 276.5 101t95.5 260v776q0 74 74 74h121q72 0 72 -74v-787q0 -130 -42 -239.5t-121 -189.5t-201 -124.5t-275 -44.5t-275 45t-202 125t-122 189t-42 239v787q0 38 17.5 56t55.5 18h119q74 0 74 -74zM934 1565
l-39 32q-21 18 -21 39q0 17 17 37l188 215q20 23 37 23q21 0 39 -21l66 -63q20 -17 20 -37t-20 -37l-213 -188q-20 -17 -37 -17q-13 0 -37 17zM553 1565l-39 32q-20 17 -20 37q0 21 18 39l188 215q20 23 37 23q19 0 37 -21l68 -63q20 -17 20 -37q0 -18 -22 -37l-213 -188
q-20 -17 -37 -17q-13 0 -37 17z" />
    <glyph glyph-name="uhungarumlaut" unicode="&#x171;" horiz-adv-x="1253" 
d="M874 66v96q-47 -89 -134.5 -138t-209.5 -49q-183 0 -288 118.5t-105 316.5v548q0 66 66 66h127q65 0 65 -66v-507q0 -118 56 -185t159 -67q115 0 174.5 68.5t59.5 183.5v507q0 66 65 66h127q66 0 66 -66v-892q0 -66 -66 -66h-96q-66 0 -66 66zM772 1186l-39 33
q-20 17 -20 38q0 18 16 37l189 215q20 23 36 23q21 0 39 -21l66 -63q20 -17 20 -37t-20 -37l-213 -188q-20 -17 -37 -17q-13 0 -37 17zM391 1186l-39 33q-20 17 -20 36q0 21 18 39l189 215q20 23 36 23q19 0 37 -21l68 -63q20 -17 20 -37q0 -18 -22 -37l-213 -188
q-20 -17 -37 -17q-13 0 -37 17z" />
    <glyph glyph-name="Uogonek" unicode="&#x172;" horiz-adv-x="1583" 
d="M1432 1360v-787q-3 -146 -50 -256q-52 -128 -158 -209.5t-247 -113.5q-104 -64 -148 -105q-52 -52 -55 -125q0 -104 139 -104q5 0 26 2t30 2q22 0 29 -6.5t10 -32.5l6 -41q7 -51 -37 -59q-23 -6 -70 -6q-150 0 -226.5 61.5t-76.5 177.5q3 68 43 123.5t105 95.5
q-231 7 -387 125q-143 112 -191 291q-18 68 -22 180v787q0 38 17.5 56t55.5 18h119q74 0 74 -74v-776q0 -103 40 -183t126.5 -129t208.5 -49q181 0 276.5 101t95.5 260v776q0 74 74 74h121q72 0 72 -74z" />
    <glyph glyph-name="uogonek" unicode="&#x173;" horiz-adv-x="1253" 
d="M1122 -375l6 -41q7 -51 -36 -59q-23 -6 -70 -6q-150 0 -226.5 61.5t-76.5 177.5q3 82 58 144.5t138 99.5q-41 11 -41 64v96q-47 -89 -134.5 -138t-209.5 -49q-183 0 -288 118.5t-105 316.5v548q0 66 66 66h127q65 0 65 -66v-507q0 -118 56 -185t159 -67q115 0 174.5 68.5
t59.5 183.5v507q0 66 65 66h127q66 0 66 -66v-905q0 -30 -8 -46.5t-31 -31.5q-31 -19 -48.5 -30.5t-45.5 -34t-42.5 -42t-26.5 -47.5t-11 -57q0 -104 139 -104h19q12 4 36 4q22 0 29 -6.5t10 -32.5z" />
    <glyph glyph-name="Wcircumflex" unicode="&#x174;" horiz-adv-x="2109" 
d="M1057 1069l-260 -1006q-9 -35 -27 -49t-53 -14h-166q-34 0 -53 13.5t-29 45.5l-426 1301q-4 16 -4 24q0 23 15.5 36.5t41.5 13.5h150q34 0 52.5 -14t27.5 -48l315 -1048l262 1046q9 35 27 49.5t53 14.5h145q34 0 52.5 -14.5t27.5 -49.5l262 -1046l316 1048q9 34 27.5 48
t52.5 14h149q28 0 43 -13.5t15 -36.5q0 -4 -5 -24l-430 -1301q-11 -32 -29 -45.5t-53 -13.5h-163q-34 0 -52.5 14t-25.5 49zM1057 1761l-221 -188q-20 -17 -37 -17q-21 0 -39 21l-41 45q-17 20 -17 37q0 21 21 39l211 192q24 23 42.5 31t51.5 8h57q31 0 50 -8t43 -31
l211 -192q22 -19 22 -39q0 -19 -18 -37l-41 -45q-18 -21 -39 -21q-17 0 -37 17z" />
    <glyph glyph-name="wcircumflex" unicode="&#x175;" horiz-adv-x="1611" 
d="M807 768l-160 -713q-6 -30 -22 -42.5t-47 -12.5h-166q-31 0 -48 12t-26 41l-299 908q-4 16 -4 20q0 43 51 43h147q31 0 48 -12.5t24 -42.5l191 -701l161 701q6 30 22.5 42.5t47.5 12.5h160q31 0 47 -12.5t22 -42.5l160 -701l191 703q9 29 24.5 41t46.5 12h148
q49 0 49 -41q0 -6 -4 -22l-299 -908q-9 -29 -25 -41t-47 -12h-168q-30 0 -46 12.5t-23 42.5zM807 1382l-221 -188q-22 -16 -37 -16q-22 0 -39 20l-41 45q-18 18 -18 39q0 20 20 37l211 192q26 23 44.5 31t49.5 8h58q32 0 50 -8t44 -31l211 -192q20 -17 20 -39q0 -18 -16 -37
l-41 -45q-20 -20 -39 -20q-18 0 -37 16z" />
    <glyph glyph-name="Ycircumflex" unicode="&#x176;" horiz-adv-x="1404" 
d="M702 737l353 641q17 33 36.5 44.5t55.5 11.5h149q22 0 34.5 -10.5t12.5 -26.5q0 -18 -8 -31l-499 -874v-418q0 -74 -74 -74h-121q-72 0 -72 74v418l-503 874q-9 15 -9 29q0 18 13 28.5t36 10.5h148q37 0 56 -11.5t38 -44.5zM702 1761l-221 -188q-20 -17 -37 -17
q-20 0 -38 21l-41 45q-17 20 -17 37q0 21 21 39l211 192q24 23 42.5 31t51.5 8h57q31 0 49.5 -8t42.5 -31l211 -192q21 -18 21 -39q0 -17 -17 -37l-41 -45q-18 -21 -39 -21q-16 0 -36 17z" />
    <glyph glyph-name="ycircumflex" unicode="&#x177;" horiz-adv-x="1171" 
d="M586 262l282 711q10 29 26.5 40t47.5 11h143q48 0 48 -39q0 -10 -7 -24l-485 -1129q-66 -152 -141 -209t-195 -57q-114 0 -176 41q-27 18 -27 45q0 17 9 35l36 82q18 32 43 32q7 0 19 -4q43 -16 84 -16q48 0 75.5 20t49.5 68l57 131h-18l-410 961q-6 15 -6 26q0 37 45 37
h143q31 0 48.5 -11t27.5 -40zM588 1382l-221 -188q-19 -16 -37 -16q-22 0 -39 20l-41 45q-17 20 -17 37q0 21 21 39l211 192q24 23 42.5 31t51.5 8h57q31 0 50 -8t43 -31l211 -192q20 -17 20 -39q0 -18 -16 -37l-41 -45q-17 -20 -39 -20q-18 0 -37 16z" />
    <glyph glyph-name="Ydieresis" unicode="&#x178;" horiz-adv-x="1404" 
d="M702 737l353 641q17 33 36.5 44.5t55.5 11.5h149q22 0 34.5 -10.5t12.5 -26.5q0 -18 -8 -31l-499 -874v-418q0 -74 -74 -74h-121q-72 0 -72 74v418l-503 874q-9 15 -9 29q0 18 13 28.5t36 10.5h148q37 0 56 -11.5t38 -44.5zM469 1892q57 0 99 -41.5t42 -97.5t-42 -97.5
t-99 -41.5t-98 41.5t-41 97.5t41 97.5t98 41.5zM934 1892q56 0 97.5 -42t41.5 -97t-41.5 -97t-97.5 -42q-57 0 -99 41.5t-42 97.5t42 97.5t99 41.5z" />
    <glyph glyph-name="Zacute" unicode="&#x179;" horiz-adv-x="1243" 
d="M827 1202h-669q-74 0 -74 74v84q0 74 74 74h921q74 0 74 -72v-59q0 -45 -11.5 -73.5t-41.5 -66.5l-711 -932h741q38 0 56 -17.5t18 -55.5v-84q0 -74 -74 -74h-1003q-74 0 -74 72v59q0 46 12 73t44 66zM543 1571l-35 39q-16 19 -16 35q0 19 22 38l238 211q20 17 36 17
q19 0 37 -21l66 -71q14 -17 14 -35q0 -19 -24 -37l-267 -186q-20 -13 -32 -13q-19 0 -39 23z" />
    <glyph glyph-name="zacute" unicode="&#x17a;" horiz-adv-x="1075" 
d="M397 193h523q65 0 65 -66v-61q0 -66 -65 -66h-762q-66 0 -66 63v62q0 38 10 61.5t37 53.5l520 591h-471q-65 0 -65 66v61q0 66 65 66h691q65 0 65 -63v-62q0 -39 -9.5 -61.5t-37.5 -55.5zM453 1192l-33 39q-17 20 -17 35q0 19 23 39l236 211q19 16 36 16q21 0 39 -21
l64 -71q14 -17 14 -35t-22 -37l-269 -186q-20 -13 -32 -13q-19 0 -39 23z" />
    <glyph glyph-name="Zdotaccent" unicode="&#x17b;" horiz-adv-x="1243" 
d="M827 1202h-669q-74 0 -74 74v84q0 74 74 74h921q74 0 74 -72v-59q0 -45 -11.5 -73.5t-41.5 -66.5l-711 -932h741q38 0 56 -17.5t18 -55.5v-84q0 -74 -74 -74h-1003q-74 0 -74 72v59q0 46 12 73t44 66zM629 1911q64 0 110.5 -47.5t46.5 -110.5t-46.5 -110.5t-110.5 -47.5
q-63 0 -110.5 47.5t-47.5 110.5t47.5 110.5t110.5 47.5z" />
    <glyph glyph-name="zdotaccent" unicode="&#x17c;" horiz-adv-x="1075" 
d="M397 193h523q65 0 65 -66v-61q0 -66 -65 -66h-762q-66 0 -66 63v62q0 38 10 61.5t37 53.5l520 591h-471q-65 0 -65 66v61q0 66 65 66h691q65 0 65 -63v-62q0 -39 -9.5 -61.5t-37.5 -55.5zM539 1532q63 0 110 -47.5t47 -110.5t-47 -110t-110 -47t-110.5 47t-47.5 110
t47.5 110.5t110.5 47.5z" />
    <glyph glyph-name="Zcaron" unicode="&#x17d;" horiz-adv-x="1243" 
d="M827 1202h-669q-74 0 -74 74v84q0 74 74 74h921q74 0 74 -72v-59q0 -45 -11.5 -73.5t-41.5 -66.5l-711 -932h741q38 0 56 -17.5t18 -55.5v-84q0 -74 -74 -74h-1003q-74 0 -74 72v59q0 46 12 73t44 66zM629 1704l219 188q24 17 39 17q19 0 37 -21l41 -45q18 -18 18 -37
q0 -22 -20 -39l-213 -192q-24 -23 -43 -31t-50 -8h-57q-31 0 -50.5 8.5t-43.5 30.5l-211 192q-21 18 -21 39q0 17 17 37l43 45q18 21 37 21q17 0 37 -17z" />
    <glyph glyph-name="zcaron" unicode="&#x17e;" horiz-adv-x="1075" 
d="M397 193h523q65 0 65 -66v-61q0 -66 -65 -66h-762q-66 0 -66 63v62q0 38 10 61.5t37 53.5l520 591h-471q-65 0 -65 66v61q0 66 65 66h691q65 0 65 -63v-62q0 -39 -9.5 -61.5t-37.5 -55.5zM541 1325l219 188q20 17 37 17q21 0 39 -21l41 -45q16 -19 16 -37q0 -20 -21 -38
l-210 -193q-26 -23 -44.5 -31t-50.5 -8h-57q-31 0 -49.5 8t-44.5 31l-211 193q-21 18 -21 36q0 20 19 39l41 45q18 21 39 21q12 0 36 -17z" />
    <glyph glyph-name="longs" unicode="&#x17f;" horiz-adv-x="751" 
d="M199 1024v119q0 188 109.5 303.5t289.5 116.5q124 0 203 -29q41 -14 41 -51q0 -16 -6 -31l-29 -72q-14 -47 -53 -47q-9 0 -13 2q-56 15 -112 15q-172 0 -172 -211v-1073q0 -66 -66 -66h-127q-65 0 -65 66v765h-119q-66 0 -66 66v61q0 66 66 66h119z" />
    <glyph glyph-name="florin" unicode="&#x192;" 
d="M793 1024h241q66 0 66 -66v-61q0 -66 -66 -66h-241v-788q0 -188 -110.5 -303t-291.5 -115q-119 0 -198 25q-41 11 -41 51q0 16 6 31l28 73q17 45 52 45q8 0 14 -2q56 -12 108 -12q89 0 132 55t43 156v784h-119q-66 0 -66 66v61q0 66 66 66h119v119q0 188 109.5 303.5
t289.5 116.5q127 0 201 -27q45 -12 45 -49q0 -15 -9 -33l-28 -74q-14 -47 -53 -47q-9 0 -13 2q-56 15 -112 15q-172 0 -172 -211v-115z" />
    <glyph glyph-name="uni01C4" unicode="&#x1c4;" horiz-adv-x="2832" 
d="M246 1434h483q355 0 562.5 -194.5t207.5 -522.5t-207.5 -522.5t-562.5 -194.5h-483q-74 0 -74 74v1286q0 74 74 74zM438 1202v-971h301q224 0 355 133.5t131 352.5t-131 352t-355 133h-301zM2417 1202h-670q-74 0 -74 74v84q0 74 74 74h922q73 0 73 -72v-59
q0 -45 -11.5 -73.5t-41.5 -66.5l-711 -932h742q38 0 55.5 -17.5t17.5 -55.5v-84q0 -38 -17.5 -56t-55.5 -18h-1004q-74 0 -74 72v59q0 46 12 73t44 66zM2218 1704l219 188q24 17 39 17q19 0 37 -21l41 -45q18 -18 18 -37q0 -22 -20 -39l-213 -192q-24 -23 -42.5 -31
t-49.5 -8h-58q-31 0 -50.5 8.5t-43.5 30.5l-211 192q-20 17 -20 39q0 18 16 37l43 45q18 21 37 21q17 0 37 -17z" />
    <glyph glyph-name="uni01C5" unicode="&#x1c5;" horiz-adv-x="2664" 
d="M246 1434h483q355 0 562.5 -194.5t207.5 -522.5t-207.5 -522.5t-562.5 -194.5h-483q-74 0 -74 74v1286q0 74 74 74zM438 1202v-971h301q224 0 355 133.5t131 352.5t-131 352t-355 133h-301zM1987 193h522q65 0 65 -66v-61q0 -66 -65 -66h-762q-66 0 -66 63v62q0 38 10 61
t38 54l520 591h-471q-66 0 -66 66v61q0 66 66 66h690q65 0 65 -63v-62q0 -39 -9.5 -61.5t-37.5 -55.5zM2130 1325l219 188q20 17 37 17q21 0 39 -21l41 -45q16 -19 16 -37q0 -21 -20 -38l-211 -193q-26 -23 -44 -31t-50 -8h-58q-31 0 -49.5 8t-44.5 31l-211 193
q-20 17 -20 36q0 21 18 39l41 45q18 21 39 21q13 0 37 -17z" />
    <glyph glyph-name="uni01C6" unicode="&#x1c6;" horiz-adv-x="2385" 
d="M913 891v518q0 31 12.5 47t41.5 25l127 37q8 2 20 2q45 0 45 -52v-1402q0 -66 -65 -66h-84q-66 0 -66 61v91q-65 -86 -158.5 -131.5t-207.5 -45.5q-228 0 -367 148.5t-139 388.5t139 388.5t367 148.5q98 0 186.5 -42t148.5 -116zM627 199q130 0 213.5 88.5t83.5 224.5
t-83.5 224.5t-213.5 88.5t-215.5 -89t-85.5 -224t85.5 -224t215.5 -89zM1708 193h522q66 0 66 -66v-61q0 -66 -66 -66h-762q-65 0 -65 63v62q0 38 10 61.5t37 53.5l520 591h-471q-65 0 -65 66v61q0 66 65 66h690q66 0 66 -63v-62q0 -39 -9.5 -61.5t-37.5 -55.5zM1851 1325
l220 188q20 17 36 17q21 0 39 -21l41 -45q17 -20 17 -37q0 -20 -21 -38l-211 -193q-26 -23 -44 -31t-50 -8h-57q-31 0 -50 8t-45 31l-210 193q-21 18 -21 36q0 21 18 39l41 45q18 21 39 21q13 0 37 -17z" />
    <glyph glyph-name="uni01C7" unicode="&#x1c7;" horiz-adv-x="2289" 
d="M438 231h582q38 0 56 -17.5t18 -55.5v-84q0 -74 -74 -74h-774q-74 0 -74 74v1286q0 74 74 74h119q38 0 55.5 -18t17.5 -56v-1129zM1862 451v909q0 74 71 74h121q74 0 74 -74v-920q0 -238 -130 -351.5t-360 -113.5q-219 0 -372 121q-70 56 -80 90q-2 4 -2 13q0 20 20 47
l47 61q25 31 52 31q18 0 43 -19q70 -61 130.5 -86.5t149.5 -25.5q114 0 175 54t61 190z" />
    <glyph glyph-name="uni01C8" unicode="&#x1c8;" horiz-adv-x="1720" 
d="M438 231h582q38 0 56 -17.5t18 -55.5v-84q0 -74 -74 -74h-774q-74 0 -74 74v1286q0 74 74 74h119q38 0 55.5 -18t17.5 -56v-1129zM1438 1532q63 0 110 -47.5t47 -110.5t-47 -110t-110 -47t-110.5 47t-47.5 110t47.5 110.5t110.5 47.5zM1567 958v-911q0 -184 -64 -291
q-76 -126 -252 -172q-18 -6 -32 -6q-41 0 -54 49l-22 78q-4 20 -4 25q0 35 39 51q54 21 88 80q43 72 43 186v911q0 66 65 66h129q64 0 64 -66z" />
    <glyph glyph-name="uni01C9" unicode="&#x1c9;" horiz-adv-x="1138" 
d="M410 1468v-1402q0 -66 -66 -66h-127q-65 0 -65 66v1347q0 31 12 47t43 23l137 37q6 2 21 2q21 0 33 -14.5t12 -39.5zM856 1532q63 0 110.5 -47.5t47.5 -110.5t-47.5 -110t-110.5 -47t-110.5 47t-47.5 110t47.5 110.5t110.5 47.5zM985 958v-911q0 -186 -63 -291
q-76 -126 -252 -172q-18 -6 -33 -6q-40 0 -53 49l-23 78q-4 20 -4 25q0 35 39 51q54 21 88 80q43 72 43 186v911q0 66 66 66h129q63 0 63 -66z" />
    <glyph glyph-name="uni01CA" unicode="&#x1ca;" horiz-adv-x="2719" 
d="M1135 416v944q0 38 17.5 56t55.5 18h119q74 0 74 -74v-1286q0 -74 -74 -74h-141q-40 0 -60.5 11t-42.5 44l-645 963v-944q0 -38 -17.5 -56t-55.5 -18h-119q-74 0 -74 74v1286q0 74 74 74h141q40 0 60 -11t42 -45zM2292 451v909q0 74 71 74h121q74 0 74 -74v-920
q0 -238 -130 -351.5t-360 -113.5q-219 0 -372 121q-70 56 -80 90q-2 4 -2 13q0 20 20 47l47 61q25 31 52 31q18 0 43 -19q70 -61 130.5 -86.5t149.5 -25.5q114 0 175 54t61 190z" />
    <glyph glyph-name="uni01CB" unicode="&#x1cb;" horiz-adv-x="2150" 
d="M1135 416v944q0 38 17.5 56t55.5 18h119q74 0 74 -74v-1286q0 -74 -74 -74h-141q-40 0 -60.5 11t-42.5 44l-645 963v-944q0 -38 -17.5 -56t-55.5 -18h-119q-74 0 -74 74v1286q0 74 74 74h141q40 0 60 -11t42 -45zM1868 1532q63 0 110 -47.5t47 -110.5t-47 -110t-110 -47
t-110.5 47t-47.5 110t47.5 110.5t110.5 47.5zM1997 958v-911q0 -184 -64 -291q-76 -126 -252 -172q-18 -6 -32 -6q-41 0 -54 49l-22 78q-4 20 -4 25q0 35 39 51q54 21 88 80q43 72 43 186v911q0 66 65 66h129q64 0 64 -66z" />
    <glyph glyph-name="uni01CC" unicode="&#x1cc;" horiz-adv-x="1851" 
d="M379 958v-96q48 88 138.5 137.5t215.5 49.5q187 0 295.5 -118.5t108.5 -316.5v-548q0 -66 -66 -66h-127q-65 0 -65 66v507q0 118 -59 185t-167 67q-119 0 -181 -68.5t-62 -183.5v-507q0 -66 -66 -66h-127q-65 0 -65 66v892q0 66 65 66h96q66 0 66 -66zM1569 1532
q63 0 110 -47.5t47 -110.5t-47 -110t-110 -47t-110.5 47t-47.5 110t47.5 110.5t110.5 47.5zM1698 958v-911q0 -184 -64 -291q-76 -126 -252 -172q-18 -6 -32 -6q-41 0 -54 49l-22 78q-4 20 -4 25q0 35 39 51q54 21 88 80q43 72 43 186v911q0 66 65 66h129q64 0 64 -66z" />
    <glyph glyph-name="uni01CD" unicode="&#x1cd;" horiz-adv-x="1492" 
d="M410 272l-86 -215q-13 -34 -31 -45.5t-55 -11.5h-142q-25 0 -39 11.5t-14 31.5q0 14 6 29l539 1304q13 33 31.5 45.5t54.5 12.5h147q36 0 54.5 -12.5t31.5 -45.5l539 -1304q6 -15 6 -27q0 -21 -14.5 -33t-40.5 -12h-142q-36 0 -54.5 12t-31.5 45l-82 215h-677zM999 504
l-251 637l-254 -637h505zM748 1704l219 188q24 17 39 17q21 0 36 -21l41 -45q19 -19 19 -37q0 -21 -21 -39l-213 -192q-24 -23 -42.5 -31t-49.5 -8h-57q-31 0 -50.5 8.5t-43.5 30.5l-211 192q-21 18 -21 39q0 17 17 37l43 45q18 21 39 21q14 0 34 -17z" />
    <glyph glyph-name="uni01CE" unicode="&#x1ce;" horiz-adv-x="1208" 
d="M856 63v56q-107 -144 -346 -144q-177 0 -291.5 97.5t-114.5 257.5t117.5 255t296.5 95q91 0 157 -12t150 -39l-2 26q-5 98 -65.5 154.5t-177.5 56.5q-151 3 -285 -61q-12 -6 -25 -6q-31 0 -47 39l-20 51q-8 16 -8 33q0 30 32 49q137 78 353 78q228 0 359.5 -116.5
t131.5 -303.5v-563q0 -66 -65 -66h-86q-64 0 -64 63zM825 358v111q-111 41 -239 41q-99 0 -166.5 -49t-67.5 -131q0 -81 64 -129.5t155 -48.5q112 0 183 56t71 150zM588 1325l219 188q24 17 39 17q19 0 37 -21l41 -45q18 -18 18 -37q0 -21 -20 -38l-213 -193
q-24 -23 -43 -31t-50 -8h-57q-31 0 -50.5 8.5t-43.5 30.5l-211 193q-21 18 -21 38q0 17 17 37l43 45q18 21 37 21q17 0 37 -17z" />
    <glyph glyph-name="uni01CF" unicode="&#x1cf;" horiz-adv-x="610" 
d="M438 1360v-1286q0 -74 -71 -74h-121q-74 0 -74 74v1286q0 74 74 74h121q71 0 71 -74zM307 1704l219 188q20 17 37 17q21 0 39 -21l41 -45q16 -19 16 -37q0 -22 -20 -39l-211 -192q-26 -23 -44 -31t-50 -8h-58q-31 0 -49.5 8t-44.5 31l-211 192q-20 17 -20 37q0 21 18 39
l41 45q18 21 39 21q13 0 37 -17z" />
    <glyph glyph-name="uni01D0" unicode="&#x1d0;" horiz-adv-x="561" 
d="M215 1024h129q66 0 66 -66v-892q0 -66 -66 -66h-129q-63 0 -63 66v892q0 66 63 66zM281 1325l219 188q20 17 37 17q20 0 38 -21l41 -45q17 -20 17 -37q0 -20 -21 -38l-211 -193q-26 -23 -44 -31t-50 -8h-57q-31 0 -49.5 8t-44.5 31l-211 193q-21 18 -21 36q0 20 19 39
l41 45q18 21 39 21q12 0 36 -17z" />
    <glyph glyph-name="uni01D1" unicode="&#x1d1;" horiz-adv-x="1683" 
d="M842 1458q166 0 310 -56t245.5 -154t159 -235.5t57.5 -295.5t-57.5 -295.5t-159 -235.5t-245.5 -154.5t-310 -56.5t-309.5 56.5t-245 154.5t-159.5 235.5t-58 295.5t58 295.5t159.5 235.5t245 154t309.5 56zM842 223q213 0 355 140.5t142 353.5t-142 353t-355 140
t-355.5 -140t-142.5 -353t142.5 -353.5t355.5 -140.5zM844 1704l219 188q20 17 37 17q21 0 39 -21l41 -45q16 -19 16 -37q0 -22 -20 -39l-211 -192q-26 -23 -44.5 -31t-50.5 -8h-57q-31 0 -49.5 8t-44.5 31l-211 192q-21 18 -21 37q0 20 19 39l41 45q18 21 39 21
q13 0 37 -17z" />
    <glyph glyph-name="uni01D2" unicode="&#x1d2;" horiz-adv-x="1273" 
d="M637 1049q245 0 405 -151.5t160 -385.5t-160 -385.5t-405 -151.5t-405 151.5t-160 385.5t160 385.5t405 151.5zM637 193q135 0 223 90.5t88 228.5t-88 228.5t-223 90.5t-223 -90.5t-88 -228.5t88 -228.5t223 -90.5zM639 1325l219 188q20 17 37 17q21 0 39 -21l41 -45
q16 -19 16 -37q0 -21 -20 -38l-211 -193q-26 -23 -44 -31t-50 -8h-58q-31 0 -49.5 8t-44.5 31l-211 193q-20 17 -20 36q0 21 18 39l41 45q18 21 39 21q13 0 37 -17z" />
    <glyph glyph-name="uni01D3" unicode="&#x1d3;" horiz-adv-x="1583" 
d="M418 1360v-776q0 -103 40 -183t126.5 -129t208.5 -49q181 0 276.5 101t95.5 260v776q0 74 74 74h121q72 0 72 -74v-787q0 -130 -42 -239.5t-121 -189.5t-201 -124.5t-275 -44.5t-275 45t-202 125t-122 189t-42 239v787q0 38 17.5 56t55.5 18h119q74 0 74 -74zM793 1704
l219 188q24 17 39 17q18 0 36 -21l41 -45q19 -19 19 -37q0 -21 -21 -39l-213 -192q-24 -23 -42.5 -31t-49.5 -8h-57q-31 0 -50.5 8.5t-43.5 30.5l-211 192q-21 18 -21 39q0 17 17 37l43 45q18 21 37 21q16 0 36 -17z" />
    <glyph glyph-name="uni01D4" unicode="&#x1d4;" horiz-adv-x="1253" 
d="M874 66v96q-47 -89 -134.5 -138t-209.5 -49q-183 0 -288 118.5t-105 316.5v548q0 66 66 66h127q65 0 65 -66v-507q0 -118 56 -185t159 -67q115 0 174.5 68.5t59.5 183.5v507q0 66 65 66h127q66 0 66 -66v-892q0 -66 -66 -66h-96q-66 0 -66 66zM621 1325l219 188
q20 17 37 17q20 0 38 -21l41 -45q17 -20 17 -37q0 -20 -21 -38l-211 -193q-24 -23 -42.5 -31t-49.5 -8h-57q-33 0 -51.5 8t-42.5 31l-211 193q-21 18 -21 38q0 17 17 37l41 45q18 21 38 21q13 0 37 -17z" />
    <glyph glyph-name="Gcaron" unicode="&#x1e6;" horiz-adv-x="1529" 
d="M803 1704l219 188q20 17 37 17q21 0 39 -21l41 -45q16 -19 16 -37q0 -22 -20 -39l-211 -192q-26 -23 -44.5 -31t-50.5 -8h-57q-31 0 -49.5 8t-44.5 31l-211 192q-21 18 -21 37q0 20 19 39l41 45q18 21 39 21q13 0 37 -17zM1149 580h-311q-38 0 -56 17.5t-18 55.5v74
q0 74 74 74h497q74 0 74 -74v-412q0 -46 -7.5 -74t-33.5 -57q-62 -69 -186 -131q-166 -78 -365 -78q-218 0 -389 96.5t-264.5 265.5t-93.5 380t93.5 380t264.5 265t389 96q244 0 436 -123q88 -51 103 -92q2 -6 2 -16q0 -27 -31 -51l-92 -76q-31 -21 -53 -21q-19 0 -37 15
q-145 123 -328 123q-211 0 -342 -140t-131 -360t131 -360t342 -140q192 0 332 119v244z" />
    <glyph glyph-name="gcaron" unicode="&#x1e7;" horiz-adv-x="1273" 
d="M883 -2v170q-56 -71 -139.5 -109.5t-184.5 -38.5q-216 0 -351 140.5t-134 374.5q0 234 134.5 374t350.5 140q225 0 348 -166v80q0 61 66 61h84q65 0 65 -66v-970q0 -194 -139.5 -308t-384.5 -114q-249 0 -424 112q-37 24 -37 54q0 19 8 35l27 65q16 39 47 39q16 0 29 -8
q62 -41 133 -66q98 -39 217 -39q285 0 285 240zM608 238q125 0 207 84t82 213t-82 212.5t-207 83.5t-207 -83.5t-82 -212.5t82 -213t207 -84zM598 1325l219 188q24 17 39 17q19 0 37 -21l41 -45q18 -18 18 -37q0 -21 -20 -38l-213 -193q-24 -23 -42.5 -31t-49.5 -8h-58
q-31 0 -50.5 8.5t-43.5 30.5l-211 193q-20 17 -20 38q0 18 16 37l43 45q18 21 37 21q17 0 37 -17z" />
    <glyph glyph-name="uni01F4" unicode="&#x1f4;" horiz-adv-x="1529" 
d="M1149 580h-311q-38 0 -56 17.5t-18 55.5v74q0 74 74 74h497q74 0 74 -74v-412q0 -46 -7.5 -74t-33.5 -57q-62 -69 -186 -131q-166 -78 -365 -78q-218 0 -389 96.5t-264.5 265.5t-93.5 380t93.5 380t264.5 265t389 96q244 0 436 -123q88 -51 103 -92q2 -6 2 -16
q0 -27 -31 -51l-92 -76q-31 -21 -53 -21q-19 0 -37 15q-145 123 -328 123q-211 0 -342 -140t-131 -360t131 -360t342 -140q192 0 332 119v244zM705 1571l-33 39q-17 20 -17 35q0 18 23 38l235 211q20 17 37 17q21 0 39 -21l64 -71q14 -17 14 -35q0 -17 -23 -37l-268 -186
q-20 -13 -33 -13q-18 0 -38 23z" />
    <glyph glyph-name="uni01F5" unicode="&#x1f5;" horiz-adv-x="1273" 
d="M883 -2v170q-56 -71 -139.5 -109.5t-184.5 -38.5q-216 0 -351 140.5t-134 374.5q0 234 134.5 374t350.5 140q225 0 348 -166v80q0 61 66 61h84q65 0 65 -66v-970q0 -194 -139.5 -308t-384.5 -114q-249 0 -424 112q-37 24 -37 54q0 19 8 35l27 65q16 39 47 39q16 0 29 -8
q62 -41 133 -66q98 -39 217 -39q285 0 285 240zM608 238q125 0 207 84t82 213t-82 212.5t-207 83.5t-207 -83.5t-82 -212.5t82 -213t207 -84zM512 1192l-35 39q-16 19 -16 35q0 20 22 39l238 211q19 16 37 16q19 0 37 -21l65 -71q14 -17 14 -35q0 -19 -24 -37l-266 -186
q-20 -13 -33 -13q-19 0 -39 23z" />
    <glyph glyph-name="Aringacute" unicode="&#x1fa;" horiz-adv-x="1492" 
d="M410 272l-86 -215q-13 -34 -31 -45.5t-55 -11.5h-142q-25 0 -39 11.5t-14 31.5q0 14 6 29l539 1304q13 33 31.5 45.5t54.5 12.5h147q36 0 54.5 -12.5t31.5 -45.5l539 -1304q6 -15 6 -27q0 -21 -14.5 -33t-40.5 -12h-142q-36 0 -54.5 12t-31.5 45l-82 215h-677zM999 504
l-251 637l-254 -637h505zM621 1985l-33 38q-15 18 -15 35q0 21 21 39l237 211q22 16 37 16q23 0 37 -20l64 -72q16 -19 16 -34q0 -19 -24 -37l-267 -187q-18 -12 -32 -12q-18 0 -41 23zM748 1896q89 0 144.5 -53.5t55.5 -134.5q0 -80 -58 -136t-142 -56q-83 0 -142 56
t-59 136q0 81 55 134.5t146 53.5zM637 1708q0 -46 32.5 -78.5t78.5 -32.5q44 0 77 32.5t33 78.5q0 45 -30.5 76t-79.5 31t-80 -31t-31 -76z" />
    <glyph glyph-name="aringacute" unicode="&#x1fb;" horiz-adv-x="1208" 
d="M856 63v56q-107 -144 -346 -144q-177 0 -291.5 97.5t-114.5 257.5t117.5 255t296.5 95q91 0 157 -12t150 -39l-2 26q-5 98 -65.5 154.5t-177.5 56.5q-151 3 -285 -61q-12 -6 -25 -6q-31 0 -47 39l-20 51q-8 16 -8 33q0 30 32 49q137 78 353 78q228 0 359.5 -116.5
t131.5 -303.5v-563q0 -66 -65 -66h-86q-64 0 -64 63zM825 358v111q-111 41 -239 41q-99 0 -166.5 -49t-67.5 -131q0 -81 64 -129.5t155 -48.5q112 0 183 56t71 150zM453 1587l-33 39q-17 20 -17 35q0 21 23 41l238 209q19 16 36 16q20 0 37 -20l64 -70q16 -19 16 -35
q0 -21 -24 -39l-267 -186q-18 -12 -34 -12q-20 0 -39 22zM588 1505q89 0 144.5 -53.5t55.5 -134.5q0 -80 -58 -136.5t-142 -56.5q-83 0 -142 56.5t-59 136.5q0 81 55 134.5t146 53.5zM477 1317q0 -46 32.5 -78.5t78.5 -32.5q44 0 77 33t33 78t-30.5 75.5t-79.5 30.5
t-80 -30.5t-31 -75.5z" />
    <glyph glyph-name="AEacute" unicode="&#x1fc;" horiz-adv-x="2154" 
d="M1090 250h-617l-125 -195q-22 -34 -42 -44.5t-60 -10.5h-148q-21 0 -33 10.5t-12 26.5q0 12 10 29l869 1312q24 34 43.5 45t58.5 11h957q71 0 71 -74v-78q0 -74 -71 -74h-641v-387h487q72 0 72 -73v-72q0 -74 -72 -74h-487v-377h661q72 0 72 -73v-78q0 -74 -72 -74h-848
q-38 0 -55.5 18t-17.5 56v176zM1090 481v721l-467 -721h467zM1212 1571l-32 39q-17 20 -17 35q0 18 23 38l237 211q20 17 37 17q19 0 37 -21l64 -71q16 -19 16 -35q0 -18 -25 -37l-266 -186q-20 -13 -33 -13q-21 0 -41 23z" />
    <glyph glyph-name="aeacute" unicode="&#x1fd;" horiz-adv-x="1931" 
d="M1806 436h-735q10 -117 90 -186q38 -34 92.5 -53t110.5 -19q170 -3 283 92q16 13 30 13q20 0 43 -19l58 -47q28 -25 28 -49q0 -22 -20 -39q-71 -68 -172 -106q-126 -49 -256 -46q-155 0 -277 70q-47 26 -79.5 57.5t-65.5 77.5q-57 -93 -139 -141q-110 -66 -287 -66
t-291.5 97.5t-114.5 257.5t117.5 255t296.5 95q91 0 155.5 -12t149.5 -39v26q0 96 -62 153t-181 58q-149 0 -283 -61q-12 -6 -25 -6q-33 0 -49 39l-20 51q-8 16 -8 33q0 30 32 49q140 80 353 76q142 -3 231 -48q98 -49 154 -135q52 67 125 115q122 70 268 70q124 0 224 -47
t162 -124.5t95 -173t33 -198.5v-10q0 -60 -66 -60zM1075 594h547q-7 117 -82 190q-77 74 -184 74q-118 0 -193 -72t-88 -192zM823 354v115q-108 41 -237 41q-102 0 -170 -49t-68 -131q0 -81 64.5 -129.5t158.5 -48.5q111 0 181.5 56.5t70.5 145.5zM831 1192l-34 39
q-17 20 -17 35q0 19 23 39l237 211q19 16 37 16q19 0 37 -21l66 -71q14 -17 14 -35t-25 -37l-266 -186q-19 -13 -33 -13q-19 0 -39 23z" />
    <glyph glyph-name="Oslashacute" unicode="&#x1fe;" horiz-adv-x="1703" 
d="M735 1571l-33 39q-16 19 -16 35q0 18 23 38l237 211q20 17 37 17q19 0 37 -21l63 -71q17 -20 17 -35q0 -18 -25 -37l-266 -186q-20 -13 -33 -13q-21 0 -41 23zM469 63l-86 -118q-21 -28 -38 -37.5t-50 -9.5h-55q-17 0 -27 9t-10 21q0 14 8 25l137 188q-180 147 -242 371
q-23 85 -26 205q0 158 58 295.5t159.5 235.5t245 154t309.5 56q168 -7 278 -45q38 -12 105 -43l86 119q21 28 38 37.5t50 9.5h55q17 0 27 -9t10 -22t-8 -24l-137 -189q180 -142 241 -370q24 -90 27 -205q0 -158 -57.5 -295.5t-159 -235.5t-245.5 -154.5t-310 -56.5
q-114 5 -201.5 24t-181.5 64zM1200 1077l-577 -803q98 -48 229 -51q213 0 355.5 140.5t142.5 353.5q-3 115 -39 198q-35 86 -111 162zM504 356l577 803q-98 48 -229 51q-213 0 -355.5 -140t-142.5 -353q3 -116 39 -199q35 -86 111 -162z" />
    <glyph glyph-name="oslashacute" unicode="&#x1ff;" horiz-adv-x="1273" 
d="M555 1192l-33 39q-16 19 -16 35q0 20 22 39l238 211q19 16 37 16q19 0 37 -21l63 -71q17 -20 17 -35q0 -18 -25 -37l-266 -186q-20 -13 -33 -13q-21 0 -41 23zM125 -57l125 166q-90 83 -131 180q-45 101 -45 223q-1 154 71.5 277t201.5 191t290 67q140 0 272 -60l74 100
q18 24 33 31.5t45 7.5h63q15 0 24 -6.5t9 -17.5q0 -9 -8 -21l-125 -166q90 -83 131 -180q45 -101 45 -223q1 -234 -158.5 -384.5t-404.5 -147.5q-147 0 -272 57l-74 -100q-18 -24 -33 -31.5t-45 -7.5h-63q-15 0 -24 6.5t-9 17.5q0 9 8 21zM401 313l365 484q-53 34 -129 34
q-134 0 -222.5 -92t-88.5 -227q0 -118 75 -199zM872 711l-364 -484q53 -34 129 -34q134 0 222.5 92t88.5 227q0 117 -76 199z" />
    <glyph glyph-name="uni0200" unicode="&#x200;" horiz-adv-x="1492" 
d="M410 272l-86 -215q-13 -34 -31 -45.5t-55 -11.5h-142q-25 0 -39 11.5t-14 31.5q0 14 6 29l539 1304q13 33 31.5 45.5t54.5 12.5h147q36 0 54.5 -12.5t31.5 -45.5l539 -1304q6 -15 6 -27q0 -21 -14.5 -33t-40.5 -12h-142q-36 0 -54.5 12t-31.5 45l-82 215h-677zM999 504
l-251 637l-254 -637h505zM592 1597l-39 -32q-20 -17 -35 -17t-39 17l-213 188q-18 18 -18 37t18 37l66 63q21 21 39 21q17 0 37 -23l188 -215q18 -18 18 -37q0 -20 -22 -39zM973 1597l-39 -32q-20 -17 -37 -17q-13 0 -37 17l-213 188q-18 18 -18 37t18 37l66 63q21 21 39 21
q16 0 36 -23l189 -215q16 -19 16 -37q0 -22 -20 -39z" />
    <glyph glyph-name="uni0201" unicode="&#x201;" horiz-adv-x="1208" 
d="M856 63v56q-107 -144 -346 -144q-177 0 -291.5 97.5t-114.5 257.5t118 255t296 95q91 0 157 -12t150 -39l-2 26q-3 97 -64 154t-179 57q-152 3 -283 -61q-12 -6 -25 -6q-33 0 -49 39l-20 51q-6 18 -6 31q0 32 32 51q135 78 351 78q228 0 359.5 -116.5t131.5 -303.5v-563
q0 -66 -63 -66h-86q-66 0 -66 63zM825 358v111q-111 41 -239 41q-99 0 -166.5 -49t-67.5 -131q0 -81 64 -129.5t155 -48.5q114 0 184 56t70 150zM434 1219l-39 -33q-20 -17 -37 -17q-16 0 -36 17l-213 188q-21 18 -21 37t21 37l65 63q18 21 37 21t39 -23l188 -215
q17 -20 17 -37q0 -20 -21 -38zM815 1219l-39 -33q-24 -17 -37 -17q-17 0 -37 17l-213 188q-20 17 -20 37t20 37l66 63q18 21 37 21t39 -23l188 -215q17 -20 17 -37q0 -20 -21 -38z" />
    <glyph glyph-name="Scommaaccent" unicode="&#x218;" horiz-adv-x="1208" 
d="M532 887l263 -101q193 -72 268.5 -165.5t75.5 -243.5q0 -128 -72.5 -220t-196.5 -136.5t-284 -43.5q-250 0 -426 129q-72 58 -92 90q-6 10 -9 19q-4 16 -4 21q0 24 25 53l53 69q23 29 47 29q21 0 39 -18q69 -77 165 -116.5t202 -39.5q124 0 199 44.5t75 131.5
q0 61 -38.5 103t-129.5 77l-274 109q-324 126 -324 397q0 163 138 273t360 110q198 0 362 -80q97 -45 97 -94q0 -24 -21 -51l-51 -64q-26 -32 -57 -32q-18 0 -31 10q-141 86 -299 86q-107 0 -168.5 -44t-61.5 -114q0 -125 170 -188z" />
    <glyph glyph-name="scommaaccent" unicode="&#x219;" horiz-adv-x="972" 
d="M850 854l-47 -59q-19 -29 -47 -29q-16 0 -33 10q-115 86 -229 86q-68 0 -108 -26.5t-40 -71.5q0 -72 98 -107l209 -73q57 -20 98.5 -43.5t77.5 -58.5t55 -84.5t19 -112.5q0 -158 -109.5 -234t-306.5 -76q-149 3 -256 54q-95 44 -155 106q-19 22 -19 45q0 20 19 45l55 68
q20 26 45 26q19 0 37 -18q129 -122 281 -125q163 0 163 109q0 56 -32.5 82t-114.5 55l-184 63q-101 36 -157 108t-56 171q0 138 103 211.5t271 73.5q208 0 353 -107q28 -22 28 -45q0 -19 -18 -43zM453 -668l-15 17q-14 17 -14 30q0 14 10 27q25 28 43 62q16 36 21 69
q-49 9 -80 46t-31 85q0 57 39 97t96 40q56 0 94.5 -39.5t40.5 -97.5q0 -93 -36.5 -185t-102.5 -153q-14 -14 -33 -14q-16 0 -32 16z" />
    <glyph glyph-name="uni021A" unicode="&#x21a;" horiz-adv-x="1245" 
d="M702 2l-20 -90q97 -12 149 -60t52 -131q0 -95 -76.5 -148.5t-204.5 -53.5q-97 0 -190 41q-33 13 -33 41q0 14 6 26l12 31q17 33 45 33q11 0 17 -2q82 -29 143 -29q107 0 107 61q0 60 -111 60h-70q-43 0 -43 37q0 12 2 18l45 168q-22 9 -32 22t-11 48v1128h-407
q-74 0 -74 74v84q0 74 74 74h1081q74 0 74 -74v-84q0 -74 -74 -74h-407v-1128q-1 -36 -14.5 -51.5t-39.5 -20.5z" />
    <glyph glyph-name="uni021B" unicode="&#x21b;" horiz-adv-x="831" 
d="M621 -23l-15 -65q97 -12 149 -60t52 -131q0 -95 -76.5 -148.5t-204.5 -53.5q-97 0 -190 41q-33 13 -33 41q0 14 6 26l13 31q16 33 45 33q10 0 16 -2q82 -29 143 -29q107 0 107 61q0 60 -111 60h-69q-43 0 -43 37q0 12 2 18l41 154q-117 29 -183 116q-70 92 -77 269v456
h-119q-66 0 -66 66v61q0 66 66 66h125v287q0 31 12 46.5t43 24.5l131 35q6 2 21 2q45 0 45 -53v-342h235q66 0 66 -66v-61q0 -66 -66 -66h-235v-409q0 -223 147 -223q57 0 104 20q12 4 19 4q31 0 47 -39l37 -86q8 -16 8 -35q0 -30 -33 -47q-66 -32 -159 -39z" />
    <glyph glyph-name="uni0226" unicode="&#x226;" horiz-adv-x="1492" 
d="M410 272l-86 -215q-13 -34 -31 -45.5t-55 -11.5h-142q-25 0 -39 11.5t-14 31.5q0 14 6 29l539 1304q13 33 31.5 45.5t54.5 12.5h147q36 0 54.5 -12.5t31.5 -45.5l539 -1304q6 -15 6 -27q0 -21 -14.5 -33t-40.5 -12h-142q-36 0 -54.5 12t-31.5 45l-82 215h-677zM999 504
l-251 637l-254 -637h505zM748 1911q63 0 110 -47.5t47 -110.5t-47 -110.5t-110 -47.5q-64 0 -111 47.5t-47 110.5t47 110.5t111 47.5z" />
    <glyph glyph-name="uni0227" unicode="&#x227;" horiz-adv-x="1208" 
d="M856 63v56q-107 -144 -346 -144q-177 0 -291.5 97.5t-114.5 257.5t117.5 255t296.5 95q91 0 157 -12t150 -39l-2 26q-5 98 -65.5 154.5t-177.5 56.5q-151 3 -285 -61q-12 -6 -25 -6q-31 0 -47 39l-20 51q-8 16 -8 33q0 30 32 49q137 78 353 78q228 0 359.5 -116.5
t131.5 -303.5v-563q0 -66 -65 -66h-86q-64 0 -64 63zM825 358v111q-111 41 -239 41q-99 0 -166.5 -49t-67.5 -131q0 -81 64 -129.5t155 -48.5q112 0 183 56t71 150zM588 1532q64 0 110.5 -47.5t46.5 -110.5t-46.5 -110t-110.5 -47q-63 0 -110.5 47t-47.5 110t47.5 110.5
t110.5 47.5z" />
    <glyph glyph-name="uni0237" unicode="&#x237;" horiz-adv-x="575" 
d="M424 958v-911q0 -181 -66 -291q-72 -125 -249 -172q-18 -6 -35 -6q-40 0 -51 49l-25 78q-4 16 -4 25q0 37 39 51q56 21 90 80q43 72 43 186v911q0 66 63 66h131q64 0 64 -66z" />
    <glyph glyph-name="uni02BB" unicode="&#x2bb;" horiz-adv-x="552" 
d="M379 1438l22 -27q15 -15 15 -29q0 -16 -27 -47q-42 -45 -62.5 -83t-29.5 -93q54 -10 87.5 -50.5t33.5 -94.5q0 -60 -44.5 -104t-105.5 -44t-104 44t-43 104q0 121 50 234t140 190q18 18 37 18q16 0 31 -18z" />
    <glyph glyph-name="afii57929" unicode="&#x2bc;" horiz-adv-x="544" 
d="M174 897l-24 31q-15 15 -15 28q0 16 19 35q46 47 69 87.5t33 99.5q-54 12 -87.5 52t-33.5 93q0 61 44 104t106 43q61 0 104 -43t43 -104q0 -120 -50.5 -233t-139.5 -191q-21 -18 -37 -18q-18 0 -31 16z" />
    <glyph glyph-name="circumflex" unicode="&#x2c6;" horiz-adv-x="1146" 
d="M573 1382l-221 -188q-22 -16 -37 -16q-22 0 -39 20l-40 45q-19 19 -19 39q0 19 21 37l211 192q26 23 44.5 31t49.5 8h57q32 0 50 -8t44 -31l211 -192q21 -18 21 -39q0 -17 -17 -37l-41 -45q-17 -20 -39 -20q-17 0 -36 16z" />
    <glyph glyph-name="caron" unicode="&#x2c7;" horiz-adv-x="1146" 
d="M573 1325l220 188q20 17 36 17q21 0 39 -21l41 -45q17 -20 17 -37q0 -20 -21 -38l-211 -193q-26 -23 -44 -31t-50 -8h-57q-31 0 -49.5 8t-44.5 31l-211 193q-21 18 -21 36q0 20 19 39l40 45q18 21 39 21q13 0 37 -17z" />
    <glyph glyph-name="uni02C9" unicode="&#x2c9;" horiz-adv-x="1146" 
d="M289 1434h567q53 0 53 -54v-77q0 -54 -53 -54h-567q-53 0 -53 54v77q0 54 53 54z" />
    <glyph glyph-name="breve" unicode="&#x2d8;" horiz-adv-x="1146" 
d="M770 1499h78q51 0 51 -45q0 -54 -21.5 -106t-58.5 -91q-86 -86 -246 -86q-163 0 -245 86q-38 38 -60 90.5t-22 106.5q0 45 51 45h78q27 0 39.5 -12.5t15.5 -36.5q8 -63 43 -100t100 -37t100.5 37t43.5 100q7 49 53 49z" />
    <glyph glyph-name="dotaccent" unicode="&#x2d9;" horiz-adv-x="1146" 
d="M573 1532q63 0 110.5 -47.5t47.5 -110.5t-47.5 -110t-110.5 -47t-110 47t-47 110t47 110.5t110 47.5z" />
    <glyph glyph-name="ring" unicode="&#x2da;" horiz-adv-x="1146" 
d="M571 1505q89 0 145 -53.5t56 -134.5q0 -80 -58.5 -136.5t-142.5 -56.5q-83 0 -141.5 56.5t-58.5 136.5q0 81 55 134.5t145 53.5zM461 1317q0 -46 32 -78.5t78 -32.5q45 0 78 33t33 78t-31 75.5t-80 30.5t-79.5 -30.5t-30.5 -75.5z" />
    <glyph glyph-name="ogonek" unicode="&#x2db;" horiz-adv-x="1146" 
d="M616 16l152 -16q-123 -71 -168 -123t-45 -113q0 -104 139 -104q6 0 27 2t29 2q22 0 28.5 -6.5t9.5 -32.5l7 -41q7 -51 -37 -59q-23 -6 -70 -6q-150 0 -226.5 61.5t-76.5 177.5q0 75 59 146t172 112z" />
    <glyph glyph-name="tilde" unicode="&#x2dc;" horiz-adv-x="1146" 
d="M342 1208h-72q-31 0 -42 16.5t-9 49.5q7 107 66 166q56 53 143 53q30 -1 62.5 -13t50 -22.5t50.5 -32.5l9 -6q64 -49 100 -49q14 0 23.5 6t15 19.5t8 21.5t5.5 25q10 43 55 43h74q51 0 51 -45q0 -105 -58 -172q-54 -66 -153 -66q-33 0 -66.5 12.5t-54.5 25.5t-51 36
q-59 40 -82 45q-8 2 -16 2q-45 0 -54 -72q-10 -43 -55 -43z" />
    <glyph glyph-name="hungarumlaut" unicode="&#x2dd;" horiz-adv-x="1146" 
d="M741 1186l-39 33q-20 17 -20 38q0 18 16 37l189 215q20 23 37 23q18 0 39 -21l65 -63q21 -18 21 -37t-21 -37l-213 -188q-24 -17 -37 -17q-17 0 -37 17zM360 1186l-38 33q-21 18 -21 36q0 21 18 39l189 215q16 23 35 23q18 0 39 -21l67 -63q21 -18 21 -37q0 -17 -23 -37
l-213 -188q-20 -17 -37 -17t-37 17z" />
    <glyph glyph-name="uni0312" unicode="&#x312;" horiz-adv-x="1146" 
d="M643 1626l14 -16q15 -15 15 -31q0 -14 -10 -27q-29 -32 -44 -61q-14 -32 -20 -70q49 -9 80 -46t31 -85q0 -57 -39.5 -97t-96.5 -40q-56 0 -94.5 39.5t-40.5 97.5q0 93 37 184.5t103 153.5q14 14 32 14q17 0 33 -16z" />
    <glyph glyph-name="uni0323" unicode="&#x323;" horiz-adv-x="1146" 
d="M573 -166q63 0 110.5 -47.5t47.5 -110.5q0 -64 -47.5 -110.5t-110.5 -46.5t-110 46.5t-47 110.5q0 63 47 110.5t110 47.5z" />
    <glyph glyph-name="uni037E" unicode="&#x37e;" horiz-adv-x="579" 
d="M297 1049q67 0 114.5 -48t47.5 -114t-47.5 -114t-114.5 -48q-66 0 -114 48t-48 114t48 114t114 48zM180 -326l-28 33q-15 15 -15 31t21 37q51 49 75 93.5t33 111.5q-58 11 -94.5 54.5t-36.5 102.5q0 66 48 114t114 48q67 0 114.5 -48t47.5 -114q0 -131 -54.5 -254
t-152.5 -209q-22 -18 -39 -18q-15 0 -33 18z" />
    <glyph glyph-name="uni0387" unicode="&#x387;" horiz-adv-x="483" 
d="M242 807q66 0 113.5 -48t47.5 -114t-47.5 -114t-113.5 -48t-114 48t-48 114t48 114t114 48z" />
    <glyph glyph-name="uni04D4" unicode="&#x4d4;" horiz-adv-x="2154" 
d="M1090 250h-617l-125 -195q-22 -34 -42 -44.5t-60 -10.5h-148q-21 0 -33 10.5t-12 26.5q0 12 10 29l869 1312q24 34 43.5 45t58.5 11h957q71 0 71 -74v-78q0 -74 -71 -74h-641v-387h487q72 0 72 -73v-72q0 -74 -72 -74h-487v-377h661q72 0 72 -73v-78q0 -74 -72 -74h-848
q-38 0 -55.5 18t-17.5 56v176zM1090 481v721l-467 -721h467z" />
    <glyph glyph-name="uni04D5" unicode="&#x4d5;" horiz-adv-x="1931" 
d="M1806 436h-735q10 -117 90 -186q38 -34 92.5 -53t110.5 -19q170 -3 283 92q16 13 30 13q20 0 43 -19l58 -47q28 -25 28 -49q0 -22 -20 -39q-71 -68 -172 -106q-126 -49 -256 -46q-155 0 -277 70q-47 26 -79.5 57.5t-65.5 77.5q-57 -93 -139 -141q-110 -66 -287 -66
t-291.5 97.5t-114.5 257.5t117.5 255t296.5 95q91 0 155.5 -12t149.5 -39v26q0 96 -62 153t-181 58q-149 0 -283 -61q-12 -6 -25 -6q-33 0 -49 39l-20 51q-8 16 -8 33q0 30 32 49q140 80 353 76q142 -3 231 -48q98 -49 154 -135q52 67 125 115q122 70 268 70q124 0 224 -47
t162 -124.5t95 -173t33 -198.5v-10q0 -60 -66 -60zM1075 594h547q-7 117 -82 190q-77 74 -184 74q-118 0 -193 -72t-88 -192zM823 354v115q-108 41 -237 41q-102 0 -170 -49t-68 -131q0 -81 64.5 -129.5t158.5 -48.5q111 0 181.5 56.5t70.5 145.5z" />
    <glyph glyph-name="uni1E1E" unicode="&#x1e1e;" horiz-adv-x="1210" 
d="M440 797h494q74 0 74 -74v-84q0 -74 -74 -74h-494v-491q0 -38 -17.5 -56t-55.5 -18h-121q-74 0 -74 74v1286q0 74 74 74h866q74 0 74 -74v-84q0 -74 -74 -74h-672v-405zM680 1911q63 0 110.5 -47.5t47.5 -110.5t-47.5 -110.5t-110.5 -47.5q-64 0 -111 47.5t-47 110.5
t47 110.5t111 47.5z" />
    <glyph glyph-name="uni1E1F" unicode="&#x1e1f;" horiz-adv-x="751" 
d="M457 831v-765q0 -66 -66 -66h-127q-65 0 -65 66v765h-119q-66 0 -66 66v61q0 66 66 66h119v119q0 188 109.5 303.5t289.5 116.5q124 0 203 -29q41 -14 41 -51q0 -16 -6 -31l-29 -72q-14 -47 -53 -47q-9 0 -13 2q-56 15 -112 15q-172 0 -172 -211v-115h241q66 0 66 -66
v-61q0 -66 -66 -66h-241zM543 1980q64 0 110.5 -47t46.5 -110t-46.5 -110.5t-110.5 -47.5q-63 0 -110.5 47.5t-47.5 110.5t47.5 110t110.5 47z" />
    <glyph glyph-name="Wgrave" unicode="&#x1e80;" horiz-adv-x="2109" 
d="M1057 1069l-260 -1006q-9 -35 -27 -49t-53 -14h-166q-34 0 -53 13.5t-29 45.5l-426 1301q-4 16 -4 24q0 23 15.5 36.5t41.5 13.5h150q34 0 52.5 -14t27.5 -48l315 -1048l262 1046q9 35 27 49.5t53 14.5h145q34 0 52.5 -14.5t27.5 -49.5l262 -1046l316 1048q9 34 27.5 48
t52.5 14h149q28 0 43 -13.5t15 -36.5q0 -4 -5 -24l-430 -1301q-11 -32 -29 -45.5t-53 -13.5h-163q-34 0 -52.5 14t-25.5 49zM1174 1612l-35 -43q-15 -21 -35 -21q-16 0 -35 13l-262 186q-23 20 -23 37t15 35l57 69q18 21 39 21q17 0 37 -17l235 -209q23 -20 23 -36t-16 -35z
" />
    <glyph glyph-name="wgrave" unicode="&#x1e81;" horiz-adv-x="1611" 
d="M807 768l-160 -713q-6 -30 -22 -42.5t-47 -12.5h-166q-31 0 -48 12t-26 41l-299 908q-4 16 -4 20q0 43 51 43h147q31 0 48 -12.5t24 -42.5l191 -701l161 701q6 30 22.5 42.5t47.5 12.5h160q31 0 47 -12.5t22 -42.5l160 -701l191 703q9 29 24.5 41t46.5 12h148
q49 0 49 -41q0 -6 -4 -22l-299 -908q-9 -29 -25 -41t-47 -12h-168q-30 0 -46 12.5t-23 42.5zM924 1233l-35 -43q-18 -21 -37 -21q-16 0 -35 13l-260 186q-25 19 -25 37q0 15 17 35l57 69q18 21 37 21q17 0 37 -17l238 -208q20 -17 20 -37q0 -18 -14 -35z" />
    <glyph glyph-name="Wacute" unicode="&#x1e82;" horiz-adv-x="2109" 
d="M1057 1069l-260 -1006q-9 -35 -27 -49t-53 -14h-166q-34 0 -53 13.5t-29 45.5l-426 1301q-4 16 -4 24q0 23 15.5 36.5t41.5 13.5h150q34 0 52.5 -14t27.5 -48l315 -1048l262 1046q9 35 27 49.5t53 14.5h145q34 0 52.5 -14.5t27.5 -49.5l262 -1046l316 1048q9 34 27.5 48
t52.5 14h149q28 0 43 -13.5t15 -36.5q0 -4 -5 -24l-430 -1301q-11 -32 -29 -45.5t-53 -13.5h-163q-34 0 -52.5 14t-25.5 49zM969 1571l-33 39q-14 17 -14 35q0 21 20 38l238 211q20 17 37 17q18 0 36 -21l64 -71q16 -19 16 -35q0 -19 -24 -37l-267 -186q-20 -13 -32 -13
q-21 0 -41 23z" />
    <glyph glyph-name="wacute" unicode="&#x1e83;" horiz-adv-x="1611" 
d="M807 768l-160 -713q-6 -30 -22 -42.5t-47 -12.5h-166q-31 0 -48 12t-26 41l-299 908q-4 16 -4 20q0 43 51 43h147q31 0 48 -12.5t24 -42.5l191 -701l161 701q6 30 22.5 42.5t47.5 12.5h160q31 0 47 -12.5t22 -42.5l160 -701l191 703q9 29 24.5 41t46.5 12h148
q49 0 49 -41q0 -6 -4 -22l-299 -908q-9 -29 -25 -41t-47 -12h-168q-30 0 -46 12.5t-23 42.5zM719 1192l-33 39q-16 19 -16 35q0 20 22 39l236 211q19 16 37 16q21 0 39 -21l63 -71q14 -17 14 -35t-22 -37l-268 -186q-20 -13 -33 -13q-19 0 -39 23z" />
    <glyph glyph-name="Wdieresis" unicode="&#x1e84;" horiz-adv-x="2109" 
d="M1057 1069l-260 -1006q-9 -35 -27 -49t-53 -14h-166q-34 0 -53 13.5t-29 45.5l-426 1301q-4 16 -4 24q0 23 15.5 36.5t41.5 13.5h150q34 0 52.5 -14t27.5 -48l315 -1048l262 1046q9 35 27 49.5t53 14.5h145q34 0 52.5 -14.5t27.5 -49.5l262 -1046l316 1048q9 34 27.5 48
t52.5 14h149q28 0 43 -13.5t15 -36.5q0 -4 -5 -24l-430 -1301q-11 -32 -29 -45.5t-53 -13.5h-163q-34 0 -52.5 14t-25.5 49zM825 1892q57 0 99.5 -41.5t42.5 -97.5t-42.5 -97.5t-99.5 -41.5t-99 41.5t-42 97.5t42 97.5t99 41.5zM1288 1892q57 0 99.5 -41.5t42.5 -97.5
t-42.5 -97.5t-99.5 -41.5q-56 0 -97.5 42t-41.5 97t41.5 97t97.5 42z" />
    <glyph glyph-name="wdieresis" unicode="&#x1e85;" horiz-adv-x="1611" 
d="M807 768l-160 -713q-6 -30 -22 -42.5t-47 -12.5h-166q-31 0 -48 12t-26 41l-299 908q-4 16 -4 20q0 43 51 43h147q31 0 48 -12.5t24 -42.5l191 -701l161 701q6 30 22.5 42.5t47.5 12.5h160q31 0 47 -12.5t22 -42.5l160 -701l191 703q9 29 24.5 41t46.5 12h148
q49 0 49 -41q0 -6 -4 -22l-299 -908q-9 -29 -25 -41t-47 -12h-168q-30 0 -46 12.5t-23 42.5zM573 1513q58 0 100 -41.5t42 -97.5t-42 -97.5t-100 -41.5q-55 0 -97 41.5t-42 97.5t42 97.5t97 41.5zM1038 1513q57 0 98.5 -41.5t41.5 -97.5t-41.5 -97.5t-98.5 -41.5t-98 41.5
t-41 97.5t41 97.5t98 41.5z" />
    <glyph glyph-name="Ygrave" unicode="&#x1ef2;" horiz-adv-x="1404" 
d="M702 737l353 641q17 33 36.5 44.5t55.5 11.5h149q22 0 34.5 -10.5t12.5 -26.5q0 -18 -8 -31l-499 -874v-418q0 -74 -74 -74h-121q-72 0 -72 74v418l-503 874q-9 15 -9 29q0 18 13 28.5t36 10.5h148q37 0 56 -11.5t38 -44.5zM825 1630l-34 -43q-17 -20 -37 -20
q-17 0 -35 12l-260 186q-25 19 -25 37q0 15 17 35l57 70q17 20 37 20q18 0 37 -16l237 -209q23 -20 23 -37q0 -15 -17 -35z" />
    <glyph glyph-name="ygrave" unicode="&#x1ef3;" horiz-adv-x="1171" 
d="M586 262l282 711q10 29 26.5 40t47.5 11h143q48 0 48 -39q0 -10 -7 -24l-485 -1129q-66 -152 -141 -209t-195 -57q-114 0 -176 41q-27 18 -27 45q0 17 9 35l36 82q18 32 43 32q7 0 19 -4q43 -16 84 -16q48 0 75.5 20t49.5 68l57 131h-18l-410 961q-6 15 -6 26q0 37 45 37
h143q31 0 48.5 -11t27.5 -40zM700 1233l-34 -43q-15 -21 -35 -21q-15 0 -35 13l-262 186q-23 20 -23 37t15 35l57 69q18 21 39 21q17 0 37 -17l235 -208q23 -20 23 -37q0 -15 -17 -35z" />
    <glyph glyph-name="uni2002" unicode="&#x2002;" horiz-adv-x="1028" 
 />
    <glyph glyph-name="uni2003" unicode="&#x2003;" horiz-adv-x="2052" 
 />
    <glyph glyph-name="uni2004" unicode="&#x2004;" horiz-adv-x="686" 
 />
    <glyph glyph-name="uni2005" unicode="&#x2005;" horiz-adv-x="516" 
 />
    <glyph glyph-name="uni2006" unicode="&#x2006;" horiz-adv-x="141" 
 />
    <glyph glyph-name="uni2007" unicode="&#x2007;" horiz-adv-x="1259" 
 />
    <glyph glyph-name="uni2009" unicode="&#x2009;" horiz-adv-x="260" 
 />
    <glyph glyph-name="uni200A" unicode="&#x200a;" horiz-adv-x="71" 
 />
    <glyph glyph-name="uni2010" unicode="&#x2010;" horiz-adv-x="708" 
d="M176 608h356q66 0 66 -65v-62q0 -65 -66 -65h-356q-65 0 -65 65v62q0 65 65 65z" />
    <glyph glyph-name="uni2011" unicode="&#x2011;" horiz-adv-x="708" 
d="M176 608h356q66 0 66 -65v-62q0 -65 -66 -65h-356q-65 0 -65 65v62q0 65 65 65z" />
    <glyph glyph-name="figuredash" unicode="&#x2012;" horiz-adv-x="1323" 
d="M279 608h765q66 0 66 -65v-62q0 -65 -66 -65h-765q-66 0 -66 65v62q0 65 66 65z" />
    <glyph glyph-name="endash" unicode="&#x2013;" horiz-adv-x="1323" 
d="M279 608h765q66 0 66 -65v-62q0 -65 -66 -65h-765q-66 0 -66 65v62q0 65 66 65z" />
    <glyph glyph-name="emdash" unicode="&#x2014;" horiz-adv-x="1937" 
d="M279 608h1380q65 0 65 -65v-62q0 -65 -65 -65h-1380q-66 0 -66 65v62q0 65 66 65z" />
    <glyph glyph-name="afii00208" unicode="&#x2015;" horiz-adv-x="1937" 
d="M279 608h1380q65 0 65 -65v-62q0 -65 -65 -65h-1380q-66 0 -66 65v62q0 65 66 65z" />
    <glyph glyph-name="underscoredbl" unicode="&#x2017;" 
d="M176 -434h979q66 0 66 -64v-53q0 -63 -66 -63h-979q-65 0 -65 63v53q0 64 65 64zM176 -111h979q66 0 66 -63v-53q0 -64 -66 -64h-979q-65 0 -65 64v53q0 63 65 63z" />
    <glyph glyph-name="quoteleft" unicode="&#x2018;" horiz-adv-x="550" 
d="M377 1440l26 -31q15 -15 15 -29q0 -16 -19 -32q-47 -49 -70 -89.5t-32 -99.5q53 -11 86 -51t33 -94q0 -60 -43.5 -104t-104.5 -44t-104 44t-43 104q0 120 50.5 233.5t139.5 192.5q19 16 35 16q18 0 31 -16z" />
    <glyph glyph-name="quoteright" unicode="&#x2019;" horiz-adv-x="550" 
d="M174 897l-24 31q-15 15 -15 28q0 16 19 35q46 47 69 87.5t33 99.5q-54 12 -87.5 52t-33.5 93q0 61 44 104t106 43q61 0 104 -43t43 -104q0 -120 -50.5 -233t-139.5 -191q-21 -18 -37 -18q-18 0 -31 16z" />
    <glyph glyph-name="quotesinglbase" unicode="&#x201a;" horiz-adv-x="565" 
d="M174 -293l-24 31q-15 15 -15 29q0 15 19 34q46 47 69 87.5t33 99.5q-54 12 -87.5 52t-33.5 93q0 61 44 104.5t106 43.5q61 0 104 -43t43 -105q0 -120 -50.5 -233t-139.5 -191q-21 -18 -37 -18q-18 0 -31 16z" />
    <glyph glyph-name="quotereversed" unicode="&#x201b;" horiz-adv-x="550" 
d="M406 928l-27 -31q-13 -16 -29 -16t-37 18q-89 78 -139.5 191t-50.5 233q0 61 42.5 104t104.5 43t105 -43t43 -104q0 -52 -33 -92.5t-86 -52.5q9 -59 32 -99.5t70 -87.5q19 -19 19 -35q0 -14 -14 -28z" />
    <glyph glyph-name="quotedblleft" unicode="&#x201c;" horiz-adv-x="921" 
d="M377 1440l26 -31q15 -15 15 -29q0 -16 -19 -32q-47 -49 -70 -89.5t-32 -99.5q53 -11 86 -51t33 -94q0 -60 -43.5 -104t-104.5 -44t-104 44t-43 104q0 120 50.5 233.5t139.5 192.5q19 16 35 16q18 0 31 -16zM748 1440l24 -31q14 -14 14 -29q0 -17 -18 -32q-46 -49 -69 -90
t-33 -99q54 -10 87 -50.5t33 -94.5q0 -60 -44 -104t-105 -44t-104.5 44t-43.5 104q0 120 51 233t140 193q19 16 37 16t31 -16z" />
    <glyph glyph-name="quotedblright" unicode="&#x201d;" horiz-adv-x="921" 
d="M174 897l-24 31q-15 15 -15 28q0 16 19 35q46 47 69 87.5t33 99.5q-54 12 -87.5 52t-33.5 93q0 61 44 104t106 43q61 0 104 -43t43 -104q0 -120 -50.5 -233t-139.5 -191q-21 -18 -37 -18q-18 0 -31 16zM545 897l-25 31q-14 14 -14 28q0 17 18 35q46 48 69.5 88.5
t33.5 98.5q-54 12 -87.5 52t-33.5 93q0 61 43.5 104t105.5 43t105 -43t43 -104q0 -120 -51 -233t-140 -191q-21 -18 -37 -18q-17 0 -30 16z" />
    <glyph glyph-name="quotedblbase" unicode="&#x201e;" horiz-adv-x="921" 
d="M174 -293l-24 31q-15 15 -15 29q0 15 19 34q46 47 69 87.5t33 99.5q-54 12 -87.5 52t-33.5 93q0 61 44 104.5t106 43.5q61 0 104 -43t43 -105q0 -120 -50.5 -233t-139.5 -191q-21 -18 -37 -18q-18 0 -31 16zM545 -293l-27 31q-14 14 -14 29q0 16 18 34q47 47 70.5 88
t32.5 99q-53 12 -86 52.5t-33 92.5q0 62 43 105t104 43t104.5 -43.5t43.5 -104.5q0 -120 -51 -233t-140 -191q-21 -18 -37 -18q-15 0 -28 16z" />
    <glyph glyph-name="dagger" unicode="&#x2020;" 
d="M532 1049v311q0 74 74 74h119q74 0 74 -74v-311h264q74 0 74 -74v-82q0 -74 -74 -74h-264v-1155q0 -74 -74 -74h-119q-74 0 -74 74v1155h-264q-38 0 -55.5 18t-17.5 56v82q0 38 17.5 56t55.5 18h264z" />
    <glyph glyph-name="daggerdbl" unicode="&#x2021;" 
d="M532 1049v311q0 74 74 74h119q74 0 74 -74v-311h264q74 0 74 -74v-82q0 -74 -74 -74h-264v-590h264q38 0 56 -17.5t18 -55.5v-82q0 -74 -74 -74h-264v-336q0 -74 -74 -74h-119q-74 0 -74 74v336h-264q-38 0 -55.5 18t-17.5 56v82q0 38 17.5 55.5t55.5 17.5h264v590h-264
q-38 0 -55.5 18t-17.5 56v82q0 38 17.5 56t55.5 18h264z" />
    <glyph glyph-name="bullet" unicode="&#x2022;" horiz-adv-x="1239" 
d="M618 1020q126 0 216 -88.5t90 -214.5t-90 -215.5t-216 -89.5t-214.5 89.5t-88.5 215.5t88.5 214.5t214.5 88.5z" />
    <glyph glyph-name="ellipsis" unicode="&#x2026;" horiz-adv-x="1650" 
d="M283 299q66 0 113.5 -48t47.5 -114t-47.5 -114t-113.5 -48t-114 48t-48 114t48 114t114 48zM825 299q66 0 114 -48t48 -114t-48 -114t-114 -48t-113.5 48t-47.5 114t47.5 114t113.5 48zM1368 299q66 0 114 -48t48 -114t-48 -114t-114 -48t-114 48t-48 114t48 114t114 48z
" />
    <glyph glyph-name="perthousand" unicode="&#x2030;" horiz-adv-x="2908" 
d="M1497 678q165 0 271 -97.5t106 -248.5t-106 -248.5t-271 -97.5q-163 0 -270 98t-107 248t107 248t270 98zM1497 117q103 0 164 60t61 155t-61 155t-164 60q-102 0 -163.5 -60t-61.5 -155t61.5 -155t163.5 -60zM639 0h-49q-17 0 -27 8.5t-10 22.5q0 10 6 22l764 1338
q15 25 31 34t45 9h47q18 0 28.5 -8.5t10.5 -22.5q0 -11 -6 -23l-766 -1337q-13 -24 -29.5 -33.5t-44.5 -9.5zM539 1448q164 0 270 -97.5t106 -248.5t-106 -248.5t-270 -97.5t-270.5 97.5t-106.5 248.5t106.5 248.5t270.5 97.5zM539 887q102 0 163.5 60t61.5 155t-61.5 155
t-163.5 60t-165 -60.5t-63 -154.5t63 -154.5t165 -60.5zM2370 678q165 0 270.5 -97.5t105.5 -248.5t-105.5 -248.5t-270.5 -97.5q-163 0 -270 98t-107 248t107 248t270 98zM2370 117q103 0 164 60t61 155t-61 155t-164 60q-102 0 -164 -60t-62 -155t62 -155t164 -60z" />
    <glyph glyph-name="minute" unicode="&#x2032;" horiz-adv-x="579" 
d="M127 1038l92 342q7 29 23.5 41.5t46.5 12.5h133q49 0 49 -39q0 -13 -6 -25l-129 -346q-10 -28 -27.5 -39.5t-48.5 -11.5h-84q-51 0 -51 45q0 12 2 20z" />
    <glyph glyph-name="second" unicode="&#x2033;" horiz-adv-x="923" 
d="M127 1038l92 342q7 29 23.5 41.5t46.5 12.5h133q49 0 49 -39q0 -13 -6 -25l-129 -346q-10 -28 -27.5 -39.5t-48.5 -11.5h-84q-51 0 -51 45q0 12 2 20zM473 1038l92 342q7 29 23.5 41.5t46.5 12.5h131q49 0 49 -39q0 -13 -6 -25l-129 -346q-10 -28 -27.5 -39.5
t-48.5 -11.5h-82q-51 0 -51 45q0 12 2 20z" />
    <glyph glyph-name="guilsinglleft" unicode="&#x2039;" horiz-adv-x="823" 
d="M395 512l230 -319q16 -22 16 -41q0 -27 -29 -50l-61 -47q-22 -16 -43 -16q-25 0 -47 31l-287 397q-18 24 -18 45t18 45l287 397q22 31 47 31q19 0 41 -16l63 -49q29 -23 29 -50q0 -19 -16 -41z" />
    <glyph glyph-name="guilsinglright" unicode="&#x203a;" horiz-adv-x="823" 
d="M428 512l-229 317q-17 24 -17 41q0 25 31 50l61 49q22 16 41 16q25 0 47 -31l287 -397q19 -25 19 -45t-19 -45l-287 -397q-22 -31 -47 -31q-19 0 -41 16l-61 47q-31 25 -31 50q0 17 17 41z" />
    <glyph glyph-name="uni203E" unicode="&#x203e;" 
d="M176 1847h979q66 0 66 -65v-62q0 -65 -66 -65h-979q-65 0 -65 65v62q0 65 65 65z" />
    <glyph glyph-name="fraction" unicode="&#x2044;" horiz-adv-x="301" 
d="M-229 0h-50q-17 0 -26.5 8.5t-9.5 22.5q0 10 6 22l766 1338q14 25 29.5 34t45.5 9h48q38 0 38 -31q0 -11 -6 -23l-768 -1337q-13 -25 -29 -34t-44 -9z" />
    <glyph glyph-name="zerosuperior" unicode="&#x2070;" horiz-adv-x="798" 
d="M399 1653q136 0 212.5 -90.5t76.5 -251.5t-78.5 -255.5t-210.5 -94.5q-130 0 -208 95t-78 255q0 161 75.5 251.5t210.5 90.5zM399 1532q-71 0 -109 -58t-38 -163t40 -167.5t107 -62.5q70 0 110 62.5t40 167.5q0 104 -39.5 162.5t-110.5 58.5z" />
    <glyph glyph-name="foursuperior" unicode="&#x2074;" horiz-adv-x="649" 
d="M492 1085v-65q0 -45 -48 -45h-47q-47 0 -47 45v65h-264q-45 0 -45 45v27q0 28 8.5 47.5t28.5 48.5l252 375q16 23 35 23q11 0 26 -9l43 -24q25 -16 25 -35q0 -10 -10 -27l-240 -352h141v72q0 43 47 43h47q48 0 48 -43v-72h43q43 0 43 -43v-28q0 -48 -43 -48h-43z" />
    <glyph glyph-name="fivesuperior" unicode="&#x2075;" horiz-adv-x="681" 
d="M295 1518l-21 -129q46 20 111 20q96 0 158.5 -62.5t62.5 -158.5q-2 -97 -75 -161t-183 -64q-72 0 -136 24.5t-103 75.5q-13 16 -13 29q0 15 17 32l20 21q15 12 27 12q17 0 33 -16q22 -19 38.5 -30.5t47 -21.5t67.5 -10q52 0 85.5 30.5t31.5 76.5q0 46 -32 76.5t-83 31.5
q-38 0 -86 -24q-30 -13 -39 -13q-1 0 -26 5l-33 10q-37 14 -31 55l43 272q6 39 47 39h291q45 0 45 -45v-30q0 -45 -45 -45h-219z" />
    <glyph glyph-name="sixsuperior" unicode="&#x2076;" horiz-adv-x="692" 
d="M465 1548l-92 -129q107 -5 182 -65.5t78 -163.5q0 -98 -77 -162.5t-191 -64.5q-117 0 -192 62t-75 165q3 75 45 137l201 295q19 25 41 25q15 0 27 -9l39 -24q26 -14 26 -37q0 -14 -12 -29zM492 1190q0 47 -38 81t-92 34q-51 0 -86.5 -33t-35.5 -82q0 -48 34.5 -80.5
t90.5 -32.5q57 0 92 32.5t35 80.5z" />
    <glyph glyph-name="sevensuperior" unicode="&#x2077;" horiz-adv-x="552" 
d="M356 1516h-286q-45 0 -45 45v32q0 45 45 45h411q45 0 45 -41v-16q0 -45 -37 -113l-262 -479q-12 -24 -34 -24q-16 0 -27 8l-45 24q-25 16 -25 35q0 16 8 29z" />
    <glyph glyph-name="eightsuperior" unicode="&#x2078;" horiz-adv-x="706" 
d="M207 1337q-74 50 -74 138q0 78 62.5 128t158.5 50q97 0 159 -50t62 -128q0 -90 -71 -138q51 -23 79.5 -69t28.5 -103q0 -90 -72 -146t-186 -56t-185 55.5t-71 146.5q0 57 29 103t80 69zM240 1180q0 -44 32.5 -73.5t81.5 -29.5q51 0 84 29.5t33 73.5t-32 72t-85 28
t-83.5 -28t-30.5 -72zM354 1548q-42 0 -66 -21t-24 -57q0 -35 25 -57t65 -22q41 0 65.5 21t24.5 58q0 36 -24 57t-66 21z" />
    <glyph glyph-name="ninesuperior" unicode="&#x2079;" horiz-adv-x="692" 
d="M240 1065l88 127q-108 5 -184.5 64.5t-80.5 164.5q0 98 76.5 165t190.5 67q117 0 192.5 -64.5t75.5 -167.5q-3 -69 -43 -133l-188 -295q-14 -26 -39 -26q-14 0 -27 8l-45 24q-27 15 -27 37q0 11 11 29zM330 1538q-57 -1 -92 -34t-35 -83q0 -46 38 -80t91 -34
q54 0 90.5 33t36.5 81q0 50 -36 83t-93 34z" />
    <glyph glyph-name="zeroinferior" unicode="&#x2080;" horiz-adv-x="798" 
d="M399 473q136 0 212.5 -90.5t76.5 -251.5t-78.5 -255.5t-210.5 -94.5q-130 0 -208 95t-78 255q0 161 75.5 251.5t210.5 90.5zM399 352q-71 0 -109 -58t-38 -163q0 -104 40 -166.5t107 -62.5q70 0 110 62t40 167q0 104 -39.5 162.5t-110.5 58.5z" />
    <glyph glyph-name="oneinferior" unicode="&#x2081;" horiz-adv-x="481" 
d="M195 309l-68 -35q-15 -6 -25 -6q-19 0 -32 19l-25 37q-8 13 -8 24q0 18 22 31l107 55q48 25 90 25h31q43 0 43 -41v-582q0 -41 -43 -41h-51q-22 0 -31.5 9.5t-9.5 31.5v473z" />
    <glyph glyph-name="twoinferior" unicode="&#x2082;" horiz-adv-x="649" 
d="M285 -84h241q45 0 45 -45v-31q0 -45 -45 -45h-407q-45 0 -45 43v25q0 23 7.5 37t27.5 34l210 203q60 57 74.5 77.5t14.5 51.5q0 40 -29 63t-78 23q-59 0 -131 -39q-20 -10 -33 -10q-18 0 -33 21l-16 24q-10 17 -10 29q0 20 16 31q79 65 207 65q111 0 178.5 -56.5
t67.5 -150.5q0 -50 -21 -90.5t-73 -91.5z" />
    <glyph glyph-name="threeinferior" unicode="&#x2083;" horiz-adv-x="671" 
d="M244 141v21q0 45 49 45h26q44 0 73 19t30 50q0 34 -28 54t-75 20q-70 0 -135 -41q-9 -6 -20 -6q-21 0 -37 23l-14 20q-9 15 -9 29q0 18 21 39q70 57 194 57q101 -2 166 -51t66 -127q3 -91 -80 -139q54 -25 83 -69t28 -101q-2 -89 -75 -145t-188 -56q-147 0 -223 76
q-18 18 -18 41q0 11 10 28l16 23q12 18 33 18q12 0 25 -10q62 -53 157 -53q57 0 89 26t30 70q0 43 -32.5 68.5t-86.5 25.5h-26q-49 0 -49 45z" />
    <glyph glyph-name="fourinferior" unicode="&#x2084;" horiz-adv-x="649" 
d="M492 -94v-66q0 -45 -48 -45h-47q-47 0 -47 45v66h-264q-45 0 -45 45v26q0 44 37 97l252 375q16 22 35 22q13 0 26 -8l43 -25q25 -16 25 -35q0 -9 -10 -26l-240 -352h141v71q0 43 47 43h47q48 0 48 -43v-71h43q43 0 43 -43v-29q0 -47 -43 -47h-43z" />
    <glyph glyph-name="fiveinferior" unicode="&#x2085;" horiz-adv-x="681" 
d="M295 338l-21 -129q46 20 111 20q96 0 158.5 -62.5t62.5 -158.5q-2 -97 -75 -161t-183 -64q-72 0 -136 24.5t-103 75.5q-13 16 -13 29q0 16 17 33l20 20q15 12 27 12q17 0 33 -16q33 -29 66.5 -45t86.5 -16q52 0 85.5 30t31.5 76q0 46 -32 77t-83 32q-36 0 -86 -25
q-28 -12 -39 -12q-6 0 -26 4l-33 10q-37 14 -31 55l43 273q6 39 47 39h291q45 0 45 -45v-31q0 -45 -45 -45h-219z" />
    <glyph glyph-name="sixinferior" unicode="&#x2086;" horiz-adv-x="692" 
d="M465 369l-92 -129q106 -5 181.5 -65.5t78.5 -164.5q0 -98 -77 -162.5t-191 -64.5q-117 0 -192 62t-75 165q3 75 45 137l201 295q19 25 41 25q16 0 27 -8l39 -25q26 -14 26 -37q0 -13 -12 -28zM492 10q0 47 -38 81t-92 34q-51 0 -86.5 -33t-35.5 -82q0 -48 34.5 -80
t90.5 -32q57 0 92 32t35 80z" />
    <glyph glyph-name="seveninferior" unicode="&#x2087;" horiz-adv-x="552" 
d="M356 336h-286q-45 0 -45 45v33q0 45 45 45h411q45 0 45 -41v-17q0 -44 -37 -112l-262 -479q-13 -25 -34 -25q-16 0 -27 8l-45 25q-25 16 -25 35q0 15 8 28z" />
    <glyph glyph-name="eightinferior" unicode="&#x2088;" horiz-adv-x="706" 
d="M207 158q-74 50 -74 137q0 78 62.5 128t158.5 50q97 0 159 -50t62 -128q0 -89 -71 -137q51 -23 79.5 -69t28.5 -103q0 -91 -72 -147t-186 -56t-185 56t-71 147q0 57 29 103t80 69zM240 0q0 -44 32.5 -73t81.5 -29q51 0 84 29t33 73t-32 72t-85 28t-83.5 -28t-30.5 -72z
M354 369q-42 0 -66 -21t-24 -57q0 -35 25 -57.5t65 -22.5q41 0 65.5 21.5t24.5 58.5q0 36 -24 57t-66 21z" />
    <glyph glyph-name="nineinferior" unicode="&#x2089;" horiz-adv-x="692" 
d="M240 -115l88 127q-108 5 -184.5 65t-80.5 165q0 98 76.5 164.5t190.5 66.5q117 0 192.5 -64t75.5 -167q-3 -69 -43 -133l-188 -295q-15 -27 -39 -27q-14 0 -27 8l-45 25q-27 15 -27 37q0 10 11 28zM330 358q-57 -1 -92 -33.5t-35 -82.5q0 -46 38 -80.5t91 -34.5
q54 0 90.5 33.5t36.5 81.5q0 50 -36 82.5t-93 33.5z" />
    <glyph glyph-name="lira" unicode="&#x20a4;" 
d="M258 702v164l-106 -47q-12 -4 -19 -4q-12 0 -20.5 10t-8.5 25v45q0 24 8 36.5t31 22.5l115 54v352q0 74 74 74h119q38 0 55.5 -18t17.5 -56v-227l338 155q12 4 17 4q13 0 21.5 -10t8.5 -25v-45q0 -24 -8 -37t-31 -22l-346 -158v-166l338 154q12 4 19 4q12 0 20 -10t8 -25
v-45q0 -24 -8 -36.5t-31 -22.5l-346 -158v-446q97 3 172.5 26t143.5 78q119 98 149 268q4 23 6 31.5t8 26t13.5 24t21 13t31.5 6.5h125q31 0 49.5 -21t18.5 -51q0 -71 -37 -180q-82 -227 -267 -348t-434 -121h-192q-74 0 -74 74v493l-106 -47q-12 -4 -19 -4q-12 0 -20.5 9
t-8.5 24v45q0 24 8 37t31 22z" />
    <glyph glyph-name="peseta" unicode="&#x20a7;" 
d="M268 682v678q0 74 74 74h412q85 0 162.5 -13.5t155.5 -48t134.5 -88t91.5 -140.5t35 -198q0 -93 -24 -168t-67 -126t-97.5 -88t-122 -57t-133 -29t-137.5 -9h-217v-147h411q51 0 51 -48v-30q0 -47 -51 -47h-411v-125q0 -72 -74 -72h-119q-74 0 -74 72v125h-104
q-49 0 -49 47v30q0 48 49 48h104v147h-104q-49 0 -49 49v115q0 49 49 49h104zM535 1202v-520h239q124 0 208.5 65.5t84.5 198.5q0 69 -23.5 120t-65.5 80t-93 42.5t-111 13.5h-239z" />
    <glyph glyph-name="Euro" unicode="&#x20ac;" 
d="M1210 365l82 -68q33 -26 33 -57q0 -11 -2 -17q-12 -43 -106 -112q-176 -136 -416 -136q-261 0 -442 148.5t-238 394.5h-131q-53 0 -53 49v27q0 49 53 49h112q-4 46 -4 74t4 74h-112q-53 0 -53 49v26q0 49 53 49h131q57 244 238.5 393.5t441.5 149.5q173 0 317 -72
q125 -64 191 -149q16 -22 16 -43q0 -31 -33 -57l-84 -70q-27 -20 -49 -20q-25 0 -47 22q-73 70 -145.5 105.5t-165.5 35.5q-141 -1 -241.5 -82t-145.5 -213h356q53 0 53 -49v-26q0 -49 -53 -49h-391q-6 -41 -6 -74t6 -74h391q53 0 53 -49v-27q0 -49 -53 -49h-356
q45 -132 145.5 -213t241.5 -82q92 0 164.5 35.5t148.5 106.5q25 22 47 22q24 0 49 -22z" />
    <glyph glyph-name="uni2101" unicode="&#x2101;" horiz-adv-x="1882" 
d="M1427 416l125 -43q91 -32 129.5 -78t38.5 -119q0 -89 -73 -139.5t-197 -50.5q-167 0 -246 102q-14 14 -14 33t14 33l21 18q13 16 28 16q14 0 37 -20q70 -62 160 -62q57 0 88 20t31 56q0 25 -16.5 42t-57.5 32l-129 47q-162 60 -162 186q0 85 69 137t179 52q141 0 211 -57
q16 -11 16 -29q0 -16 -14 -33l-20 -24q-16 -19 -37 -19q-11 0 -23 6q-66 37 -133 37q-46 0 -73 -19t-27 -51q0 -49 75 -73zM371 891l-35 -82q-9 -22 -22 -30.5t-38 -8.5h-61q-15 0 -25 8.5t-10 20.5q0 6 4 18l252 578q9 23 22 31t38 8h57q25 0 38 -8t23 -31l252 -578
q4 -12 4 -18q0 -29 -34 -29h-66q-23 0 -35.5 8.5t-21.5 30.5l-35 82h-307zM418 1018h211l-105 250zM680 0h-66q-32 0 -32 27q0 9 6 18l774 1352q12 21 25.5 29t37.5 8h66q15 0 24 -7.5t9 -19.5q0 -9 -6 -18l-775 -1352q-12 -21 -25.5 -29t-37.5 -8z" />
    <glyph glyph-name="afii61248" unicode="&#x2105;" horiz-adv-x="2029" 
d="M1481 678q165 0 271 -97.5t106 -248.5t-106 -248.5t-271 -97.5q-163 0 -270 98t-107 248t107 248t270 98zM1481 117q103 0 164 60t61 155t-61 155t-164 60q-102 0 -164 -60t-62 -155t62 -155t164 -60zM766 950l37 -28q20 -14 20 -31t-18 -35q-100 -100 -264 -100
q-162 0 -265.5 97.5t-103.5 248.5t103.5 248.5t265.5 97.5q174 0 270 -105q12 -15 12 -28q0 -18 -20 -35l-37 -29q-17 -14 -33 -14q-17 0 -33 16q-67 64 -159 64q-95 0 -157 -61t-62 -154t62 -154t157 -61t161 63q15 15 31 15q15 0 33 -15zM627 0h-64q-15 0 -24 7.5t-9 19.5
q0 7 7 18l774 1352q12 22 25 29.5t38 7.5h66q13 0 21.5 -7.5t8.5 -19.5q0 -6 -4 -18l-774 -1352q-12 -21 -26 -29t-39 -8z" />
    <glyph glyph-name="afii61289" unicode="&#x2113;" 
d="M449 381l4 22q-62 -57 -86 -57q-17 0 -30 15t-13 34q0 26 45 68q12 11 30.5 29.5t41.5 42t32 32.5q83 447 191 678q95 213 227 213q64 0 104.5 -55t40.5 -141q0 -179 -127 -396q-68 -117 -235 -293l-6 -24q-68 -275 -68 -387q0 -51 27 -51q13 0 24 10.5t31 38.5l51 86
q17 20 33 20q22 0 35.5 -14.5t13.5 -36.5q0 -48 -49 -121q-76 -119 -182 -119q-69 0 -110.5 54t-41.5 149q0 41 17 203zM715 817l-8 -45q100 132 143 221q74 145 74 275q0 80 -35 80q-11 0 -31 -17q-28 -25 -57.5 -128t-85.5 -386z" />
    <glyph glyph-name="trademark" unicode="&#x2122;" horiz-adv-x="1605" 
d="M440 1309v-490q0 -49 -51 -49h-47q-51 0 -51 49v490h-182q-50 0 -50 47v30q0 48 50 48h512q49 0 49 -48v-30q0 -47 -49 -47h-181zM1118 1061l182 334q12 23 25 31t37 8h84q49 0 49 -50v-565q0 -49 -47 -49h-49q-49 0 -49 49v369l-144 -268q-11 -22 -23.5 -30.5
t-35.5 -8.5h-53q-24 0 -37 8.5t-25 30.5l-141 268v-369q0 -49 -51 -49h-47q-52 0 -52 49v565q0 50 52 50h81q24 0 38 -8t24 -31z" />
    <glyph glyph-name="uni2126" unicode="&#x2126;" horiz-adv-x="1779" 
d="M1323 223h211q38 0 56 -17.5t18 -55.5v-76q0 -74 -74 -74h-483q-72 0 -72 74v166q163 72 258.5 201t95.5 302q0 198 -125 332.5t-317 134.5t-318.5 -134.5t-126.5 -332.5q0 -173 95.5 -302t261.5 -201v-166q0 -74 -74 -74h-483q-74 0 -74 74v76q0 38 18 55.5t56 17.5h211
q-285 220 -285 520q0 203 89.5 365.5t254.5 256t375 93.5q209 0 373.5 -93.5t254 -256t89.5 -365.5q0 -297 -285 -520z" />
    <glyph glyph-name="estimated" unicode="&#x212e;" horiz-adv-x="1716" 
d="M514 684v-293q70 -295 354 -295q284 -3 402 242q13 31 30.5 42t51.5 11h82q49 0 49 -41q0 -51 -48 -115t-102 -110q-88 -73 -200 -111q-113 -39 -265 -39q-327 0 -511.5 196t-184.5 546t184.5 545.5t511.5 195.5q182 0 334 -73t234 -222q104 -194 104 -399
q0 -32 -19.5 -56t-47.5 -24h-959zM1243 784v254q-34 148 -136.5 223.5t-238.5 75.5q-137 0 -222.5 -72t-131.5 -225v-256h729z" />
    <glyph glyph-name="onethird" unicode="&#x2153;" horiz-adv-x="1689" 
d="M342 1284l-68 -35q-15 -6 -24 -6q-20 0 -33 19l-24 36q-9 15 -9 25q0 18 23 31l106 55q48 25 90 25h31q43 0 43 -41v-582q0 -41 -43 -41h-51q-22 0 -31.5 9.5t-9.5 31.5v473zM399 0h-49q-17 0 -27 8.5t-10 22.5q0 10 6 22l766 1338q14 25 29.5 34t46.5 9h47
q18 0 28.5 -8.5t10.5 -22.5q0 -11 -6 -23l-768 -1337q-13 -24 -29.5 -33.5t-44.5 -9.5zM1174 346v21q0 45 49 45h26q44 0 73 19t30 50q0 34 -28 54t-75 20q-70 0 -135 -41q-12 -6 -20 -6q-21 0 -37 22l-15 21q-8 13 -8 29q0 17 21 38q71 58 194 58q101 -2 166 -51t66 -127
q3 -92 -80 -140q54 -25 82.5 -69t27.5 -101q-2 -89 -74.5 -144.5t-187.5 -55.5q-148 0 -223 75q-18 18 -18 41q0 12 10 29l16 23q12 18 31 18q14 0 27 -10q62 -53 157 -53q57 0 89 26t30 70q0 43 -32.5 68.5t-86.5 25.5h-26q-49 0 -49 45z" />
    <glyph glyph-name="twothirds" unicode="&#x2154;" horiz-adv-x="1689" 
d="M328 891h241q45 0 45 -45v-31q0 -45 -45 -45h-407q-45 0 -45 43v25q0 23 7.5 37t27.5 34l210 203q60 57 74.5 77.5t14.5 51.5q0 40 -29 63t-78 23q-59 0 -131 -39q-20 -10 -33 -10q-19 0 -33 20l-16 25q-10 17 -10 29q0 19 16 30q80 66 207 66q111 0 178.5 -56.5
t67.5 -150.5q0 -50 -21 -90.5t-73 -91.5zM463 0h-49q-17 0 -27 8.5t-10 22.5q0 10 6 22l766 1338q14 25 29.5 34t46.5 9h47q18 0 28.5 -8.5t10.5 -22.5q0 -11 -6 -23l-768 -1337q-13 -24 -29.5 -33.5t-44.5 -9.5zM1237 346v21q0 45 49 45h27q44 0 72 19t30 50q0 34 -27.5 54
t-74.5 20q-70 0 -135 -41q-12 -6 -21 -6q-21 0 -37 22l-14 21q-10 17 -10 29q0 19 22 38q71 58 195 58q101 -2 165.5 -51t65.5 -127q3 -92 -80 -140q54 -25 83 -69t28 -101q-2 -89 -74.5 -144.5t-187.5 -55.5q-148 0 -223 75q-19 19 -19 41q0 12 10 29l17 23q12 18 30 18
q14 0 27 -10q62 -53 158 -53q57 0 89 26t30 70q0 43 -32.5 68.5t-86.5 25.5h-27q-49 0 -49 45z" />
    <glyph glyph-name="uni2155" unicode="&#x2155;" horiz-adv-x="1689" 
d="M330 1284l-68 -35q-15 -6 -24 -6q-20 0 -33 19l-25 36q-8 13 -8 25q0 18 23 31l106 55q48 25 90 25h31q43 0 43 -41v-582q0 -41 -43 -41h-51q-22 0 -31.5 9.5t-9.5 31.5v473zM387 0h-49q-17 0 -27 8.5t-10 22.5q0 10 6 22l766 1338q14 25 29.5 34t46.5 9h47
q18 0 28.5 -8.5t10.5 -22.5q0 -11 -6 -23l-768 -1337q-13 -24 -29.5 -33.5t-44.5 -9.5zM1212 543l-20 -129q46 20 111 20q96 0 158.5 -62.5t62.5 -158.5q-2 -97 -75 -161t-183 -64q-72 0 -136.5 24.5t-103.5 75.5q-12 15 -12 29q0 17 16 33l21 20q12 12 26 12t33 -16
q33 -29 67.5 -45.5t86.5 -16.5t85 30.5t31 76.5q0 46 -31.5 76.5t-82.5 31.5q-38 0 -86 -24q-28 -12 -41 -12q-5 0 -25 4l-33 10q-36 13 -30 55l43 273q6 39 47 39h291q45 0 45 -46v-30q0 -45 -45 -45h-220z" />
    <glyph glyph-name="uni2156" unicode="&#x2156;" horiz-adv-x="1689" 
d="M315 891h242q45 0 45 -45v-31q0 -45 -45 -45h-407q-46 0 -46 43v25q0 23 7.5 37t27.5 34l211 203q60 57 74 77.5t14 51.5q0 40 -28.5 63t-77.5 23q-60 0 -131 -39q-20 -10 -33 -10q-19 0 -33 20l-16 25q-10 17 -10 29q0 19 16 30q80 66 207 66q111 0 178.5 -56.5
t67.5 -150.5q0 -50 -21.5 -90.5t-73.5 -91.5zM451 0h-50q-17 0 -26.5 8.5t-9.5 22.5q0 10 6 22l766 1338q14 25 29.5 34t45.5 9h48q38 0 38 -31q0 -11 -6 -23l-768 -1337q-13 -25 -29 -34t-44 -9zM1276 543l-21 -129q46 20 111 20q96 0 158.5 -62.5t62.5 -158.5
q-2 -97 -75 -161t-183 -64q-72 0 -136 24.5t-103 75.5q-13 16 -13 29q0 16 17 33l20 20q12 12 27 12q14 0 33 -16q22 -19 38.5 -30.5t47 -21.5t67.5 -10q52 0 85.5 30.5t31.5 76.5q0 46 -32 76.5t-83 31.5q-38 0 -86 -24q-28 -12 -41 -12q-4 0 -24 4l-33 10q-37 14 -31 55
l43 273q6 39 47 39h291q45 0 45 -46v-30q0 -45 -45 -45h-219z" />
    <glyph glyph-name="uni2157" unicode="&#x2157;" horiz-adv-x="1689" 
d="M264 1116v21q0 45 49 45h27q44 0 72 19t30 50q0 34 -27.5 54t-74.5 20q-70 0 -135 -41q-9 -6 -21 -6q-21 0 -37 22l-14 21q-8 13 -8 29q0 19 20 39q70 57 195 57q101 -2 165.5 -51t65.5 -127q3 -93 -79 -140q54 -25 82.5 -69t27.5 -101q-2 -89 -74.5 -144.5t-187.5 -55.5
q-147 0 -223 76q-19 19 -19 40q0 11 11 29l16 23q12 18 33 18q11 0 24 -10q62 -53 158 -53q57 0 89 26t30 70q0 43 -32.5 68.5t-86.5 25.5h-27q-49 0 -49 45zM463 0h-49q-17 0 -27 8.5t-10 22.5q0 10 6 22l766 1338q14 25 29.5 34t46.5 9h47q19 0 30 -8.5t11 -22.5
q0 -12 -8 -23l-768 -1337q-13 -24 -29.5 -33.5t-44.5 -9.5zM1288 543l-20 -129q46 20 110 20q96 0 158.5 -62.5t62.5 -158.5q-2 -97 -75 -161t-183 -64q-72 0 -136 24.5t-103 75.5q-12 15 -12 29q0 17 16 33l20 20q15 12 27 12q17 0 33 -16q22 -19 38.5 -30.5t47 -21.5
t67.5 -10q52 0 85.5 30.5t31.5 76.5q0 46 -32 76.5t-83 31.5q-38 0 -86 -24q-24 -12 -38 -12q-7 0 -27 4l-33 10q-37 14 -31 55l43 273q6 39 48 39h290q45 0 45 -46v-30q0 -45 -45 -45h-219z" />
    </font>
</defs>
</svg>
