<?xml version="1.0" standalone="no"?>
<!DOCTYPE svg PUBLIC "-//W3C//DTD SVG 1.1//EN" "http://www.w3.org/Graphics/SVG/1.1/DTD/svg11.dtd" >
<svg xmlns="http://www.w3.org/2000/svg" xmlns:xlink="http://www.w3.org/1999/xlink" version="1.1">
<metadata>
Created by FontForge 20170731 at Sat Dec  3 14:51:45 2022
 By Aleksey,,,
Copyright (c) FontPeople Ltd 2020. All rights reserved.
</metadata>
<defs>
<font id="CercoDEMO-Regular" horiz-adv-x="1331" >
  <font-face 
    font-family="Cerco DEMO"
    font-weight="400"
    font-stretch="normal"
    units-per-em="2048"
    panose-1="0 0 5 0 0 0 0 0 0 0"
    ascent="1638"
    descent="-410"
    x-height="1024"
    cap-height="1434"
    bbox="-309 -625 2757 2273"
    underline-thickness="143"
    underline-position="-349"
    unicode-range="U+0020-FB02"
  />
<missing-glyph 
d="M686 442q-143 30 -221 101.5t-78 165.5q0 51 20.5 100t50.5 87.5t59.5 75.5t50 79t20.5 84q0 46 -28 78t-79 48t-90.5 22.5t-93.5 10.5q49 62 163.5 112t268.5 50q42 0 82.5 -6.5t84 -25t75.5 -46.5t52.5 -75t20.5 -107q0 -83 -38 -176t-87.5 -168.5t-119 -191.5
t-113.5 -218zM737 776q14 23 63.5 100t68.5 111t40 89t21 98q0 93 -59 137.5t-156 44.5q-50 0 -113 -13q99 -26 149 -58t50 -85q0 -34 -27 -65t-84 -35q-37 -78 -37 -150q0 -112 84 -174zM606 -10q-83 0 -137.5 53t-54.5 135q0 83 54 135t138 52t138.5 -52t54.5 -135
q0 -82 -55 -135t-138 -53z" />
    <glyph glyph-name="fi" unicode="fi" horiz-adv-x="1261" 
d="M399 1024h265q53 0 53 -53v-37q0 -53 -53 -53h-265v-828q0 -53 -53 -53h-82q-53 0 -53 53v828h-131q-53 0 -53 53v37q0 53 53 53h131v147q0 172 108 281t275 109q92 0 174 -27q33 -11 33 -43q0 -13 -6 -25l-17 -43q-15 -37 -43 -37q-6 0 -12 3q-66 16 -127 16
q-97 0 -147 -64t-50 -176v-141zM942 1024h82q53 0 53 -53v-918q0 -53 -53 -53h-82q-53 0 -53 53v918q0 53 53 53zM983 1507q49 0 86 -36.5t37 -86.5q0 -49 -36.5 -85.5t-86.5 -36.5t-86.5 36.5t-36.5 85.5q0 50 37 86.5t86 36.5z" />
    <glyph glyph-name="fl" unicode="fl" horiz-adv-x="1243" 
d="M399 1024h265q53 0 53 -53v-37q0 -53 -53 -53h-265v-828q0 -53 -53 -53h-82q-53 0 -53 53v828h-131q-53 0 -53 53v37q0 53 53 53h131v147q0 172 108 281t275 109q92 0 174 -27q33 -11 33 -43q0 -13 -6 -25l-17 -43q-15 -37 -43 -37q-6 0 -12 3q-66 16 -127 16
q-97 0 -147 -64t-50 -176v-141zM1077 1481v-1428q0 -53 -53 -53h-82q-53 0 -53 53v1389q0 46 45 57l90 23q6 2 16 2q37 0 37 -43z" />
    <glyph glyph-name=".notdef" 
d="M686 442q-143 30 -221 101.5t-78 165.5q0 51 20.5 100t50.5 87.5t59.5 75.5t50 79t20.5 84q0 46 -28 78t-79 48t-90.5 22.5t-93.5 10.5q49 62 163.5 112t268.5 50q42 0 82.5 -6.5t84 -25t75.5 -46.5t52.5 -75t20.5 -107q0 -83 -38 -176t-87.5 -168.5t-119 -191.5
t-113.5 -218zM737 776q14 23 63.5 100t68.5 111t40 89t21 98q0 93 -59 137.5t-156 44.5q-50 0 -113 -13q99 -26 149 -58t50 -85q0 -34 -27 -65t-84 -35q-37 -78 -37 -150q0 -112 84 -174zM606 -10q-83 0 -137.5 53t-54.5 135q0 83 54 135t138 52t138.5 -52t54.5 -135
q0 -82 -55 -135t-138 -53z" />
    <glyph glyph-name=".null" horiz-adv-x="0" 
 />
    <glyph glyph-name="nonmarkingreturn" horiz-adv-x="682" 
 />
    <glyph glyph-name="space" unicode=" " horiz-adv-x="546" 
 />
    <glyph glyph-name="exclam" unicode="!" horiz-adv-x="708" 
d="M354 -25q-52 0 -89.5 37.5t-37.5 89.5t37.5 89.5t89.5 37.5q53 0 90 -36.5t37 -88.5q0 -53 -37.5 -91t-89.5 -38zM461 1374l-17 -887q0 -59 -59 -59h-61q-60 0 -60 59l-16 887q0 60 59 60h94q60 0 60 -60z" />
    <glyph glyph-name="quotedbl" unicode="&#x22;" horiz-adv-x="778" 
d="M268 1014h-57q-53 0 -53 51l-11 315q-3 54 52 54h82q51 0 51 -54l-10 -315q-3 -51 -54 -51zM567 1014h-57q-53 0 -53 51l-11 315q-3 54 52 54h82q51 0 51 -54l-10 -315q-3 -51 -54 -51z" />
    <glyph glyph-name="numbersign" unicode="#" horiz-adv-x="1695" 
d="M799 1085h415l129 301q12 28 27.5 38t44.5 10h58q43 0 43 -37q0 -1 -5 -21l-125 -291h152q45 0 45 -38q0 -7 -4 -19l-16 -39q-10 -27 -25.5 -37t-46.5 -10h-166l-195 -453h162q43 0 43 -36q0 -5 -4 -21l-16 -37q-10 -27 -25.5 -37t-46.5 -10h-174l-129 -301
q-10 -27 -25.5 -37t-46.5 -10h-57q-20 0 -31.5 10t-11.5 25q0 10 6 22l123 291h-416l-129 -301q-10 -28 -25 -37.5t-46 -9.5h-58q-20 0 -31.5 10t-11.5 25q0 10 6 22l123 291h-151q-45 0 -45 39q0 7 4 19l14 36q10 27 25 37t45 10h170l194 453h-184q-20 0 -32.5 10t-12.5 27
q0 8 6 20l14 39q10 27 25 37t45 10h201l129 301q12 28 27 38t44 10h58q43 0 43 -37q0 -5 -4 -21zM958 489l195 453h-416l-194 -453h415z" />
    <glyph glyph-name="dollar" unicode="$" 
d="M563 1452v127q0 59 60 59h73q60 0 60 -59v-127q120 -14 237 -76q29 -15 44.5 -24t34 -28t18.5 -38t-19 -41l-31 -37q-24 -24 -47 -24q-15 0 -26 8q-137 98 -314 98q-123 0 -195.5 -54.5t-72.5 -139.5q0 -77 46.5 -133.5t148.5 -96.5l258 -102q183 -72 258 -163.5
t75 -231.5q-6 -188 -139 -285q-106 -81 -278 -102l2 -127q0 -60 -60 -60h-73q-60 0 -60 60v127q-182 19 -319 129q-83 67 -99 114q-2 4 -2 13q0 20 23 47l37 43q17 20 37 20q17 0 32 -18q64 -87 164.5 -132.5t212.5 -45.5q143 0 231.5 58t88.5 167q0 76 -48.5 128t-164.5 99
l-264 107q-304 124 -304 385q6 164 136 264q101 76 239 92z" />
    <glyph glyph-name="percent" unicode="%" horiz-adv-x="2039" 
d="M1491 678q162 0 267.5 -98t105.5 -248t-105.5 -248t-267.5 -98q-161 0 -267 98.5t-106 247.5t106 247.5t267 98.5zM1491 86q117 0 186.5 69t69.5 177t-69.5 177t-186.5 69q-115 0 -185.5 -69.5t-70.5 -176.5t70.5 -176.5t185.5 -69.5zM1468 1395l-778 -1362
q-18 -33 -55 -33h-41q-13 0 -21 7t-8 16q0 7 6 16l779 1362q18 33 55 33h41q13 0 21 -7t8 -16q0 -5 -7 -16zM549 1448q161 0 267 -98.5t106 -247.5t-106 -247.5t-267 -98.5t-267 98.5t-106 247.5t106 247.5t267 98.5zM549 856q115 0 185.5 69.5t70.5 176.5t-70.5 176.5
t-185.5 69.5q-116 0 -187 -69.5t-71 -176.5t71 -176.5t187 -69.5z" />
    <glyph glyph-name="ampersand" unicode="&#x26;" horiz-adv-x="1390" 
d="M584 793l436 -494q67 78 67 186q0 114 -59 199q-10 12 -10 31q0 21 20 41l29 30q20 23 43 23q22 0 35 -16q53 -53 81.5 -140t26.5 -168q-3 -109 -32 -180q-30 -77 -88 -141l100 -115q10 -13 10 -22q0 -11 -9 -19t-24 -8h-67q-37 0 -56.5 8.5t-42.5 36.5l-30 33
q-68 -47 -148 -72q-96 -29 -196 -29q-167 -1 -300.5 63.5t-208.5 181t-75 263.5q0 168 94 287q55 69 133 117q-55 98 -55 209q-1 169 107.5 264.5t291.5 95.5q151 0 273 -84q27 -19 38.5 -28t26.5 -28t15 -36q0 -22 -21 -43l-31 -31q-17 -20 -40 -20q-19 0 -33 14
q-57 52 -108.5 76.5t-119.5 24.5q-107 0 -171 -54.5t-64 -150.5q0 -82 34 -140.5t128 -164.5zM903 205l-407 454q-16 17 -82 99q-58 -34 -97 -88q-57 -76 -57 -185q-1 -157 114.5 -257.5t295.5 -98.5q139 0 233 76z" />
    <glyph glyph-name="quotesingle" unicode="'" horiz-adv-x="479" 
d="M268 1014h-57q-53 0 -53 51l-11 315q-3 54 52 54h82q51 0 51 -54l-10 -315q-3 -51 -54 -51z" />
    <glyph glyph-name="parenleft" unicode="(" horiz-adv-x="641" 
d="M416 1653l47 -27q35 -17 35 -45q0 -17 -13 -43q-57 -115 -82 -190q-104 -299 -104 -631q0 -329 104 -631q30 -85 82 -188q13 -26 13 -45q0 -29 -35 -46l-47 -26q-24 -12 -37 -12q-17 0 -27 10q-21 17 -54 83.5t-52.5 117t-34.5 92.5q-107 316 -107 645q0 384 144 741
q41 97 80 162q25 43 53 43q12 0 35 -10z" />
    <glyph glyph-name="parenright" unicode=")" horiz-adv-x="641" 
d="M225 -219l-47 26q-35 17 -35 46q0 19 13 45q52 103 82 188q106 299 106 631q0 327 -106 631q-30 88 -80 190q-15 30 -15 43q0 28 35 45l47 27q23 10 37 10q26 0 51 -43q35 -54 80 -162q144 -357 144 -741q0 -329 -107 -645q-20 -62 -65 -165.5t-76 -127.5
q-10 -10 -27 -10q-13 0 -37 12z" />
    <glyph glyph-name="asterisk" unicode="*" horiz-adv-x="870" 
d="M379 1223l-2 174q0 37 37 37h45q37 0 37 -37l-4 -174l165 63q12 4 19 4q20 0 29 -24l16 -39q4 -12 4 -19q0 -19 -25 -28l-178 -64l115 -155q10 -13 10 -25q0 -18 -18 -27l-39 -24q-11 -8 -25 -8q-16 0 -28 18l-101 149l-100 -149q-9 -18 -29 -18q-11 0 -22 8l-39 24
q-19 13 -19 29q0 11 9 23l112 153l-176 66q-25 9 -25 28q0 4 5 19l16 41q13 22 31 22q6 0 18 -4z" />
    <glyph glyph-name="plus" unicode="+" 
d="M592 614h-356q-54 0 -54 54v37q0 53 54 53h356v354q0 53 53 53h41q53 0 53 -53v-354h357q53 0 53 -53v-37q0 -54 -53 -54h-357v-354q0 -53 -53 -53h-41q-53 0 -53 53v354z" />
    <glyph glyph-name="comma" unicode="," horiz-adv-x="536" 
d="M178 -281l-18 21q-10 13 -10 24q0 17 16 33q41 42 61 82.5t27 97.5q-46 8 -76.5 43t-30.5 82q0 52 37.5 89.5t89.5 37.5q54 0 90.5 -37t36.5 -90q0 -107 -43.5 -209.5t-121.5 -173.5q-18 -14 -31 -14t-27 14z" />
    <glyph glyph-name="hyphen" unicode="-" horiz-adv-x="694" 
d="M178 584h338q53 0 53 -54v-36q0 -54 -53 -54h-338q-53 0 -53 54v36q0 54 53 54z" />
    <glyph glyph-name="period" unicode="." horiz-adv-x="524" 
d="M262 229q52 0 89.5 -37.5t37.5 -89.5t-37.5 -89.5t-89.5 -37.5t-89.5 37.5t-37.5 89.5t37.5 89.5t89.5 37.5z" />
    <glyph glyph-name="slash" unicode="/" horiz-adv-x="1155" 
d="M1061 1378l-727 -1333q-13 -26 -29 -35.5t-47 -9.5h-70q-18 0 -28 9.5t-10 23.5q0 10 6 22l727 1334q14 26 29 35.5t46 9.5h70q18 0 28.5 -9.5t10.5 -23.5q0 -11 -6 -23z" />
    <glyph glyph-name="zero" unicode="0" 
d="M666 1458q261 0 413 -201t152 -540t-152 -540.5t-413 -201.5t-413.5 201.5t-152.5 540.5q0 338 152.5 539.5t413.5 201.5zM666 1292q-118 0 -203 -73t-127.5 -202t-42.5 -300q0 -261 98.5 -418.5t274.5 -157.5t274 157.5t98 418.5t-98 418t-274 157z" />
    <glyph glyph-name="one" unicode="1" 
d="M840 166h247q60 0 60 -60v-47q0 -59 -60 -59h-765q-60 0 -60 59v47q0 60 60 60h323v1059l-194 -107q-20 -10 -35 -10q-28 0 -47 31l-31 49q-12 18 -12 35q0 28 32 45l213 116q37 20 53 28t44 15t59 7h53q60 0 60 -60v-1208z" />
    <glyph glyph-name="two" unicode="2" 
d="M444 166h646q59 0 59 -60v-47q0 -59 -59 -59h-854q-60 0 -60 57v39q0 34 9.5 54.5t35.5 46.5l494 522q108 115 136 154q56 80 56 171q0 112 -76 180t-206 68q-187 0 -322 -114q-18 -11 -27 -11q-25 0 -45 27l-28 41q-17 24 -17 41q0 21 21 39q78 71 190.5 107t227.5 36
q215 0 344 -113t129 -301q0 -51 -13 -100.5t-28.5 -83t-47.5 -77.5t-49.5 -64t-56.5 -62z" />
    <glyph glyph-name="three" unicode="3" 
d="M252 1198l-27 39q-16 22 -16 39q0 24 20 41q75 70 186.5 104.5t225.5 34.5q194 0 321.5 -102.5t127.5 -259.5q0 -117 -55 -194t-165 -122q118 -36 199.5 -137.5t81.5 -243.5q0 -186 -143.5 -304t-366.5 -118q-160 0 -299 68q-116 55 -168 125q-16 22 -16 39q0 23 20 43
l27 35q17 20 39 20q9 0 26 -10q33 -33 56 -49q132 -103 315 -103q140 0 228.5 75t88.5 204q0 119 -90 196.5t-227 79.5h-70q-59 0 -59 60v37q0 57 59 57h70q121 2 196.5 61t75.5 156q0 101 -75.5 163t-196.5 62q-180 0 -319 -114q-18 -11 -29 -11q-23 0 -41 29z" />
    <glyph glyph-name="four" unicode="4" 
d="M987 438h135q60 0 60 -59v-43q0 -60 -60 -60h-135v-217q0 -59 -59 -59h-72q-59 0 -59 59v217h-619q-59 0 -59 60v45q0 41 10 67t37 66l584 907q22 31 45 31q18 0 39 -12l57 -37q31 -19 31 -45q0 -14 -13 -37l-573 -883h461v254q0 60 59 60h72q59 0 59 -60v-254z" />
    <glyph glyph-name="five" unicode="5" 
d="M502 1268l-68 -426q115 73 283 73q197 0 325.5 -130.5t128.5 -331.5t-144.5 -339.5t-362.5 -138.5q-165 0 -306 78q-117 62 -174 150q-12 21 -12 37q0 20 25 45l30 28q20 17 39 17q20 0 33 -19q48 -68 129 -114q111 -63 236 -60q136 0 225.5 88t89.5 224q0 133 -90 221
t-225 88q-143 0 -254 -82q-15 -12 -37 -12q-19 0 -37 6l-49 16q-43 15 -43 55v17l98 622q9 54 64 54h604q59 0 59 -60v-47q0 -59 -59 -59h-508z" />
    <glyph glyph-name="six" unicode="6" 
d="M856 1319l-268 -391q40 6 82 6q225 0 377.5 -136.5t152.5 -342.5q0 -136 -69.5 -246t-189.5 -172t-265 -62q-144 0 -264.5 62t-191 172.5t-70.5 245.5q7 153 69 247l473 719q22 31 45 31q16 0 37 -12l66 -39q30 -21 30 -47q0 -18 -14 -35zM676 135q140 0 238 93.5
t98 226.5q0 134 -99 227.5t-241 93.5q-140 0 -236 -93.5t-96 -227.5q0 -133 98.5 -226.5t237.5 -93.5z" />
    <glyph glyph-name="seven" unicode="7" 
d="M928 1264h-701q-59 0 -59 59v51q0 60 59 60h865q59 0 59 -58v-28q0 -30 -7.5 -60t-15.5 -48t-26 -54l-598 -1172q-17 -32 -47 -32q-13 0 -33 10l-64 39q-32 17 -32 47q0 13 10 33z" />
    <glyph glyph-name="eight" unicode="8" 
d="M430 778q-94 42 -143 124t-49 192q0 159 121 261.5t307 102.5t307 -102.5t121 -261.5q0 -110 -49.5 -192t-143.5 -124q112 -34 191 -139t79 -242q0 -189 -141.5 -305.5t-363.5 -116.5t-364 116.5t-142 305.5q0 137 79 242t191 139zM666 700q-134 0 -224 -82t-90 -202
q0 -121 89.5 -200t224.5 -79t224 79t89 200t-89.5 202.5t-223.5 81.5zM666 1311q-110 0 -180 -63.5t-70 -162.5q0 -104 69.5 -167.5t180.5 -63.5t180 63.5t69 167.5q0 99 -69.5 162.5t-179.5 63.5z" />
    <glyph glyph-name="nine" unicode="9" 
d="M492 117l256 381q-44 -6 -91 -6q-225 0 -378.5 138.5t-153.5 344.5q0 137 70 248t190.5 173t265.5 62t266.5 -62t193 -173t71.5 -248q-6 -161 -90 -279l-435 -684q-18 -30 -43 -30q-18 0 -39 12l-67 41q-31 19 -31 45q0 19 15 37zM651 1298q-138 0 -238 -95t-100 -228
q0 -134 100.5 -230t241.5 -96t238.5 95.5t97.5 230.5q0 133 -100 228t-240 95z" />
    <glyph glyph-name="colon" unicode=":" horiz-adv-x="626" 
d="M313 229q53 0 90 -37.5t37 -89.5t-37 -89.5t-90 -37.5t-90 37.5t-37 89.5t37 89.5t90 37.5zM313 1049q53 0 90 -37.5t37 -89.5t-37 -89.5t-90 -37.5t-90 37.5t-37 89.5t37 89.5t90 37.5z" />
    <glyph glyph-name="semicolon" unicode=";" horiz-adv-x="536" 
d="M274 1049q54 0 90.5 -37t36.5 -90t-36.5 -90t-90.5 -37q-52 0 -89.5 37.5t-37.5 89.5t37.5 89.5t89.5 37.5zM178 -281l-18 21q-10 13 -10 24q0 17 16 33q41 42 61 82.5t27 97.5q-46 8 -76.5 43t-30.5 82q0 52 37.5 89.5t89.5 37.5q54 0 90.5 -37t36.5 -90
q0 -107 -43.5 -209.5t-121.5 -173.5q-18 -14 -31 -14t-27 14z" />
    <glyph glyph-name="less" unicode="&#x3c;" 
d="M399 686l643 -295q23 -10 32 -24t9 -39v-64q0 -37 -30 -37q-9 0 -21 4l-794 373q-41 17 -41 62v41q0 44 41 61l794 373q12 4 21 4q30 0 30 -37v-64q0 -25 -9 -39t-32 -24z" />
    <glyph glyph-name="equal" unicode="=" 
d="M240 543h852q53 0 53 -54v-36q0 -54 -53 -54h-852q-54 0 -54 54v36q0 54 54 54zM240 973h852q53 0 53 -53v-37q0 -54 -53 -54h-852q-54 0 -54 54v37q0 53 54 53z" />
    <glyph glyph-name="greater" unicode="&#x3e;" 
d="M932 686l-643 295q-23 10 -32 24t-9 39v64q0 17 8.5 27t22.5 10q8 0 20 -4l795 -373q41 -17 41 -61v-41q0 -45 -41 -62l-795 -373q-12 -4 -20 -4q-14 0 -22.5 10t-8.5 27v64q0 25 9 39t32 24z" />
    <glyph glyph-name="question" unicode="?" horiz-adv-x="1093" 
d="M442 229q54 0 90.5 -37t36.5 -90t-36.5 -90t-90.5 -37q-52 0 -89.5 37.5t-37.5 89.5t37.5 89.5t89.5 37.5zM506 770l156 96q64 39 93 85.5t29 117.5q0 102 -71 164.5t-195 62.5q-167 0 -301 -106q-17 -10 -29 -10q-26 0 -47 24l-28 35q-21 29 -21 43q0 4 4 16
q18 37 90 74q146 86 332 86q212 0 336.5 -103t124.5 -286q0 -110 -45.5 -182.5t-132.5 -126.5l-129 -78q-62 -36 -92 -69t-35 -91q0 -4 -1.5 -15t-2 -14.5t-2 -13t-3 -13t-4 -10.5t-5.5 -10t-8 -7.5t-10.5 -6t-13 -3t-16.5 -1.5h-71q-39 0 -49.5 20t-10.5 64q0 94 35 149
t123 109z" />
    <glyph glyph-name="at" unicode="@" horiz-adv-x="1945" 
d="M1440 -72l10 -22q6 -15 6 -27q0 -25 -29 -41q-179 -102 -454 -102q-236 0 -425.5 100.5t-296 278t-106.5 397.5q0 165 62.5 310t172 248.5t264.5 163.5t333 60q243 0 430.5 -97t290 -270.5t102.5 -394.5q0 -204 -80.5 -313t-238.5 -108q-197 0 -262 172
q-60 -95 -133.5 -134.5t-178.5 -39.5q-165 0 -272 113.5t-107 289.5t107 288.5t272 112.5q99 0 170 -39.5t129 -134.5l-2 90q0 54 51 54h29q51 0 51 -54v-407q0 -86 35.5 -138.5t110.5 -52.5q182 -3 182 301q0 287 -189 462t-497 175q-199 0 -357.5 -84.5t-247.5 -235
t-89 -337.5t89 -336t246.5 -232t354.5 -83q218 -3 403 90q12 6 23 6q28 0 41 -29zM934 233q115 0 192.5 80t77.5 199q0 118 -77 197t-193 79q-111 0 -186.5 -79t-75.5 -197t76 -198.5t186 -80.5z" />
    <glyph glyph-name="A" unicode="A" horiz-adv-x="1462" 
d="M367 313l-109 -266q-10 -27 -25 -37t-45 -10h-92q-45 0 -45 37q0 10 6 22l553 1327q12 28 27.5 38t44.5 10h100q29 0 44.5 -10t25.5 -38l553 -1327q4 -16 4 -22q0 -37 -43 -37h-92q-30 0 -45 10t-25 37l-106 266h-731zM1032 483l-301 740l-301 -740h602z" />
    <glyph glyph-name="B" unicode="B" horiz-adv-x="1372" 
d="M246 1434h418q516 0 516 -363q0 -247 -224 -332q295 -74 295 -360q0 -85 -27.5 -151.5t-74.5 -109t-114.5 -69.5t-140.5 -38t-159 -11h-489q-60 0 -60 59v1315q0 60 60 60zM381 817h311q301 0 301 234q0 66 -23.5 111.5t-68 69.5t-97.5 34t-122 10h-301v-459zM381 158
h369q143 0 226 59t83 182q0 250 -357 250h-321v-491z" />
    <glyph glyph-name="C" unicode="C" horiz-adv-x="1517" 
d="M1331 336l53 -45q27 -23 27 -45q0 -11 -2 -15q-13 -37 -123 -118q-196 -138 -452 -138q-163 0 -303 56.5t-238 155t-153.5 236t-55.5 294.5t55.5 294t153.5 235.5t238 155t303 56.5q184 0 344 -74q134 -64 213 -155q18 -21 18 -43q0 -21 -25 -43l-55 -45q-24 -17 -41 -17
q-19 0 -39 17q-83 86 -190.5 133t-224.5 47q-158 0 -284 -73.5t-195.5 -201.5t-69.5 -286t69.5 -286t195.5 -201.5t284 -73.5q240 0 417 180q19 16 37 16q21 0 43 -16z" />
    <glyph glyph-name="D" unicode="D" horiz-adv-x="1585" 
d="M246 1434h473q350 0 556 -195t206 -522t-206 -522t-556 -195h-473q-60 0 -60 59v1315q0 60 60 60zM381 1264v-1094h348q253 0 402 150t149 397t-149 397t-402 150h-348z" />
    <glyph glyph-name="E" unicode="E" horiz-adv-x="1210" 
d="M381 1268v-475h514q59 0 59 -60v-43q0 -59 -59 -59h-514v-465h688q59 0 59 -60v-47q0 -59 -59 -59h-823q-60 0 -60 59v1315q0 60 60 60h803q59 0 59 -60v-47q0 -59 -59 -59h-668z" />
    <glyph glyph-name="F" unicode="F" horiz-adv-x="1185" 
d="M381 776h528q60 0 60 -59v-51q0 -60 -60 -60h-528v-547q0 -59 -59 -59h-76q-60 0 -60 59v1315q0 60 60 60h844q59 0 59 -60v-51q0 -59 -59 -59h-709v-488z" />
    <glyph glyph-name="G" unicode="G" horiz-adv-x="1542" 
d="M1217 612h-365q-59 0 -59 60v51q0 59 59 59h496q59 0 59 -59v-432q0 -40 -7 -63t-30 -48q-68 -75 -203 -137q-158 -68 -346 -68q-215 0 -384 97t-261 265.5t-92 379.5q0 157 54 294t150 235.5t234 155t299 56.5q237 0 424 -115q102 -60 117 -98q4 -12 4 -16
q0 -24 -27 -43l-57 -47q-22 -19 -41 -19q-20 0 -35 15q-80 71 -179.5 109t-205.5 38q-237 0 -386.5 -160t-149.5 -405t149.5 -405t386.5 -160q235 0 396 145v315z" />
    <glyph glyph-name="H" unicode="H" horiz-adv-x="1550" 
d="M381 637v-578q0 -59 -59 -59h-76q-60 0 -60 59v1315q0 60 60 60h76q59 0 59 -60v-567h788v567q0 60 60 60h76q59 0 59 -60v-1315q0 -59 -59 -59h-76q-60 0 -60 59v578h-788z" />
    <glyph glyph-name="I" unicode="I" horiz-adv-x="567" 
d="M381 1374v-1315q0 -59 -59 -59h-76q-60 0 -60 59v1315q0 60 60 60h76q59 0 59 -60z" />
    <glyph glyph-name="J" unicode="J" horiz-adv-x="1126" 
d="M756 430v944q0 60 59 60h76q59 0 59 -60v-954q0 -229 -123 -337t-340 -108q-195 0 -337 107q-84 60 -99 96q-4 12 -4 19q0 18 19 41l28 38q19 25 39 25q21 0 41 -20q81 -74 144 -105t161 -31q135 0 206 64.5t71 220.5z" />
    <glyph glyph-name="K" unicode="K" horiz-adv-x="1372" 
d="M719 803l565 -752q8 -11 8 -22q0 -12 -8.5 -20.5t-23.5 -8.5h-123q-34 0 -51 8.5t-37 36.5l-455 621l-213 -238v-369q0 -59 -59 -59h-76q-60 0 -60 59v1315q0 60 60 60h76q59 0 59 -60v-696l620 711q25 28 43.5 36.5t55.5 8.5h117q14 0 23 -8t9 -19q0 -10 -10 -23z" />
    <glyph glyph-name="L" unicode="L" horiz-adv-x="1120" 
d="M381 170h616q60 0 60 -59v-52q0 -59 -60 -59h-751q-60 0 -60 59v1315q0 60 60 60h76q59 0 59 -60v-1204z" />
    <glyph glyph-name="M" unicode="M" horiz-adv-x="1841" 
d="M922 514l475 875q13 26 29 35.5t47 9.5h122q60 0 60 -60v-1315q0 -59 -60 -59h-75q-60 0 -60 59v1082l-418 -813q-15 -27 -30 -36t-45 -9h-90q-30 0 -45.5 9t-30.5 36l-420 813v-1082q0 -59 -59 -59h-76q-60 0 -60 59v1315q0 60 60 60h123q31 0 46 -9.5t29 -35.5z" />
    <glyph glyph-name="N" unicode="N" horiz-adv-x="1550" 
d="M1169 293v1081q0 60 60 60h76q59 0 59 -60v-1315q0 -59 -59 -59h-101q-32 0 -48.5 8.5t-35.5 36.5l-739 1096v-1082q0 -59 -59 -59h-76q-60 0 -60 59v1315q0 60 60 60h100q32 0 48.5 -8.5t35.5 -36.5z" />
    <glyph glyph-name="O" unicode="O" horiz-adv-x="1695" 
d="M848 1458q164 0 306.5 -56.5t242.5 -154.5t157.5 -235.5t57.5 -294.5t-57.5 -294.5t-157.5 -236t-242.5 -155t-306.5 -56.5q-163 0 -305.5 56.5t-243 155t-158 236t-57.5 294.5q0 209 98 378.5t273 266t393 96.5zM848 156q159 0 288 73.5t202 202t73 285.5t-73 285.5
t-202 202t-288 73.5t-288 -73.5t-202 -202t-73 -285.5t73 -285.5t202 -202t288 -73.5z" />
    <glyph glyph-name="P" unicode="P" horiz-adv-x="1273" 
d="M381 479v-420q0 -59 -59 -59h-76q-60 0 -60 59v1315q0 60 60 60h401q84 0 160 -13.5t149.5 -48t126 -87.5t85 -138t32.5 -193t-32.5 -192t-85 -136.5t-126.5 -86.5t-150 -47t-161 -13h-264zM381 641h287q69 -1 129 16.5t108.5 53.5t76.5 98.5t28 144.5t-28 143.5t-77 97
t-108 53t-129 18.5h-287v-625z" />
    <glyph glyph-name="Q" unicode="Q" horiz-adv-x="1695" 
d="M1257 -57l-86 96q-40 -18 -96 -35q-98 -26 -227 -29q-163 0 -305.5 56.5t-243 155t-158 236t-57.5 294.5q0 209 98 378.5t273 266t393 96.5q164 0 306.5 -56.5t242.5 -154.5t157.5 -235.5t57.5 -294.5q-3 -117 -27 -209q-52 -185 -182 -315q-41 -41 -80 -68l154 -178
q10 -13 10 -23q0 -11 -9 -18.5t-24 -7.5h-98q-37 0 -55.5 8.5t-43.5 36.5zM1040 186l-86 97q-10 13 -10 22q0 11 9 19t24 8h113q35 0 53 -8.5t43 -36.5l12 -15q86 67 137 156q70 121 76 289q0 157 -73 285.5t-202 202t-288 73.5t-288 -73.5t-202 -202t-73 -285.5t73 -285.5
t202 -202t288 -73.5q108 3 192 30z" />
    <glyph glyph-name="R" unicode="R" horiz-adv-x="1357" 
d="M1018 45l-273 498q-35 -2 -96 -2l-268 -2v-480q0 -59 -59 -59h-76q-60 0 -60 59v1315q0 60 60 60h426q85 0 160.5 -12t150 -43t127.5 -79t86 -126t33 -179q0 -155 -77.5 -261.5t-217.5 -151.5l289 -527q6 -12 6 -22q0 -14 -10.5 -23.5t-28.5 -9.5h-96q-31 0 -47 9.5
t-29 35.5zM381 692h315q71 1 131 17.5t109 49.5t76.5 89.5t27.5 130.5q0 61 -18.5 110t-50 81.5t-76 54.5t-94 32t-105.5 11h-315v-576z" />
    <glyph glyph-name="S" unicode="S" horiz-adv-x="1177" 
d="M502 866l258 -102q183 -72 258.5 -163.5t75.5 -231.5q0 -125 -68.5 -215t-185.5 -134.5t-269 -44.5q-242 3 -405 136q-82 66 -98 114q-2 4 -2 13q0 21 22 47l37 43q17 20 37 20q18 0 33 -18q64 -87 164 -132.5t212 -45.5q143 0 231.5 58t88.5 167q0 76 -48.5 128
t-164.5 99l-264 107q-303 123 -303 385q0 156 128 259t336 103q190 0 340 -82q29 -15 44.5 -24t34 -28t18.5 -38t-19 -41l-30 -37q-24 -24 -48 -24q-15 0 -26 8q-137 98 -314 98q-123 0 -195.5 -54.5t-72.5 -139.5q0 -77 46.5 -133.5t148.5 -96.5z" />
    <glyph glyph-name="T" unicode="T" horiz-adv-x="1222" 
d="M514 1264h-432q-59 0 -59 59v51q0 60 59 60h1059q59 0 59 -60v-51q0 -59 -59 -59h-432v-1205q0 -59 -60 -59h-76q-59 0 -59 59v1205z" />
    <glyph glyph-name="U" unicode="U" horiz-adv-x="1560" 
d="M360 1374v-811q0 -180 108 -293.5t312 -113.5t312 113.5t108 293.5v811q0 60 60 60h75q60 0 60 -60v-821q0 -126 -40.5 -231.5t-117 -182.5t-193.5 -120.5t-264 -43.5q-146 0 -263 43.5t-193.5 121t-117 183t-40.5 230.5v821q0 60 59 60h76q59 0 59 -60z" />
    <glyph glyph-name="V" unicode="V" horiz-adv-x="1454" 
d="M727 211l469 1175q10 28 25.5 38t44.5 10h92q43 0 43 -37q0 -7 -4 -23l-545 -1327q-12 -27 -27 -37t-45 -10h-108q-30 0 -45 10t-25 37l-545 1327q-6 12 -6 23q0 37 45 37h92q29 0 44.5 -10t25.5 -38z" />
    <glyph glyph-name="W" unicode="W" horiz-adv-x="2086" 
d="M1044 1161l-296 -1110q-7 -28 -22.5 -39.5t-43.5 -11.5h-115q-28 0 -43 11.5t-24 37.5l-447 1325q-4 16 -4 21q0 17 12.5 28t34.5 11h97q27 0 42.5 -11.5t24.5 -38.5l369 -1153l303 1151q11 52 63 52h97q52 0 63 -52l303 -1151l369 1153q9 27 24.5 38.5t42.5 11.5h97
q22 0 34.5 -11t12.5 -28q0 -5 -4 -21l-449 -1325q-9 -26 -24 -37.5t-43 -11.5h-113q-28 0 -43.5 11.5t-22.5 39.5z" />
    <glyph glyph-name="X" unicode="X" horiz-adv-x="1308" 
d="M653 883l353 506q19 28 35.5 36.5t48.5 8.5h100q17 0 27 -8.5t10 -22.5q0 -12 -8 -23l-457 -643l487 -684q8 -11 8 -22q0 -14 -9.5 -22.5t-26.5 -8.5h-101q-32 0 -48.5 8.5t-35.5 36.5l-381 549l-383 -549q-19 -28 -35.5 -36.5t-50.5 -8.5h-100q-15 0 -25 8.5t-10 20.5
q0 13 8 24l488 684l-457 643q-8 11 -8 25q0 12 10 20.5t25 8.5h100q34 0 50.5 -8.5t35.5 -36.5z" />
    <glyph glyph-name="Y" unicode="Y" horiz-adv-x="1361" 
d="M682 684l397 705q15 26 31 35.5t47 9.5h96q18 0 28.5 -9.5t10.5 -23.5q0 -11 -6 -23l-508 -876v-443q0 -59 -59 -59h-76q-59 0 -59 59v443l-510 876q-6 12 -6 23q0 14 10 23.5t28 9.5h97q31 0 47 -9.5t31 -35.5z" />
    <glyph glyph-name="Z" unicode="Z" horiz-adv-x="1214" 
d="M883 1264h-733q-60 0 -60 59v51q0 60 60 60h911q59 0 59 -58v-37q0 -35 -10 -59t-35 -57l-772 -1053h809q59 0 59 -59v-52q0 -59 -59 -59h-993q-60 0 -60 57v37q0 36 10.5 60t34.5 57z" />
    <glyph glyph-name="bracketleft" unicode="[" horiz-adv-x="706" 
d="M334 1493v-1552h147q60 0 60 -58v-30q0 -58 -60 -58h-276q-60 0 -60 60v1724q0 59 60 59h276q60 0 60 -57v-31q0 -57 -60 -57h-147z" />
    <glyph glyph-name="backslash" unicode="\" horiz-adv-x="292" 
d="M477 33l-780 1362q-6 9 -6 16q0 10 7.5 16.5t20.5 6.5h41q38 0 56 -33l780 -1362q4 -12 4 -16q0 -9 -7.5 -16t-19.5 -7h-41q-22 0 -34 7t-21 26z" />
    <glyph glyph-name="bracketright" unicode="]" horiz-adv-x="706" 
d="M373 1493h-148q-59 0 -59 57v31q0 57 59 57h277q59 0 59 -59v-1724q0 -60 -59 -60h-277q-59 0 -59 58v30q0 58 59 58h148v1552z" />
    <glyph glyph-name="asciicircum" unicode="^" 
d="M666 1225l-301 -445q-21 -30 -60 -30h-84q-11 0 -18.5 6t-7.5 14q0 7 6 16l383 549q22 31 59 31h41q37 0 59 -31l383 -549q4 -12 4 -16q0 -8 -7 -14t-17 -6h-86q-38 0 -59 30z" />
    <glyph glyph-name="underscore" unicode="_" 
d="M188 -135h955q53 0 53 -53v-37q0 -54 -53 -54h-955q-53 0 -53 54v37q0 53 53 53z" />
    <glyph glyph-name="grave" unicode="`" horiz-adv-x="1105" 
d="M799 1227l-23 -29q-16 -16 -28 -16t-29 10l-258 186q-19 13 -19 31q0 14 13 27l43 51q16 16 30 16t29 -12l236 -209q16 -13 16 -29q0 -13 -10 -26z" />
    <glyph glyph-name="a" unicode="a" horiz-adv-x="1198" 
d="M889 53v74q-112 -152 -365 -152q-176 0 -289.5 96t-113.5 253q0 159 118 253.5t298 94.5q98 0 167 -11.5t164 -39.5l-2 34q-6 115 -75.5 182.5t-202.5 67.5q-157 3 -301 -69q-12 -9 -25 -9q-24 0 -39 31l-14 33q-8 13 -8 29q0 22 24 38q139 91 363 91q213 0 337 -113
t124 -295v-588q0 -53 -54 -53h-53q-53 0 -53 53zM868 358v134q-75 26 -137.5 35.5t-148.5 9.5q-119 0 -199 -58.5t-80 -154.5q0 -93 76 -151t186 -58q133 0 218 65.5t85 177.5z" />
    <glyph glyph-name="b" unicode="b" horiz-adv-x="1312" 
d="M346 1481v-623q62 90 161.5 140.5t215.5 50.5q226 0 367 -150t141 -387t-141 -387t-367 -150q-127 0 -229.5 53t-167.5 150v-125q0 -53 -54 -53h-53q-53 0 -53 53v1385q0 46 43 57l84 25q6 2 18 2q35 0 35 -41zM690 139q153 0 253.5 106.5t100.5 266.5t-100.5 266.5
t-253.5 106.5t-251.5 -106t-98.5 -267t98.5 -267t251.5 -106z" />
    <glyph glyph-name="c" unicode="c" horiz-adv-x="1132" 
d="M1026 815l-43 -39q-19 -16 -37 -16q-21 0 -45 24q-9 9 -33 27q-106 74 -239 74q-156 0 -258.5 -107t-102.5 -266t102.5 -266t258.5 -107q102 0 184 39q44 20 105 74q15 12 30 12q19 0 35 -16l43 -39q21 -18 21 -39q0 -18 -15 -33q-45 -51 -108 -86q-134 -76 -295 -76
q-237 0 -392 152t-155 385t155 385t392 152q110 0 219 -41q112 -43 184 -121q15 -15 15 -33q0 -21 -21 -39z" />
    <glyph glyph-name="d" unicode="d" horiz-adv-x="1312" 
d="M967 858v580q0 46 43 57l84 25q6 2 18 2q35 0 35 -41v-1428q0 -53 -53 -53h-54q-53 0 -53 53v125q-65 -97 -167.5 -150t-229.5 -53q-226 0 -367 150t-141 387t141 387t367 150q116 0 215.5 -50.5t161.5 -140.5zM623 139q153 0 251.5 106t98.5 267t-98.5 267t-251.5 106
t-254 -106.5t-101 -266.5t101 -266.5t254 -106.5z" />
    <glyph glyph-name="e" unicode="e" horiz-adv-x="1196" 
d="M1061 449h-791q10 -148 107 -232q93 -84 241 -84q131 0 230 55q14 7 49 37q39 31 55 31q18 0 35 -14l43 -35q25 -16 25 -37q0 -13 -13 -29q-70 -78 -187.5 -122t-240.5 -44q-230 0 -381 152t-151 385t151 385t381 152q145 0 260 -71.5t177.5 -193t62.5 -270.5v-14
q0 -51 -53 -51zM272 578h656q-7 144 -99 233q-91 88 -215 88q-141 0 -233 -86q-96 -86 -109 -235z" />
    <glyph glyph-name="f" unicode="f" horiz-adv-x="718" 
d="M399 881v-828q0 -53 -53 -53h-82q-53 0 -53 53v828h-131q-53 0 -53 53v37q0 53 53 53h131v147q0 172 108 281t275 109q92 0 174 -27q33 -11 33 -43q0 -13 -6 -25l-17 -43q-15 -37 -43 -37q-6 0 -12 3q-66 16 -127 16q-97 0 -147 -64t-50 -176v-141h265q53 0 53 -53v-37
q0 -53 -53 -53h-265z" />
    <glyph glyph-name="g" unicode="g" horiz-adv-x="1275" 
d="M934 -8v207q-57 -85 -152.5 -132t-212.5 -47q-215 0 -351 142.5t-136 372.5q1 152 63 269.5t172.5 181t251.5 63.5q120 0 219 -48t162 -143v113q0 53 54 53h53q53 0 53 -53v-989q0 -193 -135 -304.5t-373 -111.5q-256 0 -430 127q-27 18 -27 43q0 13 9 28l18 41
q13 29 37 29q13 0 24 -8q66 -45 144 -74q107 -43 225 -43q165 0 248.5 74t83.5 209zM602 180q148 0 244 100.5t96 254.5t-96 254t-244 100q-146 0 -242 -100t-96 -254t96 -254.5t242 -100.5z" />
    <glyph glyph-name="h" unicode="h" horiz-adv-x="1255" 
d="M346 1481v-607q48 83 138.5 129t215.5 46q188 0 297 -119t109 -316v-561q0 -53 -53 -53h-82q-53 0 -53 53v531q0 139 -70.5 220t-200.5 81q-141 0 -217 -84t-76 -217v-531q0 -53 -53 -53h-82q-53 0 -53 53v1387q0 46 43 57l84 25q6 2 16 2q37 0 37 -43z" />
    <glyph glyph-name="i" unicode="i" horiz-adv-x="524" 
d="M221 1024h82q53 0 53 -53v-918q0 -53 -53 -53h-82q-53 0 -53 53v918q0 53 53 53zM262 1507q50 0 86.5 -36.5t36.5 -86.5q0 -49 -36.5 -85.5t-86.5 -36.5t-86.5 36.5t-36.5 85.5q0 50 36.5 86.5t86.5 36.5z" />
    <glyph glyph-name="j" unicode="j" horiz-adv-x="538" 
d="M276 1507q50 0 86.5 -36.5t36.5 -86.5q0 -49 -36.5 -85.5t-86.5 -36.5t-86 36t-36 86t36.5 86.5t85.5 36.5zM371 971v-975q0 -184 -68 -285q-65 -94 -192 -129q-20 -4 -29 -4q-32 0 -43 37l-14 49q-5 20 -5 23q0 27 27 39q77 27 111 106q24 59 24 164v975q0 53 54 53h83
q52 0 52 -53z" />
    <glyph glyph-name="k" unicode="k" horiz-adv-x="1107" 
d="M354 303v-250q0 -53 -53 -53h-82q-53 0 -53 53v1385q0 46 43 57l84 25q6 2 18 2q35 0 35 -41v-994l463 498q23 25 39.5 32t50.5 7h98q13 0 21 -7t8 -16q0 -12 -8 -20l-369 -408l402 -528q8 -11 8 -20q0 -25 -31 -25h-115q-30 0 -44.5 7.5t-32.5 31.5l-320 432z" />
    <glyph glyph-name="l" unicode="l" horiz-adv-x="520" 
d="M354 1481v-1428q0 -53 -53 -53h-82q-53 0 -53 53v1389q0 46 45 57l90 23q6 2 16 2q37 0 37 -43z" />
    <glyph glyph-name="m" unicode="m" horiz-adv-x="1945" 
d="M334 971v-113q100 189 354 189q146 0 242 -70q68 -52 112 -148q45 103 141 161.5t226 58.5q178 0 282.5 -119t104.5 -316v-561q0 -53 -53 -53h-82q-53 0 -53 53v531q0 140 -65.5 220.5t-188.5 80.5q-136 0 -206.5 -82t-70.5 -219v-531q0 -53 -53 -53h-82q-53 0 -53 53
v531q0 141 -64.5 221t-191.5 80q-136 0 -207.5 -85t-71.5 -216v-531q0 -53 -53 -53h-82q-53 0 -53 53v918q0 53 53 53h62q53 0 53 -53z" />
    <glyph glyph-name="n" unicode="n" horiz-adv-x="1255" 
d="M334 971v-113q51 90 144 140.5t222 50.5q188 0 297 -119t109 -316v-561q0 -53 -53 -53h-82q-53 0 -53 53v531q0 139 -70.5 220t-200.5 81q-141 0 -217 -84t-76 -217v-531q0 -53 -53 -53h-82q-53 0 -53 53v918q0 53 53 53h62q53 0 53 -53z" />
    <glyph glyph-name="o" unicode="o" horiz-adv-x="1277" 
d="M639 1049q242 0 399.5 -152t157.5 -385t-157.5 -385t-399.5 -152t-399.5 152t-157.5 385t157.5 385t399.5 152zM639 135q161 0 266 107.5t105 269.5t-105 269.5t-266 107.5t-266 -107.5t-105 -269.5t105 -269.5t266 -107.5z" />
    <glyph glyph-name="p" unicode="p" horiz-adv-x="1312" 
d="M346 166v-522q0 -54 -53 -54h-74q-53 0 -53 54v1327q0 53 53 53h53q54 0 54 -53v-125q65 97 167.5 150t229.5 53q226 0 367 -150t141 -387t-141 -387t-367 -150q-116 0 -215.5 50.5t-161.5 140.5zM690 139q153 0 253.5 106.5t100.5 266.5t-100.5 266.5t-253.5 106.5
t-251.5 -106t-98.5 -267t98.5 -267t251.5 -106z" />
    <glyph glyph-name="q" unicode="q" horiz-adv-x="1312" 
d="M987 846v125q0 53 53 53h54q53 0 53 -53v-1327q0 -54 -53 -54h-74q-53 0 -53 54v522q-62 -90 -161.5 -140.5t-215.5 -50.5q-226 0 -367 150t-141 387t141 387t367 150q127 0 229.5 -53t167.5 -150zM623 139q153 0 251.5 106t98.5 267t-98.5 267t-251.5 106t-254 -106.5
t-101 -266.5t101 -266.5t254 -106.5z" />
    <glyph glyph-name="r" unicode="r" horiz-adv-x="751" 
d="M334 971v-113q46 83 135.5 129.5t218.5 46.5q50 0 66 -6q28 -11 28 -39q0 -11 -6 -26l-22 -64q-13 -35 -41 -35q-13 0 -38 3t-38 3q-145 0 -214 -78t-69 -208v-531q0 -53 -53 -53h-82q-53 0 -53 53v918q0 53 53 53h62q53 0 53 -53z" />
    <glyph glyph-name="s" unicode="s" horiz-adv-x="946" 
d="M811 864l-35 -43q-16 -22 -39 -22q-16 0 -26 10q-109 94 -232 94q-85 0 -133.5 -34t-48.5 -93q0 -90 119 -135l200 -74q123 -42 185.5 -108.5t62.5 -186.5q0 -150 -102.5 -223.5t-286.5 -73.5q-148 3 -254 58q-83 42 -137 108q-16 22 -16 39q0 18 16 37l41 47
q16 19 35 19q18 0 30 -15q124 -134 289 -137q93 0 147 35t54 106q0 69 -38 101.5t-128 66.5l-182 68q-98 33 -153.5 103.5t-55.5 164.5q0 130 96.5 201.5t255.5 71.5q207 0 338 -117q16 -13 16 -31q0 -19 -18 -37z" />
    <glyph glyph-name="t" unicode="t" horiz-adv-x="792" 
d="M211 1024v315q0 25 10.5 38.5t34.5 19.5l86 22q6 2 16 2q37 0 37 -43v-354h260q54 0 54 -53v-37q0 -53 -54 -53h-260v-494q0 -118 42.5 -183t127.5 -65q57 0 121 23q4 2 14 2q26 0 41 -33l23 -51q6 -12 6 -27q0 -25 -31 -41q-75 -37 -196 -37q-156 0 -246 101.5
t-90 275.5v529h-131q-53 0 -53 53v37q0 53 53 53h135z" />
    <glyph glyph-name="u" unicode="u" horiz-adv-x="1234" 
d="M901 53v113q-48 -91 -138.5 -141t-217.5 -50q-184 0 -289.5 119t-105.5 316v561q0 53 53 53h82q53 0 53 -53v-531q0 -139 67.5 -220t192.5 -81q136 0 209.5 84t73.5 217v531q0 53 53 53h82q53 0 53 -53v-918q0 -53 -53 -53h-62q-53 0 -53 53z" />
    <glyph glyph-name="v" unicode="v" horiz-adv-x="1155" 
d="M578 190l329 793q9 23 23 32t39 9h98q17 0 27 -8.5t10 -22.5q0 -8 -4 -20l-408 -932q-9 -23 -23.5 -32t-39.5 -9h-103q-25 0 -39 9t-24 32l-408 932q-4 12 -4 20q0 14 10 22.5t27 8.5h98q25 0 39.5 -9t24.5 -32z" />
    <glyph glyph-name="w" unicode="w" horiz-adv-x="1583" 
d="M793 838l-189 -793q-8 -45 -55 -45h-123q-25 0 -38 10t-21 33l-316 930q-2 6 -2 16q0 15 11 25t28 10h102q46 0 60 -43l237 -786l189 784q6 25 19 35t38 10h121q25 0 38 -10t19 -35l185 -784l241 786q11 43 58 43h100q20 0 30.5 -9.5t10.5 -25.5q0 -10 -4 -16l-315 -930
q-14 -43 -60 -43h-123q-47 0 -55 45z" />
    <glyph glyph-name="x" unicode="x" horiz-adv-x="1067" 
d="M532 655l254 330q19 24 34.5 31.5t45.5 7.5h95q28 0 28 -25q0 -8 -6 -20l-348 -451l375 -483q6 -12 6 -20q0 -11 -8 -18t-21 -7h-96q-30 0 -45 7.5t-33 31.5l-278 362l-279 -362q-19 -24 -34.5 -31.5t-45.5 -7.5h-96q-13 0 -22 7t-9 18q0 12 8 20l373 485l-346 449
q-8 8 -8 20q0 11 8.5 18t21.5 7h91q30 0 45 -7.5t34 -31.5z" />
    <glyph glyph-name="y" unicode="y" horiz-adv-x="1146" 
d="M573 190l326 793q9 23 23 32t39 9h98q17 0 27 -8.5t10 -22.5q0 -8 -4 -20l-510 -1172q-57 -132 -122 -183.5t-167 -51.5q-96 0 -156 35q-22 14 -22 39q0 13 6 28l22 49q11 29 37 29q7 0 15 -4q43 -18 90 -18t76 22.5t55 79.5l78 174h-17l-422 973q-4 12 -4 20
q0 14 10 22.5t27 8.5h98q25 0 39.5 -9t24.5 -32z" />
    <glyph glyph-name="z" unicode="z" horiz-adv-x="1075" 
d="M326 143h592q53 0 53 -53v-37q0 -53 -53 -53h-762q-54 0 -54 51v39q0 30 8.5 49.5t30.5 46.5l584 695h-539q-53 0 -53 53v37q0 53 53 53h691q53 0 53 -51v-39q0 -31 -8 -50t-31 -48z" />
    <glyph glyph-name="braceleft" unicode="{" horiz-adv-x="851" 
d="M504 1241v-258q0 -116 -23 -175t-98 -91q75 -32 98 -91t23 -175v-258v-17.5v-22t0.5 -22.5t1 -25t1.5 -23.5t3 -25t5 -22.5t6.5 -21.5t8.5 -17.5q13 -22 37.5 -34t44.5 -15t52 -4q53 -3 53 -60v-30q0 -25 -13.5 -40.5t-37.5 -15.5q-190 0 -270.5 83t-80.5 278v278
q0 53 -7 90t-22 57.5t-25.5 29t-29.5 18.5q-16 8 -23.5 13t-14.5 18.5t-7 33.5v43q0 51 41 64q14 4 25.5 10.5t20.5 12.5t15.5 17t11 16.5t7.5 21t4.5 20.5t2.5 23.5t1 23v25.5v24v281q0 43 3.5 79t13.5 75.5t26.5 70t45 57.5t67.5 44q25 11 83 22.5t99 11.5q17 0 33 -4
q31 -11 31 -53v-31q0 -31 -15.5 -44t-46.5 -15q-107 0 -133 -68q-18 -49 -18 -182z" />
    <glyph glyph-name="bar" unicode="|" horiz-adv-x="1064" 
d="M561 -410h-59q-43 0 -43 43v1860q0 43 43 43h59q43 0 43 -43v-1860q0 -43 -43 -43z" />
    <glyph glyph-name="braceright" unicode="}" horiz-adv-x="851" 
d="M348 193v258q0 116 23 175t98 91q-75 32 -98 91t-23 175v258q0 133 -18 182q-26 68 -133 68q-31 2 -46.5 15t-15.5 44v31q0 42 31 53q16 4 33 4q41 0 99 -11.5t83 -22.5q39 -17 67.5 -44t45 -57.5t26.5 -70t13.5 -75.5t3.5 -79v-281v-24v-25.5t1 -23t2.5 -23.5t4.5 -20.5
t7.5 -21t11 -16.5t15.5 -17t20.5 -12.5t25.5 -10.5q41 -13 41 -64v-43q0 -20 -7 -33.5t-14.5 -18.5t-23.5 -13q-19 -10 -29.5 -18.5t-25.5 -29t-22 -57.5t-7 -90v-278q0 -196 -81 -280.5t-270 -80.5q-24 0 -37.5 15.5t-13.5 40.5v30q0 57 53 60q32 1 52 4t44.5 15t37.5 34
q5 8 8.5 17.5t6.5 21.5t5 22.5t3 25t1.5 23.5t1 25t0.5 22.5v22v17.5z" />
    <glyph glyph-name="asciitilde" unicode="~" 
d="M217 1210l-22 19q-23 20 -23 39q0 15 8 28q107 195 271 195q75 0 170 -45l108 -49q98 -45 152 -45q27 0 49 7.5t40 23t28 27.5t24 32q32 45 55 45q13 0 31 -12l25 -19q22 -19 22 -41q0 -13 -8 -26q-111 -189 -270 -189q-42 0 -83 11t-112 44l-115 52q-74 32 -125 32
q-27 0 -50 -9.5t-45 -33t-31.5 -35.5t-32.5 -44q-13 -19 -33 -19q-18 0 -33 12z" />
    <glyph glyph-name="uni00A0" unicode="&#xa0;" horiz-adv-x="546" 
 />
    <glyph glyph-name="exclamdown" unicode="&#xa1;" horiz-adv-x="708" 
d="M354 795q-52 0 -89.5 37.5t-37.5 89.5t37.5 89.5t89.5 37.5t89.5 -37.5t37.5 -89.5t-37.5 -89.5t-89.5 -37.5zM248 -350l16 887q0 59 60 59h61q59 0 59 -59l17 -887q0 -60 -60 -60h-94q-59 0 -59 60z" />
    <glyph glyph-name="cent" unicode="&#xa2;" 
d="M438 47l-80 -119q-21 -30 -61 -30h-45q-25 0 -25 20q0 7 6 16l119 175q-113 98 -155 251q-17 61 -21 152q0 233 155 385t392 152q110 0 219 -41q3 -1 10.5 -4.5t10.5 -4.5l65 97q21 30 62 30h45q24 0 24 -20q0 -7 -6 -16l-96 -142q36 -23 69 -61q15 -15 15 -33
q0 -21 -21 -39l-43 -39q-19 -16 -37 -16q-21 0 -45 24q-12 12 -32 27l-426 -623q82 -46 186 -49q102 0 184 39q44 20 105 74q15 12 30 12q19 0 35 -16l43 -39q21 -18 21 -39q0 -18 -15 -33q-45 -51 -108 -86q-134 -76 -295 -76q-167 7 -285 72zM455 258l411 602
q-70 25 -143 25q-156 0 -258.5 -107t-102.5 -266q6 -152 93 -254z" />
    <glyph glyph-name="sterling" unicode="&#xa3;" 
d="M498 641v-240q0 -181 -90 -231h745q59 0 59 -59v-52q0 -59 -59 -59h-944q-59 0 -59 59v60q0 49 38 65q32 14 54.5 37.5t34 47.5t18 60t7.5 61.5t1 64.5v186h-94q-59 0 -59 59v43q0 60 59 60h94v252q0 176 125.5 289.5t329.5 113.5q110 0 221 -36t184 -105q19 -22 19 -41
q0 -21 -17 -41l-32 -37q-20 -27 -46 -27q-12 0 -28 13q-127 102 -289 102q-125 0 -198.5 -67.5t-73.5 -184.5v-231h309q59 0 59 -60v-43q0 -59 -59 -59h-309z" />
    <glyph glyph-name="currency" unicode="&#xa4;" 
d="M1165 117l-182 174q-143 -117 -321 -117q-182 0 -318 115l-180 -172q-20 -17 -37 -17q-18 0 -35 17l-22 22q-19 19 -19 37q0 19 21 37l178 170q-100 138 -100 303q0 168 98 303l-176 172q-21 18 -21 37q0 18 19 37l22 22q17 17 35 17q17 0 37 -17l180 -172
q138 115 318 115t319 -115l178 170q16 19 35 19q17 0 37 -17l24 -20q19 -16 19 -35q0 -18 -19 -37l-180 -176q101 -140 101 -303q0 -169 -99 -297l183 -174q18 -18 18 -39q0 -16 -16 -35l-23 -22q-22 -19 -39 -19q-18 0 -35 17zM662 1063q-158 0 -265.5 -110t-107.5 -267
q0 -155 109 -265t264 -110t264.5 110t109.5 265q0 158 -107.5 267.5t-266.5 109.5z" />
    <glyph glyph-name="yen" unicode="&#xa5;" 
d="M666 684l399 705q15 26 31 35.5t47 9.5h96q18 0 28.5 -9.5t10.5 -23.5q0 -11 -6 -23l-486 -827h248q43 0 43 -39v-20q0 -39 -43 -39h-272v-181h272q43 0 43 -39v-20q0 -39 -43 -39h-272v-115q0 -59 -60 -59h-73q-62 0 -62 59v115h-272q-43 0 -43 39v20q0 39 43 39h272
v181h-272q-43 0 -43 39v20q0 39 43 39h248l-484 827q-6 12 -6 23q0 14 10.5 23.5t28.5 9.5h96q31 0 47 -9.5t31 -35.5z" />
    <glyph glyph-name="brokenbar" unicode="&#xa6;" horiz-adv-x="1064" 
d="M561 760h-59q-43 0 -43 43v690q0 43 43 43h59q43 0 43 -43v-690q0 -43 -43 -43zM502 367h59q43 0 43 -43v-691q0 -43 -43 -43h-59q-43 0 -43 43v691q0 43 43 43z" />
    <glyph glyph-name="section" unicode="&#xa7;" 
d="M717 135l-238 96q-144 58 -210 140.5t-66 197.5q0 89 45.5 160t126.5 111q-87 52 -129.5 120t-42.5 164q0 144 117 239t307 95q172 0 307 -76q84 -43 84 -82q0 -18 -17 -38l-24 -29q-20 -23 -43 -23q-15 0 -33 11q-134 86 -274 86q-113 0 -178.5 -51.5t-65.5 -131.5
q0 -66 42.5 -114t135.5 -86l230 -93q165 -65 233 -146.5t68 -207.5q0 -182 -152 -276q80 -57 116 -121.5t36 -157.5q0 -169 -132 -262.5t-344 -93.5q-224 3 -374 133q-77 66 -88 113q-2 4 -2 12q0 21 22 43l23 22q16 19 34 19q17 0 33 -19q60 -81 153.5 -123t198.5 -42
q129 0 210 53t81 151q0 69 -43 117t-147 90zM559 367l191 -80q79 21 118 72.5t39 123.5q0 69 -43 117t-147 90l-164 70q-81 -13 -125.5 -66t-44.5 -125q0 -66 42 -114t134 -88z" />
    <glyph glyph-name="dieresis" unicode="&#xa8;" horiz-adv-x="1105" 
d="M330 1495q46 0 79 -33.5t33 -77.5t-33 -77t-79 -33q-44 0 -77.5 33t-33.5 77t33.5 77.5t77.5 33.5zM776 1495q44 0 77.5 -33.5t33.5 -77.5t-33.5 -77t-77.5 -33t-77 33t-33 77t33 77.5t77 33.5z" />
    <glyph glyph-name="copyright" unicode="&#xa9;" horiz-adv-x="1875" 
d="M938 1458q153 0 292.5 -58.5t240 -157.5t160 -236.5t59.5 -288.5q0 -202 -100.5 -372.5t-273.5 -270t-378 -99.5t-378 99.5t-273.5 270t-100.5 372.5q0 151 59.5 288.5t160 236.5t240 157.5t292.5 58.5zM938 1356q-174 0 -321.5 -85.5t-233.5 -232.5t-86 -321t86 -321
t233.5 -232.5t321.5 -85.5t321.5 85.5t233.5 232.5t86 321t-86 321t-233.5 232.5t-321.5 85.5zM1186 553l26 -21q17 -14 17 -28q0 -11 -8 -19q-103 -114 -277 -114q-159 0 -262.5 98t-103.5 248t103.5 248t262.5 98q172 0 275 -109q10 -13 10 -24q0 -15 -15 -27l-28 -24
q-15 -11 -25 -11q-11 0 -24 13q-82 82 -193 82q-108 0 -179 -70.5t-71 -175.5t71 -175.5t179 -70.5q110 0 195 82q10 10 22 10t25 -10z" />
    <glyph glyph-name="ordfeminine" unicode="&#xaa;" horiz-adv-x="950" 
d="M631 1174v20q0 76 -47.5 118t-134.5 42q-117 0 -209 -51q-15 -5 -17 -5q-14 0 -24 17l-15 26q-6 12 -6 21q0 18 19 27q107 59 252 59q146 0 230.5 -70t84.5 -192v-375q0 -37 -37 -37h-45q-37 0 -37 37v49q-79 -104 -239 -104q-125 0 -203 62.5t-78 162.5
q2 100 80.5 161.5t208.5 61.5q107 0 217 -30zM631 1001v86q-83 29 -187 29q-84 0 -135 -37.5t-51 -97.5q0 -61 49 -99t127 -38q86 0 141.5 44t55.5 113z" />
    <glyph glyph-name="guillemotleft" unicode="&#xab;" horiz-adv-x="1226" 
d="M344 512l244 -340q12 -15 12 -33q0 -20 -25 -39l-36 -28q-18 -15 -35 -15q-23 0 -39 25l-283 393q-14 20 -14 37q0 20 14 37l283 393q16 25 39 25q17 0 35 -15l39 -30q22 -19 22 -39q0 -15 -12 -33zM778 512l244 -340q12 -15 12 -33q0 -21 -24 -39l-37 -28
q-18 -15 -35 -15q-23 0 -39 25l-283 393q-14 20 -14 37q0 20 14 37l283 393q16 25 39 25q17 0 35 -15l39 -30q22 -19 22 -39q0 -15 -12 -33z" />
    <glyph glyph-name="logicalnot" unicode="&#xac;" 
d="M948 387h-674q-53 0 -53 53v37q0 53 53 53h781q53 0 53 -53v-424q0 -53 -53 -53h-54q-53 0 -53 53v334z" />
    <glyph glyph-name="uni00AD" unicode="&#xad;" horiz-adv-x="694" 
d="M178 584h338q53 0 53 -54v-36q0 -54 -53 -54h-338q-53 0 -53 54v36q0 54 53 54z" />
    <glyph glyph-name="registered" unicode="&#xae;" horiz-adv-x="1095" 
d="M469 1059v-129q0 -21 -20 -21h-15q-20 0 -20 21v350q0 20 20 20h115q73 0 113 -31.5t40 -88.5q0 -40 -19 -66t-62 -45l90 -141q2 -4 2 -8q0 -11 -11 -11h-26q-18 0 -27 15l-82 135h-30h-68zM469 1108h86q88 3 88 72q0 68 -88 71h-86v-143zM549 1448q156 0 258 -99
t102 -247t-102 -247t-258 -99t-259.5 99t-103.5 247t103.5 247t259.5 99zM549 807q136 0 221.5 84.5t85.5 210.5q0 128 -85.5 211.5t-221.5 83.5q-137 0 -223 -84t-86 -211q0 -126 86.5 -210.5t222.5 -84.5z" />
    <glyph glyph-name="macron" unicode="&#xaf;" horiz-adv-x="1105" 
d="M283 1405h540q43 0 43 -43v-51q0 -43 -43 -43h-540q-43 0 -43 43v51q0 43 43 43z" />
    <glyph glyph-name="degree" unicode="&#xb0;" horiz-adv-x="862" 
d="M737 1159q0 -126 -87.5 -208.5t-219.5 -82.5q-131 0 -218 82.5t-87 208.5q0 124 87 206.5t218 82.5q132 0 219.5 -82.5t87.5 -206.5zM430 985q76 0 125 50t49 124q0 73 -49 122.5t-125 49.5q-74 0 -123 -49.5t-49 -122.5q0 -74 49 -124t123 -50z" />
    <glyph glyph-name="plusminus" unicode="&#xb1;" 
d="M236 143h860q53 0 53 -53v-37q0 -53 -53 -53h-860q-54 0 -54 53v37q0 53 54 53zM592 719h-356q-54 0 -54 53v37q0 53 54 53h356v338q0 53 53 53h41q53 0 53 -53v-338h357q53 0 53 -53v-37q0 -53 -53 -53h-357v-338q0 -53 -53 -53h-41q-53 0 -53 53v338z" />
    <glyph glyph-name="twosuperior" unicode="&#xb2;" horiz-adv-x="649" 
d="M244 1069h282q37 0 37 -37v-20q0 -37 -37 -37h-409q-37 0 -37 35v16q0 30 29 59l229 232q60 58 75 81.5t15 57.5q0 47 -34 75t-91 28q-16 0 -31.5 -2t-25.5 -4t-24 -8t-18.5 -8.5t-18.5 -10t-15 -8.5q-30 -17 -39 -17q-10 0 -22 15l-15 18q-10 13 -10 25q0 15 12 24
q81 70 207 70q106 0 171 -54t65 -143q0 -47 -21.5 -87.5t-75.5 -96.5z" />
    <glyph glyph-name="threesuperior" unicode="&#xb3;" horiz-adv-x="671" 
d="M131 1516l-14 20q-11 15 -11 25q0 12 13 22q76 68 200 68q98 0 160 -49t64 -127q3 -93 -84 -142q56 -25 85.5 -70t28.5 -102q0 -88 -70.5 -143t-183.5 -55q-150 0 -227 92q-10 13 -10 22q0 15 12 27l15 16q13 13 22 13q8 0 35 -19q19 -17 33 -26t47 -19.5t73 -9.5
q66 0 104.5 31.5t37.5 83.5q0 51 -39.5 81.5t-102.5 30.5h-30q-39 0 -39 35v20q0 35 39 35h30q53 0 87 25t34 63q1 41 -32 66.5t-89 25.5q-63 0 -112 -28q-8 -4 -14 -10q-23 -19 -37 -19t-25 17z" />
    <glyph glyph-name="acute" unicode="&#xb4;" horiz-adv-x="1105" 
d="M469 1200l-20 25q-13 16 -13 28q0 14 17 31l235 207q14 14 31 14q16 0 29 -16l47 -53q12 -12 12 -27q0 -18 -19 -31l-262 -186q-13 -10 -24 -10q-18 0 -33 18z" />
    <glyph glyph-name="mu" unicode="&#xb5;" 
d="M377 152v-508q0 -54 -53 -54h-64q-53 0 -53 54v1327q0 53 53 53h84q53 0 53 -53l2 -531q0 -140 65.5 -220.5t190.5 -80.5q136 0 209.5 84t73.5 217v531q0 53 53 53h82q53 0 53 -53v-918q0 -53 -53 -53h-61q-54 0 -54 53v137q-102 -215 -303 -215q-88 0 -161.5 45
t-116.5 132z" />
    <glyph glyph-name="paragraph" unicode="&#xb6;" horiz-adv-x="1497" 
d="M737 444h-102q-98 0 -187.5 38t-155.5 103.5t-105.5 158t-39.5 196.5q0 214 138.5 354t349.5 140h229q60 0 60 -60v-1724q0 -60 -60 -60h-67q-60 0 -60 60v794zM1104 -350v1724q0 60 59 60h68q59 0 59 -60v-1724q0 -60 -59 -60h-68q-59 0 -59 60z" />
    <glyph glyph-name="periodcentered" unicode="&#xb7;" horiz-adv-x="442" 
d="M221 772q53 0 90 -37t37 -90t-37 -90t-90 -37t-90 37t-37 90t37 90t90 37z" />
    <glyph glyph-name="cedilla" unicode="&#xb8;" horiz-adv-x="1105" 
d="M504 0h129l-23 -96q90 -8 140.5 -50.5t50.5 -117.5q0 -83 -67.5 -129.5t-178.5 -46.5q-89 0 -170 34q-29 13 -29 37q0 9 6 21l11 20q11 25 33 25q10 0 16 -2q73 -27 133 -27q115 0 115 68q0 67 -119 67h-55q-35 0 -35 31q0 8 2 12z" />
    <glyph glyph-name="onesuperior" unicode="&#xb9;" horiz-adv-x="481" 
d="M205 1528l-92 -43q-12 -4 -19 -4q-13 0 -22 12l-19 29q-6 9 -6 16q0 13 16 23l119 59q35 18 68 18h22q31 0 31 -28v-606q0 -29 -31 -29h-39q-28 0 -28 29v524z" />
    <glyph glyph-name="ordmasculine" unicode="&#xba;" horiz-adv-x="1017" 
d="M510 1448q168 0 275.5 -97t107.5 -249t-107.5 -249t-275.5 -97t-276.5 97t-108.5 249t108.5 249t276.5 97zM510 872q105 0 174.5 64.5t69.5 165.5q0 100 -69.5 164.5t-174.5 64.5q-106 0 -176 -64t-70 -165t70 -165.5t176 -64.5z" />
    <glyph glyph-name="guillemotright" unicode="&#xbb;" horiz-adv-x="1226" 
d="M883 512l-242 338q-12 18 -12 33q0 20 22 39l39 30q18 15 35 15q21 0 37 -25l282 -393q17 -20 17 -37q0 -13 -17 -37l-282 -393q-16 -25 -39 -25q-15 0 -33 15l-39 28q-22 19 -22 39q0 15 12 33zM449 512l-242 338q-12 18 -12 33q0 20 22 39l39 30q18 15 35 15
q21 0 37 -25l282 -393q17 -20 17 -37q0 -13 -17 -37l-282 -393q-16 -25 -39 -25q-15 0 -33 15l-39 28q-22 19 -22 39q0 15 12 33z" />
    <glyph glyph-name="onequarter" unicode="&#xbc;" horiz-adv-x="1689" 
d="M354 1323l-92 -43q-12 -4 -18 -4q-14 0 -23 12l-18 29q-6 9 -6 16q0 13 16 23l119 59q36 19 67 19h23q31 0 31 -29v-606q0 -29 -31 -29h-39q-29 0 -29 29v524zM1227 1395l-781 -1362q-18 -33 -55 -33h-41q-13 0 -20.5 6.5t-7.5 16.5q0 7 6 16l780 1362q9 19 21 26t34 7
h41q12 0 19.5 -7t7.5 -16q0 -4 -4 -16zM1102 217h190v105q0 36 37 36h37q37 0 37 -36v-105h57q37 0 37 -35v-20q0 -37 -37 -37h-57v-88q0 -37 -37 -37h-37q-37 0 -37 37v88h-284q-37 0 -37 35v18q0 31 28 78l273 401q16 19 31 19q8 0 20 -6l31 -19q18 -12 18 -26
q0 -12 -8 -23z" />
    <glyph glyph-name="onehalf" unicode="&#xbd;" horiz-adv-x="1689" 
d="M360 1323l-92 -43q-12 -4 -18 -4q-14 0 -23 12l-18 29q-6 9 -6 16q0 13 16 23l119 59q36 19 68 19h22q31 0 31 -29v-606q0 -29 -31 -29h-39q-29 0 -29 29v524zM1233 1395l-780 -1362q-18 -33 -56 -33h-41q-13 0 -20.5 6.5t-7.5 16.5q0 7 6 16l780 1362q9 19 21 26t34 7
h41q12 0 19.5 -7t7.5 -16q0 -4 -4 -16zM1174 94h282q37 0 37 -37v-20q0 -37 -37 -37h-409q-37 0 -37 35v16q0 32 28 60l230 231q60 58 75 81.5t15 57.5q0 47 -34 75t-91 28q-16 0 -31.5 -2t-25.5 -4t-24 -8t-18.5 -8.5t-18.5 -10t-15 -8.5q-34 -17 -39 -17q-11 0 -23 15
l-14 18q-10 13 -10 25q0 15 12 24q81 70 207 70q106 0 170.5 -54t64.5 -143q0 -47 -21 -88t-75 -96z" />
    <glyph glyph-name="threequarters" unicode="&#xbe;" horiz-adv-x="1689" 
d="M168 1311l-14 20q-11 15 -11 25q0 12 13 22q76 68 200 68q98 0 160 -49t64 -127q3 -93 -84 -142q56 -25 85.5 -70t28.5 -102q0 -88 -70.5 -143t-183.5 -55q-150 0 -227 92q-10 13 -10 22q0 15 12 27l14 16q13 13 23 13q8 0 35 -19q19 -17 33 -26t47 -19.5t73 -9.5
q66 0 104.5 31.5t37.5 83.5q0 51 -39.5 81.5t-102.5 30.5h-30q-39 0 -39 35v21q0 34 39 34h30q52 0 86.5 25.5t34.5 63.5q1 41 -32 66.5t-89 25.5q-61 0 -112 -29q-10 -5 -15 -10q-23 -19 -36 -19q-14 0 -25 17zM1305 1395l-781 -1362q-18 -33 -55 -33h-41q-13 0 -21 7
t-8 16q0 5 7 16l780 1362q9 19 21 26t34 7h41q12 0 19.5 -7t7.5 -16q0 -4 -4 -16zM1180 217h190v105q0 36 37 36h37q37 0 37 -36v-105h57q37 0 37 -35v-20q0 -37 -37 -37h-57v-88q0 -37 -37 -37h-37q-37 0 -37 37v88h-285q-36 0 -36 35v18q0 31 28 78l273 401q16 19 30 19
q9 0 21 -6l31 -19q18 -12 18 -26q0 -12 -8 -23z" />
    <glyph glyph-name="questiondown" unicode="&#xbf;" horiz-adv-x="1093" 
d="M651 795q-54 0 -90.5 37t-36.5 90t36.5 90t90.5 37q53 0 90 -37.5t37 -89.5t-37 -89.5t-90 -37.5zM588 254l-156 -96q-65 -39 -94 -86t-29 -117q0 -102 71 -164.5t195 -62.5q168 0 302 106q17 10 28 10q26 0 47 -24l29 -35q20 -28 20 -43q0 -4 -4 -16q-18 -37 -90 -74
q-146 -86 -332 -86q-211 0 -335.5 103t-124.5 286q0 110 45.5 182.5t132.5 126.5l129 78q62 36 92 69t37 91q4 57 13 71q13 23 50 23h72q39 0 49 -19.5t10 -64.5q0 -94 -35 -149t-122 -109z" />
    <glyph glyph-name="Agrave" unicode="&#xc0;" horiz-adv-x="1462" 
d="M367 313l-109 -266q-10 -27 -25 -37t-45 -10h-92q-45 0 -45 37q0 10 6 22l553 1327q12 28 27.5 38t44.5 10h100q29 0 44.5 -10t25.5 -38l553 -1327q4 -16 4 -22q0 -37 -43 -37h-92q-30 0 -45 10t-25 37l-106 266h-731zM1032 483l-301 740l-301 -740h602zM842 1606
l-23 -29q-16 -16 -31 -16q-9 0 -26 10l-258 186q-21 12 -21 31q0 15 15 27l43 51q13 16 30 16q14 0 29 -12l236 -209q16 -13 16 -29q0 -13 -10 -26z" />
    <glyph glyph-name="Aacute" unicode="&#xc1;" horiz-adv-x="1462" 
d="M367 313l-109 -266q-10 -27 -25 -37t-45 -10h-92q-45 0 -45 37q0 10 6 22l553 1327q12 28 27.5 38t44.5 10h100q29 0 44.5 -10t25.5 -38l553 -1327q4 -16 4 -22q0 -37 -43 -37h-92q-30 0 -45 10t-25 37l-106 266h-731zM1032 483l-301 740l-301 -740h602zM643 1579l-20 25
q-15 15 -15 28q0 15 19 31l235 207q11 14 29 14q15 0 31 -16l47 -53q12 -12 12 -27q0 -19 -18 -31l-263 -186q-17 -10 -26 -10q-19 0 -31 18z" />
    <glyph glyph-name="Acircumflex" unicode="&#xc2;" horiz-adv-x="1462" 
d="M367 313l-109 -266q-10 -27 -25 -37t-45 -10h-92q-45 0 -45 37q0 10 6 22l553 1327q12 28 27.5 38t44.5 10h100q29 0 44.5 -10t25.5 -38l553 -1327q4 -16 4 -22q0 -37 -43 -37h-92q-30 0 -45 10t-25 37l-106 266h-731zM1032 483l-301 740l-301 -740h602zM733 1769
l-229 -190q-18 -12 -31 -12q-16 0 -29 16l-26 29q-15 15 -15 28q0 15 19 31l213 197q37 30 76 30h43q36 0 73 -30l215 -197q17 -17 17 -31q0 -13 -15 -28l-24 -29q-16 -16 -33 -16q-14 0 -26 12z" />
    <glyph glyph-name="Atilde" unicode="&#xc3;" horiz-adv-x="1462" 
d="M367 313l-109 -266q-10 -27 -25 -37t-45 -10h-92q-45 0 -45 37q0 10 6 22l553 1327q12 28 27.5 38t44.5 10h100q29 0 44.5 -10t25.5 -38l553 -1327q4 -16 4 -22q0 -37 -43 -37h-92q-30 0 -45 10t-25 37l-106 266h-731zM1032 483l-301 740l-301 -740h602zM494 1597h-50
q-41 0 -41 37q0 107 62 166q47 47 123 47q31 0 62.5 -12.5t51.5 -25.5t50 -37q28 -21 39.5 -29t32.5 -17.5t38 -9.5q14 0 25 7t17 13.5t12 24t7 22.5l5 25q6 33 43 33h49q41 0 41 -37q0 -107 -64 -168q-48 -45 -120 -45q-32 0 -65 13t-50.5 25t-50.5 36q-26 19 -39.5 28
t-33.5 18t-36 9q-23 0 -37.5 -16t-19 -32t-8.5 -42q-5 -33 -43 -33z" />
    <glyph glyph-name="Adieresis" unicode="&#xc4;" horiz-adv-x="1462" 
d="M367 313l-109 -266q-10 -27 -25 -37t-45 -10h-92q-45 0 -45 37q0 10 6 22l553 1327q12 28 27.5 38t44.5 10h100q29 0 44.5 -10t25.5 -38l553 -1327q4 -16 4 -22q0 -37 -43 -37h-92q-30 0 -45 10t-25 37l-106 266h-731zM1032 483l-301 740l-301 -740h602zM508 1874
q46 0 79.5 -33.5t33.5 -77.5t-33.5 -77t-79.5 -33q-44 0 -77.5 33t-33.5 77t33.5 77.5t77.5 33.5zM954 1874q44 0 77.5 -33.5t33.5 -77.5t-33.5 -77t-77.5 -33t-77 33t-33 77t33 77.5t77 33.5z" />
    <glyph glyph-name="Aring" unicode="&#xc5;" horiz-adv-x="1462" 
d="M367 313l-109 -266q-10 -27 -25 -37t-45 -10h-92q-45 0 -45 37q0 10 6 22l553 1327q12 28 27.5 38t44.5 10h100q29 0 44.5 -10t25.5 -38l553 -1327q4 -16 4 -22q0 -37 -43 -37h-92q-30 0 -45 10t-25 37l-106 266h-731zM1032 483l-301 740l-301 -740h602zM731 1870
q82 0 133 -49.5t51 -124.5q0 -72 -54 -124t-130 -52q-75 0 -128.5 52t-53.5 124q0 75 50 124.5t132 49.5zM623 1696q0 -44 32 -76.5t76 -32.5t77.5 32.5t33.5 76.5q0 45 -31 75.5t-80 30.5q-47 0 -77.5 -30.5t-30.5 -75.5z" />
    <glyph glyph-name="AE" unicode="&#xc6;" horiz-adv-x="2095" 
d="M1071 285h-637l-155 -240q-19 -28 -35.5 -36.5t-48.5 -8.5h-97q-17 0 -27 8.5t-10 22.5q0 10 9 22l880 1336q19 28 35.5 36.5t48.5 8.5h899q60 0 60 -60v-47q0 -59 -60 -59h-671v-475h518q59 0 59 -60v-43q0 -59 -59 -59h-518v-465h692q59 0 59 -60v-47q0 -59 -59 -59
h-824q-59 0 -59 59v226zM1071 455v809l-528 -809h528z" />
    <glyph glyph-name="Ccedilla" unicode="&#xc7;" horiz-adv-x="1517" 
d="M711 -154l34 134q-204 21 -365.5 135t-238.5 301q-50 120 -57 301q0 157 55.5 294t153.5 235.5t238 155t303 56.5q184 0 344 -74q134 -64 213 -155q18 -21 18 -43q0 -21 -25 -43l-55 -45q-24 -17 -41 -17q-19 0 -39 17q-83 86 -190.5 133t-224.5 47q-158 0 -284 -73.5
t-195.5 -201.5t-69.5 -286t69.5 -286t195.5 -201.5t284 -73.5q240 0 417 180q19 16 37 16q21 0 43 -16l53 -45q27 -23 27 -45q0 -11 -2 -15q-13 -37 -123 -118q-181 -125 -412 -138l-16 -71q90 -8 140.5 -50.5t50.5 -117.5q0 -83 -67.5 -129.5t-178.5 -46.5q-89 0 -170 34
q-29 13 -29 37q0 9 6 21l11 20q11 25 34 25q9 0 15 -2q73 -27 133 -27q115 0 115 68q0 67 -119 67h-56q-34 0 -34 31q0 8 2 12z" />
    <glyph glyph-name="Egrave" unicode="&#xc8;" horiz-adv-x="1210" 
d="M381 1268v-475h514q59 0 59 -60v-43q0 -59 -59 -59h-514v-465h688q59 0 59 -60v-47q0 -59 -59 -59h-823q-60 0 -60 59v1315q0 60 60 60h803q59 0 59 -60v-47q0 -59 -59 -59h-668zM768 1606l-23 -29q-16 -16 -28 -16t-29 10l-258 186q-18 12 -18 31q0 15 12 27l43 51
q16 16 31 16q13 0 28 -12l236 -209q16 -13 16 -29q0 -13 -10 -26z" />
    <glyph glyph-name="Eacute" unicode="&#xc9;" horiz-adv-x="1210" 
d="M381 1268v-475h514q59 0 59 -60v-43q0 -59 -59 -59h-514v-465h688q59 0 59 -60v-47q0 -59 -59 -59h-823q-60 0 -60 59v1315q0 60 60 60h803q59 0 59 -60v-47q0 -59 -59 -59h-668zM569 1579l-20 25q-12 15 -12 28q0 15 16 31l235 207q14 14 29 14t31 -16l47 -53
q12 -12 12 -27q0 -19 -18 -31l-262 -186q-13 -10 -27 -10q-16 0 -31 18z" />
    <glyph glyph-name="Ecircumflex" unicode="&#xca;" horiz-adv-x="1210" 
d="M381 1268v-475h514q59 0 59 -60v-43q0 -59 -59 -59h-514v-465h688q59 0 59 -60v-47q0 -59 -59 -59h-823q-60 0 -60 59v1315q0 60 60 60h803q59 0 59 -60v-47q0 -59 -59 -59h-668zM659 1769l-229 -190q-15 -12 -29 -12t-30 16l-27 29q-14 14 -14 28q0 16 18 31l213 197
q37 30 76 30h43q36 0 74 -30l215 -197q16 -16 16 -31q0 -14 -14 -28l-25 -29q-16 -16 -31 -16q-13 0 -28 12z" />
    <glyph glyph-name="Edieresis" unicode="&#xcb;" horiz-adv-x="1210" 
d="M381 1268v-475h514q59 0 59 -60v-43q0 -59 -59 -59h-514v-465h688q59 0 59 -60v-47q0 -59 -59 -59h-823q-60 0 -60 59v1315q0 60 60 60h803q59 0 59 -60v-47q0 -59 -59 -59h-668zM434 1874q46 0 79.5 -33.5t33.5 -77.5t-33.5 -77t-79.5 -33q-44 0 -77 33t-33 77t33 77.5
t77 33.5zM881 1874q44 0 77 -33.5t33 -77.5t-33 -77t-77 -33t-77.5 33t-33.5 77t33.5 77.5t77.5 33.5z" />
    <glyph glyph-name="Igrave" unicode="&#xcc;" horiz-adv-x="567" 
d="M381 1374v-1315q0 -59 -59 -59h-76q-60 0 -60 59v1315q0 60 60 60h76q59 0 59 -60zM393 1606l-22 -29q-16 -16 -29 -16q-12 0 -29 10l-258 186q-18 12 -18 31q0 15 12 27l43 51q16 16 31 16q14 0 29 -12l235 -209q16 -13 16 -29q0 -13 -10 -26z" />
    <glyph glyph-name="Iacute" unicode="&#xcd;" horiz-adv-x="567" 
d="M381 1374v-1315q0 -59 -59 -59h-76q-60 0 -60 59v1315q0 60 60 60h76q59 0 59 -60zM195 1579l-21 25q-12 15 -12 28q0 15 16 31l236 207q14 14 30 14t29 -16l47 -53q12 -12 12 -27q0 -19 -18 -31l-262 -186q-13 -10 -25 -10q-17 0 -32 18z" />
    <glyph glyph-name="Icircumflex" unicode="&#xce;" horiz-adv-x="567" 
d="M381 1374v-1315q0 -59 -59 -59h-76q-60 0 -60 59v1315q0 60 60 60h76q59 0 59 -60zM285 1769l-230 -190q-18 -12 -30 -12q-16 0 -29 16l-27 29q-14 14 -14 28q0 16 18 31l213 197q37 30 76 30h43q36 0 74 -30l215 -197q16 -16 16 -31q0 -14 -14 -28l-25 -29
q-16 -16 -32 -16q-15 0 -27 12z" />
    <glyph glyph-name="Idieresis" unicode="&#xcf;" horiz-adv-x="567" 
d="M381 1374v-1315q0 -59 -59 -59h-76q-60 0 -60 59v1315q0 60 60 60h76q59 0 59 -60zM59 1874q46 0 79.5 -33.5t33.5 -77.5t-33.5 -77t-79.5 -33q-44 0 -77 33t-33 77t33 77.5t77 33.5zM506 1874q44 0 77 -33.5t33 -77.5t-33 -77t-77 -33t-77.5 33t-33.5 77t33.5 77.5
t77.5 33.5z" />
    <glyph glyph-name="Eth" unicode="&#xd0;" horiz-adv-x="1667" 
d="M268 795v579q0 60 60 60h473q350 0 556 -195t206 -522t-206 -522t-556 -195h-473q-60 0 -60 59v590h-100q-53 0 -53 53v39q0 54 53 54h100zM463 649v-479h348q253 0 402 150t149 397t-149 397t-402 150h-348v-469h311q53 0 53 -54v-39q0 -53 -53 -53h-311z" />
    <glyph glyph-name="Ntilde" unicode="&#xd1;" horiz-adv-x="1550" 
d="M1169 293v1081q0 60 60 60h76q59 0 59 -60v-1315q0 -59 -59 -59h-101q-32 0 -48.5 8.5t-35.5 36.5l-739 1096v-1082q0 -59 -59 -59h-76q-60 0 -60 59v1315q0 60 60 60h100q32 0 48.5 -8.5t35.5 -36.5zM537 1597h-50q-41 0 -41 37q0 107 62 166q47 47 123 47
q31 0 62.5 -12.5t51.5 -25.5t50 -37q28 -21 39.5 -29t32.5 -17.5t38 -9.5q14 0 25 7t17 13.5t12 24t7 22.5l5 25q6 33 43 33h49q41 0 41 -37q0 -107 -64 -168q-48 -45 -120 -45q-32 0 -65 13t-50.5 25t-50.5 36q-26 19 -39.5 28t-33.5 18t-36 9q-23 0 -37.5 -16t-19 -32
t-8.5 -42q-5 -33 -43 -33z" />
    <glyph glyph-name="Ograve" unicode="&#xd2;" horiz-adv-x="1695" 
d="M848 1458q164 0 306.5 -56.5t242.5 -154.5t157.5 -235.5t57.5 -294.5t-57.5 -294.5t-157.5 -236t-242.5 -155t-306.5 -56.5q-163 0 -305.5 56.5t-243 155t-158 236t-57.5 294.5q0 209 98 378.5t273 266t393 96.5zM848 156q159 0 288 73.5t202 202t73 285.5t-73 285.5
t-202 202t-288 73.5t-288 -73.5t-202 -202t-73 -285.5t73 -285.5t202 -202t288 -73.5zM958 1606l-22 -29q-16 -16 -29 -16q-11 0 -28 10l-258 186q-19 13 -19 31q0 15 12 27l43 51q16 16 31 16q14 0 29 -12l235 -209q17 -14 17 -29q0 -11 -11 -26z" />
    <glyph glyph-name="Oacute" unicode="&#xd3;" horiz-adv-x="1695" 
d="M848 1458q164 0 306.5 -56.5t242.5 -154.5t157.5 -235.5t57.5 -294.5t-57.5 -294.5t-157.5 -236t-242.5 -155t-306.5 -56.5q-163 0 -305.5 56.5t-243 155t-158 236t-57.5 294.5q0 209 98 378.5t273 266t393 96.5zM848 156q159 0 288 73.5t202 202t73 285.5t-73 285.5
t-202 202t-288 73.5t-288 -73.5t-202 -202t-73 -285.5t73 -285.5t202 -202t288 -73.5zM760 1579l-21 25q-12 15 -12 28q0 15 16 31l236 207q14 14 29 14q14 0 30 -16l47 -53q13 -13 13 -27q0 -18 -19 -31l-262 -186q-13 -10 -26 -10q-16 0 -31 18z" />
    <glyph glyph-name="Ocircumflex" unicode="&#xd4;" horiz-adv-x="1695" 
d="M848 1458q164 0 306.5 -56.5t242.5 -154.5t157.5 -235.5t57.5 -294.5t-57.5 -294.5t-157.5 -236t-242.5 -155t-306.5 -56.5q-163 0 -305.5 56.5t-243 155t-158 236t-57.5 294.5q0 209 98 378.5t273 266t393 96.5zM848 156q159 0 288 73.5t202 202t73 285.5t-73 285.5
t-202 202t-288 73.5t-288 -73.5t-202 -202t-73 -285.5t73 -285.5t202 -202t288 -73.5zM850 1769l-229 -190q-15 -12 -29 -12q-15 0 -31 16l-26 29q-15 15 -15 28q0 15 19 31l213 197q37 30 75 30h43q36 0 74 -30l215 -197q17 -17 17 -31q0 -13 -15 -28l-24 -29
q-16 -16 -31 -16q-14 0 -29 12z" />
    <glyph glyph-name="Otilde" unicode="&#xd5;" horiz-adv-x="1695" 
d="M848 1458q164 0 306.5 -56.5t242.5 -154.5t157.5 -235.5t57.5 -294.5t-57.5 -294.5t-157.5 -236t-242.5 -155t-306.5 -56.5q-163 0 -305.5 56.5t-243 155t-158 236t-57.5 294.5q0 209 98 378.5t273 266t393 96.5zM848 156q159 0 288 73.5t202 202t73 285.5t-73 285.5
t-202 202t-288 73.5t-288 -73.5t-202 -202t-73 -285.5t73 -285.5t202 -202t288 -73.5zM610 1597h-49q-41 0 -41 37q0 107 62 166q47 47 123 47q31 0 62.5 -12.5t51 -25.5t49.5 -37q27 -20 39.5 -28.5t33.5 -18t38 -9.5q46 0 63 84q1 6 2 8q6 33 43 33h50q41 0 41 -37
q0 -107 -64 -168q-48 -45 -121 -45q-32 0 -65 13t-50.5 25t-50.5 36q-27 20 -39.5 28.5t-32.5 17.5t-36 9q-23 0 -37.5 -16t-19.5 -32.5t-9 -41.5q-5 -33 -43 -33z" />
    <glyph glyph-name="Odieresis" unicode="&#xd6;" horiz-adv-x="1695" 
d="M848 1458q164 0 306.5 -56.5t242.5 -154.5t157.5 -235.5t57.5 -294.5t-57.5 -294.5t-157.5 -236t-242.5 -155t-306.5 -56.5q-163 0 -305.5 56.5t-243 155t-158 236t-57.5 294.5q0 209 98 378.5t273 266t393 96.5zM848 156q159 0 288 73.5t202 202t73 285.5t-73 285.5
t-202 202t-288 73.5t-288 -73.5t-202 -202t-73 -285.5t73 -285.5t202 -202t288 -73.5zM625 1874q45 0 78.5 -33t33.5 -78q0 -44 -33 -77t-79 -33q-44 0 -77.5 33t-33.5 77t33.5 77.5t77.5 33.5zM1071 1874q44 0 77.5 -33.5t33.5 -77.5t-33.5 -77t-77.5 -33t-77 33t-33 77
t33 77.5t77 33.5z" />
    <glyph glyph-name="multiply" unicode="&#xd7;" 
d="M666 788l254 252q19 19 36 19q18 0 37 -19l27 -28q18 -18 18 -37t-18 -37l-254 -252l254 -252q18 -18 18 -37t-18 -37l-27 -28q-19 -19 -37 -19q-17 0 -36 19l-254 252l-252 -252q-19 -19 -37 -19t-37 19l-29 28q-18 18 -18 37t18 37l252 252l-252 252q-18 18 -18 37
t18 37l29 28q19 19 37 19t37 -19z" />
    <glyph glyph-name="Oslash" unicode="&#xd8;" horiz-adv-x="1716" 
d="M238 -59l137 192q-190 143 -254 381q-24 87 -27 203q0 209 98 378.5t273 266t393 96.5q134 -3 227 -28q82 -23 164 -68l97 137q15 21 30 29t41 8h39q13 0 21 -7t8 -18q0 -9 -6 -18l-136 -190q187 -152 252 -377q24 -92 27 -209q0 -157 -57.5 -294.5t-157.5 -236
t-242.5 -155t-306.5 -56.5q-161 7 -270 43q-47 16 -121 54l-96 -138q-15 -20 -30.5 -28t-41.5 -8h-39q-29 0 -29 24q0 8 7 19zM1231 1145l-653 -920q64 -33 122 -49q59 -16 158 -20q159 0 288 73.5t202 202t73 285.5q-7 170 -75 289q-47 80 -115 139zM485 289l654 919
q-63 32 -123 49q-64 17 -158 21q-159 0 -288 -73.5t-202 -202t-73 -285.5q6 -168 76 -289q48 -82 114 -139z" />
    <glyph glyph-name="Ugrave" unicode="&#xd9;" horiz-adv-x="1560" 
d="M360 1374v-811q0 -180 108 -293.5t312 -113.5t312 113.5t108 293.5v811q0 60 60 60h75q60 0 60 -60v-821q0 -126 -40.5 -231.5t-117 -182.5t-193.5 -120.5t-264 -43.5q-146 0 -263 43.5t-193.5 121t-117 183t-40.5 230.5v821q0 60 59 60h76q59 0 59 -60zM891 1606
l-23 -29q-16 -16 -28 -16t-29 10l-258 186q-18 12 -18 31q0 15 12 27l43 51q16 16 31 16q13 0 28 -12l236 -209q16 -13 16 -29q0 -13 -10 -26z" />
    <glyph glyph-name="Uacute" unicode="&#xda;" horiz-adv-x="1560" 
d="M360 1374v-811q0 -180 108 -293.5t312 -113.5t312 113.5t108 293.5v811q0 60 60 60h75q60 0 60 -60v-821q0 -126 -40.5 -231.5t-117 -182.5t-193.5 -120.5t-264 -43.5q-146 0 -263 43.5t-193.5 121t-117 183t-40.5 230.5v821q0 60 59 60h76q59 0 59 -60zM692 1579l-20 25
q-13 16 -13 28q0 14 17 31l235 207q14 14 29 14t31 -16l47 -53q12 -12 12 -27q0 -19 -18 -31l-262 -186q-13 -10 -27 -10q-16 0 -31 18z" />
    <glyph glyph-name="Ucircumflex" unicode="&#xdb;" horiz-adv-x="1560" 
d="M360 1374v-811q0 -180 108 -293.5t312 -113.5t312 113.5t108 293.5v811q0 60 60 60h75q60 0 60 -60v-821q0 -126 -40.5 -231.5t-117 -182.5t-193.5 -120.5t-264 -43.5q-146 0 -263 43.5t-193.5 121t-117 183t-40.5 230.5v821q0 60 59 60h76q59 0 59 -60zM782 1769
l-229 -190q-15 -12 -29 -12t-30 16l-27 29q-14 14 -14 28q0 16 18 31l213 197q38 30 76 30h43q37 0 74 -30l215 -197q16 -16 16 -31q0 -14 -14 -28l-25 -29q-16 -16 -31 -16q-13 0 -28 12z" />
    <glyph glyph-name="Udieresis" unicode="&#xdc;" horiz-adv-x="1560" 
d="M360 1374v-811q0 -180 108 -293.5t312 -113.5t312 113.5t108 293.5v811q0 60 60 60h75q60 0 60 -60v-821q0 -126 -40.5 -231.5t-117 -182.5t-193.5 -120.5t-264 -43.5q-146 0 -263 43.5t-193.5 121t-117 183t-40.5 230.5v821q0 60 59 60h76q59 0 59 -60zM557 1874
q46 0 79.5 -33.5t33.5 -77.5t-33.5 -77t-79.5 -33q-44 0 -77.5 33t-33.5 77t33.5 77.5t77.5 33.5zM1004 1874q44 0 77 -33.5t33 -77.5t-33 -77t-77 -33t-77.5 33t-33.5 77t33.5 77.5t77.5 33.5z" />
    <glyph glyph-name="Yacute" unicode="&#xdd;" horiz-adv-x="1361" 
d="M682 684l397 705q15 26 31 35.5t47 9.5h96q18 0 28.5 -9.5t10.5 -23.5q0 -11 -6 -23l-508 -876v-443q0 -59 -59 -59h-76q-59 0 -59 59v443l-510 876q-6 12 -6 23q0 14 10 23.5t28 9.5h97q31 0 47 -9.5t31 -35.5zM592 1579l-21 25q-12 15 -12 28q0 15 16 31l236 207
q14 14 31 14q15 0 28 -16l48 -53q12 -12 12 -27q0 -18 -19 -31l-262 -186q-13 -10 -24 -10q-18 0 -33 18z" />
    <glyph glyph-name="Thorn" unicode="&#xde;" horiz-adv-x="1273" 
d="M322 0h-76q-60 0 -60 59v1315q0 60 60 60h76q59 0 59 -60v-125h266q84 0 160 -13.5t149.5 -48t126 -87.5t85 -137.5t32.5 -192.5t-32.5 -192t-85 -136.5t-126.5 -86.5t-150 -47t-161 -13h-264v-236q0 -59 -59 -59zM381 453h287q69 0 129 18t108.5 54.5t76.5 99t28 145.5
t-28 145t-77 98t-108 53t-129 17h-287v-630z" />
    <glyph glyph-name="germandbls" unicode="&#xdf;" horiz-adv-x="1236" 
d="M166 53v1057q0 204 130 326.5t337 122.5q191 0 313.5 -106.5t122.5 -278.5q0 -120 -54.5 -208.5t-154.5 -136.5q122 -38 208.5 -149t86.5 -260q0 -204 -131.5 -324.5t-337.5 -120.5q-24 0 -50 1.5t-66.5 7t-70.5 15.5t-52.5 29.5t-22.5 45.5q0 12 2 20l10 43
q3 14 13 23.5t22 9.5q6 0 18 -4q85 -43 185 -43q130 0 209.5 84.5t79.5 232.5q0 143 -86.5 228.5t-235.5 85.5h-10q-47 0 -47 53v39q0 53 47 53h10q111 0 180.5 69t69.5 187q0 116 -68.5 188t-189.5 72q-128 0 -203.5 -81t-75.5 -224v-1057q0 -53 -53 -53h-82q-53 0 -53 53z
" />
    <glyph glyph-name="agrave" unicode="&#xe0;" horiz-adv-x="1198" 
d="M889 53v74q-112 -152 -365 -152q-176 0 -289.5 96t-113.5 253q0 159 118 253.5t298 94.5q98 0 167 -11.5t164 -39.5l-2 34q-6 115 -75.5 182.5t-202.5 67.5q-157 3 -301 -69q-12 -9 -25 -9q-24 0 -39 31l-14 33q-8 13 -8 29q0 22 24 38q139 91 363 91q213 0 337 -113
t124 -295v-588q0 -53 -54 -53h-53q-53 0 -53 53zM868 358v134q-75 26 -137.5 35.5t-148.5 9.5q-119 0 -199 -58.5t-80 -154.5q0 -93 76 -151t186 -58q133 0 218 65.5t85 177.5zM694 1227l-22 -29q-16 -16 -29 -16q-12 0 -29 10l-258 186q-18 12 -18 31q0 15 12 27l43 51
q16 16 31 16q14 0 29 -12l235 -209q17 -14 17 -29q0 -11 -11 -26z" />
    <glyph glyph-name="aacute" unicode="&#xe1;" horiz-adv-x="1198" 
d="M889 53v74q-112 -152 -365 -152q-176 0 -289.5 96t-113.5 253q0 159 118 253.5t298 94.5q98 0 167 -11.5t164 -39.5l-2 34q-6 115 -75.5 182.5t-202.5 67.5q-157 3 -301 -69q-12 -9 -25 -9q-24 0 -39 31l-14 33q-8 13 -8 29q0 22 24 38q139 91 363 91q213 0 337 -113
t124 -295v-588q0 -53 -54 -53h-53q-53 0 -53 53zM868 358v134q-75 26 -137.5 35.5t-148.5 9.5q-119 0 -199 -58.5t-80 -154.5q0 -93 76 -151t186 -58q133 0 218 65.5t85 177.5zM496 1200l-21 25q-12 15 -12 28q0 15 16 31l236 207q14 14 28 14q15 0 31 -16l47 -53
q13 -13 13 -27q0 -18 -19 -31l-262 -186q-13 -10 -27 -10q-15 0 -30 18z" />
    <glyph glyph-name="acircumflex" unicode="&#xe2;" horiz-adv-x="1198" 
d="M889 53v74q-112 -152 -365 -152q-176 0 -289.5 96t-113.5 253q0 159 118 253.5t298 94.5q98 0 167 -11.5t164 -39.5l-2 34q-6 115 -75.5 182.5t-202.5 67.5q-157 3 -301 -69q-12 -9 -25 -9q-24 0 -39 31l-14 33q-8 13 -8 29q0 22 24 38q139 91 363 91q213 0 337 -113
t124 -295v-588q0 -53 -54 -53h-53q-53 0 -53 53zM868 358v134q-75 26 -137.5 35.5t-148.5 9.5q-119 0 -199 -58.5t-80 -154.5q0 -93 76 -151t186 -58q133 0 218 65.5t85 177.5zM586 1391l-230 -191q-15 -12 -28 -12q-15 0 -31 16l-27 29q-14 14 -14 29t18 30l213 197
q39 31 76 31h43q23 0 38 -7t36 -24l215 -197q16 -16 16 -30q0 -15 -14 -29l-25 -29q-16 -16 -30 -16t-29 12z" />
    <glyph glyph-name="atilde" unicode="&#xe3;" horiz-adv-x="1198" 
d="M889 53v74q-112 -152 -365 -152q-176 0 -289.5 96t-113.5 253q0 159 118 253.5t298 94.5q98 0 167 -11.5t164 -39.5l-2 34q-6 115 -75.5 182.5t-202.5 67.5q-157 3 -301 -69q-12 -9 -25 -9q-24 0 -39 31l-14 33q-8 13 -8 29q0 22 24 38q139 91 363 91q213 0 337 -113
t124 -295v-588q0 -53 -54 -53h-53q-53 0 -53 53zM868 358v134q-75 26 -137.5 35.5t-148.5 9.5q-119 0 -199 -58.5t-80 -154.5q0 -93 76 -151t186 -58q133 0 218 65.5t85 177.5zM346 1219h-49q-41 0 -41 36q0 108 61 166q47 47 123 47q31 0 62.5 -12.5t51.5 -25.5t50 -37
q27 -20 39.5 -28.5t33.5 -18t38 -9.5q46 0 63 85q1 5 2 8q6 32 43 32h49q41 0 41 -37q0 -108 -63 -168q-48 -45 -121 -45q-32 0 -65 13t-50.5 25t-50.5 36q-27 20 -39.5 28.5t-32.5 17.5t-36 9q-23 0 -37.5 -16t-19.5 -32.5t-9 -41.5q-5 -32 -43 -32z" />
    <glyph glyph-name="adieresis" unicode="&#xe4;" horiz-adv-x="1198" 
d="M889 53v74q-112 -152 -365 -152q-176 0 -289.5 96t-113.5 253q0 159 118 253.5t298 94.5q98 0 167 -11.5t164 -39.5l-2 34q-6 115 -75.5 182.5t-202.5 67.5q-157 3 -301 -69q-12 -9 -25 -9q-24 0 -39 31l-14 33q-8 13 -8 29q0 22 24 38q139 91 363 91q213 0 337 -113
t124 -295v-588q0 -53 -54 -53h-53q-53 0 -53 53zM868 358v134q-75 26 -137.5 35.5t-148.5 9.5q-119 0 -199 -58.5t-80 -154.5q0 -93 76 -151t186 -58q133 0 218 65.5t85 177.5zM362 1495q46 0 79.5 -33.5t33.5 -77.5t-33.5 -77t-79.5 -33q-44 0 -77 33t-33 77t33 77.5
t77 33.5zM809 1495q44 0 77.5 -33.5t33.5 -77.5t-33.5 -77t-77.5 -33t-77.5 33t-33.5 77t33.5 77.5t77.5 33.5z" />
    <glyph glyph-name="aring" unicode="&#xe5;" horiz-adv-x="1198" 
d="M889 53v74q-112 -152 -365 -152q-176 0 -289.5 96t-113.5 253q0 159 118 253.5t298 94.5q98 0 167 -11.5t164 -39.5l-2 34q-6 115 -75.5 182.5t-202.5 67.5q-157 3 -301 -69q-12 -9 -25 -9q-24 0 -39 31l-14 33q-8 13 -8 29q0 22 24 38q139 91 363 91q213 0 337 -113
t124 -295v-588q0 -53 -54 -53h-53q-53 0 -53 53zM868 358v134q-75 26 -137.5 35.5t-148.5 9.5q-119 0 -199 -58.5t-80 -154.5q0 -93 76 -151t186 -58q133 0 218 65.5t85 177.5zM584 1491q82 0 133 -49.5t51 -124.5q0 -72 -54 -124t-130 -52q-75 0 -129 52t-54 124
q0 75 50.5 124.5t132.5 49.5zM475 1317q0 -44 32.5 -76.5t76.5 -32.5t77 32.5t33 76.5q0 45 -30.5 75.5t-79.5 30.5q-47 0 -78 -30.5t-31 -75.5z" />
    <glyph glyph-name="ae" unicode="&#xe6;" horiz-adv-x="1970" 
d="M1843 449h-790q10 -145 108 -228q99 -86 240 -86q86 -2 167.5 25.5t137.5 83.5q12 12 29 12q16 0 37 -14l40 -33q25 -21 25 -41q0 -15 -12 -27q-73 -79 -189 -121q-110 -43 -239 -43q-163 0 -285 76q-81 50 -147 150q-54 -99 -131 -152q-117 -76 -310 -76
q-176 0 -289.5 96t-113.5 253q0 159 117.5 253.5t298.5 94.5q98 0 166 -11.5t163 -39.5v34q0 112 -72 180t-206 68q-155 3 -299 -69q-17 -7 -27 -7q-24 0 -39 29l-14 35q-8 13 -8 29q0 22 24 38q142 93 363 89q149 -3 243 -58q100 -62 144 -166q58 91 137 144q124 82 285 82
q145 0 260 -71.5t177 -193t62 -270.5v-14q0 -51 -53 -51zM1055 578h655q-7 145 -98 233t-217 88q-140 0 -232 -86q-95 -88 -108 -235zM866 352v140q-74 26 -136 35.5t-148 9.5q-120 0 -199.5 -58.5t-79.5 -154.5q0 -93 75.5 -151t186.5 -58q130 0 215.5 66t85.5 171z" />
    <glyph glyph-name="ccedilla" unicode="&#xe7;" horiz-adv-x="1132" 
d="M518 -154l35 134q-89 9 -173 48.5t-147 102.5q-95 95 -131 229q-16 57 -20 152q0 233 155 385t392 152q110 0 219 -41q112 -43 184 -121q15 -15 15 -33q0 -21 -21 -39l-43 -39q-19 -16 -37 -16q-21 0 -45 24q-9 9 -33 27q-106 74 -239 74q-156 0 -258.5 -107t-102.5 -266
t102.5 -266t258.5 -107q102 0 184 39q44 20 105 74q15 12 30 12q19 0 35 -16l43 -39q21 -18 21 -39q0 -18 -15 -33q-45 -51 -108 -86q-112 -62 -242 -74l-16 -73q90 -8 140 -50.5t50 -117.5q0 -83 -67.5 -129.5t-178.5 -46.5q-89 0 -170 34q-28 12 -28 37q0 9 6 21l10 20
q11 25 35 25q8 0 14 -2q73 -27 133 -27q115 0 115 68q0 67 -119 67h-55q-35 0 -35 31q0 8 2 12z" />
    <glyph glyph-name="egrave" unicode="&#xe8;" horiz-adv-x="1196" 
d="M1061 449h-791q10 -148 107 -232q93 -84 241 -84q131 0 230 55q14 7 49 37q39 31 55 31q18 0 35 -14l43 -35q25 -16 25 -37q0 -13 -13 -29q-70 -78 -187.5 -122t-240.5 -44q-230 0 -381 152t-151 385t151 385t381 152q145 0 260 -71.5t177.5 -193t62.5 -270.5v-14
q0 -51 -53 -51zM272 578h656q-7 144 -99 233q-91 88 -215 88q-141 0 -233 -86q-96 -86 -109 -235zM709 1227l-23 -29q-16 -16 -29 -16q-11 0 -28 10l-258 186q-19 13 -19 31q0 14 13 27l43 51q16 16 30 16t29 -12l235 -209q17 -14 17 -29q0 -13 -10 -26z" />
    <glyph glyph-name="eacute" unicode="&#xe9;" horiz-adv-x="1196" 
d="M1061 449h-791q10 -148 107 -232q93 -84 241 -84q131 0 230 55q14 7 49 37q39 31 55 31q18 0 35 -14l43 -35q25 -16 25 -37q0 -13 -13 -29q-70 -78 -187.5 -122t-240.5 -44q-230 0 -381 152t-151 385t151 385t381 152q145 0 260 -71.5t177.5 -193t62.5 -270.5v-14
q0 -51 -53 -51zM272 578h656q-7 144 -99 233q-91 88 -215 88q-141 0 -233 -86q-96 -86 -109 -235zM510 1200l-21 25q-12 15 -12 28q0 14 17 31l235 207q14 14 29 14q14 0 30 -16l48 -53q12 -12 12 -27q0 -18 -19 -31l-262 -186q-13 -10 -26 -10q-16 0 -31 18z" />
    <glyph glyph-name="ecircumflex" unicode="&#xea;" horiz-adv-x="1196" 
d="M1061 449h-791q10 -148 107 -232q93 -84 241 -84q131 0 230 55q14 7 49 37q39 31 55 31q18 0 35 -14l43 -35q25 -16 25 -37q0 -13 -13 -29q-70 -78 -187.5 -122t-240.5 -44q-230 0 -381 152t-151 385t151 385t381 152q145 0 260 -71.5t177.5 -193t62.5 -270.5v-14
q0 -51 -53 -51zM272 578h656q-7 144 -99 233q-91 88 -215 88q-141 0 -233 -86q-96 -86 -109 -235zM600 1391l-229 -191q-15 -12 -29 -12q-15 0 -31 16l-26 29q-15 15 -15 29t19 30l213 197q39 31 76 31h43q23 0 37 -7t36 -24l215 -197q17 -17 17 -30q0 -14 -15 -29l-24 -29
q-16 -16 -31 -16q-14 0 -29 12z" />
    <glyph glyph-name="edieresis" unicode="&#xeb;" horiz-adv-x="1196" 
d="M1061 449h-791q10 -148 107 -232q93 -84 241 -84q131 0 230 55q14 7 49 37q39 31 55 31q18 0 35 -14l43 -35q25 -16 25 -37q0 -13 -13 -29q-70 -78 -187.5 -122t-240.5 -44q-230 0 -381 152t-151 385t151 385t381 152q145 0 260 -71.5t177.5 -193t62.5 -270.5v-14
q0 -51 -53 -51zM272 578h656q-7 144 -99 233q-91 88 -215 88q-141 0 -233 -86q-96 -86 -109 -235zM375 1495q45 0 78.5 -33.5t33.5 -77.5t-33 -77t-79 -33q-44 0 -77.5 33t-33.5 77t33.5 77.5t77.5 33.5zM821 1495q44 0 77.5 -33.5t33.5 -77.5t-33.5 -77t-77.5 -33t-77 33
t-33 77t33 77.5t77 33.5z" />
    <glyph glyph-name="igrave" unicode="&#xec;" horiz-adv-x="520" 
d="M219 1024h82q53 0 53 -53v-918q0 -53 -53 -53h-82q-53 0 -53 53v918q0 53 53 53zM371 1227l-23 -29q-16 -16 -29 -16q-11 0 -28 10l-258 186q-19 13 -19 31q0 14 13 27l43 51q16 16 30 16t29 -12l236 -209q16 -13 16 -29q0 -13 -10 -26z" />
    <glyph glyph-name="iacute" unicode="&#xed;" horiz-adv-x="520" 
d="M219 1024h82q53 0 53 -53v-918q0 -53 -53 -53h-82q-53 0 -53 53v918q0 53 53 53zM172 1200l-20 25q-13 16 -13 28q0 14 17 31l235 207q14 14 31 14q16 0 29 -16l47 -53q12 -12 12 -27q0 -19 -18 -31l-263 -186q-13 -10 -24 -10q-18 0 -33 18z" />
    <glyph glyph-name="icircumflex" unicode="&#xee;" horiz-adv-x="520" 
d="M219 1024h82q53 0 53 -53v-918q0 -53 -53 -53h-82q-53 0 -53 53v918q0 53 53 53zM260 1391l-229 -191q-18 -12 -31 -12q-16 0 -29 16l-26 29q-15 15 -15 29t19 30l213 197q39 31 76 31h43q23 0 37 -7t36 -24l215 -197q17 -17 17 -30q0 -14 -15 -29l-24 -29
q-16 -16 -33 -16q-15 0 -27 12z" />
    <glyph glyph-name="idieresis" unicode="&#xef;" horiz-adv-x="520" 
d="M219 1024h82q53 0 53 -53v-918q0 -53 -53 -53h-82q-53 0 -53 53v918q0 53 53 53zM37 1495q46 0 79.5 -33.5t33.5 -77.5t-33.5 -77t-79.5 -33q-44 0 -77.5 33t-33.5 77t33.5 77.5t77.5 33.5zM483 1495q44 0 77.5 -33.5t33.5 -77.5t-33.5 -77t-77.5 -33t-77 33t-33 77
t33 77.5t77 33.5z" />
    <glyph glyph-name="eth" unicode="&#xf0;" horiz-adv-x="1191" 
d="M784 1237l2 -2q324 -262 324 -754q0 -144 -69 -260t-186.5 -180t-260.5 -64q-141 0 -258 63.5t-185.5 176.5t-68.5 252q0 135 68 247.5t185.5 177t256.5 64.5q98 0 166 -41t129 -116q-38 191 -199 327q-30 24 -33 27q-18 12 -20 14l-160 -73q-15 -6 -26 -6q-27 0 -41 26
l-11 21q-8 16 -8 24q0 28 33 41l88 41q-61 30 -100 43q-40 13 -74 21q-6 2 -18.5 5t-18.5 5q-38 8 -31 57l6 31q3 23 12.5 33t30.5 10q46 0 162 -41q107 -37 191 -90l182 84q15 6 27 6q26 0 41 -27l12 -20q8 -16 8 -25q0 -28 -33 -41zM258 469q0 -141 99 -244.5t237 -103.5
q135 0 236.5 103.5t101.5 242.5q0 141 -101.5 244.5t-236.5 103.5q-138 0 -237 -102.5t-99 -243.5z" />
    <glyph glyph-name="ntilde" unicode="&#xf1;" horiz-adv-x="1255" 
d="M334 971v-113q51 90 144 140.5t222 50.5q188 0 297 -119t109 -316v-561q0 -53 -53 -53h-82q-53 0 -53 53v531q0 139 -70.5 220t-200.5 81q-141 0 -217 -84t-76 -217v-531q0 -53 -53 -53h-82q-53 0 -53 53v918q0 53 53 53h62q53 0 53 -53zM397 1219h-49q-41 0 -41 36
q0 107 62 166q47 47 123 47q31 0 62.5 -12.5t51 -25.5t49.5 -37q27 -20 39.5 -28.5t33.5 -18t38 -9.5q46 0 63 85q1 5 2 8q6 32 43 32h50q41 0 41 -37q0 -107 -64 -168q-48 -45 -121 -45q-32 0 -65 13t-50.5 25t-50.5 36q-27 20 -39.5 28.5t-32.5 17.5t-36 9
q-23 0 -37.5 -16t-19.5 -32.5t-9 -41.5q-5 -32 -43 -32z" />
    <glyph glyph-name="ograve" unicode="&#xf2;" horiz-adv-x="1277" 
d="M639 1049q242 0 399.5 -152t157.5 -385t-157.5 -385t-399.5 -152t-399.5 152t-157.5 385t157.5 385t399.5 152zM639 135q161 0 266 107.5t105 269.5t-105 269.5t-266 107.5t-266 -107.5t-105 -269.5t105 -269.5t266 -107.5zM750 1227l-23 -29q-16 -16 -29 -16
q-11 0 -28 10l-258 186q-19 13 -19 31q0 14 13 27l43 51q16 16 30 16t29 -12l235 -209q17 -14 17 -29q0 -13 -10 -26z" />
    <glyph glyph-name="oacute" unicode="&#xf3;" horiz-adv-x="1277" 
d="M639 1049q242 0 399.5 -152t157.5 -385t-157.5 -385t-399.5 -152t-399.5 152t-157.5 385t157.5 385t399.5 152zM639 135q161 0 266 107.5t105 269.5t-105 269.5t-266 107.5t-266 -107.5t-105 -269.5t105 -269.5t266 -107.5zM551 1200l-21 25q-12 15 -12 28q0 14 17 31
l235 207q14 14 29 14q14 0 30 -16l48 -53q12 -12 12 -27q0 -18 -19 -31l-262 -186q-13 -10 -26 -10q-16 0 -31 18z" />
    <glyph glyph-name="ocircumflex" unicode="&#xf4;" horiz-adv-x="1277" 
d="M639 1049q242 0 399.5 -152t157.5 -385t-157.5 -385t-399.5 -152t-399.5 152t-157.5 385t157.5 385t399.5 152zM639 135q161 0 266 107.5t105 269.5t-105 269.5t-266 107.5t-266 -107.5t-105 -269.5t105 -269.5t266 -107.5zM641 1391l-229 -191q-15 -12 -29 -12
q-15 0 -31 16l-26 29q-15 15 -15 29t19 30l213 197q39 31 75 31h44q23 0 37 -7t36 -24l215 -197q17 -17 17 -30q0 -14 -15 -29l-24 -29q-16 -16 -31 -16q-14 0 -29 12z" />
    <glyph glyph-name="otilde" unicode="&#xf5;" horiz-adv-x="1277" 
d="M639 1049q242 0 399.5 -152t157.5 -385t-157.5 -385t-399.5 -152t-399.5 152t-157.5 385t157.5 385t399.5 152zM639 135q161 0 266 107.5t105 269.5t-105 269.5t-266 107.5t-266 -107.5t-105 -269.5t105 -269.5t266 -107.5zM401 1219h-49q-41 0 -41 36q0 107 62 166
q47 47 123 47q31 0 62.5 -12.5t51 -25.5t49.5 -37q27 -20 39.5 -28.5t33.5 -18t38 -9.5q21 0 35.5 15.5t19.5 31.5t10 40q1 4 1 6q6 32 43 32h49q41 0 41 -37q0 -107 -64 -168q-48 -45 -121 -45q-32 0 -65 13t-50.5 25t-50.5 36q-27 20 -39.5 28.5t-32.5 17.5t-36 9
q-23 0 -37.5 -16t-19.5 -32.5t-9 -41.5q-5 -32 -43 -32z" />
    <glyph glyph-name="odieresis" unicode="&#xf6;" horiz-adv-x="1277" 
d="M639 1049q242 0 399.5 -152t157.5 -385t-157.5 -385t-399.5 -152t-399.5 152t-157.5 385t157.5 385t399.5 152zM639 135q161 0 266 107.5t105 269.5t-105 269.5t-266 107.5t-266 -107.5t-105 -269.5t105 -269.5t266 -107.5zM416 1495q46 0 79 -33.5t33 -77.5t-33 -77
t-79 -33q-44 0 -77.5 33t-33.5 77t33.5 77.5t77.5 33.5zM862 1495q44 0 77.5 -33.5t33.5 -77.5t-33.5 -77t-77.5 -33t-77 33t-33 77t33 77.5t77 33.5z" />
    <glyph glyph-name="divide" unicode="&#xf7;" 
d="M780 305q0 -47 -34 -81t-80 -34t-80.5 34t-34.5 81q0 50 31.5 82.5t83.5 32.5t83 -32.5t31 -82.5zM780 1071q0 -47 -34 -81t-80 -34t-80.5 34.5t-34.5 80.5q0 48 31.5 79t83.5 34q52 -1 83 -33t31 -80zM240 758h852q53 0 53 -53v-37q0 -54 -53 -54h-852q-54 0 -54 54v37
q0 53 54 53z" />
    <glyph glyph-name="oslash" unicode="&#xf8;" horiz-adv-x="1277" 
d="M139 -66l127 168q-100 86 -147 211q-35 92 -35 199q-1 153 70 276t198.5 191.5t286.5 67.5q154 0 285 -70l88 119q21 30 61 30h47q25 0 25 -20q0 -7 -6 -16l-127 -168q100 -86 147 -211q35 -92 35 -199q1 -233 -156 -384t-399 -148q-159 0 -285 67l-88 -119
q-21 -30 -61 -30h-47q-25 0 -25 20q0 7 6 16zM377 252l442 586q-77 51 -180 51q-160 0 -265.5 -108.5t-105.5 -268.5q0 -157 109 -260zM901 772l-442 -586q77 -51 180 -51q160 0 265.5 108.5t105.5 268.5q0 157 -109 260z" />
    <glyph glyph-name="ugrave" unicode="&#xf9;" horiz-adv-x="1234" 
d="M901 53v113q-48 -91 -138.5 -141t-217.5 -50q-184 0 -289.5 119t-105.5 316v561q0 53 53 53h82q53 0 53 -53v-531q0 -139 67.5 -220t192.5 -81q136 0 209.5 84t73.5 217v531q0 53 53 53h82q53 0 53 -53v-918q0 -53 -53 -53h-62q-53 0 -53 53zM719 1227l-23 -29
q-16 -16 -28 -16t-29 10l-258 186q-19 13 -19 31q0 14 13 27l43 51q16 16 31 16q13 0 28 -12l236 -209q16 -13 16 -29q0 -13 -10 -26z" />
    <glyph glyph-name="uacute" unicode="&#xfa;" horiz-adv-x="1234" 
d="M901 53v113q-48 -91 -138.5 -141t-217.5 -50q-184 0 -289.5 119t-105.5 316v561q0 53 53 53h82q53 0 53 -53v-531q0 -139 67.5 -220t192.5 -81q136 0 209.5 84t73.5 217v531q0 53 53 53h82q53 0 53 -53v-918q0 -53 -53 -53h-62q-53 0 -53 53zM520 1200l-20 25
q-13 16 -13 28q0 14 17 31l235 207q14 14 29 14t31 -16l47 -53q12 -12 12 -27q0 -19 -18 -31l-262 -186q-13 -10 -27 -10q-16 0 -31 18z" />
    <glyph glyph-name="ucircumflex" unicode="&#xfb;" horiz-adv-x="1234" 
d="M901 53v113q-48 -91 -138.5 -141t-217.5 -50q-184 0 -289.5 119t-105.5 316v561q0 53 53 53h82q53 0 53 -53v-531q0 -139 67.5 -220t192.5 -81q136 0 209.5 84t73.5 217v531q0 53 53 53h82q53 0 53 -53v-918q0 -53 -53 -53h-62q-53 0 -53 53zM610 1391l-229 -191
q-15 -12 -29 -12t-30 16l-27 29q-14 14 -14 29t18 30l213 197q39 31 76 31h43q23 0 38 -7t36 -24l215 -197q16 -16 16 -30q0 -15 -14 -29l-25 -29q-16 -16 -31 -16q-13 0 -28 12z" />
    <glyph glyph-name="udieresis" unicode="&#xfc;" horiz-adv-x="1234" 
d="M901 53v113q-48 -91 -138.5 -141t-217.5 -50q-184 0 -289.5 119t-105.5 316v561q0 53 53 53h82q53 0 53 -53v-531q0 -139 67.5 -220t192.5 -81q136 0 209.5 84t73.5 217v531q0 53 53 53h82q53 0 53 -53v-918q0 -53 -53 -53h-62q-53 0 -53 53zM387 1495q46 0 79.5 -33.5
t33.5 -77.5t-33.5 -77t-79.5 -33q-44 0 -77.5 33t-33.5 77t33.5 77.5t77.5 33.5zM834 1495q44 0 77 -33.5t33 -77.5t-33 -77t-77 -33t-77.5 33t-33.5 77t33.5 77.5t77.5 33.5z" />
    <glyph glyph-name="yacute" unicode="&#xfd;" horiz-adv-x="1146" 
d="M573 190l326 793q9 23 23 32t39 9h98q17 0 27 -8.5t10 -22.5q0 -8 -4 -20l-510 -1172q-57 -132 -122 -183.5t-167 -51.5q-96 0 -156 35q-22 14 -22 39q0 13 6 28l22 49q11 29 37 29q7 0 15 -4q43 -18 90 -18t76 22.5t55 79.5l78 174h-17l-422 973q-4 12 -4 20
q0 14 10 22.5t27 8.5h98q25 0 39.5 -9t24.5 -32zM485 1200l-20 25q-12 15 -12 28q0 15 16 31l236 207q14 14 30 14t29 -16l47 -53q12 -12 12 -27q0 -19 -18 -31l-262 -186q-13 -10 -25 -10q-18 0 -33 18z" />
    <glyph glyph-name="thorn" unicode="&#xfe;" horiz-adv-x="1312" 
d="M166 -356v1798q0 46 43 57l84 23q6 2 16 2q37 0 37 -43v-607q35 46 94 91q115 81 283 84q226 0 367 -150t141 -387t-141 -387t-367 -150q-116 0 -215.5 50.5t-161.5 140.5v-522q0 -54 -53 -54h-74q-53 0 -53 54zM690 139q153 0 253.5 106.5t100.5 266.5t-100.5 266.5
t-253.5 106.5t-251.5 -106t-98.5 -267t98.5 -267t251.5 -106z" />
    <glyph glyph-name="ydieresis" unicode="&#xff;" horiz-adv-x="1146" 
d="M573 190l326 793q9 23 23 32t39 9h98q17 0 27 -8.5t10 -22.5q0 -8 -4 -20l-510 -1172q-57 -132 -122 -183.5t-167 -51.5q-96 0 -156 35q-22 14 -22 39q0 13 6 28l22 49q11 29 37 29q7 0 15 -4q43 -18 90 -18t76 22.5t55 79.5l78 174h-17l-422 973q-4 12 -4 20
q0 14 10 22.5t27 8.5h98q25 0 39.5 -9t24.5 -32zM350 1495q46 0 79.5 -33.5t33.5 -77.5t-33.5 -77t-79.5 -33q-44 0 -77 33t-33 77t33 77.5t77 33.5zM797 1495q44 0 77 -33.5t33 -77.5t-33 -77t-77 -33t-77.5 33t-33.5 77t33.5 77.5t77.5 33.5z" />
    <glyph glyph-name="Amacron" unicode="&#x100;" horiz-adv-x="1462" 
d="M367 313l-109 -266q-10 -27 -25 -37t-45 -10h-92q-45 0 -45 37q0 10 6 22l553 1327q12 28 27.5 38t44.5 10h100q29 0 44.5 -10t25.5 -38l553 -1327q4 -16 4 -22q0 -37 -43 -37h-92q-30 0 -45 10t-25 37l-106 266h-731zM1032 483l-301 740l-301 -740h602zM461 1784h540
q43 0 43 -43v-51q0 -43 -43 -43h-540q-43 0 -43 43v51q0 43 43 43z" />
    <glyph glyph-name="amacron" unicode="&#x101;" horiz-adv-x="1198" 
d="M889 53v74q-112 -152 -365 -152q-176 0 -289.5 96t-113.5 253q0 159 118 253.5t298 94.5q98 0 167 -11.5t164 -39.5l-2 34q-6 115 -75.5 182.5t-202.5 67.5q-157 3 -301 -69q-12 -9 -25 -9q-24 0 -39 31l-14 33q-8 13 -8 29q0 22 24 38q139 91 363 91q213 0 337 -113
t124 -295v-588q0 -53 -54 -53h-53q-53 0 -53 53zM868 358v134q-75 26 -137.5 35.5t-148.5 9.5q-119 0 -199 -58.5t-80 -154.5q0 -93 76 -151t186 -58q133 0 218 65.5t85 177.5zM315 1405h541q43 0 43 -43v-51q0 -43 -43 -43h-541q-43 0 -43 43v51q0 43 43 43z" />
    <glyph glyph-name="Abreve" unicode="&#x102;" horiz-adv-x="1462" 
d="M367 313l-109 -266q-10 -27 -25 -37t-45 -10h-92q-45 0 -45 37q0 10 6 22l553 1327q12 28 27.5 38t44.5 10h100q29 0 44.5 -10t25.5 -38l553 -1327q4 -16 4 -22q0 -37 -43 -37h-92q-30 0 -45 10t-25 37l-106 266h-731zM1032 483l-301 740l-301 -740h602zM471 1862h53
q37 0 43 -33q8 -72 50 -116t114 -44t114 44t50 116q6 33 43 33h53q41 0 41 -37q0 -105 -78 -183q-81 -81 -223 -81t-223 81q-78 78 -78 183q0 37 41 37z" />
    <glyph glyph-name="abreve" unicode="&#x103;" horiz-adv-x="1198" 
d="M889 53v74q-112 -152 -365 -152q-176 0 -289.5 96t-113.5 253q0 159 118 253.5t298 94.5q98 0 167 -11.5t164 -39.5l-2 34q-6 115 -75.5 182.5t-202.5 67.5q-157 3 -301 -69q-12 -9 -25 -9q-24 0 -39 31l-14 33q-8 13 -8 29q0 22 24 38q139 91 363 91q213 0 337 -113
t124 -295v-588q0 -53 -54 -53h-53q-53 0 -53 53zM868 358v134q-75 26 -137.5 35.5t-148.5 9.5q-119 0 -199 -58.5t-80 -154.5q0 -93 76 -151t186 -58q133 0 218 65.5t85 177.5zM326 1483h53q37 0 43 -33q8 -72 50 -116t114 -44t114 44t50 116q6 33 43 33h53q41 0 41 -37
q0 -104 -78 -182q-82 -82 -223 -82q-142 0 -224 82q-77 77 -77 182q0 37 41 37z" />
    <glyph glyph-name="Aogonek" unicode="&#x104;" horiz-adv-x="1462" 
d="M1280 0h-6q-30 0 -45 10t-25 37l-106 266h-731l-109 -266q-10 -27 -25 -37t-45 -10h-92q-45 0 -45 37q0 10 6 22l553 1327q12 28 27.5 38t44.5 10h100q29 0 44.5 -10t25.5 -38l557 -1335q6 -15 6 -31q0 -26 -29 -45q-46 -28 -75.5 -51t-55.5 -63.5t-26 -85.5
q0 -107 135 -107q17 0 31 2q8 2 24 2q26 0 33 -30l4 -29q6 -43 -33 -49q-20 -4 -63 -4q-128 0 -194 55t-66 156q3 74 54 133.5t126 95.5zM1032 483l-301 740l-301 -740h602z" />
    <glyph glyph-name="aogonek" unicode="&#x105;" horiz-adv-x="1198" 
d="M1071 -358l4 -29q6 -43 -33 -49q-20 -4 -63 -4q-128 0 -194 55t-66 156q3 79 58 139t136 96q-24 13 -24 47v74q-112 -152 -365 -152q-176 0 -289.5 96t-113.5 253q0 159 118 253.5t298 94.5q98 0 167 -11.5t164 -39.5l-2 34q-6 115 -75.5 182.5t-202.5 67.5
q-157 3 -301 -69q-18 -9 -25 -9q-24 0 -39 31l-14 33q-8 20 -8 29q0 20 24 38q139 91 363 91q213 0 337 -113t124 -295v-596q0 -45 -27 -61q-89 -52 -125 -90q-49 -56 -49 -119q0 -107 135 -107q17 0 31 2q8 2 24 2q28 0 33 -30zM868 358v134q-75 26 -137.5 35.5t-148.5 9.5
q-119 0 -199 -58.5t-80 -154.5q0 -93 76 -151t186 -58q133 0 218 65.5t85 177.5z" />
    <glyph glyph-name="Cacute" unicode="&#x106;" horiz-adv-x="1517" 
d="M1331 336l53 -45q27 -23 27 -45q0 -11 -2 -15q-13 -37 -123 -118q-196 -138 -452 -138q-163 0 -303 56.5t-238 155t-153.5 236t-55.5 294.5t55.5 294t153.5 235.5t238 155t303 56.5q184 0 344 -74q134 -64 213 -155q18 -21 18 -43q0 -21 -25 -43l-55 -45q-24 -17 -41 -17
q-19 0 -39 17q-83 86 -190.5 133t-224.5 47q-158 0 -284 -73.5t-195.5 -201.5t-69.5 -286t69.5 -286t195.5 -201.5t284 -73.5q240 0 417 180q19 16 37 16q21 0 43 -16zM723 1579l-21 25q-12 15 -12 28q0 14 17 31l235 207q14 14 29 14q14 0 30 -16l48 -53q12 -12 12 -27
q0 -18 -19 -31l-262 -186q-13 -10 -26 -10q-16 0 -31 18z" />
    <glyph glyph-name="cacute" unicode="&#x107;" horiz-adv-x="1132" 
d="M1026 815l-43 -39q-19 -16 -37 -16q-21 0 -45 24q-9 9 -33 27q-106 74 -239 74q-156 0 -258.5 -107t-102.5 -266t102.5 -266t258.5 -107q102 0 184 39q44 20 105 74q15 12 30 12q19 0 35 -16l43 -39q21 -18 21 -39q0 -18 -15 -33q-45 -51 -108 -86q-134 -76 -295 -76
q-237 0 -392 152t-155 385t155 385t392 152q110 0 219 -41q112 -43 184 -121q15 -15 15 -33q0 -21 -21 -39zM510 1200l-21 25q-12 15 -12 28q0 14 17 31l235 207q14 14 29 14q14 0 30 -16l48 -53q12 -12 12 -27q0 -18 -19 -31l-262 -186q-13 -10 -26 -10q-16 0 -31 18z" />
    <glyph glyph-name="Ccircumflex" unicode="&#x108;" horiz-adv-x="1517" 
d="M1331 336l53 -45q27 -23 27 -45q0 -11 -2 -15q-13 -37 -123 -118q-196 -138 -452 -138q-163 0 -303 56.5t-238 155t-153.5 236t-55.5 294.5t55.5 294t153.5 235.5t238 155t303 56.5q184 0 344 -74q134 -64 213 -155q18 -21 18 -43q0 -21 -25 -43l-55 -45q-24 -17 -41 -17
q-19 0 -39 17q-83 86 -190.5 133t-224.5 47q-158 0 -284 -73.5t-195.5 -201.5t-69.5 -286t69.5 -286t195.5 -201.5t284 -73.5q240 0 417 180q19 16 37 16q21 0 43 -16zM813 1769l-229 -190q-15 -12 -29 -12q-15 0 -31 16l-26 29q-15 15 -15 28q0 15 19 31l213 197
q37 30 76 30h43q36 0 73 -30l215 -197q17 -17 17 -31q0 -13 -15 -28l-24 -29q-16 -16 -31 -16q-14 0 -29 12z" />
    <glyph glyph-name="ccircumflex" unicode="&#x109;" horiz-adv-x="1132" 
d="M1026 815l-43 -39q-19 -16 -37 -16q-21 0 -45 24q-9 9 -33 27q-106 74 -239 74q-156 0 -258.5 -107t-102.5 -266t102.5 -266t258.5 -107q102 0 184 39q44 20 105 74q15 12 30 12q19 0 35 -16l43 -39q21 -18 21 -39q0 -18 -15 -33q-45 -51 -108 -86q-134 -76 -295 -76
q-237 0 -392 152t-155 385t155 385t392 152q110 0 219 -41q112 -43 184 -121q15 -15 15 -33q0 -21 -21 -39zM600 1391l-229 -191q-15 -12 -29 -12q-15 0 -31 16l-26 29q-15 15 -15 29t19 30l213 197q39 31 76 31h43q23 0 37 -7t36 -24l215 -197q17 -17 17 -30q0 -14 -15 -29
l-24 -29q-16 -16 -31 -16q-14 0 -29 12z" />
    <glyph glyph-name="Cdotaccent" unicode="&#x10a;" horiz-adv-x="1517" 
d="M1331 336l53 -45q27 -23 27 -45q0 -11 -2 -15q-13 -37 -123 -118q-196 -138 -452 -138q-163 0 -303 56.5t-238 155t-153.5 236t-55.5 294.5t55.5 294t153.5 235.5t238 155t303 56.5q184 0 344 -74q134 -64 213 -155q18 -21 18 -43q0 -21 -25 -43l-55 -45q-24 -17 -41 -17
q-19 0 -39 17q-83 86 -190.5 133t-224.5 47q-158 0 -284 -73.5t-195.5 -201.5t-69.5 -286t69.5 -286t195.5 -201.5t284 -73.5q240 0 417 180q19 16 37 16q21 0 43 -16zM813 1886q49 0 86 -37t37 -86t-37 -86t-86 -37t-86 37t-37 86t37 86t86 37z" />
    <glyph glyph-name="cdotaccent" unicode="&#x10b;" horiz-adv-x="1132" 
d="M1026 815l-43 -39q-19 -16 -37 -16q-21 0 -45 24q-9 9 -33 27q-106 74 -239 74q-156 0 -258.5 -107t-102.5 -266t102.5 -266t258.5 -107q102 0 184 39q44 20 105 74q15 12 30 12q19 0 35 -16l43 -39q21 -18 21 -39q0 -18 -15 -33q-45 -51 -108 -86q-134 -76 -295 -76
q-237 0 -392 152t-155 385t155 385t392 152q110 0 219 -41q112 -43 184 -121q15 -15 15 -33q0 -21 -21 -39zM600 1507q50 0 86.5 -36.5t36.5 -86.5q0 -49 -36.5 -85.5t-86.5 -36.5t-86.5 36.5t-36.5 85.5q0 50 36.5 86.5t86.5 36.5z" />
    <glyph glyph-name="Ccaron" unicode="&#x10c;" horiz-adv-x="1517" 
d="M1331 336l53 -45q27 -23 27 -45q0 -11 -2 -15q-13 -37 -123 -118q-196 -138 -452 -138q-163 0 -303 56.5t-238 155t-153.5 236t-55.5 294.5t55.5 294t153.5 235.5t238 155t303 56.5q184 0 344 -74q134 -64 213 -155q18 -21 18 -43q0 -21 -25 -43l-55 -45q-24 -17 -41 -17
q-19 0 -39 17q-83 86 -190.5 133t-224.5 47q-158 0 -284 -73.5t-195.5 -201.5t-69.5 -286t69.5 -286t195.5 -201.5t284 -73.5q240 0 417 180q19 16 37 16q21 0 43 -16zM813 1677l227 191q15 12 29 12q15 0 31 -16l24 -29q15 -15 15 -29q0 -13 -17 -30l-215 -197
q-22 -17 -36 -24t-37 -7h-43q-37 0 -76 31l-213 197q-19 16 -19 30t15 29l26 29q16 16 31 16q14 0 29 -12z" />
    <glyph glyph-name="ccaron" unicode="&#x10d;" horiz-adv-x="1132" 
d="M1026 815l-43 -39q-19 -16 -37 -16q-21 0 -45 24q-9 9 -33 27q-106 74 -239 74q-156 0 -258.5 -107t-102.5 -266t102.5 -266t258.5 -107q102 0 184 39q44 20 105 74q15 12 30 12q19 0 35 -16l43 -39q21 -18 21 -39q0 -18 -15 -33q-45 -51 -108 -86q-134 -76 -295 -76
q-237 0 -392 152t-155 385t155 385t392 152q110 0 219 -41q112 -43 184 -121q15 -15 15 -33q0 -21 -21 -39zM600 1298l227 191q15 12 29 12q15 0 31 -16l24 -29q15 -15 15 -29q0 -13 -17 -30l-215 -197q-22 -17 -36 -24t-37 -7h-43q-37 0 -76 31l-213 197q-19 16 -19 30
t15 29l26 29q16 16 31 16q14 0 29 -12z" />
    <glyph glyph-name="Dcaron" unicode="&#x10e;" horiz-adv-x="1585" 
d="M246 1434h473q350 0 556 -195t206 -522t-206 -522t-556 -195h-473q-60 0 -60 59v1315q0 60 60 60zM381 1264v-1094h348q253 0 402 150t149 397t-149 397t-402 150h-348zM754 1677l227 191q15 12 29 12t30 -16l25 -29q14 -14 14 -29q0 -14 -16 -30l-215 -197
q-21 -17 -36 -24t-38 -7h-43q-37 0 -76 31l-213 197q-18 15 -18 30t14 29l27 29q16 16 31 16q13 0 28 -12z" />
    <glyph glyph-name="dcaron" unicode="&#x10f;" horiz-adv-x="1570" 
d="M1409 1169l88 324q11 43 57 43h93q18 0 28.5 -10t10.5 -25q0 -7 -3 -16l-122 -326q-9 -23 -23 -33t-39 -10h-49q-43 0 -43 37q0 10 2 16zM967 858v580q0 46 43 57l84 25q6 2 18 2q35 0 35 -41v-1428q0 -53 -53 -53h-54q-53 0 -53 53v125q-65 -97 -167.5 -150t-229.5 -53
q-226 0 -367 150t-141 387t141 387t367 150q116 0 215.5 -50.5t161.5 -140.5zM623 139q153 0 251.5 106t98.5 267t-98.5 267t-251.5 106t-254 -106.5t-101 -266.5t101 -266.5t254 -106.5z" />
    <glyph glyph-name="Dcroat" unicode="&#x110;" horiz-adv-x="1667" 
d="M268 795v579q0 60 60 60h473q350 0 556 -195t206 -522t-206 -522t-556 -195h-473q-60 0 -60 59v590h-100q-53 0 -53 53v39q0 54 53 54h100zM463 649v-479h348q253 0 402 150t149 397t-149 397t-402 150h-348v-469h311q53 0 53 -54v-39q0 -53 -53 -53h-311z" />
    <glyph glyph-name="dcroat" unicode="&#x111;" horiz-adv-x="1337" 
d="M1147 1212v-1159q0 -53 -53 -53h-54q-53 0 -53 53v125q-65 -97 -167.5 -150t-229.5 -53q-226 0 -367 150t-141 387t141 387t367 150q116 0 215.5 -50.5t161.5 -140.5v354h-285q-53 0 -53 50v30q0 49 53 49h285v97q0 46 43 57l84 25q6 2 18 2q35 0 35 -41v-140h131
q53 0 53 -49v-28q0 -52 -53 -52h-131zM623 139q153 0 251.5 106t98.5 267t-98.5 267t-251.5 106t-254 -106.5t-101 -266.5t101 -266.5t254 -106.5z" />
    <glyph glyph-name="Emacron" unicode="&#x112;" horiz-adv-x="1210" 
d="M381 1268v-475h514q59 0 59 -60v-43q0 -59 -59 -59h-514v-465h688q59 0 59 -60v-47q0 -59 -59 -59h-823q-60 0 -60 59v1315q0 60 60 60h803q59 0 59 -60v-47q0 -59 -59 -59h-668zM387 1784h541q43 0 43 -43v-51q0 -43 -43 -43h-541q-43 0 -43 43v51q0 43 43 43z" />
    <glyph glyph-name="emacron" unicode="&#x113;" horiz-adv-x="1196" 
d="M1061 449h-791q10 -148 107 -232q93 -84 241 -84q131 0 230 55q14 7 49 37q39 31 55 31q18 0 35 -14l43 -35q25 -16 25 -37q0 -13 -13 -29q-70 -78 -187.5 -122t-240.5 -44q-230 0 -381 152t-151 385t151 385t381 152q145 0 260 -71.5t177.5 -193t62.5 -270.5v-14
q0 -51 -53 -51zM272 578h656q-7 144 -99 233q-91 88 -215 88q-141 0 -233 -86q-96 -86 -109 -235zM328 1405h540q43 0 43 -43v-51q0 -43 -43 -43h-540q-43 0 -43 43v51q0 43 43 43z" />
    <glyph glyph-name="Ebreve" unicode="&#x114;" horiz-adv-x="1210" 
d="M381 1268v-475h514q59 0 59 -60v-43q0 -59 -59 -59h-514v-465h688q59 0 59 -60v-47q0 -59 -59 -59h-823q-60 0 -60 59v1315q0 60 60 60h803q59 0 59 -60v-47q0 -59 -59 -59h-668zM397 1862h54q37 0 43 -33q8 -72 49.5 -116t113.5 -44t114 44t50 116q6 33 43 33h54
q40 0 40 -37q0 -106 -77 -183q-81 -81 -224 -81q-142 0 -223 81q-78 78 -78 183q0 37 41 37z" />
    <glyph glyph-name="ebreve" unicode="&#x115;" horiz-adv-x="1196" 
d="M1061 449h-791q10 -148 107 -232q93 -84 241 -84q131 0 230 55q14 7 49 37q39 31 55 31q18 0 35 -14l43 -35q25 -16 25 -37q0 -13 -13 -29q-70 -78 -187.5 -122t-240.5 -44q-230 0 -381 152t-151 385t151 385t381 152q145 0 260 -71.5t177.5 -193t62.5 -270.5v-14
q0 -51 -53 -51zM272 578h656q-7 144 -99 233q-91 88 -215 88q-141 0 -233 -86q-96 -86 -109 -235zM338 1483h53q37 0 43 -33q8 -72 50 -116t114 -44t114 44t50 116q6 33 43 33h53q41 0 41 -37q0 -104 -78 -182q-82 -82 -223 -82t-223 82q-78 78 -78 182q0 37 41 37z" />
    <glyph glyph-name="Edotaccent" unicode="&#x116;" horiz-adv-x="1210" 
d="M381 1268v-475h514q59 0 59 -60v-43q0 -59 -59 -59h-514v-465h688q59 0 59 -60v-47q0 -59 -59 -59h-823q-60 0 -60 59v1315q0 60 60 60h803q59 0 59 -60v-47q0 -59 -59 -59h-668zM657 1886q49 0 86 -37t37 -86t-37 -86t-86 -37t-85.5 36.5t-36.5 86.5t36.5 86.5
t85.5 36.5z" />
    <glyph glyph-name="edotaccent" unicode="&#x117;" horiz-adv-x="1196" 
d="M1061 449h-791q10 -148 107 -232q93 -84 241 -84q131 0 230 55q14 7 49 37q39 31 55 31q18 0 35 -14l43 -35q25 -16 25 -37q0 -13 -13 -29q-70 -78 -187.5 -122t-240.5 -44q-230 0 -381 152t-151 385t151 385t381 152q145 0 260 -71.5t177.5 -193t62.5 -270.5v-14
q0 -51 -53 -51zM272 578h656q-7 144 -99 233q-91 88 -215 88q-141 0 -233 -86q-96 -86 -109 -235zM598 1507q50 0 86.5 -36.5t36.5 -86.5q0 -49 -36.5 -85.5t-86.5 -36.5t-86.5 36.5t-36.5 85.5q0 50 36.5 86.5t86.5 36.5z" />
    <glyph glyph-name="Eogonek" unicode="&#x118;" horiz-adv-x="1210" 
d="M1151 -358l4 -29q6 -43 -33 -49q-20 -4 -63 -4q-128 0 -194 55t-66 156q3 74 54 133.5t126 95.5h-733q-60 0 -60 59v1315q0 60 60 60h803q59 0 59 -60v-47q0 -59 -59 -59h-668v-475h514q59 0 59 -60v-43q0 -59 -59 -59h-514v-465h688q59 0 59 -60v-53q0 -53 -30 -71
q-9 -6 -28 -18.5t-31.5 -20.5t-28 -20.5t-27.5 -24.5q-55 -55 -55 -123q0 -107 135 -107q17 0 31 2q8 2 24 2q28 0 33 -30z" />
    <glyph glyph-name="eogonek" unicode="&#x119;" horiz-adv-x="1196" 
d="M987 242l43 -35q25 -16 25 -37q0 -13 -13 -29q-105 -113 -297 -153q-81 -47 -122 -88q-55 -52 -58 -125q0 -107 135 -107q17 0 31 2q4 0 13 1t12 1q27 0 32 -30l5 -29q6 -43 -33 -49q-20 -4 -64 -4q-128 0 -194 55t-66 156q3 123 139 206q-46 2 -110 17
q-107 29 -193 98.5t-135 167.5q-48 99 -55 252q0 233 151 385t381 152q145 0 260 -71.5t177.5 -193t62.5 -270.5v-14q0 -51 -53 -51h-791q10 -148 107 -232q93 -84 241 -84q131 0 230 55q14 7 49 37q39 31 55 31q18 0 35 -14zM272 578h656q-7 144 -99 233q-91 88 -215 88
q-141 0 -233 -86q-96 -86 -109 -235z" />
    <glyph glyph-name="Ecaron" unicode="&#x11a;" horiz-adv-x="1210" 
d="M381 1268v-475h514q59 0 59 -60v-43q0 -59 -59 -59h-514v-465h688q59 0 59 -60v-47q0 -59 -59 -59h-823q-60 0 -60 59v1315q0 60 60 60h803q59 0 59 -60v-47q0 -59 -59 -59h-668zM659 1677l228 191q15 12 28 12q15 0 31 -16l25 -29q14 -14 14 -29q0 -14 -16 -30
l-215 -197q-21 -17 -36 -24t-38 -7h-43q-37 0 -76 31l-213 197q-18 15 -18 30t14 29l27 29q16 16 30 16t29 -12z" />
    <glyph glyph-name="ecaron" unicode="&#x11b;" horiz-adv-x="1196" 
d="M1061 449h-791q10 -148 107 -232q93 -84 241 -84q131 0 230 55q14 7 49 37q39 31 55 31q18 0 35 -14l43 -35q25 -16 25 -37q0 -13 -13 -29q-70 -78 -187.5 -122t-240.5 -44q-230 0 -381 152t-151 385t151 385t381 152q145 0 260 -71.5t177.5 -193t62.5 -270.5v-14
q0 -51 -53 -51zM272 578h656q-7 144 -99 233q-91 88 -215 88q-141 0 -233 -86q-96 -86 -109 -235zM600 1298l227 191q15 12 29 12q15 0 31 -16l24 -29q15 -15 15 -29q0 -13 -17 -30l-215 -197q-22 -17 -36 -24t-37 -7h-43q-37 0 -76 31l-213 197q-19 16 -19 30t15 29l26 29
q16 16 31 16q14 0 29 -12z" />
    <glyph glyph-name="Gcircumflex" unicode="&#x11c;" horiz-adv-x="1542" 
d="M1217 612h-365q-59 0 -59 60v51q0 59 59 59h496q59 0 59 -59v-432q0 -40 -7 -63t-30 -48q-68 -75 -203 -137q-158 -68 -346 -68q-215 0 -384 97t-261 265.5t-92 379.5q0 157 54 294t150 235.5t234 155t299 56.5q237 0 424 -115q102 -60 117 -98q4 -12 4 -16
q0 -24 -27 -43l-57 -47q-22 -19 -41 -19q-20 0 -35 15q-80 71 -179.5 109t-205.5 38q-237 0 -386.5 -160t-149.5 -405t149.5 -405t386.5 -160q235 0 396 145v315zM809 1769l-229 -190q-15 -12 -29 -12q-15 0 -31 16l-26 29q-15 15 -15 28q0 15 19 31l213 197q38 30 75 30h43
q37 0 74 -30l215 -197q17 -17 17 -31q0 -13 -15 -28l-24 -29q-16 -16 -31 -16q-14 0 -29 12z" />
    <glyph glyph-name="gcircumflex" unicode="&#x11d;" horiz-adv-x="1275" 
d="M934 -8v207q-57 -85 -152.5 -132t-212.5 -47q-215 0 -351 142.5t-136 372.5q1 152 63 269.5t172.5 181t251.5 63.5q120 0 219 -48t162 -143v113q0 53 54 53h53q53 0 53 -53v-989q0 -193 -135 -304.5t-373 -111.5q-256 0 -430 127q-27 18 -27 43q0 13 9 28l18 41
q13 29 37 29q13 0 24 -8q66 -45 144 -74q107 -43 225 -43q165 0 248.5 74t83.5 209zM602 180q148 0 244 100.5t96 254.5t-96 254t-244 100q-146 0 -242 -100t-96 -254t96 -254.5t242 -100.5zM598 1391l-229 -191q-15 -12 -29 -12q-15 0 -31 16l-26 29q-15 15 -15 29t19 30
l213 197q39 31 75 31h43q23 0 38 -7t36 -24l215 -197q17 -17 17 -30q0 -14 -15 -29l-24 -29q-16 -16 -31 -16q-14 0 -29 12z" />
    <glyph glyph-name="Gbreve" unicode="&#x11e;" horiz-adv-x="1542" 
d="M1217 612h-365q-59 0 -59 60v51q0 59 59 59h496q59 0 59 -59v-432q0 -40 -7 -63t-30 -48q-68 -75 -203 -137q-158 -68 -346 -68q-215 0 -384 97t-261 265.5t-92 379.5q0 157 54 294t150 235.5t234 155t299 56.5q237 0 424 -115q102 -60 117 -98q4 -12 4 -16
q0 -24 -27 -43l-57 -47q-22 -19 -41 -19q-20 0 -35 15q-80 71 -179.5 109t-205.5 38q-237 0 -386.5 -160t-149.5 -405t149.5 -405t386.5 -160q235 0 396 145v315zM547 1862h53q37 0 43 -33q8 -72 50 -116t114 -44t114 44t50 116q6 33 43 33h53q41 0 41 -37q0 -105 -78 -183
q-81 -81 -223 -81t-223 81q-78 78 -78 183q0 37 41 37z" />
    <glyph glyph-name="gbreve" unicode="&#x11f;" horiz-adv-x="1275" 
d="M934 -8v207q-57 -85 -152.5 -132t-212.5 -47q-215 0 -351 142.5t-136 372.5q1 152 63 269.5t172.5 181t251.5 63.5q120 0 219 -48t162 -143v113q0 53 54 53h53q53 0 53 -53v-989q0 -193 -135 -304.5t-373 -111.5q-256 0 -430 127q-27 18 -27 43q0 13 9 28l18 41
q13 29 37 29q13 0 24 -8q66 -45 144 -74q107 -43 225 -43q165 0 248.5 74t83.5 209zM602 180q148 0 244 100.5t96 254.5t-96 254t-244 100q-146 0 -242 -100t-96 -254t96 -254.5t242 -100.5zM336 1483h53q37 0 43 -33q8 -72 50 -116t114 -44t114 44t50 116q6 33 43 33h53
q41 0 41 -37q0 -104 -78 -182q-82 -82 -223 -82t-223 82q-78 78 -78 182q0 37 41 37z" />
    <glyph glyph-name="Gdotaccent" unicode="&#x120;" horiz-adv-x="1542" 
d="M1217 612h-365q-59 0 -59 60v51q0 59 59 59h496q59 0 59 -59v-432q0 -40 -7 -63t-30 -48q-68 -75 -203 -137q-158 -68 -346 -68q-215 0 -384 97t-261 265.5t-92 379.5q0 157 54 294t150 235.5t234 155t299 56.5q237 0 424 -115q102 -60 117 -98q4 -12 4 -16
q0 -24 -27 -43l-57 -47q-22 -19 -41 -19q-20 0 -35 15q-80 71 -179.5 109t-205.5 38q-237 0 -386.5 -160t-149.5 -405t149.5 -405t386.5 -160q235 0 396 145v315zM807 1886q49 0 86 -37t37 -86t-37 -86t-86 -37t-86 37t-37 86t37 86t86 37z" />
    <glyph glyph-name="gdotaccent" unicode="&#x121;" horiz-adv-x="1275" 
d="M934 -8v207q-57 -85 -152.5 -132t-212.5 -47q-215 0 -351 142.5t-136 372.5q1 152 63 269.5t172.5 181t251.5 63.5q120 0 219 -48t162 -143v113q0 53 54 53h53q53 0 53 -53v-989q0 -193 -135 -304.5t-373 -111.5q-256 0 -430 127q-27 18 -27 43q0 13 9 28l18 41
q13 29 37 29q13 0 24 -8q66 -45 144 -74q107 -43 225 -43q165 0 248.5 74t83.5 209zM602 180q148 0 244 100.5t96 254.5t-96 254t-244 100q-146 0 -242 -100t-96 -254t96 -254.5t242 -100.5zM596 1507q50 0 86.5 -36.5t36.5 -86.5q0 -49 -36.5 -85.5t-86.5 -36.5t-86.5 36.5
t-36.5 85.5q0 50 36.5 86.5t86.5 36.5z" />
    <glyph glyph-name="Gcommaaccent" unicode="&#x122;" horiz-adv-x="1542" 
d="M836 -25l-17 -71q90 -8 140.5 -50.5t50.5 -117.5q0 -83 -67.5 -129.5t-178.5 -46.5q-89 0 -170 34q-29 13 -29 37q0 9 6 21l11 20q11 25 34 25q9 0 15 -2q73 -27 133 -27q115 0 115 68q0 67 -119 67h-55q-35 0 -35 31q0 8 2 12l37 138q-243 28 -414 196
q-129 129 -182 320q-26 92 -29 217q0 157 54 294t150 235.5t234 155t299 56.5q237 0 424 -115q102 -60 117 -98q4 -12 4 -16q0 -24 -27 -43l-57 -47q-22 -19 -41 -19q-20 0 -35 15q-80 71 -179.5 109t-205.5 38q-237 0 -386.5 -160t-149.5 -405t149.5 -405t386.5 -160
q235 0 396 145v315h-365q-59 0 -59 60v51q0 59 59 59h496q59 0 59 -59v-432q0 -40 -7 -63t-30 -48q-68 -75 -203 -137q-150 -65 -331 -68z" />
    <glyph glyph-name="gcommaaccent" unicode="&#x123;" horiz-adv-x="1275" 
d="M934 -8v207q-57 -85 -152.5 -132t-212.5 -47q-215 0 -351 142.5t-136 372.5q1 152 63 269.5t172.5 181t251.5 63.5q120 0 219 -48t162 -143v113q0 53 54 53h53q53 0 53 -53v-989q0 -193 -135 -304.5t-373 -111.5q-256 0 -430 127q-27 18 -27 43q0 13 9 28l18 41
q13 29 37 29q13 0 24 -8q66 -45 144 -74q107 -43 225 -43q165 0 248.5 74t83.5 209zM602 180q148 0 244 100.5t96 254.5t-96 254t-244 100q-146 0 -242 -100t-96 -254t96 -254.5t242 -100.5zM700 1567l13 -15q12 -12 12 -22q0 -6 -6 -12q-31 -38 -43 -62q-14 -27 -21 -70
q41 -6 67 -36t26 -70q0 -46 -31.5 -78.5t-77.5 -32.5t-77.5 32.5t-31.5 78.5q-2 78 30 155.5t89 131.5q12 12 27 12q12 0 24 -12z" />
    <glyph glyph-name="Hcircumflex" unicode="&#x124;" horiz-adv-x="1550" 
d="M381 637v-578q0 -59 -59 -59h-76q-60 0 -60 59v1315q0 60 60 60h76q59 0 59 -60v-567h788v567q0 60 60 60h76q59 0 59 -60v-1315q0 -59 -59 -59h-76q-60 0 -60 59v578h-788zM776 1769l-229 -190q-15 -12 -29 -12q-15 0 -31 16l-26 29q-15 15 -15 28q0 15 19 31l213 197
q38 30 76 30h43q23 0 37.5 -6.5t35.5 -23.5l215 -197q17 -17 17 -31q0 -13 -15 -28l-24 -29q-16 -16 -31 -16q-13 0 -28 12z" />
    <glyph glyph-name="hcircumflex" unicode="&#x125;" horiz-adv-x="1255" 
d="M346 1481v-607q48 83 138.5 129t215.5 46q188 0 297 -119t109 -316v-561q0 -53 -53 -53h-82q-53 0 -53 53v531q0 139 -70.5 220t-200.5 81q-141 0 -217 -84t-76 -217v-531q0 -53 -53 -53h-82q-53 0 -53 53v1387q0 46 43 57l84 25q6 2 16 2q37 0 37 -43zM260 1769
l-229 -190q-18 -12 -31 -12q-16 0 -29 16l-26 29q-15 15 -15 28q0 15 19 31l213 197q37 30 76 30h43q23 0 37.5 -6.5t35.5 -23.5l215 -197q17 -17 17 -31q0 -13 -15 -28l-24 -29q-16 -16 -33 -16q-15 0 -27 12z" />
    <glyph glyph-name="Hbar" unicode="&#x126;" horiz-adv-x="1550" 
d="M381 637v-578q0 -59 -59 -59h-76q-60 0 -60 59v1315q0 60 60 60h76q59 0 59 -60v-567h788v567q0 60 60 60h76q59 0 59 -60v-1315q0 -59 -59 -59h-76q-60 0 -60 59v578h-788zM506 1784h541q43 0 43 -43v-51q0 -43 -43 -43h-541q-43 0 -43 43v51q0 43 43 43z" />
    <glyph glyph-name="hbar" unicode="&#x127;" horiz-adv-x="1280" 
d="M371 1212v-338q48 83 138.5 129t215.5 46q188 0 296.5 -119t108.5 -316v-561q0 -53 -53 -53h-82q-53 0 -53 53v531q0 139 -70 220t-200 81q-141 0 -217 -84t-76 -217v-531q0 -53 -53 -53h-82q-54 0 -54 53v1159h-141q-43 0 -43 43v43q0 43 43 43h141v99q0 46 43 57l84 25
q6 2 17 2q37 0 37 -43v-140h295q43 0 43 -43v-43q0 -43 -43 -43h-295z" />
    <glyph glyph-name="Itilde" unicode="&#x128;" horiz-adv-x="567" 
d="M381 1374v-1315q0 -59 -59 -59h-76q-60 0 -60 59v1315q0 60 60 60h76q59 0 59 -60zM45 1597h-49q-41 0 -41 37q0 108 61 166q47 47 123 47q31 0 62.5 -12.5t51.5 -25.5t50 -37q27 -20 39.5 -28.5t33.5 -18t38 -9.5q46 0 63 84q1 6 2 8q6 33 43 33h49q41 0 41 -37
q0 -108 -63 -168q-48 -45 -121 -45q-32 0 -65 13t-50.5 25t-50.5 36q-27 20 -39.5 28.5t-32.5 17.5t-36 9q-23 0 -37.5 -16t-19.5 -32.5t-9 -41.5q-5 -33 -43 -33z" />
    <glyph glyph-name="itilde" unicode="&#x129;" horiz-adv-x="520" 
d="M219 1024h82q53 0 53 -53v-918q0 -53 -53 -53h-82q-53 0 -53 53v918q0 53 53 53zM20 1219h-49q-41 0 -41 36q0 107 62 166q47 47 123 47q31 0 62.5 -12.5t51.5 -25.5t50 -37q28 -21 39.5 -29t32.5 -17.5t38 -9.5q21 0 35.5 15.5t19.5 31.5t10 40q1 4 1 6q6 32 43 32h49
q41 0 41 -37q0 -107 -64 -168q-48 -45 -121 -45q-32 0 -65 13t-49.5 24.5t-50.5 36.5q-26 19 -39.5 28t-33.5 18t-36 9q-23 0 -37.5 -16t-19.5 -32.5t-9 -41.5q-5 -32 -43 -32z" />
    <glyph glyph-name="Imacron" unicode="&#x12a;" horiz-adv-x="567" 
d="M381 1374v-1315q0 -59 -59 -59h-76q-60 0 -60 59v1315q0 60 60 60h76q59 0 59 -60zM12 1784h541q43 0 43 -43v-51q0 -43 -43 -43h-541q-43 0 -43 43v51q0 43 43 43z" />
    <glyph glyph-name="imacron" unicode="&#x12b;" horiz-adv-x="520" 
d="M219 1024h82q53 0 53 -53v-918q0 -53 -53 -53h-82q-53 0 -53 53v918q0 53 53 53zM-10 1405h540q43 0 43 -43v-51q0 -43 -43 -43h-540q-43 0 -43 43v51q0 43 43 43z" />
    <glyph glyph-name="Ibreve" unicode="&#x12c;" horiz-adv-x="567" 
d="M381 1374v-1315q0 -59 -59 -59h-76q-60 0 -60 59v1315q0 60 60 60h76q59 0 59 -60zM23 1862h53q37 0 43 -33q8 -72 50 -116t114 -44t113.5 44t49.5 116q6 33 43 33h54q41 0 41 -37q0 -105 -78 -183q-81 -81 -223 -81q-143 0 -224 81q-77 77 -77 183q0 37 41 37z" />
    <glyph glyph-name="ibreve" unicode="&#x12d;" horiz-adv-x="520" 
d="M219 1024h82q53 0 53 -53v-918q0 -53 -53 -53h-82q-53 0 -53 53v918q0 53 53 53zM0 1483h53q37 0 43 -33q8 -72 50 -116t114 -44t114 44t50 116q6 33 43 33h53q41 0 41 -37q0 -104 -78 -182q-82 -82 -223 -82t-223 82q-78 78 -78 182q0 37 41 37z" />
    <glyph glyph-name="Iogonek" unicode="&#x12e;" horiz-adv-x="567" 
d="M406 -358l4 -29q6 -43 -33 -49q-20 -4 -64 -4q-128 0 -194 55t-66 156q3 75 55.5 135t127.5 94q-48 6 -48 59v1315q0 60 60 60h76q59 0 59 -60v-1321q0 -49 -31 -71q-35 -20 -60.5 -38t-53 -44t-42 -57.5t-14.5 -67.5q0 -107 135 -107q17 0 31 2q8 2 25 2q28 0 33 -30z
" />
    <glyph glyph-name="iogonek" unicode="&#x12f;" horiz-adv-x="524" 
d="M379 -358l4 -29q6 -43 -33 -49q-20 -4 -63 -4q-128 0 -194 55t-66 156q3 77 54.5 136t127.5 93q-41 9 -41 53v918q0 53 53 53h82q53 0 53 -53v-926q0 -45 -37 -65q-36 -22 -58.5 -38.5t-50 -43t-41 -57t-13.5 -66.5q0 -107 135 -107q17 0 31 2q8 2 24 2q28 0 33 -30z
M262 1507q50 0 86.5 -36.5t36.5 -86.5q0 -49 -36.5 -85.5t-86.5 -36.5t-86.5 36.5t-36.5 85.5q0 50 36.5 86.5t86.5 36.5z" />
    <glyph glyph-name="Idotaccent" unicode="&#x130;" horiz-adv-x="567" 
d="M383 1374v-1315q0 -59 -59 -59h-76q-60 0 -60 59v1315q0 60 60 60h76q59 0 59 -60zM285 1886q49 0 86 -37t37 -86t-37 -86t-86 -37t-86 37t-37 86t37 86t86 37z" />
    <glyph glyph-name="dotlessi" unicode="&#x131;" horiz-adv-x="520" 
d="M219 1024h82q53 0 53 -53v-918q0 -53 -53 -53h-82q-53 0 -53 53v918q0 53 53 53z" />
    <glyph glyph-name="IJ" unicode="&#x132;" horiz-adv-x="1693" 
d="M381 1374v-1315q0 -59 -59 -59h-76q-60 0 -60 59v1315q0 60 60 60h76q59 0 59 -60zM1323 430v944q0 60 59 60h76q60 0 60 -60v-954q0 -229 -123 -337t-340 -108q-196 0 -338 107q-84 60 -99 96q-4 12 -4 19q0 18 19 41l29 38q19 25 38 25q21 0 41 -20q80 -74 143.5 -105
t162.5 -31q135 0 205.5 64.5t70.5 220.5z" />
    <glyph glyph-name="ij" unicode="&#x133;" horiz-adv-x="1077" 
d="M221 1024h82q53 0 53 -53v-918q0 -53 -53 -53h-82q-53 0 -53 53v918q0 53 53 53zM262 1507q50 0 86.5 -36.5t36.5 -86.5q0 -49 -36.5 -85.5t-86.5 -36.5t-86.5 36.5t-36.5 85.5q0 50 36.5 86.5t86.5 36.5zM815 1507q49 0 86 -36.5t37 -86.5q0 -49 -36.5 -85.5
t-86.5 -36.5t-86.5 36.5t-36.5 85.5q0 50 37 86.5t86 36.5zM578 -385l-15 49q-4 16 -4 23q0 27 27 39q76 27 110 106q25 61 25 164v975q0 53 53 53h84q51 0 51 -53v-975q0 -185 -67 -285q-65 -93 -193 -129q-20 -4 -28 -4q-32 0 -43 37z" />
    <glyph glyph-name="Jcircumflex" unicode="&#x134;" horiz-adv-x="1126" 
d="M756 430v944q0 60 59 60h76q59 0 59 -60v-954q0 -229 -123 -337t-340 -108q-195 0 -337 107q-84 60 -99 96q-4 12 -4 19q0 18 19 41l28 38q19 25 39 25q21 0 41 -20q81 -74 144 -105t161 -31q135 0 206 64.5t71 220.5zM854 1769l-229 -190q-15 -12 -29 -12q-15 0 -31 16
l-26 29q-13 16 -13 28q0 14 17 31l213 197q38 30 75 30h43q37 0 74 -30l215 -197q17 -17 17 -31q0 -13 -15 -28l-24 -29q-16 -16 -31 -16q-14 0 -29 12z" />
    <glyph glyph-name="jcircumflex" unicode="&#x135;" horiz-adv-x="538" 
d="M371 971v-975q0 -184 -68 -285q-65 -94 -192 -129q-20 -4 -29 -4q-32 0 -43 37l-14 49q-5 20 -5 23q0 27 27 39q77 27 111 106q24 59 24 164v975q0 53 54 53h83q52 0 52 -53zM270 1391l-229 -191q-18 -12 -31 -12q-15 0 -28 16l-27 29q-14 14 -14 29t18 30l213 197
q39 31 76 31h43q23 0 38 -7t36 -24l215 -197q16 -16 16 -30q0 -15 -14 -29l-25 -29q-16 -16 -33 -16q-14 0 -26 12z" />
    <glyph glyph-name="Kcommaaccent" unicode="&#x136;" horiz-adv-x="1372" 
d="M719 803l565 -752q8 -11 8 -22q0 -12 -8.5 -20.5t-23.5 -8.5h-123q-34 0 -51 8.5t-37 36.5l-455 621l-213 -238v-369q0 -59 -59 -59h-76q-60 0 -60 59v1315q0 60 60 60h76q59 0 59 -60v-696l620 711q25 28 43.5 36.5t55.5 8.5h117q14 0 23 -8t9 -19q0 -10 -10 -23z
M614 -612l-12 14q-12 12 -12 23q0 6 6 12q32 40 43 61q13 24 20 70q-41 6 -66.5 36t-25.5 70q0 46 31.5 78.5t77.5 32.5q45 0 76.5 -32.5t31.5 -78.5q2 -79 -29.5 -155.5t-88.5 -130.5q-13 -13 -27 -13q-12 0 -25 13z" />
    <glyph glyph-name="kcommaaccent" unicode="&#x137;" horiz-adv-x="1107" 
d="M354 303v-250q0 -53 -53 -53h-82q-53 0 -53 53v1385q0 46 43 57l84 25q6 2 18 2q35 0 35 -41v-994l463 498q23 25 39.5 32t50.5 7h98q13 0 21 -7t8 -16q0 -12 -8 -20l-369 -408l402 -528q8 -11 8 -20q0 -25 -31 -25h-115q-30 0 -44.5 7.5t-32.5 31.5l-320 432zM530 -612
l-12 14q-12 12 -12 23q0 6 6 12q32 40 43 61q13 24 20 70q-41 6 -66.5 36t-25.5 70q0 46 31.5 78.5t77.5 32.5q45 0 76.5 -32.5t31.5 -78.5q2 -79 -29.5 -155.5t-88.5 -130.5q-13 -13 -27 -13q-12 0 -25 13z" />
    <glyph glyph-name="kgreenlandic" unicode="&#x138;" horiz-adv-x="1107" 
d="M354 303v-250q0 -53 -53 -53h-82q-53 0 -53 53v918q0 53 53 53h74q53 0 53 -53v-484l463 498q23 25 39.5 32t50.5 7h98q13 0 21 -7t8 -16q0 -12 -8 -20l-369 -408l402 -528q8 -11 8 -20q0 -11 -9 -18t-22 -7h-115q-30 0 -44.5 7.5t-32.5 31.5l-320 432z" />
    <glyph glyph-name="Lacute" unicode="&#x139;" horiz-adv-x="1120" 
d="M381 170h616q60 0 60 -59v-52q0 -59 -60 -59h-751q-60 0 -60 59v1315q0 60 60 60h76q59 0 59 -60v-1204zM406 1579l-21 25q-12 15 -12 28q0 15 16 31l236 207q14 14 28 14q15 0 31 -16l47 -53q12 -12 12 -27q0 -19 -18 -31l-262 -186q-13 -10 -27 -10q-15 0 -30 18z" />
    <glyph glyph-name="lacute" unicode="&#x13a;" horiz-adv-x="520" 
d="M354 1481v-1428q0 -53 -53 -53h-82q-53 0 -53 53v1389q0 46 45 57l90 23q6 2 16 2q37 0 37 -43zM172 1579l-20 25q-13 16 -13 28q0 14 17 31l235 207q14 14 31 14q16 0 29 -16l47 -53q12 -12 12 -27q0 -19 -18 -31l-263 -186q-13 -10 -24 -10q-18 0 -33 18z" />
    <glyph glyph-name="Lcommaaccent" unicode="&#x13b;" horiz-adv-x="1120" 
d="M381 170h616q60 0 60 -59v-52q0 -59 -60 -59h-751q-60 0 -60 59v1315q0 60 60 60h76q59 0 59 -60v-1204zM594 -612l-12 14q-13 13 -13 23q0 6 6 12q32 40 43 61q14 27 21 70q-41 6 -66.5 36t-25.5 70q0 46 31.5 78.5t76.5 32.5q46 0 77.5 -32.5t31.5 -78.5
q2 -78 -30 -155t-89 -131q-13 -13 -27 -13q-11 0 -24 13z" />
    <glyph glyph-name="lcommaaccent" unicode="&#x13c;" horiz-adv-x="520" 
d="M354 1481v-1428q0 -53 -53 -53h-82q-53 0 -53 53v1389q0 46 45 57l90 23q6 2 16 2q37 0 37 -43zM203 -612l-13 14q-12 12 -12 23q0 6 6 12q32 40 43 61q14 27 21 70q-41 6 -66.5 36t-25.5 70q0 46 31.5 78.5t76.5 32.5q46 0 77.5 -32.5t31.5 -78.5q2 -78 -30 -155
t-89 -131q-13 -13 -27 -13q-11 0 -24 13z" />
    <glyph glyph-name="Lcaron" unicode="&#x13d;" horiz-adv-x="1120" 
d="M246 1434h76q59 0 59 -60v-1204h616q60 0 60 -59v-52q0 -59 -60 -59h-751q-60 0 -60 59v1315q0 60 60 60zM618 1067l89 324q11 43 57 43h92q18 0 28.5 -10t10.5 -25q0 -11 -2 -17l-123 -325q-9 -23 -22.5 -33t-38.5 -10h-50q-43 0 -43 37q0 10 2 16z" />
    <glyph glyph-name="lcaron" unicode="&#x13e;" horiz-adv-x="778" 
d="M354 1481v-1428q0 -53 -53 -53h-82q-53 0 -53 53v1389q0 46 45 57l90 23q6 2 16 2q37 0 37 -43zM616 1169l89 324q11 43 57 43h92q18 0 28.5 -10t10.5 -25q0 -10 -2 -16l-123 -326q-9 -23 -22.5 -33t-38.5 -10h-50q-43 0 -43 37q0 10 2 16z" />
    <glyph glyph-name="Ldot" unicode="&#x13f;" horiz-adv-x="1120" 
d="M381 170h616q60 0 60 -59v-52q0 -59 -60 -59h-751q-60 0 -60 59v1315q0 60 60 60h76q59 0 59 -60v-1204zM831 772q53 0 90 -37t37 -90t-37 -90t-90 -37q-52 0 -89 37t-37 90t37 90t89 37z" />
    <glyph glyph-name="ldot" unicode="&#x140;" horiz-adv-x="778" 
d="M354 1481v-1428q0 -53 -53 -53h-82q-53 0 -53 53v1389q0 46 45 57l90 23q6 2 16 2q37 0 37 -43zM649 772q53 0 90 -37t37 -90t-37 -90t-90 -37t-90 37t-37 90t37 90t90 37z" />
    <glyph glyph-name="Lslash" unicode="&#x141;" horiz-adv-x="1202" 
d="M463 791v-621h616q60 0 60 -59v-52q0 -59 -60 -59h-751q-60 0 -60 59v570l-110 -92q-9 -9 -21 -9q-9 0 -15.5 8t-6.5 21v80q0 32 7 48t32 36l114 96v557q0 60 60 60h75q60 0 60 -60v-395l180 149q9 9 21 9q9 0 15.5 -8t6.5 -21v-80q0 -32 -7 -48t-32 -36z" />
    <glyph glyph-name="lslash" unicode="&#x142;" horiz-adv-x="577" 
d="M184 819v623q0 46 45 57l90 23q6 2 17 2q37 0 37 -43v-506l194 162q8 8 21 8q9 0 15.5 -8t6.5 -21v-82q0 -32 -7 -48t-32 -36l-198 -164v-733q0 -53 -54 -53h-81q-54 0 -54 53v578l-110 -92q-9 -9 -21 -9q-9 0 -15.5 8t-6.5 21v80q0 32 7 48t32 36z" />
    <glyph glyph-name="Nacute" unicode="&#x143;" horiz-adv-x="1550" 
d="M1169 293v1081q0 60 60 60h76q59 0 59 -60v-1315q0 -59 -59 -59h-101q-32 0 -48.5 8.5t-35.5 36.5l-739 1096v-1082q0 -59 -59 -59h-76q-60 0 -60 59v1315q0 60 60 60h100q32 0 48.5 -8.5t35.5 -36.5zM686 1579l-20 25q-13 16 -13 28q0 14 17 31l235 207q14 14 29 14
t31 -16l47 -53q12 -12 12 -27q0 -19 -18 -31l-263 -186q-13 -10 -26 -10q-16 0 -31 18z" />
    <glyph glyph-name="nacute" unicode="&#x144;" horiz-adv-x="1255" 
d="M334 971v-113q51 90 144 140.5t222 50.5q188 0 297 -119t109 -316v-561q0 -53 -53 -53h-82q-53 0 -53 53v531q0 139 -70.5 220t-200.5 81q-141 0 -217 -84t-76 -217v-531q0 -53 -53 -53h-82q-53 0 -53 53v918q0 53 53 53h62q53 0 53 -53zM547 1200l-21 25q-12 15 -12 28
q0 15 16 31l236 207q14 14 29 14q14 0 30 -16l47 -53q13 -13 13 -27q0 -18 -19 -31l-262 -186q-13 -10 -26 -10q-16 0 -31 18z" />
    <glyph glyph-name="Ncommaaccent" unicode="&#x145;" horiz-adv-x="1550" 
d="M1169 293v1081q0 60 60 60h76q59 0 59 -60v-1315q0 -59 -59 -59h-101q-32 0 -48.5 8.5t-35.5 36.5l-739 1096v-1082q0 -59 -59 -59h-76q-60 0 -60 59v1315q0 60 60 60h100q32 0 48.5 -8.5t35.5 -36.5zM737 -612l-12 14q-12 12 -12 23q0 6 6 12q32 40 43 61q13 24 20 70
q-41 6 -66.5 36t-25.5 70q0 46 31.5 78.5t77.5 32.5q45 0 76.5 -32.5t31.5 -78.5q2 -78 -30 -155t-89 -131q-13 -13 -26 -13q-12 0 -25 13z" />
    <glyph glyph-name="ncommaaccent" unicode="&#x146;" horiz-adv-x="1255" 
d="M334 971v-113q51 90 144 140.5t222 50.5q188 0 297 -119t109 -316v-561q0 -53 -53 -53h-82q-53 0 -53 53v531q0 139 -70.5 220t-200.5 81q-141 0 -217 -84t-76 -217v-531q0 -53 -53 -53h-82q-53 0 -53 53v918q0 53 53 53h62q53 0 53 -53zM588 -612l-13 14q-12 12 -12 23
q0 6 6 12q32 40 43 61q14 27 21 70q-41 6 -66.5 36t-25.5 70q0 46 31.5 78.5t76.5 32.5q46 0 77.5 -32.5t31.5 -78.5q2 -78 -30 -155t-89 -131q-13 -13 -27 -13q-11 0 -24 13z" />
    <glyph glyph-name="Ncaron" unicode="&#x147;" horiz-adv-x="1550" 
d="M1169 293v1081q0 60 60 60h76q59 0 59 -60v-1315q0 -59 -59 -59h-101q-32 0 -48.5 8.5t-35.5 36.5l-739 1096v-1082q0 -59 -59 -59h-76q-60 0 -60 59v1315q0 60 60 60h100q32 0 48.5 -8.5t35.5 -36.5zM776 1677l228 191q15 12 28 12q15 0 31 -16l24 -29q15 -15 15 -29
q0 -13 -17 -30l-215 -197q-22 -17 -36 -24t-37 -7h-43q-37 0 -76 31l-213 197q-19 16 -19 30t15 29l26 29q16 16 31 16q14 0 29 -12z" />
    <glyph glyph-name="ncaron" unicode="&#x148;" horiz-adv-x="1255" 
d="M334 971v-113q51 90 144 140.5t222 50.5q188 0 297 -119t109 -316v-561q0 -53 -53 -53h-82q-53 0 -53 53v531q0 139 -70.5 220t-200.5 81q-141 0 -217 -84t-76 -217v-531q0 -53 -53 -53h-82q-53 0 -53 53v918q0 53 53 53h62q53 0 53 -53zM637 1298l227 191q15 12 29 12
q15 0 31 -16l24 -29q15 -15 15 -29q0 -13 -17 -30l-215 -197q-21 -17 -36 -24t-38 -7h-43q-36 0 -75 31l-213 197q-19 16 -19 30t15 29l26 29q16 16 31 16q14 0 29 -12z" />
    <glyph glyph-name="napostrophe" unicode="&#x149;" horiz-adv-x="1415" 
d="M-115 1169l88 324q11 43 58 43h92q18 0 29.5 -10t11.5 -25q0 -4 -4 -16l-123 -326q-9 -23 -23 -33t-39 -10h-49q-43 0 -43 37q0 10 2 16zM494 971v-113q51 90 144 140.5t222 50.5q188 0 297 -119t109 -316v-561q0 -53 -54 -53h-82q-53 0 -53 53v531q0 139 -70 220
t-200 81q-141 0 -217 -84t-76 -217v-531q0 -53 -53 -53h-82q-53 0 -53 53v918q0 53 53 53h61q54 0 54 -53z" />
    <glyph glyph-name="Eng" unicode="&#x14a;" horiz-adv-x="1550" 
d="M381 1141v-1082q0 -59 -59 -59h-76q-60 0 -60 59v1315q0 60 60 60h100q32 0 48.5 -8.5t35.5 -36.5l739 -1096v1081q0 60 60 60h76q59 0 59 -60v-1378q0 -184 -68 -285q-65 -94 -192 -129q-20 -4 -29 -4q-32 0 -43 37l-14 49q-4 16 -4 23q0 27 26 39q77 27 111 106
q25 61 25 164v6q-29 4 -56 43z" />
    <glyph glyph-name="eng" unicode="&#x14b;" horiz-adv-x="1255" 
d="M334 971v-113q51 90 144 140.5t222 50.5q188 0 297 -119t109 -316v-618q0 -184 -68 -285q-65 -94 -192 -129q-20 -4 -29 -4q-32 0 -43 37l-14 49q-4 16 -4 23q0 27 26 39q77 27 111 106q25 61 25 164v588q0 139 -70.5 220t-200.5 81q-141 0 -217 -84t-76 -217v-531
q0 -53 -53 -53h-82q-53 0 -53 53v918q0 53 53 53h62q53 0 53 -53z" />
    <glyph glyph-name="Omacron" unicode="&#x14c;" horiz-adv-x="1695" 
d="M848 1458q164 0 306.5 -56.5t242.5 -154.5t157.5 -235.5t57.5 -294.5t-57.5 -294.5t-157.5 -236t-242.5 -155t-306.5 -56.5q-163 0 -305.5 56.5t-243 155t-158 236t-57.5 294.5q0 209 98 378.5t273 266t393 96.5zM848 156q159 0 288 73.5t202 202t73 285.5t-73 285.5
t-202 202t-288 73.5t-288 -73.5t-202 -202t-73 -285.5t73 -285.5t202 -202t288 -73.5zM578 1784h540q43 0 43 -43v-51q0 -43 -43 -43h-540q-43 0 -43 43v51q0 43 43 43z" />
    <glyph glyph-name="omacron" unicode="&#x14d;" horiz-adv-x="1277" 
d="M639 1049q242 0 399.5 -152t157.5 -385t-157.5 -385t-399.5 -152t-399.5 152t-157.5 385t157.5 385t399.5 152zM639 135q161 0 266 107.5t105 269.5t-105 269.5t-266 107.5t-266 -107.5t-105 -269.5t105 -269.5t266 -107.5zM369 1405h540q43 0 43 -43v-51q0 -43 -43 -43
h-540q-43 0 -43 43v51q0 43 43 43z" />
    <glyph glyph-name="Obreve" unicode="&#x14e;" horiz-adv-x="1695" 
d="M848 1458q164 0 306.5 -56.5t242.5 -154.5t157.5 -235.5t57.5 -294.5t-57.5 -294.5t-157.5 -236t-242.5 -155t-306.5 -56.5q-163 0 -305.5 56.5t-243 155t-158 236t-57.5 294.5q0 209 98 378.5t273 266t393 96.5zM848 156q159 0 288 73.5t202 202t73 285.5t-73 285.5
t-202 202t-288 73.5t-288 -73.5t-202 -202t-73 -285.5t73 -285.5t202 -202t288 -73.5zM588 1862h53q37 0 43 -33q8 -72 50 -116t114 -44t114 44t50 116q6 33 43 33h53q41 0 41 -37q0 -105 -78 -183q-81 -81 -223 -81t-223 81q-78 78 -78 183q0 37 41 37z" />
    <glyph glyph-name="obreve" unicode="&#x14f;" horiz-adv-x="1277" 
d="M639 1049q242 0 399.5 -152t157.5 -385t-157.5 -385t-399.5 -152t-399.5 152t-157.5 385t157.5 385t399.5 152zM639 135q161 0 266 107.5t105 269.5t-105 269.5t-266 107.5t-266 -107.5t-105 -269.5t105 -269.5t266 -107.5zM379 1483h53q37 0 43 -33q8 -72 50 -116
t114 -44t114 44t50 116q6 33 43 33h53q41 0 41 -37q0 -104 -78 -182q-82 -82 -223 -82t-223 82q-78 78 -78 182q0 37 41 37z" />
    <glyph glyph-name="Ohungarumlaut" unicode="&#x150;" horiz-adv-x="1695" 
d="M848 1458q164 0 306.5 -56.5t242.5 -154.5t157.5 -235.5t57.5 -294.5t-57.5 -294.5t-157.5 -236t-242.5 -155t-306.5 -56.5q-163 0 -305.5 56.5t-243 155t-158 236t-57.5 294.5q0 209 98 378.5t273 266t393 96.5zM848 156q159 0 288 73.5t202 202t73 285.5t-73 285.5
t-202 202t-288 73.5t-288 -73.5t-202 -202t-73 -285.5t73 -285.5t202 -202t288 -73.5zM1020 1575l-25 20q-16 16 -16 31t14 29l189 211q16 16 28 16q17 0 31 -14l49 -47q15 -15 15 -31q0 -12 -17 -29l-209 -186q-14 -14 -28 -14q-17 0 -31 14zM662 1575l-25 20
q-16 16 -16 31t14 29l188 211q16 16 29 16q17 0 31 -14l49 -47q14 -14 14 -31q0 -13 -16 -29l-209 -186q-14 -14 -29 -14q-16 0 -30 14z" />
    <glyph glyph-name="ohungarumlaut" unicode="&#x151;" horiz-adv-x="1277" 
d="M639 1049q242 0 399.5 -152t157.5 -385t-157.5 -385t-399.5 -152t-399.5 152t-157.5 385t157.5 385t399.5 152zM639 135q161 0 266 107.5t105 269.5t-105 269.5t-266 107.5t-266 -107.5t-105 -269.5t105 -269.5t266 -107.5zM811 1196l-25 21q-16 16 -16 30q0 15 14 29
l189 211q16 16 28 16q17 0 31 -14l49 -47q15 -15 15 -31q0 -12 -17 -29l-209 -186q-14 -14 -28 -14q-17 0 -31 14zM453 1196l-25 21q-16 16 -16 30q0 15 14 29l188 211q16 16 29 16q17 0 31 -14l49 -47q14 -14 14 -31q0 -13 -16 -29l-209 -186q-14 -14 -29 -14q-16 0 -30 14
z" />
    <glyph glyph-name="OE" unicode="&#x152;" horiz-adv-x="2441" 
d="M1608 1268v-475h518q59 0 59 -60v-43q0 -59 -59 -59h-518v-465h692q59 0 59 -60v-47q0 -59 -59 -59h-823q-60 0 -60 59v217q-85 -147 -240 -224t-337 -77q-214 0 -387 96.5t-271 266.5t-98 379q0 157 57.5 294.5t157.5 235.5t240.5 154.5t300.5 56.5q180 0 336 -78
t241 -223v217q0 60 60 60h802q60 0 60 -60v-47q0 -59 -60 -59h-671zM848 156q159 0 288 73.5t202 202t73 285.5t-73 285.5t-202 202t-288 73.5t-288 -73.5t-202 -202t-73 -285.5t73 -285.5t202 -202t288 -73.5z" />
    <glyph glyph-name="oe" unicode="&#x153;" horiz-adv-x="2129" 
d="M1923 242l41 -33q25 -21 25 -41q0 -11 -13 -27q-74 -81 -188 -122.5t-242 -41.5q-162 0 -284 78q-101 64 -166 191q-54 -115 -162 -187q-125 -82 -295 -82q-241 -1 -399 150.5t-158 384.5t158 384.5t399 150.5q175 0 299 -84q103 -69 158 -185q63 126 159 189
q124 80 291 80q146 0 261 -70.5t178 -192t63 -270.5v-14q0 -51 -53 -51h-793q13 -145 109 -228q100 -86 239 -86q86 -2 168.5 25.5t139.5 83.5q12 12 28 12t37 -14zM1206 578h656q-7 145 -99 231q-91 88 -217 88q-139 0 -231 -86q-96 -89 -109 -233zM639 135
q160 0 265.5 108.5t105.5 268.5t-105.5 268.5t-265.5 108.5t-265.5 -108.5t-105.5 -268.5t105.5 -268.5t265.5 -108.5z" />
    <glyph glyph-name="Racute" unicode="&#x154;" horiz-adv-x="1357" 
d="M1018 45l-273 498q-35 -2 -96 -2l-268 -2v-480q0 -59 -59 -59h-76q-60 0 -60 59v1315q0 60 60 60h426q85 0 160.5 -12t150 -43t127.5 -79t86 -126t33 -179q0 -155 -77.5 -261.5t-217.5 -151.5l289 -527q6 -12 6 -22q0 -14 -10.5 -23.5t-28.5 -9.5h-96q-31 0 -47 9.5
t-29 35.5zM381 692h315q71 1 131 17.5t109 49.5t76.5 89.5t27.5 130.5q0 61 -18.5 110t-50 81.5t-76 54.5t-94 32t-105.5 11h-315v-576zM625 1579l-21 25q-12 15 -12 28q0 15 16 31l236 207q14 14 28 14q15 0 31 -16l47 -53q13 -13 13 -27q0 -18 -19 -31l-262 -186
q-13 -10 -27 -10q-15 0 -30 18z" />
    <glyph glyph-name="racute" unicode="&#x155;" horiz-adv-x="751" 
d="M334 971v-113q46 83 135.5 129.5t218.5 46.5q50 0 66 -6q28 -11 28 -39q0 -11 -6 -26l-22 -64q-13 -35 -41 -35q-13 0 -38 3t-38 3q-145 0 -214 -78t-69 -208v-531q0 -53 -53 -53h-82q-53 0 -53 53v918q0 53 53 53h62q53 0 53 -53zM389 1200l-20 25q-13 16 -13 28
q0 14 17 31l235 207q14 14 29 14t31 -16l47 -53q12 -12 12 -27q0 -19 -18 -31l-263 -186q-13 -10 -26 -10q-16 0 -31 18z" />
    <glyph glyph-name="Rcommaaccent" unicode="&#x156;" horiz-adv-x="1357" 
d="M1018 45l-273 498q-35 -2 -96 -2l-268 -2v-480q0 -59 -59 -59h-76q-60 0 -60 59v1315q0 60 60 60h426q85 0 160.5 -12t150 -43t127.5 -79t86 -126t33 -179q0 -155 -77.5 -261.5t-217.5 -151.5l289 -527q6 -12 6 -22q0 -14 -10.5 -23.5t-28.5 -9.5h-96q-31 0 -47 9.5
t-29 35.5zM381 692h315q71 1 131 17.5t109 49.5t76.5 89.5t27.5 130.5q0 61 -18.5 110t-50 81.5t-76 54.5t-94 32t-105.5 11h-315v-576zM610 -612l-12 14q-12 12 -12 23q0 6 6 12q32 40 43 61q13 24 20 70q-41 6 -66.5 36t-25.5 70q0 46 31.5 78.5t77.5 32.5
q45 0 76.5 -32.5t31.5 -78.5q2 -79 -29.5 -155.5t-88.5 -130.5q-13 -13 -27 -13q-12 0 -25 13z" />
    <glyph glyph-name="rcommaaccent" unicode="&#x157;" horiz-adv-x="751" 
d="M334 971v-113q46 83 135.5 129.5t218.5 46.5q50 0 66 -6q28 -11 28 -39q0 -11 -6 -26l-22 -64q-13 -35 -41 -35q-13 0 -38 3t-38 3q-145 0 -214 -78t-69 -208v-531q0 -53 -53 -53h-82q-53 0 -53 53v918q0 53 53 53h62q53 0 53 -53zM205 -612l-12 14q-13 13 -13 23
q0 6 6 12q32 40 43 61q14 27 21 70q-41 6 -66.5 36t-25.5 70q0 46 31.5 78.5t76.5 32.5q46 0 77.5 -32.5t31.5 -78.5q2 -78 -30 -155t-89 -131q-13 -13 -27 -13q-11 0 -24 13z" />
    <glyph glyph-name="Rcaron" unicode="&#x158;" horiz-adv-x="1357" 
d="M1018 45l-273 498q-35 -2 -96 -2l-268 -2v-480q0 -59 -59 -59h-76q-60 0 -60 59v1315q0 60 60 60h426q85 0 160.5 -12t150 -43t127.5 -79t86 -126t33 -179q0 -155 -77.5 -261.5t-217.5 -151.5l289 -527q6 -12 6 -22q0 -14 -10.5 -23.5t-28.5 -9.5h-96q-31 0 -47 9.5
t-29 35.5zM381 692h315q71 1 131 17.5t109 49.5t76.5 89.5t27.5 130.5q0 61 -18.5 110t-50 81.5t-76 54.5t-94 32t-105.5 11h-315v-576zM602 1677l227 191q15 12 29 12q15 0 31 -16l24 -29q15 -15 15 -29q0 -13 -17 -30l-215 -197q-22 -17 -36 -24t-37 -7h-43q-37 0 -76 31
l-213 197q-19 16 -19 30t15 29l26 29q16 16 31 16q14 0 29 -12z" />
    <glyph glyph-name="rcaron" unicode="&#x159;" horiz-adv-x="751" 
d="M336 971v-113q46 83 135.5 129.5t218.5 46.5q50 0 66 -6q28 -11 28 -39q0 -11 -6 -26l-22 -64q-13 -35 -41 -35q-13 0 -38 3t-38 3q-145 0 -214 -78t-69 -208v-531q0 -53 -53 -53h-82q-53 0 -53 53v918q0 53 53 53h62q53 0 53 -53zM479 1298l228 191q12 12 26 12
q17 0 33 -16l25 -29q14 -14 14 -29q0 -13 -17 -30l-215 -197q-22 -17 -36 -24t-37 -7h-43q-37 0 -76 31l-213 197q-18 15 -18 30t14 29l26 29q13 16 29 16q13 0 31 -12z" />
    <glyph glyph-name="Sacute" unicode="&#x15a;" horiz-adv-x="1177" 
d="M502 866l258 -102q183 -72 258.5 -163.5t75.5 -231.5q0 -125 -68.5 -215t-185.5 -134.5t-269 -44.5q-242 3 -405 136q-82 66 -98 114q-2 4 -2 13q0 21 22 47l37 43q17 20 37 20q18 0 33 -18q64 -87 164 -132.5t212 -45.5q143 0 231.5 58t88.5 167q0 76 -48.5 128
t-164.5 99l-264 107q-303 123 -303 385q0 156 128 259t336 103q190 0 340 -82q29 -15 44.5 -24t34 -28t18.5 -38t-19 -41l-30 -37q-24 -24 -48 -24q-15 0 -26 8q-137 98 -314 98q-123 0 -195.5 -54.5t-72.5 -139.5q0 -77 46.5 -133.5t148.5 -96.5zM489 1579l-20 25
q-12 15 -12 28q0 15 16 31l236 207q14 14 28 14q15 0 31 -16l47 -53q12 -12 12 -27q0 -19 -18 -31l-262 -186q-13 -10 -27 -10q-19 0 -31 18z" />
    <glyph glyph-name="sacute" unicode="&#x15b;" horiz-adv-x="946" 
d="M811 864l-35 -43q-16 -22 -39 -22q-16 0 -26 10q-109 94 -232 94q-85 0 -133.5 -34t-48.5 -93q0 -90 119 -135l200 -74q123 -42 185.5 -108.5t62.5 -186.5q0 -150 -102.5 -223.5t-286.5 -73.5q-148 3 -254 58q-83 42 -137 108q-16 22 -16 39q0 18 16 37l41 47
q16 19 35 19q18 0 30 -15q124 -134 289 -137q93 0 147 35t54 106q0 69 -38 101.5t-128 66.5l-182 68q-98 33 -153.5 103.5t-55.5 164.5q0 130 96.5 201.5t255.5 71.5q207 0 338 -117q16 -13 16 -31q0 -19 -18 -37zM375 1200l-21 25q-12 15 -12 28q0 15 16 31l236 207
q14 14 31 14q15 0 28 -16l47 -53q13 -13 13 -27q0 -18 -19 -31l-262 -186q-13 -10 -24 -10q-18 0 -33 18z" />
    <glyph glyph-name="Scircumflex" unicode="&#x15c;" horiz-adv-x="1177" 
d="M502 866l258 -102q183 -72 258.5 -163.5t75.5 -231.5q0 -125 -68.5 -215t-185.5 -134.5t-269 -44.5q-242 3 -405 136q-82 66 -98 114q-2 4 -2 13q0 21 22 47l37 43q17 20 37 20q18 0 33 -18q64 -87 164 -132.5t212 -45.5q143 0 231.5 58t88.5 167q0 76 -48.5 128
t-164.5 99l-264 107q-303 123 -303 385q0 156 128 259t336 103q190 0 340 -82q29 -15 44.5 -24t34 -28t18.5 -38t-19 -41l-30 -37q-24 -24 -48 -24q-15 0 -26 8q-137 98 -314 98q-123 0 -195.5 -54.5t-72.5 -139.5q0 -77 46.5 -133.5t148.5 -96.5zM580 1769l-230 -190
q-15 -12 -28 -12q-15 0 -31 16l-27 29q-14 14 -14 28q0 16 18 31l213 197q37 30 76 30h43q36 0 74 -30l215 -197q16 -16 16 -31q0 -14 -14 -28l-25 -29q-16 -16 -30 -16q-17 0 -29 12z" />
    <glyph glyph-name="scircumflex" unicode="&#x15d;" horiz-adv-x="946" 
d="M811 864l-35 -43q-16 -22 -39 -22q-16 0 -26 10q-109 94 -232 94q-85 0 -133.5 -34t-48.5 -93q0 -90 119 -135l200 -74q123 -42 185.5 -108.5t62.5 -186.5q0 -150 -102.5 -223.5t-286.5 -73.5q-148 3 -254 58q-83 42 -137 108q-16 22 -16 39q0 18 16 37l41 47
q16 19 35 19q18 0 30 -15q124 -134 289 -137q93 0 147 35t54 106q0 69 -38 101.5t-128 66.5l-182 68q-98 33 -153.5 103.5t-55.5 164.5q0 130 96.5 201.5t255.5 71.5q207 0 338 -117q16 -13 16 -31q0 -19 -18 -37zM465 1391l-229 -191q-15 -12 -29 -12q-15 0 -31 16l-26 29
q-13 16 -13 29t17 30l213 197q39 31 75 31h43q23 0 38 -7t36 -24l215 -197q17 -17 17 -30q0 -14 -15 -29l-24 -29q-16 -16 -31 -16q-14 0 -29 12z" />
    <glyph glyph-name="Scedilla" unicode="&#x15e;" horiz-adv-x="1177" 
d="M629 -23l-17 -73q90 -8 140.5 -50.5t50.5 -117.5q0 -83 -67.5 -129.5t-178.5 -46.5q-89 0 -170 34q-29 13 -29 37q0 7 7 21l10 20q11 25 33 25q10 0 16 -2q73 -27 133 -27q115 0 115 68q0 67 -119 67h-55q-35 0 -35 31q0 8 2 12l35 134q-201 23 -334 131q-82 66 -98 114
q-2 4 -2 13q0 21 22 47l37 43q17 20 37 20q18 0 33 -18q64 -87 164 -132.5t212 -45.5q143 0 231.5 58t88.5 167q0 76 -48.5 128t-164.5 99l-264 107q-303 123 -303 385q0 156 128 259t336 103q190 0 340 -82q29 -15 44.5 -24t34 -28t18.5 -38t-19 -41l-30 -37
q-24 -24 -48 -24q-15 0 -26 8q-137 98 -314 98q-123 0 -195.5 -54.5t-72.5 -139.5q0 -77 46.5 -133.5t148.5 -96.5l258 -102q183 -72 258.5 -163.5t75.5 -231.5q-6 -213 -185 -316q-119 -69 -280 -76z" />
    <glyph glyph-name="scedilla" unicode="&#x15f;" horiz-adv-x="946" 
d="M350 -154l37 138q-92 10 -166 49q-83 42 -137 108q-16 22 -16 39q0 18 16 37l41 47q16 19 35 19q18 0 30 -15q124 -134 289 -137q93 0 147 35t54 106q0 69 -38 101.5t-128 66.5l-182 68q-98 33 -153.5 103.5t-55.5 164.5q0 130 96.5 201.5t255.5 71.5q207 0 338 -117
q16 -13 16 -31q0 -19 -18 -37l-35 -43q-16 -22 -39 -22q-16 0 -26 10q-109 94 -232 94q-85 0 -133.5 -34t-48.5 -93q0 -90 119 -135l200 -74q123 -42 185.5 -108.5t62.5 -186.5q-7 -168 -129 -241q-93 -51 -221 -54l-16 -73q90 -8 140 -50.5t50 -117.5q0 -83 -67.5 -129.5
t-178.5 -46.5q-90 0 -168 34q-28 12 -28 37q0 5 4 21l10 20q11 25 35 25q10 0 14 -2q73 -27 133 -27q115 0 115 68q0 67 -119 67h-55q-35 0 -35 31q0 8 2 12z" />
    <glyph glyph-name="Scaron" unicode="&#x160;" horiz-adv-x="1177" 
d="M502 866l258 -102q183 -72 258.5 -163.5t75.5 -231.5q0 -125 -68.5 -215t-185.5 -134.5t-269 -44.5q-242 3 -405 136q-82 66 -98 114q-2 4 -2 13q0 21 22 47l37 43q17 20 37 20q18 0 33 -18q64 -87 164 -132.5t212 -45.5q143 0 231.5 58t88.5 167q0 76 -48.5 128
t-164.5 99l-264 107q-303 123 -303 385q0 156 128 259t336 103q190 0 340 -82q29 -15 44.5 -24t34 -28t18.5 -38t-19 -41l-30 -37q-24 -24 -48 -24q-15 0 -26 8q-137 98 -314 98q-123 0 -195.5 -54.5t-72.5 -139.5q0 -77 46.5 -133.5t148.5 -96.5zM580 1677l227 191
q12 12 29 12q14 0 30 -16l25 -29q14 -14 14 -29q0 -14 -16 -30l-215 -197q-21 -17 -36 -24t-38 -7h-43q-37 0 -76 31l-213 197q-18 15 -18 30t14 29l27 29q16 16 31 16q13 0 28 -12z" />
    <glyph glyph-name="scaron" unicode="&#x161;" horiz-adv-x="946" 
d="M811 864l-35 -43q-16 -22 -39 -22q-16 0 -26 10q-109 94 -232 94q-85 0 -133.5 -34t-48.5 -93q0 -90 119 -135l200 -74q123 -42 185.5 -108.5t62.5 -186.5q0 -150 -102.5 -223.5t-286.5 -73.5q-148 3 -254 58q-83 42 -137 108q-16 22 -16 39q0 18 16 37l41 47
q16 19 35 19q18 0 30 -15q124 -134 289 -137q93 0 147 35t54 106q0 69 -38 101.5t-128 66.5l-182 68q-98 33 -153.5 103.5t-55.5 164.5q0 130 96.5 201.5t255.5 71.5q207 0 338 -117q16 -13 16 -31q0 -19 -18 -37zM465 1298l227 191q15 12 29 12q15 0 31 -16l24 -29
q15 -15 15 -29q0 -13 -17 -30l-215 -197q-21 -17 -36 -24t-38 -7h-43q-36 0 -75 31l-213 197q-17 17 -17 30t13 29l26 29q16 16 31 16q14 0 29 -12z" />
    <glyph glyph-name="Tcommaaccent" unicode="&#x162;" horiz-adv-x="1222" 
d="M670 2l-23 -98q90 -8 140.5 -50.5t50.5 -117.5q0 -83 -67.5 -129.5t-178.5 -46.5q-89 0 -170 34q-29 13 -29 37q0 9 6 21l11 20q11 25 34 25q9 0 15 -2q73 -27 133 -27q115 0 115 68q0 67 -119 67h-56q-34 0 -34 31q0 8 2 12l41 160q-27 14 -27 53v1205h-432
q-59 0 -59 59v51q0 60 59 60h1059q59 0 59 -60v-51q0 -59 -59 -59h-432v-1205q0 -46 -39 -57z" />
    <glyph glyph-name="tcommaaccent" unicode="&#x163;" horiz-adv-x="792" 
d="M584 -23l-17 -73q90 -8 140.5 -50.5t50.5 -117.5q0 -83 -67.5 -129.5t-178.5 -46.5q-89 0 -170 34q-29 13 -29 37q0 9 6 21l11 20q11 25 35 25q8 0 14 -2q73 -27 133 -27q115 0 115 68q0 67 -119 67h-55q-35 0 -35 31q0 8 2 12l37 138q-113 29 -174 110q-72 97 -76 258
v529h-131q-53 0 -53 53v37q0 53 53 53h135v315q0 25 10.5 38.5t34.5 19.5l86 22q6 2 16 2q37 0 37 -43v-354h260q54 0 54 -53v-37q0 -53 -54 -53h-260v-494q0 -118 42.5 -183t127.5 -65q57 0 121 23q4 2 14 2q26 0 41 -33l23 -51q6 -12 6 -27q0 -25 -31 -41
q-72 -35 -155 -35z" />
    <glyph glyph-name="Tcaron" unicode="&#x164;" horiz-adv-x="1222" 
d="M514 1264h-432q-59 0 -59 59v51q0 60 59 60h1059q59 0 59 -60v-51q0 -59 -59 -59h-432v-1205q0 -59 -60 -59h-76q-59 0 -59 59v1205zM612 1677l228 191q15 12 28 12q15 0 31 -16l25 -29q14 -14 14 -29q0 -14 -16 -30l-215 -197q-21 -17 -36 -24t-38 -7h-43q-37 0 -76 31
l-213 197q-18 15 -18 30t14 29l27 29q16 16 30 16t29 -12z" />
    <glyph glyph-name="tcaron" unicode="&#x165;" horiz-adv-x="921" 
d="M395 881v-494q0 -118 42.5 -183t127.5 -65q57 0 121 23q4 2 14 2q26 0 41 -33l23 -51q6 -12 6 -27q0 -78 -227 -78q-156 0 -246 101.5t-90 275.5v529h-131q-53 0 -53 53v37q0 53 53 53h135v315q0 25 10.5 38.5t34.5 19.5l86 22q6 2 16 2q37 0 37 -43v-354h260
q54 0 54 -53v-37q0 -53 -54 -53h-260zM764 1190l84 303q11 43 57 43h92q18 0 28.5 -9.5t10.5 -23.5q0 -6 -4 -18l-114 -307q-17 -41 -62 -41h-51q-43 0 -43 37q0 10 2 16z" />
    <glyph glyph-name="Tbar" unicode="&#x166;" horiz-adv-x="1222" 
d="M709 870h174q43 0 43 -43v-51q0 -43 -43 -43h-174v-674q0 -59 -60 -59h-76q-59 0 -59 59v674h-172q-43 0 -43 43v51q0 43 43 43h172v394h-432q-59 0 -59 59v51q0 60 59 60h1059q59 0 59 -60v-51q0 -59 -59 -59h-432v-394z" />
    <glyph glyph-name="tbar" unicode="&#x167;" horiz-adv-x="792" 
d="M395 725h271q43 0 43 -43v-57q0 -43 -43 -43h-271v-195q0 -118 42.5 -183t127.5 -65q57 0 121 23q4 2 14 2q26 0 41 -33l23 -51q6 -12 6 -27q0 -25 -31 -41q-75 -37 -196 -37q-156 0 -246 101.5t-90 275.5v230h-141q-43 0 -43 43v57q0 43 43 43h141v156h-131
q-53 0 -53 53v37q0 53 53 53h135v315q0 25 10.5 38.5t34.5 19.5l86 22q6 2 16 2q37 0 37 -43v-354h260q54 0 54 -53v-37q0 -53 -54 -53h-260v-156z" />
    <glyph glyph-name="Utilde" unicode="&#x168;" horiz-adv-x="1560" 
d="M360 1374v-811q0 -180 108 -293.5t312 -113.5t312 113.5t108 293.5v811q0 60 60 60h75q60 0 60 -60v-821q0 -126 -40.5 -231.5t-117 -182.5t-193.5 -120.5t-264 -43.5q-146 0 -263 43.5t-193.5 121t-117 183t-40.5 230.5v821q0 60 59 60h76q59 0 59 -60zM543 1597h-49
q-41 0 -41 37q0 108 61 166q47 47 123 47q31 0 62.5 -12.5t51.5 -25.5t50 -37q28 -21 39.5 -29t32.5 -17.5t38 -9.5q14 0 25 7t17 13.5t12 24t7 22.5l5 25q6 33 43 33h49q41 0 41 -37q0 -108 -63 -168q-48 -45 -121 -45q-32 0 -65 13t-50.5 25t-50.5 36q-26 19 -39.5 28
t-33.5 18t-36 9q-23 0 -37.5 -16t-19 -32t-8.5 -42q-5 -33 -43 -33z" />
    <glyph glyph-name="utilde" unicode="&#x169;" horiz-adv-x="1234" 
d="M901 53v113q-48 -91 -138.5 -141t-217.5 -50q-184 0 -289.5 119t-105.5 316v561q0 53 53 53h82q53 0 53 -53v-531q0 -139 67.5 -220t192.5 -81q136 0 209.5 84t73.5 217v531q0 53 53 53h82q53 0 53 -53v-918q0 -53 -53 -53h-62q-53 0 -53 53zM371 1219h-49q-41 0 -41 36
q0 108 61 166q47 47 123 47q31 0 62.5 -12.5t51.5 -25.5t50 -37q28 -21 39.5 -29t32.5 -17.5t38 -9.5q21 0 35.5 15.5t19.5 31.5t10 40q1 4 1 6q6 32 43 32h49q41 0 41 -37q0 -107 -64 -168q-48 -45 -120 -45q-32 0 -65 13t-50.5 25t-50.5 36q-26 19 -39.5 28t-33.5 18
t-36 9q-23 0 -37.5 -16t-19 -32t-8.5 -42q-5 -32 -43 -32z" />
    <glyph glyph-name="Umacron" unicode="&#x16a;" horiz-adv-x="1560" 
d="M360 1374v-811q0 -180 108 -293.5t312 -113.5t312 113.5t108 293.5v811q0 60 60 60h75q60 0 60 -60v-821q0 -126 -40.5 -231.5t-117 -182.5t-193.5 -120.5t-264 -43.5q-146 0 -263 43.5t-193.5 121t-117 183t-40.5 230.5v821q0 60 59 60h76q59 0 59 -60zM510 1784h541
q43 0 43 -43v-51q0 -43 -43 -43h-541q-43 0 -43 43v51q0 43 43 43z" />
    <glyph glyph-name="umacron" unicode="&#x16b;" horiz-adv-x="1234" 
d="M901 53v113q-48 -91 -138.5 -141t-217.5 -50q-184 0 -289.5 119t-105.5 316v561q0 53 53 53h82q53 0 53 -53v-531q0 -139 67.5 -220t192.5 -81q136 0 209.5 84t73.5 217v531q0 53 53 53h82q53 0 53 -53v-918q0 -53 -53 -53h-62q-53 0 -53 53zM340 1405h541q43 0 43 -43
v-51q0 -43 -43 -43h-541q-43 0 -43 43v51q0 43 43 43z" />
    <glyph glyph-name="Ubreve" unicode="&#x16c;" horiz-adv-x="1560" 
d="M360 1374v-811q0 -180 108 -293.5t312 -113.5t312 113.5t108 293.5v811q0 60 60 60h75q60 0 60 -60v-821q0 -126 -40.5 -231.5t-117 -182.5t-193.5 -120.5t-264 -43.5q-146 0 -263 43.5t-193.5 121t-117 183t-40.5 230.5v821q0 60 59 60h76q59 0 59 -60zM520 1862h53
q37 0 43 -33q8 -72 50 -116t114 -44t114 44t50 116q6 33 43 33h53q41 0 41 -37q0 -106 -77 -183q-81 -81 -224 -81q-142 0 -223 81q-78 78 -78 183q0 37 41 37z" />
    <glyph glyph-name="ubreve" unicode="&#x16d;" horiz-adv-x="1234" 
d="M901 53v113q-48 -91 -138.5 -141t-217.5 -50q-184 0 -289.5 119t-105.5 316v561q0 53 53 53h82q53 0 53 -53v-531q0 -139 67.5 -220t192.5 -81q136 0 209.5 84t73.5 217v531q0 53 53 53h82q53 0 53 -53v-918q0 -53 -53 -53h-62q-53 0 -53 53zM350 1483h53q37 0 43 -33
q8 -72 50 -116t114 -44t114 44t50 116q6 33 43 33h53q41 0 41 -37q0 -105 -77 -182q-82 -82 -224 -82q-141 0 -223 82q-78 78 -78 182q0 37 41 37z" />
    <glyph glyph-name="Uring" unicode="&#x16e;" horiz-adv-x="1560" 
d="M360 1374v-811q0 -180 108 -293.5t312 -113.5t312 113.5t108 293.5v811q0 60 60 60h75q60 0 60 -60v-821q0 -126 -40.5 -231.5t-117 -182.5t-193.5 -120.5t-264 -43.5q-146 0 -263 43.5t-193.5 121t-117 183t-40.5 230.5v821q0 60 59 60h76q59 0 59 -60zM780 1870
q82 0 133.5 -49.5t51.5 -124.5q0 -72 -54.5 -124t-130.5 -52q-75 0 -128.5 52t-53.5 124q0 75 50 124.5t132 49.5zM672 1696q0 -44 32 -76.5t76 -32.5t77.5 32.5t33.5 76.5q0 45 -31 75.5t-80 30.5q-47 0 -77.5 -30.5t-30.5 -75.5z" />
    <glyph glyph-name="uring" unicode="&#x16f;" horiz-adv-x="1234" 
d="M901 53v113q-48 -91 -138.5 -141t-217.5 -50q-184 0 -289.5 119t-105.5 316v561q0 53 53 53h82q53 0 53 -53v-531q0 -139 67.5 -220t192.5 -81q136 0 209.5 84t73.5 217v531q0 53 53 53h82q53 0 53 -53v-918q0 -53 -53 -53h-62q-53 0 -53 53zM608 1491q82 0 133.5 -49.5
t51.5 -124.5q0 -72 -54.5 -124t-130.5 -52q-75 0 -128.5 52t-53.5 124q0 75 50 124.5t132 49.5zM500 1317q0 -44 32 -76.5t76 -32.5t77.5 32.5t33.5 76.5q0 45 -31 75.5t-80 30.5q-47 0 -77.5 -30.5t-30.5 -75.5z" />
    <glyph glyph-name="Uhungarumlaut" unicode="&#x170;" horiz-adv-x="1560" 
d="M360 1374v-811q0 -180 108 -293.5t312 -113.5t312 113.5t108 293.5v811q0 60 60 60h75q60 0 60 -60v-821q0 -126 -40.5 -231.5t-117 -182.5t-193.5 -120.5t-264 -43.5q-146 0 -263 43.5t-193.5 121t-117 183t-40.5 230.5v821q0 60 59 60h76q59 0 59 -60zM922 1575l-25 20
q-16 16 -16 31t14 29l188 211q16 16 29 16q17 0 31 -14l49 -47q14 -14 14 -31q0 -13 -16 -29l-209 -186q-14 -14 -29 -14q-16 0 -30 14zM563 1575l-24 20q-17 17 -17 31t15 29l188 211q16 16 29 16q16 0 30 -14l50 -47q14 -14 14 -31q0 -12 -17 -29l-208 -186
q-14 -14 -29 -14q-17 0 -31 14z" />
    <glyph glyph-name="uhungarumlaut" unicode="&#x171;" horiz-adv-x="1234" 
d="M901 53v113q-48 -91 -138.5 -141t-217.5 -50q-184 0 -289.5 119t-105.5 316v561q0 53 53 53h82q53 0 53 -53v-531q0 -139 67.5 -220t192.5 -81q136 0 209.5 84t73.5 217v531q0 53 53 53h82q53 0 53 -53v-918q0 -53 -53 -53h-62q-53 0 -53 53zM752 1196l-25 21
q-16 16 -16 30q0 15 14 29l188 211q16 16 29 16q17 0 31 -14l49 -47q14 -14 14 -31q0 -13 -16 -29l-209 -186q-14 -14 -29 -14q-16 0 -30 14zM393 1196l-24 21q-17 17 -17 30q0 14 15 29l188 211q16 16 29 16q16 0 30 -14l50 -47q14 -14 14 -31q0 -13 -16 -29l-209 -186
q-14 -14 -29 -14q-17 0 -31 14z" />
    <glyph glyph-name="Uogonek" unicode="&#x172;" horiz-adv-x="1560" 
d="M1395 1374v-821q-3 -142 -47 -248q-52 -128 -162.5 -209t-253.5 -108q-84 -49 -123 -88q-54 -51 -57 -125q0 -107 135 -107q17 0 31 2q4 0 12.5 1t11.5 1q28 0 33 -30l4 -29q6 -43 -33 -49q-20 -4 -63 -4q-128 0 -194 55t-66 156q3 122 137 204q-118 8 -185 25
q-107 28 -193.5 91.5t-139.5 156.5q-69 121 -76 305v821q0 60 59 60h76q59 0 59 -60v-811q0 -180 108 -293.5t312 -113.5t312 113.5t108 293.5v811q0 60 60 60h75q60 0 60 -60z" />
    <glyph glyph-name="uogonek" unicode="&#x173;" horiz-adv-x="1234" 
d="M1092 -358l4 -29q6 -43 -33 -49q-20 -4 -64 -4q-128 0 -194 55t-66 156q3 78 57 137.5t134 95.5q-29 12 -29 49v113q-48 -91 -138.5 -141t-217.5 -50q-184 0 -289.5 119t-105.5 316v561q0 53 53 53h82q53 0 53 -53v-531q0 -139 67.5 -220t192.5 -81q136 0 209.5 84
t73.5 217v531q0 53 53 53h82q53 0 53 -53v-926q0 -45 -37 -65q-37 -23 -59.5 -39t-50 -42.5t-41 -57t-13.5 -66.5q0 -52 35 -79.5t101 -27.5q16 0 30 2q4 0 13 1t12 1q28 0 33 -30z" />
    <glyph glyph-name="Wcircumflex" unicode="&#x174;" horiz-adv-x="2086" 
d="M1044 1161l-296 -1110q-7 -28 -22.5 -39.5t-43.5 -11.5h-115q-28 0 -43 11.5t-24 37.5l-447 1325q-4 16 -4 21q0 17 12.5 28t34.5 11h97q27 0 42.5 -11.5t24.5 -38.5l369 -1153l303 1151q11 52 63 52h97q52 0 63 -52l303 -1151l369 1153q9 27 24.5 38.5t42.5 11.5h97
q22 0 34.5 -11t12.5 -28q0 -5 -4 -21l-449 -1325q-9 -26 -24 -37.5t-43 -11.5h-113q-28 0 -43.5 11.5t-22.5 39.5zM1044 1769l-229 -190q-15 -12 -29 -12t-30 16l-27 29q-14 14 -14 28q0 16 18 31l213 197q38 30 76 30h43q37 0 74 -30l215 -197q16 -16 16 -31q0 -14 -14 -28
l-25 -29q-16 -16 -31 -16q-16 0 -28 12z" />
    <glyph glyph-name="wcircumflex" unicode="&#x175;" horiz-adv-x="1583" 
d="M793 838l-189 -793q-8 -45 -55 -45h-123q-25 0 -38 10t-21 33l-316 930q-2 6 -2 16q0 15 11 25t28 10h102q46 0 60 -43l237 -786l189 784q6 25 19 35t38 10h121q25 0 38 -10t19 -35l185 -784l241 786q11 43 58 43h100q20 0 30.5 -9.5t10.5 -25.5q0 -10 -4 -16l-315 -930
q-14 -43 -60 -43h-123q-47 0 -55 45zM793 1391l-230 -191q-15 -12 -28 -12q-15 0 -31 16l-27 29q-12 15 -12 29t16 30l213 197q39 31 76 31h43q23 0 38 -7t36 -24l215 -197q18 -15 18 -30q0 -16 -16 -29l-25 -29q-13 -16 -30 -16q-14 0 -29 12z" />
    <glyph glyph-name="Ycircumflex" unicode="&#x176;" horiz-adv-x="1361" 
d="M682 684l397 705q15 26 31 35.5t47 9.5h96q18 0 28.5 -9.5t10.5 -23.5q0 -11 -6 -23l-508 -876v-443q0 -59 -59 -59h-76q-59 0 -59 59v443l-510 876q-6 12 -6 23q0 14 10 23.5t28 9.5h97q31 0 47 -9.5t31 -35.5zM682 1769l-229 -190q-15 -12 -29 -12q-15 0 -31 16l-26 29
q-13 16 -13 28q0 14 17 31l213 197q38 30 75 30h43q36 0 74 -30l215 -197q17 -17 17 -31q0 -13 -15 -28l-24 -29q-16 -16 -31 -16q-14 0 -29 12z" />
    <glyph glyph-name="ycircumflex" unicode="&#x177;" horiz-adv-x="1146" 
d="M573 190l326 793q9 23 23 32t39 9h98q17 0 27 -8.5t10 -22.5q0 -8 -4 -20l-510 -1172q-57 -132 -122 -183.5t-167 -51.5q-96 0 -156 35q-22 14 -22 39q0 13 6 28l22 49q11 29 37 29q7 0 15 -4q43 -18 90 -18t76 22.5t55 79.5l78 174h-17l-422 973q-4 12 -4 20
q0 14 10 22.5t27 8.5h98q25 0 39.5 -9t24.5 -32zM575 1391l-229 -191q-15 -12 -29 -12t-30 16l-27 29q-12 15 -12 29t16 30l213 197q39 31 76 31h43q23 0 38 -7t36 -24l215 -197q16 -16 16 -30q0 -15 -14 -29l-25 -29q-16 -16 -31 -16q-13 0 -28 12z" />
    <glyph glyph-name="Ydieresis" unicode="&#x178;" horiz-adv-x="1361" 
d="M682 684l397 705q15 26 31 35.5t47 9.5h96q18 0 28.5 -9.5t10.5 -23.5q0 -11 -6 -23l-508 -876v-443q0 -59 -59 -59h-76q-59 0 -59 59v443l-510 876q-6 12 -6 23q0 14 10 23.5t28 9.5h97q31 0 47 -9.5t31 -35.5zM457 1874q45 0 78.5 -33t33.5 -78q0 -44 -33 -77t-79 -33
q-44 0 -77.5 33t-33.5 77t33.5 77.5t77.5 33.5zM903 1874q44 0 77.5 -33.5t33.5 -77.5t-33.5 -77t-77.5 -33t-77 33t-33 77t33 77.5t77 33.5z" />
    <glyph glyph-name="Zacute" unicode="&#x179;" horiz-adv-x="1214" 
d="M883 1264h-733q-60 0 -60 59v51q0 60 60 60h911q59 0 59 -58v-37q0 -35 -10 -59t-35 -57l-772 -1053h809q59 0 59 -59v-52q0 -59 -59 -59h-993q-60 0 -60 57v37q0 36 10.5 60t34.5 57zM526 1579l-20 25q-12 15 -12 28q0 15 16 31l235 207q14 14 29 14t31 -16l47 -53
q12 -12 12 -27q0 -19 -18 -31l-262 -186q-13 -10 -27 -10q-16 0 -31 18z" />
    <glyph glyph-name="zacute" unicode="&#x17a;" horiz-adv-x="1075" 
d="M326 143h592q53 0 53 -53v-37q0 -53 -53 -53h-762q-54 0 -54 51v39q0 30 8.5 49.5t30.5 46.5l584 695h-539q-53 0 -53 53v37q0 53 53 53h691q53 0 53 -51v-39q0 -31 -8 -50t-31 -48zM449 1200l-21 25q-12 15 -12 28q0 15 16 31l236 207q14 14 28 14q15 0 31 -16l47 -53
q12 -12 12 -27q0 -19 -18 -31l-262 -186q-13 -10 -27 -10q-15 0 -30 18z" />
    <glyph glyph-name="Zdotaccent" unicode="&#x17b;" horiz-adv-x="1214" 
d="M883 1264h-733q-60 0 -60 59v51q0 60 60 60h911q59 0 59 -58v-37q0 -35 -10 -59t-35 -57l-772 -1053h809q59 0 59 -59v-52q0 -59 -59 -59h-993q-60 0 -60 57v37q0 36 10.5 60t34.5 57zM616 1886q50 0 86.5 -37t36.5 -86t-36.5 -86t-86.5 -37q-49 0 -85.5 36.5t-36.5 86.5
t36.5 86.5t85.5 36.5z" />
    <glyph glyph-name="zdotaccent" unicode="&#x17c;" horiz-adv-x="1075" 
d="M326 143h592q53 0 53 -53v-37q0 -53 -53 -53h-762q-54 0 -54 51v39q0 30 8.5 49.5t30.5 46.5l584 695h-539q-53 0 -53 53v37q0 53 53 53h691q53 0 53 -51v-39q0 -31 -8 -50t-31 -48zM537 1507q49 0 85.5 -36.5t36.5 -86.5t-36.5 -86t-85.5 -36q-50 0 -86.5 36.5
t-36.5 85.5q0 50 37 86.5t86 36.5z" />
    <glyph glyph-name="Zcaron" unicode="&#x17d;" horiz-adv-x="1214" 
d="M883 1264h-733q-60 0 -60 59v51q0 60 60 60h911q59 0 59 -58v-37q0 -35 -10 -59t-35 -57l-772 -1053h809q59 0 59 -59v-52q0 -59 -59 -59h-993q-60 0 -60 57v37q0 36 10.5 60t34.5 57zM616 1677l228 191q15 12 28 12q15 0 31 -16l25 -29q14 -14 14 -29q0 -14 -16 -30
l-215 -197q-21 -17 -36 -24t-38 -7h-43q-37 0 -76 31l-213 197q-18 15 -18 30t14 29l27 29q16 16 30 16t29 -12z" />
    <glyph glyph-name="zcaron" unicode="&#x17e;" horiz-adv-x="1075" 
d="M326 143h592q53 0 53 -53v-37q0 -53 -53 -53h-762q-54 0 -54 51v39q0 30 8.5 49.5t30.5 46.5l584 695h-539q-53 0 -53 53v37q0 53 53 53h691q53 0 53 -51v-39q0 -31 -8 -50t-31 -48zM539 1298l227 191q15 12 29 12t30 -16l25 -29q14 -14 14 -29q0 -14 -16 -30l-215 -197
q-21 -17 -36 -24t-38 -7h-43q-37 0 -76 31l-213 197q-18 15 -18 30t14 29l27 29q16 16 31 16q13 0 28 -12z" />
    <glyph glyph-name="longs" unicode="&#x17f;" horiz-adv-x="718" 
d="M211 1024v147q0 172 108 281t275 109q92 0 174 -27q33 -11 33 -43q0 -13 -6 -25l-17 -43q-15 -37 -43 -37q-6 0 -12 3q-66 16 -127 16q-97 0 -147 -64t-50 -176v-1112q0 -53 -53 -53h-82q-53 0 -53 53v828h-131q-53 0 -53 53v37q0 53 53 53h131z" />
    <glyph glyph-name="florin" unicode="&#x192;" 
d="M758 1024h264q53 0 53 -53v-37q0 -53 -53 -53h-264v-867q0 -174 -100.5 -281.5t-266.5 -107.5q-106 0 -186 27q-33 11 -33 41q0 12 6 24l17 45q5 12 7 16.5t7 10.5t11.5 8t17.5 2q20 0 66.5 -9t66.5 -9q99 0 148.5 63.5t49.5 175.5v861h-131q-53 0 -53 53v37q0 53 53 53
h131v147q0 172 108 281t275 109q84 0 166 -25q41 -12 41 -41q0 -12 -6 -27l-18 -45q-5 -16 -16.5 -26.5t-26.5 -10.5q-7 0 -13 3q-66 16 -125 16q-97 0 -146.5 -64t-49.5 -176v-141z" />
    <glyph glyph-name="uni01C4" unicode="&#x1c4;" horiz-adv-x="2799" 
d="M246 1434h473q350 0 556 -195t206 -522t-206 -522t-556 -195h-473q-60 0 -60 59v1315q0 60 60 60zM381 1264v-1094h348q253 0 402 150t149 397t-149 397t-402 150h-348zM2468 1264h-733q-60 0 -60 59v51q0 60 60 60h911q59 0 59 -58v-37q0 -35 -10 -59t-35 -57
l-772 -1053h809q60 0 60 -59v-52q0 -59 -60 -59h-993q-59 0 -59 57v37q0 36 10.5 60t34.5 57zM2202 1677l227 191q15 12 29 12t30 -16l25 -29q14 -14 14 -29q0 -14 -16 -30l-215 -197q-21 -17 -36 -24t-38 -7h-43q-37 0 -76 31l-213 197q-18 15 -18 30t14 29l27 29
q16 16 31 16q13 0 28 -12z" />
    <glyph glyph-name="uni01C5" unicode="&#x1c5;" horiz-adv-x="2660" 
d="M246 1434h473q350 0 556 -195t206 -522t-206 -522t-556 -195h-473q-60 0 -60 59v1315q0 60 60 60zM381 1264v-1094h348q253 0 402 150t149 397t-149 397t-402 150h-348zM1911 143h592q53 0 53 -53v-37q0 -53 -53 -53h-762q-53 0 -53 51v39q0 31 8 50.5t30 45.5l584 695
h-538q-54 0 -54 53v37q0 53 54 53h690q53 0 53 -51v-39q0 -31 -8 -50t-31 -48zM2124 1298l227 191q15 12 29 12t30 -16l25 -29q14 -14 14 -29q0 -14 -16 -30l-215 -197q-21 -17 -36 -24t-38 -7h-43q-37 0 -76 31l-213 197q-18 15 -18 30t14 29l27 29q16 16 31 16
q13 0 28 -12z" />
    <glyph glyph-name="uni01C6" unicode="&#x1c6;" horiz-adv-x="2387" 
d="M967 858v580q0 46 43 57l84 25q6 2 18 2q35 0 35 -41v-1428q0 -53 -53 -53h-54q-53 0 -53 53v125q-65 -97 -167.5 -150t-229.5 -53q-226 0 -367 150t-141 387t141 387t367 150q116 0 215.5 -50.5t161.5 -140.5zM623 139q153 0 251.5 106t98.5 267t-98.5 267t-251.5 106
t-254 -106.5t-101 -266.5t101 -266.5t254 -106.5zM1638 143h592q54 0 54 -53v-37q0 -53 -54 -53h-762q-53 0 -53 51v39q0 30 8.5 49.5t30.5 46.5l584 695h-539q-53 0 -53 53v37q0 53 53 53h690q54 0 54 -51v-39q0 -31 -8 -50t-31 -48zM1851 1298l228 191q15 12 28 12
q15 0 31 -16l25 -29q14 -14 14 -29q0 -14 -16 -30l-215 -197q-21 -17 -36 -24t-38 -7h-43q-37 0 -76 31l-213 197q-18 15 -18 30t14 29l27 29q16 16 30 16t29 -12z" />
    <glyph glyph-name="uni01C7" unicode="&#x1c7;" horiz-adv-x="2246" 
d="M381 170h616q60 0 60 -59v-52q0 -59 -60 -59h-751q-60 0 -60 59v1315q0 60 60 60h76q59 0 59 -60v-1204zM1876 430v944q0 60 59 60h76q60 0 60 -60v-954q0 -229 -123 -337t-340 -108q-196 0 -338 107q-84 60 -99 96q-4 12 -4 19q0 18 19 41l28 38q19 25 39 25
q21 0 41 -20q81 -74 144 -105t161 -31q135 0 206 64.5t71 220.5z" />
    <glyph glyph-name="uni01C8" unicode="&#x1c8;" horiz-adv-x="1658" 
d="M381 170h616q60 0 60 -59v-52q0 -59 -60 -59h-751q-60 0 -60 59v1315q0 60 60 60h76q59 0 59 -60v-1204zM1397 1507q49 0 86 -36.5t37 -86.5q0 -49 -36.5 -85.5t-86.5 -36.5t-86.5 36.5t-36.5 85.5q0 50 37 86.5t86 36.5zM1491 971v-975q0 -184 -68 -285
q-65 -94 -192 -129q-20 -4 -29 -4q-32 0 -43 37l-14 49q-4 16 -4 23q0 27 26 39q77 27 111 106q25 61 25 164v975q0 53 53 53h84q51 0 51 -53z" />
    <glyph glyph-name="uni01C9" unicode="&#x1c9;" horiz-adv-x="1058" 
d="M354 1481v-1428q0 -53 -53 -53h-82q-53 0 -53 53v1389q0 46 45 57l90 23q6 2 16 2q37 0 37 -43zM797 1507q49 0 86 -36.5t37 -86.5q0 -49 -36.5 -85.5t-86.5 -36.5t-86.5 36.5t-36.5 85.5q0 50 37 86.5t86 36.5zM891 971v-975q0 -184 -68 -285q-65 -94 -192 -129
q-20 -4 -29 -4q-32 0 -43 37l-14 49q-4 16 -4 23q0 27 26 39q77 27 111 106q24 59 24 164v975q0 53 54 53h84q51 0 51 -53z" />
    <glyph glyph-name="uni01CA" unicode="&#x1ca;" horiz-adv-x="2676" 
d="M1169 293v1081q0 60 60 60h76q59 0 59 -60v-1315q0 -59 -59 -59h-101q-32 0 -48.5 8.5t-35.5 36.5l-739 1096v-1082q0 -59 -59 -59h-76q-60 0 -60 59v1315q0 60 60 60h100q32 0 48.5 -8.5t35.5 -36.5zM2306 430v944q0 60 59 60h76q60 0 60 -60v-954q0 -229 -123 -337
t-340 -108q-196 0 -338 107q-82 59 -98 96q-5 15 -5 19q0 18 19 41l29 38q19 25 38 25q21 0 41 -20q80 -74 143.5 -105t162.5 -31q135 0 205.5 64.5t70.5 220.5z" />
    <glyph glyph-name="uni01CB" unicode="&#x1cb;" horiz-adv-x="2088" 
d="M1169 293v1081q0 60 60 60h76q59 0 59 -60v-1315q0 -59 -59 -59h-101q-32 0 -48.5 8.5t-35.5 36.5l-739 1096v-1082q0 -59 -59 -59h-76q-60 0 -60 59v1315q0 60 60 60h100q32 0 48.5 -8.5t35.5 -36.5zM1827 1507q49 0 86 -36.5t37 -86.5q0 -49 -36.5 -85.5t-86.5 -36.5
t-86.5 36.5t-36.5 85.5q0 50 37 86.5t86 36.5zM1921 971v-975q0 -184 -68 -285q-65 -94 -192 -129q-20 -4 -29 -4q-32 0 -43 37l-14 49q-4 16 -4 23q0 27 26 39q77 27 111 106q25 61 25 164v975q0 53 53 53h84q51 0 51 -53z" />
    <glyph glyph-name="uni01CC" unicode="&#x1cc;" horiz-adv-x="1794" 
d="M334 971v-113q51 90 144 140.5t222 50.5q188 0 297 -119t109 -316v-561q0 -53 -53 -53h-82q-53 0 -53 53v531q0 139 -70.5 220t-200.5 81q-141 0 -217 -84t-76 -217v-531q0 -53 -53 -53h-82q-53 0 -53 53v918q0 53 53 53h62q53 0 53 -53zM1532 1507q50 0 86.5 -36.5
t36.5 -86.5q0 -49 -36.5 -85.5t-86.5 -36.5t-86.5 36.5t-36.5 85.5q0 50 36.5 86.5t86.5 36.5zM1626 971v-975q0 -185 -67 -285q-65 -93 -193 -129q-20 -4 -29 -4q-32 0 -43 37l-14 49q-4 16 -4 23q0 27 27 39q76 27 110 106q25 61 25 164v975q0 53 53 53h84q51 0 51 -53z
" />
    <glyph glyph-name="uni01CD" unicode="&#x1cd;" horiz-adv-x="1462" 
d="M367 313l-109 -266q-10 -27 -25 -37t-45 -10h-92q-45 0 -45 37q0 10 6 22l553 1327q12 28 27.5 38t44.5 10h100q29 0 44.5 -10t25.5 -38l553 -1327q4 -16 4 -22q0 -37 -43 -37h-92q-30 0 -45 10t-25 37l-106 266h-731zM1032 483l-301 740l-301 -740h602zM733 1677
l228 191q12 12 26 12q17 0 33 -16l24 -29q15 -15 15 -29q0 -13 -17 -30l-215 -197q-22 -17 -36 -24t-37 -7h-43q-37 0 -76 31l-213 197q-19 16 -19 30t15 29l26 29q13 16 29 16q13 0 31 -12z" />
    <glyph glyph-name="uni01CE" unicode="&#x1ce;" horiz-adv-x="1198" 
d="M889 53v74q-112 -152 -365 -152q-176 0 -289.5 96t-113.5 253q0 159 118 253.5t298 94.5q98 0 167 -11.5t164 -39.5l-2 34q-6 115 -75.5 182.5t-202.5 67.5q-157 3 -301 -69q-12 -9 -25 -9q-24 0 -39 31l-14 33q-8 13 -8 29q0 22 24 38q139 91 363 91q213 0 337 -113
t124 -295v-588q0 -53 -54 -53h-53q-53 0 -53 53zM868 358v134q-75 26 -137.5 35.5t-148.5 9.5q-119 0 -199 -58.5t-80 -154.5q0 -93 76 -151t186 -58q133 0 218 65.5t85 177.5zM586 1298l227 191q15 12 29 12t30 -16l25 -29q14 -14 14 -29q0 -14 -16 -30l-215 -197
q-21 -17 -36 -24t-38 -7h-43q-37 0 -76 31l-213 197q-18 15 -18 30t14 29l27 29q16 16 31 16q13 0 28 -12z" />
    <glyph glyph-name="uni01CF" unicode="&#x1cf;" horiz-adv-x="567" 
d="M381 1374v-1315q0 -59 -59 -59h-76q-60 0 -60 59v1315q0 60 60 60h76q59 0 59 -60zM285 1677l227 191q12 12 27 12q16 0 32 -16l25 -29q14 -14 14 -29q0 -14 -16 -30l-215 -197q-21 -17 -36 -24t-38 -7h-43q-37 0 -76 31l-213 197q-18 15 -18 30t14 29l27 29q13 16 29 16
q12 0 30 -12z" />
    <glyph glyph-name="uni01D0" unicode="&#x1d0;" horiz-adv-x="520" 
d="M219 1024h82q53 0 53 -53v-918q0 -53 -53 -53h-82q-53 0 -53 53v918q0 53 53 53zM260 1298l227 191q12 12 27 12q17 0 33 -16l24 -29q15 -15 15 -29q0 -13 -17 -30l-215 -197q-22 -17 -36 -24t-37 -7h-43q-37 0 -76 31l-213 197q-19 16 -19 30t15 29l26 29q13 16 29 16
q13 0 31 -12z" />
    <glyph glyph-name="uni01D1" unicode="&#x1d1;" horiz-adv-x="1695" 
d="M848 1458q164 0 306.5 -56.5t242.5 -154.5t157.5 -235.5t57.5 -294.5t-57.5 -294.5t-157.5 -236t-242.5 -155t-306.5 -56.5q-163 0 -305.5 56.5t-243 155t-158 236t-57.5 294.5q0 209 98 378.5t273 266t393 96.5zM848 156q159 0 288 73.5t202 202t73 285.5t-73 285.5
t-202 202t-288 73.5t-288 -73.5t-202 -202t-73 -285.5t73 -285.5t202 -202t288 -73.5zM850 1677l227 191q15 12 29 12q15 0 31 -16l24 -29q15 -15 15 -29q0 -13 -17 -30l-215 -197q-21 -17 -36 -24t-38 -7h-43q-36 0 -75 31l-213 197q-19 16 -19 30t15 29l26 29q16 16 31 16
q14 0 29 -12z" />
    <glyph glyph-name="uni01D2" unicode="&#x1d2;" horiz-adv-x="1277" 
d="M639 1049q242 0 399.5 -152t157.5 -385t-157.5 -385t-399.5 -152t-399.5 152t-157.5 385t157.5 385t399.5 152zM639 135q161 0 266 107.5t105 269.5t-105 269.5t-266 107.5t-266 -107.5t-105 -269.5t105 -269.5t266 -107.5zM641 1298l227 191q15 12 29 12q15 0 31 -16
l24 -29q15 -15 15 -29q0 -13 -17 -30l-215 -197q-22 -17 -36 -24t-37 -7h-44q-36 0 -75 31l-213 197q-19 16 -19 30t15 29l26 29q16 16 31 16q14 0 29 -12z" />
    <glyph glyph-name="uni01D3" unicode="&#x1d3;" horiz-adv-x="1560" 
d="M360 1374v-811q0 -180 108 -293.5t312 -113.5t312 113.5t108 293.5v811q0 60 60 60h75q60 0 60 -60v-821q0 -126 -40.5 -231.5t-117 -182.5t-193.5 -120.5t-264 -43.5q-146 0 -263 43.5t-193.5 121t-117 183t-40.5 230.5v821q0 60 59 60h76q59 0 59 -60zM782 1677
l228 191q15 12 28 12q15 0 31 -16l25 -29q14 -14 14 -29q0 -14 -16 -30l-215 -197q-21 -17 -36 -24t-38 -7h-43q-37 0 -76 31l-213 197q-18 15 -18 30t14 29l27 29q16 16 30 16t29 -12z" />
    <glyph glyph-name="uni01D4" unicode="&#x1d4;" horiz-adv-x="1234" 
d="M901 53v113q-48 -91 -138.5 -141t-217.5 -50q-184 0 -289.5 119t-105.5 316v561q0 53 53 53h82q53 0 53 -53v-531q0 -139 67.5 -220t192.5 -81q136 0 209.5 84t73.5 217v531q0 53 53 53h82q53 0 53 -53v-918q0 -53 -53 -53h-62q-53 0 -53 53zM610 1298l228 191
q15 12 28 12q15 0 31 -16l25 -29q14 -14 14 -29q0 -14 -16 -30l-215 -197q-21 -17 -36 -24t-38 -7h-43q-37 0 -76 31l-213 197q-18 15 -18 30t14 29l27 29q16 16 30 16t29 -12z" />
    <glyph glyph-name="Gcaron" unicode="&#x1e6;" horiz-adv-x="1542" 
d="M1217 612h-365q-59 0 -59 60v51q0 59 59 59h496q59 0 59 -59v-432q0 -40 -7 -63t-30 -48q-68 -75 -203 -137q-158 -68 -346 -68q-215 0 -384 97t-261 265.5t-92 379.5q0 157 54 294t150 235.5t234 155t299 56.5q237 0 424 -115q102 -60 117 -98q4 -12 4 -16
q0 -24 -27 -43l-57 -47q-22 -19 -41 -19q-20 0 -35 15q-80 71 -179.5 109t-205.5 38q-237 0 -386.5 -160t-149.5 -405t149.5 -405t386.5 -160q235 0 396 145v315zM809 1677l227 191q15 12 29 12q15 0 31 -16l24 -29q15 -15 15 -29q0 -13 -17 -30l-215 -197q-21 -17 -36 -24
t-38 -7h-43q-36 0 -75 31l-213 197q-19 16 -19 30t15 29l26 29q16 16 31 16q14 0 29 -12z" />
    <glyph glyph-name="gcaron" unicode="&#x1e7;" horiz-adv-x="1275" 
d="M934 -8v207q-57 -85 -152.5 -132t-212.5 -47q-215 0 -351 142.5t-136 372.5q1 152 63 269.5t172.5 181t251.5 63.5q120 0 219 -48t162 -143v113q0 53 54 53h53q53 0 53 -53v-989q0 -193 -135 -304.5t-373 -111.5q-256 0 -430 127q-27 18 -27 43q0 13 9 28l18 41
q13 29 37 29q13 0 24 -8q66 -45 144 -74q107 -43 225 -43q165 0 248.5 74t83.5 209zM602 180q148 0 244 100.5t96 254.5t-96 254t-244 100q-146 0 -242 -100t-96 -254t96 -254.5t242 -100.5zM598 1298l227 191q15 12 29 12q15 0 31 -16l24 -29q15 -15 15 -29q0 -13 -17 -30
l-215 -197q-21 -17 -36 -24t-38 -7h-43q-36 0 -75 31l-213 197q-19 16 -19 30t15 29l26 29q16 16 31 16q14 0 29 -12z" />
    <glyph glyph-name="uni01F4" unicode="&#x1f4;" horiz-adv-x="1542" 
d="M1217 612h-365q-59 0 -59 60v51q0 59 59 59h496q59 0 59 -59v-432q0 -40 -7 -63t-30 -48q-68 -75 -203 -137q-158 -68 -346 -68q-215 0 -384 97t-261 265.5t-92 379.5q0 157 54 294t150 235.5t234 155t299 56.5q237 0 424 -115q102 -60 117 -98q4 -12 4 -16
q0 -24 -27 -43l-57 -47q-22 -19 -41 -19q-20 0 -35 15q-80 71 -179.5 109t-205.5 38q-237 0 -386.5 -160t-149.5 -405t149.5 -405t386.5 -160q235 0 396 145v315zM719 1579l-21 25q-12 15 -12 28q0 15 16 31l236 207q14 14 29 14q14 0 30 -16l47 -53q13 -13 13 -27
q0 -18 -19 -31l-262 -186q-13 -10 -26 -10q-16 0 -31 18z" />
    <glyph glyph-name="uni01F5" unicode="&#x1f5;" horiz-adv-x="1275" 
d="M934 -8v207q-57 -85 -152.5 -132t-212.5 -47q-215 0 -351 142.5t-136 372.5q1 152 63 269.5t172.5 181t251.5 63.5q120 0 219 -48t162 -143v113q0 53 54 53h53q53 0 53 -53v-989q0 -193 -135 -304.5t-373 -111.5q-256 0 -430 127q-27 18 -27 43q0 13 9 28l18 41
q13 29 37 29q13 0 24 -8q66 -45 144 -74q107 -43 225 -43q165 0 248.5 74t83.5 209zM602 180q148 0 244 100.5t96 254.5t-96 254t-244 100q-146 0 -242 -100t-96 -254t96 -254.5t242 -100.5zM508 1200l-21 25q-12 15 -12 28q0 14 17 31l235 207q14 14 29 14q14 0 30 -16
l48 -53q12 -12 12 -27q0 -18 -19 -31l-262 -186q-13 -10 -26 -10q-16 0 -31 18z" />
    <glyph glyph-name="Aringacute" unicode="&#x1fa;" horiz-adv-x="1462" 
d="M367 313l-109 -266q-10 -27 -25 -37t-45 -10h-92q-45 0 -45 37q0 10 6 22l553 1327q12 28 27.5 38t44.5 10h100q29 0 44.5 -10t25.5 -38l553 -1327q4 -16 4 -22q0 -37 -43 -37h-92q-30 0 -45 10t-25 37l-106 266h-731zM1032 483l-301 740l-301 -740h602zM627 1968l-21 25
q-14 14 -14 28q0 16 18 31l236 207q11 14 28 14q15 0 31 -16l47 -53q13 -13 13 -27q0 -18 -19 -31l-262 -186q-17 -10 -27 -10q-18 0 -30 18zM731 1870q82 0 133 -49.5t51 -124.5q0 -72 -54 -124t-130 -52q-75 0 -128.5 52t-53.5 124q0 75 50 124.5t132 49.5zM623 1696
q0 -44 32 -76.5t76 -32.5t77.5 32.5t33.5 76.5q0 45 -31 75.5t-80 30.5q-47 0 -77.5 -30.5t-30.5 -75.5z" />
    <glyph glyph-name="aringacute" unicode="&#x1fb;" horiz-adv-x="1198" 
d="M889 53v74q-112 -152 -365 -152q-176 0 -289.5 96t-113.5 253q0 159 118 253.5t298 94.5q98 0 167 -11.5t164 -39.5l-2 34q-6 115 -75.5 182.5t-202.5 67.5q-157 3 -301 -69q-12 -9 -25 -9q-24 0 -39 31l-14 33q-8 13 -8 29q0 22 24 38q139 91 363 91q213 0 337 -113
t124 -295v-588q0 -53 -54 -53h-53q-53 0 -53 53zM868 358v134q-75 26 -137.5 35.5t-148.5 9.5q-119 0 -199 -58.5t-80 -154.5q0 -93 76 -151t186 -58q133 0 218 65.5t85 177.5zM467 1579l-21 25q-12 15 -12 28q0 14 17 31l235 207q14 14 29 14q14 0 30 -16l48 -53
q12 -12 12 -27q0 -18 -19 -31l-262 -186q-13 -10 -26 -10q-16 0 -31 18zM584 1491q82 0 133 -49.5t51 -124.5q0 -72 -54 -124t-130 -52q-75 0 -129 52t-54 124q0 75 50.5 124.5t132.5 49.5zM475 1317q0 -44 32.5 -76.5t76.5 -32.5t77 32.5t33 76.5q0 45 -30.5 75.5
t-79.5 30.5q-47 0 -78 -30.5t-31 -75.5z" />
    <glyph glyph-name="AEacute" unicode="&#x1fc;" horiz-adv-x="2095" 
d="M1071 285h-637l-155 -240q-19 -28 -35.5 -36.5t-48.5 -8.5h-97q-17 0 -27 8.5t-10 22.5q0 10 9 22l880 1336q19 28 35.5 36.5t48.5 8.5h899q60 0 60 -60v-47q0 -59 -60 -59h-671v-475h518q59 0 59 -60v-43q0 -59 -59 -59h-518v-465h692q59 0 59 -60v-47q0 -59 -59 -59
h-824q-59 0 -59 59v226zM1071 455v809l-528 -809h528zM1192 1579l-21 25q-12 15 -12 28q0 14 17 31l235 207q14 14 29 14q14 0 30 -16l48 -53q12 -12 12 -27q0 -18 -19 -31l-262 -186q-13 -10 -26 -10q-16 0 -31 18z" />
    <glyph glyph-name="aeacute" unicode="&#x1fd;" horiz-adv-x="1970" 
d="M1843 449h-790q10 -145 108 -228q99 -86 240 -86q86 -2 167.5 25.5t137.5 83.5q12 12 29 12q16 0 37 -14l40 -33q25 -21 25 -41q0 -15 -12 -27q-73 -79 -189 -121q-110 -43 -239 -43q-163 0 -285 76q-81 50 -147 150q-54 -99 -131 -152q-117 -76 -310 -76
q-176 0 -289.5 96t-113.5 253q0 159 117.5 253.5t298.5 94.5q98 0 166 -11.5t163 -39.5v34q0 112 -72 180t-206 68q-155 3 -299 -69q-17 -7 -27 -7q-24 0 -39 29l-14 35q-8 13 -8 29q0 22 24 38q142 93 363 89q149 -3 243 -58q100 -62 144 -166q58 91 137 144q124 82 285 82
q145 0 260 -71.5t177 -193t62 -270.5v-14q0 -51 -53 -51zM1055 578h655q-7 145 -98 233t-217 88q-140 0 -232 -86q-95 -88 -108 -235zM866 352v140q-74 26 -136 35.5t-148 9.5q-120 0 -199.5 -58.5t-79.5 -154.5q0 -93 75.5 -151t186.5 -58q130 0 215.5 66t85.5 171z
M856 1200l-20 25q-13 16 -13 28q0 14 17 31l235 207q14 14 29 14t31 -16l47 -53q12 -12 12 -27q0 -19 -18 -31l-263 -186q-13 -10 -26 -10q-16 0 -31 18z" />
    <glyph glyph-name="Oslashacute" unicode="&#x1fe;" horiz-adv-x="1716" 
d="M750 1579l-21 25q-12 15 -12 28q0 15 16 31l236 207q14 14 28 14q15 0 31 -16l47 -53q12 -12 12 -27q0 -19 -18 -31l-262 -186q-13 -10 -27 -10q-15 0 -30 18zM238 -59l137 192q-190 143 -254 381q-24 87 -27 203q0 209 98 378.5t273 266t393 96.5q134 -3 227 -28
q82 -23 164 -68l97 137q15 21 30 29t41 8h39q13 0 21 -7t8 -18q0 -9 -6 -18l-136 -190q187 -152 252 -377q24 -92 27 -209q0 -157 -57.5 -294.5t-157.5 -236t-242.5 -155t-306.5 -56.5q-161 7 -270 43q-47 16 -121 54l-96 -138q-15 -20 -30.5 -28t-41.5 -8h-39q-29 0 -29 24
q0 8 7 19zM1231 1145l-653 -920q64 -33 122 -49q59 -16 158 -20q159 0 288 73.5t202 202t73 285.5q-7 170 -75 289q-47 80 -115 139zM485 289l654 919q-63 32 -123 49q-64 17 -158 21q-159 0 -288 -73.5t-202 -202t-73 -285.5q6 -168 76 -289q48 -82 114 -139z" />
    <glyph glyph-name="oslashacute" unicode="&#x1ff;" horiz-adv-x="1277" 
d="M555 1200l-20 25q-13 16 -13 28q0 14 17 31l235 207q14 14 29 14t31 -16l47 -53q12 -12 12 -27q0 -18 -19 -31l-262 -186q-13 -10 -26 -10q-16 0 -31 18zM139 -66l127 168q-100 86 -147 211q-35 92 -35 199q-1 153 70 276t198.5 191.5t286.5 67.5q154 0 285 -70l88 119
q21 30 61 30h47q25 0 25 -20q0 -7 -6 -16l-127 -168q100 -86 147 -211q35 -92 35 -199q1 -233 -156 -384t-399 -148q-159 0 -285 67l-88 -119q-21 -30 -61 -30h-47q-25 0 -25 20q0 7 6 16zM377 252l442 586q-77 51 -180 51q-160 0 -265.5 -108.5t-105.5 -268.5
q0 -157 109 -260zM901 772l-442 -586q77 -51 180 -51q160 0 265.5 108.5t105.5 268.5q0 157 -109 260z" />
    <glyph glyph-name="uni0200" unicode="&#x200;" horiz-adv-x="1462" 
d="M367 313l-109 -266q-10 -27 -25 -37t-45 -10h-92q-45 0 -45 37q0 10 6 22l553 1327q12 28 27.5 38t44.5 10h100q29 0 44.5 -10t25.5 -38l553 -1327q4 -16 4 -22q0 -37 -43 -37h-92q-30 0 -45 10t-25 37l-106 266h-731zM1032 483l-301 740l-301 -740h602zM584 1595
l-25 -20q-14 -14 -31 -14q-14 0 -28 14l-209 186q-19 16 -19 29q0 14 17 31l49 47q11 14 29 14q14 0 30 -16l189 -211q12 -15 12 -29q0 -17 -14 -31zM942 1595l-24 -20q-14 -14 -31 -14q-15 0 -29 14l-209 186q-18 15 -18 29q0 15 16 31l49 47q11 14 29 14q15 0 31 -16
l188 -211q12 -15 12 -29q0 -17 -14 -31z" />
    <glyph glyph-name="uni0201" unicode="&#x201;" horiz-adv-x="1198" 
d="M889 53v74q-112 -152 -365 -152q-176 0 -289.5 96t-113.5 253q0 159 118 253.5t298 94.5q98 0 167 -11.5t164 -39.5l-2 34q-6 115 -75.5 182.5t-202.5 67.5q-157 3 -301 -69q-12 -9 -25 -9q-24 0 -39 31l-14 33q-8 13 -8 29q0 22 24 38q139 91 363 91q213 0 337 -113
t124 -295v-588q0 -53 -54 -53h-53q-53 0 -53 53zM868 358v134q-75 26 -137.5 35.5t-148.5 9.5q-119 0 -199 -58.5t-80 -154.5q0 -93 76 -151t186 -58q133 0 218 65.5t85 177.5zM438 1217l-24 -21q-14 -14 -29 -14q-17 0 -31 14l-209 186q-16 16 -16 29q0 17 14 31l50 47
q14 14 30 14q13 0 29 -16l188 -211q15 -15 15 -29q0 -13 -17 -30zM797 1217l-25 -21q-14 -14 -29 -14q-16 0 -30 14l-209 186q-17 17 -17 29q0 16 15 31l49 47q14 14 31 14q12 0 28 -16l189 -211q14 -14 14 -29q0 -14 -16 -30z" />
    <glyph glyph-name="Scommaaccent" unicode="&#x218;" horiz-adv-x="1177" 
d="M502 866l258 -102q183 -72 258.5 -163.5t75.5 -231.5q0 -125 -68.5 -215t-185.5 -134.5t-269 -44.5q-242 3 -405 136q-82 66 -98 114q-2 4 -2 13q0 21 22 47l37 43q17 20 37 20q18 0 33 -18q64 -87 164 -132.5t212 -45.5q143 0 231.5 58t88.5 167q0 76 -48.5 128
t-164.5 99l-264 107q-303 123 -303 385q0 156 128 259t336 103q190 0 340 -82q29 -15 44.5 -24t34 -28t18.5 -38t-19 -41l-30 -37q-24 -24 -48 -24q-15 0 -26 8q-137 98 -314 98q-123 0 -195.5 -54.5t-72.5 -139.5q0 -77 46.5 -133.5t148.5 -96.5zM530 -612l-12 14
q-12 9 -12 23q0 6 6 12q32 40 43 61q13 24 20 70q-41 6 -66.5 36t-25.5 70q0 46 31.5 78.5t77.5 32.5q45 0 76.5 -32.5t31.5 -78.5q2 -79 -29.5 -155.5t-88.5 -130.5q-13 -13 -27 -13q-12 0 -25 13z" />
    <glyph glyph-name="scommaaccent" unicode="&#x219;" horiz-adv-x="946" 
d="M811 864l-35 -43q-16 -22 -39 -22q-16 0 -26 10q-109 94 -232 94q-85 0 -133.5 -34t-48.5 -93q0 -90 119 -135l200 -74q123 -42 185.5 -108.5t62.5 -186.5q0 -150 -102.5 -223.5t-286.5 -73.5q-148 3 -254 58q-83 42 -137 108q-16 22 -16 39q0 18 16 37l41 47
q16 19 35 19q18 0 30 -15q124 -134 289 -137q93 0 147 35t54 106q0 69 -38 101.5t-128 66.5l-182 68q-98 33 -153.5 103.5t-55.5 164.5q0 130 96.5 201.5t255.5 71.5q207 0 338 -117q16 -13 16 -31q0 -19 -18 -37zM444 -612l-12 14q-10 10 -10 23q0 6 6 12q36 51 41 61
q13 24 20 70q-41 6 -66.5 36t-25.5 70q0 46 31.5 78.5t77.5 32.5q45 0 76.5 -32.5t31.5 -78.5q2 -79 -29.5 -155.5t-88.5 -130.5q-13 -13 -27 -13q-12 0 -25 13z" />
    <glyph glyph-name="uni021A" unicode="&#x21a;" horiz-adv-x="1222" 
d="M670 2l-23 -98q90 -8 140.5 -50.5t50.5 -117.5q0 -83 -67.5 -129.5t-178.5 -46.5q-89 0 -170 34q-29 13 -29 37q0 9 6 21l11 20q11 25 34 25q9 0 15 -2q73 -27 133 -27q115 0 115 68q0 67 -119 67h-56q-34 0 -34 31q0 8 2 12l41 160q-27 14 -27 53v1205h-432
q-59 0 -59 59v51q0 60 59 60h1059q59 0 59 -60v-51q0 -59 -59 -59h-432v-1205q0 -46 -39 -57z" />
    <glyph glyph-name="uni021B" unicode="&#x21b;" horiz-adv-x="792" 
d="M584 -23l-17 -73q90 -8 140.5 -50.5t50.5 -117.5q0 -83 -67.5 -129.5t-178.5 -46.5q-89 0 -170 34q-29 13 -29 37q0 9 6 21l11 20q11 25 35 25q8 0 14 -2q73 -27 133 -27q115 0 115 68q0 67 -119 67h-55q-35 0 -35 31q0 8 2 12l37 138q-113 29 -174 110q-72 97 -76 258
v529h-131q-53 0 -53 53v37q0 53 53 53h135v315q0 25 10.5 38.5t34.5 19.5l86 22q6 2 16 2q37 0 37 -43v-354h260q54 0 54 -53v-37q0 -53 -54 -53h-260v-494q0 -118 42.5 -183t127.5 -65q57 0 121 23q4 2 14 2q26 0 41 -33l23 -51q6 -12 6 -27q0 -25 -31 -41
q-72 -35 -155 -35z" />
    <glyph glyph-name="uni0226" unicode="&#x226;" horiz-adv-x="1462" 
d="M367 313l-109 -266q-10 -27 -25 -37t-45 -10h-92q-45 0 -45 37q0 10 6 22l553 1327q12 28 27.5 38t44.5 10h100q29 0 44.5 -10t25.5 -38l553 -1327q4 -16 4 -22q0 -37 -43 -37h-92q-30 0 -45 10t-25 37l-106 266h-731zM1032 483l-301 740l-301 -740h602zM731 1886
q49 0 86 -37t37 -86t-37 -86t-86 -37t-86 37t-37 86t37 86t86 37z" />
    <glyph glyph-name="uni0227" unicode="&#x227;" horiz-adv-x="1198" 
d="M889 53v74q-112 -152 -365 -152q-176 0 -289.5 96t-113.5 253q0 159 118 253.5t298 94.5q98 0 167 -11.5t164 -39.5l-2 34q-6 115 -75.5 182.5t-202.5 67.5q-157 3 -301 -69q-12 -9 -25 -9q-24 0 -39 31l-14 33q-8 13 -8 29q0 22 24 38q139 91 363 91q213 0 337 -113
t124 -295v-588q0 -53 -54 -53h-53q-53 0 -53 53zM868 358v134q-75 26 -137.5 35.5t-148.5 9.5q-119 0 -199 -58.5t-80 -154.5q0 -93 76 -151t186 -58q133 0 218 65.5t85 177.5zM586 1507q50 0 86.5 -36.5t36.5 -86.5q0 -49 -36.5 -85.5t-86.5 -36.5t-86.5 36.5t-36.5 85.5
q0 50 36.5 86.5t86.5 36.5z" />
    <glyph glyph-name="uni0237" unicode="&#x237;" horiz-adv-x="538" 
d="M371 971v-975q0 -184 -68 -285q-65 -94 -192 -129q-20 -4 -29 -4q-32 0 -43 37l-14 49q-5 20 -5 23q0 27 27 39q77 27 111 106q24 59 24 164v975q0 53 54 53h83q52 0 52 -53z" />
    <glyph glyph-name="uni02BB" unicode="&#x2bb;" horiz-adv-x="518" 
d="M342 1442l20 -23q11 -15 11 -20q0 -14 -17 -31q-72 -84 -84 -170q43 -7 71 -40.5t28 -76.5q0 -47 -35 -81.5t-84 -34.5t-83 34t-34 82q0 100 41.5 196t114.5 163q17 14 28 14t23 -12z" />
    <glyph glyph-name="afii57929" unicode="&#x2bc;" horiz-adv-x="512" 
d="M176 989l-20 23q-11 11 -11 20q0 14 17 31q72 84 84 170q-43 7 -71 40.5t-28 76.5q0 47 35 81.5t84 34.5t83 -34t34 -82q0 -100 -41.5 -196t-114.5 -163q-17 -14 -28 -14q-14 0 -23 12z" />
    <glyph glyph-name="circumflex" unicode="&#x2c6;" horiz-adv-x="1105" 
d="M553 1391l-229 -191q-18 -12 -31 -12q-16 0 -29 16l-26 29q-15 15 -15 29t19 30l213 197q39 31 75 31h43q23 0 38 -7t36 -24l215 -197q17 -17 17 -30q0 -14 -15 -29l-24 -29q-16 -16 -33 -16q-15 0 -27 12z" />
    <glyph glyph-name="caron" unicode="&#x2c7;" horiz-adv-x="1105" 
d="M553 1298l227 191q12 12 27 12q17 0 33 -16l24 -29q15 -15 15 -29q0 -13 -17 -30l-215 -197q-21 -17 -36 -24t-38 -7h-43q-36 0 -75 31l-213 197q-19 16 -19 30t15 29l26 29q13 16 29 16q13 0 31 -12z" />
    <glyph glyph-name="uni02C9" unicode="&#x2c9;" horiz-adv-x="1105" 
d="M283 1405h540q43 0 43 -43v-51q0 -43 -43 -43h-540q-43 0 -43 43v51q0 43 43 43z" />
    <glyph glyph-name="breve" unicode="&#x2d8;" horiz-adv-x="1105" 
d="M293 1483h53q37 0 43 -33q8 -72 50 -116t114 -44t114 44t50 116q6 33 43 33h53q41 0 41 -37q0 -104 -78 -182q-82 -82 -223 -82t-223 82q-78 78 -78 182q0 37 41 37z" />
    <glyph glyph-name="dotaccent" unicode="&#x2d9;" horiz-adv-x="1105" 
d="M553 1507q49 0 86 -36.5t37 -86.5q0 -49 -36.5 -85.5t-86.5 -36.5t-86.5 36.5t-36.5 85.5q0 50 37 86.5t86 36.5z" />
    <glyph glyph-name="ring" unicode="&#x2da;" horiz-adv-x="1105" 
d="M551 1491q82 0 133 -49.5t51 -124.5q0 -72 -54 -124t-130 -52q-75 0 -128.5 52t-53.5 124q0 75 50 124.5t132 49.5zM442 1317q0 -44 32.5 -76.5t76.5 -32.5t77.5 32.5t33.5 76.5q0 45 -31 75.5t-80 30.5q-47 0 -78 -30.5t-31 -75.5z" />
    <glyph glyph-name="ogonek" unicode="&#x2db;" horiz-adv-x="1105" 
d="M610 16l111 -16q-116 -65 -158.5 -115t-42.5 -110q0 -107 135 -107q17 0 31 2q4 0 13 1t12 1q27 0 32 -30l5 -29q6 -43 -33 -49q-20 -4 -64 -4q-128 0 -194 55t-66 156q0 71 55.5 137.5t163.5 107.5z" />
    <glyph glyph-name="tilde" unicode="&#x2dc;" horiz-adv-x="1105" 
d="M315 1219h-49q-41 0 -41 36q0 107 62 166q47 47 123 47q31 0 62.5 -12.5t51 -25.5t49.5 -37q27 -20 39.5 -28.5t33.5 -18t38 -9.5q21 0 35.5 15.5t19.5 31.5t10 40q1 4 1 6q6 32 43 32h49q41 0 41 -37q0 -107 -64 -168q-48 -45 -121 -45q-32 0 -65 13t-50.5 25t-50.5 36
q-27 20 -39.5 28.5t-32.5 17.5t-36 9q-23 0 -37.5 -16t-19.5 -32.5t-9 -41.5q-5 -32 -43 -32z" />
    <glyph glyph-name="hungarumlaut" unicode="&#x2dd;" horiz-adv-x="1105" 
d="M713 1196l-25 21q-16 13 -16 30q0 15 14 29l188 211q13 16 29 16q17 0 31 -14l49 -47q14 -14 14 -31q0 -13 -16 -29l-209 -186q-14 -14 -31 -14q-14 0 -28 14zM354 1196l-24 21q-17 14 -17 30q0 14 15 29l188 211q13 16 29 16t30 -14l50 -47q14 -14 14 -31q0 -13 -16 -29
l-209 -186q-14 -14 -31 -14q-15 0 -29 14z" />
    <glyph glyph-name="uni0312" unicode="&#x312;" horiz-adv-x="1105" 
d="M614 1567l13 -15q12 -12 12 -22q0 -6 -6 -12q-31 -38 -43 -62q-14 -27 -21 -70q41 -6 67 -36t26 -70q0 -46 -31.5 -78.5t-77.5 -32.5t-77.5 32.5t-31.5 78.5q-2 78 30 155.5t89 131.5q12 12 27 12q12 0 24 -12z" />
    <glyph glyph-name="uni0323" unicode="&#x323;" horiz-adv-x="1105" 
d="M553 -195q50 0 86.5 -36.5t36.5 -85.5q0 -51 -36.5 -87t-86.5 -36t-86.5 36t-36.5 87q0 49 36.5 85.5t86.5 36.5z" />
    <glyph glyph-name="uni037E" unicode="&#x37e;" horiz-adv-x="536" 
d="M274 1049q54 0 90.5 -37t36.5 -90t-36.5 -90t-90.5 -37q-52 0 -89.5 37.5t-37.5 89.5t37.5 89.5t89.5 37.5zM178 -281l-18 21q-10 13 -10 24q0 17 16 33q41 42 61 82.5t27 97.5q-46 8 -76.5 43t-30.5 82q0 52 37.5 89.5t89.5 37.5q54 0 90.5 -37t36.5 -90
q0 -107 -43.5 -209.5t-121.5 -173.5q-18 -14 -31 -14t-27 14z" />
    <glyph glyph-name="uni0387" unicode="&#x387;" horiz-adv-x="442" 
d="M221 772q53 0 90 -37t37 -90t-37 -90t-90 -37t-90 37t-37 90t37 90t90 37z" />
    <glyph glyph-name="uni04D4" unicode="&#x4d4;" horiz-adv-x="2095" 
d="M1071 285h-637l-155 -240q-19 -28 -35.5 -36.5t-48.5 -8.5h-97q-17 0 -27 8.5t-10 22.5q0 10 9 22l880 1336q19 28 35.5 36.5t48.5 8.5h899q60 0 60 -60v-47q0 -59 -60 -59h-671v-475h518q59 0 59 -60v-43q0 -59 -59 -59h-518v-465h692q59 0 59 -60v-47q0 -59 -59 -59
h-824q-59 0 -59 59v226zM1071 455v809l-528 -809h528z" />
    <glyph glyph-name="uni04D5" unicode="&#x4d5;" horiz-adv-x="1970" 
d="M1843 449h-790q10 -145 108 -228q99 -86 240 -86q86 -2 167.5 25.5t137.5 83.5q12 12 29 12q16 0 37 -14l40 -33q25 -21 25 -41q0 -15 -12 -27q-73 -79 -189 -121q-110 -43 -239 -43q-163 0 -285 76q-81 50 -147 150q-54 -99 -131 -152q-117 -76 -310 -76
q-176 0 -289.5 96t-113.5 253q0 159 117.5 253.5t298.5 94.5q98 0 166 -11.5t163 -39.5v34q0 112 -72 180t-206 68q-155 3 -299 -69q-17 -7 -27 -7q-24 0 -39 29l-14 35q-8 13 -8 29q0 22 24 38q142 93 363 89q149 -3 243 -58q100 -62 144 -166q58 91 137 144q124 82 285 82
q145 0 260 -71.5t177 -193t62 -270.5v-14q0 -51 -53 -51zM1055 578h655q-7 145 -98 233t-217 88q-140 0 -232 -86q-95 -88 -108 -235zM866 352v140q-74 26 -136 35.5t-148 9.5q-120 0 -199.5 -58.5t-79.5 -154.5q0 -93 75.5 -151t186.5 -58q130 0 215.5 66t85.5 171z" />
    <glyph glyph-name="uni1E1E" unicode="&#x1e1e;" horiz-adv-x="1185" 
d="M381 776h528q60 0 60 -59v-51q0 -60 -60 -60h-528v-547q0 -59 -59 -59h-76q-60 0 -60 59v1315q0 60 60 60h844q59 0 59 -60v-51q0 -59 -59 -59h-709v-488zM668 1886q50 0 86.5 -37t36.5 -86t-36.5 -86t-86.5 -37t-86.5 37t-36.5 86t36.5 86t86.5 37z" />
    <glyph glyph-name="uni1E1F" unicode="&#x1e1f;" horiz-adv-x="718" 
d="M399 881v-828q0 -53 -53 -53h-82q-53 0 -53 53v828h-131q-53 0 -53 53v37q0 53 53 53h131v147q0 172 108 281t275 109q92 0 174 -27q33 -11 33 -43q0 -13 -6 -25l-17 -43q-15 -37 -43 -37q-6 0 -12 3q-66 16 -127 16q-97 0 -147 -64t-50 -176v-141h265q53 0 53 -53v-37
q0 -53 -53 -53h-265zM526 1933q50 0 86.5 -36.5t36.5 -86.5q0 -49 -36.5 -85.5t-86.5 -36.5t-86.5 36.5t-36.5 85.5q0 50 36.5 86.5t86.5 36.5z" />
    <glyph glyph-name="Wgrave" unicode="&#x1e80;" horiz-adv-x="2086" 
d="M1044 1161l-296 -1110q-7 -28 -22.5 -39.5t-43.5 -11.5h-115q-28 0 -43 11.5t-24 37.5l-447 1325q-4 16 -4 21q0 17 12.5 28t34.5 11h97q27 0 42.5 -11.5t24.5 -38.5l369 -1153l303 1151q11 52 63 52h97q52 0 63 -52l303 -1151l369 1153q9 27 24.5 38.5t42.5 11.5h97
q22 0 34.5 -11t12.5 -28q0 -5 -4 -21l-449 -1325q-9 -26 -24 -37.5t-43 -11.5h-113q-28 0 -43.5 11.5t-22.5 39.5zM1153 1606l-23 -29q-16 -16 -30 -16q-10 0 -27 10l-258 186q-18 12 -18 31q0 15 12 27l43 51q16 16 31 16q13 0 28 -12l236 -209q16 -13 16 -29
q0 -13 -10 -26z" />
    <glyph glyph-name="wgrave" unicode="&#x1e81;" horiz-adv-x="1583" 
d="M793 838l-189 -793q-8 -45 -55 -45h-123q-25 0 -38 10t-21 33l-316 930q-2 6 -2 16q0 15 11 25t28 10h102q46 0 60 -43l237 -786l189 784q6 25 19 35t38 10h121q25 0 38 -10t19 -35l185 -784l241 786q11 43 58 43h100q20 0 30.5 -9.5t10.5 -25.5q0 -10 -4 -16l-315 -930
q-14 -43 -60 -43h-123q-47 0 -55 45zM901 1227l-22 -29q-13 -16 -29 -16q-12 0 -29 10l-258 186q-18 12 -18 31q0 15 12 27l43 51q16 16 33 16q14 0 26 -12l236 -209q18 -12 18 -29q0 -14 -12 -26z" />
    <glyph glyph-name="Wacute" unicode="&#x1e82;" horiz-adv-x="2086" 
d="M1044 1161l-296 -1110q-7 -28 -22.5 -39.5t-43.5 -11.5h-115q-28 0 -43 11.5t-24 37.5l-447 1325q-4 16 -4 21q0 17 12.5 28t34.5 11h97q27 0 42.5 -11.5t24.5 -38.5l369 -1153l303 1151q11 52 63 52h97q52 0 63 -52l303 -1151l369 1153q9 27 24.5 38.5t42.5 11.5h97
q22 0 34.5 -11t12.5 -28q0 -5 -4 -21l-449 -1325q-9 -26 -24 -37.5t-43 -11.5h-113q-28 0 -43.5 11.5t-22.5 39.5zM954 1579l-20 25q-12 15 -12 28q0 15 16 31l236 207q14 14 28 14q15 0 31 -16l47 -53q12 -12 12 -27q0 -19 -18 -31l-262 -186q-13 -10 -27 -10q-19 0 -31 18
z" />
    <glyph glyph-name="wacute" unicode="&#x1e83;" horiz-adv-x="1583" 
d="M793 838l-189 -793q-8 -45 -55 -45h-123q-25 0 -38 10t-21 33l-316 930q-2 6 -2 16q0 15 11 25t28 10h102q46 0 60 -43l237 -786l189 784q6 25 19 35t38 10h121q25 0 38 -10t19 -35l185 -784l241 786q11 43 58 43h100q20 0 30.5 -9.5t10.5 -25.5q0 -10 -4 -16l-315 -930
q-14 -43 -60 -43h-123q-47 0 -55 45zM702 1200l-20 25q-12 15 -12 28q0 15 16 31l236 207q14 14 30 14t29 -16l47 -53q14 -11 14 -27q0 -20 -20 -31l-262 -186q-13 -10 -25 -10q-18 0 -33 18z" />
    <glyph glyph-name="Wdieresis" unicode="&#x1e84;" horiz-adv-x="2086" 
d="M1044 1161l-296 -1110q-7 -28 -22.5 -39.5t-43.5 -11.5h-115q-28 0 -43 11.5t-24 37.5l-447 1325q-4 16 -4 21q0 17 12.5 28t34.5 11h97q27 0 42.5 -11.5t24.5 -38.5l369 -1153l303 1151q11 52 63 52h97q52 0 63 -52l303 -1151l369 1153q9 27 24.5 38.5t42.5 11.5h97
q22 0 34.5 -11t12.5 -28q0 -5 -4 -21l-449 -1325q-9 -26 -24 -37.5t-43 -11.5h-113q-28 0 -43.5 11.5t-22.5 39.5zM821 1874q46 0 79.5 -33.5t33.5 -77.5t-33.5 -77t-79.5 -33q-44 0 -77 33t-33 77t33 77.5t77 33.5zM1268 1874q44 0 77 -33.5t33 -77.5t-33 -77t-77 -33
t-77.5 33t-33.5 77t33.5 77.5t77.5 33.5z" />
    <glyph glyph-name="wdieresis" unicode="&#x1e85;" horiz-adv-x="1583" 
d="M793 838l-189 -793q-8 -45 -55 -45h-123q-25 0 -38 10t-21 33l-316 930q-2 6 -2 16q0 15 11 25t28 10h102q46 0 60 -43l237 -786l189 784q6 25 19 35t38 10h121q25 0 38 -10t19 -35l185 -784l241 786q11 43 58 43h100q20 0 30.5 -9.5t10.5 -25.5q0 -10 -4 -16l-315 -930
q-14 -43 -60 -43h-123q-47 0 -55 45zM569 1495q46 0 79.5 -33.5t33.5 -77.5t-33.5 -77t-79.5 -33q-44 0 -77 33t-33 77t33 77.5t77 33.5zM1016 1495q44 0 77 -33.5t33 -77.5t-33 -77t-77 -33t-77.5 33t-33.5 77t33.5 77.5t77.5 33.5z" />
    <glyph glyph-name="Ygrave" unicode="&#x1ef2;" horiz-adv-x="1361" 
d="M682 684l397 705q15 26 31 35.5t47 9.5h96q18 0 28.5 -9.5t10.5 -23.5q0 -11 -6 -23l-508 -876v-443q0 -59 -59 -59h-76q-59 0 -59 59v443l-510 876q-6 12 -6 23q0 14 10 23.5t28 9.5h97q31 0 47 -9.5t31 -35.5zM786 1618l-22 -29q-16 -16 -29 -16q-11 0 -28 10l-258 186
q-19 13 -19 31q0 15 12 27l43 51q16 16 33 16q15 0 27 -12l235 -209q19 -13 19 -28q0 -14 -13 -27z" />
    <glyph glyph-name="ygrave" unicode="&#x1ef3;" horiz-adv-x="1146" 
d="M573 190l326 793q9 23 23 32t39 9h98q17 0 27 -8.5t10 -22.5q0 -8 -4 -20l-510 -1172q-57 -132 -122 -183.5t-167 -51.5q-96 0 -156 35q-22 14 -22 39q0 13 6 28l22 49q11 29 37 29q7 0 15 -4q43 -18 90 -18t76 22.5t55 79.5l78 174h-17l-422 973q-4 12 -4 20
q0 14 10 22.5t27 8.5h98q25 0 39.5 -9t24.5 -32zM674 1227l-23 -29q-16 -16 -28 -16t-29 10l-258 186q-19 13 -19 31q0 14 13 27l43 51q16 16 30 16q17 0 29 -12l236 -209q16 -13 16 -29q0 -13 -10 -26z" />
    <glyph glyph-name="uni2002" unicode="&#x2002;" horiz-adv-x="1056" 
 />
    <glyph glyph-name="uni2003" unicode="&#x2003;" horiz-adv-x="2080" 
 />
    <glyph glyph-name="uni2004" unicode="&#x2004;" horiz-adv-x="714" 
 />
    <glyph glyph-name="uni2005" unicode="&#x2005;" horiz-adv-x="544" 
 />
    <glyph glyph-name="uni2006" unicode="&#x2006;" horiz-adv-x="169" 
 />
    <glyph glyph-name="uni2007" unicode="&#x2007;" horiz-adv-x="1288" 
 />
    <glyph glyph-name="uni2009" unicode="&#x2009;" horiz-adv-x="288" 
 />
    <glyph glyph-name="uni200A" unicode="&#x200a;" horiz-adv-x="100" 
 />
    <glyph glyph-name="uni2010" unicode="&#x2010;" horiz-adv-x="694" 
d="M178 584h338q53 0 53 -54v-36q0 -54 -53 -54h-338q-53 0 -53 54v36q0 54 53 54z" />
    <glyph glyph-name="uni2011" unicode="&#x2011;" horiz-adv-x="694" 
d="M178 584h338q53 0 53 -54v-36q0 -54 -53 -54h-338q-53 0 -53 54v36q0 54 53 54z" />
    <glyph glyph-name="figuredash" unicode="&#x2012;" horiz-adv-x="1308" 
d="M281 584h747q53 0 53 -54v-36q0 -54 -53 -54h-747q-54 0 -54 54v36q0 54 54 54z" />
    <glyph glyph-name="endash" unicode="&#x2013;" horiz-adv-x="1308" 
d="M281 584h747q53 0 53 -54v-36q0 -54 -53 -54h-747q-54 0 -54 54v36q0 54 54 54z" />
    <glyph glyph-name="emdash" unicode="&#x2014;" horiz-adv-x="1923" 
d="M281 584h1361q54 0 54 -54v-36q0 -54 -54 -54h-1361q-54 0 -54 54v36q0 54 54 54z" />
    <glyph glyph-name="afii00208" unicode="&#x2015;" horiz-adv-x="1923" 
d="M281 584h1361q54 0 54 -54v-36q0 -54 -54 -54h-1361q-54 0 -54 54v36q0 54 54 54z" />
    <glyph glyph-name="underscoredbl" unicode="&#x2017;" 
d="M188 -434h955q53 0 53 -51v-33q0 -51 -53 -51h-955q-53 0 -53 51v33q0 51 53 51zM188 -135h955q53 0 53 -51v-33q0 -51 -53 -51h-955q-53 0 -53 51v33q0 51 53 51z" />
    <glyph glyph-name="quoteleft" unicode="&#x2018;" horiz-adv-x="518" 
d="M342 1442l20 -23q11 -15 11 -20q0 -14 -17 -31q-72 -84 -84 -170q43 -7 71 -40.5t28 -76.5q0 -47 -35 -81.5t-84 -34.5t-83 34t-34 82q0 100 41.5 196t114.5 163q17 14 28 14t23 -12z" />
    <glyph glyph-name="quoteright" unicode="&#x2019;" horiz-adv-x="518" 
d="M176 989l-20 23q-11 11 -11 20q0 14 17 31q72 84 84 170q-43 7 -71 40.5t-28 76.5q0 47 35 81.5t84 34.5t83 -34t34 -82q0 -100 -41.5 -196t-114.5 -163q-17 -14 -28 -14q-14 0 -23 12z" />
    <glyph glyph-name="quotesinglbase" unicode="&#x201a;" horiz-adv-x="536" 
d="M176 -260l-20 22q-11 11 -11 21q0 14 17 31q72 84 84 170q-43 8 -71 40.5t-28 75.5q0 48 35 82.5t84 34.5t83 -34.5t34 -82.5q0 -100 -41.5 -195.5t-114.5 -162.5q-17 -14 -28 -14q-14 0 -23 12z" />
    <glyph glyph-name="quotereversed" unicode="&#x201b;" horiz-adv-x="518" 
d="M367 1012l-21 -23q-12 -12 -22 -12q-12 0 -29 14q-73 67 -114.5 163t-41.5 196q0 48 34 82t83 34t84 -34.5t35 -81.5q0 -43 -28 -76.5t-71 -40.5q12 -86 84 -170q17 -17 17 -31q0 -7 -10 -20z" />
    <glyph glyph-name="quotedblleft" unicode="&#x201c;" horiz-adv-x="833" 
d="M342 1442l20 -23q11 -15 11 -20q0 -14 -17 -31q-72 -84 -84 -170q43 -7 71 -40.5t28 -76.5q0 -47 -35 -81.5t-84 -34.5t-83 34t-34 82q0 100 41.5 196t114.5 163q17 14 28 14t23 -12zM657 1442l21 -23q10 -13 10 -20q0 -15 -16 -31q-72 -84 -84 -170q43 -7 70.5 -40.5
t27.5 -76.5q0 -47 -35 -81.5t-84 -34.5t-82.5 34t-33.5 82q0 100 41 196t114 163q17 14 29 14q10 0 22 -12z" />
    <glyph glyph-name="quotedblright" unicode="&#x201d;" horiz-adv-x="833" 
d="M176 989l-20 23q-11 11 -11 20q0 14 17 31q72 84 84 170q-43 7 -71 40.5t-28 76.5q0 47 35 81.5t84 34.5t83 -34t34 -82q0 -100 -41.5 -196t-114.5 -163q-17 -14 -28 -14q-14 0 -23 12zM494 989l-21 23q-10 10 -10 20q0 15 16 31q72 84 84 170q-43 7 -70.5 40.5
t-27.5 76.5q0 47 35 81.5t84 34.5t82.5 -34t33.5 -82q0 -100 -41 -196t-114 -163q-17 -14 -29 -14q-13 0 -22 12z" />
    <glyph glyph-name="quotedblbase" unicode="&#x201e;" horiz-adv-x="833" 
d="M176 -260l-20 22q-11 11 -11 21q0 14 17 31q72 84 84 170q-43 8 -71 40.5t-28 75.5q0 48 35 82.5t84 34.5t83 -34.5t34 -82.5q0 -100 -41.5 -195.5t-114.5 -162.5q-17 -14 -28 -14q-14 0 -23 12zM492 -260l-21 22q-10 10 -10 21q0 15 16 31q72 84 84 170q-43 7 -70.5 40
t-27.5 76q0 48 35 82.5t84 34.5t82.5 -34.5t33.5 -82.5q0 -100 -41 -195.5t-114 -162.5q-17 -14 -29 -14q-13 0 -22 12z" />
    <glyph glyph-name="dagger" unicode="&#x2020;" 
d="M567 1049v325q0 60 60 60h75q60 0 60 -60v-325h278q60 0 60 -60v-49q0 -59 -60 -59h-278v-1231q0 -60 -60 -60h-75q-60 0 -60 60v1231h-278q-60 0 -60 59v49q0 60 60 60h278z" />
    <glyph glyph-name="daggerdbl" unicode="&#x2021;" 
d="M567 1049v325q0 60 60 60h75q60 0 60 -60v-325h278q60 0 60 -60v-49q0 -59 -60 -59h-278v-713h278q60 0 60 -59v-50q0 -59 -60 -59h-278v-350q0 -60 -60 -60h-75q-60 0 -60 60v350h-278q-60 0 -60 59v50q0 59 60 59h278v713h-278q-60 0 -60 59v49q0 60 60 60h278z" />
    <glyph glyph-name="bullet" unicode="&#x2022;" horiz-adv-x="1218" 
d="M608 995q116 0 198.5 -81.5t82.5 -196.5q0 -117 -82.5 -199t-198.5 -82t-197 82t-81 199q0 115 81 196.5t197 81.5z" />
    <glyph glyph-name="ellipsis" unicode="&#x2026;" horiz-adv-x="1536" 
d="M262 229q52 0 89.5 -37.5t37.5 -89.5t-37.5 -89.5t-89.5 -37.5t-89.5 37.5t-37.5 89.5t37.5 89.5t89.5 37.5zM768 229q52 0 89.5 -37.5t37.5 -89.5t-37.5 -89.5t-89.5 -37.5t-89.5 37.5t-37.5 89.5t37.5 89.5t89.5 37.5zM1274 229q52 0 89.5 -37.5t37.5 -89.5
t-37.5 -89.5t-89.5 -37.5t-89.5 37.5t-37.5 89.5t37.5 89.5t89.5 37.5z" />
    <glyph glyph-name="perthousand" unicode="&#x2030;" horiz-adv-x="2912" 
d="M1491 678q162 0 267.5 -98t105.5 -248t-105.5 -248t-267.5 -98q-161 0 -267 98.5t-106 247.5t106 247.5t267 98.5zM1491 86q117 0 186.5 69t69.5 177t-69.5 177t-186.5 69q-115 0 -185.5 -69.5t-70.5 -176.5t70.5 -176.5t185.5 -69.5zM1468 1395l-778 -1362
q-18 -33 -55 -33h-41q-13 0 -21 7t-8 16q0 7 6 16l779 1362q18 33 55 33h41q13 0 21 -7t8 -16q0 -5 -7 -16zM549 1448q161 0 267 -98.5t106 -247.5t-106 -247.5t-267 -98.5t-267 98.5t-106 247.5t106 247.5t267 98.5zM549 856q115 0 185.5 69.5t70.5 176.5t-70.5 176.5
t-185.5 69.5q-116 0 -187 -69.5t-71 -176.5t71 -176.5t187 -69.5zM2363 678q162 0 267.5 -98t105.5 -248t-105.5 -248t-267.5 -98q-161 0 -266.5 98.5t-105.5 247.5t105.5 247.5t266.5 98.5zM2363 86q117 0 186.5 69t69.5 177t-69.5 177t-186.5 69q-115 0 -185.5 -69.5
t-70.5 -176.5t70.5 -176.5t185.5 -69.5z" />
    <glyph glyph-name="minute" unicode="&#x2032;" horiz-adv-x="536" 
d="M139 1067l88 324q11 43 58 43h92q20 0 30.5 -9.5t10.5 -25.5q0 -5 -4 -17l-121 -325q-9 -23 -23 -33t-39 -10h-51q-43 0 -43 37q0 10 2 16z" />
    <glyph glyph-name="second" unicode="&#x2033;" horiz-adv-x="831" 
d="M139 1067l88 324q11 43 58 43h92q20 0 30.5 -9.5t10.5 -25.5q0 -5 -4 -17l-121 -325q-9 -23 -23 -33t-39 -10h-51q-43 0 -43 37q0 10 2 16zM436 1067l88 324q11 43 58 43h90q20 0 30.5 -9.5t10.5 -25.5q0 -5 -4 -17l-121 -325q-9 -23 -23 -33t-39 -10h-49q-43 0 -43 37
q0 10 2 16z" />
    <glyph glyph-name="guilsinglleft" unicode="&#x2039;" horiz-adv-x="792" 
d="M344 512l244 -340q12 -15 12 -33q0 -20 -25 -39l-36 -28q-18 -15 -35 -15q-23 0 -39 25l-283 393q-14 20 -14 37q0 20 14 37l283 393q16 25 39 25q17 0 35 -15l39 -30q22 -19 22 -39q0 -15 -12 -33z" />
    <glyph glyph-name="guilsinglright" unicode="&#x203a;" horiz-adv-x="792" 
d="M449 512l-242 338q-12 18 -12 33q0 20 22 39l39 30q18 15 35 15q21 0 37 -25l282 -393q15 -18 15 -37q0 -16 -15 -37l-282 -393q-16 -25 -39 -25q-15 0 -33 15l-39 28q-22 19 -22 39q0 15 12 33z" />
    <glyph glyph-name="uni203E" unicode="&#x203e;" 
d="M188 1798h955q53 0 53 -53v-37q0 -53 -53 -53h-955q-53 0 -53 53v37q0 53 53 53z" />
    <glyph glyph-name="fraction" unicode="&#x2044;" horiz-adv-x="292" 
d="M596 1395l-780 -1362q-18 -33 -56 -33h-41q-13 0 -20.5 6.5t-7.5 16.5q0 7 6 16l780 1362q9 19 21 26t34 7h41q12 0 19.5 -7t7.5 -16q0 -4 -4 -16z" />
    <glyph glyph-name="zerosuperior" unicode="&#x2070;" horiz-adv-x="798" 
d="M399 1653q132 0 206.5 -90.5t74.5 -251.5t-76 -255.5t-205 -94.5q-128 0 -204 94.5t-76 255.5t74 251.5t206 90.5zM399 1559q-83 0 -127.5 -65t-44.5 -183q0 -117 46.5 -186.5t125.5 -69.5q81 0 126.5 69t45.5 187q0 117 -45 182.5t-127 65.5z" />
    <glyph glyph-name="foursuperior" unicode="&#x2074;" horiz-adv-x="649" 
d="M178 1192h191v104q0 37 37 37h36q37 0 37 -37v-104h58q36 0 36 -35v-20q0 -37 -36 -37h-58v-88q0 -37 -37 -37h-36q-37 0 -37 37v88h-285q-37 0 -37 35v18q0 29 29 78l272 401q16 19 31 19q8 0 20 -6l31 -19q19 -13 19 -27q0 -10 -9 -22z" />
    <glyph glyph-name="fivesuperior" unicode="&#x2075;" horiz-adv-x="681" 
d="M281 1544l-27 -166q57 25 121 25q98 0 162.5 -62.5t64.5 -156.5q-2 -95 -73.5 -159t-178.5 -64q-71 0 -134.5 26.5t-102.5 79.5q-7 14 -7 20q0 14 15 29l16 17q10 10 23 10q14 0 35 -25q20 -20 33 -30.5t46.5 -23t73.5 -11.5q61 0 101 37t40 94q-2 56 -40.5 92.5
t-98.5 36.5q-45 2 -100 -27q-33 -14 -41 -14q-11 0 -19 2l-24 8q-31 8 -25 43l43 281q6 32 41 32h291q37 0 37 -36v-21q0 -37 -37 -37h-235z" />
    <glyph glyph-name="sixsuperior" unicode="&#x2076;" horiz-adv-x="692" 
d="M344 1411h18q113 0 188 -64t75 -161q0 -96 -74.5 -160.5t-185.5 -64.5q-114 0 -187.5 62t-73.5 163q0 71 29 112l229 330q16 19 31 19q7 0 21 -7l35 -20q18 -12 18 -27q0 -11 -8 -22zM365 1053q68 0 108.5 37.5t40.5 95.5q0 56 -44.5 95.5t-107.5 39.5q-62 0 -104.5 -39
t-42.5 -96q0 -58 41 -95.5t109 -37.5z" />
    <glyph glyph-name="sevensuperior" unicode="&#x2077;" horiz-adv-x="552" 
d="M385 1542h-317q-37 0 -37 37v23q0 36 37 36h413q37 0 37 -32v-11q0 -34 -31 -94l-278 -518q-13 -20 -31 -20q-11 0 -20 6l-31 18q-21 12 -21 29q0 8 7 22z" />
    <glyph glyph-name="eightsuperior" unicode="&#x2078;" horiz-adv-x="706" 
d="M217 1337q-76 49 -76 140q0 78 60 127t153 49q94 0 154.5 -49t60.5 -127q0 -91 -75 -140q52 -23 82 -70t30 -104q0 -90 -70.5 -146t-181.5 -56t-180.5 56t-69.5 146q0 57 30.5 104t82.5 70zM354 1290q-63 0 -100 -33.5t-37 -85.5t39 -85t98 -33q61 0 100.5 33t39.5 85
t-39 85.5t-101 33.5zM354 1567q-52 0 -80 -25t-28 -67t29.5 -68.5t78.5 -26.5t79 26t30 69q0 42 -28.5 67t-80.5 25z" />
    <glyph glyph-name="ninesuperior" unicode="&#x2079;" horiz-adv-x="692" 
d="M356 1198h-22q-113 0 -188.5 65t-75.5 162t75 162.5t185 65.5q114 0 188 -63t74 -165q-3 -76 -41 -131l-207 -311q-12 -18 -31 -18q-8 0 -20 6l-37 20q-18 12 -18 27q0 11 8 22zM330 1561q-66 0 -108 -39t-42 -97q0 -56 44.5 -95.5t107.5 -39.5t106 39t43 96q0 58 -42 97
t-109 39z" />
    <glyph glyph-name="zeroinferior" unicode="&#x2080;" horiz-adv-x="798" 
d="M399 473q132 0 206.5 -90.5t74.5 -251.5t-76 -255.5t-205 -94.5q-128 0 -204 94.5t-76 255.5t74 251.5t206 90.5zM399 379q-83 0 -127.5 -65t-44.5 -183q0 -117 46.5 -186.5t125.5 -69.5q81 0 126.5 69t45.5 187q0 117 -45 182.5t-127 65.5z" />
    <glyph glyph-name="oneinferior" unicode="&#x2081;" horiz-adv-x="481" 
d="M205 348l-92 -43q-12 -4 -19 -4q-13 0 -22 12l-19 29q-6 9 -6 16q0 13 16 23l119 59q36 19 68 19h22q31 0 31 -29v-606q0 -29 -31 -29h-39q-28 0 -28 29v524z" />
    <glyph glyph-name="twoinferior" unicode="&#x2082;" horiz-adv-x="649" 
d="M244 -111h282q37 0 37 -36v-21q0 -37 -37 -37h-409q-37 0 -37 35v16q0 31 29 60l229 231q60 58 75 81.5t15 57.5q0 47 -34 75t-91 28q-16 0 -31.5 -2t-25.5 -4t-24 -8t-18.5 -8.5t-18.5 -10t-15 -8.5q-28 -16 -39 -16t-22 14l-15 18q-10 13 -10 25q0 15 12 24
q81 70 207 70q106 0 171 -54t65 -143q0 -47 -21.5 -87.5t-75.5 -96.5z" />
    <glyph glyph-name="threeinferior" unicode="&#x2083;" horiz-adv-x="671" 
d="M131 336l-14 20q-11 15 -11 25q0 12 13 22q76 68 200 68q98 0 160 -49t64 -127q3 -92 -84 -141q56 -25 85.5 -70t28.5 -102q0 -88 -71 -143.5t-183 -55.5q-150 0 -227 92q-10 13 -10 23q0 14 12 26l15 17q12 12 22 12q8 0 35 -19q19 -17 33 -26t47 -19.5t73 -9.5
q66 0 104.5 31.5t37.5 83.5q0 51 -39.5 81.5t-102.5 30.5h-30q-39 0 -39 35v21q0 35 39 35h30q53 0 87 25t34 63q1 41 -32 66.5t-89 25.5q-61 0 -112 -29q-8 -4 -14 -10q-23 -19 -37 -19t-25 17z" />
    <glyph glyph-name="fourinferior" unicode="&#x2084;" horiz-adv-x="649" 
d="M178 12h191v105q0 37 37 37h36q37 0 37 -37v-105h58q36 0 36 -35v-20q0 -37 -36 -37h-58v-88q0 -37 -37 -37h-36q-37 0 -37 37v88h-285q-37 0 -37 35v18q0 29 29 78l272 402q15 18 31 18q8 0 20 -6l31 -19q19 -13 19 -26q0 -11 -9 -23z" />
    <glyph glyph-name="fiveinferior" unicode="&#x2085;" horiz-adv-x="681" 
d="M281 365l-27 -166q55 24 121 24q98 0 162.5 -62.5t64.5 -156.5q-2 -95 -73.5 -159t-178.5 -64q-71 0 -134.5 26.5t-102.5 79.5q-7 14 -7 21q0 14 15 29l16 16q10 10 23 10q14 0 35 -24q21 -21 33.5 -31.5t46 -23t73.5 -11.5q61 0 101 37t40 94q-2 56 -40.5 92.5
t-98.5 36.5q-45 2 -100 -27q-33 -14 -41 -14q-11 0 -19 2l-24 8q-31 8 -25 43l43 281q6 33 41 33h291q37 0 37 -37v-21q0 -36 -37 -36h-235z" />
    <glyph glyph-name="sixinferior" unicode="&#x2086;" horiz-adv-x="692" 
d="M344 231h18q113 0 188 -64t75 -161q0 -96 -74.5 -160.5t-185.5 -64.5q-114 0 -187.5 62t-73.5 163q0 72 29 113l229 330q15 18 31 18q9 0 21 -6l35 -21q18 -12 18 -26q0 -12 -8 -23zM365 -127q68 0 108.5 37.5t40.5 95.5q0 56 -44.5 95.5t-107.5 39.5q-62 0 -104.5 -39
t-42.5 -96q0 -58 41 -95.5t109 -37.5z" />
    <glyph glyph-name="seveninferior" unicode="&#x2087;" horiz-adv-x="552" 
d="M385 362h-317q-37 0 -37 37v23q0 37 37 37h413q37 0 37 -33v-10q0 -34 -31 -94l-278 -519q-13 -20 -31 -20q-11 0 -20 6l-31 18q-21 12 -21 29q0 9 7 23z" />
    <glyph glyph-name="eightinferior" unicode="&#x2088;" horiz-adv-x="706" 
d="M217 158q-76 49 -76 139q0 78 60 127t153 49q94 0 154.5 -49t60.5 -127q0 -90 -75 -139q52 -23 82 -70t30 -104q0 -90 -70.5 -146.5t-181.5 -56.5t-180.5 56.5t-69.5 146.5q0 57 30.5 104t82.5 70zM354 111q-63 0 -100 -33.5t-37 -85.5t39 -85.5t98 -33.5q60 0 100 33.5
t40 85.5t-39 85.5t-101 33.5zM354 387q-52 0 -80 -25t-28 -67t29.5 -68t78.5 -26q50 0 79.5 25.5t29.5 68.5q0 42 -28.5 67t-80.5 25z" />
    <glyph glyph-name="nineinferior" unicode="&#x2089;" horiz-adv-x="692" 
d="M356 18h-22q-112 0 -188 65.5t-76 162.5t75 162t185 65q114 0 188 -62.5t74 -164.5q-3 -76 -41 -131l-207 -312q-12 -18 -31 -18q-8 0 -20 6l-37 21q-18 12 -18 26q0 12 8 23zM330 381q-67 0 -108.5 -38.5t-41.5 -96.5q0 -56 44.5 -95.5t107.5 -39.5t106 39t43 96
q0 58 -42 96.5t-109 38.5z" />
    <glyph glyph-name="lira" unicode="&#x20a4;" 
d="M293 690v191l-113 -50q-12 -4 -16 -4q-25 0 -25 31v27q0 38 33 51l121 55v383q0 60 59 60h76q59 0 59 -60v-291l377 170q12 4 15 4q26 0 26 -30v-27q0 -38 -33 -51l-385 -174v-193l377 170q12 4 15 4q26 0 26 -30v-27q0 -38 -33 -51l-385 -174v-500q109 5 192 29.5
t161 83.5q73 57 122 140.5t64 176.5q1 8 3.5 30.5t5 32.5t9 24t19.5 20t33 6h75q45 0 54 -25q6 -18 6 -47q0 -32 -8 -78q-61 -275 -256 -424t-480 -149h-135q-59 0 -59 59v529l-113 -52q-12 -4 -14 -4q-12 0 -19.5 8.5t-7.5 22.5v27q0 38 33 51z" />
    <glyph glyph-name="peseta" unicode="&#x20a7;" 
d="M293 653v721q0 60 59 60h402q85 0 160.5 -13.5t149 -47t126 -85.5t85 -135.5t32.5 -189.5t-32.5 -188.5t-85.5 -134t-126.5 -85t-149.5 -46.5t-161 -13h-265v-174h433q43 0 43 -39v-21q0 -39 -43 -39h-433v-166q0 -57 -59 -57h-76q-59 0 -59 57v166h-111q-43 0 -43 39v21
q0 39 43 39h111v174h-111q-43 0 -43 43v71q0 43 43 43h111zM487 1264v-611h287q68 0 127 17.5t107 53.5t76 97t28 142t-27.5 141t-76 94t-107 50t-127.5 16h-287z" />
    <glyph glyph-name="Euro" unicode="&#x20ac;" 
d="M350 905h395q43 0 43 -39v-20q0 -39 -43 -39h-421q-7 -58 -7 -90t7 -90h421q43 0 43 -39v-21q0 -39 -43 -39h-395q42 -162 159.5 -266t287.5 -104q105 0 196 45t158 127q17 20 37 20q23 0 41 -18l53 -43q27 -21 27 -45q0 -17 -17 -41q-84 -110 -217 -169t-278 -59
q-257 0 -433 154t-227 399h-143q-43 0 -43 39v21q0 39 43 39h129q-6 41 -6 90t6 90h-129q-43 0 -43 39v20q0 39 43 39h143q25 119 82 219.5t140 175t196 116.5t242 42q145 0 278 -58.5t215 -168.5q19 -22 19 -41q0 -24 -27 -45l-55 -45q-20 -17 -39 -17q-21 0 -39 21
q-65 82 -156.5 127t-195.5 45q-170 0 -287.5 -104.5t-159.5 -266.5z" />
    <glyph glyph-name="uni2101" unicode="&#x2101;" horiz-adv-x="1875" 
d="M1413 408l123 -46q87 -32 125.5 -76.5t38.5 -111.5q0 -87 -70 -137.5t-188 -50.5q-164 0 -240 110q-10 13 -10 25q0 16 16 29l13 10q12 12 22 12q15 0 39 -27q21 -19 35.5 -30t48.5 -23t76 -12q66 0 103.5 26t37.5 72q0 31 -21.5 52.5t-74.5 41.5l-123 47
q-154 59 -154 181q0 79 65 128.5t169 49.5q133 0 203 -62q12 -9 12 -24q0 -14 -10 -27l-15 -14q-11 -14 -28 -14q-14 0 -23 6q-68 43 -139 43q-54 0 -87.5 -23.5t-33.5 -62.5q0 -61 90 -92zM356 909l-45 -106q-13 -33 -51 -33h-39q-14 0 -22.5 7.5t-8.5 19.5q0 2 1 4t2 5
t2 5l260 590q13 33 51 33h37q38 0 51 -33l260 -590q4 -12 4 -14q0 -12 -8.5 -19.5t-22.5 -7.5h-41q-38 0 -51 33l-45 106h-334zM395 1008h256l-127 297zM655 0h-41q-12 0 -20 7t-8 16q0 7 6 16l780 1362q18 33 55 33h41q12 0 19.5 -7t7.5 -16q0 -4 -4 -16l-780 -1362
q-18 -33 -56 -33z" />
    <glyph glyph-name="afii61248" unicode="&#x2105;" horiz-adv-x="2035" 
d="M1477 678q162 0 267 -98t105 -248t-105 -248t-267 -98q-161 0 -267 98.5t-106 247.5t106 247.5t267 98.5zM1477 86q117 0 186.5 69t69.5 177t-69.5 177t-186.5 69q-115 0 -185.5 -69.5t-70.5 -176.5t70.5 -176.5t185.5 -69.5zM797 934l24 -16q17 -14 17 -27
q0 -10 -11 -25q-102 -110 -274 -110q-161 0 -264 98t-103 248t103 248t264 98q172 0 272 -109q13 -13 13 -24q0 -15 -19 -31l-22 -16q-22 -13 -31 -13q-10 0 -23 13q-77 80 -190 80q-108 0 -180 -70.5t-72 -175.5t72 -175.5t180 -70.5q113 0 190 80q7 10 23 10q11 0 31 -12z
M1454 1395l-780 -1362q-18 -33 -56 -33h-40q-12 0 -19.5 7t-7.5 16q0 4 4 16l780 1362q18 33 56 33h41q12 0 19 -7t7 -16q0 -4 -4 -16z" />
    <glyph glyph-name="afii61289" unicode="&#x2113;" 
d="M463 408l2 24q-83 -78 -103 -78q-12 0 -21 10.5t-9 24.5q0 19 41 60q38 33 108 108q98 507 209 721q91 180 207 180q60 0 96.5 -50t36.5 -132q0 -181 -129 -397q-69 -120 -242 -301l-6 -29q-67 -304 -67 -397q0 -68 39 -68q26 0 63 51q34 47 53 84q13 23 29 23
q15 0 24 -11t9 -26q0 -16 -11.5 -48t-31.5 -63q-38 -60 -80.5 -89.5t-97.5 -29.5q-64 0 -102 51.5t-38 143.5q0 80 21 238zM694 774l-10 -49q78 95 109.5 139.5t62.5 104.5q81 154 88 299q0 45 -12 74.5t-37 29.5q-15 0 -35 -14q-36 -29 -72 -151.5t-94 -432.5z" />
    <glyph glyph-name="trademark" unicode="&#x2122;" horiz-adv-x="1589" 
d="M424 1337v-524q0 -43 -43 -43h-29q-43 0 -43 43v524h-192q-43 0 -43 39v19q0 39 43 39h497q43 0 43 -39v-19q0 -39 -43 -39h-190zM1102 1032l209 369q18 33 55 33h55q43 0 43 -43v-578q0 -43 -41 -43h-28q-43 0 -43 43v434l-178 -319q-18 -33 -54 -33h-35q-20 0 -31 7
t-22 26l-178 319v-434q0 -43 -43 -43h-29q-43 0 -43 43v578q0 43 43 43h56q37 0 55 -33z" />
    <glyph glyph-name="uni2126" unicode="&#x2126;" horiz-adv-x="1767" 
d="M1522 0h-471q-60 0 -60 59v125q181 90 285 232.5t104 326.5q0 147 -62 269t-176 194t-257 72t-258 -72t-177.5 -194t-62.5 -269q0 -184 104.5 -326.5t286.5 -232.5v-125q0 -59 -59 -59h-473q-60 0 -60 59v45q0 60 60 60h291q-351 235 -351 579q0 149 50.5 280.5
t141 227.5t222 151.5t285.5 55.5q204 0 364 -95t246 -257.5t86 -362.5q0 -345 -350 -579h291q59 0 59 -60v-45q0 -59 -59 -59z" />
    <glyph glyph-name="estimated" unicode="&#x212e;" horiz-adv-x="1708" 
d="M471 698v-313q79 -313 393 -313q152 -2 259 57.5t173 189.5q14 30 28.5 41t45.5 11h43q19 0 32 -10t13 -25q0 -5 -4 -17q-47 -129 -164 -219q-86 -65 -196 -96q-107 -29 -230 -29q-322 0 -500 196t-178 546t178 545.5t500 195.5q177 0 323.5 -71t225.5 -216
q110 -200 107 -421q-1 -25 -17.5 -38.5t-42.5 -13.5h-989zM1278 772v272q-37 152 -152 235t-262 83q-150 0 -245.5 -78.5t-147.5 -236.5v-275h807z" />
    <glyph glyph-name="onethird" unicode="&#x2153;" horiz-adv-x="1689" 
d="M354 1323l-92 -43q-12 -4 -18 -4q-14 0 -23 12l-18 29q-6 9 -6 16q0 13 16 23l119 59q36 19 67 19h23q31 0 31 -29v-606q0 -29 -31 -29h-39q-29 0 -29 29v524zM1227 1395l-781 -1362q-18 -33 -55 -33h-41q-13 0 -20.5 6.5t-7.5 16.5q0 7 6 16l780 1362q9 19 21 26t34 7
h41q12 0 19.5 -7t7.5 -16q0 -4 -4 -16zM1055 541l-15 20q-10 13 -10 25q0 13 12 22q76 68 201 68q98 0 159.5 -49t63.5 -127q3 -93 -84 -142q56 -25 86 -70t29 -102q0 -88 -70.5 -143t-183.5 -55q-150 0 -227 92q-10 13 -10 22q0 15 12 27l14 16q13 13 23 13q8 0 35 -19
q19 -17 33 -26t47 -19.5t73 -9.5q66 0 104.5 31t36.5 84q0 51 -39 81.5t-102 30.5h-31q-38 0 -38 35v21q0 34 38 34h31q53 0 87 25t34 63q2 41 -32 67t-89 26q-62 0 -113 -29q-8 -4 -14 -10q-23 -19 -37 -19q-15 0 -24 17z" />
    <glyph glyph-name="twothirds" unicode="&#x2154;" horiz-adv-x="1689" 
d="M291 864h282q37 0 37 -37v-20q0 -37 -37 -37h-409q-37 0 -37 35v16q0 31 29 60l229 231q60 58 75 81.5t15 57.5q0 47 -34 75t-91 28q-16 0 -31.5 -2t-25.5 -4t-24 -8t-18.5 -8.5t-18.5 -10t-15 -8.5q-30 -17 -39 -17q-10 0 -22 15l-15 18q-10 13 -10 25q0 15 12 24
q81 70 207 70q106 0 171 -54t65 -143q0 -47 -21.5 -87.5t-75.5 -96.5zM1292 1395l-780 -1362q-18 -33 -55 -33h-41q-13 0 -21 7t-8 16q0 7 6 16l781 1362q9 19 21 26t34 7h41q12 0 19 -7t7 -16q0 -4 -4 -16zM1120 541l-14 20q-10 13 -10 25q0 13 12 22q76 68 201 68
q98 0 159.5 -49t63.5 -127q3 -93 -84 -142q56 -25 86 -70t29 -102q0 -88 -70.5 -143t-183.5 -55q-151 0 -228 92q-10 13 -10 22q0 15 12 27l15 16q13 13 22 13q8 0 35 -19q19 -16 33.5 -26t47.5 -20t73 -9q66 0 104.5 31t36.5 84q0 51 -39 81.5t-102 30.5h-31q-39 0 -39 35
v21q0 34 39 34h31q53 0 87 25t34 63q2 41 -32 67t-89 26q-62 0 -113 -29q-8 -4 -14 -10q-23 -19 -37 -19t-25 17z" />
    <glyph glyph-name="uni2155" unicode="&#x2155;" horiz-adv-x="1689" 
d="M340 1323l-92 -43q-12 -4 -19 -4q-13 0 -22 12l-19 29q-6 9 -6 16q0 13 17 23l118 59q36 19 68 19h23q30 0 30 -29v-606q0 -29 -30 -29h-39q-29 0 -29 29v524zM1212 1395l-780 -1362q-18 -33 -55 -33h-41q-13 0 -21 7t-8 16q0 7 6 16l781 1362q9 19 21 26t34 7h41
q12 0 19.5 -7t7.5 -16q0 -1 -5 -16zM1190 569l-27 -166q57 25 121 25q98 0 162.5 -62.5t64.5 -156.5q-2 -96 -73 -159.5t-178 -63.5q-71 0 -135 26.5t-105 79.5q-6 12 -6 21q0 15 16 28l17 17q7 10 20 10q12 0 37 -25q20 -20 33 -30.5t46.5 -23t73.5 -11.5q62 0 102 37
t40 94q-2 56 -40.5 92.5t-98.5 36.5q-46 2 -101 -27q-4 -2 -13.5 -6t-16 -6t-13.5 -2q-10 0 -16 2l-25 8q-30 8 -24 43l43 281q6 33 41 33h290q37 0 37 -37v-21q0 -37 -37 -37h-235z" />
    <glyph glyph-name="uni2156" unicode="&#x2156;" horiz-adv-x="1689" 
d="M276 864h283q37 0 37 -37v-20q0 -37 -37 -37h-409q-37 0 -37 35v16q0 32 28 60l230 231q60 58 75 81.5t15 57.5q0 47 -34 75t-91 28q-16 0 -31.5 -2t-25.5 -4t-24 -8t-18.5 -8.5t-18.5 -10t-15 -8.5q-30 -17 -39 -17q-11 0 -23 15l-14 18q-10 13 -10 25q0 15 12 24
q81 70 207 70q106 0 170.5 -54t64.5 -143q0 -47 -21 -88t-75 -96zM1278 1395l-780 -1362q-18 -33 -56 -33h-41q-13 0 -20.5 6.5t-7.5 16.5q0 7 6 16l780 1362q9 19 21 26t34 7h41q12 0 19.5 -7t7.5 -16q0 -4 -4 -16zM1255 569l-26 -166q57 25 121 25q98 0 162.5 -62.5
t64.5 -156.5q-2 -95 -73.5 -159t-178.5 -64q-72 0 -135.5 26.5t-102.5 79.5q-6 12 -6 21q0 16 15 28l16 17q10 10 21 10t36 -25q20 -20 33.5 -30.5t46.5 -23t74 -11.5q61 0 101 37t40 94q-2 56 -40.5 92.5t-98.5 36.5q-45 2 -100 -27q-33 -14 -43 -14q-11 0 -17 2l-24 8
q-31 8 -25 43l43 281q6 33 41 33h291q37 0 37 -37v-21q0 -37 -37 -37h-236z" />
    <glyph glyph-name="uni2157" unicode="&#x2157;" horiz-adv-x="1689" 
d="M154 1311l-15 20q-10 13 -10 25q0 13 12 22q76 68 201 68q98 0 159.5 -49t63.5 -127q3 -93 -84 -142q56 -25 86 -70t29 -102q0 -88 -70.5 -143t-183.5 -55q-150 0 -227 92q-11 15 -11 22q0 14 13 27l14 16q13 13 23 13q7 0 34 -19q19 -16 33.5 -26t47.5 -20t73 -9
q66 0 104.5 31t36.5 84q0 51 -39 81.5t-102 30.5h-31q-39 0 -39 35v21q0 34 39 34h31q52 0 86.5 25.5t34.5 63.5q1 41 -32 66.5t-89 25.5q-62 0 -113 -29q-8 -4 -14 -10q-23 -19 -37 -19q-13 0 -24 17zM1290 1395l-780 -1362q-18 -33 -55 -33h-41q-13 0 -21 7t-8 16
q0 7 6 16l780 1362q16 33 56 33h41q12 0 19 -7t7 -16q0 -4 -4 -16zM1268 569l-27 -166q57 25 121 25q98 0 162.5 -62.5t64.5 -156.5q-2 -95 -73.5 -159t-178.5 -64q-157 0 -239 106q-6 12 -6 21q0 15 16 28l16 17q10 10 21 10q12 0 37 -25q20 -20 33 -30.5t46.5 -23
t73.5 -11.5q62 0 102 37t40 94q-2 56 -41 92.5t-99 36.5q-45 2 -100 -27q-4 -2 -13.5 -6t-16 -6t-13.5 -2q-10 0 -16 2l-25 8q-31 8 -25 43l43 281q6 33 41 33h291q37 0 37 -37v-21q0 -37 -37 -37h-235z" />
    <glyph glyph-name="uni2158" unicode="&#x2158;" horiz-adv-x="1689" 
d="M227 987h191v105q0 36 37 36h37q36 0 36 -36v-105h58q37 0 37 -35v-20q0 -37 -37 -37h-58v-88q0 -37 -36 -37h-37q-37 0 -37 37v88h-285q-37 0 -37 35v18q0 29 29 78l272 401q16 19 31 19q9 0 21 -6l30 -19q19 -13 19 -26q0 -11 -9 -23zM1294 1395l-780 -1362
q-18 -33 -55 -33h-41q-13 0 -21 7t-8 16q0 7 6 16l781 1362q9 19 21 26t34 7h41q12 0 19 -7t7 -16q0 -4 -4 -16zM1272 569l-27 -166q57 25 121 25q98 0 162.5 -62.5t64.5 -156.5q-2 -95 -73.5 -159t-178.5 -64q-71 0 -134.5 26.5t-102.5 79.5q-6 12 -6 21q0 17 14 28l16 17
q10 10 21 10q12 0 37 -25q20 -20 33 -30.5t46.5 -23t73.5 -11.5q62 0 102 37t40 94q-2 56 -41 92.5t-99 36.5q-45 2 -100 -27q-33 -14 -43 -14t-16 2l-25 8q-30 8 -24 43l43 281q6 33 41 33h290q37 0 37 -37v-21q0 -37 -37 -37h-235z" />
    <glyph glyph-name="uni2159" unicode="&#x2159;" horiz-adv-x="1689" 
d="M330 1323l-92 -43q-12 -4 -19 -4q-13 0 -22 12l-19 29q-6 9 -6 16q0 13 16 23l119 59q36 19 68 19h22q31 0 31 -29v-606q0 -29 -31 -29h-39q-28 0 -28 29v524zM1202 1395l-780 -1362q-18 -33 -55 -33h-41q-13 0 -21 7t-8 16q0 7 6 16l780 1362q16 33 56 33h41q12 0 19 -7
t7 -16q0 -4 -4 -16zM1243 436h19q113 0 187.5 -64t74.5 -161q0 -96 -74.5 -160.5t-185.5 -64.5q-114 0 -187 62t-73 163q0 74 28 113l230 329q13 19 30 19q9 0 21 -6l35 -21q18 -12 18 -27q0 -11 -8 -22zM1264 78q68 0 108.5 37.5t40.5 95.5q0 56 -44 95.5t-107 39.5
q-62 0 -105 -39t-43 -96q0 -58 41 -95.5t109 -37.5z" />
    <glyph glyph-name="uni215A" unicode="&#x215a;" horiz-adv-x="1689" 
d="M276 1339l-26 -165q55 24 121 24q98 0 162.5 -62.5t64.5 -156.5q-2 -95 -73.5 -159t-178.5 -64q-71 0 -134.5 26.5t-102.5 79.5q-7 14 -7 21q0 13 15 28l16 17q10 10 23 10t34 -25q20 -20 33.5 -30.5t46.5 -23t74 -11.5q61 0 101 37t40 94q-2 56 -40.5 92.5t-98.5 36.5
q-45 2 -100 -27q-33 -14 -41 -14q-11 0 -19 2l-24 8q-31 8 -25 43l43 281q6 33 41 33h291q37 0 37 -37v-21q0 -37 -37 -37h-236zM1274 1395l-780 -1362q-18 -33 -56 -33h-41q-12 0 -19 7t-7 16q0 4 4 16l780 1362q9 19 21 26t34 7h41q13 0 21 -7t8 -16q0 -7 -6 -16z
M1315 436h18q113 0 187.5 -64t74.5 -161q0 -96 -74.5 -160.5t-185.5 -64.5q-114 0 -187 62t-73 163q0 72 29 113l229 329q16 19 31 19q11 0 20 -6l35 -21q21 -12 21 -27q0 -12 -10 -22zM1335 78q68 0 109 37.5t41 95.5q0 56 -44.5 95.5t-107.5 39.5q-62 0 -104.5 -39
t-42.5 -96q0 -58 40.5 -95.5t108.5 -37.5z" />
    <glyph glyph-name="oneeighth" unicode="&#x215b;" horiz-adv-x="1689" 
d="M338 1323l-92 -43q-12 -4 -19 -4q-13 0 -22 12l-19 29q-6 9 -6 16q0 13 17 23l118 59q36 19 68 19h23q30 0 30 -29v-606q0 -29 -30 -29h-39q-29 0 -29 29v524zM1210 1395l-780 -1362q-18 -33 -55 -33h-41q-13 0 -21 7t-8 16q0 7 6 16l781 1362q9 19 21 26t34 7h41
q12 0 19 -7t7 -16q0 -4 -4 -16zM1124 362q-75 49 -75 140q0 78 60 127t153 49q94 0 154.5 -49t60.5 -127q0 -91 -76 -140q52 -23 82 -70t30 -104q0 -90 -70 -146t-181 -56t-180.5 56t-69.5 146q0 57 30 104t82 70zM1262 315q-63 0 -100.5 -33t-37.5 -85t39.5 -85.5
t98.5 -33.5q60 0 99.5 33.5t39.5 85.5t-38.5 85t-100.5 33zM1262 592q-52 0 -80.5 -25t-28.5 -67t30 -68t79 -26t78.5 25.5t29.5 68.5q0 42 -28 67t-80 25z" />
    </font>
</defs>
</svg>
