<svg width="210" height="196" viewBox="0 0 210 196" fill="none" xmlns="http://www.w3.org/2000/svg">
<path d="M134.14 51.1402C129.106 51.1422 124.185 49.6513 119.998 46.856C115.812 44.0607 112.548 40.0867 110.62 35.4365C108.693 30.7863 108.187 25.6688 109.168 20.7313C110.149 15.7938 112.572 11.2582 116.131 7.69792C119.69 4.13767 124.224 1.7128 129.161 0.729992C134.099 -0.252813 139.216 0.2506 143.867 2.17656C148.518 4.10251 152.493 7.36449 155.29 11.5499C158.087 15.7354 159.58 20.6563 159.58 25.6902C159.572 32.4358 156.89 38.903 152.121 43.6738C147.352 48.4446 140.886 51.1297 134.14 51.1402ZM134.14 4.25024C129.897 4.24826 125.748 5.50485 122.219 7.86105C118.69 10.2172 115.94 13.5672 114.315 17.4871C112.69 21.4069 112.265 25.7206 113.092 29.8825C113.919 34.0443 115.962 37.8672 118.963 40.8677C121.963 43.8681 125.786 45.9112 129.948 46.7386C134.11 47.5659 138.423 47.1403 142.343 45.5155C146.263 43.8908 149.613 41.14 151.969 37.611C154.326 34.082 155.582 29.9335 155.58 25.6902C155.572 20.0064 153.311 14.5577 149.292 10.5386C145.273 6.51957 139.824 4.25818 134.14 4.25024Z" fill="white"/>
<path d="M177.28 82.9097H173.28C173.272 74.4862 169.922 66.41 163.966 60.4536C158.01 54.4973 149.934 51.1476 141.51 51.1396H134.14V47.1396H141.51C150.994 47.1502 160.086 50.9222 166.792 57.6281C173.498 64.334 177.27 73.4261 177.28 82.9097Z" fill="white"/>
<path d="M75.8602 51.1402C70.8266 51.1402 65.9061 49.6476 61.7209 46.8512C57.5357 44.0547 54.2737 40.0799 52.3474 35.4295C50.4212 30.7792 49.9172 25.662 50.8992 20.7252C51.8812 15.7884 54.3051 11.2536 57.8643 7.69438C61.4235 4.13513 65.9583 1.71126 70.8951 0.729263C75.8319 -0.252731 80.9491 0.251255 85.5995 2.17751C90.2498 4.10376 94.2246 7.36575 97.0211 11.551C99.8176 15.7362 101.31 20.6567 101.31 25.6902C101.305 32.4384 98.6218 38.9086 93.8502 43.6803C89.0785 48.4519 82.6083 51.1349 75.8602 51.1402ZM75.8602 4.25024C71.6173 4.25024 67.4698 5.50852 63.9422 7.86592C60.4145 10.2233 57.6652 13.5739 56.042 17.494C54.4188 21.4141 53.9946 25.7274 54.8231 29.8886C55.6515 34.0498 57.6954 37.8718 60.6963 40.8712C63.6971 43.8707 67.5201 45.9128 71.6816 46.7393C75.8432 47.5658 80.1564 47.1396 84.0757 45.5146C87.995 43.8896 91.3443 41.1387 93.7001 37.61C96.0558 34.0812 97.3121 29.9331 97.3102 25.6902C97.3022 20.0047 95.0395 14.5545 91.0182 10.5351C86.997 6.51576 81.5457 4.25553 75.8602 4.25024Z" fill="white"/>
<path d="M36.7202 82.9097H32.7202C32.7308 73.4261 36.5028 64.334 43.2087 57.6281C49.9146 50.9222 59.0067 47.1502 68.4902 47.1396H75.8602V51.1396H68.4902C60.0667 51.1476 51.9905 54.4973 46.0342 60.4536C40.0779 66.41 36.7282 74.4862 36.7202 82.9097Z" fill="white"/>
<path d="M105 121C99.1944 121.002 93.5185 119.282 88.6904 116.058C83.8623 112.833 80.0989 108.25 77.8762 102.886C75.6535 97.5228 75.0715 91.6207 76.2036 85.9264C77.3358 80.2321 80.1313 75.0015 84.2366 70.8962C88.3418 66.791 93.5724 63.9954 99.2667 62.8633C104.961 61.7311 110.863 62.3132 116.227 64.5359C121.59 66.7585 126.174 70.522 129.398 75.3501C132.622 80.1782 134.342 85.8541 134.34 91.6598C134.33 99.438 131.235 106.895 125.735 112.395C120.235 117.895 112.778 120.989 105 121ZM105 66.3098C99.986 66.3078 95.0838 67.7929 90.9137 70.5772C86.7436 73.3615 83.4929 77.3199 81.5727 81.9519C79.6525 86.5838 79.149 91.6812 80.126 96.5992C81.103 101.517 83.5166 106.035 87.0615 109.581C90.6063 113.128 95.1232 115.543 100.041 116.522C104.959 117.501 110.056 117 114.689 115.081C119.322 113.163 123.281 109.914 126.067 105.745C128.853 101.576 130.34 96.674 130.34 91.6598C130.33 84.9434 127.656 78.5052 122.906 73.757C118.156 69.0087 111.717 66.3378 105 66.3298V66.3098Z" fill="white"/>
<path d="M155 195.75H55V158.4C55.0053 147.422 59.3688 136.894 67.1316 129.132C74.8945 121.369 85.4217 117.005 96.4 117H113.6C124.578 117.005 135.106 121.369 142.868 129.132C150.631 136.894 154.995 147.422 155 158.4V195.75ZM59 191.75H151V158.4C150.995 148.483 147.053 138.973 140.04 131.96C133.027 124.947 123.517 121.005 113.6 121H96.4C86.4825 121.005 76.9728 124.947 69.9601 131.96C62.9473 138.973 59.0053 148.483 59 158.4V191.75Z" fill="white"/>
<path d="M166.43 129.16C161.396 129.16 156.476 127.667 152.291 124.871C148.105 122.074 144.844 118.099 142.917 113.449C140.991 108.799 140.487 103.682 141.469 98.7447C142.451 93.8079 144.875 89.2732 148.434 85.7139C151.993 82.1547 156.528 79.7308 161.465 78.7488C166.402 77.7668 171.519 78.2708 176.169 80.197C180.82 82.1233 184.794 85.3853 187.591 89.5705C190.387 93.7558 191.88 98.6763 191.88 103.71C191.875 110.458 189.192 116.928 184.42 121.7C179.648 126.471 173.178 129.154 166.43 129.16ZM166.43 82.2698C162.187 82.2698 158.04 83.528 154.512 85.8854C150.984 88.2428 148.235 91.5935 146.612 95.5135C144.989 99.4336 144.564 103.747 145.393 107.908C146.221 112.069 148.265 115.891 151.266 118.891C154.267 121.89 158.09 123.932 162.251 124.759C166.413 125.585 170.726 125.159 174.645 123.534C178.565 121.909 181.914 119.158 184.27 115.629C186.626 112.101 187.882 107.953 187.88 103.71C187.872 98.0243 185.609 92.574 181.588 88.5547C177.567 84.5353 172.116 82.2751 166.43 82.2698Z" fill="#F81381"/>
<path d="M209.58 195.75H170.52V191.75H205.58V160.93C205.57 152.507 202.219 144.433 196.263 138.477C190.308 132.521 182.233 129.171 173.81 129.16H166.43V125.16H173.81C183.293 125.173 192.383 128.946 199.089 135.652C205.794 142.357 209.567 151.447 209.58 160.93V195.75Z" fill="#F81381"/>
<path d="M43.5701 129.16C38.5357 129.164 33.6133 127.674 29.4254 124.88C25.2375 122.086 21.9724 118.113 20.0431 113.463C18.1138 108.813 17.607 103.695 18.5867 98.757C19.5664 93.8189 21.9887 89.2822 25.5472 85.721C29.1056 82.1597 33.6403 79.7339 38.5777 78.7503C43.5151 77.7666 48.6332 78.2695 53.2848 80.1951C57.9363 82.1208 61.9122 85.3828 64.7096 89.5684C67.507 93.7541 69.0001 98.6754 69.0001 103.71C68.9922 110.454 66.311 116.919 61.5443 121.69C56.7775 126.46 50.314 129.147 43.5701 129.16ZM43.5701 82.2698C39.3264 82.2658 35.1769 83.5207 31.6466 85.8757C28.1164 88.2307 25.364 91.5799 23.7377 95.4996C22.1114 99.4194 21.6844 103.733 22.5106 107.896C23.3368 112.058 25.3791 115.882 28.3791 118.884C31.3792 121.885 35.2021 123.929 39.3642 124.757C43.5263 125.586 47.8405 125.16 51.761 123.536C55.6814 121.912 59.032 119.161 61.3886 115.632C63.7452 112.102 65.0021 107.953 65.0001 103.71C64.9922 98.0277 62.7322 92.5805 58.7153 88.5617C54.6984 84.5429 49.2522 82.2804 43.5701 82.2698Z" fill="#F81381"/>
<path d="M39.4799 195.75H0.419922V160.93C0.433149 151.447 4.20602 142.357 10.9113 135.652C17.6166 128.946 26.7072 125.173 36.1899 125.16H43.5699V129.16H36.1899C27.7672 129.171 19.6926 132.521 13.7368 138.477C7.78109 144.433 4.43051 152.507 4.41992 160.93V191.75H39.4799V195.75Z" fill="#F81381"/>
</svg>
