<svg id="Layer_3" data-name="Layer 3" xmlns="http://www.w3.org/2000/svg" viewBox="0 0 500 500"><defs><style>.cls-1{fill:#523490;}.cls-2{fill:#fff;}.cls-3{fill:#f81381;}</style></defs><path class="cls-1" d="M250,447.9C140.88,447.9,52.1,359.12,52.1,250S140.88,52.1,250,52.1,447.9,140.88,447.9,250,359.12,447.9,250,447.9Zm0-392.8C142.53,55.1,55.1,142.53,55.1,250S142.53,444.9,250,444.9,444.9,357.47,444.9,250,357.47,55.1,250,55.1Z"/><path class="cls-2" d="M279.14,199.14a25.45,25.45,0,1,1,25.44-25.45A25.48,25.48,0,0,1,279.14,199.14Zm0-46.89a21.45,21.45,0,1,0,21.44,21.44A21.47,21.47,0,0,0,279.14,152.25Z"/><path class="cls-2" d="M322.28,230.91h-4a31.8,31.8,0,0,0-31.77-31.77h-7.37v-4h7.37A35.81,35.81,0,0,1,322.28,230.91Z"/><path class="cls-2" d="M220.86,199.14a25.45,25.45,0,1,1,25.45-25.45A25.47,25.47,0,0,1,220.86,199.14Zm0-46.89a21.45,21.45,0,1,0,21.45,21.44A21.47,21.47,0,0,0,220.86,152.25Z"/><path class="cls-2" d="M181.72,230.91h-4a35.81,35.81,0,0,1,35.77-35.77h7.37v4h-7.37A31.8,31.8,0,0,0,181.72,230.91Z"/><path class="cls-2" d="M250,269a29.35,29.35,0,1,1,29.34-29.34A29.38,29.38,0,0,1,250,269Zm0-54.69a25.35,25.35,0,1,0,25.34,25.35A25.37,25.37,0,0,0,250,214.33Z"/><path class="cls-2" d="M300,343.75H200V306.4A41.42,41.42,0,0,1,241.4,265h17.2A41.42,41.42,0,0,1,300,306.4Zm-96-4h92V306.4A37.42,37.42,0,0,0,258.6,269H241.4A37.42,37.42,0,0,0,204,306.4Z"/><path class="cls-3" d="M311.43,277.16a25.45,25.45,0,1,1,25.45-25.45A25.47,25.47,0,0,1,311.43,277.16Zm0-46.89a21.45,21.45,0,1,0,21.45,21.44A21.47,21.47,0,0,0,311.43,230.27Z"/><path class="cls-3" d="M354.58,343.75H315.52v-4h35.06V308.93a31.81,31.81,0,0,0-31.77-31.77h-7.38v-4h7.38a35.82,35.82,0,0,1,35.77,35.77Z"/><path class="cls-3" d="M188.57,277.16A25.45,25.45,0,1,1,214,251.71,25.48,25.48,0,0,1,188.57,277.16Zm0-46.89A21.45,21.45,0,1,0,210,251.71,21.47,21.47,0,0,0,188.57,230.27Z"/><path class="cls-3" d="M184.48,343.75H145.42V308.93a35.82,35.82,0,0,1,35.77-35.77h7.38v4h-7.38a31.81,31.81,0,0,0-31.77,31.77v30.82h35.06Z"/></svg>