<svg id="Layer_1" data-name="Layer 1" xmlns="http://www.w3.org/2000/svg" viewBox="0 0 238 238"><defs><style>.cls-1,.cls-2{fill:none;stroke-miterlimit:10;stroke-width:6px;}.cls-1{stroke:#fff;}.cls-2{stroke:#f81381;}</style></defs><circle class="cls-1" cx="144.975" cy="23.928" r="20.901"/><path class="cls-1" d="M144.975,44.829h6.574a30.1,30.1,0,0,1,30.1,30.1"/><circle class="cls-2" cx="93.025" cy="23.928" r="20.901"/><path class="cls-2" d="M93.025,44.829H86.451a30.1,30.1,0,0,0-30.1,30.1"/><circle class="cls-1" cx="119" cy="82.748" r="24.373"/><path class="cls-1" d="M76.229,142.227a35.1,35.1,0,0,1,35.105-35.106h15.332a35.1,35.1,0,0,1,35.1,35.106"/><circle class="cls-2" cx="144.975" cy="154.709" r="20.901"/><path class="cls-2" d="M144.975,175.61h6.574a30.1,30.1,0,0,1,30.1,30.1v29.259H148.615"/><path class="cls-2" d="M144.975,175.61H138.4a30.1,30.1,0,0,0-30.1,30.1v29.259h53.473"/><circle class="cls-1" cx="93.025" cy="154.709" r="20.901"/><path class="cls-1" d="M93.025,175.61H86.451a30.1,30.1,0,0,0-30.1,30.1v29.259H89.385"/><circle class="cls-2" cx="64.236" cy="93.48" r="20.901"/><path class="cls-2" d="M64.236,114.38H57.662a30.1,30.1,0,0,0-30.1,30.1v29.259H60.6"/><circle class="cls-2" cx="173.764" cy="93.48" r="20.901"/><path class="cls-2" d="M173.764,114.38h6.574a30.1,30.1,0,0,1,30.1,30.1v29.259H177.4"/></svg>