<svg width="244" height="244" viewBox="0 0 244 244" fill="none" xmlns="http://www.w3.org/2000/svg">
<path d="M122 243.07C103.5 243.07 86.2001 230.32 73.2901 207.17C60.5801 184.38 53.5801 154.17 53.5801 122C53.5801 89.8297 60.5801 59.6197 73.2901 36.8297C86.2001 13.6797 103.5 0.929688 122 0.929688C140.5 0.929688 157.8 13.6797 170.71 36.8297C183.42 59.6197 190.42 89.8297 190.42 122C190.42 154.17 183.42 184.38 170.71 207.17C157.8 230.32 140.5 243.07 122 243.07ZM122 4.92969C86.4801 4.92969 57.5801 57.4497 57.5801 122C57.5801 186.55 86.4801 239.07 122 239.07C157.52 239.07 186.42 186.55 186.42 122C186.42 57.4497 157.52 4.92969 122 4.92969Z" fill="#F81381"/>
<path d="M124 2.92969H120V241.06H124V2.92969Z" fill="#F81381"/>
<path d="M241.06 120H2.93018V124H241.06V120Z" fill="white"/>
<path d="M122 243.07C98.0548 243.07 74.6472 235.969 54.7373 222.666C34.8275 209.362 19.3096 190.454 10.1461 168.331C0.982629 146.209 -1.41495 121.865 3.25656 98.3802C7.92807 74.8949 19.4589 53.3223 36.3908 36.3903C53.3227 19.4584 74.8954 7.92758 98.3806 3.25607C121.866 -1.41544 146.209 0.982141 168.332 10.1456C190.454 19.3091 209.363 34.827 222.666 54.7368C235.97 74.6467 243.07 98.0544 243.07 122C243.036 154.099 230.269 184.874 207.572 207.571C184.874 230.269 154.099 243.035 122 243.07ZM122 4.92973C98.846 4.92973 76.2117 11.7958 56.9596 24.6596C37.7076 37.5234 22.7024 55.8072 13.8417 77.199C4.98091 98.5907 2.66253 122.13 7.1797 144.839C11.6969 167.548 22.8467 188.408 39.2192 204.781C55.5918 221.153 76.4517 232.303 99.161 236.82C121.87 241.337 145.409 239.019 166.801 230.158C188.193 221.298 206.477 206.292 219.34 187.04C232.204 167.788 239.07 145.154 239.07 122C239.033 90.9622 226.687 61.2065 204.74 39.2597C182.793 17.3128 153.038 4.96678 122 4.92973Z" fill="white"/>
</svg>
