<svg width="289" height="549" viewBox="0 0 289 549" fill="none" xmlns="http://www.w3.org/2000/svg">
  <g clip-path="url(#clip0_912_518)">
  <g clip-path="url(#clip1_912_518)">
  <g opacity="0.458">
  <path d="M33.6777 292.647L66.6509 273.43L99.5491 291.26V329.654L66.6509 348.655L33.6777 329.654V292.647Z" stroke="#DD4D9B" stroke-width="0.752816"/>
  <path opacity="0.07" d="M198.154 347.057L231.127 327.84L264.026 345.67V384.064L231.127 403.066L198.154 384.064V347.057Z" stroke="#DD4D9B" stroke-width="0.752816"/>
  <path opacity="0.39" d="M99.5488 291.893L132.522 272.676L165.42 290.506V328.9L132.522 347.901L99.5488 328.9V291.893Z" stroke="#DD4D9B" stroke-width="0.752816"/>
  <path opacity="0.215" d="M66.7891 236.072L99.7622 216.855L132.66 234.686V273.08L99.7622 292.081L66.7891 273.08V236.072Z" stroke="#DD4D9B" stroke-width="0.752816"/>
  <path opacity="0.113" d="M132.484 234.944L165.458 215.727L198.356 233.557V271.951L165.458 290.952L132.484 271.951V234.944Z" stroke="#DD4D9B" stroke-width="0.752816"/>
  <path opacity="0.01" d="M165.22 290.973L198.193 271.756L231.091 289.586V327.98L198.193 346.982L165.22 327.98V290.973Z" stroke="#DD4D9B" stroke-width="0.752816"/>
  <path opacity="0.01" d="M131.907 347.811L164.88 328.594L197.779 346.424V384.818L164.88 403.819L131.907 384.818V347.811Z" stroke="#DD4D9B" stroke-width="0.752816"/>
  <path d="M66.0371 348.563L99.0103 329.346L131.908 347.176V385.57L99.0103 404.571L66.0371 385.57V348.563Z" stroke="#DD4D9B" stroke-width="0.752816"/>
  <path d="M-0.0234375 349.317L32.9497 330.1L65.8479 347.93V386.324L32.9497 405.325L-0.0234375 386.324V349.317Z" stroke="#DD4D9B" stroke-width="0.752816"/>
  <path d="M-32.3945 293.231L0.578643 274.014L33.4768 291.844V330.238L0.578643 349.239L-32.3945 330.238V293.231Z" stroke="#DD4D9B" stroke-width="0.752816"/>
  <path opacity="0.259" d="M0.729492 236.072L33.7027 216.855L66.6009 234.686V273.08L33.7027 292.081L0.729492 273.08V236.072Z" stroke="#DD4D9B" stroke-width="0.752816"/>
  <path d="M66.9767 276.272C68.4318 276.272 69.6115 275.092 69.6115 273.637C69.6115 272.182 68.4318 271.002 66.9767 271.002C65.5215 271.002 64.3418 272.182 64.3418 273.637C64.3418 275.092 65.5215 276.272 66.9767 276.272Z" fill="#DD389A"/>
  <path d="M66.2247 350.801C67.6799 350.801 68.8596 349.621 68.8596 348.166C68.8596 346.711 67.6799 345.531 66.2247 345.531C64.7695 345.531 63.5898 346.711 63.5898 348.166C63.5898 349.621 64.7695 350.801 66.2247 350.801Z" fill="#DD389A"/>
  <path d="M33.8536 331.981C35.3088 331.981 36.4885 330.801 36.4885 329.346C36.4885 327.891 35.3088 326.711 33.8536 326.711C32.3984 326.711 31.2188 327.891 31.2188 329.346C31.2188 330.801 32.3984 331.981 33.8536 331.981Z" fill="#DD389A"/>
  <path d="M99.3477 331.981C100.803 331.981 101.983 330.801 101.983 329.346C101.983 327.891 100.803 326.711 99.3477 326.711C97.8926 326.711 96.7129 327.891 96.7129 329.346C96.7129 330.801 97.8926 331.981 99.3477 331.981Z" fill="#DD389A"/>
  <path d="M99.3477 293.588C100.803 293.588 101.983 292.408 101.983 290.953C101.983 289.498 100.803 288.318 99.3477 288.318C97.8926 288.318 96.7129 289.498 96.7129 290.953C96.7129 292.408 97.8926 293.588 99.3477 293.588Z" fill="#DD389A"/>
  <path d="M132.472 350.049C133.927 350.049 135.107 348.869 135.107 347.414C135.107 345.959 133.927 344.779 132.472 344.779C131.017 344.779 129.837 345.959 129.837 347.414C129.837 348.869 131.017 350.049 132.472 350.049Z" fill="#DD389A"/>
  <path opacity="0.468" d="M165.596 331.981C167.051 331.981 168.231 330.801 168.231 329.346C168.231 327.891 167.051 326.711 165.596 326.711C164.141 326.711 162.961 327.891 162.961 329.346C162.961 330.801 164.141 331.981 165.596 331.981Z" fill="#DD389A"/>
  <path d="M132.472 387.69C133.927 387.69 135.107 386.51 135.107 385.055C135.107 383.6 133.927 382.42 132.472 382.42C131.017 382.42 129.837 383.6 129.837 385.055C129.837 386.51 131.017 387.69 132.472 387.69Z" fill="#DD389A"/>
  <path opacity="0.094" d="M197.967 349.295C199.422 349.295 200.602 348.115 200.602 346.66C200.602 345.205 199.422 344.025 197.967 344.025C196.512 344.025 195.332 345.205 195.332 346.66C195.332 348.115 196.512 349.295 197.967 349.295Z" fill="#DD389A"/>
  <path opacity="0.172" d="M231.091 292.082C232.546 292.082 233.726 290.903 233.726 289.447C233.726 287.992 232.546 286.812 231.091 286.812C229.636 286.812 228.456 287.992 228.456 289.447C228.456 290.903 229.636 292.082 231.091 292.082Z" fill="#DD389A"/>
  <path opacity="0.265" d="M197.967 274.766C199.422 274.766 200.602 273.586 200.602 272.131C200.602 270.676 199.422 269.496 197.967 269.496C196.512 269.496 195.332 270.676 195.332 272.131C195.332 273.586 196.512 274.766 197.967 274.766Z" fill="#DD389A"/>
  <path opacity="0.473" d="M164.843 292.082C166.298 292.082 167.478 290.903 167.478 289.447C167.478 287.992 166.298 286.812 164.843 286.812C163.388 286.812 162.208 287.992 162.208 289.447C162.208 290.903 163.388 292.082 164.843 292.082Z" fill="#DD389A"/>
  <path d="M132.472 275.52C133.927 275.52 135.107 274.34 135.107 272.885C135.107 271.43 133.927 270.25 132.472 270.25C131.017 270.25 129.837 271.43 129.837 272.885C129.837 274.34 131.017 275.52 132.472 275.52Z" fill="#DD389A"/>
  <path d="M0.729581 276.272C2.18477 276.272 3.36444 275.092 3.36444 273.637C3.36444 272.182 2.18477 271.002 0.729581 271.002C-0.725609 271.002 -1.90527 272.182 -1.90527 273.637C-1.90527 275.092 -0.725609 276.272 0.729581 276.272Z" fill="#DD389A"/>
  <path d="M-0.0233488 350.801C1.43184 350.801 2.61151 349.621 2.61151 348.166C2.61151 346.711 1.43184 345.531 -0.0233488 345.531C-1.47854 345.531 -2.6582 346.711 -2.6582 348.166C-2.6582 349.621 -1.47854 350.801 -0.0233488 350.801Z" fill="#DD389A"/>
  <path opacity="0.501" d="M132.472 237.125C133.927 237.125 135.107 235.946 135.107 234.49C135.107 233.035 133.927 231.855 132.472 231.855C131.017 231.855 129.837 233.035 129.837 234.49C129.837 235.946 131.017 237.125 132.472 237.125Z" fill="#DD389A"/>
  <path d="M66.2247 389.195C67.6799 389.195 68.8596 388.016 68.8596 386.561C68.8596 385.105 67.6799 383.926 66.2247 383.926C64.7695 383.926 63.5898 385.105 63.5898 386.561C63.5898 388.016 64.7695 389.195 66.2247 389.195Z" fill="#DD389A"/>
  </g>
  <g opacity="0.194">
  <path d="M-5.24316 435.576L27.73 416.359L60.6282 434.19V472.583L27.73 491.585L-5.24316 472.583V435.576Z" stroke="#DD4D9B" stroke-width="0.752816"/>
  <path opacity="0.177" d="M159.233 489.987L192.207 470.77L225.105 488.6V526.994L192.207 545.995L159.233 526.994V489.987Z" stroke="#DD4D9B" stroke-width="0.752816"/>
  <path opacity="0.292" d="M60.6279 434.822L93.6011 415.605L126.499 433.436V471.83L93.6011 490.831L60.6279 471.83V434.822Z" stroke="#DD4D9B" stroke-width="0.752816"/>
  <path d="M27.8682 379.002L60.8413 359.785L93.7395 377.616V416.009L60.8413 435.011L27.8682 416.009V379.002Z" stroke="#DD4D9B" stroke-width="0.752816"/>
  <path opacity="0.353" d="M93.5635 377.873L126.537 358.656L159.435 376.487V414.88L126.537 433.882L93.5635 414.88V377.873Z" stroke="#DD4D9B" stroke-width="0.752816"/>
  <path opacity="0.325" d="M126.299 433.903L159.272 414.686L192.17 432.516V470.91L159.272 489.911L126.299 470.91V433.903Z" stroke="#DD4D9B" stroke-width="0.752816"/>
  <path opacity="0.148" d="M92.9863 490.74L125.96 471.523L158.858 489.354V527.748L125.96 546.749L92.9863 527.748V490.74Z" stroke="#DD4D9B" stroke-width="0.752816"/>
  <path opacity="0.145" d="M27.1162 491.492L60.0894 472.275L92.9876 490.106V528.499L60.0894 547.501L27.1162 528.499V491.492Z" stroke="#DD4D9B" stroke-width="0.752816"/>
  <path opacity="0.519" d="M-38.9443 492.246L-5.97116 473.029L26.927 490.86V529.253L-5.97116 548.255L-38.9443 529.253V492.246Z" stroke="#DD4D9B" stroke-width="0.752816"/>
  <path d="M-38.1914 379.002L-5.21823 359.785L27.68 377.616V416.009L-5.21823 435.011L-38.1914 416.009V379.002Z" stroke="#DD4D9B" stroke-width="0.752816"/>
  <path d="M28.0558 419.201C29.5109 419.201 30.6906 418.022 30.6906 416.566C30.6906 415.111 29.5109 413.932 28.0558 413.932C26.6006 413.932 25.4209 415.111 25.4209 416.566C25.4209 418.022 26.6006 419.201 28.0558 419.201Z" fill="#DD389A"/>
  <path d="M27.3038 493.731C28.759 493.731 29.9387 492.551 29.9387 491.096C29.9387 489.641 28.759 488.461 27.3038 488.461C25.8486 488.461 24.6689 489.641 24.6689 491.096C24.6689 492.551 25.8486 493.731 27.3038 493.731Z" fill="#DD389A"/>
  <path d="M60.4268 474.91C61.882 474.91 63.0617 473.731 63.0617 472.275C63.0617 470.82 61.882 469.641 60.4268 469.641C58.9717 469.641 57.792 470.82 57.792 472.275C57.792 473.731 58.9717 474.91 60.4268 474.91Z" fill="#DD389A"/>
  <path d="M60.4268 436.518C61.882 436.518 63.0617 435.338 63.0617 433.883C63.0617 432.428 61.882 431.248 60.4268 431.248C58.9717 431.248 57.792 432.428 57.792 433.883C57.792 435.338 58.9717 436.518 60.4268 436.518Z" fill="#DD389A"/>
  <path opacity="0.649" d="M93.5509 492.979C95.0061 492.979 96.1857 491.799 96.1857 490.344C96.1857 488.889 95.0061 487.709 93.5509 487.709C92.0957 487.709 90.916 488.889 90.916 490.344C90.916 491.799 92.0957 492.979 93.5509 492.979Z" fill="#DD389A"/>
  <path d="M126.675 474.91C128.13 474.91 129.31 473.731 129.31 472.275C129.31 470.82 128.13 469.641 126.675 469.641C125.22 469.641 124.04 470.82 124.04 472.275C124.04 473.731 125.22 474.91 126.675 474.91Z" fill="#DD389A"/>
  <path opacity="0.496" d="M93.5509 530.619C95.0061 530.619 96.1857 529.44 96.1857 527.984C96.1857 526.529 95.0061 525.35 93.5509 525.35C92.0957 525.35 90.916 526.529 90.916 527.984C90.916 529.44 92.0957 530.619 93.5509 530.619Z" fill="#DD389A"/>
  <path opacity="0.461" d="M159.046 492.225C160.501 492.225 161.681 491.045 161.681 489.59C161.681 488.135 160.501 486.955 159.046 486.955C157.591 486.955 156.411 488.135 156.411 489.59C156.411 491.045 157.591 492.225 159.046 492.225Z" fill="#DD389A"/>
  <path opacity="0.243" d="M159.046 530.619C160.501 530.619 161.681 529.44 161.681 527.984C161.681 526.529 160.501 525.35 159.046 525.35C157.591 525.35 156.411 526.529 156.411 527.984C156.411 529.44 157.591 530.619 159.046 530.619Z" fill="#DD389A"/>
  <path opacity="0.2" d="M192.17 435.012C193.625 435.012 194.805 433.832 194.805 432.377C194.805 430.922 193.625 429.742 192.17 429.742C190.715 429.742 189.535 430.922 189.535 432.377C189.535 433.832 190.715 435.012 192.17 435.012Z" fill="#DD389A"/>
  <path d="M159.046 417.695C160.501 417.695 161.681 416.516 161.681 415.061C161.681 413.605 160.501 412.426 159.046 412.426C157.591 412.426 156.411 413.605 156.411 415.061C156.411 416.516 157.591 417.695 159.046 417.695Z" fill="#DD389A"/>
  <path d="M125.922 435.012C127.377 435.012 128.557 433.832 128.557 432.377C128.557 430.922 127.377 429.742 125.922 429.742C124.467 429.742 123.287 430.922 123.287 432.377C123.287 433.832 124.467 435.012 125.922 435.012Z" fill="#DD389A"/>
  <path d="M93.5509 418.449C95.0061 418.449 96.1857 417.27 96.1857 415.815C96.1857 414.359 95.0061 413.18 93.5509 413.18C92.0957 413.18 90.916 414.359 90.916 415.815C90.916 417.27 92.0957 418.449 93.5509 418.449Z" fill="#DD389A"/>
  <path d="M93.5509 380.055C95.0061 380.055 96.1857 378.875 96.1857 377.42C96.1857 375.965 95.0061 374.785 93.5509 374.785C92.0957 374.785 90.916 375.965 90.916 377.42C90.916 378.875 92.0957 380.055 93.5509 380.055Z" fill="#DD389A"/>
  <path opacity="0.39" d="M27.3038 532.125C28.759 532.125 29.9387 530.946 29.9387 529.49C29.9387 528.035 28.759 526.855 27.3038 526.855C25.8486 526.855 24.6689 528.035 24.6689 529.49C24.6689 530.946 25.8486 532.125 27.3038 532.125Z" fill="#DD389A"/>
  </g>
  <g opacity="0.458">
  <path d="M8.83984 159.199L41.813 139.982L74.7112 157.813V196.206L41.813 215.208L8.83984 196.206V159.199Z" stroke="#DD4D9B" stroke-width="0.752816"/>
  <path opacity="0.07" d="M173.316 213.61L206.29 194.393L239.188 212.223V250.617L206.29 269.618L173.316 250.617V213.61Z" stroke="#DD4D9B" stroke-width="0.752816"/>
  <path opacity="0.39" d="M74.7109 158.446L107.684 139.229L140.582 157.059V195.453L107.684 214.454L74.7109 195.453V158.446Z" stroke="#DD4D9B" stroke-width="0.752816"/>
  <path opacity="0.215" d="M41.9512 102.625L74.9243 83.4082L107.823 101.239V139.632L74.9243 158.634L41.9512 139.632V102.625Z" stroke="#DD4D9B" stroke-width="0.752816"/>
  <path opacity="0.14" d="M107.646 101.496L140.62 82.2793L173.518 100.11V138.503L140.62 157.505L107.646 138.503V101.496Z" stroke="#DD4D9B" stroke-width="0.752816"/>
  <path opacity="0.01" d="M140.382 157.526L173.355 138.309L206.253 156.139V194.533L173.355 213.534L140.382 194.533V157.526Z" stroke="#DD4D9B" stroke-width="0.752816"/>
  <path opacity="0.01" d="M107.069 214.363L140.043 195.146L172.941 212.977V251.371L140.043 270.372L107.069 251.371V214.363Z" stroke="#DD4D9B" stroke-width="0.752816"/>
  <path d="M41.1992 215.115L74.1724 195.898L107.071 213.729V252.123L74.1724 271.124L41.1992 252.123V215.115Z" stroke="#DD4D9B" stroke-width="0.752816"/>
  <path d="M-24.8613 215.869L8.11185 196.652L41.01 214.483V252.876L8.11185 271.878L-24.8613 252.876V215.869Z" stroke="#DD4D9B" stroke-width="0.752816"/>
  <path d="M-57.2324 159.783L-24.2592 140.566L8.63894 158.397V196.79L-24.2592 215.792L-57.2324 196.79V159.783Z" stroke="#DD4D9B" stroke-width="0.752816"/>
  <path opacity="0.259" d="M-24.1084 102.625L8.86478 83.4082L41.763 101.239V139.632L8.86478 158.634L-24.1084 139.632V102.625Z" stroke="#DD4D9B" stroke-width="0.752816"/>
  <path d="M42.1388 142.824C43.594 142.824 44.7736 141.645 44.7736 140.19C44.7736 138.734 43.594 137.555 42.1388 137.555C40.6836 137.555 39.5039 138.734 39.5039 140.19C39.5039 141.645 40.6836 142.824 42.1388 142.824Z" fill="#DD389A"/>
  <path d="M41.3868 217.354C42.842 217.354 44.0217 216.174 44.0217 214.719C44.0217 213.264 42.842 212.084 41.3868 212.084C39.9316 212.084 38.752 213.264 38.752 214.719C38.752 216.174 39.9316 217.354 41.3868 217.354Z" fill="#DD389A"/>
  <path d="M9.01571 198.533C10.4709 198.533 11.6506 197.354 11.6506 195.899C11.6506 194.443 10.4709 193.264 9.01571 193.264C7.56052 193.264 6.38086 194.443 6.38086 195.899C6.38086 197.354 7.56052 198.533 9.01571 198.533Z" fill="#DD389A"/>
  <path d="M74.5099 198.533C75.965 198.533 77.1447 197.354 77.1447 195.899C77.1447 194.443 75.965 193.264 74.5099 193.264C73.0547 193.264 71.875 194.443 71.875 195.899C71.875 197.354 73.0547 198.533 74.5099 198.533Z" fill="#DD389A"/>
  <path d="M74.5099 160.141C75.965 160.141 77.1447 158.961 77.1447 157.506C77.1447 156.051 75.965 154.871 74.5099 154.871C73.0547 154.871 71.875 156.051 71.875 157.506C71.875 158.961 73.0547 160.141 74.5099 160.141Z" fill="#DD389A"/>
  <path d="M107.634 216.602C109.089 216.602 110.269 215.422 110.269 213.967C110.269 212.512 109.089 211.332 107.634 211.332C106.179 211.332 104.999 212.512 104.999 213.967C104.999 215.422 106.179 216.602 107.634 216.602Z" fill="#DD389A"/>
  <path opacity="0.468" d="M140.758 198.533C142.213 198.533 143.393 197.354 143.393 195.899C143.393 194.443 142.213 193.264 140.758 193.264C139.303 193.264 138.123 194.443 138.123 195.899C138.123 197.354 139.303 198.533 140.758 198.533Z" fill="#DD389A"/>
  <path d="M107.634 254.242C109.089 254.242 110.269 253.063 110.269 251.608C110.269 250.152 109.089 248.973 107.634 248.973C106.179 248.973 104.999 250.152 104.999 251.608C104.999 253.063 106.179 254.242 107.634 254.242Z" fill="#DD389A"/>
  <path opacity="0.094" d="M173.129 215.848C174.584 215.848 175.764 214.668 175.764 213.213C175.764 211.758 174.584 210.578 173.129 210.578C171.674 210.578 170.494 211.758 170.494 213.213C170.494 214.668 171.674 215.848 173.129 215.848Z" fill="#DD389A"/>
  <path opacity="0.172" d="M206.253 158.635C207.708 158.635 208.888 157.455 208.888 156C208.888 154.545 207.708 153.365 206.253 153.365C204.798 153.365 203.618 154.545 203.618 156C203.618 157.455 204.798 158.635 206.253 158.635Z" fill="#DD389A"/>
  <path opacity="0.265" d="M173.129 141.319C174.584 141.319 175.764 140.139 175.764 138.684C175.764 137.228 174.584 136.049 173.129 136.049C171.674 136.049 170.494 137.228 170.494 138.684C170.494 140.139 171.674 141.319 173.129 141.319Z" fill="#DD389A"/>
  <path opacity="0.473" d="M140.005 158.635C141.46 158.635 142.64 157.455 142.64 156C142.64 154.545 141.46 153.365 140.005 153.365C138.55 153.365 137.37 154.545 137.37 156C137.37 157.455 138.55 158.635 140.005 158.635Z" fill="#DD389A"/>
  <path d="M107.634 142.072C109.089 142.072 110.269 140.893 110.269 139.438C110.269 137.982 109.089 136.803 107.634 136.803C106.179 136.803 104.999 137.982 104.999 139.438C104.999 140.893 106.179 142.072 107.634 142.072Z" fill="#DD389A"/>
  <path opacity="0.501" d="M107.634 103.678C109.089 103.678 110.269 102.498 110.269 101.043C110.269 99.5879 109.089 98.4082 107.634 98.4082C106.179 98.4082 104.999 99.5879 104.999 101.043C104.999 102.498 106.179 103.678 107.634 103.678Z" fill="#DD389A"/>
  <path d="M41.3868 255.748C42.842 255.748 44.0217 254.569 44.0217 253.113C44.0217 251.658 42.842 250.479 41.3868 250.479C39.9316 250.479 38.752 251.658 38.752 253.113C38.752 254.569 39.9316 255.748 41.3868 255.748Z" fill="#DD389A"/>
  </g>
  <g opacity="0.36">
  <path opacity="0.057" d="M57.5791 78.3283L90.5523 59.1113L123.45 76.9418V115.335L90.5523 134.337L57.5791 115.335V78.3283Z" stroke="#DD4D9B" stroke-width="0.752816"/>
  <path opacity="0.07" d="M222.056 132.738L255.029 113.521L287.927 131.352V169.746L255.029 188.747L222.056 169.746V132.738Z" stroke="#DD4D9B" stroke-width="0.752816"/>
  <path opacity="0.099" d="M123.45 77.5744L156.423 58.3574L189.322 76.1879V114.581L156.423 133.583L123.45 114.581V77.5744Z" stroke="#DD4D9B" stroke-width="0.752816"/>
  <path opacity="0.027" d="M90.6904 21.7541L123.664 2.53711L156.562 20.3676V58.7612L123.664 77.7628L90.6904 58.7612V21.7541Z" stroke="#DD4D9B" stroke-width="0.752816"/>
  <path opacity="0.067" d="M156.386 20.6252L189.359 1.4082L222.257 19.2387V57.6323L189.359 76.6339L156.386 57.6323V20.6252Z" stroke="#DD4D9B" stroke-width="0.752816"/>
  <path opacity="0.01" d="M189.121 76.6545L222.094 57.4375L254.992 75.268V113.662L222.094 132.663L189.121 113.662V76.6545Z" stroke="#DD4D9B" stroke-width="0.752816"/>
  <path opacity="0.01" d="M155.809 133.492L188.782 114.275L221.68 132.106V170.499L188.782 189.501L155.809 170.499V133.492Z" stroke="#DD4D9B" stroke-width="0.752816"/>
  <path opacity="0.317" d="M89.9385 134.244L122.912 115.027L155.81 132.858V171.251L122.912 190.253L89.9385 171.251V134.244Z" stroke="#DD4D9B" stroke-width="0.752816"/>
  <path d="M23.8779 134.998L56.8511 115.781L89.7493 133.612V172.005L56.8511 191.007L23.8779 172.005V134.998Z" stroke="#DD4D9B" stroke-width="0.752816"/>
  <path opacity="0.239" d="M-8.49316 78.9123L24.48 59.6953L57.3782 77.5258V115.919L24.48 134.921L-8.49316 115.919V78.9123Z" stroke="#DD4D9B" stroke-width="0.752816"/>
  <path opacity="0.045" d="M24.6309 21.7541L57.604 2.53711L90.5022 20.3676V58.7612L57.604 77.7628L24.6309 58.7612V21.7541Z" stroke="#DD4D9B" stroke-width="0.752816"/>
  <path opacity="0.382" d="M90.878 61.9533C92.3332 61.9533 93.5129 60.7736 93.5129 59.3184C93.5129 57.8633 92.3332 56.6836 90.878 56.6836C89.4228 56.6836 88.2432 57.8633 88.2432 59.3184C88.2432 60.7736 89.4228 61.9533 90.878 61.9533Z" fill="#DD389A"/>
  <path d="M90.1261 136.483C91.5813 136.483 92.7609 135.303 92.7609 133.848C92.7609 132.393 91.5813 131.213 90.1261 131.213C88.6709 131.213 87.4912 132.393 87.4912 133.848C87.4912 135.303 88.6709 136.483 90.1261 136.483Z" fill="#DD389A"/>
  <path d="M57.755 117.662C59.2102 117.662 60.3898 116.483 60.3898 115.027C60.3898 113.572 59.2102 112.393 57.755 112.393C56.2998 112.393 55.1201 113.572 55.1201 115.027C55.1201 116.483 56.2998 117.662 57.755 117.662Z" fill="#DD389A"/>
  <path opacity="0.295" d="M123.249 117.662C124.704 117.662 125.884 116.483 125.884 115.027C125.884 113.572 124.704 112.393 123.249 112.393C121.794 112.393 120.614 113.572 120.614 115.027C120.614 116.483 121.794 117.662 123.249 117.662Z" fill="#DD389A"/>
  <path opacity="0.273" d="M123.249 79.2697C124.704 79.2697 125.884 78.09 125.884 76.6349C125.884 75.1797 124.704 74 123.249 74C121.794 74 120.614 75.1797 120.614 76.6349C120.614 78.09 121.794 79.2697 123.249 79.2697Z" fill="#DD389A"/>
  <path opacity="0.188" d="M156.373 135.731C157.828 135.731 159.008 134.551 159.008 133.096C159.008 131.641 157.828 130.461 156.373 130.461C154.918 130.461 153.738 131.641 153.738 133.096C153.738 134.551 154.918 135.731 156.373 135.731Z" fill="#DD389A"/>
  <path opacity="0.105" d="M189.497 117.662C190.952 117.662 192.132 116.483 192.132 115.027C192.132 113.572 190.952 112.393 189.497 112.393C188.042 112.393 186.862 113.572 186.862 115.027C186.862 116.483 188.042 117.662 189.497 117.662Z" fill="#DD389A"/>
  <path opacity="0.158" d="M156.373 173.371C157.828 173.371 159.008 172.192 159.008 170.736C159.008 169.281 157.828 168.102 156.373 168.102C154.918 168.102 153.738 169.281 153.738 170.736C153.738 172.192 154.918 173.371 156.373 173.371Z" fill="#DD389A"/>
  <path opacity="0.01" d="M221.868 134.977C223.323 134.977 224.503 133.797 224.503 132.342C224.503 130.887 223.323 129.707 221.868 129.707C220.413 129.707 219.233 130.887 219.233 132.342C219.233 133.797 220.413 134.977 221.868 134.977Z" fill="#DD389A"/>
  <path opacity="0.06" d="M254.992 77.7638C256.447 77.7638 257.627 76.5842 257.627 75.129C257.627 73.6738 256.447 72.4941 254.992 72.4941C253.537 72.4941 252.357 73.6738 252.357 75.129C252.357 76.5842 253.537 77.7638 254.992 77.7638Z" fill="#DD389A"/>
  <path opacity="0.043" d="M221.868 60.4474C223.323 60.4474 224.503 59.2678 224.503 57.8126C224.503 56.3574 223.323 55.1777 221.868 55.1777C220.413 55.1777 219.233 56.3574 219.233 57.8126C219.233 59.2678 220.413 60.4474 221.868 60.4474Z" fill="#DD389A"/>
  <path opacity="0.12" d="M188.744 77.7638C190.199 77.7638 191.379 76.5842 191.379 75.129C191.379 73.6738 190.199 72.4941 188.744 72.4941C187.289 72.4941 186.109 73.6738 186.109 75.129C186.109 76.5842 187.289 77.7638 188.744 77.7638Z" fill="#DD389A"/>
  <path opacity="0.169" d="M156.373 61.2013C157.828 61.2013 159.008 60.0217 159.008 58.5665C159.008 57.1113 157.828 55.9316 156.373 55.9316C154.918 55.9316 153.738 57.1113 153.738 58.5665C153.738 60.0217 154.918 61.2013 156.373 61.2013Z" fill="#DD389A"/>
  <path opacity="0.378" d="M24.6309 61.9533C26.0861 61.9533 27.2658 60.7736 27.2658 59.3184C27.2658 57.8633 26.0861 56.6836 24.6309 56.6836C23.1758 56.6836 21.9961 57.8633 21.9961 59.3184C21.9961 60.7736 23.1758 61.9533 24.6309 61.9533Z" fill="#DD389A"/>
  <path d="M23.878 136.483C25.3332 136.483 26.5129 135.303 26.5129 133.848C26.5129 132.393 25.3332 131.213 23.878 131.213C22.4228 131.213 21.2432 132.393 21.2432 133.848C21.2432 135.303 22.4228 136.483 23.878 136.483Z" fill="#DD389A"/>
  <path opacity="0.178" d="M156.373 22.8068C157.828 22.8068 159.008 21.6272 159.008 20.172C159.008 18.7168 157.828 17.5371 156.373 17.5371C154.918 17.5371 153.738 18.7168 153.738 20.172C153.738 21.6272 154.918 22.8068 156.373 22.8068Z" fill="#DD389A"/>
  <path d="M90.1261 174.877C91.5813 174.877 92.7609 173.697 92.7609 172.242C92.7609 170.787 91.5813 169.607 90.1261 169.607C88.6709 169.607 87.4912 170.787 87.4912 172.242C87.4912 173.697 88.6709 174.877 90.1261 174.877Z" fill="#DD389A"/>
  </g>
  </g>
  </g>
  <defs>
  <clipPath id="clip0_912_518">
  <rect width="360" height="547.711" fill="white" transform="translate(-71.6953 0.976562)"/>
  </clipPath>
  <clipPath id="clip1_912_518">
  <rect width="359.995" height="547.711" fill="white" transform="translate(-71.6924 0.976562)"/>
  </clipPath>
  </defs>
  </svg>
  