<svg width="277" height="528" viewBox="0 0 277 528" fill="none" xmlns="http://www.w3.org/2000/svg">
  <g clip-path="url(#clip0_912_642)">
  <g opacity="0.458">
  <path d="M162.4 288.349L194.642 269.559L226.811 286.994V324.536L194.642 343.116L162.4 324.536V288.349Z" stroke="#DD4D9B" stroke-width="0.736117"/>
  <path d="M226.811 287.613L259.052 268.822L291.221 286.257V323.799L259.052 342.379L226.811 323.799V287.613Z" stroke="#DD4D9B" stroke-width="0.736117"/>
  <path opacity="0.215" d="M194.777 233.031L227.019 214.24L259.188 231.675V269.217L227.019 287.797L194.777 269.217V233.031Z" stroke="#DD4D9B" stroke-width="0.736117"/>
  <path opacity="0.14" d="M259.016 231.927L291.257 213.137L323.426 230.572V268.114L291.257 286.694L259.016 268.114V231.927Z" stroke="#DD4D9B" stroke-width="0.736117"/>
  <path d="M258.451 342.291L290.693 323.5L322.861 340.935V378.477L290.693 397.057L258.451 378.477V342.291Z" stroke="#DD4D9B" stroke-width="0.736117"/>
  <path d="M194.042 343.027L226.284 324.236L258.452 341.671V379.213L226.284 397.793L194.042 379.213V343.027Z" stroke="#DD4D9B" stroke-width="0.736117"/>
  <path opacity="0.323" d="M129.447 343.763L161.689 324.973L193.857 342.408V379.95L161.689 398.53L129.447 379.95V343.763Z" stroke="#DD4D9B" stroke-width="0.736117"/>
  <path opacity="0.389" d="M97.7939 288.922L130.036 270.131L162.204 287.566V325.108L130.036 343.688L97.7939 325.108V288.922Z" stroke="#DD4D9B" stroke-width="0.736117"/>
  <path opacity="0.259" d="M130.183 233.031L162.424 214.24L194.593 231.675V269.217L162.424 287.797L130.183 269.217V233.031Z" stroke="#DD4D9B" stroke-width="0.736117"/>
  <path d="M194.961 272.34C196.384 272.34 197.538 271.187 197.538 269.764C197.538 268.341 196.384 267.188 194.961 267.188C193.538 267.188 192.385 268.341 192.385 269.764C192.385 271.187 193.538 272.34 194.961 272.34Z" fill="#DD389A"/>
  <path d="M194.225 345.215C195.648 345.215 196.801 344.062 196.801 342.639C196.801 341.216 195.648 340.062 194.225 340.062C192.802 340.062 191.648 341.216 191.648 342.639C191.648 344.062 192.802 345.215 194.225 345.215Z" fill="#DD389A"/>
  <path d="M162.573 326.813C163.995 326.813 165.149 325.659 165.149 324.237C165.149 322.814 163.995 321.66 162.573 321.66C161.15 321.66 159.996 322.814 159.996 324.237C159.996 325.659 161.15 326.813 162.573 326.813Z" fill="#DD389A"/>
  <path d="M226.614 326.813C228.037 326.813 229.191 325.659 229.191 324.237C229.191 322.814 228.037 321.66 226.614 321.66C225.192 321.66 224.038 322.814 224.038 324.237C224.038 325.659 225.192 326.813 226.614 326.813Z" fill="#DD389A"/>
  <path d="M226.614 289.27C228.037 289.27 229.191 288.117 229.191 286.694C229.191 285.271 228.037 284.117 226.614 284.117C225.192 284.117 224.038 285.271 224.038 286.694C224.038 288.117 225.192 289.27 226.614 289.27Z" fill="#DD389A"/>
  <path d="M259.003 344.479C260.426 344.479 261.58 343.325 261.58 341.903C261.58 340.48 260.426 339.326 259.003 339.326C257.58 339.326 256.427 340.48 256.427 341.903C256.427 343.325 257.58 344.479 259.003 344.479Z" fill="#DD389A"/>
  <path d="M259.003 381.286C260.426 381.286 261.58 380.132 261.58 378.709C261.58 377.286 260.426 376.133 259.003 376.133C257.58 376.133 256.427 377.286 256.427 378.709C256.427 380.132 257.58 381.286 259.003 381.286Z" fill="#DD389A"/>
  <path d="M259.003 271.604C260.426 271.604 261.58 270.45 261.58 269.028C261.58 267.605 260.426 266.451 259.003 266.451C257.58 266.451 256.427 267.605 256.427 269.028C256.427 270.45 257.58 271.604 259.003 271.604Z" fill="#DD389A"/>
  <path opacity="0.461" d="M130.183 272.34C131.606 272.34 132.759 271.187 132.759 269.764C132.759 268.341 131.606 267.188 130.183 267.188C128.76 267.188 127.606 268.341 127.606 269.764C127.606 271.187 128.76 272.34 130.183 272.34Z" fill="#DD389A"/>
  <path opacity="0.603" d="M129.447 345.215C130.869 345.215 132.023 344.062 132.023 342.639C132.023 341.216 130.869 340.062 129.447 340.062C128.024 340.062 126.87 341.216 126.87 342.639C126.87 344.062 128.024 345.215 129.447 345.215Z" fill="#DD389A"/>
  <path opacity="0.501" d="M259.003 234.061C260.426 234.061 261.58 232.908 261.58 231.485C261.58 230.062 260.426 228.908 259.003 228.908C257.58 228.908 256.427 230.062 256.427 231.485C256.427 232.908 257.58 234.061 259.003 234.061Z" fill="#DD389A"/>
  <path d="M194.225 382.756C195.648 382.756 196.801 381.603 196.801 380.18C196.801 378.757 195.648 377.604 194.225 377.604C192.802 377.604 191.648 378.757 191.648 380.18C191.648 381.603 192.802 382.756 194.225 382.756Z" fill="#DD389A"/>
  </g>
  <g opacity="0.194">
  <path opacity="0.48" d="M65.373 417.035L97.6148 398.244L129.783 415.679V453.221L97.6148 471.801L65.373 453.221V417.035Z" stroke="#DD4D9B" stroke-width="0.736117"/>
  <path opacity="0.177" d="M226.201 470.24L258.443 451.449L290.611 468.884V506.426L258.443 525.006L226.201 506.426V470.24Z" stroke="#DD4D9B" stroke-width="0.736117"/>
  <path d="M129.783 416.299L162.025 397.508L194.193 414.943V452.485L162.025 471.065L129.783 452.485V416.299Z" stroke="#DD4D9B" stroke-width="0.736117"/>
  <path d="M97.75 361.717L129.992 342.926L162.16 360.361V397.903L129.992 416.483L97.75 397.903V361.717Z" stroke="#DD4D9B" stroke-width="0.736117"/>
  <path d="M161.988 360.613L194.23 341.822L226.398 359.257V396.799L194.23 415.379L161.988 396.799V360.613Z" stroke="#DD4D9B" stroke-width="0.736117"/>
  <path d="M193.997 415.4L226.239 396.609L258.407 414.044V451.586L226.239 470.166L193.997 451.586V415.4Z" stroke="#DD4D9B" stroke-width="0.736117"/>
  <path opacity="0.307" d="M161.424 470.976L193.666 452.186L225.834 469.621V507.162L193.666 525.743L161.424 507.162V470.976Z" stroke="#DD4D9B" stroke-width="0.736117"/>
  <path opacity="0.275" d="M97.0146 471.713L129.256 452.922L161.425 470.357V507.899L129.256 526.479L97.0146 507.899V471.713Z" stroke="#DD4D9B" stroke-width="0.736117"/>
  <path opacity="0.303" d="M32.4199 472.449L64.6617 453.658L96.8301 471.093V508.635L64.6617 527.215L32.4199 508.635V472.449Z" stroke="#DD4D9B" stroke-width="0.736117"/>
  <path opacity="0.258" d="M0.766602 417.607L33.0084 398.816L65.1768 416.251V453.793L33.0084 472.373L0.766602 453.793V417.607Z" stroke="#DD4D9B" stroke-width="0.736117"/>
  <path opacity="0.222" d="M33.1553 361.717L65.397 342.926L97.5655 360.361V397.903L65.397 416.483L33.1553 397.903V361.717Z" stroke="#DD4D9B" stroke-width="0.736117"/>
  <path d="M97.9338 401.026C99.3567 401.026 100.51 399.872 100.51 398.449C100.51 397.027 99.3567 395.873 97.9338 395.873C96.5109 395.873 95.3574 397.027 95.3574 398.449C95.3574 399.872 96.5109 401.026 97.9338 401.026Z" fill="#DD389A"/>
  <path d="M97.1975 473.901C98.6204 473.901 99.7739 472.747 99.7739 471.324C99.7739 469.902 98.6204 468.748 97.1975 468.748C95.7746 468.748 94.6211 469.902 94.6211 471.324C94.6211 472.747 95.7746 473.901 97.1975 473.901Z" fill="#DD389A"/>
  <path opacity="0.233" d="M65.5452 455.499C66.9681 455.499 68.1216 454.345 68.1216 452.922C68.1216 451.499 66.9681 450.346 65.5452 450.346C64.1222 450.346 62.9688 451.499 62.9688 452.922C62.9688 454.345 64.1222 455.499 65.5452 455.499Z" fill="#DD389A"/>
  <path d="M129.587 455.499C131.01 455.499 132.164 454.345 132.164 452.922C132.164 451.499 131.01 450.346 129.587 450.346C128.164 450.346 127.011 451.499 127.011 452.922C127.011 454.345 128.164 455.499 129.587 455.499Z" fill="#DD389A"/>
  <path d="M129.587 417.956C131.01 417.956 132.164 416.802 132.164 415.379C132.164 413.956 131.01 412.803 129.587 412.803C128.164 412.803 127.011 413.956 127.011 415.379C127.011 416.802 128.164 417.956 129.587 417.956Z" fill="#DD389A"/>
  <path d="M161.976 473.165C163.399 473.165 164.552 472.011 164.552 470.588C164.552 469.165 163.399 468.012 161.976 468.012C160.553 468.012 159.399 469.165 159.399 470.588C159.399 472.011 160.553 473.165 161.976 473.165Z" fill="#DD389A"/>
  <path d="M194.365 455.499C195.788 455.499 196.942 454.345 196.942 452.922C196.942 451.499 195.788 450.346 194.365 450.346C192.943 450.346 191.789 451.499 191.789 452.922C191.789 454.345 192.943 455.499 194.365 455.499Z" fill="#DD389A"/>
  <path opacity="0.496" d="M161.976 509.971C163.399 509.971 164.552 508.818 164.552 507.395C164.552 505.972 163.399 504.818 161.976 504.818C160.553 504.818 159.399 505.972 159.399 507.395C159.399 508.818 160.553 509.971 161.976 509.971Z" fill="#DD389A"/>
  <path d="M226.018 472.428C227.441 472.428 228.594 471.275 228.594 469.852C228.594 468.429 227.441 467.275 226.018 467.275C224.595 467.275 223.441 468.429 223.441 469.852C223.441 471.275 224.595 472.428 226.018 472.428Z" fill="#DD389A"/>
  <path opacity="0.432" d="M226.018 509.971C227.441 509.971 228.594 508.818 228.594 507.395C228.594 505.972 227.441 504.818 226.018 504.818C224.595 504.818 223.441 505.972 223.441 507.395C223.441 508.818 224.595 509.971 226.018 509.971Z" fill="#DD389A"/>
  <path d="M258.407 416.483C259.83 416.483 260.984 415.329 260.984 413.906C260.984 412.484 259.83 411.33 258.407 411.33C256.985 411.33 255.831 412.484 255.831 413.906C255.831 415.329 256.985 416.483 258.407 416.483Z" fill="#DD389A"/>
  <path d="M226.018 399.553C227.441 399.553 228.594 398.4 228.594 396.977C228.594 395.554 227.441 394.4 226.018 394.4C224.595 394.4 223.441 395.554 223.441 396.977C223.441 398.4 224.595 399.553 226.018 399.553Z" fill="#DD389A"/>
  <path d="M193.629 416.483C195.052 416.483 196.206 415.329 196.206 413.906C196.206 412.484 195.052 411.33 193.629 411.33C192.206 411.33 191.053 412.484 191.053 413.906C191.053 415.329 192.206 416.483 193.629 416.483Z" fill="#DD389A"/>
  <path d="M161.976 400.29C163.399 400.29 164.552 399.136 164.552 397.713C164.552 396.29 163.399 395.137 161.976 395.137C160.553 395.137 159.399 396.29 159.399 397.713C159.399 399.136 160.553 400.29 161.976 400.29Z" fill="#DD389A"/>
  <path opacity="0.459" d="M33.1555 401.026C34.5784 401.026 35.7319 399.872 35.7319 398.449C35.7319 397.027 34.5784 395.873 33.1555 395.873C31.7326 395.873 30.5791 397.027 30.5791 398.449C30.5791 399.872 31.7326 401.026 33.1555 401.026Z" fill="#DD389A"/>
  <path d="M32.4192 473.901C33.8421 473.901 34.9956 472.747 34.9956 471.324C34.9956 469.902 33.8421 468.748 32.4192 468.748C30.9963 468.748 29.8428 469.902 29.8428 471.324C29.8428 472.747 30.9963 473.901 32.4192 473.901Z" fill="#DD389A"/>
  <path d="M161.976 362.747C163.399 362.747 164.552 361.593 164.552 360.17C164.552 358.747 163.399 357.594 161.976 357.594C160.553 357.594 159.399 358.747 159.399 360.17C159.399 361.593 160.553 362.747 161.976 362.747Z" fill="#DD389A"/>
  <path opacity="0.619" d="M97.1975 511.442C98.6204 511.442 99.7739 510.288 99.7739 508.865C99.7739 507.443 98.6204 506.289 97.1975 506.289C95.7746 506.289 94.6211 507.443 94.6211 508.865C94.6211 510.288 95.7746 511.442 97.1975 511.442Z" fill="#DD389A"/>
  </g>
  <g opacity="0.458">
  <path d="M194.79 159.787L227.032 140.996L259.2 158.431V195.973L227.032 214.553L194.79 195.973V159.787Z" stroke="#DD4D9B" stroke-width="0.736117"/>
  <path d="M259.2 159.051L291.442 140.26L323.61 157.695V195.237L291.442 213.817L259.2 195.237V159.051Z" stroke="#DD4D9B" stroke-width="0.736117"/>
  <path opacity="0.087" d="M227.167 104.468L259.409 85.6777L291.577 103.113V140.655L259.409 159.235L227.167 140.655V104.468Z" stroke="#DD4D9B" stroke-width="0.736117"/>
  <path d="M226.432 214.465L258.673 195.674L290.842 213.109V250.651L258.673 269.231L226.432 250.651V214.465Z" stroke="#DD4D9B" stroke-width="0.736117"/>
  <path opacity="0.357" d="M161.837 215.201L194.079 196.41L226.247 213.845V251.387L194.079 269.967L161.837 251.387V215.201Z" stroke="#DD4D9B" stroke-width="0.736117"/>
  <path opacity="0.231" d="M130.184 160.359L162.425 141.568L194.594 159.003V196.545L162.425 215.125L130.184 196.545V160.359Z" stroke="#DD4D9B" stroke-width="0.736117"/>
  <path opacity="0.018" d="M162.572 104.468L194.814 85.6777L226.982 103.113V140.655L194.814 159.235L162.572 140.655V104.468Z" stroke="#DD4D9B" stroke-width="0.736117"/>
  <path d="M227.351 143.778C228.774 143.778 229.927 142.624 229.927 141.201C229.927 139.778 228.774 138.625 227.351 138.625C225.928 138.625 224.774 139.778 224.774 141.201C224.774 142.624 225.928 143.778 227.351 143.778Z" fill="#DD389A"/>
  <path d="M226.614 216.653C228.037 216.653 229.191 215.499 229.191 214.076C229.191 212.653 228.037 211.5 226.614 211.5C225.192 211.5 224.038 212.653 224.038 214.076C224.038 215.499 225.192 216.653 226.614 216.653Z" fill="#DD389A"/>
  <path d="M194.962 198.25C196.385 198.25 197.539 197.097 197.539 195.674C197.539 194.251 196.385 193.098 194.962 193.098C193.539 193.098 192.386 194.251 192.386 195.674C192.386 197.097 193.539 198.25 194.962 198.25Z" fill="#DD389A"/>
  <path d="M259.004 198.25C260.427 198.25 261.581 197.097 261.581 195.674C261.581 194.251 260.427 193.098 259.004 193.098C257.581 193.098 256.428 194.251 256.428 195.674C256.428 197.097 257.581 198.25 259.004 198.25Z" fill="#DD389A"/>
  <path d="M259.004 160.708C260.427 160.708 261.581 159.554 261.581 158.131C261.581 156.708 260.427 155.555 259.004 155.555C257.581 155.555 256.428 156.708 256.428 158.131C256.428 159.554 257.581 160.708 259.004 160.708Z" fill="#DD389A"/>
  <path opacity="0.4" d="M162.573 143.778C163.995 143.778 165.149 142.624 165.149 141.201C165.149 139.778 163.995 138.625 162.573 138.625C161.15 138.625 159.996 139.778 159.996 141.201C159.996 142.624 161.15 143.778 162.573 143.778Z" fill="#DD389A"/>
  <path opacity="0.373" d="M161.836 216.653C163.259 216.653 164.413 215.499 164.413 214.076C164.413 212.653 163.259 211.5 161.836 211.5C160.413 211.5 159.26 212.653 159.26 214.076C159.26 215.499 160.413 216.653 161.836 216.653Z" fill="#DD389A"/>
  <path d="M226.614 254.194C228.037 254.194 229.191 253.04 229.191 251.617C229.191 250.195 228.037 249.041 226.614 249.041C225.192 249.041 224.038 250.195 224.038 251.617C224.038 253.04 225.192 254.194 226.614 254.194Z" fill="#DD389A"/>
  </g>
  <g opacity="0.458">
  <path opacity="0.073" d="M113.787 76.1736L146.029 57.3828L178.197 74.8178V112.36L146.029 130.94L113.787 112.36V76.1736Z" stroke="#DD4D9B" stroke-width="0.736117"/>
  <path opacity="0.172" d="M274.615 129.379L306.857 110.588L339.025 128.023V165.565L306.857 184.145L274.615 165.565V129.379Z" stroke="#DD4D9B" stroke-width="0.736117"/>
  <path opacity="0.367" d="M178.197 75.4372L210.439 56.6465L242.607 74.0815V111.623L210.439 130.204L178.197 111.623V75.4372Z" stroke="#DD4D9B" stroke-width="0.736117"/>
  <path opacity="0.087" d="M146.164 20.8552L178.406 2.06445L210.574 19.4994V57.0414L178.406 75.6215L146.164 57.0414V20.8552Z" stroke="#DD4D9B" stroke-width="0.736117"/>
  <path opacity="0.14" d="M210.402 19.7517L242.644 0.960938L274.813 18.3959V55.9379L242.644 74.518L210.402 55.9379V19.7517Z" stroke="#DD4D9B" stroke-width="0.736117"/>
  <path opacity="0.293" d="M242.411 74.5388L274.653 55.748L306.821 73.183V110.725L274.653 129.305L242.411 110.725V74.5388Z" stroke="#DD4D9B" stroke-width="0.736117"/>
  <path d="M209.838 130.115L242.08 111.324L274.248 128.759V166.301L242.08 184.881L209.838 166.301V130.115Z" stroke="#DD4D9B" stroke-width="0.736117"/>
  <path d="M145.429 130.851L177.67 112.061L209.839 129.496V167.037L177.67 185.618L145.429 167.037V130.851Z" stroke="#DD4D9B" stroke-width="0.736117"/>
  <path opacity="0.324" d="M80.834 131.588L113.076 112.797L145.244 130.232V167.774L113.076 186.354L80.834 167.774V131.588Z" stroke="#DD4D9B" stroke-width="0.736117"/>
  <path opacity="0.135" d="M49.1807 76.7458L81.4224 57.9551L113.591 75.39V112.932L81.4224 131.512L49.1807 112.932V76.7458Z" stroke="#DD4D9B" stroke-width="0.736117"/>
  <path opacity="0.06" d="M81.5693 20.8552L113.811 2.06445L145.98 19.4994V57.0414L113.811 75.6215L81.5693 57.0414V20.8552Z" stroke="#DD4D9B" stroke-width="0.736117"/>
  <path opacity="0.258" d="M146.348 60.1645C147.771 60.1645 148.924 59.011 148.924 57.5881C148.924 56.1652 147.771 55.0117 146.348 55.0117C144.925 55.0117 143.771 56.1652 143.771 57.5881C143.771 59.011 144.925 60.1645 146.348 60.1645Z" fill="#DD389A"/>
  <path d="M145.612 133.04C147.034 133.04 148.188 131.886 148.188 130.463C148.188 129.04 147.034 127.887 145.612 127.887C144.189 127.887 143.035 129.04 143.035 130.463C143.035 131.886 144.189 133.04 145.612 133.04Z" fill="#DD389A"/>
  <path opacity="0.442" d="M113.787 116.108C115.21 116.108 116.364 114.954 116.364 113.531C116.364 112.109 115.21 110.955 113.787 110.955C112.364 110.955 111.211 112.109 111.211 113.531C111.211 114.954 112.364 116.108 113.787 116.108Z" fill="#DD389A"/>
  <path opacity="0.516" d="M178.001 114.637C179.424 114.637 180.578 113.484 180.578 112.061C180.578 110.638 179.424 109.484 178.001 109.484C176.578 109.484 175.425 110.638 175.425 112.061C175.425 113.484 176.578 114.637 178.001 114.637Z" fill="#DD389A"/>
  <path opacity="0.46" d="M178.001 77.0942C179.424 77.0942 180.578 75.9407 180.578 74.5178C180.578 73.0949 179.424 71.9414 178.001 71.9414C176.578 71.9414 175.425 73.0949 175.425 74.5178C175.425 75.9407 176.578 77.0942 178.001 77.0942Z" fill="#DD389A"/>
  <path d="M210.39 132.303C211.813 132.303 212.966 131.15 212.966 129.727C212.966 128.304 211.813 127.15 210.39 127.15C208.967 127.15 207.813 128.304 207.813 129.727C207.813 131.15 208.967 132.303 210.39 132.303Z" fill="#DD389A"/>
  <path opacity="0.48" d="M242.78 114.637C244.202 114.637 245.356 113.484 245.356 112.061C245.356 110.638 244.202 109.484 242.78 109.484C241.357 109.484 240.203 110.638 240.203 112.061C240.203 113.484 241.357 114.637 242.78 114.637Z" fill="#DD389A"/>
  <path d="M210.39 169.11C211.813 169.11 212.966 167.956 212.966 166.533C212.966 165.111 211.813 163.957 210.39 163.957C208.967 163.957 207.813 165.111 207.813 166.533C207.813 167.956 208.967 169.11 210.39 169.11Z" fill="#DD389A"/>
  <path d="M274.432 131.567C275.855 131.567 277.008 130.413 277.008 128.99C277.008 127.568 275.855 126.414 274.432 126.414C273.009 126.414 271.855 127.568 271.855 128.99C271.855 130.413 273.009 131.567 274.432 131.567Z" fill="#DD389A"/>
  <path d="M274.432 169.11C275.855 169.11 277.008 167.956 277.008 166.533C277.008 165.111 275.855 163.957 274.432 163.957C273.009 163.957 271.855 165.111 271.855 166.533C271.855 167.956 273.009 169.11 274.432 169.11Z" fill="#DD389A"/>
  <path opacity="0.265" d="M274.432 58.6919C275.855 58.6919 277.008 57.5384 277.008 56.1155C277.008 54.6926 275.855 53.5391 274.432 53.5391C273.009 53.5391 271.855 54.6926 271.855 56.1155C271.855 57.5384 273.009 58.6919 274.432 58.6919Z" fill="#DD389A"/>
  <path opacity="0.481" d="M242.043 75.6216C243.466 75.6216 244.62 74.4681 244.62 73.0452C244.62 71.6222 243.466 70.4688 242.043 70.4688C240.62 70.4688 239.467 71.6222 239.467 73.0452C239.467 74.4681 240.62 75.6216 242.043 75.6216Z" fill="#DD389A"/>
  <path opacity="0.378" d="M210.39 59.4282C211.813 59.4282 212.966 58.2747 212.966 56.8518C212.966 55.4289 211.813 54.2754 210.39 54.2754C208.967 54.2754 207.813 55.4289 207.813 56.8518C207.813 58.2747 208.967 59.4282 210.39 59.4282Z" fill="#DD389A"/>
  <path opacity="0.114" d="M81.5696 60.1645C82.9925 60.1645 84.146 59.011 84.146 57.5881C84.146 56.1652 82.9925 55.0117 81.5696 55.0117C80.1467 55.0117 78.9932 56.1652 78.9932 57.5881C78.9932 59.011 80.1467 60.1645 81.5696 60.1645Z" fill="#DD389A"/>
  <path opacity="0.387" d="M81.386 134.088C82.8089 134.088 83.9624 132.935 83.9624 131.512C83.9624 130.089 82.8089 128.936 81.386 128.936C79.9631 128.936 78.8096 130.089 78.8096 131.512C78.8096 132.935 79.9631 134.088 81.386 134.088Z" fill="#DD389A"/>
  <path opacity="0.501" d="M210.39 21.8852C211.813 21.8852 212.966 20.7317 212.966 19.3088C212.966 17.8859 211.813 16.7324 210.39 16.7324C208.967 16.7324 207.813 17.8859 207.813 19.3088C207.813 20.7317 208.967 21.8852 210.39 21.8852Z" fill="#DD389A"/>
  <path d="M145.612 170.581C147.034 170.581 148.188 169.427 148.188 168.004C148.188 166.581 147.034 165.428 145.612 165.428C144.189 165.428 143.035 166.581 143.035 168.004C143.035 169.427 144.189 170.581 145.612 170.581Z" fill="#DD389A"/>
  </g>
  </g>
  <defs>
  <clipPath id="clip0_912_642">
  <rect width="419.998" height="527.102" fill="white" transform="translate(0.399414 0.539062)"/>
  </clipPath>
  </defs>
  </svg>
  