<svg width="158" height="217" viewBox="0 0 158 217" fill="none" xmlns="http://www.w3.org/2000/svg">
<path d="M157.23 216.42H0.77002V187.55H92C102.509 182.086 111.019 173.436 116.311 162.839C121.603 152.242 123.405 140.242 121.459 128.558C119.513 116.874 113.919 106.106 105.478 97.7965C97.0373 89.4869 86.1829 84.0622 74.47 82.2995C73.57 82.1595 72.64 82.0395 71.73 81.9495L72.13 77.9495C73.13 78.0495 74.13 78.1695 75.07 78.3195C87.6612 80.2198 99.3233 86.0701 108.375 95.0268C117.426 103.983 123.398 115.584 125.431 128.154C127.463 140.725 125.451 153.616 119.683 164.968C113.915 176.321 104.691 185.548 93.34 191.32L92.91 191.54H4.77002V212.41H153.23V191.55H118.06L121.13 188.2C130.103 178.407 136.301 166.399 139.085 153.412C141.869 140.426 141.139 126.932 136.969 114.322C132.799 101.712 125.341 90.4421 115.364 81.6755C105.387 72.9089 93.2517 66.9625 80.21 64.4495L80.96 60.5195C94.3251 63.1006 106.792 69.1057 117.141 77.9478C127.49 86.7898 135.367 98.1662 140.003 110.965C144.639 123.763 145.874 137.545 143.588 150.964C141.301 164.383 135.572 176.978 126.96 187.52H157.21L157.23 216.42Z" fill="#F81381"/>
<path d="M122.6 187.55H92.4302V191.55H122.6V187.55Z" fill="#F81381"/>
<path d="M58.44 116.26L21.21 98.9105L60.6799 14.2305L97.91 31.5805L58.44 116.26ZM26.53 97.0005L56.53 111L92.6199 33.5605L62.6199 19.5605L26.53 97.0005Z" fill="white"/>
<path d="M92.24 33.3497L63 19.7097L71.76 0.929688L101 14.5697L92.24 33.3497ZM68.24 17.7697L90.24 28.0297L95.61 16.4997L73.61 6.2397L68.24 17.7697Z" fill="white"/>
<path d="M63.2102 134.19L4.41016 106.78L12.1102 90.2598L70.9202 117.67L63.2102 134.19ZM9.73015 104.84L61.2802 128.84L65.6002 119.57L14.0502 95.5698L9.73015 104.84Z" fill="white"/>
</svg>
