<svg id="Layer_3" data-name="Layer 3" xmlns="http://www.w3.org/2000/svg" viewBox="0 0 500 500"><defs><style>.cls-1{fill:#523490;}.cls-2{fill:#f81381;}.cls-3{fill:#fff;}</style></defs><path class="cls-1" d="M250,447.9C140.88,447.9,52.1,359.12,52.1,250S140.88,52.1,250,52.1,447.9,140.88,447.9,250,359.12,447.9,250,447.9Zm0-392.8C142.53,55.1,55.1,142.53,55.1,250S142.53,444.9,250,444.9,444.9,357.47,444.9,250,357.47,55.1,250,55.1Z"/><path class="cls-2" d="M250,371.07c-18.5,0-35.8-12.75-48.71-35.9-12.71-22.79-19.71-53-19.71-85.17s7-62.38,19.71-85.17c12.91-23.15,30.21-35.9,48.71-35.9s35.8,12.75,48.71,35.9c12.71,22.79,19.71,53,19.71,85.17s-7,62.38-19.71,85.17C285.8,358.32,268.5,371.07,250,371.07Zm0-238.14c-35.52,0-64.42,52.52-64.42,117.07S214.48,367.07,250,367.07,314.42,314.55,314.42,250,285.52,132.93,250,132.93Z"/><rect class="cls-2" x="248" y="130.93" width="4" height="238.13"/><rect class="cls-3" x="130.93" y="248" width="238.13" height="4"/><path class="cls-3" d="M250,371.07A121.07,121.07,0,1,1,371.07,250,121.2,121.2,0,0,1,250,371.07Zm0-238.14A117.07,117.07,0,1,0,367.07,250,117.21,117.21,0,0,0,250,132.93Z"/></svg>