<svg id="Layer_3" data-name="Layer 3" xmlns="http://www.w3.org/2000/svg" viewBox="0 0 500 500"><defs><style>.cls-1{fill:#523490;}.cls-2{fill:#fff;}.cls-3{fill:#f81381;}</style></defs><path class="cls-1" d="M250,447.9C140.88,447.9,52.1,359.12,52.1,250S140.88,52.1,250,52.1,447.9,140.88,447.9,250,359.12,447.9,250,447.9Zm0-392.8C142.53,55.1,55.1,142.53,55.1,250S142.53,444.9,250,444.9,444.9,357.47,444.9,250,357.47,55.1,250,55.1Z"/><path class="cls-2" d="M266.66,228.4H229.24L210.53,196l18.71-32.41h37.42L285.37,196Zm-35.11-4h32.8l16.4-28.4-16.4-28.41h-32.8L215.15,196Z"/><rect class="cls-2" x="283.06" y="194" width="62.03" height="4"/><path class="cls-2" d="M266.66,336.41H229.24L210.53,304l18.71-32.4h37.42L285.37,304Zm-35.11-4h32.8L280.75,304l-16.4-28.4h-32.8L215.15,304Z"/><rect class="cls-2" x="150.81" y="302" width="62.03" height="4"/><path class="cls-3" d="M200.54,282.41H163.12L144.41,250l18.71-32.41h37.42L219.25,250Zm-35.11-4h32.8L214.63,250l-16.4-28.41h-32.8L149,250Z"/><path class="cls-3" d="M336.88,282.41H299.46L280.75,250l18.71-32.41h37.42L355.59,250Zm-35.11-4h32.8L351,250l-16.4-28.41h-32.8L285.37,250Z"/><rect class="cls-3" x="216.94" y="248" width="66.13" height="4"/></svg>