<svg id="Layer_3" data-name="Layer 3" xmlns="http://www.w3.org/2000/svg" viewBox="0 0 500 500"><defs><style>.cls-1{fill:#523490;}.cls-2{fill:#f81381;}.cls-3{fill:#fff;}</style></defs><path class="cls-1" d="M250,447.9C140.88,447.9,52.1,359.12,52.1,250S140.88,52.1,250,52.1,447.9,140.88,447.9,250,359.12,447.9,250,447.9Zm0-392.8C142.53,55.1,55.1,142.53,55.1,250S142.53,444.9,250,444.9,444.9,357.47,444.9,250,357.47,55.1,250,55.1Z"/><path class="cls-2" d="M328.23,357.42H171.77V328.55H263A56.1,56.1,0,0,0,245.47,223.3c-.9-.14-1.83-.26-2.74-.35l.4-4c1,.1,2,.22,2.94.37a60.1,60.1,0,0,1,18.27,113l-.43.22H175.77v20.87H324.23V332.55H289.06l3.07-3.35a74.66,74.66,0,0,0-40.92-123.75l.75-3.93a78.66,78.66,0,0,1,46,127h30.25Z"/><rect class="cls-2" x="263.43" y="328.55" width="30.17" height="4"/><path class="cls-3" d="M229.44,257.26l-37.23-17.35,39.47-84.68,37.23,17.35ZM197.53,238l30,14,36.09-77.44-30-14Z"/><path class="cls-3" d="M263.24,174.35,234,160.71l8.76-18.78L272,155.57Zm-24-15.58,22,10.26,5.37-11.53-22-10.26Z"/><path class="cls-3" d="M234.21,275.19l-58.8-27.41,7.7-16.52,58.81,27.41Zm-53.48-29.35,51.55,24,4.32-9.27-51.55-24Z"/></svg>