<svg width="351" height="304" viewBox="0 0 351 304" fill="none" xmlns="http://www.w3.org/2000/svg">
  <g clip-path="url(#clip0_913_1854)">
  <g opacity="0.458">
  <path d="M139.527 70.7277L169.677 53.1562L199.758 69.4599V104.566L169.677 121.94L139.527 104.566V70.7277Z" stroke="#DD4D9B" stroke-width="0.68835"/>
  <path opacity="0.172" d="M289.92 120.48L320.07 102.908L350.151 119.212V154.318L320.07 171.692L289.92 154.318V120.48Z" stroke="#DD4D9B" stroke-width="0.68835"/>
  <path d="M199.758 70.0382L229.907 52.4668L259.988 68.7704V103.876L229.907 121.251L199.758 103.876V70.0382Z" stroke="#DD4D9B" stroke-width="0.68835"/>
  <path opacity="0.215" d="M169.804 18.9991L199.953 1.42773L230.034 17.7313V52.8372L199.953 70.2116L169.804 52.8372V18.9991Z" stroke="#DD4D9B" stroke-width="0.68835"/>
  <path opacity="0.14" d="M229.873 17.9659L260.023 0.394531L290.104 16.6981V51.804L260.023 69.1784L229.873 51.804V17.9659Z" stroke="#DD4D9B" stroke-width="0.68835"/>
  <path opacity="0.293" d="M259.805 69.1964L289.954 51.625L320.035 67.9286V103.034L289.954 120.409L259.805 103.034V69.1964Z" stroke="#DD4D9B" stroke-width="0.68835"/>
  <path d="M229.346 121.167L259.495 103.596L289.576 119.899V155.005L259.495 172.38L229.346 155.005V121.167Z" stroke="#DD4D9B" stroke-width="0.68835"/>
  <path d="M169.115 121.857L199.265 104.285L229.346 120.589V155.695L199.265 173.069L169.115 155.695V121.857Z" stroke="#DD4D9B" stroke-width="0.68835"/>
  <path d="M108.712 122.544L138.862 104.973L168.943 121.276V156.382L138.862 173.757L108.712 156.382V122.544Z" stroke="#DD4D9B" stroke-width="0.68835"/>
  <path d="M79.1133 71.2628L109.263 53.6914L139.344 69.995V105.101L109.263 122.475L79.1133 105.101V71.2628Z" stroke="#DD4D9B" stroke-width="0.68835"/>
  <path opacity="0.259" d="M109.4 18.9991L139.55 1.42773L169.631 17.7313V52.8372L139.55 70.2116L109.4 52.8372V18.9991Z" stroke="#DD4D9B" stroke-width="0.68835"/>
  <path d="M169.976 55.7559C171.306 55.7559 172.385 54.6773 172.385 53.3467C172.385 52.0161 171.306 50.9375 169.976 50.9375C168.645 50.9375 167.566 52.0161 167.566 53.3467C167.566 54.6773 168.645 55.7559 169.976 55.7559Z" fill="#DD389A" fill-opacity="0.7"/>
  <path d="M169.287 123.902C170.618 123.902 171.696 122.824 171.696 121.493C171.696 120.163 170.618 119.084 169.287 119.084C167.957 119.084 166.878 120.163 166.878 121.493C166.878 122.824 167.957 123.902 169.287 123.902Z" fill="#DD389A" fill-opacity="0.7"/>
  <path d="M139.688 106.693C141.018 106.693 142.097 105.615 142.097 104.284C142.097 102.954 141.018 101.875 139.688 101.875C138.357 101.875 137.278 102.954 137.278 104.284C137.278 105.615 138.357 106.693 139.688 106.693Z" fill="#DD389A" fill-opacity="0.7"/>
  <path d="M199.574 106.693C200.905 106.693 201.983 105.615 201.983 104.284C201.983 102.954 200.905 101.875 199.574 101.875C198.244 101.875 197.165 102.954 197.165 104.284C197.165 105.615 198.244 106.693 199.574 106.693Z" fill="#DD389A" fill-opacity="0.7"/>
  <path d="M199.574 71.588C200.905 71.588 201.983 70.5093 201.983 69.1788C201.983 67.8482 200.905 66.7695 199.574 66.7695C198.244 66.7695 197.165 67.8482 197.165 69.1788C197.165 70.5093 198.244 71.588 199.574 71.588Z" fill="#DD389A" fill-opacity="0.7"/>
  <path d="M229.861 123.213C231.192 123.213 232.271 122.134 232.271 120.804C232.271 119.473 231.192 118.395 229.861 118.395C228.531 118.395 227.452 119.473 227.452 120.804C227.452 122.134 228.531 123.213 229.861 123.213Z" fill="#DD389A" fill-opacity="0.7"/>
  <path d="M260.149 106.693C261.48 106.693 262.559 105.615 262.559 104.284C262.559 102.954 261.48 101.875 260.149 101.875C258.819 101.875 257.74 102.954 257.74 104.284C257.74 105.615 258.819 106.693 260.149 106.693Z" fill="#DD389A" fill-opacity="0.7"/>
  <path d="M229.861 157.631C231.192 157.631 232.271 156.552 232.271 155.222C232.271 153.891 231.192 152.812 229.861 152.812C228.531 152.812 227.452 153.891 227.452 155.222C227.452 156.552 228.531 157.631 229.861 157.631Z" fill="#DD389A" fill-opacity="0.7"/>
  <path d="M289.748 122.525C291.079 122.525 292.157 121.447 292.157 120.116C292.157 118.786 291.079 117.707 289.748 117.707C288.418 117.707 287.339 118.786 287.339 120.116C287.339 121.447 288.418 122.525 289.748 122.525Z" fill="#DD389A" fill-opacity="0.7"/>
  <path d="M289.748 157.631C291.079 157.631 292.157 156.552 292.157 155.222C292.157 153.891 291.079 152.812 289.748 152.812C288.418 152.812 287.339 153.891 287.339 155.222C287.339 156.552 288.418 157.631 289.748 157.631Z" fill="#DD389A" fill-opacity="0.7"/>
  <path opacity="0.172" d="M320.035 70.211C321.366 70.211 322.444 69.1324 322.444 67.8018C322.444 66.4712 321.366 65.3926 320.035 65.3926C318.705 65.3926 317.626 66.4712 317.626 67.8018C317.626 69.1324 318.705 70.211 320.035 70.211Z" fill="#DD389A" fill-opacity="0.7"/>
  <path opacity="0.265" d="M289.748 54.379C291.079 54.379 292.157 53.3003 292.157 51.9698C292.157 50.6392 291.079 49.5605 289.748 49.5605C288.418 49.5605 287.339 50.6392 287.339 51.9698C287.339 53.3003 288.418 54.379 289.748 54.379Z" fill="#DD389A" fill-opacity="0.7"/>
  <path d="M259.461 70.211C260.792 70.211 261.87 69.1324 261.87 67.8018C261.87 66.4712 260.792 65.3926 259.461 65.3926C258.13 65.3926 257.052 66.4712 257.052 67.8018C257.052 69.1324 258.13 70.211 259.461 70.211Z" fill="#DD389A" fill-opacity="0.7"/>
  <path d="M229.861 55.0665C231.192 55.0665 232.271 53.9878 232.271 52.6573C232.271 51.3267 231.192 50.248 229.861 50.248C228.531 50.248 227.452 51.3267 227.452 52.6573C227.452 53.9878 228.531 55.0665 229.861 55.0665Z" fill="#DD389A" fill-opacity="0.7"/>
  <path d="M109.4 55.7559C110.731 55.7559 111.81 54.6773 111.81 53.3467C111.81 52.0161 110.731 50.9375 109.4 50.9375C108.07 50.9375 106.991 52.0161 106.991 53.3467C106.991 54.6773 108.07 55.7559 109.4 55.7559Z" fill="#DD389A" fill-opacity="0.7"/>
  <path d="M108.712 123.902C110.043 123.902 111.121 122.824 111.121 121.493C111.121 120.163 110.043 119.084 108.712 119.084C107.381 119.084 106.303 120.163 106.303 121.493C106.303 122.824 107.381 123.902 108.712 123.902Z" fill="#DD389A" fill-opacity="0.7"/>
  <path opacity="0.501" d="M229.861 19.961C231.192 19.961 232.271 18.8824 232.271 17.5518C232.271 16.2212 231.192 15.1426 229.861 15.1426C228.531 15.1426 227.452 16.2212 227.452 17.5518C227.452 18.8824 228.531 19.961 229.861 19.961Z" fill="#DD389A" fill-opacity="0.7"/>
  <path d="M169.287 159.008C170.618 159.008 171.696 157.929 171.696 156.599C171.696 155.268 170.618 154.189 169.287 154.189C167.957 154.189 166.878 155.268 166.878 156.599C166.878 157.929 167.957 159.008 169.287 159.008Z" fill="#DD389A" fill-opacity="0.7"/>
  </g>
  <g opacity="0.194">
  <path d="M61.2617 200.464L91.4113 182.893L121.492 199.196V234.302L91.4113 251.676L61.2617 234.302V200.464Z" stroke="#DD4D9B" stroke-width="0.68835"/>
  <path opacity="0.177" d="M211.654 250.216L241.804 232.645L271.885 248.948V284.054L241.804 301.428L211.654 284.054V250.216Z" stroke="#DD4D9B" stroke-width="0.68835"/>
  <path d="M121.492 199.775L151.642 182.203L181.723 198.507V233.613L151.642 250.987L121.492 233.613V199.775Z" stroke="#DD4D9B" stroke-width="0.68835"/>
  <path d="M91.5381 148.735L121.688 131.164L151.769 147.468V182.574L121.688 199.948L91.5381 182.574V148.735Z" stroke="#DD4D9B" stroke-width="0.68835"/>
  <path d="M151.607 147.702L181.757 130.131L211.838 146.434V181.54L181.757 198.915L151.607 181.54V147.702Z" stroke="#DD4D9B" stroke-width="0.68835"/>
  <path d="M181.539 198.933L211.689 181.361L241.77 197.665V232.771L211.689 250.145L181.539 232.771V198.933Z" stroke="#DD4D9B" stroke-width="0.68835"/>
  <path opacity="0.307" d="M151.08 250.903L181.23 233.332L211.311 249.636V284.741L181.23 302.116L151.08 284.741V250.903Z" stroke="#DD4D9B" stroke-width="0.68835"/>
  <path opacity="0.275" d="M90.8496 251.593L120.999 234.021L151.08 250.325V285.431L120.999 302.805L90.8496 285.431V251.593Z" stroke="#DD4D9B" stroke-width="0.68835"/>
  <path d="M30.4463 252.28L60.5959 234.709L90.6769 251.013V286.118L60.5959 303.493L30.4463 286.118V252.28Z" stroke="#DD4D9B" stroke-width="0.68835"/>
  <path d="M0.847656 200.999L30.9972 183.428L61.0783 199.731V234.837L30.9972 252.212L0.847656 234.837V200.999Z" stroke="#DD4D9B" stroke-width="0.68835"/>
  <path d="M31.1348 148.735L61.2844 131.164L91.3654 147.468V182.574L61.2844 199.948L31.1348 182.574V148.735Z" stroke="#DD4D9B" stroke-width="0.68835"/>
  <path d="M91.71 185.492C93.0406 185.492 94.1192 184.414 94.1192 183.083C94.1192 181.752 93.0406 180.674 91.71 180.674C90.3794 180.674 89.3008 181.752 89.3008 183.083C89.3008 184.414 90.3794 185.492 91.71 185.492Z" fill="#DD389A" fill-opacity="0.7"/>
  <path d="M91.0215 253.639C92.3521 253.639 93.4308 252.56 93.4308 251.23C93.4308 249.899 92.3521 248.82 91.0215 248.82C89.691 248.82 88.6123 249.899 88.6123 251.23C88.6123 252.56 89.691 253.639 91.0215 253.639Z" fill="#DD389A" fill-opacity="0.7"/>
  <path d="M61.4219 236.43C62.7525 236.43 63.8311 235.351 63.8311 234.021C63.8311 232.69 62.7525 231.611 61.4219 231.611C60.0913 231.611 59.0127 232.69 59.0127 234.021C59.0127 235.351 60.0913 236.43 61.4219 236.43Z" fill="#DD389A" fill-opacity="0.7"/>
  <path d="M121.309 236.43C122.639 236.43 123.718 235.351 123.718 234.021C123.718 232.69 122.639 231.611 121.309 231.611C119.978 231.611 118.899 232.69 118.899 234.021C118.899 235.351 119.978 236.43 121.309 236.43Z" fill="#DD389A" fill-opacity="0.7"/>
  <path d="M121.309 201.324C122.639 201.324 123.718 200.246 123.718 198.915C123.718 197.585 122.639 196.506 121.309 196.506C119.978 196.506 118.899 197.585 118.899 198.915C118.899 200.246 119.978 201.324 121.309 201.324Z" fill="#DD389A" fill-opacity="0.7"/>
  <path d="M151.596 252.949C152.926 252.949 154.005 251.871 154.005 250.54C154.005 249.21 152.926 248.131 151.596 248.131C150.265 248.131 149.187 249.21 149.187 250.54C149.187 251.871 150.265 252.949 151.596 252.949Z" fill="#DD389A" fill-opacity="0.7"/>
  <path d="M181.884 236.43C183.214 236.43 184.293 235.351 184.293 234.021C184.293 232.69 183.214 231.611 181.884 231.611C180.553 231.611 179.475 232.69 179.475 234.021C179.475 235.351 180.553 236.43 181.884 236.43Z" fill="#DD389A" fill-opacity="0.7"/>
  <path opacity="0.496" d="M151.596 287.367C152.926 287.367 154.005 286.289 154.005 284.958C154.005 283.627 152.926 282.549 151.596 282.549C150.265 282.549 149.187 283.627 149.187 284.958C149.187 286.289 150.265 287.367 151.596 287.367Z" fill="#DD389A" fill-opacity="0.7"/>
  <path d="M211.482 252.262C212.813 252.262 213.892 251.183 213.892 249.853C213.892 248.522 212.813 247.443 211.482 247.443C210.152 247.443 209.073 248.522 209.073 249.853C209.073 251.183 210.152 252.262 211.482 252.262Z" fill="#DD389A" fill-opacity="0.7"/>
  <path opacity="0.432" d="M211.482 287.367C212.813 287.367 213.892 286.289 213.892 284.958C213.892 283.627 212.813 282.549 211.482 282.549C210.152 282.549 209.073 283.627 209.073 284.958C209.073 286.289 210.152 287.367 211.482 287.367Z" fill="#DD389A" fill-opacity="0.7"/>
  <path d="M241.77 199.947C243.1 199.947 244.179 198.869 244.179 197.538C244.179 196.208 243.1 195.129 241.77 195.129C240.439 195.129 239.36 196.208 239.36 197.538C239.36 198.869 240.439 199.947 241.77 199.947Z" fill="#DD389A" fill-opacity="0.7"/>
  <path d="M211.482 184.115C212.813 184.115 213.892 183.037 213.892 181.706C213.892 180.376 212.813 179.297 211.482 179.297C210.152 179.297 209.073 180.376 209.073 181.706C209.073 183.037 210.152 184.115 211.482 184.115Z" fill="#DD389A" fill-opacity="0.7"/>
  <path d="M181.195 199.947C182.526 199.947 183.605 198.869 183.605 197.538C183.605 196.208 182.526 195.129 181.195 195.129C179.865 195.129 178.786 196.208 178.786 197.538C178.786 198.869 179.865 199.947 181.195 199.947Z" fill="#DD389A" fill-opacity="0.7"/>
  <path d="M151.596 184.803C152.926 184.803 154.005 183.724 154.005 182.394C154.005 181.063 152.926 179.984 151.596 179.984C150.265 179.984 149.187 181.063 149.187 182.394C149.187 183.724 150.265 184.803 151.596 184.803Z" fill="#DD389A" fill-opacity="0.7"/>
  <path d="M31.1348 185.492C32.4654 185.492 33.544 184.414 33.544 183.083C33.544 181.752 32.4654 180.674 31.1348 180.674C29.8042 180.674 28.7256 181.752 28.7256 183.083C28.7256 184.414 29.8042 185.492 31.1348 185.492Z" fill="#DD389A" fill-opacity="0.7"/>
  <path d="M30.4463 253.639C31.7769 253.639 32.8556 252.56 32.8556 251.23C32.8556 249.899 31.7769 248.82 30.4463 248.82C29.1158 248.82 28.0371 249.899 28.0371 251.23C28.0371 252.56 29.1158 253.639 30.4463 253.639Z" fill="#DD389A" fill-opacity="0.7"/>
  <path d="M151.596 149.697C152.926 149.697 154.005 148.619 154.005 147.288C154.005 145.958 152.926 144.879 151.596 144.879C150.265 144.879 149.187 145.958 149.187 147.288C149.187 148.619 150.265 149.697 151.596 149.697Z" fill="#DD389A" fill-opacity="0.7"/>
  <path d="M91.0215 288.744C92.3521 288.744 93.4308 287.666 93.4308 286.335C93.4308 285.004 92.3521 283.926 91.0215 283.926C89.691 283.926 88.6123 285.004 88.6123 286.335C88.6123 287.666 89.691 288.744 91.0215 288.744Z" fill="#DD389A" fill-opacity="0.7"/>
  </g>
  </g>
  <defs>
  <clipPath id="clip0_913_1854">
  <rect width="349.991" height="303.891" fill="white" transform="translate(0.503906)"/>
  </clipPath>
  </defs>
  </svg>
  