<svg width="320" height="300" viewBox="0 0 320 300" fill="none" xmlns="http://www.w3.org/2000/svg">
  <g clip-path="url(#clip0_913_1917)">
  <g opacity="0.458">
  <path d="M71.5547 177.326L107.06 156.633L142.485 175.833V217.175L107.06 237.635L71.5547 217.175V177.326Z" stroke="#DD4D9B" stroke-width="0.810628"/>
  <path d="M248.662 235.913L284.167 215.221L319.592 234.42V275.763L284.167 296.223L248.662 275.763V235.913Z" stroke="#DD4D9B" stroke-width="0.810628"/>
  <path d="M142.484 176.513L177.99 155.82L213.414 175.02V216.362L177.99 236.823L142.484 216.362V176.513Z" stroke="#DD4D9B" stroke-width="0.810628"/>
  <path d="M107.208 116.408L142.713 95.7148L178.138 114.915V156.257L142.713 176.717L107.208 156.257V116.408Z" stroke="#DD4D9B" stroke-width="0.810628"/>
  <path d="M177.948 115.191L213.454 94.498L248.878 113.698V155.04L213.454 175.501L177.948 155.04V115.191Z" stroke="#DD4D9B" stroke-width="0.810628"/>
  <path d="M213.198 175.523L248.704 154.83L284.128 174.03V215.372L248.704 235.833L213.198 215.372V175.523Z" stroke="#DD4D9B" stroke-width="0.810628"/>
  <path opacity="0.4" d="M177.328 236.726L212.833 216.033L248.258 235.233V276.575L212.833 297.036L177.328 276.575V236.726Z" stroke="#DD4D9B" stroke-width="0.810628"/>
  <path opacity="0.474" d="M106.398 237.537L141.904 216.844L177.328 236.044V277.386L141.904 297.846L106.398 277.386V237.537Z" stroke="#DD4D9B" stroke-width="0.810628"/>
  <path opacity="0.548" d="M35.2656 238.347L70.771 217.654L106.196 236.854V278.196L70.771 298.657L35.2656 278.196V238.347Z" stroke="#DD4D9B" stroke-width="0.810628"/>
  <path opacity="0.297" d="M0.408203 177.955L35.9136 157.262L71.3382 176.461V217.804L35.9136 238.264L0.408203 217.804V177.955Z" stroke="#DD4D9B" stroke-width="0.810628"/>
  <path opacity="0.438" d="M36.0762 116.408L71.5815 95.7148L107.006 114.915V156.257L71.5815 176.717L36.0762 156.257V116.408Z" stroke="#DD4D9B" stroke-width="0.810628"/>
  <path d="M107.411 159.694C108.978 159.694 110.249 158.424 110.249 156.857C110.249 155.29 108.978 154.02 107.411 154.02C105.844 154.02 104.574 155.29 104.574 156.857C104.574 158.424 105.844 159.694 107.411 159.694Z" fill="#DD389A" fill-opacity="0.7"/>
  <path d="M106.601 239.946C108.168 239.946 109.438 238.676 109.438 237.109C109.438 235.542 108.168 234.271 106.601 234.271C105.034 234.271 103.764 235.542 103.764 237.109C103.764 238.676 105.034 239.946 106.601 239.946Z" fill="#DD389A" fill-opacity="0.7"/>
  <path d="M71.7434 219.68C73.3104 219.68 74.5806 218.41 74.5806 216.843C74.5806 215.276 73.3104 214.006 71.7434 214.006C70.1765 214.006 68.9062 215.276 68.9062 216.843C68.9062 218.41 70.1765 219.68 71.7434 219.68Z" fill="#DD389A" fill-opacity="0.7"/>
  <path d="M142.268 219.68C143.835 219.68 145.105 218.41 145.105 216.843C145.105 215.276 143.835 214.006 142.268 214.006C140.701 214.006 139.431 215.276 139.431 216.843C139.431 218.41 140.701 219.68 142.268 219.68Z" fill="#DD389A" fill-opacity="0.7"/>
  <path d="M142.268 178.338C143.835 178.338 145.105 177.068 145.105 175.501C145.105 173.934 143.835 172.664 142.268 172.664C140.701 172.664 139.431 173.934 139.431 175.501C139.431 177.068 140.701 178.338 142.268 178.338Z" fill="#DD389A" fill-opacity="0.7"/>
  <path d="M177.936 239.135C179.503 239.135 180.773 237.865 180.773 236.298C180.773 234.731 179.503 233.461 177.936 233.461C176.369 233.461 175.099 234.731 175.099 236.298C175.099 237.865 176.369 239.135 177.936 239.135Z" fill="#DD389A" fill-opacity="0.7"/>
  <path d="M213.603 219.68C215.17 219.68 216.44 218.41 216.44 216.843C216.44 215.276 215.17 214.006 213.603 214.006C212.036 214.006 210.766 215.276 210.766 216.843C210.766 218.41 212.036 219.68 213.603 219.68Z" fill="#DD389A" fill-opacity="0.7"/>
  <path opacity="0.5" d="M177.936 279.667C179.503 279.667 180.773 278.396 180.773 276.829C180.773 275.262 179.503 273.992 177.936 273.992C176.369 273.992 175.099 275.262 175.099 276.829C175.099 278.396 176.369 279.667 177.936 279.667Z" fill="#DD389A" fill-opacity="0.7"/>
  <path d="M248.46 238.325C250.027 238.325 251.297 237.055 251.297 235.488C251.297 233.921 250.027 232.65 248.46 232.65C246.893 232.65 245.623 233.921 245.623 235.488C245.623 237.055 246.893 238.325 248.46 238.325Z" fill="#DD389A" fill-opacity="0.7"/>
  <path d="M248.46 279.667C250.027 279.667 251.297 278.396 251.297 276.829C251.297 275.262 250.027 273.992 248.46 273.992C246.893 273.992 245.623 275.262 245.623 276.829C245.623 278.396 246.893 279.667 248.46 279.667Z" fill="#DD389A" fill-opacity="0.7"/>
  <path d="M284.128 176.717C285.695 176.717 286.965 175.447 286.965 173.88C286.965 172.313 285.695 171.043 284.128 171.043C282.561 171.043 281.291 172.313 281.291 173.88C281.291 175.447 282.561 176.717 284.128 176.717Z" fill="#DD389A" fill-opacity="0.7"/>
  <path d="M248.46 158.073C250.027 158.073 251.297 156.803 251.297 155.236C251.297 153.669 250.027 152.398 248.46 152.398C246.893 152.398 245.623 153.669 245.623 155.236C245.623 156.803 246.893 158.073 248.46 158.073Z" fill="#DD389A" fill-opacity="0.7"/>
  <path d="M212.792 176.717C214.359 176.717 215.629 175.447 215.629 173.88C215.629 172.313 214.359 171.043 212.792 171.043C211.225 171.043 209.955 172.313 209.955 173.88C209.955 175.447 211.225 176.717 212.792 176.717Z" fill="#DD389A" fill-opacity="0.7"/>
  <path d="M177.936 158.883C179.503 158.883 180.773 157.613 180.773 156.046C180.773 154.479 179.503 153.209 177.936 153.209C176.369 153.209 175.099 154.479 175.099 156.046C175.099 157.613 176.369 158.883 177.936 158.883Z" fill="#DD389A" fill-opacity="0.7"/>
  <path d="M36.0755 159.694C37.6424 159.694 38.9127 158.424 38.9127 156.857C38.9127 155.29 37.6424 154.02 36.0755 154.02C34.5085 154.02 33.2383 155.29 33.2383 156.857C33.2383 158.424 34.5085 159.694 36.0755 159.694Z" fill="#DD389A" fill-opacity="0.7"/>
  <path opacity="0.469" d="M35.2649 239.946C36.8319 239.946 38.1021 238.676 38.1021 237.109C38.1021 235.542 36.8319 234.271 35.2649 234.271C33.698 234.271 32.4277 235.542 32.4277 237.109C32.4277 238.676 33.698 239.946 35.2649 239.946Z" fill="#DD389A" fill-opacity="0.7"/>
  <path d="M177.936 117.542C179.503 117.542 180.773 116.271 180.773 114.704C180.773 113.137 179.503 111.867 177.936 111.867C176.369 111.867 175.099 113.137 175.099 114.704C175.099 116.271 176.369 117.542 177.936 117.542Z" fill="#DD389A" fill-opacity="0.7"/>
  <path opacity="0.445" d="M106.601 281.288C108.168 281.288 109.438 280.017 109.438 278.45C109.438 276.884 108.168 275.613 106.601 275.613C105.034 275.613 103.764 276.884 103.764 278.45C103.764 280.017 105.034 281.288 106.601 281.288Z" fill="#DD389A" fill-opacity="0.7"/>
  </g>
  <g opacity="0.22">
  <path d="M71.5547 83.2924L107.06 62.5996L142.485 81.7994V123.141L107.06 143.602L71.5547 123.141V83.2924Z" stroke="#DD4D9B" stroke-width="0.810628"/>
  <path d="M248.662 141.88L284.167 121.188L319.592 140.387V181.729L284.167 202.19L248.662 181.729V141.88Z" stroke="#DD4D9B" stroke-width="0.810628"/>
  <path d="M142.484 82.4799L177.99 61.7871L213.414 80.9869V122.329L177.99 142.79L142.484 122.329V82.4799Z" stroke="#DD4D9B" stroke-width="0.810628"/>
  <path d="M107.208 22.3744L142.713 1.68164L178.138 20.8814V62.2234L142.713 82.6843L107.208 62.2234V22.3744Z" stroke="#DD4D9B" stroke-width="0.810628"/>
  <path d="M177.948 21.1576L213.454 0.464844L248.878 19.6646V61.0067L213.454 81.4675L177.948 61.0067V21.1576Z" stroke="#DD4D9B" stroke-width="0.810628"/>
  <path d="M213.198 81.4897L248.704 60.7969L284.128 79.9966V121.339L248.704 141.8L213.198 121.339V81.4897Z" stroke="#DD4D9B" stroke-width="0.810628"/>
  <path d="M177.328 142.693L212.833 122L248.258 141.2V182.542L212.833 203.003L177.328 182.542V142.693Z" stroke="#DD4D9B" stroke-width="0.810628"/>
  <path d="M106.398 143.503L141.904 122.811L177.328 142.01V183.352L141.904 203.813L106.398 183.352V143.503Z" stroke="#DD4D9B" stroke-width="0.810628"/>
  <path d="M35.2656 144.314L70.771 123.621L106.196 142.821V184.163L70.771 204.624L35.2656 184.163V144.314Z" stroke="#DD4D9B" stroke-width="0.810628"/>
  <path d="M0.408203 83.9213L35.9136 63.2285L71.3382 82.4283V123.77L35.9136 144.231L0.408203 123.77V83.9213Z" stroke="#DD4D9B" stroke-width="0.810628"/>
  <path d="M36.0762 22.3744L71.5815 1.68164L107.006 20.8814V62.2234L71.5815 82.6843L36.0762 62.2234V22.3744Z" stroke="#DD4D9B" stroke-width="0.810628"/>
  <path d="M107.411 65.6607C108.978 65.6607 110.249 64.3905 110.249 62.8235C110.249 61.2566 108.978 59.9863 107.411 59.9863C105.844 59.9863 104.574 61.2566 104.574 62.8235C104.574 64.3905 105.844 65.6607 107.411 65.6607Z" fill="#DD389A" fill-opacity="0.7"/>
  <path d="M106.601 145.913C108.168 145.913 109.438 144.642 109.438 143.075C109.438 141.509 108.168 140.238 106.601 140.238C105.034 140.238 103.764 141.509 103.764 143.075C103.764 144.642 105.034 145.913 106.601 145.913Z" fill="#DD389A" fill-opacity="0.7"/>
  <path d="M71.7434 125.647C73.3104 125.647 74.5806 124.377 74.5806 122.81C74.5806 121.243 73.3104 119.973 71.7434 119.973C70.1765 119.973 68.9062 121.243 68.9062 122.81C68.9062 124.377 70.1765 125.647 71.7434 125.647Z" fill="#DD389A" fill-opacity="0.7"/>
  <path d="M142.268 125.647C143.835 125.647 145.105 124.377 145.105 122.81C145.105 121.243 143.835 119.973 142.268 119.973C140.701 119.973 139.431 121.243 139.431 122.81C139.431 124.377 140.701 125.647 142.268 125.647Z" fill="#DD389A" fill-opacity="0.7"/>
  <path d="M142.268 84.3053C143.835 84.3053 145.105 83.035 145.105 81.4681C145.105 79.9011 143.835 78.6309 142.268 78.6309C140.701 78.6309 139.431 79.9011 139.431 81.4681C139.431 83.035 140.701 84.3053 142.268 84.3053Z" fill="#DD389A" fill-opacity="0.7"/>
  <path d="M177.936 145.102C179.503 145.102 180.773 143.832 180.773 142.265C180.773 140.698 179.503 139.428 177.936 139.428C176.369 139.428 175.099 140.698 175.099 142.265C175.099 143.832 176.369 145.102 177.936 145.102Z" fill="#DD389A" fill-opacity="0.7"/>
  <path d="M213.603 125.647C215.17 125.647 216.44 124.377 216.44 122.81C216.44 121.243 215.17 119.973 213.603 119.973C212.036 119.973 210.766 121.243 210.766 122.81C210.766 124.377 212.036 125.647 213.603 125.647Z" fill="#DD389A" fill-opacity="0.7"/>
  <path d="M177.936 185.633C179.503 185.633 180.773 184.363 180.773 182.796C180.773 181.229 179.503 179.959 177.936 179.959C176.369 179.959 175.099 181.229 175.099 182.796C175.099 184.363 176.369 185.633 177.936 185.633Z" fill="#DD389A" fill-opacity="0.7"/>
  <path d="M248.46 144.292C250.027 144.292 251.297 143.021 251.297 141.454C251.297 139.887 250.027 138.617 248.46 138.617C246.893 138.617 245.623 139.887 245.623 141.454C245.623 143.021 246.893 144.292 248.46 144.292Z" fill="#DD389A" fill-opacity="0.7"/>
  <path d="M248.46 185.633C250.027 185.633 251.297 184.363 251.297 182.796C251.297 181.229 250.027 179.959 248.46 179.959C246.893 179.959 245.623 181.229 245.623 182.796C245.623 184.363 246.893 185.633 248.46 185.633Z" fill="#DD389A" fill-opacity="0.7"/>
  <path d="M284.128 82.6842C285.695 82.6842 286.965 81.4139 286.965 79.847C286.965 78.28 285.695 77.0098 284.128 77.0098C282.561 77.0098 281.291 78.28 281.291 79.847C281.291 81.4139 282.561 82.6842 284.128 82.6842Z" fill="#DD389A" fill-opacity="0.7"/>
  <path d="M248.46 64.0396C250.027 64.0396 251.297 62.7694 251.297 61.2024C251.297 59.6355 250.027 58.3652 248.46 58.3652C246.893 58.3652 245.623 59.6355 245.623 61.2024C245.623 62.7694 246.893 64.0396 248.46 64.0396Z" fill="#DD389A" fill-opacity="0.7"/>
  <path d="M212.792 82.6842C214.359 82.6842 215.629 81.4139 215.629 79.847C215.629 78.28 214.359 77.0098 212.792 77.0098C211.225 77.0098 209.955 78.28 209.955 79.847C209.955 81.4139 211.225 82.6842 212.792 82.6842Z" fill="#DD389A" fill-opacity="0.7"/>
  <path d="M177.936 64.8502C179.503 64.8502 180.773 63.5799 180.773 62.013C180.773 60.446 179.503 59.1758 177.936 59.1758C176.369 59.1758 175.099 60.446 175.099 62.013C175.099 63.5799 176.369 64.8502 177.936 64.8502Z" fill="#DD389A" fill-opacity="0.7"/>
  <path d="M36.0755 65.6607C37.6424 65.6607 38.9127 64.3905 38.9127 62.8235C38.9127 61.2566 37.6424 59.9863 36.0755 59.9863C34.5085 59.9863 33.2383 61.2566 33.2383 62.8235C33.2383 64.3905 34.5085 65.6607 36.0755 65.6607Z" fill="#DD389A" fill-opacity="0.7"/>
  <path d="M35.2649 145.913C36.8319 145.913 38.1021 144.642 38.1021 143.075C38.1021 141.509 36.8319 140.238 35.2649 140.238C33.698 140.238 32.4277 141.509 32.4277 143.075C32.4277 144.642 33.698 145.913 35.2649 145.913Z" fill="#DD389A" fill-opacity="0.7"/>
  <path d="M177.936 23.5084C179.503 23.5084 180.773 22.2381 180.773 20.6712C180.773 19.1042 179.503 17.834 177.936 17.834C176.369 17.834 175.099 19.1042 175.099 20.6712C175.099 22.2381 176.369 23.5084 177.936 23.5084Z" fill="#DD389A" fill-opacity="0.7"/>
  <path d="M106.601 187.254C108.168 187.254 109.438 185.984 109.438 184.417C109.438 182.85 108.168 181.58 106.601 181.58C105.034 181.58 103.764 182.85 103.764 184.417C103.764 185.984 105.034 187.254 106.601 187.254Z" fill="#DD389A" fill-opacity="0.7"/>
  </g>
  </g>
  <defs>
  <clipPath id="clip0_913_1917">
  <rect width="319.995" height="299.125" fill="white" transform="translate(0.00292969)"/>
  </clipPath>
  </defs>
  </svg>
  