<svg width="212" height="174" viewBox="0 0 212 174" fill="none" xmlns="http://www.w3.org/2000/svg">
<path d="M122.66 65.3998H85.2398L66.5298 32.9998L85.2398 0.589844H122.66L141.37 32.9998L122.66 65.3998ZM87.5498 61.3998H120.35L136.75 32.9998L120.35 4.58984H87.5498L71.1498 32.9998L87.5498 61.3998Z" fill="white"/>
<path d="M201.09 31H139.06V35H201.09V31Z" fill="white"/>
<path d="M122.66 173.41H85.2398L66.5298 141L85.2398 108.6H122.66L141.37 141L122.66 173.41ZM87.5498 169.41H120.35L136.75 141L120.35 112.6H87.5498L71.1498 141L87.5498 169.41Z" fill="white"/>
<path d="M68.8401 139H6.81006V143H68.8401V139Z" fill="white"/>
<path d="M56.5401 119.41H19.1201L0.410156 86.9998L19.1201 54.5898H56.5401L75.2502 86.9998L56.5401 119.41ZM21.4301 115.41H54.2301L70.6302 86.9998L54.2301 58.5898H21.4301L5.00015 86.9998L21.4301 115.41Z" fill="#F81381"/>
<path d="M192.88 119.41H155.46L136.75 86.9998L155.46 54.5898H192.88L211.59 86.9998L192.88 119.41ZM157.77 115.41H190.57L207 86.9998L190.6 58.5898H157.8L141.37 86.9998L157.77 115.41Z" fill="#F81381"/>
<path d="M139.07 85H72.9399V89H139.07V85Z" fill="#F81381"/>
</svg>
