<svg width="100" height="100" viewBox="0 0 100 100" fill="none" xmlns="http://www.w3.org/2000/svg">
<g clip-path="url(#clip0_8_1798)">
<path d="M65.1132 27.7007H33.2345C31.9821 27.7007 30.9574 28.7037 30.9574 29.9297V52.2198C30.9574 53.4458 31.9821 54.4488 33.2345 54.4488H65.1132C66.3656 54.4488 67.3902 53.4458 67.3902 52.2198V29.9297C67.3902 28.7037 66.3656 27.7007 65.1132 27.7007ZM42.3427 47.6503C42.3427 48.8763 41.318 49.8793 40.0656 49.8793C38.8132 49.8793 37.7886 48.8763 37.7886 47.6503V38.7343C37.7886 37.5083 38.8132 36.5053 40.0656 36.5053C41.318 36.5053 42.3427 37.5083 42.3427 38.7343V47.6503ZM51.4509 47.6503C51.4509 48.8763 50.4262 49.8793 49.1738 49.8793C47.9214 49.8793 46.8968 48.8763 46.8968 47.6503V40.9633C46.8968 39.7373 47.9214 38.7343 49.1738 38.7343C50.4262 38.7343 51.4509 39.7373 51.4509 40.9633V47.6503ZM60.5591 47.6503C60.5591 48.8763 59.5344 49.8793 58.282 49.8793C57.0296 49.8793 56.005 48.8763 56.005 47.6503V36.5053C56.005 35.2793 57.0296 34.2763 58.282 34.2763C59.5344 34.2763 60.5591 35.2793 60.5591 36.5053V47.6503Z" fill="white" fill-opacity="0.84"/>
<path d="M58.0543 68.2687L50.8816 61.2473V58.684C50.8816 57.7924 50.0847 57.0122 49.1738 57.0122C48.263 57.0122 47.466 57.7924 47.466 58.684V61.2473L40.2933 68.2687C39.6102 68.9374 39.6102 69.9405 40.2933 70.6092C40.6349 71.055 41.0903 71.1664 41.5457 71.1664C42.0011 71.1664 42.4565 71.055 42.7981 70.7206L47.5799 66.0397V70.0519C47.5799 70.9435 48.3769 71.7237 49.2877 71.7237C50.1985 71.7237 50.9955 70.9435 50.9955 70.0519V66.0397L55.7773 70.7206C56.1188 71.055 56.5742 71.1664 57.0297 71.1664C57.4851 71.1664 57.9405 71.055 58.282 70.7206C58.7374 70.0519 58.7374 68.9374 58.0543 68.2687Z" fill="white" fill-opacity="0.84"/>
</g>
<circle cx="49.9328" cy="49.7121" r="48.3361" stroke="url(#paint0_linear_8_1798)" stroke-width="2"/>
<defs>
<linearGradient id="paint0_linear_8_1798" x1="49.9328" y1="0.375977" x2="49.9328" y2="99.0481" gradientUnits="userSpaceOnUse">
<stop stop-color="#8B1052"/>
<stop offset="1" stop-color="#FFCFEF"/>
</linearGradient>
<clipPath id="clip0_8_1798">
<rect width="36.4328" height="44.023" fill="white" transform="translate(30.9574 27.7007)"/>
</clipPath>
</defs>
</svg>
