<svg width="100" height="100" viewBox="0 0 100 100" fill="none" xmlns="http://www.w3.org/2000/svg">
<circle cx="50.1461" cy="49.7121" r="48.3361" stroke="url(#paint0_linear_8_1810)" stroke-width="2"/>
<g clip-path="url(#clip0_8_1810)">
<path d="M39.8822 47.0737C38.5854 45.7484 36.6402 45.8809 35.473 47.3387C34.4356 48.5315 34.695 50.3869 35.8621 51.5796L39.1041 54.8928C39.7525 55.5554 39.7525 56.6156 39.1041 57.2782C38.4557 57.9409 37.4183 57.9409 36.7699 57.2782L33.5278 53.9651C32.3607 52.9049 31.5826 51.182 31.5826 49.4592V41.5076C31.5826 39.5197 29.8967 38.0619 27.9515 38.1944C26.2657 38.3269 25.0985 39.9172 25.0985 41.6401V49.8567C25.0985 51.7121 25.7469 53.5675 26.9141 55.0253L34.1762 63.772C34.3059 63.9046 34.5653 64.0371 34.695 64.0371H48.0521C48.4412 64.0371 48.7005 63.772 48.7005 63.3745V59.3987C48.7005 57.2782 47.9224 55.2903 46.3663 53.8325L39.8822 47.0737ZM73.729 38.1944C71.7838 38.0619 70.0979 39.5197 70.0979 41.5076V49.4592C69.9682 51.182 69.3198 52.9049 68.1527 54.0976L65.0404 57.4108C64.392 58.0734 63.3545 58.0734 62.7061 57.4108C62.0577 56.7481 62.0577 55.6879 62.7061 55.0253L65.9481 51.7121C67.1153 50.5194 67.2449 48.7965 66.3372 47.4713C65.17 46.0135 63.0951 46.0135 61.928 47.2062L55.4439 53.8325C54.0175 55.2903 53.1097 57.4108 53.1097 59.3987V63.3745C53.1097 63.772 53.369 64.0371 53.7581 64.0371H67.1153C67.2449 64.0371 67.5043 63.9046 67.634 63.772L74.8961 55.0253C76.0633 53.5675 76.7117 51.7121 76.7117 49.8567V41.6401C76.7117 39.9172 75.4149 38.3269 73.729 38.1944Z" fill="white" fill-opacity="0.84"/>
<path d="M48.4412 67.7477H35.084C34.6949 67.7477 34.4356 68.0128 34.4356 68.4103V71.0609C34.4356 71.4585 34.6949 71.7235 35.084 71.7235H48.4412C48.8302 71.7235 49.0896 71.4585 49.0896 71.0609V68.4103C49.0896 68.0128 48.7005 67.7477 48.4412 67.7477ZM66.7262 67.7477H53.369C52.98 67.7477 52.7206 68.0128 52.7206 68.4103V71.0609C52.7206 71.4585 52.98 71.7235 53.369 71.7235H66.7262C67.1152 71.7235 67.3746 71.4585 67.3746 71.0609V68.4103C67.3746 68.0128 67.1152 67.7477 66.7262 67.7477ZM64.2623 34.8811C64.2623 27.5921 58.4266 21.6284 51.2941 21.6284C44.1617 21.6284 38.326 27.5921 38.326 34.8811C38.326 42.1701 44.1617 48.1338 51.2941 48.1338C58.4266 48.1338 64.2623 42.1701 64.2623 34.8811ZM50.3864 32.4956L53.369 34.0859C55.0549 35.0136 55.9627 36.869 55.7033 38.7244C55.4439 40.3147 54.5362 41.5074 53.1097 42.0375V42.5676C53.1097 43.4953 52.3316 44.2905 51.4238 44.2905C50.516 44.2905 49.738 43.4953 49.738 42.5676V42.1701C48.3115 41.7725 47.0147 40.7123 46.4959 39.1219C46.1069 38.3268 46.4959 37.2666 47.274 37.0015C48.0521 36.6039 49.0896 37.0015 49.3489 37.7967C49.738 38.5918 50.5161 39.1219 51.2941 38.9894H51.4238C52.0722 38.8569 52.2019 38.3268 52.2019 38.0617C52.2019 37.9292 52.3316 37.134 51.6832 36.869L48.7005 35.2787C47.0147 34.351 46.1069 32.4956 46.3663 30.5077C46.6256 28.7849 47.9224 27.4596 49.6083 27.062V26.797C49.6083 25.8693 50.3864 25.0741 51.2941 25.0741C52.2019 25.0741 52.98 25.8693 52.98 26.797V27.5921C54.1471 28.1222 55.0549 29.0499 55.5736 30.3752C55.9627 31.1703 55.5736 32.2306 54.7955 32.4956C54.0174 32.8932 52.98 32.4956 52.7206 31.7004C52.3316 30.9053 51.5535 30.3752 50.7754 30.5077C49.9973 30.6402 49.8676 31.1703 49.8676 31.4354C49.8676 31.5679 49.738 32.2306 50.3864 32.4956Z" fill="white" fill-opacity="0.84"/>
</g>
<defs>
<linearGradient id="paint0_linear_8_1810" x1="50.1461" y1="0.375977" x2="50.1461" y2="99.0481" gradientUnits="userSpaceOnUse">
<stop stop-color="#8B1052"/>
<stop offset="1" stop-color="#FFCFEF"/>
</linearGradient>
<clipPath id="clip0_8_1810">
<rect width="51.6131" height="50.0951" fill="white" transform="translate(25.0985 21.6284)"/>
</clipPath>
</defs>
</svg>
