<svg version="1.2" xmlns="http://www.w3.org/2000/svg" viewBox="0 0 459 259" width="459" height="259">
	<title>tokenomics-svg</title>
	<defs>
		<clipPath clipPathUnits="userSpaceOnUse" id="cp1">
			<path d="m0-10h459v304h-459z"/>
		</clipPath>
	</defs>
	<style>
		.s0 { fill: #ffffff } 
		.s1 { fill: #251452 } 
		.s2 { fill: #351c75 } 
		.s3 { fill: #483775 } 
		.s4 { fill: #674ea7 } 
		.s5 { fill: #635789 } 
		.s6 { fill: #8e7cc3 } 
		.s7 { fill: #9893a3 } 
		.s8 { fill: #d9d2e9 } 
		.s9 { fill: #2b5d8b } 
		.s10 { fill: #3d85c6 } 
		.s11 { fill: #2a5497 } 
		.s12 { fill: #3c78d8 } 
		.s13 { fill: #4c6fa5 } 
		.s14 { fill: #6d9eeb } 
		.s15 { fill: #1a1a1a } 
		.s16 { fill: #9e9e9e } 
		.s17 { fill: none;stroke: #757575 } 
		.s18 { fill: #000000 } 
	</style>
	<g id="Clip-Path" clip-path="url(#cp1)">
		<g id="Layer">
			<path id="Layer" class="s0" d="m0-10h459v304h-459z"/>
			<path id="Layer" class="s1" d="m229.5 102.5c4.4 0 8.7 0.3 13 0.9v18.6c-4.3-0.7-8.6-1-13-1z"/>
			<path id="Layer" class="s2" d="m229.5 59.1c8.7 0 17.4 0.7 25.9 1.9l-12.9 42.4c-4.3-0.6-8.6-0.9-13-0.9z"/>
			<path id="Layer" class="s3" d="m242.5 103.4c6.4 0.9 12.5 2.6 18.2 4.9v18.5c-5.7-2.3-11.8-3.9-18.2-4.8z"/>
			<path id="Layer" class="s4" d="m255.4 61c12.8 1.9 25.1 5.2 36.4 9.7l-31.1 37.6c-5.7-2.3-11.8-4-18.2-4.9z"/>
			<path id="Layer" class="s5" d="m260.7 108.3c7.5 3 14.1 7.1 19.2 12v18.6c-5.1-4.9-11.7-9-19.2-12.1z"/>
			<path id="Layer" class="s6" d="m291.8 70.7c15.2 6.1 28.3 14.3 38.5 24.2l-50.4 25.4c-5.1-4.9-11.7-9-19.2-12z"/>
			<path id="Layer" class="s7" d="m279.9 120.3c7.8 7.4 11.9 16.3 11.9 25.5v18.5c0-9.1-4.1-18-11.9-25.4z"/>
			<path id="Layer" class="s8" d="m330.3 94.9c15.5 14.8 23.9 32.6 23.9 50.9h-62.4c0-9.2-4.1-18.1-11.9-25.5z"/>
			<path id="Layer" class="s9" d="m354.2 164.3c0 31-23.8 59.6-62.4 75v-18.5c38.6-15.5 62.4-44.1 62.4-75z"/>
			<path id="Layer" class="s10" d="m354.2 145.8c0 30.9-23.8 59.5-62.4 75l-31.1-37.5c19.2-7.8 31.1-22.1 31.1-37.5z"/>
			<path id="Layer" class="s11" d="m121.5 207.6c-10.9-13.1-16.7-28.1-16.7-43.3v-18.5c0 15.2 5.8 30.1 16.7 43.3z"/>
			<path id="Layer" class="s11" d="m167.2 145.8c0-24 27.9-43.3 62.3-43.3v18.5c-34.4 0-62.3 19.4-62.3 43.3z"/>
			<path id="Layer" class="s12" d="m121.5 189.1c-22.2-26.8-22.2-59.8 0-86.6 22.3-26.8 63.5-43.4 108-43.4v43.4c-22.3 0-42.8 8.2-54 21.6-11.1 13.4-11.1 29.9 0 43.3z"/>
			<path id="Layer" fill-rule="evenodd" class="s0" d="m224.1 67.7h-2.6v1.5q0.1-0.1 0.4-0.1 1.3 0 2 0.7 0.7 0.6 0.7 1.7 0 1.2-0.8 2-0.8 0.6-1.9 0.6-1.4 0-2.5-1l0.7-1q0.8 0.7 1.7 0.7 1.2 0 1.2-1.2 0-1.2-1.6-1.2-0.6 0-1.5 0.2v-4.2h4.2zm1.7 7.6l-0.4-0.7q0.6-0.2 0.6-0.6-0.6 0-0.6-0.6 0-0.4 0.2-0.6 0.3-0.2 0.6-0.2 0.4 0 0.6 0.3 0.3 0.2 0.3 0.7 0 0.6-0.4 1.1-0.3 0.5-0.9 0.6zm4.8-9q1.3 0 2.2 1.3 0.7 1.1 0.7 2.7 0 1.8-0.9 2.9-0.8 1-2 1-1.5 0-2.3-1.3-0.6-1-0.6-2.6 0-1.8 0.8-3 0.8-1 2.1-1zm0 1.3q-1.3 0-1.3 2.6 0 1.3 0.4 2 0.3 0.7 0.8 0.7 0.7 0 1-0.7 0.4-0.8 0.4-2 0-2.6-1.3-2.6zm6.7-1.3q1.4 0 2.3 1.3 0.7 1.1 0.7 2.7 0 1.8-0.9 2.9-0.8 1-2.1 1-1.4 0-2.2-1.3-0.7-1-0.7-2.6 0-1.8 0.9-3 0.8-1 2-1zm0 1.3q-1.3 0-1.3 2.6 0 1.3 0.4 2 0.4 0.7 0.9 0.7 0.6 0 1-0.7 0.3-0.8 0.3-2 0-2.6-1.3-2.6zm6.8-1.3q1.4 0 2.2 1.3 0.7 1.1 0.7 2.7 0 1.8-0.9 2.9-0.8 1-2 1-1.4 0-2.3-1.3-0.6-1-0.6-2.6 0-1.8 0.9-3 0.8-1 2-1zm0 1.3q-1.3 0-1.3 2.6 0 1.3 0.4 2 0.3 0.7 0.9 0.7 0.6 0 0.9-0.7 0.4-0.8 0.4-2 0-2.6-1.3-2.6zm4.1 7.7l-0.4-0.7q0.6-0.2 0.6-0.6-0.6 0-0.6-0.6 0-0.4 0.2-0.6 0.3-0.2 0.6-0.2 0.4 0 0.6 0.3 0.3 0.2 0.3 0.7 0 0.6-0.4 1.1-0.3 0.5-0.9 0.6zm4.8-9q1.3 0 2.2 1.3 0.7 1.1 0.7 2.7 0 1.8-0.9 2.9-0.8 1-2 1-1.5 0-2.3-1.3-0.7-1-0.7-2.6 0-1.8 0.9-3 0.8-1 2.1-1zm0 1.3q-1.3 0-1.3 2.6 0 1.3 0.4 2 0.3 0.7 0.8 0.7 0.7 0 1-0.7 0.4-0.8 0.4-2 0-2.6-1.3-2.6zm6.7-1.3q1.4 0 2.2 1.3 0.8 1.1 0.8 2.7 0 1.8-0.9 2.9-0.8 1-2.1 1-1.4 0-2.2-1.3-0.7-1-0.7-2.6 0-1.8 0.9-3 0.8-1 2-1zm0 1.3q-1.3 0-1.3 2.6 0 1.3 0.4 2 0.3 0.7 0.9 0.7 0.6 0 1-0.7 0.3-0.8 0.3-2 0-2.6-1.3-2.6zm6.8-1.3q1.4 0 2.2 1.3 0.7 1.1 0.7 2.7 0 1.8-0.9 2.9-0.8 1-2 1-1.5 0-2.3-1.3-0.6-1-0.6-2.6 0-1.8 0.9-3 0.8-1 2-1zm0 1.3q-1.3 0-1.3 2.6 0 1.3 0.4 2 0.3 0.7 0.9 0.7 0.6 0 0.9-0.7 0.4-0.8 0.4-2 0-2.6-1.3-2.6z"/>
			<path id="Layer" class="s13" d="m291.8 239.3c-59.6 24-135.8 9.8-170.3-31.7v-18.5c34.5 41.4 110.7 55.6 170.3 31.7z"/>
			<path id="Layer" class="s14" d="m291.8 220.8c-59.6 23.9-135.8 9.7-170.3-31.7l54-21.7c17.2 20.7 55.4 27.8 85.2 15.9z"/>
			<path id="Layer" fill-rule="evenodd" class="s15" d="m17.9 99.5h-0.9v2.1h-1.2v-5.6h2.1q1.1 0 1.6 0.4 0.6 0.4 0.6 1.3 0 0.5-0.3 0.9-0.2 0.4-0.8 0.7l1.3 2.3h-1.3zm-0.9-0.9h0.9q0.5 0 0.7-0.2 0.2-0.3 0.2-0.7 0-0.4-0.2-0.6-0.2-0.2-0.7-0.2h-0.9zm3.9 0.8q0-0.6 0.2-1.1 0.3-0.5 0.7-0.7 0.5-0.3 1.1-0.3 0.9 0 1.4 0.5 0.5 0.5 0.6 1.4v0.3q0 1-0.5 1.6-0.6 0.6-1.5 0.6-0.9 0-1.5-0.6-0.5-0.6-0.5-1.6zm1.1 0.1q0 0.6 0.3 0.9 0.2 0.3 0.6 0.3 0.4 0 0.7-0.3 0.2-0.3 0.2-1 0-0.6-0.2-0.9-0.3-0.3-0.7-0.3-0.4 0-0.6 0.3-0.3 0.3-0.3 1zm6.3 1.6q-0.4 0.5-1.1 0.5-0.7 0-1.1-0.4-0.4-0.4-0.4-1.1v-2.8h1.2v2.8q0 0.6 0.6 0.6 0.6 0 0.8-0.4v-3h1.1v4.3h-1.1zm3.2-3.8l0.1 0.4q0.4-0.5 1.2-0.5 0.7 0 1 0.4 0.3 0.4 0.3 1.2v2.7h-1.1v-2.7q0-0.4-0.2-0.5-0.1-0.2-0.5-0.2-0.5 0-0.7 0.4v3h-1.1v-4.2zm3.4 2q0-0.9 0.5-1.5 0.4-0.6 1.2-0.6 0.6 0 1 0.4v-2.1h1.2v6h-1.1v-0.5q-0.4 0.6-1.1 0.6-0.8 0-1.2-0.6-0.5-0.6-0.5-1.7zm1.2 0.1q0 0.6 0.2 0.9 0.2 0.3 0.6 0.3 0.5 0 0.7-0.4v-1.7q-0.2-0.4-0.7-0.4-0.8 0-0.8 1.3zm9.5-3l-2.2 5.1h-1.2l2.3-4.8h-2.9v-0.9h4z"/>
			<path id="Layer" fill-rule="evenodd" class="s16" d="m16.9 110.3h0.6q0.4 0 0.6-0.2 0.2-0.3 0.2-0.6 0-0.4-0.2-0.5-0.2-0.2-0.6-0.2-0.3 0-0.5 0.1-0.2 0.2-0.2 0.5h-1.2q0-0.4 0.3-0.8 0.2-0.4 0.6-0.5 0.5-0.3 1-0.3 0.9 0 1.4 0.5 0.5 0.4 0.5 1.2 0 0.4-0.2 0.7-0.2 0.3-0.6 0.5 0.5 0.2 0.7 0.5 0.2 0.3 0.2 0.8 0 0.8-0.5 1.2-0.6 0.5-1.5 0.5-0.8 0-1.4-0.5-0.5-0.4-0.5-1.2h1.1q0 0.4 0.2 0.6 0.3 0.2 0.6 0.2 0.4 0 0.7-0.2 0.2-0.3 0.2-0.6 0-0.9-0.9-0.9h-0.6zm4.6 0h0.6q0.5 0 0.7-0.2 0.2-0.2 0.2-0.5 0-0.4-0.2-0.6-0.2-0.2-0.6-0.2-0.3 0-0.5 0.2-0.2 0.2-0.2 0.5h-1.2q0-0.5 0.3-0.8 0.2-0.4 0.6-0.6 0.5-0.2 1-0.2 0.9 0 1.4 0.5 0.5 0.4 0.5 1.1 0 0.4-0.2 0.8-0.2 0.3-0.6 0.5 0.4 0.1 0.7 0.5 0.2 0.3 0.2 0.8 0 0.8-0.5 1.2-0.6 0.5-1.5 0.5-0.9 0-1.4-0.5-0.5-0.4-0.5-1.2h1.1q0 0.3 0.2 0.6 0.3 0.2 0.6 0.2 0.4 0 0.7-0.3 0.2-0.2 0.2-0.5 0-0.9-1-0.9h-0.6zm3.7 2.8q0-0.3 0.2-0.4 0.2-0.2 0.4-0.2 0.3 0 0.5 0.2 0.2 0.1 0.2 0.4 0 0.3-0.2 0.4-0.2 0.2-0.5 0.2-0.2 0-0.4-0.2-0.2-0.1-0.2-0.4zm3-2.8h0.6q0.5 0 0.7-0.2 0.2-0.2 0.2-0.5 0-0.4-0.2-0.6-0.2-0.2-0.6-0.2-0.3 0-0.5 0.2-0.2 0.2-0.2 0.5h-1.2q0-0.5 0.3-0.8 0.2-0.4 0.6-0.6 0.5-0.2 1-0.2 0.9 0 1.4 0.4 0.5 0.5 0.5 1.2 0 0.4-0.2 0.8-0.2 0.3-0.6 0.4 0.5 0.2 0.7 0.6 0.2 0.3 0.2 0.8 0 0.7-0.5 1.2-0.6 0.5-1.5 0.5-0.9 0-1.4-0.5-0.5-0.5-0.5-1.2h1.1q0 0.3 0.2 0.5 0.3 0.2 0.6 0.2 0.4 0 0.7-0.2 0.2-0.2 0.2-0.5 0-0.9-1-0.9h-0.6zm3.6-1.2q0-0.6 0.3-0.9 0.4-0.3 0.9-0.3 0.6 0 0.9 0.3 0.4 0.3 0.4 0.9v0.3q0 0.5-0.4 0.8-0.3 0.3-0.9 0.3-0.5 0-0.9-0.3-0.3-0.3-0.3-0.9zm0.7 0.3q0 0.3 0.2 0.4 0.1 0.2 0.3 0.2 0.2 0 0.4-0.2 0.1-0.1 0.1-0.4v-0.3q0-0.2-0.1-0.3-0.2-0.2-0.4-0.2-0.2 0-0.4 0.2-0.1 0.1-0.1 0.4zm2 2.8q0-0.5 0.3-0.8 0.4-0.3 0.9-0.3 0.6 0 0.9 0.3 0.4 0.3 0.4 0.9v0.2q0 0.6-0.4 0.9-0.3 0.3-0.9 0.3-0.5 0-0.9-0.3-0.3-0.3-0.3-0.9zm0.8 0.3q0 0.3 0.1 0.4 0.1 0.2 0.3 0.2 0.5 0 0.5-0.6v-0.3q0-0.2-0.1-0.3-0.1-0.2-0.4-0.2-0.2 0-0.3 0.2-0.1 0.1-0.1 0.3zm-2.1 0.7l-0.5-0.3 2.8-4.4 0.5 0.3z"/>
			<path id="Layer" class="s17" d="m15.3 104.6h85.5 26.1"/>
			<path id="Layer" class="s16" d="m128.3 104.6c0-0.7-0.6-1.3-1.4-1.3-0.7 0-1.3 0.6-1.3 1.3 0 0.8 0.6 1.4 1.3 1.4 0.8 0 1.4-0.6 1.4-1.4z"/>
			<path id="Layer" fill-rule="evenodd" class="s15" d="m17.9 220.2h-0.9v2.1h-1.2v-5.7h2.1q1.1 0 1.6 0.4 0.6 0.5 0.6 1.3 0 0.6-0.3 1-0.2 0.4-0.8 0.6l1.3 2.3v0.1h-1.3zm-0.9-1h0.9q0.5 0 0.7-0.2 0.2-0.2 0.2-0.6 0-0.4-0.2-0.7-0.2-0.2-0.7-0.2h-0.9zm3.9 0.9q0-0.6 0.2-1.1 0.3-0.5 0.7-0.8 0.5-0.3 1.1-0.3 0.9 0 1.4 0.6 0.5 0.5 0.6 1.4v0.3q0 0.9-0.5 1.5-0.6 0.6-1.5 0.6-0.9 0-1.5-0.6-0.5-0.6-0.5-1.6zm1.1 0.1q0 0.6 0.3 0.9 0.2 0.4 0.6 0.4 0.4 0 0.7-0.4 0.2-0.3 0.2-1 0-0.5-0.2-0.9-0.3-0.3-0.7-0.3-0.4 0-0.6 0.3-0.3 0.3-0.3 1zm6.3 1.7q-0.4 0.5-1.1 0.5-0.7 0-1.1-0.4-0.4-0.4-0.4-1.2v-2.7h1.2v2.7q0 0.7 0.6 0.7 0.6 0 0.8-0.4v-3h1.1v4.2h-1.1zm3.2-3.8l0.1 0.5q0.4-0.6 1.2-0.6 0.7 0 1 0.4 0.3 0.4 0.3 1.2v2.7h-1.1v-2.7q0-0.3-0.2-0.5-0.1-0.2-0.5-0.2-0.5 0-0.7 0.4v3h-1.1v-4.2zm3.4 2.1q0-1 0.5-1.6 0.4-0.6 1.2-0.6 0.6 0 1 0.5v-2.2h1.2v6h-1.1v-0.4q-0.4 0.5-1.1 0.5-0.8 0-1.2-0.6-0.5-0.6-0.5-1.6zm1.2 0.1q0 0.6 0.2 0.9 0.2 0.3 0.6 0.3 0.5 0 0.7-0.5v-1.6q-0.2-0.5-0.7-0.5-0.8 0-0.8 1.4zm8.7-3.7v0.9h-0.1q-0.7 0-1.2 0.4-0.5 0.4-0.6 1.1 0.5-0.5 1.2-0.5 0.7 0 1.2 0.6 0.4 0.5 0.4 1.3 0 0.6-0.2 1-0.3 0.5-0.7 0.8-0.5 0.2-1 0.2-0.9 0-1.5-0.6-0.5-0.7-0.5-1.7v-0.4q0-0.9 0.3-1.6 0.4-0.7 1-1.1 0.7-0.4 1.6-0.4zm-1.2 2.8q-0.2 0-0.5 0.2-0.2 0.1-0.3 0.3v0.4q0 0.6 0.2 0.9 0.3 0.3 0.7 0.3 0.3 0 0.6-0.3 0.2-0.3 0.2-0.7 0-0.5-0.2-0.8-0.3-0.3-0.7-0.3z"/>
			<path id="Layer" fill-rule="evenodd" class="s16" d="m19.6 234.2h-3.9v-0.7l1.9-2q0.3-0.4 0.5-0.7 0.2-0.3 0.2-0.6 0-0.4-0.2-0.6-0.2-0.2-0.5-0.2-0.4 0-0.7 0.3-0.2 0.2-0.2 0.7h-1.1q0-0.6 0.2-1 0.3-0.4 0.7-0.7 0.5-0.2 1.1-0.2 0.9 0 1.3 0.4 0.5 0.4 0.5 1.2 0 0.4-0.2 0.9-0.2 0.4-0.7 1l-1.3 1.3h2.4zm1-2.8l0.3-2.8h3.2v0.9h-2.3l-0.1 1.2q0.4-0.2 0.8-0.2 0.9 0 1.3 0.5 0.5 0.5 0.5 1.4 0 0.6-0.3 1-0.2 0.4-0.6 0.7-0.5 0.2-1.1 0.2-0.5 0-0.9-0.2-0.5-0.2-0.7-0.6-0.3-0.4-0.3-0.8h1.1q0.1 0.3 0.3 0.5 0.2 0.2 0.5 0.2 0.4 0 0.6-0.3 0.2-0.2 0.2-0.7 0-0.5-0.2-0.8-0.2-0.2-0.7-0.2-0.4 0-0.6 0.2l-0.1 0.1zm4.6 2.2q0-0.3 0.2-0.4 0.2-0.2 0.4-0.2 0.3 0 0.5 0.2 0.2 0.1 0.2 0.4 0 0.3-0.2 0.4-0.2 0.2-0.5 0.2-0.2 0-0.4-0.2-0.2-0.1-0.2-0.4zm5.8-1.8q0 1.2-0.5 1.8-0.5 0.6-1.5 0.6-0.9 0-1.4-0.6-0.5-0.6-0.5-1.7v-1.1q0-1.2 0.5-1.8 0.5-0.6 1.4-0.6 0.9 0 1.4 0.6 0.5 0.6 0.6 1.8zm-1.2-1.2q0-0.7-0.2-1-0.2-0.3-0.6-0.3-0.4 0-0.6 0.3-0.2 0.3-0.2 0.9v1.4q0 0.7 0.2 1.1 0.2 0.3 0.6 0.3 0.4 0 0.6-0.3 0.2-0.4 0.2-1zm2-1.1q0-0.5 0.3-0.9 0.4-0.3 0.9-0.3 0.6 0 0.9 0.3 0.4 0.4 0.4 0.9v0.3q0 0.5-0.4 0.8-0.3 0.4-0.9 0.4-0.5 0-0.9-0.4-0.3-0.3-0.3-0.8zm0.7 0.3q0 0.2 0.2 0.3 0.1 0.2 0.3 0.2 0.2 0 0.4-0.2 0.1-0.1 0.1-0.3v-0.3q0-0.3-0.1-0.4-0.2-0.1-0.4-0.1-0.2 0-0.3 0.1-0.2 0.1-0.2 0.4zm2 2.9q0-0.6 0.4-0.9 0.3-0.3 0.8-0.3 0.6 0 0.9 0.3 0.4 0.3 0.4 0.9v0.3q0 0.5-0.3 0.8-0.4 0.3-0.9 0.3-0.6 0-1-0.3-0.3-0.3-0.3-0.8zm0.8 0.3q0 0.2 0.1 0.3 0.1 0.2 0.4 0.2 0.4 0 0.4-0.5v-0.3q0-0.3-0.1-0.4-0.1-0.2-0.4-0.2-0.2 0-0.3 0.2-0.1 0.1-0.1 0.4zm-2.1 0.6l-0.5-0.3 2.8-4.4 0.5 0.3z"/>
			<path id="Layer" class="s17" d="m15.3 225.3h85.5 98"/>
			<path id="Layer" class="s16" d="m200.2 225.3c0-0.8-0.6-1.4-1.3-1.4-0.8 0-1.4 0.6-1.4 1.4 0 0.7 0.6 1.3 1.4 1.3 0.7 0 1.3-0.6 1.3-1.3z"/>
			<path id="Layer" fill-rule="evenodd" class="s15" d="m417.5 47.2h-0.9v2.1h-1.2v-5.7h2.1q1 0 1.6 0.5 0.5 0.4 0.5 1.3 0 0.5-0.2 0.9-0.3 0.4-0.8 0.7l1.2 2.3h-1.2zm-1-0.9h1q0.4 0 0.7-0.2 0.2-0.3 0.2-0.7 0-0.4-0.2-0.6-0.2-0.2-0.7-0.2h-1zm4 0.8q0-0.6 0.2-1.1 0.2-0.5 0.7-0.7 0.5-0.3 1.1-0.3 0.8 0 1.4 0.5 0.5 0.5 0.6 1.4v0.3q0 1-0.6 1.6-0.5 0.6-1.4 0.6-0.9 0-1.5-0.6-0.5-0.6-0.5-1.6zm1.1 0.1q0 0.6 0.2 0.9 0.3 0.3 0.7 0.3 0.4 0 0.6-0.3 0.3-0.3 0.3-1 0-0.6-0.3-0.9-0.2-0.3-0.6-0.3-0.4 0-0.7 0.3-0.2 0.3-0.2 1zm6.3 1.6q-0.4 0.5-1.2 0.5-0.7 0-1-0.4-0.4-0.4-0.4-1.1v-2.8h1.1v2.8q0 0.6 0.6 0.6 0.6 0 0.8-0.4v-3h1.2v4.2h-1.1zm3.2-3.7v0.4q0.5-0.5 1.2-0.5 0.7 0 1.1 0.4 0.3 0.4 0.3 1.2v2.7h-1.1v-2.7q0-0.4-0.2-0.5-0.2-0.2-0.5-0.2-0.5 0-0.7 0.4v3h-1.2v-4.2zm3.5 2q0-1 0.4-1.5 0.5-0.6 1.3-0.6 0.6 0 1 0.4v-2.1h1.1v6h-1l-0.1-0.5q-0.4 0.6-1 0.6-0.8 0-1.2-0.6-0.5-0.6-0.5-1.7zm1.1 0.1q0 0.6 0.2 0.9 0.2 0.3 0.6 0.3 0.6 0 0.8-0.4v-1.7q-0.2-0.4-0.7-0.4-0.9 0-0.9 1.3zm6.5 2.1h-1.2v-4.4l-1.3 0.4v-0.9l2.4-0.8h0.1z"/>
			<path id="Layer" fill-rule="evenodd" class="s16" d="m427.8 58h0.6q0.4 0 0.7-0.2 0.2-0.3 0.2-0.6 0-0.4-0.2-0.6-0.2-0.1-0.6-0.1-0.3 0-0.6 0.1-0.2 0.2-0.2 0.5h-1.1q0-0.5 0.2-0.8 0.3-0.4 0.7-0.6 0.4-0.2 1-0.2 0.9 0 1.4 0.5 0.5 0.4 0.5 1.2 0 0.4-0.2 0.7-0.3 0.3-0.7 0.5 0.5 0.2 0.7 0.5 0.3 0.3 0.3 0.8 0 0.8-0.6 1.2-0.5 0.5-1.4 0.5-0.9 0-1.4-0.5-0.6-0.4-0.6-1.2h1.1q0 0.4 0.3 0.6 0.2 0.2 0.6 0.2 0.4 0 0.6-0.2 0.3-0.3 0.3-0.6 0-0.9-1-0.9h-0.6zm3.6 2.8q0-0.2 0.2-0.4 0.2-0.2 0.5-0.2 0.3 0 0.4 0.2 0.2 0.2 0.2 0.4 0 0.3-0.2 0.5-0.1 0.1-0.4 0.1-0.3 0-0.5-0.1-0.2-0.2-0.2-0.5zm3.1-2.8h0.6q0.4 0 0.7-0.2 0.2-0.2 0.2-0.5 0-0.4-0.2-0.6-0.2-0.2-0.6-0.2-0.3 0-0.6 0.2-0.2 0.2-0.2 0.5h-1.1q0-0.5 0.2-0.8 0.3-0.4 0.7-0.6 0.4-0.2 1-0.2 0.9 0 1.4 0.5 0.5 0.4 0.5 1.1 0 0.4-0.2 0.8-0.3 0.3-0.7 0.5 0.5 0.1 0.7 0.5 0.3 0.3 0.3 0.8 0 0.7-0.6 1.2-0.5 0.5-1.4 0.5-0.9 0-1.4-0.5-0.6-0.4-0.6-1.2h1.2q-0.1 0.3 0.2 0.5 0.2 0.2 0.6 0.2 0.4 0 0.6-0.2 0.3-0.2 0.3-0.5 0-0.9-1-0.9h-0.6zm3.5-1.2q0-0.5 0.4-0.9 0.3-0.3 0.9-0.3 0.5 0 0.9 0.3 0.3 0.3 0.3 0.9v0.3q0 0.5-0.3 0.8-0.4 0.3-0.9 0.3-0.6 0-0.9-0.3-0.4-0.3-0.4-0.8zm0.8 0.3q0 0.2 0.1 0.3 0.2 0.2 0.4 0.2 0.2 0 0.3-0.2 0.2-0.1 0.2-0.3v-0.3q0-0.3-0.2-0.4-0.1-0.2-0.3-0.2-0.2 0-0.4 0.2-0.1 0.1-0.1 0.4zm2 2.9q0-0.6 0.3-0.9 0.4-0.3 0.9-0.3 0.6 0 0.9 0.3 0.3 0.3 0.3 0.9v0.3q0 0.5-0.3 0.8-0.3 0.3-0.9 0.3-0.6 0-0.9-0.3-0.3-0.3-0.3-0.8zm0.7 0.3q0 0.2 0.2 0.3 0.1 0.2 0.3 0.2 0.5 0 0.5-0.5v-0.3q0-0.3-0.1-0.4-0.2-0.2-0.4-0.2-0.2 0-0.4 0.2-0.1 0.1-0.1 0.4zm-2 0.6l-0.6-0.3 2.8-4.4 0.6 0.3z"/>
			<path id="Layer" class="s17" d="m443.7 52.3h-85.5l-116.3 11.6"/>
			<path id="Layer" class="s16" d="m243.2 63.9c0-0.7-0.6-1.3-1.3-1.3-0.8 0-1.4 0.6-1.4 1.3 0 0.8 0.6 1.4 1.4 1.4 0.7 0 1.3-0.6 1.3-1.4z"/>
			<path id="Layer" fill-rule="evenodd" class="s15" d="m417.5 69.2h-0.9v2.1h-1.2v-5.7h2.1q1 0 1.6 0.4 0.5 0.5 0.5 1.3 0 0.6-0.2 1-0.3 0.4-0.8 0.6l1.2 2.3v0.1h-1.2zm-1-1h1q0.4 0 0.7-0.2 0.2-0.2 0.2-0.6 0-0.4-0.2-0.6-0.2-0.3-0.7-0.3h-1zm4 0.9q0-0.6 0.2-1.1 0.2-0.5 0.7-0.8 0.5-0.2 1.1-0.2 0.8 0 1.4 0.5 0.5 0.5 0.6 1.4v0.3q0 1-0.6 1.5-0.5 0.6-1.4 0.6-0.9 0-1.5-0.6-0.5-0.5-0.5-1.6zm1.1 0.1q0 0.6 0.2 1 0.3 0.3 0.7 0.3 0.4 0 0.6-0.3 0.3-0.4 0.3-1.1 0-0.5-0.3-0.9-0.2-0.3-0.6-0.3-0.4 0-0.7 0.3-0.2 0.4-0.2 1zm6.3 1.7q-0.4 0.5-1.2 0.5-0.7 0-1-0.4-0.4-0.4-0.4-1.2v-2.7h1.1v2.7q0 0.7 0.6 0.7 0.6 0 0.8-0.4v-3h1.2v4.2h-1.1zm3.2-3.8v0.5q0.5-0.6 1.2-0.6 0.7 0 1.1 0.4 0.3 0.4 0.3 1.2v2.7h-1.1v-2.7q0-0.3-0.2-0.5-0.2-0.2-0.5-0.2-0.5 0-0.7 0.5v2.9h-1.2v-4.2zm3.5 2.1q0-1 0.4-1.6 0.5-0.6 1.3-0.6 0.6 0 1 0.5v-2.2h1.1v6h-1l-0.1-0.4q-0.4 0.5-1 0.5-0.8 0-1.2-0.6-0.5-0.6-0.5-1.6zm1.1 0.1q0 0.6 0.2 0.9 0.2 0.3 0.6 0.3 0.6 0 0.8-0.5v-1.6q-0.2-0.5-0.7-0.5-0.9 0-0.9 1.4zm7.6 2h-3.9v-0.7l1.9-2q0.3-0.4 0.5-0.7 0.2-0.3 0.2-0.6 0-0.4-0.2-0.6-0.2-0.2-0.5-0.2-0.4 0-0.6 0.2-0.3 0.3-0.3 0.7h-1.1q0-0.5 0.3-0.9 0.2-0.4 0.7-0.7 0.4-0.2 1-0.2 0.9 0 1.4 0.4 0.5 0.4 0.5 1.2 0 0.4-0.3 0.8-0.2 0.5-0.7 1.1l-1.3 1.3h2.4z"/>
			<path id="Layer" fill-rule="evenodd" class="s16" d="m426.8 80.5l0.4-2.9h3.2v0.9h-2.3l-0.2 1.2q0.5-0.2 0.9-0.2 0.8 0 1.3 0.5 0.4 0.5 0.4 1.4 0 0.6-0.2 1-0.2 0.4-0.7 0.7-0.4 0.2-1 0.2-0.5 0-1-0.2-0.4-0.2-0.7-0.6-0.2-0.3-0.2-0.8h1.1q0 0.3 0.2 0.5 0.3 0.2 0.6 0.2 0.4 0 0.6-0.3 0.2-0.2 0.2-0.7 0-0.5-0.2-0.8-0.3-0.2-0.7-0.2-0.4 0-0.7 0.2l-0.1 0.1zm4.7 2.2q0-0.2 0.1-0.4 0.2-0.2 0.5-0.2 0.3 0 0.5 0.2 0.1 0.2 0.1 0.4 0 0.3-0.1 0.5-0.2 0.1-0.5 0.1-0.3 0-0.5-0.1-0.1-0.2-0.1-0.5zm5.7-1.8q0 1.2-0.5 1.8-0.5 0.7-1.4 0.7-0.9 0-1.4-0.7-0.5-0.6-0.5-1.7v-1.1q0-1.1 0.4-1.8 0.5-0.6 1.5-0.6 0.9 0 1.4 0.6 0.5 0.6 0.5 1.8zm-1.1-1.2q0-0.7-0.2-1-0.2-0.3-0.6-0.3-0.4 0-0.6 0.3-0.2 0.3-0.2 1v1.3q0 0.7 0.2 1.1 0.2 0.3 0.6 0.3 0.4 0 0.6-0.3 0.2-0.3 0.2-1zm1.9-1.1q0-0.5 0.4-0.8 0.3-0.4 0.9-0.4 0.5 0 0.9 0.4 0.3 0.3 0.3 0.8v0.3q0 0.5-0.3 0.8-0.4 0.4-0.9 0.4-0.6 0-0.9-0.4-0.4-0.3-0.4-0.8zm0.8 0.3q0 0.2 0.1 0.4 0.2 0.1 0.4 0.1 0.2 0 0.3-0.1 0.2-0.2 0.2-0.4v-0.3q0-0.3-0.2-0.4-0.1-0.1-0.3-0.1-0.2 0-0.4 0.1-0.1 0.1-0.1 0.4zm2 2.9q0-0.5 0.3-0.9 0.4-0.3 0.9-0.3 0.6 0 0.9 0.3 0.4 0.4 0.4 0.9v0.3q0 0.5-0.4 0.8-0.3 0.4-0.9 0.4-0.5 0-0.9-0.4-0.3-0.3-0.3-0.8zm0.7 0.3q0 0.2 0.2 0.4 0.1 0.1 0.3 0.1 0.5 0 0.5-0.5v-0.3q0-0.3-0.1-0.4-0.2-0.1-0.4-0.1-0.2 0-0.3 0.1-0.2 0.1-0.2 0.4zm-2 0.7l-0.5-0.3 2.8-4.5 0.5 0.3z"/>
			<path id="Layer" class="s17" d="m443.7 74.3h-85.5l-86.3-5.4"/>
			<path id="Layer" class="s16" d="m273.3 68.9c0-0.7-0.6-1.3-1.4-1.3-0.7 0-1.3 0.6-1.3 1.3 0 0.8 0.6 1.4 1.3 1.4 0.8 0 1.4-0.6 1.4-1.4z"/>
			<path id="Layer" fill-rule="evenodd" class="s15" d="m415.5 91.1h-0.9v2.1h-1.2v-5.6h2.1q1 0 1.6 0.4 0.5 0.4 0.5 1.3 0 0.5-0.2 0.9-0.3 0.4-0.8 0.7l1.2 2.3h-1.2zm-1-0.9h1q0.4 0 0.7-0.2 0.2-0.3 0.2-0.7 0-0.4-0.2-0.6-0.3-0.2-0.7-0.2h-1zm4 0.9q0-0.7 0.2-1.2 0.2-0.5 0.7-0.7 0.5-0.3 1.1-0.3 0.8 0 1.4 0.5 0.5 0.5 0.6 1.4v0.3q0 1-0.6 1.6-0.5 0.6-1.4 0.6-1 0-1.5-0.6-0.5-0.6-0.5-1.6zm1.1 0.1q0 0.6 0.2 0.9 0.2 0.3 0.7 0.3 0.4 0 0.6-0.3 0.2-0.3 0.2-1 0-0.6-0.2-0.9-0.2-0.3-0.6-0.3-0.5 0-0.7 0.3-0.2 0.3-0.2 1zm6.3 1.6q-0.5 0.5-1.2 0.5-0.7 0-1-0.4-0.4-0.4-0.4-1.1v-2.8h1.1v2.8q0 0.6 0.6 0.6 0.6 0 0.8-0.4v-3h1.2v4.3h-1.1zm3.2-3.8v0.4q0.5-0.5 1.2-0.5 0.7 0 1 0.4 0.4 0.4 0.4 1.2v2.7h-1.2v-2.7q0-0.4-0.1-0.5-0.2-0.2-0.5-0.2-0.5 0-0.7 0.4v3h-1.2v-4.2zm3.5 2q0-0.9 0.4-1.5 0.5-0.6 1.3-0.6 0.6 0 1 0.4v-2.1h1.1v6h-1l-0.1-0.5q-0.4 0.6-1.1 0.6-0.7 0-1.2-0.6-0.4-0.6-0.4-1.7zm1.1 0.1q0 0.6 0.2 0.9 0.2 0.3 0.6 0.3 0.6 0 0.8-0.4v-1.7q-0.2-0.4-0.8-0.4-0.8 0-0.8 1.3zm6.9-1.3h0.6q0.4 0 0.6-0.2 0.2-0.2 0.2-0.5 0-0.4-0.2-0.6-0.2-0.2-0.6-0.2-0.3 0-0.5 0.2-0.2 0.2-0.2 0.5h-1.1q0-0.5 0.2-0.8 0.2-0.4 0.7-0.6 0.4-0.2 0.9-0.2 0.9 0 1.4 0.5 0.6 0.4 0.6 1.1 0 0.4-0.3 0.8-0.2 0.3-0.6 0.5 0.5 0.1 0.7 0.5 0.2 0.3 0.2 0.8 0 0.7-0.5 1.2-0.6 0.5-1.5 0.5-0.8 0-1.4-0.5-0.5-0.4-0.5-1.2h1.1q0 0.3 0.3 0.6 0.2 0.1 0.5 0.1 0.5 0 0.7-0.2 0.2-0.2 0.2-0.5 0-0.9-0.9-0.9h-0.6z"/>
			<path id="Layer" fill-rule="evenodd" class="s16" d="m429.7 99.5v0.9h-0.1q-0.7 0-1.2 0.4-0.5 0.4-0.6 1.1 0.5-0.5 1.2-0.5 0.7 0 1.2 0.5 0.4 0.6 0.4 1.4 0 0.6-0.2 1-0.3 0.5-0.7 0.7-0.5 0.3-1 0.3-0.9 0-1.5-0.6-0.5-0.7-0.5-1.7v-0.4q0-0.9 0.3-1.7 0.4-0.7 1-1 0.7-0.4 1.5-0.4zm-1.1 2.8q-0.2 0-0.5 0.2-0.2 0.1-0.3 0.3v0.4q0 0.5 0.2 0.9 0.3 0.3 0.7 0.3 0.3 0 0.6-0.3 0.2-0.3 0.2-0.8 0-0.4-0.2-0.7-0.3-0.3-0.7-0.3zm2.9 2.3q0-0.2 0.1-0.4 0.2-0.2 0.5-0.2 0.3 0 0.5 0.2 0.1 0.2 0.1 0.4 0 0.3-0.1 0.5-0.2 0.1-0.5 0.1-0.3 0-0.5-0.1-0.1-0.2-0.1-0.5zm5.8-4.4l-2.3 5h-1.2l2.3-4.8h-2.9v-0.9h4.1zm0.7 0.5q0-0.5 0.4-0.9 0.3-0.3 0.9-0.3 0.5 0 0.9 0.3 0.3 0.4 0.3 0.9v0.3q0 0.5-0.3 0.8-0.4 0.3-0.9 0.3-0.6 0-0.9-0.3-0.4-0.3-0.4-0.8zm0.8 0.3q0 0.2 0.1 0.3 0.2 0.2 0.4 0.2 0.2 0 0.3-0.2 0.2-0.1 0.2-0.3v-0.3q0-0.3-0.2-0.4-0.1-0.2-0.3-0.2-0.2 0-0.4 0.2-0.1 0.1-0.1 0.4zm2 2.9q0-0.6 0.3-0.9 0.4-0.3 0.9-0.3 0.6 0 0.9 0.3 0.4 0.3 0.4 0.9v0.3q0 0.5-0.4 0.8-0.3 0.3-0.9 0.3-0.5 0-0.9-0.3-0.3-0.3-0.3-0.8zm0.7 0.3q0 0.2 0.2 0.3 0.1 0.2 0.3 0.2 0.5 0 0.5-0.5v-0.3q0-0.3-0.1-0.4-0.2-0.2-0.4-0.2-0.2 0-0.3 0.2-0.2 0.1-0.2 0.4zm-2 0.6l-0.5-0.3 2.8-4.4 0.5 0.3z"/>
			<path id="Layer" class="s17" d="m443.7 96.2h-85.5l-49.5-11.6"/>
			<path id="Layer" class="s16" d="m310.1 84.6c0-0.7-0.6-1.3-1.4-1.3-0.7 0-1.3 0.6-1.3 1.3 0 0.7 0.6 1.3 1.3 1.3 0.8 0 1.4-0.6 1.4-1.3z"/>
			<path id="Layer" fill-rule="evenodd" class="s15" d="m415.5 115.3h-0.9v2h-1.2v-5.6h2.1q1 0 1.6 0.4 0.5 0.5 0.5 1.3 0 0.6-0.2 1-0.3 0.3-0.8 0.6l1.2 2.3h-1.2zm-1-0.9h1q0.4 0 0.7-0.2 0.2-0.2 0.2-0.6 0-0.4-0.2-0.7-0.3-0.2-0.7-0.2h-1zm4 0.9q0-0.7 0.2-1.1 0.2-0.5 0.7-0.8 0.5-0.3 1.1-0.3 0.8 0 1.4 0.5 0.5 0.6 0.6 1.5v0.2q0 1-0.6 1.6-0.5 0.6-1.4 0.6-1 0-1.5-0.6-0.5-0.6-0.5-1.6zm1.1 0.1q0 0.6 0.2 0.9 0.2 0.3 0.7 0.3 0.4 0 0.6-0.3 0.2-0.3 0.2-1 0-0.6-0.2-0.9-0.2-0.3-0.6-0.3-0.5 0-0.7 0.3-0.2 0.3-0.2 1zm6.3 1.6q-0.5 0.6-1.2 0.6-0.7 0-1-0.4-0.4-0.4-0.4-1.2v-2.8h1.1v2.8q0 0.6 0.6 0.6 0.6 0 0.8-0.4v-3h1.2v4.3h-1.1zm3.2-3.8v0.5q0.5-0.6 1.2-0.6 0.7 0 1 0.4 0.4 0.4 0.4 1.2v2.7h-1.2v-2.7q0-0.4-0.1-0.5-0.2-0.2-0.5-0.2-0.5 0-0.7 0.4v3h-1.2v-4.2zm3.5 2.1q0-1 0.4-1.6 0.5-0.6 1.3-0.6 0.6 0 1 0.5v-2.2h1.1v6h-1l-0.1-0.5q-0.4 0.6-1.1 0.6-0.7 0-1.2-0.6-0.4-0.6-0.4-1.6zm1.1 0q0 0.6 0.2 1 0.2 0.3 0.6 0.3 0.6 0 0.8-0.5v-1.6q-0.2-0.5-0.8-0.5-0.8 0-0.8 1.3zm9.1 0h0.6v0.9h-0.6v1.2h-1.2v-1.2h-2.3l-0.1-0.7 2.4-3.8h1.2zm-2.4 0h1.2v-2 0.1z"/>
			<path id="Layer" fill-rule="evenodd" class="s16" d="m424.7 129.3h-1.1v-4.3l-1.4 0.4v-0.9l2.4-0.9h0.1zm5.8-2.3q0 1.2-0.5 1.8-0.5 0.6-1.4 0.6-1 0-1.5-0.6-0.4-0.6-0.5-1.8v-1q0-1.2 0.5-1.8 0.5-0.6 1.5-0.6 0.9 0 1.4 0.6 0.5 0.6 0.5 1.7zm-1.1-1.1q0-0.7-0.2-1-0.2-0.4-0.6-0.4-0.4 0-0.6 0.4-0.2 0.3-0.2 0.9v1.4q0 0.7 0.2 1 0.2 0.4 0.6 0.4 0.4 0 0.6-0.4 0.2-0.3 0.2-0.9zm2.1 2.9q-0.1-0.3 0.1-0.4 0.2-0.2 0.5-0.2 0.3 0 0.4 0.2 0.2 0.1 0.2 0.4 0 0.3-0.2 0.4-0.1 0.2-0.4 0.2-0.3 0-0.5-0.2-0.2-0.1-0.1-0.4zm5.7-1.8q0 1.2-0.5 1.8-0.5 0.6-1.4 0.6-1 0-1.5-0.6-0.4-0.6-0.5-1.7v-1.1q0-1.2 0.5-1.8 0.5-0.6 1.5-0.6 0.9 0 1.4 0.6 0.5 0.6 0.5 1.8zm-1.1-1.2q0-0.7-0.2-1-0.2-0.3-0.6-0.3-0.4 0-0.6 0.3-0.2 0.3-0.2 0.9v1.4q0 0.7 0.2 1 0.2 0.4 0.6 0.4 0.4 0 0.6-0.3 0.2-0.4 0.2-1zm1.9-1.1q0-0.5 0.4-0.9 0.3-0.3 0.9-0.3 0.5 0 0.9 0.3 0.3 0.3 0.3 0.9v0.3q0 0.5-0.3 0.8-0.4 0.3-0.9 0.3-0.6 0-0.9-0.3-0.4-0.3-0.4-0.8zm0.8 0.3q0 0.2 0.1 0.3 0.2 0.2 0.4 0.2 0.2 0 0.3-0.2 0.2-0.1 0.2-0.4v-0.2q0-0.3-0.2-0.4-0.1-0.2-0.3-0.2-0.2 0-0.4 0.2-0.1 0.1-0.1 0.4zm2 2.9q0-0.6 0.3-0.9 0.4-0.3 0.9-0.3 0.6 0 0.9 0.3 0.3 0.3 0.3 0.9v0.3q0 0.5-0.3 0.8-0.3 0.3-0.9 0.3-0.6 0-0.9-0.3-0.3-0.3-0.3-0.9zm0.7 0.3q0 0.3 0.2 0.4 0.1 0.2 0.3 0.2 0.5 0 0.5-0.6v-0.3q0-0.2-0.1-0.3-0.2-0.2-0.4-0.2-0.2 0-0.4 0.2-0.1 0.1-0.1 0.4zm-2 0.6l-0.6-0.3 2.8-4.4 0.6 0.3z"/>
			<path id="Layer" class="s17" d="m443.7 120.3h-85.5-16.1"/>
			<path id="Layer" class="s16" d="m343.5 120.3c0-0.7-0.6-1.3-1.4-1.3-0.7 0-1.3 0.6-1.3 1.3 0 0.8 0.6 1.4 1.3 1.4 0.8 0 1.4-0.6 1.4-1.4z"/>
			<path id="Layer" fill-rule="evenodd" class="s15" d="m415.5 181.8h-0.9v2.1h-1.2v-5.7h2.1q1 0 1.6 0.5 0.5 0.4 0.5 1.3 0 0.5-0.2 0.9-0.3 0.4-0.8 0.7l1.2 2.3h-1.2zm-1-0.9h1q0.4 0 0.7-0.2 0.2-0.3 0.2-0.7 0-0.4-0.2-0.6-0.3-0.2-0.7-0.2h-1zm4 0.8q0-0.6 0.2-1.1 0.2-0.5 0.7-0.7 0.5-0.3 1.1-0.3 0.8 0 1.4 0.5 0.5 0.5 0.6 1.4v0.3q0 1-0.6 1.6-0.5 0.6-1.4 0.6-1 0-1.5-0.6-0.5-0.6-0.5-1.6zm1.1 0.1q0 0.6 0.2 0.9 0.2 0.3 0.7 0.3 0.4 0 0.6-0.3 0.2-0.3 0.2-1 0-0.6-0.2-0.9-0.2-0.3-0.6-0.3-0.5 0-0.7 0.3-0.2 0.3-0.2 1zm6.3 1.6q-0.5 0.5-1.2 0.5-0.7 0-1-0.4-0.4-0.4-0.4-1.1v-2.8h1.1v2.8q0 0.6 0.6 0.6 0.6 0 0.8-0.4v-3h1.2v4.2h-1.1zm3.2-3.7v0.4q0.5-0.5 1.2-0.5 0.7 0 1 0.4 0.4 0.4 0.4 1.2v2.7h-1.2v-2.7q0-0.4-0.1-0.5-0.2-0.2-0.5-0.2-0.5 0-0.7 0.4v3h-1.2v-4.2zm3.5 2q0-1 0.4-1.5 0.5-0.6 1.3-0.6 0.6 0 1 0.4v-2.1h1.1v6h-1l-0.1-0.5q-0.4 0.6-1.1 0.6-0.7 0-1.2-0.6-0.4-0.6-0.4-1.7zm1.1 0.1q0 0.6 0.2 0.9 0.2 0.3 0.6 0.3 0.6 0 0.8-0.4v-1.7q-0.2-0.4-0.8-0.4-0.8 0-0.8 1.3zm5.9-0.7l0.3-2.9h3.2v0.9h-2.2l-0.2 1.3q0.4-0.3 0.9-0.3 0.8 0 1.2 0.6 0.5 0.5 0.5 1.4 0 0.5-0.2 0.9-0.3 0.5-0.7 0.7-0.4 0.3-1 0.3-0.5 0-1-0.3-0.4-0.2-0.7-0.5-0.2-0.4-0.3-0.9h1.2q0 0.3 0.2 0.5 0.2 0.2 0.6 0.2 0.4 0 0.6-0.2 0.2-0.3 0.2-0.8 0-0.5-0.3-0.7-0.2-0.3-0.6-0.3-0.4 0-0.7 0.2l-0.1 0.1z"/>
			<path id="Layer" fill-rule="evenodd" class="s16" d="m424.7 195.9h-1.1v-4.3l-1.4 0.4v-0.9l2.4-0.9h0.1zm5-5.7v0.9h-0.1q-0.7 0-1.2 0.4-0.5 0.4-0.6 1.1 0.5-0.5 1.2-0.5 0.7 0 1.2 0.5 0.4 0.6 0.4 1.4 0 0.6-0.2 1-0.3 0.5-0.7 0.7-0.5 0.3-1 0.3-0.9 0-1.5-0.6-0.5-0.7-0.5-1.7v-0.4q0-0.9 0.3-1.6 0.4-0.7 1-1.1 0.7-0.4 1.5-0.4zm-1.1 2.8q-0.2 0-0.5 0.2-0.2 0.1-0.3 0.3v0.4q0 0.5 0.2 0.9 0.3 0.3 0.7 0.3 0.3 0 0.6-0.3 0.2-0.3 0.2-0.8 0-0.4-0.2-0.7-0.3-0.3-0.7-0.3zm2.9 2.4q0-0.3 0.1-0.5 0.2-0.1 0.5-0.1 0.3 0 0.5 0.1 0.1 0.2 0.1 0.5 0 0.2-0.1 0.4-0.2 0.2-0.5 0.1-0.3 0.1-0.5-0.1-0.1-0.2-0.1-0.4zm5.8-4.5l-2.3 5h-1.2l2.3-4.8h-2.9v-0.9h4.1zm0.7 0.5q0-0.5 0.4-0.9 0.3-0.3 0.9-0.3 0.5 0 0.9 0.3 0.3 0.4 0.3 0.9v0.3q0 0.5-0.3 0.8-0.4 0.4-0.9 0.4-0.6 0-0.9-0.4-0.4-0.3-0.4-0.8zm0.8 0.3q0 0.2 0.1 0.3 0.2 0.2 0.4 0.2 0.2 0 0.3-0.2 0.2-0.1 0.2-0.3v-0.3q0-0.3-0.2-0.4-0.1-0.1-0.3-0.1-0.2 0-0.4 0.1-0.1 0.1-0.1 0.4zm2 2.9q0-0.6 0.3-0.9 0.4-0.3 0.9-0.3 0.6 0 0.9 0.3 0.4 0.3 0.4 0.9v0.3q0 0.5-0.4 0.8-0.3 0.3-0.9 0.3-0.5 0-0.9-0.3-0.3-0.3-0.3-0.8zm0.7 0.3q0 0.2 0.2 0.3 0.1 0.2 0.3 0.2 0.5 0 0.5-0.5v-0.3q0-0.3-0.1-0.4-0.2-0.2-0.4-0.2-0.2 0-0.3 0.2-0.2 0.1-0.2 0.4zm-2 0.6l-0.5-0.3 2.8-4.4 0.5 0.3z"/>
			<path id="Layer" class="s17" d="m443.7 186.9h-85.5-26.1"/>
			<path id="Layer" class="s16" d="m333.4 186.9c0-0.7-0.6-1.3-1.3-1.3-0.8 0-1.4 0.6-1.4 1.3 0 0.7 0.6 1.3 1.4 1.3 0.7 0 1.3-0.6 1.3-1.3z"/>
			<path id="Layer" fill-rule="evenodd" class="s18" d="m23.6 14.7q-0.1 1.5-1.1 2.4-1 0.9-2.7 0.9-1.8 0-2.9-1.3-1-1.2-1-3.3v-0.6q0-1.4 0.5-2.4 0.4-1 1.3-1.6 0.9-0.6 2.1-0.6 1.7 0 2.7 0.9 1 0.9 1.2 2.5h-2q-0.1-0.9-0.5-1.3-0.5-0.5-1.4-0.5-0.9 0-1.4 0.8-0.5 0.6-0.5 2.1v0.7q0 1.6 0.4 2.3 0.5 0.7 1.5 0.7 0.9 0 1.4-0.4 0.4-0.4 0.5-1.3zm0.8-0.4q0-1.1 0.4-1.9 0.4-0.8 1.2-1.3 0.7-0.4 1.7-0.4 1.5 0 2.4 0.9 0.9 0.8 1 2.3v0.5q0 1.6-0.9 2.6-0.9 1-2.5 1-1.5 0-2.4-1-0.9-1-0.9-2.7zm1.9 0.2q0 1 0.4 1.5 0.3 0.5 1 0.5 0.7 0 1.1-0.5 0.4-0.5 0.4-1.7 0-0.9-0.4-1.5-0.4-0.5-1.1-0.5-0.7 0-1 0.5-0.4 0.6-0.4 1.7zm7.5-3.6l0.1 0.8q0.7-0.9 2-0.9 1.4 0 1.9 1 0.7-1 2.1-1 1.2 0 1.7 0.6 0.6 0.7 0.6 2v4.5h-1.9v-4.5q0-0.6-0.2-0.8-0.3-0.3-0.9-0.3-0.8 0-1.1 0.8v4.8h-1.9v-4.5q0-0.6-0.3-0.8-0.2-0.3-0.8-0.3-0.8 0-1.2 0.7v4.9h-1.9v-7zm16 3.6q0 1.6-0.7 2.6-0.8 1-2 1-1.1 0-1.7-0.8v3.3h-1.9v-9.7h1.7l0.1 0.7q0.7-0.8 1.8-0.8 1.3 0 2 0.9 0.7 1 0.7 2.7zm-1.8-0.2q0-0.9-0.4-1.5-0.4-0.5-1-0.5-0.9 0-1.2 0.7v2.9q0.3 0.6 1.2 0.6 1.4 0 1.4-2.2zm6.9 3.6q-0.1-0.2-0.2-0.6-0.6 0.8-1.7 0.8-1.1 0-1.8-0.6-0.6-0.6-0.6-1.5 0-1.2 0.8-1.8 0.8-0.6 2.4-0.6h0.9v-0.4q0-0.5-0.3-0.7-0.2-0.3-0.8-0.3-0.5 0-0.7 0.2-0.3 0.2-0.3 0.6h-1.9q0-0.6 0.4-1.1 0.4-0.5 1.1-0.8 0.7-0.3 1.5-0.3 1.3 0 2.1 0.6 0.8 0.7 0.8 1.9v3q0 1 0.2 1.5v0.1zm-1.5-1.3q0.4 0 0.8-0.2 0.3-0.1 0.5-0.5v-1.2h-0.7q-1.4 0-1.5 1v0.1q0 0.4 0.2 0.6 0.3 0.2 0.7 0.2zm6.6-5.7v0.8q0.8-0.9 2.1-0.9 1.1 0 1.6 0.6 0.6 0.7 0.6 2v4.5h-1.9v-4.5q0-0.6-0.3-0.8-0.2-0.3-0.8-0.3-0.8 0-1.2 0.7v4.9h-1.9v-7zm8.3 4.4l1.3-4.4h2l-2.9 8.1-0.1 0.4q-0.6 1.4-2.1 1.4-0.4 0-0.8-0.2v-1.4h0.2q0.6 0 0.8-0.1 0.3-0.2 0.5-0.6l0.2-0.6-2.5-7h2zm11.1 0.3l2.2-7.1h2.1l-3.3 9.5h-2l-3.3-9.5h2.1zm9.2 2.4q-0.1-0.3-0.2-0.7-0.7 0.8-1.8 0.8-1 0-1.7-0.6-0.7-0.6-0.7-1.5 0-1.1 0.9-1.7 0.8-0.6 2.4-0.6h0.8v-0.4q0-0.5-0.2-0.8-0.3-0.3-0.8-0.3-0.5 0-0.8 0.2-0.2 0.2-0.2 0.6h-1.9q0-0.6 0.4-1.1 0.3-0.5 1-0.8 0.7-0.3 1.6-0.3 1.3 0 2.1 0.6 0.7 0.7 0.7 1.9v3q0.1 1 0.3 1.5v0.2zm-1.5-1.4q0.4 0 0.7-0.1 0.4-0.2 0.6-0.5v-1.2h-0.7q-1.5 0-1.6 0.9v0.1q0 0.4 0.3 0.6 0.2 0.2 0.7 0.2zm6.8 1.4h-1.9v-10h1.9zm5.6-0.7q-0.7 0.8-2 0.8-1.1 0-1.7-0.6-0.6-0.7-0.6-1.9v-4.7h1.9v4.6q0 1.1 1 1.1 1 0 1.3-0.7v-5h1.9v7.1h-1.8zm7.3 0.7q-0.2-0.3-0.2-0.6-0.7 0.7-1.8 0.7-1 0-1.7-0.6-0.7-0.6-0.7-1.5 0-1.1 0.8-1.7 0.9-0.6 2.4-0.6h0.9v-0.4q0-0.5-0.2-0.8-0.3-0.3-0.8-0.3-0.5 0-0.8 0.3-0.3 0.2-0.3 0.6h-1.9q0-0.6 0.4-1.2 0.4-0.5 1.1-0.8 0.7-0.3 1.6-0.3 1.3 0 2 0.7 0.8 0.6 0.8 1.8v3.1q0 1 0.3 1.5v0.1zm-1.6-1.3q0.4 0 0.8-0.2 0.3-0.2 0.5-0.5v-1.2h-0.7q-1.4 0-1.5 1v0.1q0 0.3 0.2 0.6 0.3 0.2 0.7 0.2zm7.1-7.5v1.8h1.2v1.3h-1.2v3.6q0 0.3 0.2 0.5 0.1 0.2 0.5 0.2 0.4 0 0.6-0.1v1.5q-0.6 0.1-1.1 0.1-2 0-2.1-2v-3.8h-1v-1.3h1v-1.8zm4.4 8.8h-1.8v-7h1.8zm-2-8.9q0-0.4 0.3-0.7 0.3-0.2 0.8-0.2 0.5 0 0.8 0.2 0.3 0.3 0.3 0.7 0 0.4-0.3 0.7-0.3 0.3-0.8 0.3-0.5 0-0.8-0.3-0.3-0.3-0.3-0.7zm3.1 5.3q0-1.1 0.4-1.9 0.4-0.8 1.2-1.2 0.7-0.5 1.8-0.5 1.4 0 2.3 0.9 0.9 0.9 1 2.3v0.5q0 1.6-0.9 2.6-0.9 1-2.4 1-1.6 0-2.5-1-0.9-1-0.9-2.6zm1.9 0.1q0 1 0.4 1.5 0.4 0.6 1.1 0.6 0.7 0 1-0.6 0.4-0.5 0.4-1.6 0-1-0.4-1.6-0.3-0.5-1-0.5-0.7 0-1.1 0.5-0.4 0.6-0.4 1.7zm7.5-3.6l0.1 0.8q0.7-0.9 2-0.9 1.1 0 1.7 0.6 0.5 0.7 0.5 2v4.6h-1.8v-4.6q0-0.5-0.3-0.8-0.3-0.3-0.9-0.3-0.8 0-1.2 0.7v5h-1.9v-7.1z"/>
			<path id="Layer" fill-rule="evenodd" class="s0" d="m131.3 108.7h-2.7v1.5q0.1-0.1 0.4-0.1 1.3 0 2.1 0.7 0.6 0.6 0.6 1.7 0 1.2-0.8 2-0.8 0.6-1.8 0.6-1.5 0-2.6-1l0.7-1q0.9 0.7 1.7 0.7 1.2 0 1.2-1.2 0-1.2-1.6-1.2-0.5 0-1.5 0.2v-4.2h4.3zm4.3-1.4q1.4 0 2.2 1.3 0.7 1.1 0.7 2.7 0 1.8-0.9 2.9-0.8 1-2 1-1.5 0-2.3-1.3-0.6-1-0.6-2.6 0-1.8 0.9-3 0.8-1 2-1zm0 1.3q-1.3 0-1.3 2.6 0 1.3 0.4 2 0.3 0.7 0.9 0.7 0.6 0 0.9-0.7 0.4-0.8 0.4-2 0-2.6-1.3-2.6zm4.1 7.7l-0.4-0.7q0.5-0.2 0.5-0.6-0.5 0-0.5-0.6 0-0.4 0.2-0.6 0.2-0.2 0.6-0.2 0.4 0 0.6 0.3 0.3 0.2 0.3 0.7 0 0.6-0.4 1.1-0.3 0.5-0.9 0.6zm4.7-9q1.4 0 2.3 1.3 0.7 1.1 0.7 2.7 0 1.8-0.9 2.9-0.8 1-2.1 1-1.4 0-2.2-1.3-0.7-1-0.7-2.6 0-1.8 0.9-3 0.8-1 2-1zm0.1 1.3q-1.3 0-1.3 2.6 0 1.3 0.3 2 0.4 0.7 0.9 0.7 0.6 0 1-0.7 0.3-0.8 0.3-2 0-2.6-1.2-2.6zm6.7-1.3q1.4 0 2.2 1.3 0.7 1.1 0.7 2.7 0 1.8-0.9 2.9-0.8 1-2 1-1.4 0-2.2-1.3-0.7-1-0.7-2.6 0-1.8 0.9-3 0.8-1 2-1zm0 1.3q-1.3 0-1.3 2.6 0 1.3 0.4 2 0.3 0.7 0.9 0.7 0.6 0 0.9-0.7 0.4-0.8 0.4-2 0-2.6-1.3-2.6zm6.8-1.3q1.4 0 2.2 1.3 0.7 1.1 0.7 2.7 0 1.8-0.9 2.9-0.8 1-2 1-1.5 0-2.3-1.3-0.6-1-0.6-2.6 0-1.8 0.8-3 0.8-1 2.1-1zm0 1.3q-1.3 0-1.3 2.6 0 1.3 0.4 2 0.3 0.7 0.8 0.7 0.7 0 1-0.7 0.4-0.8 0.4-2 0-2.6-1.3-2.6zm4.1 7.7l-0.4-0.7q0.5-0.2 0.5-0.6-0.5 0-0.5-0.6 0-0.4 0.2-0.6 0.2-0.2 0.6-0.2 0.4 0 0.6 0.3 0.3 0.2 0.3 0.7 0 0.6-0.4 1.1-0.4 0.5-0.9 0.6zm4.7-9q1.4 0 2.3 1.3 0.7 1.1 0.7 2.7 0 1.8-0.9 2.9-0.8 1-2.1 1-1.4 0-2.2-1.3-0.7-1-0.7-2.6 0-1.8 0.9-3 0.8-1 2-1zm0.1 1.3q-1.3 0-1.3 2.6 0 1.3 0.3 2 0.4 0.7 0.9 0.7 0.6 0 1-0.7 0.3-0.8 0.3-2 0-2.6-1.2-2.6zm6.7-1.3q1.4 0 2.2 1.3 0.7 1.1 0.7 2.7 0 1.8-0.9 2.9-0.8 1-2 1-1.4 0-2.2-1.3-0.7-1-0.7-2.6 0-1.8 0.9-3 0.8-1 2-1zm0 1.3q-1.3 0-1.3 2.6 0 1.3 0.4 2 0.3 0.7 0.9 0.7 0.6 0 0.9-0.7 0.4-0.8 0.4-2 0-2.6-1.3-2.6zm6.8-1.3q1.3 0 2.2 1.3 0.7 1.1 0.7 2.7 0 1.8-0.9 2.9-0.8 1-2 1-1.5 0-2.3-1.3-0.6-1-0.6-2.6 0-1.8 0.8-3 0.8-1 2.1-1zm0 1.3q-1.3 0-1.3 2.6 0 1.3 0.4 2 0.3 0.7 0.8 0.7 0.7 0 1-0.7 0.4-0.8 0.4-2 0-2.6-1.3-2.6z"/>
			<path id="Layer" fill-rule="evenodd" class="s0" d="m244.5 82.7h-2.7v-1.3h4.4v1.2l-2.7 6.4h-1.7zm1.9 7.6l-0.4-0.7q0.5-0.2 0.5-0.6-0.6 0-0.6-0.6 0-0.4 0.3-0.6 0.2-0.3 0.6-0.3 0.3 0 0.6 0.3 0.2 0.3 0.2 0.8 0 0.6-0.3 1.1-0.4 0.5-0.9 0.6zm6.4-7.6h-2.7v1.5q0.1 0 0.4 0 1.3 0 2 0.6 0.7 0.7 0.7 1.8 0 1.1-0.8 1.9-0.8 0.7-1.9 0.7-1.4 0-2.5-1.1l0.7-1q0.9 0.7 1.7 0.7 1.2 0 1.2-1.1 0-1.3-1.6-1.3-0.5 0-1.5 0.2v-4.2h4.3zm4.3-1.4q1.4 0 2.2 1.4 0.7 1.1 0.7 2.6 0 1.8-0.9 2.9-0.8 1-2 1-1.5 0-2.3-1.3-0.6-1-0.6-2.6 0-1.8 0.8-2.9 0.8-1.1 2.1-1.1zm0 1.4q-1.3 0-1.3 2.5 0 1.3 0.4 2 0.3 0.7 0.8 0.7 0.7 0 1-0.7 0.4-0.7 0.4-2 0-2.5-1.3-2.5zm6.7-1.4q1.4 0 2.3 1.4 0.7 1.1 0.7 2.6 0 1.8-0.9 2.9-0.8 1-2.1 1-1.4 0-2.2-1.3-0.7-1-0.7-2.6 0-1.8 0.9-2.9 0.8-1.1 2-1.1zm0 1.4q-1.3 0-1.3 2.5 0 1.3 0.4 2 0.4 0.7 0.9 0.7 0.6 0 1-0.7 0.3-0.7 0.3-2 0-2.5-1.3-2.5zm4.2 7.6l-0.4-0.7q0.5-0.2 0.5-0.5-0.6 0-0.6-0.7 0-0.4 0.3-0.6 0.2-0.2 0.6-0.2 0.3 0 0.6 0.3 0.2 0.3 0.2 0.7 0 0.7-0.3 1.1-0.4 0.5-0.9 0.6zm4.7-9q1.4 0 2.2 1.4 0.7 1.1 0.7 2.6 0 1.8-0.9 2.9-0.8 1-2 1-1.4 0-2.2-1.3-0.7-1-0.7-2.6 0-1.8 0.9-2.9 0.8-1.1 2-1.1zm0 1.4q-1.3 0-1.3 2.5 0 1.3 0.4 2 0.3 0.7 0.9 0.7 0.6 0 0.9-0.7 0.4-0.7 0.4-2 0-2.5-1.3-2.5zm6.8-1.4q1.3 0 2.2 1.4 0.7 1.1 0.7 2.6 0 1.8-0.9 2.9-0.8 1-2 1-1.5 0-2.3-1.3-0.7-1-0.7-2.6 0-1.8 0.9-2.9 0.8-1.1 2.1-1.1zm0 1.4q-1.3 0-1.3 2.5 0 1.3 0.4 2 0.3 0.7 0.8 0.7 0.7 0 1-0.7 0.4-0.7 0.4-2 0-2.5-1.3-2.5zm6.7-1.4q1.4 0 2.2 1.4 0.8 1.1 0.8 2.6 0 1.8-0.9 2.9-0.8 1-2.1 1-1.4 0-2.2-1.3-0.7-1-0.7-2.6 0-1.8 0.9-2.9 0.8-1.1 2-1.1zm0 1.4q-1.3 0-1.3 2.5 0 1.3 0.4 2 0.4 0.7 0.9 0.7 0.6 0 1-0.7 0.3-0.7 0.3-2 0-2.5-1.3-2.5z"/>
			<path id="Layer" fill-rule="evenodd" class="s0" d="m266.5 99.4v7.6h-1.6v-5.8q-0.2 0.1-0.5 0.3-0.5 0.3-0.7 0.4-0.1-0.3-0.5-0.9l-0.1-0.1q0-0.1-0.1-0.2 0.4-0.3 1.2-0.8 0.5-0.3 0.7-0.5zm4.3-0.1q1.4 0 2.3 1.3 0.7 1.1 0.7 2.6 0 1.9-0.9 3-0.8 0.9-2.1 0.9-1.4 0-2.2-1.2-0.7-1.1-0.7-2.7 0-1.8 0.9-2.9 0.8-1 2-1zm0.1 1.3q-1.3 0-1.3 2.5 0 1.3 0.3 2.1 0.4 0.6 0.9 0.6 0.6 0 1-0.7 0.3-0.7 0.3-2 0-2.5-1.2-2.5zm4.1 7.7l-0.4-0.7q0.5-0.3 0.5-0.6-0.6 0-0.6-0.7 0-0.3 0.3-0.6 0.2-0.2 0.6-0.2 0.3 0 0.6 0.3 0.2 0.3 0.2 0.7 0 0.7-0.3 1.2-0.4 0.4-0.9 0.6zm4.7-9q1.4 0 2.2 1.3 0.7 1.1 0.7 2.6 0 1.9-0.9 3-0.8 0.9-2 0.9-1.4 0-2.2-1.2-0.7-1.1-0.7-2.7 0-1.8 0.9-2.9 0.8-1 2-1zm0 1.3q-1.3 0-1.3 2.5 0 1.3 0.4 2.1 0.3 0.6 0.9 0.6 0.6 0 0.9-0.7 0.4-0.7 0.4-2 0-2.5-1.3-2.5zm6.8-1.3q1.4 0 2.2 1.3 0.7 1.1 0.7 2.6 0 1.9-0.9 3-0.8 0.9-2 0.9-1.5 0-2.3-1.2-0.6-1.1-0.6-2.7 0-1.8 0.8-2.9 0.8-1 2.1-1zm0 1.3q-1.3 0-1.3 2.5 0 1.3 0.4 2.1 0.3 0.6 0.8 0.6 0.7 0 1-0.7 0.4-0.7 0.4-2 0-2.5-1.3-2.5zm6.7-1.3q1.4 0 2.3 1.3 0.7 1.1 0.7 2.6 0 1.9-0.9 3-0.8 0.9-2.1 0.9-1.4 0-2.2-1.2-0.7-1.1-0.7-2.7 0-1.8 0.9-2.9 0.8-1 2-1zm0 1.3q-1.3 0-1.2 2.5 0 1.3 0.3 2.1 0.4 0.6 0.9 0.6 0.6 0 1-0.7 0.3-0.7 0.3-2 0-2.5-1.3-2.5zm4.2 7.7l-0.4-0.7q0.5-0.3 0.5-0.6-0.6 0-0.6-0.7 0-0.3 0.3-0.6 0.2-0.2 0.6-0.2 0.3 0 0.6 0.3 0.2 0.3 0.2 0.7 0 0.7-0.3 1.2-0.4 0.4-0.9 0.6zm4.7-9q1.4 0 2.2 1.3 0.7 1.1 0.7 2.6 0 1.9-0.9 3-0.8 0.9-2 0.9-1.4 0-2.2-1.2-0.7-1.1-0.7-2.7 0-1.8 0.9-2.9 0.8-1 2-1zm0 1.3q-1.3 0-1.3 2.5 0 1.3 0.4 2.1 0.3 0.6 0.9 0.6 0.6 0 0.9-0.7 0.4-0.7 0.4-2 0-2.5-1.3-2.5zm6.8-1.3q1.3 0 2.2 1.3 0.7 1.1 0.7 2.6 0 1.9-0.9 3-0.8 0.9-2 0.9-1.5 0-2.3-1.2-0.6-1.1-0.6-2.7 0-1.8 0.8-2.9 0.8-1 2.1-1zm0 1.3q-1.3 0-1.3 2.5 0 1.3 0.4 2.1 0.3 0.6 0.8 0.6 0.7 0 1-0.7 0.4-0.7 0.4-2 0-2.5-1.3-2.5zm6.7-1.3q1.4 0 2.2 1.3 0.8 1.1 0.8 2.6 0 1.9-0.9 3-0.8 0.9-2.1 0.9-1.4 0-2.2-1.2-0.7-1.1-0.7-2.7 0-1.8 0.9-2.9 0.8-1 2-1zm0 1.3q-1.3 0-1.3 2.5 0 1.3 0.4 2.1 0.4 0.6 0.9 0.6 0.6 0 1-0.7 0.3-0.7 0.3-2 0-2.5-1.3-2.5z"/>
			<path id="Layer" fill-rule="evenodd" class="s0" d="m296.9 124.4v7.6h-1.6v-5.8q-0.2 0.1-0.5 0.3-0.5 0.3-0.7 0.4-0.1-0.3-0.5-0.9l-0.1-0.1q0-0.1-0.1-0.2 0.4-0.3 1.2-0.8 0.5-0.3 0.7-0.5zm6 1.3h-2.7v1.5q0.2-0.1 0.4-0.1 1.3 0 2.1 0.7 0.7 0.6 0.7 1.7 0 1.2-0.9 2-0.7 0.6-1.8 0.6-1.5 0-2.5-1l0.6-1q0.9 0.7 1.7 0.7 1.3 0 1.3-1.2 0-1.2-1.7-1.2-0.5 0-1.4 0.2v-4.2h4.2zm1.7 7.6l-0.4-0.7q0.5-0.2 0.5-0.6-0.6 0-0.6-0.6 0-0.4 0.3-0.6 0.2-0.2 0.6-0.2 0.3 0 0.6 0.3 0.2 0.2 0.2 0.7 0 0.6-0.3 1.1-0.4 0.5-0.9 0.6zm4.7-9q1.4 0 2.2 1.3 0.7 1.1 0.7 2.7 0 1.8-0.9 2.9-0.8 1-2 1-1.4 0-2.2-1.3-0.7-1-0.7-2.6 0-1.8 0.9-3 0.8-1 2-1zm0 1.3q-1.3 0-1.3 2.6 0 1.3 0.4 2 0.3 0.7 0.9 0.7 0.6 0 0.9-0.7 0.4-0.8 0.4-2 0-2.6-1.3-2.6zm6.8-1.3q1.4 0 2.2 1.3 0.7 1.1 0.7 2.7 0 1.8-0.9 2.9-0.8 1-2 1-1.5 0-2.3-1.3-0.6-1-0.6-2.6 0-1.8 0.8-3 0.9-1 2.1-1zm0 1.3q-1.3 0-1.3 2.6 0 1.3 0.4 2 0.3 0.7 0.9 0.7 0.6 0 0.9-0.7 0.4-0.8 0.4-2 0-2.6-1.3-2.6zm6.7-1.3q1.4 0 2.3 1.3 0.7 1.1 0.7 2.7 0 1.8-0.9 2.9-0.8 1-2.1 1-1.4 0-2.2-1.3-0.7-1-0.7-2.6 0-1.8 0.9-3 0.8-1 2-1zm0 1.3q-1.2 0-1.2 2.6 0 1.3 0.3 2 0.4 0.7 0.9 0.7 0.6 0 1-0.7 0.3-0.8 0.3-2 0-2.6-1.3-2.6zm4.2 7.7l-0.4-0.7q0.5-0.2 0.5-0.6-0.6 0-0.6-0.6 0-0.4 0.3-0.6 0.2-0.2 0.6-0.2 0.3 0 0.6 0.3 0.2 0.2 0.2 0.7 0 0.6-0.3 1.1-0.4 0.5-0.9 0.6zm4.7-9q1.4 0 2.2 1.3 0.7 1.1 0.7 2.7 0 1.8-0.9 2.9-0.8 1-2 1-1.4 0-2.2-1.3-0.7-1-0.7-2.6 0-1.8 0.9-3 0.8-1 2-1zm0 1.3q-1.3 0-1.3 2.6 0 1.3 0.4 2 0.3 0.7 0.9 0.7 0.6 0 0.9-0.7 0.4-0.8 0.4-2 0-2.6-1.3-2.6zm6.8-1.3q1.3 0 2.2 1.3 0.7 1.1 0.7 2.7 0 1.8-0.9 2.9-0.8 1-2 1-1.5 0-2.3-1.3-0.6-1-0.6-2.6 0-1.8 0.8-3 0.8-1 2.1-1zm0 1.3q-1.3 0-1.3 2.6 0 1.3 0.4 2 0.3 0.7 0.8 0.7 0.7 0 1-0.7 0.4-0.8 0.4-2 0-2.6-1.3-2.6zm6.7-1.3q1.4 0 2.3 1.3 0.7 1.1 0.7 2.7 0 1.8-0.9 2.9-0.8 1-2.1 1-1.4 0-2.2-1.3-0.7-1-0.7-2.6 0-1.8 0.9-3 0.8-1 2-1zm0 1.3q-1.3 0-1.3 2.6 0 1.3 0.4 2 0.4 0.7 0.9 0.7 0.6 0 1-0.7 0.3-0.8 0.3-2 0-2.6-1.3-2.6z"/>
			<path id="Layer" fill-rule="evenodd" class="s0" d="m281.8 184v-1.3q0.3-0.4 0.8-0.9 0.7-0.8 1.1-1.3 0.8-0.9 1-1.3 0.2-0.3 0.2-0.8 0-0.3-0.3-0.6-0.2-0.2-0.6-0.2-0.7 0-1.6 0.6l-0.7-1q1.2-1 2.6-1 1 0 1.6 0.6 0.6 0.6 0.6 1.5 0 0.8-0.4 1.5-0.5 0.8-1.9 2.4-0.3 0.4-0.5 0.5h2.8v1.3zm10.1-6.3h-2.7v1.5q0.2-0.1 0.4-0.1 1.3 0 2.1 0.7 0.7 0.6 0.7 1.7 0 1.2-0.9 2-0.7 0.6-1.8 0.6-1.5 0-2.5-1l0.6-1q0.9 0.7 1.7 0.7 1.3 0 1.3-1.2 0-1.2-1.7-1.2-0.5 0-1.4 0.2v-4.2h4.2zm1.7 7.6l-0.4-0.7q0.5-0.2 0.5-0.6-0.6 0-0.6-0.6 0-0.4 0.3-0.6 0.2-0.2 0.6-0.2 0.3 0 0.6 0.3 0.2 0.2 0.2 0.7 0 0.6-0.3 1.1-0.4 0.5-0.9 0.6zm4.7-9q1.4 0 2.2 1.3 0.7 1.1 0.7 2.7 0 1.8-0.9 2.9-0.8 1-2 1-1.4 0-2.2-1.3-0.7-1-0.7-2.6 0-1.8 0.9-3 0.8-1 2-1zm0 1.3q-1.3 0-1.3 2.6 0 1.3 0.4 2 0.3 0.7 0.9 0.7 0.6 0 0.9-0.7 0.4-0.8 0.4-2 0-2.6-1.3-2.6zm6.8-1.3q1.3 0 2.2 1.3 0.7 1.1 0.7 2.7 0 1.8-0.9 2.9-0.8 1-2 1-1.5 0-2.3-1.3-0.6-1-0.6-2.6 0-1.8 0.8-3 0.8-1 2.1-1zm0 1.3q-1.3 0-1.3 2.6 0 1.3 0.4 2 0.3 0.7 0.8 0.7 0.7 0 1-0.7 0.4-0.8 0.4-2 0-2.6-1.3-2.6zm6.7-1.3q1.4 0 2.3 1.3 0.7 1.1 0.7 2.7 0 1.8-0.9 2.9-0.8 1-2.1 1-1.4 0-2.2-1.3-0.7-1-0.7-2.6 0-1.8 0.9-3 0.8-1 2-1zm0 1.3q-1.3 0-1.3 2.6 0 1.3 0.4 2 0.4 0.7 0.9 0.7 0.6 0 1-0.7 0.3-0.8 0.3-2 0-2.6-1.3-2.6zm4.2 7.7l-0.4-0.7q0.5-0.2 0.5-0.6-0.6 0-0.6-0.6 0-0.4 0.2-0.6 0.3-0.2 0.7-0.2 0.3 0 0.6 0.3 0.2 0.2 0.2 0.7 0 0.6-0.3 1.1-0.4 0.5-0.9 0.6zm4.7-9q1.4 0 2.2 1.3 0.7 1.1 0.7 2.7 0 1.8-0.9 2.9-0.8 1-2 1-1.4 0-2.2-1.3-0.7-1-0.7-2.6 0-1.8 0.9-3 0.8-1 2-1zm0 1.3q-1.3 0-1.3 2.6 0 1.3 0.4 2 0.3 0.7 0.9 0.7 0.6 0 0.9-0.7 0.4-0.8 0.4-2 0-2.6-1.3-2.6zm6.8-1.3q1.3 0 2.2 1.3 0.7 1.1 0.7 2.7 0 1.8-0.9 2.9-0.8 1-2 1-1.5 0-2.3-1.3-0.7-1-0.7-2.6 0-1.8 0.9-3 0.8-1 2.1-1zm0 1.3q-1.3 0-1.3 2.6 0 1.3 0.4 2 0.3 0.7 0.8 0.7 0.7 0 1-0.7 0.4-0.8 0.4-2 0-2.6-1.3-2.6zm6.7-1.3q1.4 0 2.2 1.3 0.8 1.1 0.8 2.7 0 1.8-0.9 2.9-0.8 1-2.1 1-1.4 0-2.2-1.3-0.7-1-0.7-2.6 0-1.8 0.9-3 0.8-1 2-1zm0 1.3q-1.3 0-1.3 2.6 0 1.3 0.4 2 0.4 0.7 0.9 0.7 0.6 0 1-0.7 0.3-0.8 0.3-2 0-2.6-1.3-2.6z"/>
			<path id="Layer" fill-rule="evenodd" class="s0" d="m176.1 207.6h-1.1v-1.3h1.1q0.5 0 0.7-0.1 0.3-0.2 0.3-0.7 0-0.4-0.3-0.7-0.2-0.2-0.6-0.2-0.7 0-1.5 0.6l-0.6-1q1-0.9 2.2-0.9 1.1 0 1.8 0.5 0.6 0.6 0.6 1.5 0 1.2-0.9 1.5 1.2 0.5 1.2 1.8 0 1.5-1 2.1-0.6 0.4-1.6 0.4-0.6 0-1.3-0.3-0.7-0.3-1.1-0.7l0.6-0.9q0.6 0.6 1.6 0.6 0.6 0 0.9-0.3 0.3-0.3 0.3-0.8 0-1.1-1.3-1.1zm6.4-2.9h-2.8v-1.3h4.5v1.2l-2.8 6.4h-1.6zm1.8 7.6l-0.4-0.7q0.6-0.2 0.6-0.6-0.6 0-0.6-0.6 0-0.4 0.2-0.6 0.3-0.3 0.6-0.3 0.4 0 0.6 0.3 0.3 0.3 0.3 0.8 0 0.6-0.4 1.1-0.3 0.5-0.9 0.6zm6.4-7.6h-2.6v1.5q0.1 0 0.4 0 1.3 0 2 0.6 0.7 0.7 0.7 1.8 0 1.1-0.9 1.9-0.7 0.7-1.8 0.7-1.4 0-2.5-1.1l0.6-1q0.9 0.7 1.7 0.7 1.3 0 1.3-1.1 0-1.3-1.6-1.3-0.6 0-1.5 0.2v-4.2h4.2zm4.3-1.4q1.4 0 2.3 1.4 0.7 1.1 0.7 2.6 0 1.8-0.9 2.9-0.8 1-2.1 1-1.4 0-2.2-1.3-0.7-1-0.7-2.6 0-1.8 0.9-2.9 0.8-1.1 2-1.1zm0 1.4q-1.3 0-1.3 2.5 0 1.3 0.4 2 0.4 0.7 0.9 0.7 0.6 0 1-0.7 0.3-0.7 0.3-2 0-2.5-1.3-2.5zm6.8-1.4q1.4 0 2.2 1.4 0.7 1.1 0.7 2.6 0 1.8-0.9 2.9-0.8 1-2 1-1.4 0-2.3-1.3-0.6-1-0.6-2.6 0-1.8 0.9-2.9 0.8-1.1 2-1.1zm0 1.4q-1.3 0-1.3 2.5 0 1.3 0.4 2 0.3 0.7 0.9 0.7 0.6 0 0.9-0.7 0.4-0.7 0.4-2 0-2.5-1.3-2.5zm4.1 7.6l-0.4-0.7q0.6-0.2 0.6-0.5-0.6 0-0.6-0.7 0-0.4 0.2-0.6 0.2-0.2 0.6-0.2 0.4 0 0.6 0.3 0.3 0.3 0.3 0.7 0 0.7-0.4 1.1-0.3 0.5-0.9 0.6zm4.8-9q1.3 0 2.2 1.4 0.7 1.1 0.7 2.6 0 1.8-0.9 2.9-0.8 1-2 1-1.5 0-2.3-1.3-0.7-1-0.7-2.6 0-1.8 0.9-2.9 0.8-1.1 2.1-1.1zm0 1.4q-1.3 0-1.3 2.5 0 1.3 0.4 2 0.3 0.7 0.8 0.7 0.7 0 1-0.7 0.4-0.7 0.4-2 0-2.5-1.3-2.5zm6.7-1.4q1.4 0 2.2 1.4 0.8 1.1 0.8 2.6 0 1.8-0.9 2.9-0.8 1-2.1 1-1.4 0-2.2-1.3-0.7-1-0.7-2.6 0-1.8 0.9-2.9 0.8-1.1 2-1.1zm0 1.4q-1.3 0-1.3 2.5 0 1.3 0.4 2 0.3 0.7 0.9 0.7 0.6 0 1-0.7 0.3-0.7 0.3-2 0-2.5-1.3-2.5zm6.8-1.4q1.4 0 2.2 1.4 0.7 1.1 0.7 2.6 0 1.8-0.9 2.9-0.8 1-2 1-1.5 0-2.3-1.3-0.6-1-0.6-2.6 0-1.8 0.9-2.9 0.8-1.1 2-1.1zm0 1.4q-1.3 0-1.3 2.5 0 1.3 0.4 2 0.3 0.7 0.9 0.7 0.6 0 0.9-0.7 0.4-0.7 0.4-2 0-2.5-1.3-2.5z"/>
		</g>
	</g>
</svg>