<svg width="74" height="89" viewBox="0 0 74 89" fill="none" xmlns="http://www.w3.org/2000/svg">
<rect y="28" width="70" height="61" rx="10" fill="#838086"/>
<rect width="49" height="46" rx="10" fill="#838086"/>
<path d="M44 0L69.9808 34.5H18.0192L44 0Z" fill="#838086"/>
<path d="M22.354 67L14.0302 37.9091H20.7489L25.5643 58.1222H25.8058L31.1183 37.9091H36.8711L42.1694 58.1648H42.4251L47.2404 37.9091H53.9592L45.6353 67H39.641L34.1012 47.9801H33.8739L28.3484 67H22.354Z" fill="#585353"/>
<rect y="28" width="70" height="61" rx="10" fill="#838086"/>
<rect width="49" height="46" rx="10" fill="#838086"/>
<path d="M44 0L69.9808 34.5H18.0192L44 0Z" fill="#838086"/>
<path d="M22.354 67L14.0302 37.9091H20.7489L25.5643 58.1222H25.8058L31.1183 37.9091H36.8711L42.1694 58.1648H42.4251L47.2404 37.9091H53.9592L45.6353 67H39.641L34.1012 47.9801H33.8739L28.3484 67H22.354Z" fill="#585353"/>
</svg>
