<svg width="25" height="33" viewBox="0 0 25 33" fill="none" xmlns="http://www.w3.org/2000/svg">
<path d="M5 0.5H20C22.4853 0.5 24.5 2.51472 24.5 5V28C24.5 30.4853 22.4853 32.5 20 32.5H5C2.51472 32.5 0.5 30.4853 0.5 28V5C0.5 2.51472 2.51472 0.5 5 0.5Z" stroke="url(#paint0_linear_1515_34)"/>
<line x1="5" y1="6.5" x2="20" y2="6.5" stroke="url(#paint1_linear_1515_34)"/>
<line x1="11" y1="13.5" x2="14" y2="13.5" stroke="url(#paint2_linear_1515_34)"/>
<line x1="11" y1="23.5" x2="14" y2="23.5" stroke="url(#paint3_linear_1515_34)"/>
<line x1="11" y1="18.5" x2="14" y2="18.5" stroke="url(#paint4_linear_1515_34)"/>
<defs>
<linearGradient id="paint0_linear_1515_34" x1="-1.5" y1="-2.05656e-07" x2="23.5" y2="33" gradientUnits="userSpaceOnUse">
<stop offset="0.078125" stop-color="#00D0FE"/>
<stop offset="0.5" stop-color="#4642F5"/>
<stop offset="0.854167" stop-color="#C97AF9"/>
</linearGradient>
<linearGradient id="paint1_linear_1515_34" x1="20" y1="8.00001" x2="5.5" y2="8" gradientUnits="userSpaceOnUse">
<stop stop-color="#00F0FF"/>
<stop offset="0.53125" stop-color="#DB00FF"/>
<stop offset="1" stop-color="#1400FF"/>
</linearGradient>
<linearGradient id="paint2_linear_1515_34" x1="14" y1="15" x2="11.1" y2="15" gradientUnits="userSpaceOnUse">
<stop stop-color="#00F0FF"/>
<stop offset="0.53125" stop-color="#DB00FF"/>
<stop offset="1" stop-color="#1400FF"/>
</linearGradient>
<linearGradient id="paint3_linear_1515_34" x1="14" y1="25" x2="11.1" y2="25" gradientUnits="userSpaceOnUse">
<stop stop-color="#00F0FF"/>
<stop offset="0.53125" stop-color="#DB00FF"/>
<stop offset="1" stop-color="#1400FF"/>
</linearGradient>
<linearGradient id="paint4_linear_1515_34" x1="14" y1="20" x2="11.1" y2="20" gradientUnits="userSpaceOnUse">
<stop stop-color="#00F0FF"/>
<stop offset="0.53125" stop-color="#DB00FF"/>
<stop offset="1" stop-color="#1400FF"/>
</linearGradient>
</defs>
</svg>
