<svg width="29" height="32" viewBox="0 0 29 32" fill="none" xmlns="http://www.w3.org/2000/svg">
<circle cx="14.5" cy="15.5" r="14" fill="#D9D9D9" fill-opacity="0.1" stroke="white"/>
<path d="M15.873 1.21484V5.68262H13.6758V1.21484H15.873ZM15.6094 25.1357V29.0469H13.4268V25.1357H15.6094ZM18.5391 20.5068C18.5391 19.9209 18.4072 19.3936 18.1436 18.9248C17.8799 18.4561 17.4453 18.0264 16.8398 17.6357C16.2344 17.2451 15.4238 16.8838 14.4082 16.5518C13.1777 16.1709 12.1133 15.707 11.2148 15.1602C10.3262 14.6133 9.6377 13.9346 9.14941 13.124C8.6709 12.3135 8.43164 11.332 8.43164 10.1797C8.43164 8.97852 8.69043 7.94336 9.20801 7.07422C9.72559 6.20508 10.458 5.53613 11.4053 5.06738C12.3525 4.59863 13.4658 4.36426 14.7451 4.36426C15.7412 4.36426 16.6299 4.51562 17.4111 4.81836C18.1924 5.11133 18.8516 5.55078 19.3887 6.13672C19.9355 6.72266 20.3506 7.44043 20.6338 8.29004C20.9268 9.13965 21.0732 10.1211 21.0732 11.2344H18.3779C18.3779 10.5801 18.2998 9.97949 18.1436 9.43262C17.9873 8.88574 17.7529 8.41211 17.4404 8.01172C17.1279 7.60156 16.7471 7.28906 16.2979 7.07422C15.8486 6.84961 15.3311 6.7373 14.7451 6.7373C13.9248 6.7373 13.2461 6.87891 12.709 7.16211C12.1816 7.44531 11.791 7.8457 11.5371 8.36328C11.2832 8.87109 11.1562 9.46191 11.1562 10.1357C11.1562 10.7607 11.2832 11.3076 11.5371 11.7764C11.791 12.2451 12.2207 12.6699 12.8262 13.0508C13.4414 13.4219 14.2861 13.7881 15.3604 14.1494C16.6201 14.5498 17.6895 15.0234 18.5684 15.5703C19.4473 16.1074 20.1162 16.7715 20.5752 17.5625C21.0342 18.3438 21.2637 19.3154 21.2637 20.4775C21.2637 21.7373 20.9805 22.8018 20.4141 23.6709C19.8477 24.5303 19.0518 25.1846 18.0264 25.6338C17.001 26.083 15.7998 26.3076 14.4229 26.3076C13.5928 26.3076 12.7725 26.1953 11.9619 25.9707C11.1514 25.7461 10.4189 25.3799 9.76465 24.8721C9.11035 24.3545 8.58789 23.6758 8.19727 22.8359C7.80664 21.9863 7.61133 20.9463 7.61133 19.7158H10.3359C10.3359 20.5459 10.4531 21.2344 10.6875 21.7812C10.9316 22.3184 11.2539 22.748 11.6543 23.0703C12.0547 23.3828 12.4941 23.6074 12.9727 23.7441C13.4609 23.8711 13.9443 23.9346 14.4229 23.9346C15.3018 23.9346 16.0439 23.7979 16.6494 23.5244C17.2646 23.2412 17.7334 22.8408 18.0557 22.3232C18.3779 21.8057 18.5391 21.2002 18.5391 20.5068Z" fill="white"/>
</svg>
