<svg width="25" height="23" viewBox="0 0 25 23" fill="none" xmlns="http://www.w3.org/2000/svg">
<path d="M12.5 10C12.5 13.0006 9.85214 15.5 6.5 15.5C3.14786 15.5 0.5 13.0006 0.5 10C0.5 6.99936 3.14786 4.5 6.5 4.5C9.85214 4.5 12.5 6.99936 12.5 10Z" stroke="white"/>
<circle cx="12" cy="6" r="5.5" stroke="white"/>
<circle cx="9" cy="17" r="5.5" stroke="white"/>
<path d="M24.5 10C24.5 13.0006 21.8521 15.5 18.5 15.5C15.1479 15.5 12.5 13.0006 12.5 10C12.5 6.99936 15.1479 4.5 18.5 4.5C21.8521 4.5 24.5 6.99936 24.5 10Z" stroke="white"/>
<circle cx="15" cy="17" r="5.5" stroke="white"/>
</svg>
