<svg width="586" height="224" viewBox="0 0 586 224" fill="none" xmlns="http://www.w3.org/2000/svg">
<path d="M494.468 205.404V213H492.896V207.192C492.784 207.264 492.62 207.364 492.404 207.492C492.092 207.676 491.868 207.816 491.732 207.912C491.628 207.736 491.452 207.444 491.204 207.036L491.132 206.928C491.076 206.824 491.032 206.748 491 206.7C491.256 206.516 491.66 206.24 492.212 205.872C492.5 205.68 492.728 205.524 492.896 205.404H494.468ZM498.898 205.404V213H497.326V207.192C497.214 207.264 497.05 207.364 496.834 207.492C496.522 207.676 496.298 207.816 496.162 207.912C496.058 207.736 495.882 207.444 495.634 207.036L495.562 206.928C495.506 206.824 495.462 206.748 495.43 206.7C495.686 206.516 496.09 206.24 496.642 205.872C496.93 205.68 497.158 205.524 497.326 205.404H498.898ZM502.727 212.172C502.727 212.18 502.727 212.188 502.727 212.196C502.727 212.452 502.647 212.66 502.487 212.82C502.327 212.98 502.115 213.06 501.851 213.06C501.579 213.06 501.359 212.98 501.191 212.82C501.031 212.652 500.951 212.432 500.951 212.16V212.136C500.967 211.888 501.055 211.688 501.215 211.536C501.383 211.384 501.595 211.308 501.851 211.308C502.115 211.308 502.327 211.388 502.487 211.548C502.647 211.708 502.727 211.916 502.727 212.172ZM507.157 205.26C508.085 205.26 508.829 205.704 509.389 206.592C509.861 207.328 510.097 208.204 510.097 209.22C510.097 210.444 509.797 211.424 509.197 212.16C508.669 212.816 507.989 213.144 507.157 213.144C506.205 213.144 505.461 212.72 504.925 211.872C504.477 211.168 504.253 210.284 504.253 209.22C504.253 208.036 504.549 207.064 505.141 206.304C505.677 205.608 506.349 205.26 507.157 205.26ZM507.181 206.604C506.317 206.604 505.885 207.452 505.885 209.148C505.885 210.004 506.009 210.676 506.257 211.164C506.481 211.604 506.777 211.824 507.145 211.824C507.553 211.824 507.873 211.588 508.105 211.116C508.345 210.636 508.465 209.98 508.465 209.148C508.465 207.452 508.037 206.604 507.181 206.604ZM513.919 205.26C514.847 205.26 515.591 205.704 516.151 206.592C516.623 207.328 516.859 208.204 516.859 209.22C516.859 210.444 516.559 211.424 515.959 212.16C515.431 212.816 514.751 213.144 513.919 213.144C512.967 213.144 512.223 212.72 511.687 211.872C511.239 211.168 511.015 210.284 511.015 209.22C511.015 208.036 511.311 207.064 511.903 206.304C512.439 205.608 513.111 205.26 513.919 205.26ZM513.943 206.604C513.079 206.604 512.647 207.452 512.647 209.148C512.647 210.004 512.771 210.676 513.019 211.164C513.243 211.604 513.539 211.824 513.907 211.824C514.315 211.824 514.635 211.588 514.867 211.116C515.107 210.636 515.227 209.98 515.227 209.148C515.227 207.452 514.799 206.604 513.943 206.604ZM520.176 205.404H521.496L524.292 213H522.696C522.56 212.6 522.392 212.072 522.192 211.416H519.468C519.356 211.776 519.184 212.304 518.952 213H517.38L520.176 205.404ZM520.848 207.456C520.624 208.088 520.316 208.976 519.924 210.12H521.748C521.372 209.016 521.072 208.128 520.848 207.456ZM529.356 211.2C529.804 209.56 530.404 207.628 531.156 205.404H533.436V213H531.852V206.832C531.476 208.456 530.86 210.512 530.004 213H528.696C527.792 210.256 527.18 208.22 526.86 206.892V213H525.312V205.404H527.496C528.248 207.452 528.868 209.384 529.356 211.2Z" fill="white"/>
<path d="M430.004 198.2C430.452 196.56 431.052 194.628 431.804 192.404H434.084V200H432.5V193.832C432.124 195.456 431.508 197.512 430.652 200H429.344C428.44 197.256 427.828 195.22 427.508 193.892V200H425.96V192.404H428.144C428.896 194.452 429.516 196.384 430.004 198.2ZM438.211 194.408C439.107 194.408 439.803 194.724 440.299 195.356C440.715 195.884 440.923 196.528 440.923 197.288C440.923 198.176 440.615 198.896 439.999 199.448C439.487 199.912 438.891 200.144 438.211 200.144C437.419 200.144 436.755 199.848 436.219 199.256C435.739 198.72 435.499 198.064 435.499 197.288C435.499 196.408 435.767 195.696 436.303 195.152C436.791 194.656 437.427 194.408 438.211 194.408ZM438.211 199.016C438.987 199.016 439.375 198.44 439.375 197.288C439.375 196.088 438.987 195.488 438.211 195.488C437.435 195.488 437.047 196.088 437.047 197.288C437.047 198.44 437.435 199.016 438.211 199.016ZM443.663 195.08C443.823 194.896 444.063 194.74 444.383 194.612C444.703 194.476 445.007 194.408 445.295 194.408C445.983 194.408 446.479 194.596 446.783 194.972C447.095 195.348 447.251 195.956 447.251 196.796V200H445.727V196.856C445.727 196.072 445.379 195.68 444.683 195.68C444.507 195.68 444.319 195.72 444.119 195.8C443.919 195.872 443.783 195.956 443.711 196.052V200H442.199V194.552H443.483C443.523 194.76 443.563 194.936 443.603 195.08H443.663ZM452.708 200L452.492 199.424C452.364 199.632 452.156 199.804 451.868 199.94C451.58 200.076 451.284 200.144 450.98 200.144C450.124 200.144 449.472 199.86 449.024 199.292C448.648 198.82 448.46 198.212 448.46 197.468C448.46 196.42 448.764 195.612 449.372 195.044C449.828 194.62 450.376 194.408 451.016 194.408C451.568 194.408 452.032 194.56 452.408 194.864V193.124L453.92 192.284V200H452.708ZM452.408 197.924V196.4C452.352 196.136 452.224 195.92 452.024 195.752C451.832 195.576 451.604 195.488 451.34 195.488C450.932 195.488 450.608 195.648 450.368 195.968C450.128 196.288 450.008 196.72 450.008 197.264C450.008 198.456 450.396 199.052 451.172 199.052C451.46 199.052 451.728 198.94 451.976 198.716C452.224 198.484 452.368 198.22 452.408 197.924ZM459.938 200H458.726L458.606 199.484C458.078 199.924 457.542 200.144 456.998 200.144C455.79 200.144 455.186 199.556 455.186 198.38C455.186 197.796 455.438 197.34 455.942 197.012C456.454 196.676 457.21 196.508 458.21 196.508H458.462V196.484C458.462 196.14 458.39 195.904 458.246 195.776C458.102 195.648 457.842 195.584 457.466 195.584C456.938 195.584 456.454 195.752 456.014 196.088C455.87 195.824 455.734 195.564 455.606 195.308C456.062 194.956 456.458 194.72 456.794 194.6C457.138 194.472 457.546 194.408 458.018 194.408C459.298 194.408 459.938 195.208 459.938 196.808V200ZM458.414 197.432H458.234C457.778 197.432 457.41 197.512 457.13 197.672C456.85 197.832 456.71 198.044 456.71 198.308C456.71 198.804 456.926 199.052 457.358 199.052C457.622 199.052 457.854 198.976 458.054 198.824C458.254 198.672 458.374 198.48 458.414 198.248V197.432ZM466.562 194.552C466.242 195.448 465.802 196.652 465.242 198.164C464.834 199.292 464.514 200.168 464.282 200.792C463.906 201.792 463.378 202.292 462.698 202.292C462.17 202.292 461.626 202.064 461.066 201.608C461.226 201.336 461.362 201.096 461.474 200.888C461.77 201.08 462.03 201.176 462.254 201.176C462.582 201.176 462.874 200.784 463.13 200H462.842L460.934 194.552H462.434C462.522 194.816 462.658 195.228 462.842 195.788L462.914 195.98C463.258 197.02 463.506 197.784 463.658 198.272L465.05 194.552H466.562ZM473.093 192.404V200H471.521V194.192C471.409 194.264 471.245 194.364 471.029 194.492C470.717 194.676 470.493 194.816 470.357 194.912C470.253 194.736 470.077 194.444 469.829 194.036L469.757 193.928C469.701 193.824 469.657 193.748 469.625 193.7C469.881 193.516 470.285 193.24 470.837 192.872C471.125 192.68 471.353 192.524 471.521 192.404H473.093ZM479.071 193.664H476.419V195.2C476.515 195.16 476.647 195.14 476.815 195.14C477.695 195.14 478.379 195.36 478.867 195.8C479.331 196.224 479.563 196.804 479.563 197.54C479.563 198.316 479.275 198.96 478.699 199.472C478.195 199.92 477.583 200.144 476.863 200.144C475.903 200.144 475.067 199.796 474.355 199.1L475.003 198.104C475.587 198.544 476.151 198.764 476.695 198.764C477.535 198.764 477.955 198.388 477.955 197.636C477.955 196.796 477.415 196.376 476.335 196.376C475.959 196.376 475.467 196.444 474.859 196.58V192.404H479.071V193.664ZM484.016 195.872C483.624 195.616 483.176 195.488 482.672 195.488C482.288 195.488 482.096 195.652 482.096 195.98C482.096 196.284 482.356 196.5 482.876 196.628C483.524 196.788 483.964 196.968 484.196 197.168C484.532 197.456 484.7 197.888 484.7 198.464C484.7 198.976 484.516 199.384 484.148 199.688C483.788 199.992 483.3 200.144 482.684 200.144C481.812 200.144 481.076 199.896 480.476 199.4L481.028 198.56C481.444 198.888 481.944 199.052 482.528 199.052C482.76 199.052 482.948 198.996 483.092 198.884C483.236 198.772 483.308 198.624 483.308 198.44C483.308 198.104 483.024 197.884 482.456 197.78C481.24 197.548 480.632 196.956 480.632 196.004C480.632 195.548 480.816 195.168 481.184 194.864C481.56 194.56 482.028 194.408 482.588 194.408C483.348 194.408 484.008 194.628 484.568 195.068L484.016 195.872ZM489.376 195.764H487.816V198.464C487.816 198.864 487.948 199.064 488.212 199.064C488.452 199.064 488.752 198.96 489.112 198.752L489.616 199.52C489.048 199.968 488.42 200.192 487.732 200.192C486.772 200.192 486.292 199.664 486.292 198.608V195.764H485.536V194.552H486.304V193.58C486.704 193.364 487.212 193.096 487.828 192.776V194.552H489.376V195.764ZM497.809 198.2C498.257 196.56 498.857 194.628 499.609 192.404H501.889V200H500.305V193.832C499.929 195.456 499.313 197.512 498.457 200H497.149C496.245 197.256 495.633 195.22 495.313 193.892V200H493.765V192.404H495.949C496.701 194.452 497.321 196.384 497.809 198.2ZM508.056 200H506.844L506.724 199.484C506.196 199.924 505.66 200.144 505.116 200.144C503.908 200.144 503.304 199.556 503.304 198.38C503.304 197.796 503.556 197.34 504.06 197.012C504.572 196.676 505.328 196.508 506.328 196.508H506.58V196.484C506.58 196.14 506.508 195.904 506.364 195.776C506.22 195.648 505.96 195.584 505.584 195.584C505.056 195.584 504.572 195.752 504.132 196.088C503.988 195.824 503.852 195.564 503.724 195.308C504.18 194.956 504.576 194.72 504.912 194.6C505.256 194.472 505.664 194.408 506.136 194.408C507.416 194.408 508.056 195.208 508.056 196.808V200ZM506.532 197.432H506.352C505.896 197.432 505.528 197.512 505.248 197.672C504.968 197.832 504.828 198.044 504.828 198.308C504.828 198.804 505.044 199.052 505.476 199.052C505.74 199.052 505.972 198.976 506.172 198.824C506.372 198.672 506.492 198.48 506.532 198.248V197.432ZM514.679 194.552C514.359 195.448 513.919 196.652 513.359 198.164C512.951 199.292 512.631 200.168 512.399 200.792C512.023 201.792 511.495 202.292 510.815 202.292C510.287 202.292 509.743 202.064 509.183 201.608C509.343 201.336 509.479 201.096 509.591 200.888C509.887 201.08 510.147 201.176 510.371 201.176C510.699 201.176 510.991 200.784 511.247 200H510.959L509.051 194.552H510.551C510.639 194.816 510.775 195.228 510.959 195.788L511.031 195.98C511.375 197.02 511.623 197.784 511.775 198.272L513.167 194.552H514.679ZM518.222 200V198.668C518.414 198.452 518.67 198.16 518.99 197.792C519.494 197.232 519.866 196.808 520.106 196.52C520.642 195.88 520.978 195.444 521.114 195.212C521.25 194.972 521.318 194.708 521.318 194.42C521.318 194.18 521.23 193.98 521.054 193.82C520.878 193.66 520.654 193.58 520.382 193.58C519.91 193.58 519.39 193.772 518.822 194.156L518.162 193.196C518.962 192.564 519.798 192.248 520.67 192.248C521.366 192.248 521.922 192.436 522.338 192.812C522.746 193.18 522.95 193.688 522.95 194.336C522.95 194.816 522.79 195.32 522.47 195.848C522.158 196.368 521.546 197.144 520.634 198.176C520.41 198.432 520.246 198.62 520.142 198.74H522.866V200H518.222ZM526.692 192.26C527.62 192.26 528.364 192.704 528.924 193.592C529.396 194.328 529.632 195.204 529.632 196.22C529.632 197.444 529.332 198.424 528.732 199.16C528.204 199.816 527.524 200.144 526.692 200.144C525.74 200.144 524.996 199.72 524.46 198.872C524.012 198.168 523.788 197.284 523.788 196.22C523.788 195.036 524.084 194.064 524.676 193.304C525.212 192.608 525.884 192.26 526.692 192.26ZM526.716 193.604C525.852 193.604 525.42 194.452 525.42 196.148C525.42 197.004 525.544 197.676 525.792 198.164C526.016 198.604 526.312 198.824 526.68 198.824C527.088 198.824 527.408 198.588 527.64 198.116C527.88 197.636 528 196.98 528 196.148C528 194.452 527.572 193.604 526.716 193.604ZM530.574 200V198.668C530.766 198.452 531.022 198.16 531.342 197.792C531.846 197.232 532.218 196.808 532.458 196.52C532.994 195.88 533.33 195.444 533.466 195.212C533.602 194.972 533.67 194.708 533.67 194.42C533.67 194.18 533.582 193.98 533.406 193.82C533.23 193.66 533.006 193.58 532.734 193.58C532.262 193.58 531.742 193.772 531.174 194.156L530.514 193.196C531.314 192.564 532.15 192.248 533.022 192.248C533.718 192.248 534.274 192.436 534.69 192.812C535.098 193.18 535.302 193.688 535.302 194.336C535.302 194.816 535.142 195.32 534.822 195.848C534.51 196.368 533.898 197.144 532.986 198.176C532.762 198.432 532.598 198.62 532.494 198.74H535.218V200H530.574ZM536.164 200V198.668C536.356 198.452 536.612 198.16 536.932 197.792C537.436 197.232 537.808 196.808 538.048 196.52C538.584 195.88 538.92 195.444 539.056 195.212C539.192 194.972 539.26 194.708 539.26 194.42C539.26 194.18 539.172 193.98 538.996 193.82C538.82 193.66 538.596 193.58 538.324 193.58C537.852 193.58 537.332 193.772 536.764 194.156L536.104 193.196C536.904 192.564 537.74 192.248 538.612 192.248C539.308 192.248 539.864 192.436 540.28 192.812C540.688 193.18 540.892 193.688 540.892 194.336C540.892 194.816 540.732 195.32 540.412 195.848C540.1 196.368 539.488 197.144 538.576 198.176C538.352 198.432 538.188 198.62 538.084 198.74H540.808V200H536.164Z" fill="white"/>
<path d="M72.024 202V191.872H78.648V193.552H74.12V195.952H77.896V197.632H74.12V202H72.024ZM81.9946 191.68V202H79.9786V192.736L81.9946 191.68ZM90.8221 194.736C90.3955 195.931 89.8088 197.536 89.0621 199.552C88.5181 201.056 88.0915 202.224 87.7821 203.056C87.2808 204.389 86.5768 205.056 85.6701 205.056C84.9661 205.056 84.2408 204.752 83.4941 204.144C83.7075 203.781 83.8888 203.461 84.0381 203.184C84.4328 203.44 84.7795 203.568 85.0781 203.568C85.5155 203.568 85.9048 203.045 86.2461 202H85.8621L83.3181 194.736H85.3181C85.4355 195.088 85.6168 195.637 85.8621 196.384L85.9581 196.64C86.4168 198.027 86.7475 199.045 86.9501 199.696L88.8061 194.736H90.8221ZM96.2945 191.68C97.8518 191.68 99.0518 192.299 99.8945 193.536C100.556 194.507 100.887 195.68 100.887 197.056C100.887 198.635 100.455 199.899 99.5905 200.848C98.7692 201.744 97.6705 202.192 96.2945 202.192C94.7158 202.192 93.5158 201.616 92.6945 200.464C92.0332 199.557 91.7025 198.421 91.7025 197.056C91.7025 195.456 92.1345 194.149 92.9985 193.136C93.8198 192.165 94.9185 191.68 96.2945 191.68ZM96.2945 200.432C97.0625 200.432 97.6545 200.144 98.0705 199.568C98.4865 198.981 98.6945 198.144 98.6945 197.056C98.6945 195.893 98.4652 194.987 98.0065 194.336C97.5798 193.76 97.0092 193.472 96.2945 193.472C95.5265 193.472 94.9292 193.787 94.5025 194.416C94.0865 195.045 93.8785 195.925 93.8785 197.056C93.8785 199.307 94.6838 200.432 96.2945 200.432ZM107.355 201.168C106.822 201.851 106.091 202.192 105.163 202.192C104.246 202.192 103.59 201.957 103.195 201.488C102.811 201.008 102.619 200.208 102.619 199.088V194.736H104.603V198.56C104.603 199.285 104.699 199.797 104.891 200.096C105.083 200.384 105.414 200.528 105.883 200.528C106.086 200.528 106.315 200.475 106.571 200.368C106.827 200.261 106.982 200.149 107.035 200.032V194.736H109.051V202H107.547L107.371 201.168H107.355ZM115.773 196.352H113.693V199.952C113.693 200.485 113.869 200.752 114.221 200.752C114.541 200.752 114.941 200.613 115.421 200.336L116.093 201.36C115.335 201.957 114.498 202.256 113.581 202.256C112.301 202.256 111.661 201.552 111.661 200.144V196.352H110.653V194.736H111.677V193.44C112.21 193.152 112.887 192.795 113.709 192.368V194.736H115.773V196.352Z" fill="white"/>
<path d="M72.8 213V206.68C72.8933 206.66 73.1567 206.633 73.59 206.6C74.0233 206.567 74.3533 206.55 74.58 206.55C76.1933 206.55 77 207.21 77 208.53C77 209.243 76.71 209.85 76.13 210.35C76.37 210.903 76.78 211.787 77.36 213H76.04C75.7133 212.287 75.36 211.52 74.98 210.7C74.9067 210.713 74.8067 210.72 74.68 210.72C74.3867 210.72 74.1967 210.693 74.11 210.64V213H72.8ZM74.11 207.67V209.58C74.31 209.64 74.5267 209.67 74.76 209.67C75.3333 209.67 75.62 209.29 75.62 208.53C75.62 207.91 75.3233 207.6 74.73 207.6C74.39 207.6 74.1833 207.623 74.11 207.67ZM81.9874 211.14H78.8674C78.8941 211.447 79.0174 211.703 79.2374 211.91C79.4641 212.11 79.7308 212.21 80.0374 212.21C80.4708 212.21 80.9241 212.077 81.3974 211.81L81.7174 212.48C81.2374 212.907 80.6374 213.12 79.9174 213.12C79.1441 213.12 78.5408 212.9 78.1074 212.46C77.6941 212.047 77.4874 211.477 77.4874 210.75C77.4874 210.037 77.7208 209.447 78.1874 208.98C78.6074 208.553 79.1408 208.34 79.7874 208.34C80.5074 208.34 81.0674 208.583 81.4674 209.07C81.8141 209.483 81.9874 210.02 81.9874 210.68V211.14ZM78.7974 210.21H80.7274C80.6941 209.557 80.3774 209.23 79.7774 209.23C79.1974 209.23 78.8708 209.557 78.7974 210.21ZM86.2911 213L86.1111 212.52C86.0044 212.693 85.8311 212.837 85.5911 212.95C85.3511 213.063 85.1044 213.12 84.8511 213.12C84.1378 213.12 83.5944 212.883 83.2211 212.41C82.9078 212.017 82.7511 211.51 82.7511 210.89C82.7511 210.017 83.0044 209.343 83.5111 208.87C83.8911 208.517 84.3478 208.34 84.8811 208.34C85.3411 208.34 85.7278 208.467 86.0411 208.72V207.27L87.3011 206.57V213H86.2911ZM86.0411 211.27V210C85.9944 209.78 85.8878 209.6 85.7211 209.46C85.5611 209.313 85.3711 209.24 85.1511 209.24C84.8111 209.24 84.5411 209.373 84.3411 209.64C84.1411 209.907 84.0411 210.267 84.0411 210.72C84.0411 211.713 84.3644 212.21 85.0111 212.21C85.2511 212.21 85.4744 212.117 85.6811 211.93C85.8878 211.737 86.0078 211.517 86.0411 211.27ZM91.6166 212.48C91.2832 212.907 90.8266 213.12 90.2466 213.12C89.6732 213.12 89.2632 212.973 89.0166 212.68C88.7766 212.38 88.6566 211.88 88.6566 211.18V208.46H89.8966V210.85C89.8966 211.303 89.9566 211.623 90.0766 211.81C90.1966 211.99 90.4032 212.08 90.6966 212.08C90.8232 212.08 90.9666 212.047 91.1266 211.98C91.2866 211.913 91.3832 211.843 91.4166 211.77V208.46H92.6766V213H91.7366L91.6266 212.48H91.6166ZM97.8474 212.42C97.3741 212.887 96.8141 213.12 96.1674 213.12C95.3941 213.12 94.7808 212.873 94.3274 212.38C93.9341 211.947 93.7374 211.403 93.7374 210.75C93.7374 210.017 93.9908 209.417 94.4974 208.95C94.9374 208.543 95.4741 208.34 96.1074 208.34C96.8074 208.34 97.3708 208.56 97.7974 209L97.4174 209.68C97.0774 209.38 96.7074 209.23 96.3074 209.23C95.9341 209.23 95.6274 209.377 95.3874 209.67C95.1474 209.957 95.0274 210.327 95.0274 210.78C95.0274 211.2 95.1441 211.547 95.3774 211.82C95.6174 212.087 95.9208 212.22 96.2874 212.22C96.7274 212.22 97.1041 212.057 97.4174 211.73L97.8474 212.42ZM100.023 208.46V213H98.753V208.46H100.023ZM98.603 207.3C98.603 207.087 98.6764 206.903 98.823 206.75C98.9764 206.59 99.1564 206.51 99.363 206.51C99.583 206.51 99.7697 206.587 99.923 206.74C100.083 206.893 100.163 207.08 100.163 207.3C100.163 207.533 100.086 207.723 99.933 207.87C99.7864 208.017 99.5964 208.09 99.363 208.09C99.143 208.09 98.9597 208.017 98.813 207.87C98.673 207.717 98.603 207.527 98.603 207.3ZM102.543 208.9C102.676 208.747 102.876 208.617 103.143 208.51C103.409 208.397 103.663 208.34 103.903 208.34C104.476 208.34 104.889 208.497 105.143 208.81C105.403 209.123 105.533 209.63 105.533 210.33V213H104.263V210.38C104.263 209.727 103.973 209.4 103.393 209.4C103.246 209.4 103.089 209.433 102.923 209.5C102.756 209.56 102.643 209.63 102.583 209.71V213H101.323V208.46H102.393C102.426 208.633 102.459 208.78 102.493 208.9H102.543ZM109.72 212.45C109.42 212.897 108.997 213.12 108.45 213.12C107.783 213.12 107.267 212.883 106.9 212.41C106.587 212.01 106.43 211.503 106.43 210.89C106.43 210.017 106.683 209.343 107.19 208.87C107.577 208.517 108.033 208.34 108.56 208.34C108.98 208.34 109.337 208.443 109.63 208.65C109.823 208.783 109.92 208.883 109.92 208.95L110.02 208.46H110.99V212.53C110.99 213.297 110.8 213.887 110.42 214.3C110.047 214.707 109.513 214.91 108.82 214.91C108.1 214.91 107.477 214.67 106.95 214.19L107.27 213.55C107.677 213.817 108.133 213.95 108.64 213.95C109.36 213.95 109.72 213.45 109.72 212.45ZM109.72 210C109.693 209.793 109.59 209.617 109.41 209.47C109.237 209.317 109.043 209.24 108.83 209.24C108.497 209.24 108.23 209.373 108.03 209.64C107.83 209.907 107.73 210.267 107.73 210.72C107.73 211.713 108.057 212.21 108.71 212.21C108.983 212.21 109.22 212.107 109.42 211.9C109.62 211.687 109.72 211.437 109.72 211.15V210ZM118.24 211.5C118.614 210.133 119.114 208.523 119.74 206.67H121.64V213H120.32V207.86C120.007 209.213 119.494 210.927 118.78 213H117.69C116.937 210.713 116.427 209.017 116.16 207.91V213H114.87V206.67H116.69C117.317 208.377 117.834 209.987 118.24 211.5ZM125.079 208.34C125.826 208.34 126.406 208.603 126.819 209.13C127.166 209.57 127.339 210.107 127.339 210.74C127.339 211.48 127.083 212.08 126.569 212.54C126.143 212.927 125.646 213.12 125.079 213.12C124.419 213.12 123.866 212.873 123.419 212.38C123.019 211.933 122.819 211.387 122.819 210.74C122.819 210.007 123.043 209.413 123.489 208.96C123.896 208.547 124.426 208.34 125.079 208.34ZM125.079 212.18C125.726 212.18 126.049 211.7 126.049 210.74C126.049 209.74 125.726 209.24 125.079 209.24C124.433 209.24 124.109 209.74 124.109 210.74C124.109 211.7 124.433 212.18 125.079 212.18ZM131.053 209.56C130.726 209.347 130.353 209.24 129.933 209.24C129.613 209.24 129.453 209.377 129.453 209.65C129.453 209.903 129.669 210.083 130.103 210.19C130.643 210.323 131.009 210.473 131.203 210.64C131.483 210.88 131.623 211.24 131.623 211.72C131.623 212.147 131.469 212.487 131.163 212.74C130.863 212.993 130.456 213.12 129.943 213.12C129.216 213.12 128.603 212.913 128.103 212.5L128.563 211.8C128.909 212.073 129.326 212.21 129.813 212.21C130.006 212.21 130.163 212.163 130.283 212.07C130.403 211.977 130.463 211.853 130.463 211.7C130.463 211.42 130.226 211.237 129.753 211.15C128.739 210.957 128.233 210.463 128.233 209.67C128.233 209.29 128.386 208.973 128.693 208.72C129.006 208.467 129.396 208.34 129.863 208.34C130.496 208.34 131.046 208.523 131.513 208.89L131.053 209.56ZM135.56 214.77V212.53C135.527 212.663 135.383 212.797 135.13 212.93C134.883 213.057 134.647 213.12 134.42 213.12C133.72 213.12 133.19 212.877 132.83 212.39C132.53 211.99 132.38 211.48 132.38 210.86C132.38 210.02 132.627 209.367 133.12 208.9C133.507 208.527 133.977 208.34 134.53 208.34C135.05 208.34 135.46 208.543 135.76 208.95L135.83 208.46H136.83V214.77H135.56ZM135.56 211.16V210.05C135.56 210.043 135.56 210.033 135.56 210.02C135.56 209.833 135.473 209.657 135.3 209.49C135.133 209.323 134.953 209.24 134.76 209.24C134.427 209.24 134.16 209.373 133.96 209.64C133.76 209.907 133.66 210.267 133.66 210.72C133.66 211.713 134.003 212.21 134.69 212.21C134.943 212.21 135.15 212.117 135.31 211.93C135.477 211.743 135.56 211.503 135.56 211.21C135.56 211.19 135.56 211.173 135.56 211.16ZM141.148 212.48C140.814 212.907 140.358 213.12 139.778 213.12C139.204 213.12 138.794 212.973 138.548 212.68C138.308 212.38 138.188 211.88 138.188 211.18V208.46H139.428V210.85C139.428 211.303 139.488 211.623 139.608 211.81C139.728 211.99 139.934 212.08 140.228 212.08C140.354 212.08 140.498 212.047 140.658 211.98C140.818 211.913 140.914 211.843 140.948 211.77V208.46H142.208V213H141.268L141.158 212.48H141.148ZM144.789 208.46V213H143.519V208.46H144.789ZM143.369 207.3C143.369 207.087 143.442 206.903 143.589 206.75C143.742 206.59 143.922 206.51 144.129 206.51C144.349 206.51 144.535 206.587 144.689 206.74C144.849 206.893 144.929 207.08 144.929 207.3C144.929 207.533 144.852 207.723 144.699 207.87C144.552 208.017 144.362 208.09 144.129 208.09C143.909 208.09 143.725 208.017 143.579 207.87C143.439 207.717 143.369 207.527 143.369 207.3ZM148.928 209.47H147.628V211.72C147.628 212.053 147.738 212.22 147.958 212.22C148.158 212.22 148.408 212.133 148.708 211.96L149.128 212.6C148.655 212.973 148.132 213.16 147.558 213.16C146.758 213.16 146.358 212.72 146.358 211.84V209.47H145.728V208.46H146.368V207.65C146.702 207.47 147.125 207.247 147.638 206.98V208.46H148.928V209.47ZM151.925 208.34C152.672 208.34 153.252 208.603 153.665 209.13C154.012 209.57 154.185 210.107 154.185 210.74C154.185 211.48 153.928 212.08 153.415 212.54C152.988 212.927 152.492 213.12 151.925 213.12C151.265 213.12 150.712 212.873 150.265 212.38C149.865 211.933 149.665 211.387 149.665 210.74C149.665 210.007 149.888 209.413 150.335 208.96C150.742 208.547 151.272 208.34 151.925 208.34ZM151.925 212.18C152.572 212.18 152.895 211.7 152.895 210.74C152.895 209.74 152.572 209.24 151.925 209.24C151.278 209.24 150.955 209.74 150.955 210.74C150.955 211.7 151.278 212.18 151.925 212.18ZM157.771 213V206.68C157.864 206.66 158.127 206.633 158.561 206.6C158.994 206.567 159.324 206.55 159.551 206.55C161.164 206.55 161.971 207.21 161.971 208.53C161.971 209.35 161.691 209.95 161.131 210.33C160.757 210.59 160.317 210.72 159.811 210.72C159.411 210.72 159.167 210.693 159.081 210.64V213H157.771ZM159.081 207.67V209.58C159.254 209.647 159.471 209.68 159.731 209.68C159.997 209.68 160.207 209.587 160.361 209.4C160.514 209.207 160.591 208.943 160.591 208.61C160.591 207.937 160.294 207.6 159.701 207.6C159.361 207.6 159.154 207.623 159.081 207.67ZM164.708 208.34C165.455 208.34 166.035 208.603 166.448 209.13C166.795 209.57 166.968 210.107 166.968 210.74C166.968 211.48 166.712 212.08 166.198 212.54C165.772 212.927 165.275 213.12 164.708 213.12C164.048 213.12 163.495 212.873 163.048 212.38C162.648 211.933 162.448 211.387 162.448 210.74C162.448 210.007 162.672 209.413 163.118 208.96C163.525 208.547 164.055 208.34 164.708 208.34ZM164.708 212.18C165.355 212.18 165.678 211.7 165.678 210.74C165.678 209.74 165.355 209.24 164.708 209.24C164.062 209.24 163.738 209.74 163.738 210.74C163.738 211.7 164.062 212.18 164.708 212.18ZM168.982 208.46L169.102 208.89C169.382 208.523 169.775 208.34 170.282 208.34C170.995 208.34 171.552 208.58 171.952 209.06C172.292 209.473 172.462 210 172.462 210.64C172.462 211.48 172.208 212.127 171.702 212.58C171.302 212.94 170.812 213.12 170.232 213.12C170.058 213.12 169.875 213.083 169.682 213.01C169.488 212.937 169.352 212.853 169.272 212.76V214.78H168.032V208.46H168.982ZM169.272 210.23V211.39C169.272 211.623 169.352 211.823 169.512 211.99C169.678 212.157 169.872 212.24 170.092 212.24C170.392 212.24 170.642 212.097 170.842 211.81C171.042 211.523 171.142 211.167 171.142 210.74C171.142 210.287 171.052 209.927 170.872 209.66C170.698 209.387 170.462 209.25 170.162 209.25C169.928 209.25 169.722 209.35 169.542 209.55C169.362 209.743 169.272 209.97 169.272 210.23ZM176.48 212.48C176.147 212.907 175.69 213.12 175.11 213.12C174.537 213.12 174.127 212.973 173.88 212.68C173.64 212.38 173.52 211.88 173.52 211.18V208.46H174.76V210.85C174.76 211.303 174.82 211.623 174.94 211.81C175.06 211.99 175.267 212.08 175.56 212.08C175.687 212.08 175.83 212.047 175.99 211.98C176.15 211.913 176.247 211.843 176.28 211.77V208.46H177.54V213H176.6L176.49 212.48H176.48ZM180.161 206.55V213H178.901V207.21L180.161 206.55ZM185.178 213H184.168L184.068 212.57C183.628 212.937 183.181 213.12 182.728 213.12C181.721 213.12 181.218 212.63 181.218 211.65C181.218 211.163 181.428 210.783 181.848 210.51C182.275 210.23 182.905 210.09 183.738 210.09H183.948V210.07C183.948 209.783 183.888 209.587 183.768 209.48C183.648 209.373 183.431 209.32 183.118 209.32C182.678 209.32 182.275 209.46 181.908 209.74C181.788 209.52 181.675 209.303 181.568 209.09C181.948 208.797 182.278 208.6 182.558 208.5C182.845 208.393 183.185 208.34 183.578 208.34C184.645 208.34 185.178 209.007 185.178 210.34V213ZM183.908 210.86H183.758C183.378 210.86 183.071 210.927 182.838 211.06C182.605 211.193 182.488 211.37 182.488 211.59C182.488 212.003 182.668 212.21 183.028 212.21C183.248 212.21 183.441 212.147 183.608 212.02C183.775 211.893 183.875 211.733 183.908 211.54V210.86ZM189.377 209.47H188.077V211.72C188.077 212.053 188.187 212.22 188.407 212.22C188.607 212.22 188.857 212.133 189.157 211.96L189.577 212.6C189.104 212.973 188.581 213.16 188.007 213.16C187.207 213.16 186.807 212.72 186.807 211.84V209.47H186.177V208.46H186.817V207.65C187.151 207.47 187.574 207.247 188.087 206.98V208.46H189.377V209.47ZM191.732 208.46V213H190.462V208.46H191.732ZM190.312 207.3C190.312 207.087 190.385 206.903 190.532 206.75C190.685 206.59 190.865 206.51 191.072 206.51C191.292 206.51 191.479 206.587 191.632 206.74C191.792 206.893 191.872 207.08 191.872 207.3C191.872 207.533 191.795 207.723 191.642 207.87C191.495 208.017 191.305 208.09 191.072 208.09C190.852 208.09 190.669 208.017 190.522 207.87C190.382 207.717 190.312 207.527 190.312 207.3ZM194.992 208.34C195.738 208.34 196.318 208.603 196.732 209.13C197.078 209.57 197.252 210.107 197.252 210.74C197.252 211.48 196.995 212.08 196.482 212.54C196.055 212.927 195.558 213.12 194.992 213.12C194.332 213.12 193.778 212.873 193.332 212.38C192.932 211.933 192.732 211.387 192.732 210.74C192.732 210.007 192.955 209.413 193.402 208.96C193.808 208.547 194.338 208.34 194.992 208.34ZM194.992 212.18C195.638 212.18 195.962 211.7 195.962 210.74C195.962 209.74 195.638 209.24 194.992 209.24C194.345 209.24 194.022 209.74 194.022 210.74C194.022 211.7 194.345 212.18 194.992 212.18ZM199.535 208.9C199.668 208.747 199.868 208.617 200.135 208.51C200.401 208.397 200.655 208.34 200.895 208.34C201.468 208.34 201.881 208.497 202.135 208.81C202.395 209.123 202.525 209.63 202.525 210.33V213H201.255V210.38C201.255 209.727 200.965 209.4 200.385 209.4C200.238 209.4 200.081 209.433 199.915 209.5C199.748 209.56 199.635 209.63 199.575 209.71V213H198.315V208.46H199.385C199.418 208.633 199.451 208.78 199.485 208.9H199.535Z" fill="white"/>
<path d="M42.96 191.36C45.4347 191.36 47.4187 192.544 48.912 194.912C50.1707 196.875 50.8 199.211 50.8 201.92C50.8 205.184 50 207.797 48.4 209.76C46.992 211.509 45.1787 212.384 42.96 212.384C40.4213 212.384 38.4373 211.253 37.008 208.992C35.8133 207.115 35.216 204.757 35.216 201.92C35.216 198.763 36.0053 196.171 37.584 194.144C39.0133 192.288 40.8053 191.36 42.96 191.36ZM43.024 194.944C40.72 194.944 39.568 197.205 39.568 201.728C39.568 204.011 39.8987 205.803 40.56 207.104C41.1573 208.277 41.9467 208.864 42.928 208.864C44.016 208.864 44.8693 208.235 45.488 206.976C46.128 205.696 46.448 203.947 46.448 201.728C46.448 197.205 45.3067 194.944 43.024 194.944ZM61.2793 191.744V212H57.0873V196.512C56.7886 196.704 56.3513 196.971 55.7753 197.312C54.9433 197.803 54.3459 198.176 53.9833 198.432C53.7059 197.963 53.2366 197.184 52.5753 196.096L52.3833 195.808C52.2339 195.531 52.1166 195.328 52.0312 195.2C52.7139 194.709 53.7913 193.973 55.2633 192.992C56.0313 192.48 56.6393 192.064 57.0873 191.744H61.2793Z" fill="white"/>
<rect y="155" width="586" height="6" fill="url(#paint0_linear_1466_507)" fill-opacity="0.7"/>
<path d="M129.6 37V36.208L131.724 33.88C132.244 33.304 132.608 32.832 132.816 32.464C133.024 32.088 133.128 31.712 133.128 31.336C133.128 30.944 132.992 30.628 132.72 30.388C132.456 30.148 132.104 30.028 131.664 30.028C131.136 30.028 130.616 30.196 130.104 30.532L129.732 30.004C130.396 29.5 131.108 29.248 131.868 29.248C132.54 29.248 133.084 29.46 133.5 29.884C133.884 30.268 134.076 30.752 134.076 31.336C134.076 31.76 133.96 32.176 133.728 32.584C133.504 32.984 133.08 33.532 132.456 34.228L130.644 36.244H133.932V37H129.6ZM140.79 33.22C140.79 34.476 140.514 35.464 139.962 36.184C139.482 36.824 138.85 37.144 138.066 37.144C137.162 37.144 136.462 36.732 135.966 35.908C135.55 35.204 135.342 34.308 135.342 33.22C135.342 32.004 135.618 31.024 136.17 30.28C136.666 29.6 137.298 29.26 138.066 29.26C138.938 29.26 139.63 29.692 140.142 30.556C140.574 31.284 140.79 32.172 140.79 33.22ZM138.054 30.028C137.502 30.028 137.07 30.304 136.758 30.856C136.446 31.408 136.29 32.172 136.29 33.148C136.29 34.188 136.458 34.996 136.794 35.572C137.106 36.1 137.526 36.364 138.054 36.364C138.606 36.364 139.042 36.08 139.362 35.512C139.682 34.936 139.842 34.148 139.842 33.148C139.842 32.124 139.666 31.336 139.314 30.784C139.002 30.28 138.582 30.028 138.054 30.028ZM141.987 37V36.208L144.111 33.88C144.631 33.304 144.995 32.832 145.203 32.464C145.411 32.088 145.515 31.712 145.515 31.336C145.515 30.944 145.379 30.628 145.107 30.388C144.843 30.148 144.491 30.028 144.051 30.028C143.523 30.028 143.003 30.196 142.491 30.532L142.119 30.004C142.783 29.5 143.495 29.248 144.255 29.248C144.927 29.248 145.471 29.46 145.887 29.884C146.271 30.268 146.463 30.752 146.463 31.336C146.463 31.76 146.347 32.176 146.115 32.584C145.891 32.984 145.467 33.532 144.843 34.228L143.031 36.244H146.319V37H141.987ZM148.172 30.544L147.812 30.016C148.38 29.512 149.06 29.26 149.852 29.26C150.5 29.26 151.036 29.452 151.46 29.836C151.852 30.196 152.048 30.656 152.048 31.216C152.048 31.616 151.928 31.972 151.688 32.284C151.448 32.588 151.132 32.788 150.74 32.884C151.244 33.004 151.64 33.236 151.928 33.58C152.216 33.924 152.36 34.34 152.36 34.828C152.36 35.636 152.056 36.252 151.448 36.676C151 36.98 150.472 37.132 149.864 37.132C149.096 37.132 148.38 36.868 147.716 36.34L148.1 35.824C148.604 36.176 149.156 36.352 149.756 36.352C150.252 36.352 150.652 36.212 150.956 35.932C151.26 35.652 151.412 35.28 151.412 34.816C151.412 33.832 150.824 33.34 149.648 33.34H148.664V32.584H149.648C150.096 32.584 150.448 32.468 150.704 32.236C150.968 32.004 151.1 31.684 151.1 31.276C151.1 30.436 150.632 30.016 149.696 30.016C149.208 30.016 148.7 30.192 148.172 30.544Z" fill="white"/>
<path d="M429.6 37V36.208L431.724 33.88C432.244 33.304 432.608 32.832 432.816 32.464C433.024 32.088 433.128 31.712 433.128 31.336C433.128 30.944 432.992 30.628 432.72 30.388C432.456 30.148 432.104 30.028 431.664 30.028C431.136 30.028 430.616 30.196 430.104 30.532L429.732 30.004C430.396 29.5 431.108 29.248 431.868 29.248C432.54 29.248 433.084 29.46 433.5 29.884C433.884 30.268 434.076 30.752 434.076 31.336C434.076 31.76 433.96 32.176 433.728 32.584C433.504 32.984 433.08 33.532 432.456 34.228L430.644 36.244H433.932V37H429.6ZM440.79 33.22C440.79 34.476 440.514 35.464 439.962 36.184C439.482 36.824 438.85 37.144 438.066 37.144C437.162 37.144 436.462 36.732 435.966 35.908C435.55 35.204 435.342 34.308 435.342 33.22C435.342 32.004 435.618 31.024 436.17 30.28C436.666 29.6 437.298 29.26 438.066 29.26C438.938 29.26 439.63 29.692 440.142 30.556C440.574 31.284 440.79 32.172 440.79 33.22ZM438.054 30.028C437.502 30.028 437.07 30.304 436.758 30.856C436.446 31.408 436.29 32.172 436.29 33.148C436.29 34.188 436.458 34.996 436.794 35.572C437.106 36.1 437.526 36.364 438.054 36.364C438.606 36.364 439.042 36.08 439.362 35.512C439.682 34.936 439.842 34.148 439.842 33.148C439.842 32.124 439.666 31.336 439.314 30.784C439.002 30.28 438.582 30.028 438.054 30.028ZM441.987 37V36.208L444.111 33.88C444.631 33.304 444.995 32.832 445.203 32.464C445.411 32.088 445.515 31.712 445.515 31.336C445.515 30.944 445.379 30.628 445.107 30.388C444.843 30.148 444.491 30.028 444.051 30.028C443.523 30.028 443.003 30.196 442.491 30.532L442.119 30.004C442.783 29.5 443.495 29.248 444.255 29.248C444.927 29.248 445.471 29.46 445.887 29.884C446.271 30.268 446.463 30.752 446.463 31.336C446.463 31.76 446.347 32.176 446.115 32.584C445.891 32.984 445.467 33.532 444.843 34.228L443.031 36.244H446.319V37H441.987ZM452.408 29.86L452.096 30.364C451.672 30.14 451.212 30.028 450.716 30.028C450.18 30.028 449.744 30.272 449.408 30.76C449.072 31.248 448.888 31.904 448.856 32.728C449.288 32.28 449.804 32.056 450.404 32.056C451.044 32.056 451.576 32.264 452 32.68C452.464 33.128 452.696 33.756 452.696 34.564C452.696 35.284 452.464 35.9 452 36.412C451.568 36.9 451.024 37.144 450.368 37.144C449.488 37.144 448.832 36.724 448.4 35.884C448.064 35.236 447.896 34.432 447.896 33.472C447.896 32.112 448.176 31.048 448.736 30.28C449.232 29.6 449.876 29.26 450.668 29.26C451.324 29.26 451.904 29.46 452.408 29.86ZM448.808 33.556C448.816 34.476 448.968 35.192 449.264 35.704C449.536 36.16 449.9 36.388 450.356 36.388C450.772 36.388 451.108 36.224 451.364 35.896C451.62 35.56 451.748 35.116 451.748 34.564C451.748 33.988 451.616 33.544 451.352 33.232C451.088 32.92 450.72 32.764 450.248 32.764C449.648 32.764 449.168 33.028 448.808 33.556Z" fill="white"/>
<path d="M329.6 36V35.208L331.724 32.88C332.244 32.304 332.608 31.832 332.816 31.464C333.024 31.088 333.128 30.712 333.128 30.336C333.128 29.944 332.992 29.628 332.72 29.388C332.456 29.148 332.104 29.028 331.664 29.028C331.136 29.028 330.616 29.196 330.104 29.532L329.732 29.004C330.396 28.5 331.108 28.248 331.868 28.248C332.54 28.248 333.084 28.46 333.5 28.884C333.884 29.268 334.076 29.752 334.076 30.336C334.076 30.76 333.96 31.176 333.728 31.584C333.504 31.984 333.08 32.532 332.456 33.228L330.644 35.244H333.932V36H329.6ZM340.79 32.22C340.79 33.476 340.514 34.464 339.962 35.184C339.482 35.824 338.85 36.144 338.066 36.144C337.162 36.144 336.462 35.732 335.966 34.908C335.55 34.204 335.342 33.308 335.342 32.22C335.342 31.004 335.618 30.024 336.17 29.28C336.666 28.6 337.298 28.26 338.066 28.26C338.938 28.26 339.63 28.692 340.142 29.556C340.574 30.284 340.79 31.172 340.79 32.22ZM338.054 29.028C337.502 29.028 337.07 29.304 336.758 29.856C336.446 30.408 336.29 31.172 336.29 32.148C336.29 33.188 336.458 33.996 336.794 34.572C337.106 35.1 337.526 35.364 338.054 35.364C338.606 35.364 339.042 35.08 339.362 34.512C339.682 33.936 339.842 33.148 339.842 32.148C339.842 31.124 339.666 30.336 339.314 29.784C339.002 29.28 338.582 29.028 338.054 29.028ZM341.987 36V35.208L344.111 32.88C344.631 32.304 344.995 31.832 345.203 31.464C345.411 31.088 345.515 30.712 345.515 30.336C345.515 29.944 345.379 29.628 345.107 29.388C344.843 29.148 344.491 29.028 344.051 29.028C343.523 29.028 343.003 29.196 342.491 29.532L342.119 29.004C342.783 28.5 343.495 28.248 344.255 28.248C344.927 28.248 345.471 28.46 345.887 28.884C346.271 29.268 346.463 29.752 346.463 30.336C346.463 30.76 346.347 31.176 346.115 31.584C345.891 31.984 345.467 32.532 344.843 33.228L343.031 35.244H346.319V36H341.987ZM352.072 29.16H349.168V31.296C349.408 31.256 349.688 31.236 350.008 31.236C350.816 31.236 351.456 31.46 351.928 31.908C352.368 32.332 352.588 32.904 352.588 33.624C352.588 34.416 352.304 35.056 351.736 35.544C351.272 35.944 350.72 36.144 350.08 36.144C349.24 36.144 348.512 35.88 347.896 35.352L348.244 34.836C348.748 35.18 349.296 35.352 349.888 35.352C350.44 35.352 350.872 35.204 351.184 34.908C351.496 34.604 351.652 34.18 351.652 33.636C351.652 33.1 351.484 32.684 351.148 32.388C350.812 32.092 350.344 31.944 349.744 31.944C349.344 31.944 348.856 31.996 348.28 32.1V28.404H352.072V29.16Z" fill="white"/>
<path d="M229.6 37V36.208L231.724 33.88C232.244 33.304 232.608 32.832 232.816 32.464C233.024 32.088 233.128 31.712 233.128 31.336C233.128 30.944 232.992 30.628 232.72 30.388C232.456 30.148 232.104 30.028 231.664 30.028C231.136 30.028 230.616 30.196 230.104 30.532L229.732 30.004C230.396 29.5 231.108 29.248 231.868 29.248C232.54 29.248 233.084 29.46 233.5 29.884C233.884 30.268 234.076 30.752 234.076 31.336C234.076 31.76 233.96 32.176 233.728 32.584C233.504 32.984 233.08 33.532 232.456 34.228L230.644 36.244H233.932V37H229.6ZM240.79 33.22C240.79 34.476 240.514 35.464 239.962 36.184C239.482 36.824 238.85 37.144 238.066 37.144C237.162 37.144 236.462 36.732 235.966 35.908C235.55 35.204 235.342 34.308 235.342 33.22C235.342 32.004 235.618 31.024 236.17 30.28C236.666 29.6 237.298 29.26 238.066 29.26C238.938 29.26 239.63 29.692 240.142 30.556C240.574 31.284 240.79 32.172 240.79 33.22ZM238.054 30.028C237.502 30.028 237.07 30.304 236.758 30.856C236.446 31.408 236.29 32.172 236.29 33.148C236.29 34.188 236.458 34.996 236.794 35.572C237.106 36.1 237.526 36.364 238.054 36.364C238.606 36.364 239.042 36.08 239.362 35.512C239.682 34.936 239.842 34.148 239.842 33.148C239.842 32.124 239.666 31.336 239.314 30.784C239.002 30.28 238.582 30.028 238.054 30.028ZM241.987 37V36.208L244.111 33.88C244.631 33.304 244.995 32.832 245.203 32.464C245.411 32.088 245.515 31.712 245.515 31.336C245.515 30.944 245.379 30.628 245.107 30.388C244.843 30.148 244.491 30.028 244.051 30.028C243.523 30.028 243.003 30.196 242.491 30.532L242.119 30.004C242.783 29.5 243.495 29.248 244.255 29.248C244.927 29.248 245.471 29.46 245.887 29.884C246.271 30.268 246.463 30.752 246.463 31.336C246.463 31.76 246.347 32.176 246.115 32.584C245.891 32.984 245.467 33.532 244.843 34.228L243.031 36.244H246.319V37H241.987ZM247.572 34.624L250.98 29.404H251.916V34.624H253.308V35.38H251.916V37H251.04V35.38H247.572V34.624ZM248.46 34.624H251.04V30.628L248.46 34.624Z" fill="white"/>
<rect x="97" y="103" width="100" height="52" fill="url(#paint1_linear_1466_507)"/>
<rect x="197" y="103" width="100" height="52" fill="url(#paint2_linear_1466_507)"/>
<rect x="297" y="103" width="100" height="52" fill="url(#paint3_linear_1466_507)"/>
<rect x="397" y="103" width="100" height="52" fill="url(#paint4_linear_1466_507)"/>
<path d="M128.17 142.5C128.543 141.133 129.043 139.523 129.67 137.67H131.57V144H130.25V138.86C129.937 140.213 129.423 141.927 128.71 144H127.62C126.867 141.713 126.357 140.017 126.09 138.91V144H124.8V137.67H126.62C127.247 139.377 127.763 140.987 128.17 142.5ZM136.709 144H135.699L135.599 143.57C135.159 143.937 134.712 144.12 134.259 144.12C133.252 144.12 132.749 143.63 132.749 142.65C132.749 142.163 132.959 141.783 133.379 141.51C133.806 141.23 134.436 141.09 135.269 141.09H135.479V141.07C135.479 140.783 135.419 140.587 135.299 140.48C135.179 140.373 134.962 140.32 134.649 140.32C134.209 140.32 133.806 140.46 133.439 140.74C133.319 140.52 133.206 140.303 133.099 140.09C133.479 139.797 133.809 139.6 134.089 139.5C134.376 139.393 134.716 139.34 135.109 139.34C136.176 139.34 136.709 140.007 136.709 141.34V144ZM135.439 141.86H135.289C134.909 141.86 134.602 141.927 134.369 142.06C134.136 142.193 134.019 142.37 134.019 142.59C134.019 143.003 134.199 143.21 134.559 143.21C134.779 143.21 134.972 143.147 135.139 143.02C135.306 142.893 135.406 142.733 135.439 142.54V141.86ZM141.879 143.42C141.405 143.887 140.845 144.12 140.199 144.12C139.425 144.12 138.812 143.873 138.359 143.38C137.965 142.947 137.769 142.403 137.769 141.75C137.769 141.017 138.022 140.417 138.529 139.95C138.969 139.543 139.505 139.34 140.139 139.34C140.839 139.34 141.402 139.56 141.829 140L141.449 140.68C141.109 140.38 140.739 140.23 140.339 140.23C139.965 140.23 139.659 140.377 139.419 140.67C139.179 140.957 139.059 141.327 139.059 141.78C139.059 142.2 139.175 142.547 139.409 142.82C139.649 143.087 139.952 143.22 140.319 143.22C140.759 143.22 141.135 143.057 141.449 142.73L141.879 143.42ZM142.834 138.24L144.094 137.55V140C144.201 139.793 144.421 139.617 144.754 139.47C144.974 139.377 145.181 139.33 145.374 139.33C145.954 139.33 146.374 139.49 146.634 139.81C146.901 140.123 147.034 140.63 147.034 141.33V144H145.774V141.38C145.774 140.727 145.494 140.4 144.934 140.4C144.528 140.4 144.248 140.513 144.094 140.74V144H142.834V138.24ZM149.562 139.46V144H148.292V139.46H149.562ZM148.142 138.3C148.142 138.087 148.215 137.903 148.362 137.75C148.515 137.59 148.695 137.51 148.902 137.51C149.122 137.51 149.309 137.587 149.462 137.74C149.622 137.893 149.702 138.08 149.702 138.3C149.702 138.533 149.625 138.723 149.472 138.87C149.325 139.017 149.135 139.09 148.902 139.09C148.682 139.09 148.499 139.017 148.352 138.87C148.212 138.717 148.142 138.527 148.142 138.3ZM152.082 139.9C152.215 139.747 152.415 139.617 152.682 139.51C152.948 139.397 153.202 139.34 153.442 139.34C154.015 139.34 154.428 139.497 154.682 139.81C154.942 140.123 155.072 140.63 155.072 141.33V144H153.802V141.38C153.802 140.727 153.512 140.4 152.932 140.4C152.785 140.4 152.628 140.433 152.462 140.5C152.295 140.56 152.182 140.63 152.122 140.71V144H150.862V139.46H151.932C151.965 139.633 151.998 139.78 152.032 139.9H152.082ZM160.579 142.14H157.459C157.486 142.447 157.609 142.703 157.829 142.91C158.056 143.11 158.323 143.21 158.629 143.21C159.063 143.21 159.516 143.077 159.989 142.81L160.309 143.48C159.829 143.907 159.229 144.12 158.509 144.12C157.736 144.12 157.133 143.9 156.699 143.46C156.286 143.047 156.079 142.477 156.079 141.75C156.079 141.037 156.313 140.447 156.779 139.98C157.199 139.553 157.733 139.34 158.379 139.34C159.099 139.34 159.659 139.583 160.059 140.07C160.406 140.483 160.579 141.02 160.579 141.68V142.14ZM157.389 141.21H159.319C159.286 140.557 158.969 140.23 158.369 140.23C157.789 140.23 157.463 140.557 157.389 141.21ZM164.293 140.56C163.966 140.347 163.593 140.24 163.173 140.24C162.853 140.24 162.693 140.377 162.693 140.65C162.693 140.903 162.91 141.083 163.343 141.19C163.883 141.323 164.25 141.473 164.443 141.64C164.723 141.88 164.863 142.24 164.863 142.72C164.863 143.147 164.71 143.487 164.403 143.74C164.103 143.993 163.696 144.12 163.183 144.12C162.456 144.12 161.843 143.913 161.343 143.5L161.803 142.8C162.15 143.073 162.566 143.21 163.053 143.21C163.246 143.21 163.403 143.163 163.523 143.07C163.643 142.977 163.703 142.853 163.703 142.7C163.703 142.42 163.466 142.237 162.993 142.15C161.98 141.957 161.473 141.463 161.473 140.67C161.473 140.29 161.626 139.973 161.933 139.72C162.246 139.467 162.636 139.34 163.103 139.34C163.736 139.34 164.286 139.523 164.753 139.89L164.293 140.56Z" fill="white"/>
<path d="M328.17 141.5C328.543 140.133 329.043 138.523 329.67 136.67H331.57V143H330.25V137.86C329.937 139.213 329.423 140.927 328.71 143H327.62C326.867 140.713 326.357 139.017 326.09 137.91V143H324.8V136.67H326.62C327.247 138.377 327.763 139.987 328.17 141.5ZM336.709 143H335.699L335.599 142.57C335.159 142.937 334.712 143.12 334.259 143.12C333.252 143.12 332.749 142.63 332.749 141.65C332.749 141.163 332.959 140.783 333.379 140.51C333.806 140.23 334.436 140.09 335.269 140.09H335.479V140.07C335.479 139.783 335.419 139.587 335.299 139.48C335.179 139.373 334.962 139.32 334.649 139.32C334.209 139.32 333.806 139.46 333.439 139.74C333.319 139.52 333.206 139.303 333.099 139.09C333.479 138.797 333.809 138.6 334.089 138.5C334.376 138.393 334.716 138.34 335.109 138.34C336.176 138.34 336.709 139.007 336.709 140.34V143ZM335.439 140.86H335.289C334.909 140.86 334.602 140.927 334.369 141.06C334.136 141.193 334.019 141.37 334.019 141.59C334.019 142.003 334.199 142.21 334.559 142.21C334.779 142.21 334.972 142.147 335.139 142.02C335.306 141.893 335.406 141.733 335.439 141.54V140.86ZM341.879 142.42C341.405 142.887 340.845 143.12 340.199 143.12C339.425 143.12 338.812 142.873 338.359 142.38C337.965 141.947 337.769 141.403 337.769 140.75C337.769 140.017 338.022 139.417 338.529 138.95C338.969 138.543 339.505 138.34 340.139 138.34C340.839 138.34 341.402 138.56 341.829 139L341.449 139.68C341.109 139.38 340.739 139.23 340.339 139.23C339.965 139.23 339.659 139.377 339.419 139.67C339.179 139.957 339.059 140.327 339.059 140.78C339.059 141.2 339.175 141.547 339.409 141.82C339.649 142.087 339.952 142.22 340.319 142.22C340.759 142.22 341.135 142.057 341.449 141.73L341.879 142.42ZM342.834 137.24L344.094 136.55V139C344.201 138.793 344.421 138.617 344.754 138.47C344.974 138.377 345.181 138.33 345.374 138.33C345.954 138.33 346.374 138.49 346.634 138.81C346.901 139.123 347.034 139.63 347.034 140.33V143H345.774V140.38C345.774 139.727 345.494 139.4 344.934 139.4C344.528 139.4 344.248 139.513 344.094 139.74V143H342.834V137.24ZM349.562 138.46V143H348.292V138.46H349.562ZM348.142 137.3C348.142 137.087 348.215 136.903 348.362 136.75C348.515 136.59 348.695 136.51 348.902 136.51C349.122 136.51 349.309 136.587 349.462 136.74C349.622 136.893 349.702 137.08 349.702 137.3C349.702 137.533 349.625 137.723 349.472 137.87C349.325 138.017 349.135 138.09 348.902 138.09C348.682 138.09 348.499 138.017 348.352 137.87C348.212 137.717 348.142 137.527 348.142 137.3ZM352.082 138.9C352.215 138.747 352.415 138.617 352.682 138.51C352.948 138.397 353.202 138.34 353.442 138.34C354.015 138.34 354.428 138.497 354.682 138.81C354.942 139.123 355.072 139.63 355.072 140.33V143H353.802V140.38C353.802 139.727 353.512 139.4 352.932 139.4C352.785 139.4 352.628 139.433 352.462 139.5C352.295 139.56 352.182 139.63 352.122 139.71V143H350.862V138.46H351.932C351.965 138.633 351.998 138.78 352.032 138.9H352.082ZM360.579 141.14H357.459C357.486 141.447 357.609 141.703 357.829 141.91C358.056 142.11 358.323 142.21 358.629 142.21C359.063 142.21 359.516 142.077 359.989 141.81L360.309 142.48C359.829 142.907 359.229 143.12 358.509 143.12C357.736 143.12 357.133 142.9 356.699 142.46C356.286 142.047 356.079 141.477 356.079 140.75C356.079 140.037 356.313 139.447 356.779 138.98C357.199 138.553 357.733 138.34 358.379 138.34C359.099 138.34 359.659 138.583 360.059 139.07C360.406 139.483 360.579 140.02 360.579 140.68V141.14ZM357.389 140.21H359.319C359.286 139.557 358.969 139.23 358.369 139.23C357.789 139.23 357.463 139.557 357.389 140.21ZM364.293 139.56C363.966 139.347 363.593 139.24 363.173 139.24C362.853 139.24 362.693 139.377 362.693 139.65C362.693 139.903 362.91 140.083 363.343 140.19C363.883 140.323 364.25 140.473 364.443 140.64C364.723 140.88 364.863 141.24 364.863 141.72C364.863 142.147 364.71 142.487 364.403 142.74C364.103 142.993 363.696 143.12 363.183 143.12C362.456 143.12 361.843 142.913 361.343 142.5L361.803 141.8C362.15 142.073 362.566 142.21 363.053 142.21C363.246 142.21 363.403 142.163 363.523 142.07C363.643 141.977 363.703 141.853 363.703 141.7C363.703 141.42 363.466 141.237 362.993 141.15C361.98 140.957 361.473 140.463 361.473 139.67C361.473 139.29 361.626 138.973 361.933 138.72C362.246 138.467 362.636 138.34 363.103 138.34C363.736 138.34 364.286 138.523 364.753 138.89L364.293 139.56Z" fill="white"/>
<path d="M428.17 140.5C428.543 139.133 429.043 137.523 429.67 135.67H431.57V142H430.25V136.86C429.937 138.213 429.423 139.927 428.71 142H427.62C426.867 139.713 426.357 138.017 426.09 136.91V142H424.8V135.67H426.62C427.247 137.377 427.763 138.987 428.17 140.5ZM436.709 142H435.699L435.599 141.57C435.159 141.937 434.712 142.12 434.259 142.12C433.252 142.12 432.749 141.63 432.749 140.65C432.749 140.163 432.959 139.783 433.379 139.51C433.806 139.23 434.436 139.09 435.269 139.09H435.479V139.07C435.479 138.783 435.419 138.587 435.299 138.48C435.179 138.373 434.962 138.32 434.649 138.32C434.209 138.32 433.806 138.46 433.439 138.74C433.319 138.52 433.206 138.303 433.099 138.09C433.479 137.797 433.809 137.6 434.089 137.5C434.376 137.393 434.716 137.34 435.109 137.34C436.176 137.34 436.709 138.007 436.709 139.34V142ZM435.439 139.86H435.289C434.909 139.86 434.602 139.927 434.369 140.06C434.136 140.193 434.019 140.37 434.019 140.59C434.019 141.003 434.199 141.21 434.559 141.21C434.779 141.21 434.972 141.147 435.139 141.02C435.306 140.893 435.406 140.733 435.439 140.54V139.86ZM441.879 141.42C441.405 141.887 440.845 142.12 440.199 142.12C439.425 142.12 438.812 141.873 438.359 141.38C437.965 140.947 437.769 140.403 437.769 139.75C437.769 139.017 438.022 138.417 438.529 137.95C438.969 137.543 439.505 137.34 440.139 137.34C440.839 137.34 441.402 137.56 441.829 138L441.449 138.68C441.109 138.38 440.739 138.23 440.339 138.23C439.965 138.23 439.659 138.377 439.419 138.67C439.179 138.957 439.059 139.327 439.059 139.78C439.059 140.2 439.175 140.547 439.409 140.82C439.649 141.087 439.952 141.22 440.319 141.22C440.759 141.22 441.135 141.057 441.449 140.73L441.879 141.42ZM442.834 136.24L444.094 135.55V138C444.201 137.793 444.421 137.617 444.754 137.47C444.974 137.377 445.181 137.33 445.374 137.33C445.954 137.33 446.374 137.49 446.634 137.81C446.901 138.123 447.034 138.63 447.034 139.33V142H445.774V139.38C445.774 138.727 445.494 138.4 444.934 138.4C444.528 138.4 444.248 138.513 444.094 138.74V142H442.834V136.24ZM449.562 137.46V142H448.292V137.46H449.562ZM448.142 136.3C448.142 136.087 448.215 135.903 448.362 135.75C448.515 135.59 448.695 135.51 448.902 135.51C449.122 135.51 449.309 135.587 449.462 135.74C449.622 135.893 449.702 136.08 449.702 136.3C449.702 136.533 449.625 136.723 449.472 136.87C449.325 137.017 449.135 137.09 448.902 137.09C448.682 137.09 448.499 137.017 448.352 136.87C448.212 136.717 448.142 136.527 448.142 136.3ZM452.082 137.9C452.215 137.747 452.415 137.617 452.682 137.51C452.948 137.397 453.202 137.34 453.442 137.34C454.015 137.34 454.428 137.497 454.682 137.81C454.942 138.123 455.072 138.63 455.072 139.33V142H453.802V139.38C453.802 138.727 453.512 138.4 452.932 138.4C452.785 138.4 452.628 138.433 452.462 138.5C452.295 138.56 452.182 138.63 452.122 138.71V142H450.862V137.46H451.932C451.965 137.633 451.998 137.78 452.032 137.9H452.082ZM460.579 140.14H457.459C457.486 140.447 457.609 140.703 457.829 140.91C458.056 141.11 458.323 141.21 458.629 141.21C459.063 141.21 459.516 141.077 459.989 140.81L460.309 141.48C459.829 141.907 459.229 142.12 458.509 142.12C457.736 142.12 457.133 141.9 456.699 141.46C456.286 141.047 456.079 140.477 456.079 139.75C456.079 139.037 456.313 138.447 456.779 137.98C457.199 137.553 457.733 137.34 458.379 137.34C459.099 137.34 459.659 137.583 460.059 138.07C460.406 138.483 460.579 139.02 460.579 139.68V140.14ZM457.389 139.21H459.319C459.286 138.557 458.969 138.23 458.369 138.23C457.789 138.23 457.463 138.557 457.389 139.21ZM464.293 138.56C463.966 138.347 463.593 138.24 463.173 138.24C462.853 138.24 462.693 138.377 462.693 138.65C462.693 138.903 462.91 139.083 463.343 139.19C463.883 139.323 464.25 139.473 464.443 139.64C464.723 139.88 464.863 140.24 464.863 140.72C464.863 141.147 464.71 141.487 464.403 141.74C464.103 141.993 463.696 142.12 463.183 142.12C462.456 142.12 461.843 141.913 461.343 141.5L461.803 140.8C462.15 141.073 462.566 141.21 463.053 141.21C463.246 141.21 463.403 141.163 463.523 141.07C463.643 140.977 463.703 140.853 463.703 140.7C463.703 140.42 463.466 140.237 462.993 140.15C461.98 139.957 461.473 139.463 461.473 138.67C461.473 138.29 461.626 137.973 461.933 137.72C462.246 137.467 462.636 137.34 463.103 137.34C463.736 137.34 464.286 137.523 464.753 137.89L464.293 138.56Z" fill="white"/>
<path d="M228.17 142.5C228.543 141.133 229.043 139.523 229.67 137.67H231.57V144H230.25V138.86C229.937 140.213 229.423 141.927 228.71 144H227.62C226.867 141.713 226.357 140.017 226.09 138.91V144H224.8V137.67H226.62C227.247 139.377 227.763 140.987 228.17 142.5ZM236.709 144H235.699L235.599 143.57C235.159 143.937 234.712 144.12 234.259 144.12C233.252 144.12 232.749 143.63 232.749 142.65C232.749 142.163 232.959 141.783 233.379 141.51C233.806 141.23 234.436 141.09 235.269 141.09H235.479V141.07C235.479 140.783 235.419 140.587 235.299 140.48C235.179 140.373 234.962 140.32 234.649 140.32C234.209 140.32 233.806 140.46 233.439 140.74C233.319 140.52 233.206 140.303 233.099 140.09C233.479 139.797 233.809 139.6 234.089 139.5C234.376 139.393 234.716 139.34 235.109 139.34C236.176 139.34 236.709 140.007 236.709 141.34V144ZM235.439 141.86H235.289C234.909 141.86 234.602 141.927 234.369 142.06C234.136 142.193 234.019 142.37 234.019 142.59C234.019 143.003 234.199 143.21 234.559 143.21C234.779 143.21 234.972 143.147 235.139 143.02C235.306 142.893 235.406 142.733 235.439 142.54V141.86ZM241.879 143.42C241.405 143.887 240.845 144.12 240.199 144.12C239.425 144.12 238.812 143.873 238.359 143.38C237.965 142.947 237.769 142.403 237.769 141.75C237.769 141.017 238.022 140.417 238.529 139.95C238.969 139.543 239.505 139.34 240.139 139.34C240.839 139.34 241.402 139.56 241.829 140L241.449 140.68C241.109 140.38 240.739 140.23 240.339 140.23C239.965 140.23 239.659 140.377 239.419 140.67C239.179 140.957 239.059 141.327 239.059 141.78C239.059 142.2 239.175 142.547 239.409 142.82C239.649 143.087 239.952 143.22 240.319 143.22C240.759 143.22 241.135 143.057 241.449 142.73L241.879 143.42ZM242.834 138.24L244.094 137.55V140C244.201 139.793 244.421 139.617 244.754 139.47C244.974 139.377 245.181 139.33 245.374 139.33C245.954 139.33 246.374 139.49 246.634 139.81C246.901 140.123 247.034 140.63 247.034 141.33V144H245.774V141.38C245.774 140.727 245.494 140.4 244.934 140.4C244.528 140.4 244.248 140.513 244.094 140.74V144H242.834V138.24ZM249.562 139.46V144H248.292V139.46H249.562ZM248.142 138.3C248.142 138.087 248.215 137.903 248.362 137.75C248.515 137.59 248.695 137.51 248.902 137.51C249.122 137.51 249.309 137.587 249.462 137.74C249.622 137.893 249.702 138.08 249.702 138.3C249.702 138.533 249.625 138.723 249.472 138.87C249.325 139.017 249.135 139.09 248.902 139.09C248.682 139.09 248.499 139.017 248.352 138.87C248.212 138.717 248.142 138.527 248.142 138.3ZM252.082 139.9C252.215 139.747 252.415 139.617 252.682 139.51C252.948 139.397 253.202 139.34 253.442 139.34C254.015 139.34 254.428 139.497 254.682 139.81C254.942 140.123 255.072 140.63 255.072 141.33V144H253.802V141.38C253.802 140.727 253.512 140.4 252.932 140.4C252.785 140.4 252.628 140.433 252.462 140.5C252.295 140.56 252.182 140.63 252.122 140.71V144H250.862V139.46H251.932C251.965 139.633 251.998 139.78 252.032 139.9H252.082ZM260.579 142.14H257.459C257.486 142.447 257.609 142.703 257.829 142.91C258.056 143.11 258.323 143.21 258.629 143.21C259.063 143.21 259.516 143.077 259.989 142.81L260.309 143.48C259.829 143.907 259.229 144.12 258.509 144.12C257.736 144.12 257.133 143.9 256.699 143.46C256.286 143.047 256.079 142.477 256.079 141.75C256.079 141.037 256.313 140.447 256.779 139.98C257.199 139.553 257.733 139.34 258.379 139.34C259.099 139.34 259.659 139.583 260.059 140.07C260.406 140.483 260.579 141.02 260.579 141.68V142.14ZM257.389 141.21H259.319C259.286 140.557 258.969 140.23 258.369 140.23C257.789 140.23 257.463 140.557 257.389 141.21ZM264.293 140.56C263.966 140.347 263.593 140.24 263.173 140.24C262.853 140.24 262.693 140.377 262.693 140.65C262.693 140.903 262.91 141.083 263.343 141.19C263.883 141.323 264.25 141.473 264.443 141.64C264.723 141.88 264.863 142.24 264.863 142.72C264.863 143.147 264.71 143.487 264.403 143.74C264.103 143.993 263.696 144.12 263.183 144.12C262.456 144.12 261.843 143.913 261.343 143.5L261.803 142.8C262.15 143.073 262.566 143.21 263.053 143.21C263.246 143.21 263.403 143.163 263.523 143.07C263.643 142.977 263.703 142.853 263.703 142.7C263.703 142.42 263.466 142.237 262.993 142.15C261.98 141.957 261.473 141.463 261.473 140.67C261.473 140.29 261.626 139.973 261.933 139.72C262.246 139.467 262.636 139.34 263.103 139.34C263.736 139.34 264.286 139.523 264.753 139.89L264.293 140.56Z" fill="white"/>
<path d="M124.448 125.208H122.168V122.664H124.448C125.088 122.664 125.528 122.576 125.768 122.4C126.136 122.128 126.32 121.64 126.32 120.936C126.32 120.392 126.16 119.96 125.84 119.64C125.52 119.304 125.088 119.136 124.544 119.136C123.568 119.136 122.552 119.584 121.496 120.48L120.344 118.464C121.672 117.168 123.176 116.52 124.856 116.52C126.264 116.52 127.416 116.912 128.312 117.696C129.176 118.464 129.608 119.456 129.608 120.672C129.608 122.176 128.984 123.184 127.736 123.696C129.352 124.32 130.16 125.52 130.16 127.296C130.16 129.168 129.52 130.528 128.24 131.376C127.344 131.968 126.224 132.264 124.88 132.264C124.144 132.264 123.304 132.072 122.36 131.688C121.432 131.288 120.672 130.808 120.08 130.248L121.352 128.352C122.216 129.136 123.32 129.528 124.664 129.528C125.352 129.528 125.896 129.336 126.296 128.952C126.696 128.552 126.896 128.016 126.896 127.344C126.896 125.92 126.08 125.208 124.448 125.208ZM137.79 116.52C139.646 116.52 141.134 117.408 142.254 119.184C143.198 120.656 143.67 122.408 143.67 124.44C143.67 126.888 143.07 128.848 141.87 130.32C140.814 131.632 139.454 132.288 137.79 132.288C135.886 132.288 134.398 131.44 133.326 129.744C132.43 128.336 131.982 126.568 131.982 124.44C131.982 122.072 132.574 120.128 133.758 118.608C134.83 117.216 136.174 116.52 137.79 116.52ZM137.838 119.208C136.11 119.208 135.246 120.904 135.246 124.296C135.246 126.008 135.494 127.352 135.99 128.328C136.438 129.208 137.03 129.648 137.766 129.648C138.582 129.648 139.222 129.176 139.686 128.232C140.166 127.272 140.406 125.96 140.406 124.296C140.406 120.904 139.55 119.208 137.838 119.208ZM151.314 116.52C153.17 116.52 154.658 117.408 155.778 119.184C156.722 120.656 157.194 122.408 157.194 124.44C157.194 126.888 156.594 128.848 155.394 130.32C154.338 131.632 152.978 132.288 151.314 132.288C149.41 132.288 147.922 131.44 146.85 129.744C145.954 128.336 145.506 126.568 145.506 124.44C145.506 122.072 146.098 120.128 147.282 118.608C148.354 117.216 149.698 116.52 151.314 116.52ZM151.362 119.208C149.634 119.208 148.77 120.904 148.77 124.296C148.77 126.008 149.018 127.352 149.514 128.328C149.962 129.208 150.554 129.648 151.29 129.648C152.106 129.648 152.746 129.176 153.21 128.232C153.69 127.272 153.93 125.96 153.93 124.296C153.93 120.904 153.074 119.208 151.362 119.208ZM164.837 116.52C166.693 116.52 168.181 117.408 169.301 119.184C170.245 120.656 170.717 122.408 170.717 124.44C170.717 126.888 170.117 128.848 168.917 130.32C167.861 131.632 166.501 132.288 164.837 132.288C162.933 132.288 161.445 131.44 160.373 129.744C159.477 128.336 159.029 126.568 159.029 124.44C159.029 122.072 159.621 120.128 160.805 118.608C161.877 117.216 163.221 116.52 164.837 116.52ZM164.885 119.208C163.157 119.208 162.293 120.904 162.293 124.296C162.293 126.008 162.541 127.352 163.037 128.328C163.485 129.208 164.077 129.648 164.813 129.648C165.629 129.648 166.269 129.176 166.733 128.232C167.213 127.272 167.453 125.96 167.453 124.296C167.453 120.904 166.597 119.208 164.885 119.208Z" fill="white"/>
<path d="M419.448 124.208H417.168V121.664H419.448C420.088 121.664 420.528 121.576 420.768 121.4C421.136 121.128 421.32 120.64 421.32 119.936C421.32 119.392 421.16 118.96 420.84 118.64C420.52 118.304 420.088 118.136 419.544 118.136C418.568 118.136 417.552 118.584 416.496 119.48L415.344 117.464C416.672 116.168 418.176 115.52 419.856 115.52C421.264 115.52 422.416 115.912 423.312 116.696C424.176 117.464 424.608 118.456 424.608 119.672C424.608 121.176 423.984 122.184 422.736 122.696C424.352 123.32 425.16 124.52 425.16 126.296C425.16 128.168 424.52 129.528 423.24 130.376C422.344 130.968 421.224 131.264 419.88 131.264C419.144 131.264 418.304 131.072 417.36 130.688C416.432 130.288 415.672 129.808 415.08 129.248L416.352 127.352C417.216 128.136 418.32 128.528 419.664 128.528C420.352 128.528 420.896 128.336 421.296 127.952C421.696 127.552 421.896 127.016 421.896 126.344C421.896 124.92 421.08 124.208 419.448 124.208ZM432.79 115.52C434.646 115.52 436.134 116.408 437.254 118.184C438.198 119.656 438.67 121.408 438.67 123.44C438.67 125.888 438.07 127.848 436.87 129.32C435.814 130.632 434.454 131.288 432.79 131.288C430.886 131.288 429.398 130.44 428.326 128.744C427.43 127.336 426.982 125.568 426.982 123.44C426.982 121.072 427.574 119.128 428.758 117.608C429.83 116.216 431.174 115.52 432.79 115.52ZM432.838 118.208C431.11 118.208 430.246 119.904 430.246 123.296C430.246 125.008 430.494 126.352 430.99 127.328C431.438 128.208 432.03 128.648 432.766 128.648C433.582 128.648 434.222 128.176 434.686 127.232C435.166 126.272 435.406 124.96 435.406 123.296C435.406 119.904 434.55 118.208 432.838 118.208ZM446.314 115.52C448.17 115.52 449.658 116.408 450.778 118.184C451.722 119.656 452.194 121.408 452.194 123.44C452.194 125.888 451.594 127.848 450.394 129.32C449.338 130.632 447.978 131.288 446.314 131.288C444.41 131.288 442.922 130.44 441.85 128.744C440.954 127.336 440.506 125.568 440.506 123.44C440.506 121.072 441.098 119.128 442.282 117.608C443.354 116.216 444.698 115.52 446.314 115.52ZM446.362 118.208C444.634 118.208 443.77 119.904 443.77 123.296C443.77 125.008 444.018 126.352 444.514 127.328C444.962 128.208 445.554 128.648 446.29 128.648C447.106 128.648 447.746 128.176 448.21 127.232C448.69 126.272 448.93 124.96 448.93 123.296C448.93 119.904 448.074 118.208 446.362 118.208ZM459.837 115.52C461.693 115.52 463.181 116.408 464.301 118.184C465.245 119.656 465.717 121.408 465.717 123.44C465.717 125.888 465.117 127.848 463.917 129.32C462.861 130.632 461.501 131.288 459.837 131.288C457.933 131.288 456.445 130.44 455.373 128.744C454.477 127.336 454.029 125.568 454.029 123.44C454.029 121.072 454.621 119.128 455.805 117.608C456.877 116.216 458.221 115.52 459.837 115.52ZM459.885 118.208C458.157 118.208 457.293 119.904 457.293 123.296C457.293 125.008 457.541 126.352 458.037 127.328C458.485 128.208 459.077 128.648 459.813 128.648C460.629 128.648 461.269 128.176 461.733 127.232C462.213 126.272 462.453 124.96 462.453 123.296C462.453 119.904 461.597 118.208 459.885 118.208ZM473.361 115.52C475.217 115.52 476.705 116.408 477.825 118.184C478.769 119.656 479.241 121.408 479.241 123.44C479.241 125.888 478.641 127.848 477.441 129.32C476.385 130.632 475.025 131.288 473.361 131.288C471.457 131.288 469.969 130.44 468.897 128.744C468.001 127.336 467.553 125.568 467.553 123.44C467.553 121.072 468.145 119.128 469.329 117.608C470.401 116.216 471.745 115.52 473.361 115.52ZM473.409 118.208C471.681 118.208 470.817 119.904 470.817 123.296C470.817 125.008 471.065 126.352 471.561 127.328C472.009 128.208 472.601 128.648 473.337 128.648C474.153 128.648 474.793 128.176 475.257 127.232C475.737 126.272 475.977 124.96 475.977 123.296C475.977 119.904 475.121 118.208 473.409 118.208Z" fill="white"/>
<path d="M325.936 117.808V133H322.792V121.384C322.568 121.528 322.24 121.728 321.808 121.984C321.184 122.352 320.736 122.632 320.464 122.824C320.256 122.472 319.904 121.888 319.408 121.072L319.264 120.856C319.152 120.648 319.064 120.496 319 120.4C319.512 120.032 320.32 119.48 321.424 118.744C322 118.36 322.456 118.048 322.792 117.808H325.936ZM337.891 120.328H332.587V123.4C332.779 123.32 333.043 123.28 333.379 123.28C335.139 123.28 336.507 123.72 337.483 124.6C338.411 125.448 338.875 126.608 338.875 128.08C338.875 129.632 338.299 130.92 337.147 131.944C336.139 132.84 334.915 133.288 333.475 133.288C331.555 133.288 329.883 132.592 328.459 131.2L329.755 129.208C330.923 130.088 332.051 130.528 333.139 130.528C334.819 130.528 335.659 129.776 335.659 128.272C335.659 126.592 334.579 125.752 332.419 125.752C331.667 125.752 330.683 125.888 329.467 126.16V117.808H337.891V120.328ZM346.509 117.52C348.365 117.52 349.853 118.408 350.973 120.184C351.917 121.656 352.389 123.408 352.389 125.44C352.389 127.888 351.789 129.848 350.589 131.32C349.533 132.632 348.173 133.288 346.509 133.288C344.605 133.288 343.117 132.44 342.045 130.744C341.149 129.336 340.701 127.568 340.701 125.44C340.701 123.072 341.293 121.128 342.477 119.608C343.549 118.216 344.893 117.52 346.509 117.52ZM346.557 120.208C344.829 120.208 343.965 121.904 343.965 125.296C343.965 127.008 344.213 128.352 344.709 129.328C345.157 130.208 345.749 130.648 346.485 130.648C347.301 130.648 347.941 130.176 348.405 129.232C348.885 128.272 349.125 126.96 349.125 125.296C349.125 121.904 348.269 120.208 346.557 120.208ZM360.033 117.52C361.889 117.52 363.377 118.408 364.497 120.184C365.441 121.656 365.913 123.408 365.913 125.44C365.913 127.888 365.313 129.848 364.113 131.32C363.057 132.632 361.697 133.288 360.033 133.288C358.129 133.288 356.641 132.44 355.569 130.744C354.673 129.336 354.225 127.568 354.225 125.44C354.225 123.072 354.817 121.128 356.001 119.608C357.073 118.216 358.417 117.52 360.033 117.52ZM360.081 120.208C358.353 120.208 357.489 121.904 357.489 125.296C357.489 127.008 357.737 128.352 358.233 129.328C358.681 130.208 359.273 130.648 360.009 130.648C360.825 130.648 361.465 130.176 361.929 129.232C362.409 128.272 362.649 126.96 362.649 125.296C362.649 121.904 361.793 120.208 360.081 120.208ZM373.556 117.52C375.412 117.52 376.9 118.408 378.02 120.184C378.964 121.656 379.436 123.408 379.436 125.44C379.436 127.888 378.836 129.848 377.636 131.32C376.58 132.632 375.22 133.288 373.556 133.288C371.652 133.288 370.164 132.44 369.092 130.744C368.196 129.336 367.748 127.568 367.748 125.44C367.748 123.072 368.34 121.128 369.524 119.608C370.596 118.216 371.94 117.52 373.556 117.52ZM373.604 120.208C371.876 120.208 371.012 121.904 371.012 125.296C371.012 127.008 371.26 128.352 371.756 129.328C372.204 130.208 372.796 130.648 373.532 130.648C374.348 130.648 374.988 130.176 375.452 129.232C375.932 128.272 376.172 126.96 376.172 125.296C376.172 121.904 375.316 120.208 373.604 120.208Z" fill="white"/>
<path d="M229.336 120.328H223.768V117.808H232.744V120.208L227.224 133H223.912L229.336 120.328ZM243.134 120.328H237.83V123.4C238.022 123.32 238.286 123.28 238.622 123.28C240.382 123.28 241.75 123.72 242.726 124.6C243.654 125.448 244.118 126.608 244.118 128.08C244.118 129.632 243.542 130.92 242.39 131.944C241.382 132.84 240.158 133.288 238.718 133.288C236.798 133.288 235.126 132.592 233.702 131.2L234.998 129.208C236.166 130.088 237.294 130.528 238.382 130.528C240.062 130.528 240.902 129.776 240.902 128.272C240.902 126.592 239.822 125.752 237.662 125.752C236.91 125.752 235.926 125.888 234.71 126.16V117.808H243.134V120.328ZM251.751 117.52C253.607 117.52 255.095 118.408 256.215 120.184C257.159 121.656 257.631 123.408 257.631 125.44C257.631 127.888 257.031 129.848 255.831 131.32C254.775 132.632 253.415 133.288 251.751 133.288C249.847 133.288 248.359 132.44 247.287 130.744C246.391 129.336 245.943 127.568 245.943 125.44C245.943 123.072 246.535 121.128 247.719 119.608C248.791 118.216 250.135 117.52 251.751 117.52ZM251.799 120.208C250.071 120.208 249.207 121.904 249.207 125.296C249.207 127.008 249.455 128.352 249.951 129.328C250.399 130.208 250.991 130.648 251.727 130.648C252.543 130.648 253.183 130.176 253.647 129.232C254.127 128.272 254.367 126.96 254.367 125.296C254.367 121.904 253.511 120.208 251.799 120.208ZM265.275 117.52C267.131 117.52 268.619 118.408 269.739 120.184C270.683 121.656 271.155 123.408 271.155 125.44C271.155 127.888 270.555 129.848 269.355 131.32C268.299 132.632 266.939 133.288 265.275 133.288C263.371 133.288 261.883 132.44 260.811 130.744C259.915 129.336 259.467 127.568 259.467 125.44C259.467 123.072 260.059 121.128 261.243 119.608C262.315 118.216 263.659 117.52 265.275 117.52ZM265.323 120.208C263.595 120.208 262.731 121.904 262.731 125.296C262.731 127.008 262.979 128.352 263.475 129.328C263.923 130.208 264.515 130.648 265.251 130.648C266.067 130.648 266.707 130.176 267.171 129.232C267.651 128.272 267.891 126.96 267.891 125.296C267.891 121.904 267.035 120.208 265.323 120.208Z" fill="white"/>
<path d="M271.496 1.542C271.28 1.866 270.944 2.352 270.488 3C269.528 2.58 268.67 2.37 267.914 2.37C266.918 2.37 266.42 2.742 266.42 3.486C266.42 3.822 266.534 4.086 266.762 4.278C266.99 4.47 267.464 4.704 268.184 4.98C269.48 5.484 270.41 6.03 270.974 6.618C271.55 7.206 271.838 7.914 271.838 8.742C271.838 9.906 271.4 10.806 270.524 11.442C269.804 11.958 268.91 12.216 267.842 12.216C266.582 12.216 265.238 11.76 263.81 10.848L264.854 9.39C265.55 9.858 266.444 10.092 267.536 10.092C268.772 10.092 269.39 9.594 269.39 8.598C269.39 7.95 268.724 7.398 267.392 6.942C265.244 6.222 264.17 5.07 264.17 3.486C264.17 2.526 264.53 1.764 265.25 1.2C265.922 0.659999 266.816 0.389999 267.932 0.389999C269.204 0.389999 270.392 0.773999 271.496 1.542ZM281.011 3.828C280.531 5.172 279.871 6.978 279.031 9.246C278.419 10.938 277.939 12.252 277.591 13.188C277.027 14.688 276.235 15.438 275.215 15.438C274.423 15.438 273.607 15.096 272.767 14.412C273.007 14.004 273.211 13.644 273.379 13.332C273.823 13.62 274.213 13.764 274.549 13.764C275.041 13.764 275.479 13.176 275.863 12H275.431L272.569 3.828H274.819C274.951 4.224 275.155 4.842 275.431 5.682L275.539 5.97C276.055 7.53 276.427 8.676 276.655 9.408L278.743 3.828H281.011ZM287.275 5.808C286.687 5.424 286.015 5.232 285.259 5.232C284.683 5.232 284.395 5.478 284.395 5.97C284.395 6.426 284.785 6.75 285.565 6.942C286.537 7.182 287.197 7.452 287.545 7.752C288.049 8.184 288.301 8.832 288.301 9.696C288.301 10.464 288.025 11.076 287.473 11.532C286.933 11.988 286.201 12.216 285.277 12.216C283.969 12.216 282.865 11.844 281.965 11.1L282.793 9.84C283.417 10.332 284.167 10.578 285.043 10.578C285.391 10.578 285.673 10.494 285.889 10.326C286.105 10.158 286.213 9.936 286.213 9.66C286.213 9.156 285.787 8.826 284.935 8.67C283.111 8.322 282.199 7.434 282.199 6.006C282.199 5.322 282.475 4.752 283.027 4.296C283.591 3.84 284.293 3.612 285.133 3.612C286.273 3.612 287.263 3.942 288.103 4.602L287.275 5.808ZM295.316 5.646H292.976V9.696C292.976 10.296 293.174 10.596 293.57 10.596C293.93 10.596 294.38 10.44 294.92 10.128L295.676 11.28C294.824 11.952 293.882 12.288 292.85 12.288C291.41 12.288 290.69 11.496 290.69 9.912V5.646H289.556V3.828H290.708V2.37C291.308 2.046 292.07 1.644 292.994 1.164V3.828H295.316V5.646ZM304.743 8.652H299.127C299.175 9.204 299.397 9.666 299.793 10.038C300.201 10.398 300.681 10.578 301.233 10.578C302.013 10.578 302.829 10.338 303.681 9.858L304.257 11.064C303.393 11.832 302.313 12.216 301.017 12.216C299.625 12.216 298.539 11.82 297.759 11.028C297.015 10.284 296.643 9.258 296.643 7.95C296.643 6.666 297.063 5.604 297.903 4.764C298.659 3.996 299.619 3.612 300.783 3.612C302.079 3.612 303.087 4.05 303.807 4.926C304.431 5.67 304.743 6.636 304.743 7.824V8.652ZM299.001 6.978H302.475C302.415 5.802 301.845 5.214 300.765 5.214C299.721 5.214 299.133 5.802 299.001 6.978ZM308.836 4.62C309.508 3.948 310.348 3.612 311.356 3.612C312.052 3.612 312.664 3.762 313.192 4.062C313.732 4.35 314.104 4.74 314.308 5.232C314.572 4.752 314.98 4.362 315.532 4.062C316.096 3.762 316.708 3.612 317.368 3.612C319.288 3.612 320.248 4.776 320.248 7.104V12H317.962V7.716C317.962 6.912 317.842 6.348 317.602 6.024C317.374 5.688 316.984 5.52 316.432 5.52C315.64 5.52 314.998 5.832 314.506 6.456V12H312.238V7.464C312.238 6.756 312.112 6.258 311.86 5.97C311.608 5.67 311.176 5.52 310.564 5.52C310.204 5.52 309.862 5.574 309.538 5.682C309.226 5.79 309.022 5.922 308.926 6.078V12H306.658V3.828H308.584L308.746 4.62H308.836Z" fill="white"/>
<circle cx="439.5" cy="52.5" r="2.5" fill="#D9D9D9"/>
<circle cx="344.5" cy="63.5" r="2.5" fill="#D9D9D9"/>
<circle cx="243.5" cy="72.5" r="2.5" fill="#D9D9D9"/>
<path d="M344.5 62L358.789 104H330.211L344.5 62Z" fill="url(#paint5_linear_1466_507)"/>
<path d="M346.5 68L364.508 104.024L357.51 104.018L346.5 68Z" fill="#060E07"/>
<path d="M243.5 71L257.789 104H229.211L243.5 71Z" fill="url(#paint6_linear_1466_507)"/>
<path d="M245.5 75.7138L263.508 104.019L256.51 104.013L245.5 75.7138Z" fill="#05350F"/>
<path d="M439.5 52L453.789 103.75H425.211L439.5 52Z" fill="url(#paint7_linear_1466_507)"/>
<path d="M441.5 59.393L459.508 103.78L452.51 103.772L441.5 59.393Z" fill="#6CAD8A"/>
<circle cx="143.5" cy="83.5" r="2.5" fill="#D9D9D9"/>
<path d="M143.5 83L157.789 104H129.211L143.5 83Z" fill="url(#paint8_linear_1466_507)"/>
<path d="M145.5 86L163.508 104.012L156.51 104.009L145.5 86Z" fill="#A8F89B"/>
<line x1="142.945" y1="83.503" x2="242.945" y2="72.503" stroke="white" stroke-opacity="0.5"/>
<line x1="242.956" y1="72.502" x2="343.956" y2="63.502" stroke="white" stroke-opacity="0.5"/>
<line x1="343.943" y1="63.5033" x2="439.943" y2="52.5033" stroke="white" stroke-opacity="0.5"/>
<defs>
<linearGradient id="paint0_linear_1466_507" x1="586" y1="155" x2="0" y2="155" gradientUnits="userSpaceOnUse">
<stop stop-color="#3AFF36"/>
<stop offset="0.473958" stop-color="#005308"/>
<stop offset="1" stop-color="#56FF7B"/>
</linearGradient>
<linearGradient id="paint1_linear_1466_507" x1="60.5" y1="129" x2="229" y2="129" gradientUnits="userSpaceOnUse">
<stop stop-color="#373636"/>
<stop offset="1" stop-color="#5D5F69"/>
</linearGradient>
<linearGradient id="paint2_linear_1466_507" x1="160.5" y1="129" x2="329" y2="129" gradientUnits="userSpaceOnUse">
<stop stop-color="#373636"/>
<stop offset="1" stop-color="#5D5F69"/>
</linearGradient>
<linearGradient id="paint3_linear_1466_507" x1="260.5" y1="129" x2="429" y2="129" gradientUnits="userSpaceOnUse">
<stop stop-color="#373636"/>
<stop offset="1" stop-color="#5D5F69"/>
</linearGradient>
<linearGradient id="paint4_linear_1466_507" x1="360.5" y1="129" x2="529" y2="129" gradientUnits="userSpaceOnUse">
<stop stop-color="#373636"/>
<stop offset="1" stop-color="#5D5F69"/>
</linearGradient>
<linearGradient id="paint5_linear_1466_507" x1="344.5" y1="62" x2="344.5" y2="118" gradientUnits="userSpaceOnUse">
<stop stop-color="#3ED84D"/>
<stop offset="0.721971" stop-color="#266329"/>
<stop offset="1" stop-color="#1D361A"/>
</linearGradient>
<linearGradient id="paint6_linear_1466_507" x1="243.5" y1="71" x2="243.5" y2="115" gradientUnits="userSpaceOnUse">
<stop stop-color="#218D1F"/>
<stop offset="1" stop-color="#041007"/>
</linearGradient>
<linearGradient id="paint7_linear_1466_507" x1="439.5" y1="52" x2="439.5" y2="121" gradientUnits="userSpaceOnUse">
<stop stop-color="#1FFF50"/>
<stop offset="0.545427" stop-color="#1FF0B0" stop-opacity="0.454573"/>
<stop offset="1" stop-color="#1FE4FF" stop-opacity="0"/>
</linearGradient>
<linearGradient id="paint8_linear_1466_507" x1="143.5" y1="83" x2="143.5" y2="111" gradientUnits="userSpaceOnUse">
<stop stop-color="#1FFF5E"/>
<stop offset="1" stop-color="#1FF2FF" stop-opacity="0"/>
</linearGradient>
</defs>
</svg>
