<svg width="586" height="224" viewBox="0 0 586 224" fill="none" xmlns="http://www.w3.org/2000/svg">
<path d="M494.468 205.404V213H492.896V207.192C492.784 207.264 492.62 207.364 492.404 207.492C492.092 207.676 491.868 207.816 491.732 207.912C491.628 207.736 491.452 207.444 491.204 207.036L491.132 206.928C491.076 206.824 491.032 206.748 491 206.7C491.256 206.516 491.66 206.24 492.212 205.872C492.5 205.68 492.728 205.524 492.896 205.404H494.468ZM498.898 205.404V213H497.326V207.192C497.214 207.264 497.05 207.364 496.834 207.492C496.522 207.676 496.298 207.816 496.162 207.912C496.058 207.736 495.882 207.444 495.634 207.036L495.562 206.928C495.506 206.824 495.462 206.748 495.43 206.7C495.686 206.516 496.09 206.24 496.642 205.872C496.93 205.68 497.158 205.524 497.326 205.404H498.898ZM502.727 212.172C502.727 212.18 502.727 212.188 502.727 212.196C502.727 212.452 502.647 212.66 502.487 212.82C502.327 212.98 502.115 213.06 501.851 213.06C501.579 213.06 501.359 212.98 501.191 212.82C501.031 212.652 500.951 212.432 500.951 212.16V212.136C500.967 211.888 501.055 211.688 501.215 211.536C501.383 211.384 501.595 211.308 501.851 211.308C502.115 211.308 502.327 211.388 502.487 211.548C502.647 211.708 502.727 211.916 502.727 212.172ZM507.157 205.26C508.085 205.26 508.829 205.704 509.389 206.592C509.861 207.328 510.097 208.204 510.097 209.22C510.097 210.444 509.797 211.424 509.197 212.16C508.669 212.816 507.989 213.144 507.157 213.144C506.205 213.144 505.461 212.72 504.925 211.872C504.477 211.168 504.253 210.284 504.253 209.22C504.253 208.036 504.549 207.064 505.141 206.304C505.677 205.608 506.349 205.26 507.157 205.26ZM507.181 206.604C506.317 206.604 505.885 207.452 505.885 209.148C505.885 210.004 506.009 210.676 506.257 211.164C506.481 211.604 506.777 211.824 507.145 211.824C507.553 211.824 507.873 211.588 508.105 211.116C508.345 210.636 508.465 209.98 508.465 209.148C508.465 207.452 508.037 206.604 507.181 206.604ZM513.919 205.26C514.847 205.26 515.591 205.704 516.151 206.592C516.623 207.328 516.859 208.204 516.859 209.22C516.859 210.444 516.559 211.424 515.959 212.16C515.431 212.816 514.751 213.144 513.919 213.144C512.967 213.144 512.223 212.72 511.687 211.872C511.239 211.168 511.015 210.284 511.015 209.22C511.015 208.036 511.311 207.064 511.903 206.304C512.439 205.608 513.111 205.26 513.919 205.26ZM513.943 206.604C513.079 206.604 512.647 207.452 512.647 209.148C512.647 210.004 512.771 210.676 513.019 211.164C513.243 211.604 513.539 211.824 513.907 211.824C514.315 211.824 514.635 211.588 514.867 211.116C515.107 210.636 515.227 209.98 515.227 209.148C515.227 207.452 514.799 206.604 513.943 206.604ZM520.176 205.404H521.496L524.292 213H522.696C522.56 212.6 522.392 212.072 522.192 211.416H519.468C519.356 211.776 519.184 212.304 518.952 213H517.38L520.176 205.404ZM520.848 207.456C520.624 208.088 520.316 208.976 519.924 210.12H521.748C521.372 209.016 521.072 208.128 520.848 207.456ZM529.356 211.2C529.804 209.56 530.404 207.628 531.156 205.404H533.436V213H531.852V206.832C531.476 208.456 530.86 210.512 530.004 213H528.696C527.792 210.256 527.18 208.22 526.86 206.892V213H525.312V205.404H527.496C528.248 207.452 528.868 209.384 529.356 211.2Z" fill="white"/>
<path d="M430.004 198.2C430.452 196.56 431.052 194.628 431.804 192.404H434.084V200H432.5V193.832C432.124 195.456 431.508 197.512 430.652 200H429.344C428.44 197.256 427.828 195.22 427.508 193.892V200H425.96V192.404H428.144C428.896 194.452 429.516 196.384 430.004 198.2ZM438.211 194.408C439.107 194.408 439.803 194.724 440.299 195.356C440.715 195.884 440.923 196.528 440.923 197.288C440.923 198.176 440.615 198.896 439.999 199.448C439.487 199.912 438.891 200.144 438.211 200.144C437.419 200.144 436.755 199.848 436.219 199.256C435.739 198.72 435.499 198.064 435.499 197.288C435.499 196.408 435.767 195.696 436.303 195.152C436.791 194.656 437.427 194.408 438.211 194.408ZM438.211 199.016C438.987 199.016 439.375 198.44 439.375 197.288C439.375 196.088 438.987 195.488 438.211 195.488C437.435 195.488 437.047 196.088 437.047 197.288C437.047 198.44 437.435 199.016 438.211 199.016ZM443.663 195.08C443.823 194.896 444.063 194.74 444.383 194.612C444.703 194.476 445.007 194.408 445.295 194.408C445.983 194.408 446.479 194.596 446.783 194.972C447.095 195.348 447.251 195.956 447.251 196.796V200H445.727V196.856C445.727 196.072 445.379 195.68 444.683 195.68C444.507 195.68 444.319 195.72 444.119 195.8C443.919 195.872 443.783 195.956 443.711 196.052V200H442.199V194.552H443.483C443.523 194.76 443.563 194.936 443.603 195.08H443.663ZM452.708 200L452.492 199.424C452.364 199.632 452.156 199.804 451.868 199.94C451.58 200.076 451.284 200.144 450.98 200.144C450.124 200.144 449.472 199.86 449.024 199.292C448.648 198.82 448.46 198.212 448.46 197.468C448.46 196.42 448.764 195.612 449.372 195.044C449.828 194.62 450.376 194.408 451.016 194.408C451.568 194.408 452.032 194.56 452.408 194.864V193.124L453.92 192.284V200H452.708ZM452.408 197.924V196.4C452.352 196.136 452.224 195.92 452.024 195.752C451.832 195.576 451.604 195.488 451.34 195.488C450.932 195.488 450.608 195.648 450.368 195.968C450.128 196.288 450.008 196.72 450.008 197.264C450.008 198.456 450.396 199.052 451.172 199.052C451.46 199.052 451.728 198.94 451.976 198.716C452.224 198.484 452.368 198.22 452.408 197.924ZM459.938 200H458.726L458.606 199.484C458.078 199.924 457.542 200.144 456.998 200.144C455.79 200.144 455.186 199.556 455.186 198.38C455.186 197.796 455.438 197.34 455.942 197.012C456.454 196.676 457.21 196.508 458.21 196.508H458.462V196.484C458.462 196.14 458.39 195.904 458.246 195.776C458.102 195.648 457.842 195.584 457.466 195.584C456.938 195.584 456.454 195.752 456.014 196.088C455.87 195.824 455.734 195.564 455.606 195.308C456.062 194.956 456.458 194.72 456.794 194.6C457.138 194.472 457.546 194.408 458.018 194.408C459.298 194.408 459.938 195.208 459.938 196.808V200ZM458.414 197.432H458.234C457.778 197.432 457.41 197.512 457.13 197.672C456.85 197.832 456.71 198.044 456.71 198.308C456.71 198.804 456.926 199.052 457.358 199.052C457.622 199.052 457.854 198.976 458.054 198.824C458.254 198.672 458.374 198.48 458.414 198.248V197.432ZM466.562 194.552C466.242 195.448 465.802 196.652 465.242 198.164C464.834 199.292 464.514 200.168 464.282 200.792C463.906 201.792 463.378 202.292 462.698 202.292C462.17 202.292 461.626 202.064 461.066 201.608C461.226 201.336 461.362 201.096 461.474 200.888C461.77 201.08 462.03 201.176 462.254 201.176C462.582 201.176 462.874 200.784 463.13 200H462.842L460.934 194.552H462.434C462.522 194.816 462.658 195.228 462.842 195.788L462.914 195.98C463.258 197.02 463.506 197.784 463.658 198.272L465.05 194.552H466.562ZM473.093 192.404V200H471.521V194.192C471.409 194.264 471.245 194.364 471.029 194.492C470.717 194.676 470.493 194.816 470.357 194.912C470.253 194.736 470.077 194.444 469.829 194.036L469.757 193.928C469.701 193.824 469.657 193.748 469.625 193.7C469.881 193.516 470.285 193.24 470.837 192.872C471.125 192.68 471.353 192.524 471.521 192.404H473.093ZM479.071 193.664H476.419V195.2C476.515 195.16 476.647 195.14 476.815 195.14C477.695 195.14 478.379 195.36 478.867 195.8C479.331 196.224 479.563 196.804 479.563 197.54C479.563 198.316 479.275 198.96 478.699 199.472C478.195 199.92 477.583 200.144 476.863 200.144C475.903 200.144 475.067 199.796 474.355 199.1L475.003 198.104C475.587 198.544 476.151 198.764 476.695 198.764C477.535 198.764 477.955 198.388 477.955 197.636C477.955 196.796 477.415 196.376 476.335 196.376C475.959 196.376 475.467 196.444 474.859 196.58V192.404H479.071V193.664ZM484.016 195.872C483.624 195.616 483.176 195.488 482.672 195.488C482.288 195.488 482.096 195.652 482.096 195.98C482.096 196.284 482.356 196.5 482.876 196.628C483.524 196.788 483.964 196.968 484.196 197.168C484.532 197.456 484.7 197.888 484.7 198.464C484.7 198.976 484.516 199.384 484.148 199.688C483.788 199.992 483.3 200.144 482.684 200.144C481.812 200.144 481.076 199.896 480.476 199.4L481.028 198.56C481.444 198.888 481.944 199.052 482.528 199.052C482.76 199.052 482.948 198.996 483.092 198.884C483.236 198.772 483.308 198.624 483.308 198.44C483.308 198.104 483.024 197.884 482.456 197.78C481.24 197.548 480.632 196.956 480.632 196.004C480.632 195.548 480.816 195.168 481.184 194.864C481.56 194.56 482.028 194.408 482.588 194.408C483.348 194.408 484.008 194.628 484.568 195.068L484.016 195.872ZM489.376 195.764H487.816V198.464C487.816 198.864 487.948 199.064 488.212 199.064C488.452 199.064 488.752 198.96 489.112 198.752L489.616 199.52C489.048 199.968 488.42 200.192 487.732 200.192C486.772 200.192 486.292 199.664 486.292 198.608V195.764H485.536V194.552H486.304V193.58C486.704 193.364 487.212 193.096 487.828 192.776V194.552H489.376V195.764ZM497.809 198.2C498.257 196.56 498.857 194.628 499.609 192.404H501.889V200H500.305V193.832C499.929 195.456 499.313 197.512 498.457 200H497.149C496.245 197.256 495.633 195.22 495.313 193.892V200H493.765V192.404H495.949C496.701 194.452 497.321 196.384 497.809 198.2ZM508.056 200H506.844L506.724 199.484C506.196 199.924 505.66 200.144 505.116 200.144C503.908 200.144 503.304 199.556 503.304 198.38C503.304 197.796 503.556 197.34 504.06 197.012C504.572 196.676 505.328 196.508 506.328 196.508H506.58V196.484C506.58 196.14 506.508 195.904 506.364 195.776C506.22 195.648 505.96 195.584 505.584 195.584C505.056 195.584 504.572 195.752 504.132 196.088C503.988 195.824 503.852 195.564 503.724 195.308C504.18 194.956 504.576 194.72 504.912 194.6C505.256 194.472 505.664 194.408 506.136 194.408C507.416 194.408 508.056 195.208 508.056 196.808V200ZM506.532 197.432H506.352C505.896 197.432 505.528 197.512 505.248 197.672C504.968 197.832 504.828 198.044 504.828 198.308C504.828 198.804 505.044 199.052 505.476 199.052C505.74 199.052 505.972 198.976 506.172 198.824C506.372 198.672 506.492 198.48 506.532 198.248V197.432ZM514.679 194.552C514.359 195.448 513.919 196.652 513.359 198.164C512.951 199.292 512.631 200.168 512.399 200.792C512.023 201.792 511.495 202.292 510.815 202.292C510.287 202.292 509.743 202.064 509.183 201.608C509.343 201.336 509.479 201.096 509.591 200.888C509.887 201.08 510.147 201.176 510.371 201.176C510.699 201.176 510.991 200.784 511.247 200H510.959L509.051 194.552H510.551C510.639 194.816 510.775 195.228 510.959 195.788L511.031 195.98C511.375 197.02 511.623 197.784 511.775 198.272L513.167 194.552H514.679ZM518.222 200V198.668C518.414 198.452 518.67 198.16 518.99 197.792C519.494 197.232 519.866 196.808 520.106 196.52C520.642 195.88 520.978 195.444 521.114 195.212C521.25 194.972 521.318 194.708 521.318 194.42C521.318 194.18 521.23 193.98 521.054 193.82C520.878 193.66 520.654 193.58 520.382 193.58C519.91 193.58 519.39 193.772 518.822 194.156L518.162 193.196C518.962 192.564 519.798 192.248 520.67 192.248C521.366 192.248 521.922 192.436 522.338 192.812C522.746 193.18 522.95 193.688 522.95 194.336C522.95 194.816 522.79 195.32 522.47 195.848C522.158 196.368 521.546 197.144 520.634 198.176C520.41 198.432 520.246 198.62 520.142 198.74H522.866V200H518.222ZM526.692 192.26C527.62 192.26 528.364 192.704 528.924 193.592C529.396 194.328 529.632 195.204 529.632 196.22C529.632 197.444 529.332 198.424 528.732 199.16C528.204 199.816 527.524 200.144 526.692 200.144C525.74 200.144 524.996 199.72 524.46 198.872C524.012 198.168 523.788 197.284 523.788 196.22C523.788 195.036 524.084 194.064 524.676 193.304C525.212 192.608 525.884 192.26 526.692 192.26ZM526.716 193.604C525.852 193.604 525.42 194.452 525.42 196.148C525.42 197.004 525.544 197.676 525.792 198.164C526.016 198.604 526.312 198.824 526.68 198.824C527.088 198.824 527.408 198.588 527.64 198.116C527.88 197.636 528 196.98 528 196.148C528 194.452 527.572 193.604 526.716 193.604ZM530.574 200V198.668C530.766 198.452 531.022 198.16 531.342 197.792C531.846 197.232 532.218 196.808 532.458 196.52C532.994 195.88 533.33 195.444 533.466 195.212C533.602 194.972 533.67 194.708 533.67 194.42C533.67 194.18 533.582 193.98 533.406 193.82C533.23 193.66 533.006 193.58 532.734 193.58C532.262 193.58 531.742 193.772 531.174 194.156L530.514 193.196C531.314 192.564 532.15 192.248 533.022 192.248C533.718 192.248 534.274 192.436 534.69 192.812C535.098 193.18 535.302 193.688 535.302 194.336C535.302 194.816 535.142 195.32 534.822 195.848C534.51 196.368 533.898 197.144 532.986 198.176C532.762 198.432 532.598 198.62 532.494 198.74H535.218V200H530.574ZM536.164 200V198.668C536.356 198.452 536.612 198.16 536.932 197.792C537.436 197.232 537.808 196.808 538.048 196.52C538.584 195.88 538.92 195.444 539.056 195.212C539.192 194.972 539.26 194.708 539.26 194.42C539.26 194.18 539.172 193.98 538.996 193.82C538.82 193.66 538.596 193.58 538.324 193.58C537.852 193.58 537.332 193.772 536.764 194.156L536.104 193.196C536.904 192.564 537.74 192.248 538.612 192.248C539.308 192.248 539.864 192.436 540.28 192.812C540.688 193.18 540.892 193.688 540.892 194.336C540.892 194.816 540.732 195.32 540.412 195.848C540.1 196.368 539.488 197.144 538.576 198.176C538.352 198.432 538.188 198.62 538.084 198.74H540.808V200H536.164Z" fill="white"/>
<path d="M72.024 202V191.872H78.648V193.552H74.12V195.952H77.896V197.632H74.12V202H72.024ZM81.9946 191.68V202H79.9786V192.736L81.9946 191.68ZM90.8221 194.736C90.3955 195.931 89.8088 197.536 89.0621 199.552C88.5181 201.056 88.0915 202.224 87.7821 203.056C87.2808 204.389 86.5768 205.056 85.6701 205.056C84.9661 205.056 84.2408 204.752 83.4941 204.144C83.7075 203.781 83.8888 203.461 84.0381 203.184C84.4328 203.44 84.7795 203.568 85.0781 203.568C85.5155 203.568 85.9048 203.045 86.2461 202H85.8621L83.3181 194.736H85.3181C85.4355 195.088 85.6168 195.637 85.8621 196.384L85.9581 196.64C86.4168 198.027 86.7475 199.045 86.9501 199.696L88.8061 194.736H90.8221ZM96.2945 191.68C97.8518 191.68 99.0518 192.299 99.8945 193.536C100.556 194.507 100.887 195.68 100.887 197.056C100.887 198.635 100.455 199.899 99.5905 200.848C98.7692 201.744 97.6705 202.192 96.2945 202.192C94.7158 202.192 93.5158 201.616 92.6945 200.464C92.0332 199.557 91.7025 198.421 91.7025 197.056C91.7025 195.456 92.1345 194.149 92.9985 193.136C93.8198 192.165 94.9185 191.68 96.2945 191.68ZM96.2945 200.432C97.0625 200.432 97.6545 200.144 98.0705 199.568C98.4865 198.981 98.6945 198.144 98.6945 197.056C98.6945 195.893 98.4652 194.987 98.0065 194.336C97.5798 193.76 97.0092 193.472 96.2945 193.472C95.5265 193.472 94.9292 193.787 94.5025 194.416C94.0865 195.045 93.8785 195.925 93.8785 197.056C93.8785 199.307 94.6838 200.432 96.2945 200.432ZM107.355 201.168C106.822 201.851 106.091 202.192 105.163 202.192C104.246 202.192 103.59 201.957 103.195 201.488C102.811 201.008 102.619 200.208 102.619 199.088V194.736H104.603V198.56C104.603 199.285 104.699 199.797 104.891 200.096C105.083 200.384 105.414 200.528 105.883 200.528C106.086 200.528 106.315 200.475 106.571 200.368C106.827 200.261 106.982 200.149 107.035 200.032V194.736H109.051V202H107.547L107.371 201.168H107.355ZM115.773 196.352H113.693V199.952C113.693 200.485 113.869 200.752 114.221 200.752C114.541 200.752 114.941 200.613 115.421 200.336L116.093 201.36C115.335 201.957 114.498 202.256 113.581 202.256C112.301 202.256 111.661 201.552 111.661 200.144V196.352H110.653V194.736H111.677V193.44C112.21 193.152 112.887 192.795 113.709 192.368V194.736H115.773V196.352Z" fill="white"/>
<path d="M72.8 213V206.68C72.8933 206.66 73.1567 206.633 73.59 206.6C74.0233 206.567 74.3533 206.55 74.58 206.55C76.1933 206.55 77 207.21 77 208.53C77 209.243 76.71 209.85 76.13 210.35C76.37 210.903 76.78 211.787 77.36 213H76.04C75.7133 212.287 75.36 211.52 74.98 210.7C74.9067 210.713 74.8067 210.72 74.68 210.72C74.3867 210.72 74.1967 210.693 74.11 210.64V213H72.8ZM74.11 207.67V209.58C74.31 209.64 74.5267 209.67 74.76 209.67C75.3333 209.67 75.62 209.29 75.62 208.53C75.62 207.91 75.3233 207.6 74.73 207.6C74.39 207.6 74.1833 207.623 74.11 207.67ZM81.9874 211.14H78.8674C78.8941 211.447 79.0174 211.703 79.2374 211.91C79.4641 212.11 79.7308 212.21 80.0374 212.21C80.4708 212.21 80.9241 212.077 81.3974 211.81L81.7174 212.48C81.2374 212.907 80.6374 213.12 79.9174 213.12C79.1441 213.12 78.5408 212.9 78.1074 212.46C77.6941 212.047 77.4874 211.477 77.4874 210.75C77.4874 210.037 77.7208 209.447 78.1874 208.98C78.6074 208.553 79.1408 208.34 79.7874 208.34C80.5074 208.34 81.0674 208.583 81.4674 209.07C81.8141 209.483 81.9874 210.02 81.9874 210.68V211.14ZM78.7974 210.21H80.7274C80.6941 209.557 80.3774 209.23 79.7774 209.23C79.1974 209.23 78.8708 209.557 78.7974 210.21ZM86.2911 213L86.1111 212.52C86.0044 212.693 85.8311 212.837 85.5911 212.95C85.3511 213.063 85.1044 213.12 84.8511 213.12C84.1378 213.12 83.5944 212.883 83.2211 212.41C82.9078 212.017 82.7511 211.51 82.7511 210.89C82.7511 210.017 83.0044 209.343 83.5111 208.87C83.8911 208.517 84.3478 208.34 84.8811 208.34C85.3411 208.34 85.7278 208.467 86.0411 208.72V207.27L87.3011 206.57V213H86.2911ZM86.0411 211.27V210C85.9944 209.78 85.8878 209.6 85.7211 209.46C85.5611 209.313 85.3711 209.24 85.1511 209.24C84.8111 209.24 84.5411 209.373 84.3411 209.64C84.1411 209.907 84.0411 210.267 84.0411 210.72C84.0411 211.713 84.3644 212.21 85.0111 212.21C85.2511 212.21 85.4744 212.117 85.6811 211.93C85.8878 211.737 86.0078 211.517 86.0411 211.27ZM91.6166 212.48C91.2832 212.907 90.8266 213.12 90.2466 213.12C89.6732 213.12 89.2632 212.973 89.0166 212.68C88.7766 212.38 88.6566 211.88 88.6566 211.18V208.46H89.8966V210.85C89.8966 211.303 89.9566 211.623 90.0766 211.81C90.1966 211.99 90.4032 212.08 90.6966 212.08C90.8232 212.08 90.9666 212.047 91.1266 211.98C91.2866 211.913 91.3832 211.843 91.4166 211.77V208.46H92.6766V213H91.7366L91.6266 212.48H91.6166ZM97.8474 212.42C97.3741 212.887 96.8141 213.12 96.1674 213.12C95.3941 213.12 94.7808 212.873 94.3274 212.38C93.9341 211.947 93.7374 211.403 93.7374 210.75C93.7374 210.017 93.9908 209.417 94.4974 208.95C94.9374 208.543 95.4741 208.34 96.1074 208.34C96.8074 208.34 97.3708 208.56 97.7974 209L97.4174 209.68C97.0774 209.38 96.7074 209.23 96.3074 209.23C95.9341 209.23 95.6274 209.377 95.3874 209.67C95.1474 209.957 95.0274 210.327 95.0274 210.78C95.0274 211.2 95.1441 211.547 95.3774 211.82C95.6174 212.087 95.9208 212.22 96.2874 212.22C96.7274 212.22 97.1041 212.057 97.4174 211.73L97.8474 212.42ZM100.023 208.46V213H98.753V208.46H100.023ZM98.603 207.3C98.603 207.087 98.6764 206.903 98.823 206.75C98.9764 206.59 99.1564 206.51 99.363 206.51C99.583 206.51 99.7697 206.587 99.923 206.74C100.083 206.893 100.163 207.08 100.163 207.3C100.163 207.533 100.086 207.723 99.933 207.87C99.7864 208.017 99.5964 208.09 99.363 208.09C99.143 208.09 98.9597 208.017 98.813 207.87C98.673 207.717 98.603 207.527 98.603 207.3ZM102.543 208.9C102.676 208.747 102.876 208.617 103.143 208.51C103.409 208.397 103.663 208.34 103.903 208.34C104.476 208.34 104.889 208.497 105.143 208.81C105.403 209.123 105.533 209.63 105.533 210.33V213H104.263V210.38C104.263 209.727 103.973 209.4 103.393 209.4C103.246 209.4 103.089 209.433 102.923 209.5C102.756 209.56 102.643 209.63 102.583 209.71V213H101.323V208.46H102.393C102.426 208.633 102.459 208.78 102.493 208.9H102.543ZM109.72 212.45C109.42 212.897 108.997 213.12 108.45 213.12C107.783 213.12 107.267 212.883 106.9 212.41C106.587 212.01 106.43 211.503 106.43 210.89C106.43 210.017 106.683 209.343 107.19 208.87C107.577 208.517 108.033 208.34 108.56 208.34C108.98 208.34 109.337 208.443 109.63 208.65C109.823 208.783 109.92 208.883 109.92 208.95L110.02 208.46H110.99V212.53C110.99 213.297 110.8 213.887 110.42 214.3C110.047 214.707 109.513 214.91 108.82 214.91C108.1 214.91 107.477 214.67 106.95 214.19L107.27 213.55C107.677 213.817 108.133 213.95 108.64 213.95C109.36 213.95 109.72 213.45 109.72 212.45ZM109.72 210C109.693 209.793 109.59 209.617 109.41 209.47C109.237 209.317 109.043 209.24 108.83 209.24C108.497 209.24 108.23 209.373 108.03 209.64C107.83 209.907 107.73 210.267 107.73 210.72C107.73 211.713 108.057 212.21 108.71 212.21C108.983 212.21 109.22 212.107 109.42 211.9C109.62 211.687 109.72 211.437 109.72 211.15V210ZM118.24 211.5C118.614 210.133 119.114 208.523 119.74 206.67H121.64V213H120.32V207.86C120.007 209.213 119.494 210.927 118.78 213H117.69C116.937 210.713 116.427 209.017 116.16 207.91V213H114.87V206.67H116.69C117.317 208.377 117.834 209.987 118.24 211.5ZM125.079 208.34C125.826 208.34 126.406 208.603 126.819 209.13C127.166 209.57 127.339 210.107 127.339 210.74C127.339 211.48 127.083 212.08 126.569 212.54C126.143 212.927 125.646 213.12 125.079 213.12C124.419 213.12 123.866 212.873 123.419 212.38C123.019 211.933 122.819 211.387 122.819 210.74C122.819 210.007 123.043 209.413 123.489 208.96C123.896 208.547 124.426 208.34 125.079 208.34ZM125.079 212.18C125.726 212.18 126.049 211.7 126.049 210.74C126.049 209.74 125.726 209.24 125.079 209.24C124.433 209.24 124.109 209.74 124.109 210.74C124.109 211.7 124.433 212.18 125.079 212.18ZM131.053 209.56C130.726 209.347 130.353 209.24 129.933 209.24C129.613 209.24 129.453 209.377 129.453 209.65C129.453 209.903 129.669 210.083 130.103 210.19C130.643 210.323 131.009 210.473 131.203 210.64C131.483 210.88 131.623 211.24 131.623 211.72C131.623 212.147 131.469 212.487 131.163 212.74C130.863 212.993 130.456 213.12 129.943 213.12C129.216 213.12 128.603 212.913 128.103 212.5L128.563 211.8C128.909 212.073 129.326 212.21 129.813 212.21C130.006 212.21 130.163 212.163 130.283 212.07C130.403 211.977 130.463 211.853 130.463 211.7C130.463 211.42 130.226 211.237 129.753 211.15C128.739 210.957 128.233 210.463 128.233 209.67C128.233 209.29 128.386 208.973 128.693 208.72C129.006 208.467 129.396 208.34 129.863 208.34C130.496 208.34 131.046 208.523 131.513 208.89L131.053 209.56ZM135.56 214.77V212.53C135.527 212.663 135.383 212.797 135.13 212.93C134.883 213.057 134.647 213.12 134.42 213.12C133.72 213.12 133.19 212.877 132.83 212.39C132.53 211.99 132.38 211.48 132.38 210.86C132.38 210.02 132.627 209.367 133.12 208.9C133.507 208.527 133.977 208.34 134.53 208.34C135.05 208.34 135.46 208.543 135.76 208.95L135.83 208.46H136.83V214.77H135.56ZM135.56 211.16V210.05C135.56 210.043 135.56 210.033 135.56 210.02C135.56 209.833 135.473 209.657 135.3 209.49C135.133 209.323 134.953 209.24 134.76 209.24C134.427 209.24 134.16 209.373 133.96 209.64C133.76 209.907 133.66 210.267 133.66 210.72C133.66 211.713 134.003 212.21 134.69 212.21C134.943 212.21 135.15 212.117 135.31 211.93C135.477 211.743 135.56 211.503 135.56 211.21C135.56 211.19 135.56 211.173 135.56 211.16ZM141.148 212.48C140.814 212.907 140.358 213.12 139.778 213.12C139.204 213.12 138.794 212.973 138.548 212.68C138.308 212.38 138.188 211.88 138.188 211.18V208.46H139.428V210.85C139.428 211.303 139.488 211.623 139.608 211.81C139.728 211.99 139.934 212.08 140.228 212.08C140.354 212.08 140.498 212.047 140.658 211.98C140.818 211.913 140.914 211.843 140.948 211.77V208.46H142.208V213H141.268L141.158 212.48H141.148ZM144.789 208.46V213H143.519V208.46H144.789ZM143.369 207.3C143.369 207.087 143.442 206.903 143.589 206.75C143.742 206.59 143.922 206.51 144.129 206.51C144.349 206.51 144.535 206.587 144.689 206.74C144.849 206.893 144.929 207.08 144.929 207.3C144.929 207.533 144.852 207.723 144.699 207.87C144.552 208.017 144.362 208.09 144.129 208.09C143.909 208.09 143.725 208.017 143.579 207.87C143.439 207.717 143.369 207.527 143.369 207.3ZM148.928 209.47H147.628V211.72C147.628 212.053 147.738 212.22 147.958 212.22C148.158 212.22 148.408 212.133 148.708 211.96L149.128 212.6C148.655 212.973 148.132 213.16 147.558 213.16C146.758 213.16 146.358 212.72 146.358 211.84V209.47H145.728V208.46H146.368V207.65C146.702 207.47 147.125 207.247 147.638 206.98V208.46H148.928V209.47ZM151.925 208.34C152.672 208.34 153.252 208.603 153.665 209.13C154.012 209.57 154.185 210.107 154.185 210.74C154.185 211.48 153.928 212.08 153.415 212.54C152.988 212.927 152.492 213.12 151.925 213.12C151.265 213.12 150.712 212.873 150.265 212.38C149.865 211.933 149.665 211.387 149.665 210.74C149.665 210.007 149.888 209.413 150.335 208.96C150.742 208.547 151.272 208.34 151.925 208.34ZM151.925 212.18C152.572 212.18 152.895 211.7 152.895 210.74C152.895 209.74 152.572 209.24 151.925 209.24C151.278 209.24 150.955 209.74 150.955 210.74C150.955 211.7 151.278 212.18 151.925 212.18ZM157.771 213V206.68C157.864 206.66 158.127 206.633 158.561 206.6C158.994 206.567 159.324 206.55 159.551 206.55C161.164 206.55 161.971 207.21 161.971 208.53C161.971 209.35 161.691 209.95 161.131 210.33C160.757 210.59 160.317 210.72 159.811 210.72C159.411 210.72 159.167 210.693 159.081 210.64V213H157.771ZM159.081 207.67V209.58C159.254 209.647 159.471 209.68 159.731 209.68C159.997 209.68 160.207 209.587 160.361 209.4C160.514 209.207 160.591 208.943 160.591 208.61C160.591 207.937 160.294 207.6 159.701 207.6C159.361 207.6 159.154 207.623 159.081 207.67ZM164.708 208.34C165.455 208.34 166.035 208.603 166.448 209.13C166.795 209.57 166.968 210.107 166.968 210.74C166.968 211.48 166.712 212.08 166.198 212.54C165.772 212.927 165.275 213.12 164.708 213.12C164.048 213.12 163.495 212.873 163.048 212.38C162.648 211.933 162.448 211.387 162.448 210.74C162.448 210.007 162.672 209.413 163.118 208.96C163.525 208.547 164.055 208.34 164.708 208.34ZM164.708 212.18C165.355 212.18 165.678 211.7 165.678 210.74C165.678 209.74 165.355 209.24 164.708 209.24C164.062 209.24 163.738 209.74 163.738 210.74C163.738 211.7 164.062 212.18 164.708 212.18ZM168.982 208.46L169.102 208.89C169.382 208.523 169.775 208.34 170.282 208.34C170.995 208.34 171.552 208.58 171.952 209.06C172.292 209.473 172.462 210 172.462 210.64C172.462 211.48 172.208 212.127 171.702 212.58C171.302 212.94 170.812 213.12 170.232 213.12C170.058 213.12 169.875 213.083 169.682 213.01C169.488 212.937 169.352 212.853 169.272 212.76V214.78H168.032V208.46H168.982ZM169.272 210.23V211.39C169.272 211.623 169.352 211.823 169.512 211.99C169.678 212.157 169.872 212.24 170.092 212.24C170.392 212.24 170.642 212.097 170.842 211.81C171.042 211.523 171.142 211.167 171.142 210.74C171.142 210.287 171.052 209.927 170.872 209.66C170.698 209.387 170.462 209.25 170.162 209.25C169.928 209.25 169.722 209.35 169.542 209.55C169.362 209.743 169.272 209.97 169.272 210.23ZM176.48 212.48C176.147 212.907 175.69 213.12 175.11 213.12C174.537 213.12 174.127 212.973 173.88 212.68C173.64 212.38 173.52 211.88 173.52 211.18V208.46H174.76V210.85C174.76 211.303 174.82 211.623 174.94 211.81C175.06 211.99 175.267 212.08 175.56 212.08C175.687 212.08 175.83 212.047 175.99 211.98C176.15 211.913 176.247 211.843 176.28 211.77V208.46H177.54V213H176.6L176.49 212.48H176.48ZM180.161 206.55V213H178.901V207.21L180.161 206.55ZM185.178 213H184.168L184.068 212.57C183.628 212.937 183.181 213.12 182.728 213.12C181.721 213.12 181.218 212.63 181.218 211.65C181.218 211.163 181.428 210.783 181.848 210.51C182.275 210.23 182.905 210.09 183.738 210.09H183.948V210.07C183.948 209.783 183.888 209.587 183.768 209.48C183.648 209.373 183.431 209.32 183.118 209.32C182.678 209.32 182.275 209.46 181.908 209.74C181.788 209.52 181.675 209.303 181.568 209.09C181.948 208.797 182.278 208.6 182.558 208.5C182.845 208.393 183.185 208.34 183.578 208.34C184.645 208.34 185.178 209.007 185.178 210.34V213ZM183.908 210.86H183.758C183.378 210.86 183.071 210.927 182.838 211.06C182.605 211.193 182.488 211.37 182.488 211.59C182.488 212.003 182.668 212.21 183.028 212.21C183.248 212.21 183.441 212.147 183.608 212.02C183.775 211.893 183.875 211.733 183.908 211.54V210.86ZM189.377 209.47H188.077V211.72C188.077 212.053 188.187 212.22 188.407 212.22C188.607 212.22 188.857 212.133 189.157 211.96L189.577 212.6C189.104 212.973 188.581 213.16 188.007 213.16C187.207 213.16 186.807 212.72 186.807 211.84V209.47H186.177V208.46H186.817V207.65C187.151 207.47 187.574 207.247 188.087 206.98V208.46H189.377V209.47ZM191.732 208.46V213H190.462V208.46H191.732ZM190.312 207.3C190.312 207.087 190.385 206.903 190.532 206.75C190.685 206.59 190.865 206.51 191.072 206.51C191.292 206.51 191.479 206.587 191.632 206.74C191.792 206.893 191.872 207.08 191.872 207.3C191.872 207.533 191.795 207.723 191.642 207.87C191.495 208.017 191.305 208.09 191.072 208.09C190.852 208.09 190.669 208.017 190.522 207.87C190.382 207.717 190.312 207.527 190.312 207.3ZM194.992 208.34C195.738 208.34 196.318 208.603 196.732 209.13C197.078 209.57 197.252 210.107 197.252 210.74C197.252 211.48 196.995 212.08 196.482 212.54C196.055 212.927 195.558 213.12 194.992 213.12C194.332 213.12 193.778 212.873 193.332 212.38C192.932 211.933 192.732 211.387 192.732 210.74C192.732 210.007 192.955 209.413 193.402 208.96C193.808 208.547 194.338 208.34 194.992 208.34ZM194.992 212.18C195.638 212.18 195.962 211.7 195.962 210.74C195.962 209.74 195.638 209.24 194.992 209.24C194.345 209.24 194.022 209.74 194.022 210.74C194.022 211.7 194.345 212.18 194.992 212.18ZM199.535 208.9C199.668 208.747 199.868 208.617 200.135 208.51C200.401 208.397 200.655 208.34 200.895 208.34C201.468 208.34 201.881 208.497 202.135 208.81C202.395 209.123 202.525 209.63 202.525 210.33V213H201.255V210.38C201.255 209.727 200.965 209.4 200.385 209.4C200.238 209.4 200.081 209.433 199.915 209.5C199.748 209.56 199.635 209.63 199.575 209.71V213H198.315V208.46H199.385C199.418 208.633 199.451 208.78 199.485 208.9H199.535Z" fill="white"/>
<path d="M42.96 191.36C45.4347 191.36 47.4187 192.544 48.912 194.912C50.1707 196.875 50.8 199.211 50.8 201.92C50.8 205.184 50 207.797 48.4 209.76C46.992 211.509 45.1787 212.384 42.96 212.384C40.4213 212.384 38.4373 211.253 37.008 208.992C35.8133 207.115 35.216 204.757 35.216 201.92C35.216 198.763 36.0053 196.171 37.584 194.144C39.0133 192.288 40.8053 191.36 42.96 191.36ZM43.024 194.944C40.72 194.944 39.568 197.205 39.568 201.728C39.568 204.011 39.8987 205.803 40.56 207.104C41.1573 208.277 41.9467 208.864 42.928 208.864C44.016 208.864 44.8693 208.235 45.488 206.976C46.128 205.696 46.448 203.947 46.448 201.728C46.448 197.205 45.3067 194.944 43.024 194.944ZM61.2793 191.744V212H57.0873V196.512C56.7886 196.704 56.3513 196.971 55.7753 197.312C54.9433 197.803 54.3459 198.176 53.9833 198.432C53.7059 197.963 53.2366 197.184 52.5753 196.096L52.3833 195.808C52.2339 195.531 52.1166 195.328 52.0312 195.2C52.7139 194.709 53.7913 193.973 55.2633 192.992C56.0313 192.48 56.6393 192.064 57.0873 191.744H61.2793Z" fill="white"/>
<rect y="155" width="586" height="6" fill="url(#paint0_linear_1514_27)" fill-opacity="0.7"/>
<path d="M129.6 37V36.208L131.724 33.88C132.244 33.304 132.608 32.832 132.816 32.464C133.024 32.088 133.128 31.712 133.128 31.336C133.128 30.944 132.992 30.628 132.72 30.388C132.456 30.148 132.104 30.028 131.664 30.028C131.136 30.028 130.616 30.196 130.104 30.532L129.732 30.004C130.396 29.5 131.108 29.248 131.868 29.248C132.54 29.248 133.084 29.46 133.5 29.884C133.884 30.268 134.076 30.752 134.076 31.336C134.076 31.76 133.96 32.176 133.728 32.584C133.504 32.984 133.08 33.532 132.456 34.228L130.644 36.244H133.932V37H129.6ZM140.79 33.22C140.79 34.476 140.514 35.464 139.962 36.184C139.482 36.824 138.85 37.144 138.066 37.144C137.162 37.144 136.462 36.732 135.966 35.908C135.55 35.204 135.342 34.308 135.342 33.22C135.342 32.004 135.618 31.024 136.17 30.28C136.666 29.6 137.298 29.26 138.066 29.26C138.938 29.26 139.63 29.692 140.142 30.556C140.574 31.284 140.79 32.172 140.79 33.22ZM138.054 30.028C137.502 30.028 137.07 30.304 136.758 30.856C136.446 31.408 136.29 32.172 136.29 33.148C136.29 34.188 136.458 34.996 136.794 35.572C137.106 36.1 137.526 36.364 138.054 36.364C138.606 36.364 139.042 36.08 139.362 35.512C139.682 34.936 139.842 34.148 139.842 33.148C139.842 32.124 139.666 31.336 139.314 30.784C139.002 30.28 138.582 30.028 138.054 30.028ZM141.987 37V36.208L144.111 33.88C144.631 33.304 144.995 32.832 145.203 32.464C145.411 32.088 145.515 31.712 145.515 31.336C145.515 30.944 145.379 30.628 145.107 30.388C144.843 30.148 144.491 30.028 144.051 30.028C143.523 30.028 143.003 30.196 142.491 30.532L142.119 30.004C142.783 29.5 143.495 29.248 144.255 29.248C144.927 29.248 145.471 29.46 145.887 29.884C146.271 30.268 146.463 30.752 146.463 31.336C146.463 31.76 146.347 32.176 146.115 32.584C145.891 32.984 145.467 33.532 144.843 34.228L143.031 36.244H146.319V37H141.987ZM148.172 30.544L147.812 30.016C148.38 29.512 149.06 29.26 149.852 29.26C150.5 29.26 151.036 29.452 151.46 29.836C151.852 30.196 152.048 30.656 152.048 31.216C152.048 31.616 151.928 31.972 151.688 32.284C151.448 32.588 151.132 32.788 150.74 32.884C151.244 33.004 151.64 33.236 151.928 33.58C152.216 33.924 152.36 34.34 152.36 34.828C152.36 35.636 152.056 36.252 151.448 36.676C151 36.98 150.472 37.132 149.864 37.132C149.096 37.132 148.38 36.868 147.716 36.34L148.1 35.824C148.604 36.176 149.156 36.352 149.756 36.352C150.252 36.352 150.652 36.212 150.956 35.932C151.26 35.652 151.412 35.28 151.412 34.816C151.412 33.832 150.824 33.34 149.648 33.34H148.664V32.584H149.648C150.096 32.584 150.448 32.468 150.704 32.236C150.968 32.004 151.1 31.684 151.1 31.276C151.1 30.436 150.632 30.016 149.696 30.016C149.208 30.016 148.7 30.192 148.172 30.544Z" fill="white"/>
<path d="M429.6 37V36.208L431.724 33.88C432.244 33.304 432.608 32.832 432.816 32.464C433.024 32.088 433.128 31.712 433.128 31.336C433.128 30.944 432.992 30.628 432.72 30.388C432.456 30.148 432.104 30.028 431.664 30.028C431.136 30.028 430.616 30.196 430.104 30.532L429.732 30.004C430.396 29.5 431.108 29.248 431.868 29.248C432.54 29.248 433.084 29.46 433.5 29.884C433.884 30.268 434.076 30.752 434.076 31.336C434.076 31.76 433.96 32.176 433.728 32.584C433.504 32.984 433.08 33.532 432.456 34.228L430.644 36.244H433.932V37H429.6ZM440.79 33.22C440.79 34.476 440.514 35.464 439.962 36.184C439.482 36.824 438.85 37.144 438.066 37.144C437.162 37.144 436.462 36.732 435.966 35.908C435.55 35.204 435.342 34.308 435.342 33.22C435.342 32.004 435.618 31.024 436.17 30.28C436.666 29.6 437.298 29.26 438.066 29.26C438.938 29.26 439.63 29.692 440.142 30.556C440.574 31.284 440.79 32.172 440.79 33.22ZM438.054 30.028C437.502 30.028 437.07 30.304 436.758 30.856C436.446 31.408 436.29 32.172 436.29 33.148C436.29 34.188 436.458 34.996 436.794 35.572C437.106 36.1 437.526 36.364 438.054 36.364C438.606 36.364 439.042 36.08 439.362 35.512C439.682 34.936 439.842 34.148 439.842 33.148C439.842 32.124 439.666 31.336 439.314 30.784C439.002 30.28 438.582 30.028 438.054 30.028ZM441.987 37V36.208L444.111 33.88C444.631 33.304 444.995 32.832 445.203 32.464C445.411 32.088 445.515 31.712 445.515 31.336C445.515 30.944 445.379 30.628 445.107 30.388C444.843 30.148 444.491 30.028 444.051 30.028C443.523 30.028 443.003 30.196 442.491 30.532L442.119 30.004C442.783 29.5 443.495 29.248 444.255 29.248C444.927 29.248 445.471 29.46 445.887 29.884C446.271 30.268 446.463 30.752 446.463 31.336C446.463 31.76 446.347 32.176 446.115 32.584C445.891 32.984 445.467 33.532 444.843 34.228L443.031 36.244H446.319V37H441.987ZM452.408 29.86L452.096 30.364C451.672 30.14 451.212 30.028 450.716 30.028C450.18 30.028 449.744 30.272 449.408 30.76C449.072 31.248 448.888 31.904 448.856 32.728C449.288 32.28 449.804 32.056 450.404 32.056C451.044 32.056 451.576 32.264 452 32.68C452.464 33.128 452.696 33.756 452.696 34.564C452.696 35.284 452.464 35.9 452 36.412C451.568 36.9 451.024 37.144 450.368 37.144C449.488 37.144 448.832 36.724 448.4 35.884C448.064 35.236 447.896 34.432 447.896 33.472C447.896 32.112 448.176 31.048 448.736 30.28C449.232 29.6 449.876 29.26 450.668 29.26C451.324 29.26 451.904 29.46 452.408 29.86ZM448.808 33.556C448.816 34.476 448.968 35.192 449.264 35.704C449.536 36.16 449.9 36.388 450.356 36.388C450.772 36.388 451.108 36.224 451.364 35.896C451.62 35.56 451.748 35.116 451.748 34.564C451.748 33.988 451.616 33.544 451.352 33.232C451.088 32.92 450.72 32.764 450.248 32.764C449.648 32.764 449.168 33.028 448.808 33.556Z" fill="white"/>
<path d="M329.6 36V35.208L331.724 32.88C332.244 32.304 332.608 31.832 332.816 31.464C333.024 31.088 333.128 30.712 333.128 30.336C333.128 29.944 332.992 29.628 332.72 29.388C332.456 29.148 332.104 29.028 331.664 29.028C331.136 29.028 330.616 29.196 330.104 29.532L329.732 29.004C330.396 28.5 331.108 28.248 331.868 28.248C332.54 28.248 333.084 28.46 333.5 28.884C333.884 29.268 334.076 29.752 334.076 30.336C334.076 30.76 333.96 31.176 333.728 31.584C333.504 31.984 333.08 32.532 332.456 33.228L330.644 35.244H333.932V36H329.6ZM340.79 32.22C340.79 33.476 340.514 34.464 339.962 35.184C339.482 35.824 338.85 36.144 338.066 36.144C337.162 36.144 336.462 35.732 335.966 34.908C335.55 34.204 335.342 33.308 335.342 32.22C335.342 31.004 335.618 30.024 336.17 29.28C336.666 28.6 337.298 28.26 338.066 28.26C338.938 28.26 339.63 28.692 340.142 29.556C340.574 30.284 340.79 31.172 340.79 32.22ZM338.054 29.028C337.502 29.028 337.07 29.304 336.758 29.856C336.446 30.408 336.29 31.172 336.29 32.148C336.29 33.188 336.458 33.996 336.794 34.572C337.106 35.1 337.526 35.364 338.054 35.364C338.606 35.364 339.042 35.08 339.362 34.512C339.682 33.936 339.842 33.148 339.842 32.148C339.842 31.124 339.666 30.336 339.314 29.784C339.002 29.28 338.582 29.028 338.054 29.028ZM341.987 36V35.208L344.111 32.88C344.631 32.304 344.995 31.832 345.203 31.464C345.411 31.088 345.515 30.712 345.515 30.336C345.515 29.944 345.379 29.628 345.107 29.388C344.843 29.148 344.491 29.028 344.051 29.028C343.523 29.028 343.003 29.196 342.491 29.532L342.119 29.004C342.783 28.5 343.495 28.248 344.255 28.248C344.927 28.248 345.471 28.46 345.887 28.884C346.271 29.268 346.463 29.752 346.463 30.336C346.463 30.76 346.347 31.176 346.115 31.584C345.891 31.984 345.467 32.532 344.843 33.228L343.031 35.244H346.319V36H341.987ZM352.072 29.16H349.168V31.296C349.408 31.256 349.688 31.236 350.008 31.236C350.816 31.236 351.456 31.46 351.928 31.908C352.368 32.332 352.588 32.904 352.588 33.624C352.588 34.416 352.304 35.056 351.736 35.544C351.272 35.944 350.72 36.144 350.08 36.144C349.24 36.144 348.512 35.88 347.896 35.352L348.244 34.836C348.748 35.18 349.296 35.352 349.888 35.352C350.44 35.352 350.872 35.204 351.184 34.908C351.496 34.604 351.652 34.18 351.652 33.636C351.652 33.1 351.484 32.684 351.148 32.388C350.812 32.092 350.344 31.944 349.744 31.944C349.344 31.944 348.856 31.996 348.28 32.1V28.404H352.072V29.16Z" fill="white"/>
<path d="M229.6 37V36.208L231.724 33.88C232.244 33.304 232.608 32.832 232.816 32.464C233.024 32.088 233.128 31.712 233.128 31.336C233.128 30.944 232.992 30.628 232.72 30.388C232.456 30.148 232.104 30.028 231.664 30.028C231.136 30.028 230.616 30.196 230.104 30.532L229.732 30.004C230.396 29.5 231.108 29.248 231.868 29.248C232.54 29.248 233.084 29.46 233.5 29.884C233.884 30.268 234.076 30.752 234.076 31.336C234.076 31.76 233.96 32.176 233.728 32.584C233.504 32.984 233.08 33.532 232.456 34.228L230.644 36.244H233.932V37H229.6ZM240.79 33.22C240.79 34.476 240.514 35.464 239.962 36.184C239.482 36.824 238.85 37.144 238.066 37.144C237.162 37.144 236.462 36.732 235.966 35.908C235.55 35.204 235.342 34.308 235.342 33.22C235.342 32.004 235.618 31.024 236.17 30.28C236.666 29.6 237.298 29.26 238.066 29.26C238.938 29.26 239.63 29.692 240.142 30.556C240.574 31.284 240.79 32.172 240.79 33.22ZM238.054 30.028C237.502 30.028 237.07 30.304 236.758 30.856C236.446 31.408 236.29 32.172 236.29 33.148C236.29 34.188 236.458 34.996 236.794 35.572C237.106 36.1 237.526 36.364 238.054 36.364C238.606 36.364 239.042 36.08 239.362 35.512C239.682 34.936 239.842 34.148 239.842 33.148C239.842 32.124 239.666 31.336 239.314 30.784C239.002 30.28 238.582 30.028 238.054 30.028ZM241.987 37V36.208L244.111 33.88C244.631 33.304 244.995 32.832 245.203 32.464C245.411 32.088 245.515 31.712 245.515 31.336C245.515 30.944 245.379 30.628 245.107 30.388C244.843 30.148 244.491 30.028 244.051 30.028C243.523 30.028 243.003 30.196 242.491 30.532L242.119 30.004C242.783 29.5 243.495 29.248 244.255 29.248C244.927 29.248 245.471 29.46 245.887 29.884C246.271 30.268 246.463 30.752 246.463 31.336C246.463 31.76 246.347 32.176 246.115 32.584C245.891 32.984 245.467 33.532 244.843 34.228L243.031 36.244H246.319V37H241.987ZM247.572 34.624L250.98 29.404H251.916V34.624H253.308V35.38H251.916V37H251.04V35.38H247.572V34.624ZM248.46 34.624H251.04V30.628L248.46 34.624Z" fill="white"/>
<rect x="97" y="103" width="100" height="52" fill="url(#paint1_linear_1514_27)"/>
<rect x="197" y="103" width="100" height="52" fill="url(#paint2_linear_1514_27)"/>
<rect x="297" y="103" width="100" height="52" fill="url(#paint3_linear_1514_27)"/>
<rect x="397" y="103" width="100" height="52" fill="url(#paint4_linear_1514_27)"/>
<path d="M134.17 142.5C134.543 141.133 135.043 139.523 135.67 137.67H137.57V144H136.25V138.86C135.937 140.213 135.423 141.927 134.71 144H133.62C132.867 141.713 132.357 140.017 132.09 138.91V144H130.8V137.67H132.62C133.247 139.377 133.763 140.987 134.17 142.5ZM140.269 139.46V144H138.999V139.46H140.269ZM138.849 138.3C138.849 138.087 138.922 137.903 139.069 137.75C139.222 137.59 139.402 137.51 139.609 137.51C139.829 137.51 140.016 137.587 140.169 137.74C140.329 137.893 140.409 138.08 140.409 138.3C140.409 138.533 140.332 138.723 140.179 138.87C140.032 139.017 139.842 139.09 139.609 139.09C139.389 139.09 139.206 139.017 139.059 138.87C138.919 138.717 138.849 138.527 138.849 138.3ZM142.829 137.55V144H141.569V138.21L142.829 137.55ZM145.446 137.55V144H144.186V138.21L145.446 137.55ZM148.023 139.46V144H146.753V139.46H148.023ZM146.603 138.3C146.603 138.087 146.676 137.903 146.823 137.75C146.976 137.59 147.156 137.51 147.363 137.51C147.583 137.51 147.77 137.587 147.923 137.74C148.083 137.893 148.163 138.08 148.163 138.3C148.163 138.533 148.086 138.723 147.933 138.87C147.786 139.017 147.596 139.09 147.363 139.09C147.143 139.09 146.96 139.017 146.813 138.87C146.673 138.717 146.603 138.527 146.603 138.3ZM151.283 139.34C152.029 139.34 152.609 139.603 153.023 140.13C153.369 140.57 153.543 141.107 153.543 141.74C153.543 142.48 153.286 143.08 152.773 143.54C152.346 143.927 151.849 144.12 151.283 144.12C150.623 144.12 150.069 143.873 149.623 143.38C149.223 142.933 149.023 142.387 149.023 141.74C149.023 141.007 149.246 140.413 149.693 139.96C150.099 139.547 150.629 139.34 151.283 139.34ZM151.283 143.18C151.929 143.18 152.253 142.7 152.253 141.74C152.253 140.74 151.929 140.24 151.283 140.24C150.636 140.24 150.313 140.74 150.313 141.74C150.313 142.7 150.636 143.18 151.283 143.18ZM155.826 139.9C155.959 139.747 156.159 139.617 156.426 139.51C156.692 139.397 156.946 139.34 157.186 139.34C157.759 139.34 158.172 139.497 158.426 139.81C158.686 140.123 158.816 140.63 158.816 141.33V144H157.546V141.38C157.546 140.727 157.256 140.4 156.676 140.4C156.529 140.4 156.372 140.433 156.206 140.5C156.039 140.56 155.926 140.63 155.866 140.71V144H154.606V139.46H155.676C155.709 139.633 155.742 139.78 155.776 139.9H155.826ZM162.773 140.56C162.447 140.347 162.073 140.24 161.653 140.24C161.333 140.24 161.173 140.377 161.173 140.65C161.173 140.903 161.39 141.083 161.823 141.19C162.363 141.323 162.73 141.473 162.923 141.64C163.203 141.88 163.343 142.24 163.343 142.72C163.343 143.147 163.19 143.487 162.883 143.74C162.583 143.993 162.177 144.12 161.663 144.12C160.937 144.12 160.323 143.913 159.823 143.5L160.283 142.8C160.63 143.073 161.047 143.21 161.533 143.21C161.727 143.21 161.883 143.163 162.003 143.07C162.123 142.977 162.183 142.853 162.183 142.7C162.183 142.42 161.947 142.237 161.473 142.15C160.46 141.957 159.953 141.463 159.953 140.67C159.953 140.29 160.107 139.973 160.413 139.72C160.727 139.467 161.117 139.34 161.583 139.34C162.217 139.34 162.767 139.523 163.233 139.89L162.773 140.56Z" fill="white"/>
<path d="M335.17 141.5C335.543 140.133 336.043 138.523 336.67 136.67H338.57V143H337.25V137.86C336.937 139.213 336.423 140.927 335.71 143H334.62C333.867 140.713 333.357 139.017 333.09 137.91V143H331.8V136.67H333.62C334.247 138.377 334.763 139.987 335.17 141.5ZM341.269 138.46V143H339.999V138.46H341.269ZM339.849 137.3C339.849 137.087 339.922 136.903 340.069 136.75C340.222 136.59 340.402 136.51 340.609 136.51C340.829 136.51 341.016 136.587 341.169 136.74C341.329 136.893 341.409 137.08 341.409 137.3C341.409 137.533 341.332 137.723 341.179 137.87C341.032 138.017 340.842 138.09 340.609 138.09C340.389 138.09 340.206 138.017 340.059 137.87C339.919 137.717 339.849 137.527 339.849 137.3ZM343.829 136.55V143H342.569V137.21L343.829 136.55ZM346.406 138.46V143H345.136V138.46H346.406ZM344.986 137.3C344.986 137.087 345.059 136.903 345.206 136.75C345.359 136.59 345.539 136.51 345.746 136.51C345.966 136.51 346.153 136.587 346.306 136.74C346.466 136.893 346.546 137.08 346.546 137.3C346.546 137.533 346.469 137.723 346.316 137.87C346.169 138.017 345.979 138.09 345.746 138.09C345.526 138.09 345.343 138.017 345.196 137.87C345.056 137.717 344.986 137.527 344.986 137.3ZM349.665 138.34C350.412 138.34 350.992 138.603 351.405 139.13C351.752 139.57 351.925 140.107 351.925 140.74C351.925 141.48 351.669 142.08 351.155 142.54C350.729 142.927 350.232 143.12 349.665 143.12C349.005 143.12 348.452 142.873 348.005 142.38C347.605 141.933 347.405 141.387 347.405 140.74C347.405 140.007 347.629 139.413 348.075 138.96C348.482 138.547 349.012 138.34 349.665 138.34ZM349.665 142.18C350.312 142.18 350.635 141.7 350.635 140.74C350.635 139.74 350.312 139.24 349.665 139.24C349.019 139.24 348.695 139.74 348.695 140.74C348.695 141.7 349.019 142.18 349.665 142.18ZM354.209 138.9C354.342 138.747 354.542 138.617 354.809 138.51C355.075 138.397 355.329 138.34 355.569 138.34C356.142 138.34 356.555 138.497 356.809 138.81C357.069 139.123 357.199 139.63 357.199 140.33V143H355.929V140.38C355.929 139.727 355.639 139.4 355.059 139.4C354.912 139.4 354.755 139.433 354.589 139.5C354.422 139.56 354.309 139.63 354.249 139.71V143H352.989V138.46H354.059C354.092 138.633 354.125 138.78 354.159 138.9H354.209ZM361.156 139.56C360.83 139.347 360.456 139.24 360.036 139.24C359.716 139.24 359.556 139.377 359.556 139.65C359.556 139.903 359.773 140.083 360.206 140.19C360.746 140.323 361.113 140.473 361.306 140.64C361.586 140.88 361.726 141.24 361.726 141.72C361.726 142.147 361.573 142.487 361.266 142.74C360.966 142.993 360.56 143.12 360.046 143.12C359.32 143.12 358.706 142.913 358.206 142.5L358.666 141.8C359.013 142.073 359.43 142.21 359.916 142.21C360.11 142.21 360.266 142.163 360.386 142.07C360.506 141.977 360.566 141.853 360.566 141.7C360.566 141.42 360.33 141.237 359.856 141.15C358.843 140.957 358.336 140.463 358.336 139.67C358.336 139.29 358.49 138.973 358.796 138.72C359.11 138.467 359.5 138.34 359.966 138.34C360.6 138.34 361.15 138.523 361.616 138.89L361.156 139.56Z" fill="white"/>
<path d="M434.17 140.5C434.543 139.133 435.043 137.523 435.67 135.67H437.57V142H436.25V136.86C435.937 138.213 435.423 139.927 434.71 142H433.62C432.867 139.713 432.357 138.017 432.09 136.91V142H430.8V135.67H432.62C433.247 137.377 433.763 138.987 434.17 140.5ZM440.269 137.46V142H438.999V137.46H440.269ZM438.849 136.3C438.849 136.087 438.922 135.903 439.069 135.75C439.222 135.59 439.402 135.51 439.609 135.51C439.829 135.51 440.016 135.587 440.169 135.74C440.329 135.893 440.409 136.08 440.409 136.3C440.409 136.533 440.332 136.723 440.179 136.87C440.032 137.017 439.842 137.09 439.609 137.09C439.389 137.09 439.206 137.017 439.059 136.87C438.919 136.717 438.849 136.527 438.849 136.3ZM442.829 135.55V142H441.569V136.21L442.829 135.55ZM445.446 135.55V142H444.186V136.21L445.446 135.55ZM448.023 137.46V142H446.753V137.46H448.023ZM446.603 136.3C446.603 136.087 446.676 135.903 446.823 135.75C446.976 135.59 447.156 135.51 447.363 135.51C447.583 135.51 447.77 135.587 447.923 135.74C448.083 135.893 448.163 136.08 448.163 136.3C448.163 136.533 448.086 136.723 447.933 136.87C447.786 137.017 447.596 137.09 447.363 137.09C447.143 137.09 446.96 137.017 446.813 136.87C446.673 136.717 446.603 136.527 446.603 136.3ZM451.283 137.34C452.029 137.34 452.609 137.603 453.023 138.13C453.369 138.57 453.543 139.107 453.543 139.74C453.543 140.48 453.286 141.08 452.773 141.54C452.346 141.927 451.849 142.12 451.283 142.12C450.623 142.12 450.069 141.873 449.623 141.38C449.223 140.933 449.023 140.387 449.023 139.74C449.023 139.007 449.246 138.413 449.693 137.96C450.099 137.547 450.629 137.34 451.283 137.34ZM451.283 141.18C451.929 141.18 452.253 140.7 452.253 139.74C452.253 138.74 451.929 138.24 451.283 138.24C450.636 138.24 450.313 138.74 450.313 139.74C450.313 140.7 450.636 141.18 451.283 141.18ZM455.826 137.9C455.959 137.747 456.159 137.617 456.426 137.51C456.692 137.397 456.946 137.34 457.186 137.34C457.759 137.34 458.172 137.497 458.426 137.81C458.686 138.123 458.816 138.63 458.816 139.33V142H457.546V139.38C457.546 138.727 457.256 138.4 456.676 138.4C456.529 138.4 456.372 138.433 456.206 138.5C456.039 138.56 455.926 138.63 455.866 138.71V142H454.606V137.46H455.676C455.709 137.633 455.742 137.78 455.776 137.9H455.826ZM462.773 138.56C462.447 138.347 462.073 138.24 461.653 138.24C461.333 138.24 461.173 138.377 461.173 138.65C461.173 138.903 461.39 139.083 461.823 139.19C462.363 139.323 462.73 139.473 462.923 139.64C463.203 139.88 463.343 140.24 463.343 140.72C463.343 141.147 463.19 141.487 462.883 141.74C462.583 141.993 462.177 142.12 461.663 142.12C460.937 142.12 460.323 141.913 459.823 141.5L460.283 140.8C460.63 141.073 461.047 141.21 461.533 141.21C461.727 141.21 461.883 141.163 462.003 141.07C462.123 140.977 462.183 140.853 462.183 140.7C462.183 140.42 461.947 140.237 461.473 140.15C460.46 139.957 459.953 139.463 459.953 138.67C459.953 138.29 460.107 137.973 460.413 137.72C460.727 137.467 461.117 137.34 461.583 137.34C462.217 137.34 462.767 137.523 463.233 137.89L462.773 138.56Z" fill="white"/>
<path d="M234.17 142.5C234.543 141.133 235.043 139.523 235.67 137.67H237.57V144H236.25V138.86C235.937 140.213 235.423 141.927 234.71 144H233.62C232.867 141.713 232.357 140.017 232.09 138.91V144H230.8V137.67H232.62C233.247 139.377 233.763 140.987 234.17 142.5ZM240.269 139.46V144H238.999V139.46H240.269ZM238.849 138.3C238.849 138.087 238.922 137.903 239.069 137.75C239.222 137.59 239.402 137.51 239.609 137.51C239.829 137.51 240.016 137.587 240.169 137.74C240.329 137.893 240.409 138.08 240.409 138.3C240.409 138.533 240.332 138.723 240.179 138.87C240.032 139.017 239.842 139.09 239.609 139.09C239.389 139.09 239.206 139.017 239.059 138.87C238.919 138.717 238.849 138.527 238.849 138.3ZM242.829 137.55V144H241.569V138.21L242.829 137.55ZM245.446 137.55V144H244.186V138.21L245.446 137.55ZM248.023 139.46V144H246.753V139.46H248.023ZM246.603 138.3C246.603 138.087 246.676 137.903 246.823 137.75C246.976 137.59 247.156 137.51 247.363 137.51C247.583 137.51 247.77 137.587 247.923 137.74C248.083 137.893 248.163 138.08 248.163 138.3C248.163 138.533 248.086 138.723 247.933 138.87C247.786 139.017 247.596 139.09 247.363 139.09C247.143 139.09 246.96 139.017 246.813 138.87C246.673 138.717 246.603 138.527 246.603 138.3ZM251.283 139.34C252.029 139.34 252.609 139.603 253.023 140.13C253.369 140.57 253.543 141.107 253.543 141.74C253.543 142.48 253.286 143.08 252.773 143.54C252.346 143.927 251.849 144.12 251.283 144.12C250.623 144.12 250.069 143.873 249.623 143.38C249.223 142.933 249.023 142.387 249.023 141.74C249.023 141.007 249.246 140.413 249.693 139.96C250.099 139.547 250.629 139.34 251.283 139.34ZM251.283 143.18C251.929 143.18 252.253 142.7 252.253 141.74C252.253 140.74 251.929 140.24 251.283 140.24C250.636 140.24 250.313 140.74 250.313 141.74C250.313 142.7 250.636 143.18 251.283 143.18ZM255.826 139.9C255.959 139.747 256.159 139.617 256.426 139.51C256.692 139.397 256.946 139.34 257.186 139.34C257.759 139.34 258.172 139.497 258.426 139.81C258.686 140.123 258.816 140.63 258.816 141.33V144H257.546V141.38C257.546 140.727 257.256 140.4 256.676 140.4C256.529 140.4 256.372 140.433 256.206 140.5C256.039 140.56 255.926 140.63 255.866 140.71V144H254.606V139.46H255.676C255.709 139.633 255.742 139.78 255.776 139.9H255.826ZM262.773 140.56C262.447 140.347 262.073 140.24 261.653 140.24C261.333 140.24 261.173 140.377 261.173 140.65C261.173 140.903 261.39 141.083 261.823 141.19C262.363 141.323 262.73 141.473 262.923 141.64C263.203 141.88 263.343 142.24 263.343 142.72C263.343 143.147 263.19 143.487 262.883 143.74C262.583 143.993 262.177 144.12 261.663 144.12C260.937 144.12 260.323 143.913 259.823 143.5L260.283 142.8C260.63 143.073 261.047 143.21 261.533 143.21C261.727 143.21 261.883 143.163 262.003 143.07C262.123 142.977 262.183 142.853 262.183 142.7C262.183 142.42 261.947 142.237 261.473 142.15C260.46 141.957 259.953 141.463 259.953 140.67C259.953 140.29 260.107 139.973 260.413 139.72C260.727 139.467 261.117 139.34 261.583 139.34C262.217 139.34 262.767 139.523 263.233 139.89L262.773 140.56Z" fill="white"/>
<path d="M138.936 116.808V132H135.792V120.384C135.568 120.528 135.24 120.728 134.808 120.984C134.184 121.352 133.736 121.632 133.464 121.824C133.256 121.472 132.904 120.888 132.408 120.072L132.264 119.856C132.152 119.648 132.064 119.496 132 119.4C132.512 119.032 133.32 118.48 134.424 117.744C135 117.36 135.456 117.048 135.792 116.808H138.936ZM146.595 130.344C146.595 130.36 146.595 130.376 146.595 130.392C146.595 130.904 146.435 131.32 146.115 131.64C145.795 131.96 145.371 132.12 144.843 132.12C144.299 132.12 143.859 131.96 143.523 131.64C143.203 131.304 143.043 130.864 143.043 130.32V130.272C143.075 129.776 143.251 129.376 143.571 129.072C143.907 128.768 144.331 128.616 144.843 128.616C145.371 128.616 145.795 128.776 146.115 129.096C146.435 129.416 146.595 129.832 146.595 130.344ZM154.182 125.208H151.902V122.664H154.182C154.822 122.664 155.262 122.576 155.502 122.4C155.87 122.128 156.054 121.64 156.054 120.936C156.054 120.392 155.894 119.96 155.574 119.64C155.254 119.304 154.822 119.136 154.278 119.136C153.302 119.136 152.286 119.584 151.23 120.48L150.078 118.464C151.406 117.168 152.91 116.52 154.59 116.52C155.998 116.52 157.15 116.912 158.046 117.696C158.91 118.464 159.342 119.456 159.342 120.672C159.342 122.176 158.718 123.184 157.47 123.696C159.086 124.32 159.894 125.52 159.894 127.296C159.894 129.168 159.254 130.528 157.974 131.376C157.078 131.968 155.958 132.264 154.614 132.264C153.878 132.264 153.038 132.072 152.094 131.688C151.166 131.288 150.406 130.808 149.814 130.248L151.086 128.352C151.95 129.136 153.054 129.528 154.398 129.528C155.086 129.528 155.63 129.336 156.03 128.952C156.43 128.552 156.63 128.016 156.63 127.344C156.63 125.92 155.814 125.208 154.182 125.208Z" fill="white"/>
<path d="M442.336 118.328H436.768V115.808H445.744V118.208L440.224 131H436.912L442.336 118.328ZM453.047 118.328H447.479V115.808H456.455V118.208L450.935 131H447.623L453.047 118.328Z" fill="white"/>
<path d="M339.448 126.208H337.168V123.664H339.448C340.088 123.664 340.528 123.576 340.768 123.4C341.136 123.128 341.32 122.64 341.32 121.936C341.32 121.392 341.16 120.96 340.84 120.64C340.52 120.304 340.088 120.136 339.544 120.136C338.568 120.136 337.552 120.584 336.496 121.48L335.344 119.464C336.672 118.168 338.176 117.52 339.856 117.52C341.264 117.52 342.416 117.912 343.312 118.696C344.176 119.464 344.608 120.456 344.608 121.672C344.608 123.176 343.984 124.184 342.736 124.696C344.352 125.32 345.16 126.52 345.16 128.296C345.16 130.168 344.52 131.528 343.24 132.376C342.344 132.968 341.224 133.264 339.88 133.264C339.144 133.264 338.304 133.072 337.36 132.688C336.432 132.288 335.672 131.808 335.08 131.248L336.352 129.352C337.216 130.136 338.32 130.528 339.664 130.528C340.352 130.528 340.896 130.336 341.296 129.952C341.696 129.552 341.896 129.016 341.896 128.344C341.896 126.92 341.08 126.208 339.448 126.208ZM351.518 126.208H349.238V123.664H351.518C352.158 123.664 352.598 123.576 352.838 123.4C353.206 123.128 353.39 122.64 353.39 121.936C353.39 121.392 353.23 120.96 352.91 120.64C352.59 120.304 352.158 120.136 351.614 120.136C350.638 120.136 349.622 120.584 348.566 121.48L347.414 119.464C348.742 118.168 350.246 117.52 351.926 117.52C353.334 117.52 354.486 117.912 355.382 118.696C356.246 119.464 356.678 120.456 356.678 121.672C356.678 123.176 356.054 124.184 354.806 124.696C356.422 125.32 357.23 126.52 357.23 128.296C357.23 130.168 356.59 131.528 355.31 132.376C354.414 132.968 353.294 133.264 351.95 133.264C351.214 133.264 350.374 133.072 349.43 132.688C348.502 132.288 347.742 131.808 347.15 131.248L348.422 129.352C349.286 130.136 350.39 130.528 351.734 130.528C352.422 130.528 352.966 130.336 353.366 129.952C353.766 129.552 353.966 129.016 353.966 128.344C353.966 126.92 353.15 126.208 351.518 126.208Z" fill="white"/>
<path d="M239.616 125.272C241.712 125.832 242.76 127.128 242.76 129.16C242.76 130.552 242.168 131.624 240.984 132.376C240.008 132.984 238.8 133.288 237.36 133.288C235.68 133.288 234.336 132.888 233.328 132.088C232.384 131.352 231.912 130.368 231.912 129.136C231.912 127.984 232.32 127.024 233.136 126.256C233.744 125.68 234.424 125.344 235.176 125.248C233.432 124.72 232.56 123.608 232.56 121.912C232.56 120.472 233.12 119.344 234.24 118.528C235.136 117.856 236.232 117.52 237.528 117.52C239 117.52 240.208 117.968 241.152 118.864C242.032 119.712 242.472 120.784 242.472 122.08C242.472 122.832 242.2 123.504 241.656 124.096C241.128 124.688 240.448 125.08 239.616 125.272ZM237.48 124.168C238.024 124.008 238.472 123.712 238.824 123.28C239.176 122.832 239.352 122.36 239.352 121.864C239.352 121.288 239.184 120.824 238.848 120.472C238.528 120.12 238.112 119.944 237.6 119.944C237.008 119.944 236.528 120.128 236.16 120.496C235.808 120.848 235.632 121.32 235.632 121.912C235.632 123 236.248 123.752 237.48 124.168ZM237.552 126.328C236.832 126.504 236.256 126.832 235.824 127.312C235.392 127.776 235.176 128.312 235.176 128.92C235.176 129.48 235.384 129.944 235.8 130.312C236.216 130.664 236.744 130.84 237.384 130.84C237.992 130.84 238.488 130.672 238.872 130.336C239.272 129.984 239.472 129.536 239.472 128.992C239.472 128.384 239.288 127.832 238.92 127.336C238.568 126.84 238.112 126.504 237.552 126.328ZM249.416 131.344C249.416 131.36 249.416 131.376 249.416 131.392C249.416 131.904 249.256 132.32 248.936 132.64C248.616 132.96 248.192 133.12 247.664 133.12C247.12 133.12 246.68 132.96 246.344 132.64C246.024 132.304 245.864 131.864 245.864 131.32V131.272C245.896 130.776 246.072 130.376 246.392 130.072C246.728 129.768 247.152 129.616 247.664 129.616C248.192 129.616 248.616 129.776 248.936 130.096C249.256 130.416 249.416 130.832 249.416 131.344ZM252.515 133V130.336C252.899 129.904 253.411 129.32 254.051 128.584C255.059 127.464 255.803 126.616 256.283 126.04C257.355 124.76 258.027 123.888 258.299 123.424C258.571 122.944 258.707 122.416 258.707 121.84C258.707 121.36 258.531 120.96 258.179 120.64C257.827 120.32 257.379 120.16 256.835 120.16C255.891 120.16 254.851 120.544 253.715 121.312L252.395 119.392C253.995 118.128 255.667 117.496 257.411 117.496C258.803 117.496 259.915 117.872 260.747 118.624C261.563 119.36 261.971 120.376 261.971 121.672C261.971 122.632 261.651 123.64 261.011 124.696C260.387 125.736 259.163 127.288 257.339 129.352C256.891 129.864 256.563 130.24 256.355 130.48H261.803V133H252.515Z" fill="white"/>
<path d="M261.44 12V0.623999C261.608 0.587999 262.082 0.539999 262.862 0.479999C263.642 0.419999 264.236 0.389999 264.644 0.389999C267.548 0.389999 269 1.578 269 3.954C269 5.238 268.478 6.33 267.434 7.23C267.866 8.226 268.604 9.816 269.648 12H267.272C266.684 10.716 266.048 9.336 265.364 7.86C265.232 7.884 265.052 7.896 264.824 7.896C264.296 7.896 263.954 7.848 263.798 7.752V12H261.44ZM263.798 2.406V5.844C264.158 5.952 264.548 6.006 264.968 6.006C266 6.006 266.516 5.322 266.516 3.954C266.516 2.838 265.982 2.28 264.914 2.28C264.302 2.28 263.93 2.322 263.798 2.406ZM277.977 8.652H272.361C272.409 9.204 272.631 9.666 273.027 10.038C273.435 10.398 273.915 10.578 274.467 10.578C275.247 10.578 276.063 10.338 276.915 9.858L277.491 11.064C276.627 11.832 275.547 12.216 274.251 12.216C272.859 12.216 271.773 11.82 270.993 11.028C270.249 10.284 269.877 9.258 269.877 7.95C269.877 6.666 270.297 5.604 271.137 4.764C271.893 3.996 272.853 3.612 274.017 3.612C275.313 3.612 276.321 4.05 277.041 4.926C277.665 5.67 277.977 6.636 277.977 7.824V8.652ZM272.235 6.978H275.709C275.649 5.802 275.079 5.214 273.999 5.214C272.955 5.214 272.367 5.802 272.235 6.978ZM283.888 12H282.124L278.938 3.828H281.224L282.97 9.228L284.824 3.828H287.2L286.858 4.674L286.462 5.646C285.346 8.406 284.488 10.524 283.888 12ZM296.083 8.652H290.467C290.515 9.204 290.737 9.666 291.133 10.038C291.541 10.398 292.021 10.578 292.573 10.578C293.353 10.578 294.169 10.338 295.021 9.858L295.597 11.064C294.733 11.832 293.653 12.216 292.357 12.216C290.965 12.216 289.879 11.82 289.099 11.028C288.355 10.284 287.983 9.258 287.983 7.95C287.983 6.666 288.403 5.604 289.243 4.764C289.999 3.996 290.959 3.612 292.123 3.612C293.419 3.612 294.427 4.05 295.147 4.926C295.771 5.67 296.083 6.636 296.083 7.824V8.652ZM290.341 6.978H293.815C293.755 5.802 293.185 5.214 292.105 5.214C291.061 5.214 290.473 5.802 290.341 6.978ZM300.193 4.62C300.433 4.344 300.793 4.11 301.273 3.918C301.753 3.714 302.209 3.612 302.641 3.612C303.673 3.612 304.417 3.894 304.873 4.458C305.341 5.022 305.575 5.934 305.575 7.194V12H303.289V7.284C303.289 6.108 302.767 5.52 301.723 5.52C301.459 5.52 301.177 5.58 300.877 5.7C300.577 5.808 300.373 5.934 300.265 6.078V12H297.997V3.828H299.923C299.983 4.14 300.043 4.404 300.103 4.62H300.193ZM313.257 11.064C312.657 11.832 311.835 12.216 310.791 12.216C309.759 12.216 309.021 11.952 308.577 11.424C308.145 10.884 307.929 9.984 307.929 8.724V3.828H310.161V8.13C310.161 8.946 310.269 9.522 310.485 9.858C310.701 10.182 311.073 10.344 311.601 10.344C311.829 10.344 312.087 10.284 312.375 10.164C312.663 10.044 312.837 9.918 312.897 9.786V3.828H315.165V12H313.473L313.275 11.064H313.257ZM325.175 8.652H319.559C319.607 9.204 319.829 9.666 320.225 10.038C320.633 10.398 321.113 10.578 321.665 10.578C322.445 10.578 323.261 10.338 324.113 9.858L324.689 11.064C323.825 11.832 322.745 12.216 321.449 12.216C320.057 12.216 318.971 11.82 318.191 11.028C317.447 10.284 317.075 9.258 317.075 7.95C317.075 6.666 317.495 5.604 318.335 4.764C319.091 3.996 320.051 3.612 321.215 3.612C322.511 3.612 323.519 4.05 324.239 4.926C324.863 5.67 325.175 6.636 325.175 7.824V8.652ZM319.433 6.978H322.907C322.847 5.802 322.277 5.214 321.197 5.214C320.153 5.214 319.565 5.802 319.433 6.978Z" fill="white"/>
<circle cx="143.5" cy="92.5" r="2.5" fill="url(#paint5_linear_1514_27)"/>
<circle cx="143.5" cy="92.5" r="8" stroke="url(#paint6_linear_1514_27)"/>
<path d="M142.5 92.5L242.96 84.5016" stroke="white" stroke-opacity="0.5"/>
<line x1="243.945" y1="84.503" x2="343.945" y2="73.503" stroke="white" stroke-opacity="0.5"/>
<line x1="343.919" y1="73.5065" x2="441.919" y2="57.5065" stroke="white" stroke-opacity="0.5"/>
<circle cx="143.5" cy="92.5" r="5" stroke="url(#paint7_linear_1514_27)"/>
<ellipse cx="441.5" cy="58" rx="5.5" ry="5" fill="url(#paint8_linear_1514_27)"/>
<path d="M459.5 58C459.5 67.6522 451.454 75.5 441.5 75.5C431.546 75.5 423.5 67.6522 423.5 58C423.5 48.3478 431.546 40.5 441.5 40.5C451.454 40.5 459.5 48.3478 459.5 58Z" stroke="url(#paint9_linear_1514_27)"/>
<path d="M452.5 58C452.5 64.3715 447.555 69.5 441.5 69.5C435.445 69.5 430.5 64.3715 430.5 58C430.5 51.6285 435.445 46.5 441.5 46.5C447.555 46.5 452.5 51.6285 452.5 58Z" stroke="url(#paint10_linear_1514_27)"/>
<circle cx="345.5" cy="72.5" r="4.5" fill="url(#paint11_linear_1514_27)"/>
<path d="M361.5 72.5C361.5 80.1732 354.399 86.5 345.5 86.5C336.601 86.5 329.5 80.1732 329.5 72.5C329.5 64.8268 336.601 58.5 345.5 58.5C354.399 58.5 361.5 64.8268 361.5 72.5Z" stroke="url(#paint12_linear_1514_27)"/>
<path d="M355.5 72.5C355.5 77.4247 351.071 81.5 345.5 81.5C339.929 81.5 335.5 77.4247 335.5 72.5C335.5 67.5753 339.929 63.5 345.5 63.5C351.071 63.5 355.5 67.5753 355.5 72.5Z" stroke="url(#paint13_linear_1514_27)"/>
<circle cx="242.5" cy="84.5" r="3.5" fill="url(#paint14_linear_1514_27)"/>
<path d="M254.5 84.5C254.5 90.5367 249.167 95.5 242.5 95.5C235.833 95.5 230.5 90.5367 230.5 84.5C230.5 78.4633 235.833 73.5 242.5 73.5C249.167 73.5 254.5 78.4633 254.5 84.5Z" stroke="url(#paint15_linear_1514_27)"/>
<path d="M250.5 84.5C250.5 88.309 246.979 91.5 242.5 91.5C238.021 91.5 234.5 88.309 234.5 84.5C234.5 80.691 238.021 77.5 242.5 77.5C246.979 77.5 250.5 80.691 250.5 84.5Z" stroke="url(#paint16_linear_1514_27)"/>
<defs>
<linearGradient id="paint0_linear_1514_27" x1="586" y1="155" x2="0" y2="155" gradientUnits="userSpaceOnUse">
<stop stop-color="#3AFF36"/>
<stop offset="0.473958" stop-color="#005308"/>
<stop offset="1" stop-color="#56FF7B"/>
</linearGradient>
<linearGradient id="paint1_linear_1514_27" x1="60.5" y1="129" x2="229" y2="129" gradientUnits="userSpaceOnUse">
<stop stop-color="#373636"/>
<stop offset="1" stop-color="#5D5F69"/>
</linearGradient>
<linearGradient id="paint2_linear_1514_27" x1="160.5" y1="129" x2="329" y2="129" gradientUnits="userSpaceOnUse">
<stop stop-color="#373636"/>
<stop offset="1" stop-color="#5D5F69"/>
</linearGradient>
<linearGradient id="paint3_linear_1514_27" x1="260.5" y1="129" x2="429" y2="129" gradientUnits="userSpaceOnUse">
<stop stop-color="#373636"/>
<stop offset="1" stop-color="#5D5F69"/>
</linearGradient>
<linearGradient id="paint4_linear_1514_27" x1="360.5" y1="129" x2="529" y2="129" gradientUnits="userSpaceOnUse">
<stop stop-color="#373636"/>
<stop offset="1" stop-color="#5D5F69"/>
</linearGradient>
<linearGradient id="paint5_linear_1514_27" x1="143.5" y1="90" x2="143.5" y2="95" gradientUnits="userSpaceOnUse">
<stop stop-color="#6FFD00"/>
<stop offset="0.541667" stop-color="#0E5C24"/>
<stop offset="0.989583" stop-color="#00FF47"/>
</linearGradient>
<linearGradient id="paint6_linear_1514_27" x1="143.5" y1="84" x2="143.5" y2="101" gradientUnits="userSpaceOnUse">
<stop stop-color="#24FF00"/>
<stop offset="0.598958" stop-color="#0A6213"/>
<stop offset="1" stop-color="#00FF19"/>
</linearGradient>
<linearGradient id="paint7_linear_1514_27" x1="143.5" y1="87" x2="143.5" y2="98" gradientUnits="userSpaceOnUse">
<stop stop-color="#24FF00"/>
<stop offset="0.598958" stop-color="#0A6213"/>
<stop offset="1" stop-color="#00FF19"/>
</linearGradient>
<linearGradient id="paint8_linear_1514_27" x1="441.5" y1="53" x2="441.5" y2="63" gradientUnits="userSpaceOnUse">
<stop stop-color="#6FFD00"/>
<stop offset="0.541667" stop-color="#0E5C24"/>
<stop offset="0.989583" stop-color="#00FF47"/>
</linearGradient>
<linearGradient id="paint9_linear_1514_27" x1="441.5" y1="40" x2="441.5" y2="76" gradientUnits="userSpaceOnUse">
<stop stop-color="#24FF00"/>
<stop offset="0.598958" stop-color="#0A6213"/>
<stop offset="1" stop-color="#00FF19"/>
</linearGradient>
<linearGradient id="paint10_linear_1514_27" x1="441.5" y1="46" x2="441.5" y2="70" gradientUnits="userSpaceOnUse">
<stop stop-color="#24FF00"/>
<stop offset="0.598958" stop-color="#0A6213"/>
<stop offset="1" stop-color="#00FF19"/>
</linearGradient>
<linearGradient id="paint11_linear_1514_27" x1="345.5" y1="68" x2="345.5" y2="77" gradientUnits="userSpaceOnUse">
<stop stop-color="#6FFD00"/>
<stop offset="0.541667" stop-color="#0E5C24"/>
<stop offset="0.989583" stop-color="#00FF47"/>
</linearGradient>
<linearGradient id="paint12_linear_1514_27" x1="345.5" y1="58" x2="345.5" y2="87" gradientUnits="userSpaceOnUse">
<stop stop-color="#24FF00"/>
<stop offset="0.598958" stop-color="#0A6213"/>
<stop offset="1" stop-color="#00FF19"/>
</linearGradient>
<linearGradient id="paint13_linear_1514_27" x1="345.5" y1="63" x2="345.5" y2="82" gradientUnits="userSpaceOnUse">
<stop stop-color="#24FF00"/>
<stop offset="0.598958" stop-color="#0A6213"/>
<stop offset="1" stop-color="#00FF19"/>
</linearGradient>
<linearGradient id="paint14_linear_1514_27" x1="242.5" y1="81" x2="242.5" y2="88" gradientUnits="userSpaceOnUse">
<stop stop-color="#6FFD00"/>
<stop offset="0.541667" stop-color="#0E5C24"/>
<stop offset="0.989583" stop-color="#00FF47"/>
</linearGradient>
<linearGradient id="paint15_linear_1514_27" x1="242.5" y1="73" x2="242.5" y2="96" gradientUnits="userSpaceOnUse">
<stop stop-color="#24FF00"/>
<stop offset="0.598958" stop-color="#0A6213"/>
<stop offset="1" stop-color="#00FF19"/>
</linearGradient>
<linearGradient id="paint16_linear_1514_27" x1="242.5" y1="77" x2="242.5" y2="92" gradientUnits="userSpaceOnUse">
<stop stop-color="#24FF00"/>
<stop offset="0.598958" stop-color="#0A6213"/>
<stop offset="1" stop-color="#00FF19"/>
</linearGradient>
</defs>
</svg>
