<svg width="586" height="224" viewBox="0 0 586 224" fill="none" xmlns="http://www.w3.org/2000/svg">
<path d="M494.468 205.404V213H492.896V207.192C492.784 207.264 492.62 207.364 492.404 207.492C492.092 207.676 491.868 207.816 491.732 207.912C491.628 207.736 491.452 207.444 491.204 207.036L491.132 206.928C491.076 206.824 491.032 206.748 491 206.7C491.256 206.516 491.66 206.24 492.212 205.872C492.5 205.68 492.728 205.524 492.896 205.404H494.468ZM498.898 205.404V213H497.326V207.192C497.214 207.264 497.05 207.364 496.834 207.492C496.522 207.676 496.298 207.816 496.162 207.912C496.058 207.736 495.882 207.444 495.634 207.036L495.562 206.928C495.506 206.824 495.462 206.748 495.43 206.7C495.686 206.516 496.09 206.24 496.642 205.872C496.93 205.68 497.158 205.524 497.326 205.404H498.898ZM502.727 212.172C502.727 212.18 502.727 212.188 502.727 212.196C502.727 212.452 502.647 212.66 502.487 212.82C502.327 212.98 502.115 213.06 501.851 213.06C501.579 213.06 501.359 212.98 501.191 212.82C501.031 212.652 500.951 212.432 500.951 212.16V212.136C500.967 211.888 501.055 211.688 501.215 211.536C501.383 211.384 501.595 211.308 501.851 211.308C502.115 211.308 502.327 211.388 502.487 211.548C502.647 211.708 502.727 211.916 502.727 212.172ZM507.157 205.26C508.085 205.26 508.829 205.704 509.389 206.592C509.861 207.328 510.097 208.204 510.097 209.22C510.097 210.444 509.797 211.424 509.197 212.16C508.669 212.816 507.989 213.144 507.157 213.144C506.205 213.144 505.461 212.72 504.925 211.872C504.477 211.168 504.253 210.284 504.253 209.22C504.253 208.036 504.549 207.064 505.141 206.304C505.677 205.608 506.349 205.26 507.157 205.26ZM507.181 206.604C506.317 206.604 505.885 207.452 505.885 209.148C505.885 210.004 506.009 210.676 506.257 211.164C506.481 211.604 506.777 211.824 507.145 211.824C507.553 211.824 507.873 211.588 508.105 211.116C508.345 210.636 508.465 209.98 508.465 209.148C508.465 207.452 508.037 206.604 507.181 206.604ZM513.919 205.26C514.847 205.26 515.591 205.704 516.151 206.592C516.623 207.328 516.859 208.204 516.859 209.22C516.859 210.444 516.559 211.424 515.959 212.16C515.431 212.816 514.751 213.144 513.919 213.144C512.967 213.144 512.223 212.72 511.687 211.872C511.239 211.168 511.015 210.284 511.015 209.22C511.015 208.036 511.311 207.064 511.903 206.304C512.439 205.608 513.111 205.26 513.919 205.26ZM513.943 206.604C513.079 206.604 512.647 207.452 512.647 209.148C512.647 210.004 512.771 210.676 513.019 211.164C513.243 211.604 513.539 211.824 513.907 211.824C514.315 211.824 514.635 211.588 514.867 211.116C515.107 210.636 515.227 209.98 515.227 209.148C515.227 207.452 514.799 206.604 513.943 206.604ZM520.176 205.404H521.496L524.292 213H522.696C522.56 212.6 522.392 212.072 522.192 211.416H519.468C519.356 211.776 519.184 212.304 518.952 213H517.38L520.176 205.404ZM520.848 207.456C520.624 208.088 520.316 208.976 519.924 210.12H521.748C521.372 209.016 521.072 208.128 520.848 207.456ZM529.356 211.2C529.804 209.56 530.404 207.628 531.156 205.404H533.436V213H531.852V206.832C531.476 208.456 530.86 210.512 530.004 213H528.696C527.792 210.256 527.18 208.22 526.86 206.892V213H525.312V205.404H527.496C528.248 207.452 528.868 209.384 529.356 211.2Z" fill="white"/>
<path d="M430.004 198.2C430.452 196.56 431.052 194.628 431.804 192.404H434.084V200H432.5V193.832C432.124 195.456 431.508 197.512 430.652 200H429.344C428.44 197.256 427.828 195.22 427.508 193.892V200H425.96V192.404H428.144C428.896 194.452 429.516 196.384 430.004 198.2ZM438.211 194.408C439.107 194.408 439.803 194.724 440.299 195.356C440.715 195.884 440.923 196.528 440.923 197.288C440.923 198.176 440.615 198.896 439.999 199.448C439.487 199.912 438.891 200.144 438.211 200.144C437.419 200.144 436.755 199.848 436.219 199.256C435.739 198.72 435.499 198.064 435.499 197.288C435.499 196.408 435.767 195.696 436.303 195.152C436.791 194.656 437.427 194.408 438.211 194.408ZM438.211 199.016C438.987 199.016 439.375 198.44 439.375 197.288C439.375 196.088 438.987 195.488 438.211 195.488C437.435 195.488 437.047 196.088 437.047 197.288C437.047 198.44 437.435 199.016 438.211 199.016ZM443.663 195.08C443.823 194.896 444.063 194.74 444.383 194.612C444.703 194.476 445.007 194.408 445.295 194.408C445.983 194.408 446.479 194.596 446.783 194.972C447.095 195.348 447.251 195.956 447.251 196.796V200H445.727V196.856C445.727 196.072 445.379 195.68 444.683 195.68C444.507 195.68 444.319 195.72 444.119 195.8C443.919 195.872 443.783 195.956 443.711 196.052V200H442.199V194.552H443.483C443.523 194.76 443.563 194.936 443.603 195.08H443.663ZM452.708 200L452.492 199.424C452.364 199.632 452.156 199.804 451.868 199.94C451.58 200.076 451.284 200.144 450.98 200.144C450.124 200.144 449.472 199.86 449.024 199.292C448.648 198.82 448.46 198.212 448.46 197.468C448.46 196.42 448.764 195.612 449.372 195.044C449.828 194.62 450.376 194.408 451.016 194.408C451.568 194.408 452.032 194.56 452.408 194.864V193.124L453.92 192.284V200H452.708ZM452.408 197.924V196.4C452.352 196.136 452.224 195.92 452.024 195.752C451.832 195.576 451.604 195.488 451.34 195.488C450.932 195.488 450.608 195.648 450.368 195.968C450.128 196.288 450.008 196.72 450.008 197.264C450.008 198.456 450.396 199.052 451.172 199.052C451.46 199.052 451.728 198.94 451.976 198.716C452.224 198.484 452.368 198.22 452.408 197.924ZM459.938 200H458.726L458.606 199.484C458.078 199.924 457.542 200.144 456.998 200.144C455.79 200.144 455.186 199.556 455.186 198.38C455.186 197.796 455.438 197.34 455.942 197.012C456.454 196.676 457.21 196.508 458.21 196.508H458.462V196.484C458.462 196.14 458.39 195.904 458.246 195.776C458.102 195.648 457.842 195.584 457.466 195.584C456.938 195.584 456.454 195.752 456.014 196.088C455.87 195.824 455.734 195.564 455.606 195.308C456.062 194.956 456.458 194.72 456.794 194.6C457.138 194.472 457.546 194.408 458.018 194.408C459.298 194.408 459.938 195.208 459.938 196.808V200ZM458.414 197.432H458.234C457.778 197.432 457.41 197.512 457.13 197.672C456.85 197.832 456.71 198.044 456.71 198.308C456.71 198.804 456.926 199.052 457.358 199.052C457.622 199.052 457.854 198.976 458.054 198.824C458.254 198.672 458.374 198.48 458.414 198.248V197.432ZM466.562 194.552C466.242 195.448 465.802 196.652 465.242 198.164C464.834 199.292 464.514 200.168 464.282 200.792C463.906 201.792 463.378 202.292 462.698 202.292C462.17 202.292 461.626 202.064 461.066 201.608C461.226 201.336 461.362 201.096 461.474 200.888C461.77 201.08 462.03 201.176 462.254 201.176C462.582 201.176 462.874 200.784 463.13 200H462.842L460.934 194.552H462.434C462.522 194.816 462.658 195.228 462.842 195.788L462.914 195.98C463.258 197.02 463.506 197.784 463.658 198.272L465.05 194.552H466.562ZM473.093 192.404V200H471.521V194.192C471.409 194.264 471.245 194.364 471.029 194.492C470.717 194.676 470.493 194.816 470.357 194.912C470.253 194.736 470.077 194.444 469.829 194.036L469.757 193.928C469.701 193.824 469.657 193.748 469.625 193.7C469.881 193.516 470.285 193.24 470.837 192.872C471.125 192.68 471.353 192.524 471.521 192.404H473.093ZM479.071 193.664H476.419V195.2C476.515 195.16 476.647 195.14 476.815 195.14C477.695 195.14 478.379 195.36 478.867 195.8C479.331 196.224 479.563 196.804 479.563 197.54C479.563 198.316 479.275 198.96 478.699 199.472C478.195 199.92 477.583 200.144 476.863 200.144C475.903 200.144 475.067 199.796 474.355 199.1L475.003 198.104C475.587 198.544 476.151 198.764 476.695 198.764C477.535 198.764 477.955 198.388 477.955 197.636C477.955 196.796 477.415 196.376 476.335 196.376C475.959 196.376 475.467 196.444 474.859 196.58V192.404H479.071V193.664ZM484.016 195.872C483.624 195.616 483.176 195.488 482.672 195.488C482.288 195.488 482.096 195.652 482.096 195.98C482.096 196.284 482.356 196.5 482.876 196.628C483.524 196.788 483.964 196.968 484.196 197.168C484.532 197.456 484.7 197.888 484.7 198.464C484.7 198.976 484.516 199.384 484.148 199.688C483.788 199.992 483.3 200.144 482.684 200.144C481.812 200.144 481.076 199.896 480.476 199.4L481.028 198.56C481.444 198.888 481.944 199.052 482.528 199.052C482.76 199.052 482.948 198.996 483.092 198.884C483.236 198.772 483.308 198.624 483.308 198.44C483.308 198.104 483.024 197.884 482.456 197.78C481.24 197.548 480.632 196.956 480.632 196.004C480.632 195.548 480.816 195.168 481.184 194.864C481.56 194.56 482.028 194.408 482.588 194.408C483.348 194.408 484.008 194.628 484.568 195.068L484.016 195.872ZM489.376 195.764H487.816V198.464C487.816 198.864 487.948 199.064 488.212 199.064C488.452 199.064 488.752 198.96 489.112 198.752L489.616 199.52C489.048 199.968 488.42 200.192 487.732 200.192C486.772 200.192 486.292 199.664 486.292 198.608V195.764H485.536V194.552H486.304V193.58C486.704 193.364 487.212 193.096 487.828 192.776V194.552H489.376V195.764ZM497.809 198.2C498.257 196.56 498.857 194.628 499.609 192.404H501.889V200H500.305V193.832C499.929 195.456 499.313 197.512 498.457 200H497.149C496.245 197.256 495.633 195.22 495.313 193.892V200H493.765V192.404H495.949C496.701 194.452 497.321 196.384 497.809 198.2ZM508.056 200H506.844L506.724 199.484C506.196 199.924 505.66 200.144 505.116 200.144C503.908 200.144 503.304 199.556 503.304 198.38C503.304 197.796 503.556 197.34 504.06 197.012C504.572 196.676 505.328 196.508 506.328 196.508H506.58V196.484C506.58 196.14 506.508 195.904 506.364 195.776C506.22 195.648 505.96 195.584 505.584 195.584C505.056 195.584 504.572 195.752 504.132 196.088C503.988 195.824 503.852 195.564 503.724 195.308C504.18 194.956 504.576 194.72 504.912 194.6C505.256 194.472 505.664 194.408 506.136 194.408C507.416 194.408 508.056 195.208 508.056 196.808V200ZM506.532 197.432H506.352C505.896 197.432 505.528 197.512 505.248 197.672C504.968 197.832 504.828 198.044 504.828 198.308C504.828 198.804 505.044 199.052 505.476 199.052C505.74 199.052 505.972 198.976 506.172 198.824C506.372 198.672 506.492 198.48 506.532 198.248V197.432ZM514.679 194.552C514.359 195.448 513.919 196.652 513.359 198.164C512.951 199.292 512.631 200.168 512.399 200.792C512.023 201.792 511.495 202.292 510.815 202.292C510.287 202.292 509.743 202.064 509.183 201.608C509.343 201.336 509.479 201.096 509.591 200.888C509.887 201.08 510.147 201.176 510.371 201.176C510.699 201.176 510.991 200.784 511.247 200H510.959L509.051 194.552H510.551C510.639 194.816 510.775 195.228 510.959 195.788L511.031 195.98C511.375 197.02 511.623 197.784 511.775 198.272L513.167 194.552H514.679ZM518.222 200V198.668C518.414 198.452 518.67 198.16 518.99 197.792C519.494 197.232 519.866 196.808 520.106 196.52C520.642 195.88 520.978 195.444 521.114 195.212C521.25 194.972 521.318 194.708 521.318 194.42C521.318 194.18 521.23 193.98 521.054 193.82C520.878 193.66 520.654 193.58 520.382 193.58C519.91 193.58 519.39 193.772 518.822 194.156L518.162 193.196C518.962 192.564 519.798 192.248 520.67 192.248C521.366 192.248 521.922 192.436 522.338 192.812C522.746 193.18 522.95 193.688 522.95 194.336C522.95 194.816 522.79 195.32 522.47 195.848C522.158 196.368 521.546 197.144 520.634 198.176C520.41 198.432 520.246 198.62 520.142 198.74H522.866V200H518.222ZM526.692 192.26C527.62 192.26 528.364 192.704 528.924 193.592C529.396 194.328 529.632 195.204 529.632 196.22C529.632 197.444 529.332 198.424 528.732 199.16C528.204 199.816 527.524 200.144 526.692 200.144C525.74 200.144 524.996 199.72 524.46 198.872C524.012 198.168 523.788 197.284 523.788 196.22C523.788 195.036 524.084 194.064 524.676 193.304C525.212 192.608 525.884 192.26 526.692 192.26ZM526.716 193.604C525.852 193.604 525.42 194.452 525.42 196.148C525.42 197.004 525.544 197.676 525.792 198.164C526.016 198.604 526.312 198.824 526.68 198.824C527.088 198.824 527.408 198.588 527.64 198.116C527.88 197.636 528 196.98 528 196.148C528 194.452 527.572 193.604 526.716 193.604ZM530.574 200V198.668C530.766 198.452 531.022 198.16 531.342 197.792C531.846 197.232 532.218 196.808 532.458 196.52C532.994 195.88 533.33 195.444 533.466 195.212C533.602 194.972 533.67 194.708 533.67 194.42C533.67 194.18 533.582 193.98 533.406 193.82C533.23 193.66 533.006 193.58 532.734 193.58C532.262 193.58 531.742 193.772 531.174 194.156L530.514 193.196C531.314 192.564 532.15 192.248 533.022 192.248C533.718 192.248 534.274 192.436 534.69 192.812C535.098 193.18 535.302 193.688 535.302 194.336C535.302 194.816 535.142 195.32 534.822 195.848C534.51 196.368 533.898 197.144 532.986 198.176C532.762 198.432 532.598 198.62 532.494 198.74H535.218V200H530.574ZM536.164 200V198.668C536.356 198.452 536.612 198.16 536.932 197.792C537.436 197.232 537.808 196.808 538.048 196.52C538.584 195.88 538.92 195.444 539.056 195.212C539.192 194.972 539.26 194.708 539.26 194.42C539.26 194.18 539.172 193.98 538.996 193.82C538.82 193.66 538.596 193.58 538.324 193.58C537.852 193.58 537.332 193.772 536.764 194.156L536.104 193.196C536.904 192.564 537.74 192.248 538.612 192.248C539.308 192.248 539.864 192.436 540.28 192.812C540.688 193.18 540.892 193.688 540.892 194.336C540.892 194.816 540.732 195.32 540.412 195.848C540.1 196.368 539.488 197.144 538.576 198.176C538.352 198.432 538.188 198.62 538.084 198.74H540.808V200H536.164Z" fill="white"/>
<path d="M72.024 202V191.872H78.648V193.552H74.12V195.952H77.896V197.632H74.12V202H72.024ZM81.9946 191.68V202H79.9786V192.736L81.9946 191.68ZM90.8221 194.736C90.3955 195.931 89.8088 197.536 89.0621 199.552C88.5181 201.056 88.0915 202.224 87.7821 203.056C87.2808 204.389 86.5768 205.056 85.6701 205.056C84.9661 205.056 84.2408 204.752 83.4941 204.144C83.7075 203.781 83.8888 203.461 84.0381 203.184C84.4328 203.44 84.7795 203.568 85.0781 203.568C85.5155 203.568 85.9048 203.045 86.2461 202H85.8621L83.3181 194.736H85.3181C85.4355 195.088 85.6168 195.637 85.8621 196.384L85.9581 196.64C86.4168 198.027 86.7475 199.045 86.9501 199.696L88.8061 194.736H90.8221ZM96.2945 191.68C97.8518 191.68 99.0518 192.299 99.8945 193.536C100.556 194.507 100.887 195.68 100.887 197.056C100.887 198.635 100.455 199.899 99.5905 200.848C98.7692 201.744 97.6705 202.192 96.2945 202.192C94.7158 202.192 93.5158 201.616 92.6945 200.464C92.0332 199.557 91.7025 198.421 91.7025 197.056C91.7025 195.456 92.1345 194.149 92.9985 193.136C93.8198 192.165 94.9185 191.68 96.2945 191.68ZM96.2945 200.432C97.0625 200.432 97.6545 200.144 98.0705 199.568C98.4865 198.981 98.6945 198.144 98.6945 197.056C98.6945 195.893 98.4652 194.987 98.0065 194.336C97.5798 193.76 97.0092 193.472 96.2945 193.472C95.5265 193.472 94.9292 193.787 94.5025 194.416C94.0865 195.045 93.8785 195.925 93.8785 197.056C93.8785 199.307 94.6838 200.432 96.2945 200.432ZM107.355 201.168C106.822 201.851 106.091 202.192 105.163 202.192C104.246 202.192 103.59 201.957 103.195 201.488C102.811 201.008 102.619 200.208 102.619 199.088V194.736H104.603V198.56C104.603 199.285 104.699 199.797 104.891 200.096C105.083 200.384 105.414 200.528 105.883 200.528C106.086 200.528 106.315 200.475 106.571 200.368C106.827 200.261 106.982 200.149 107.035 200.032V194.736H109.051V202H107.547L107.371 201.168H107.355ZM115.773 196.352H113.693V199.952C113.693 200.485 113.869 200.752 114.221 200.752C114.541 200.752 114.941 200.613 115.421 200.336L116.093 201.36C115.335 201.957 114.498 202.256 113.581 202.256C112.301 202.256 111.661 201.552 111.661 200.144V196.352H110.653V194.736H111.677V193.44C112.21 193.152 112.887 192.795 113.709 192.368V194.736H115.773V196.352Z" fill="white"/>
<path d="M72.8 213V206.68C72.8933 206.66 73.1567 206.633 73.59 206.6C74.0233 206.567 74.3533 206.55 74.58 206.55C76.1933 206.55 77 207.21 77 208.53C77 209.243 76.71 209.85 76.13 210.35C76.37 210.903 76.78 211.787 77.36 213H76.04C75.7133 212.287 75.36 211.52 74.98 210.7C74.9067 210.713 74.8067 210.72 74.68 210.72C74.3867 210.72 74.1967 210.693 74.11 210.64V213H72.8ZM74.11 207.67V209.58C74.31 209.64 74.5267 209.67 74.76 209.67C75.3333 209.67 75.62 209.29 75.62 208.53C75.62 207.91 75.3233 207.6 74.73 207.6C74.39 207.6 74.1833 207.623 74.11 207.67ZM81.9874 211.14H78.8674C78.8941 211.447 79.0174 211.703 79.2374 211.91C79.4641 212.11 79.7308 212.21 80.0374 212.21C80.4708 212.21 80.9241 212.077 81.3974 211.81L81.7174 212.48C81.2374 212.907 80.6374 213.12 79.9174 213.12C79.1441 213.12 78.5408 212.9 78.1074 212.46C77.6941 212.047 77.4874 211.477 77.4874 210.75C77.4874 210.037 77.7208 209.447 78.1874 208.98C78.6074 208.553 79.1408 208.34 79.7874 208.34C80.5074 208.34 81.0674 208.583 81.4674 209.07C81.8141 209.483 81.9874 210.02 81.9874 210.68V211.14ZM78.7974 210.21H80.7274C80.6941 209.557 80.3774 209.23 79.7774 209.23C79.1974 209.23 78.8708 209.557 78.7974 210.21ZM86.2911 213L86.1111 212.52C86.0044 212.693 85.8311 212.837 85.5911 212.95C85.3511 213.063 85.1044 213.12 84.8511 213.12C84.1378 213.12 83.5944 212.883 83.2211 212.41C82.9078 212.017 82.7511 211.51 82.7511 210.89C82.7511 210.017 83.0044 209.343 83.5111 208.87C83.8911 208.517 84.3478 208.34 84.8811 208.34C85.3411 208.34 85.7278 208.467 86.0411 208.72V207.27L87.3011 206.57V213H86.2911ZM86.0411 211.27V210C85.9944 209.78 85.8878 209.6 85.7211 209.46C85.5611 209.313 85.3711 209.24 85.1511 209.24C84.8111 209.24 84.5411 209.373 84.3411 209.64C84.1411 209.907 84.0411 210.267 84.0411 210.72C84.0411 211.713 84.3644 212.21 85.0111 212.21C85.2511 212.21 85.4744 212.117 85.6811 211.93C85.8878 211.737 86.0078 211.517 86.0411 211.27ZM91.6166 212.48C91.2832 212.907 90.8266 213.12 90.2466 213.12C89.6732 213.12 89.2632 212.973 89.0166 212.68C88.7766 212.38 88.6566 211.88 88.6566 211.18V208.46H89.8966V210.85C89.8966 211.303 89.9566 211.623 90.0766 211.81C90.1966 211.99 90.4032 212.08 90.6966 212.08C90.8232 212.08 90.9666 212.047 91.1266 211.98C91.2866 211.913 91.3832 211.843 91.4166 211.77V208.46H92.6766V213H91.7366L91.6266 212.48H91.6166ZM97.8474 212.42C97.3741 212.887 96.8141 213.12 96.1674 213.12C95.3941 213.12 94.7808 212.873 94.3274 212.38C93.9341 211.947 93.7374 211.403 93.7374 210.75C93.7374 210.017 93.9908 209.417 94.4974 208.95C94.9374 208.543 95.4741 208.34 96.1074 208.34C96.8074 208.34 97.3708 208.56 97.7974 209L97.4174 209.68C97.0774 209.38 96.7074 209.23 96.3074 209.23C95.9341 209.23 95.6274 209.377 95.3874 209.67C95.1474 209.957 95.0274 210.327 95.0274 210.78C95.0274 211.2 95.1441 211.547 95.3774 211.82C95.6174 212.087 95.9208 212.22 96.2874 212.22C96.7274 212.22 97.1041 212.057 97.4174 211.73L97.8474 212.42ZM100.023 208.46V213H98.753V208.46H100.023ZM98.603 207.3C98.603 207.087 98.6764 206.903 98.823 206.75C98.9764 206.59 99.1564 206.51 99.363 206.51C99.583 206.51 99.7697 206.587 99.923 206.74C100.083 206.893 100.163 207.08 100.163 207.3C100.163 207.533 100.086 207.723 99.933 207.87C99.7864 208.017 99.5964 208.09 99.363 208.09C99.143 208.09 98.9597 208.017 98.813 207.87C98.673 207.717 98.603 207.527 98.603 207.3ZM102.543 208.9C102.676 208.747 102.876 208.617 103.143 208.51C103.409 208.397 103.663 208.34 103.903 208.34C104.476 208.34 104.889 208.497 105.143 208.81C105.403 209.123 105.533 209.63 105.533 210.33V213H104.263V210.38C104.263 209.727 103.973 209.4 103.393 209.4C103.246 209.4 103.089 209.433 102.923 209.5C102.756 209.56 102.643 209.63 102.583 209.71V213H101.323V208.46H102.393C102.426 208.633 102.459 208.78 102.493 208.9H102.543ZM109.72 212.45C109.42 212.897 108.997 213.12 108.45 213.12C107.783 213.12 107.267 212.883 106.9 212.41C106.587 212.01 106.43 211.503 106.43 210.89C106.43 210.017 106.683 209.343 107.19 208.87C107.577 208.517 108.033 208.34 108.56 208.34C108.98 208.34 109.337 208.443 109.63 208.65C109.823 208.783 109.92 208.883 109.92 208.95L110.02 208.46H110.99V212.53C110.99 213.297 110.8 213.887 110.42 214.3C110.047 214.707 109.513 214.91 108.82 214.91C108.1 214.91 107.477 214.67 106.95 214.19L107.27 213.55C107.677 213.817 108.133 213.95 108.64 213.95C109.36 213.95 109.72 213.45 109.72 212.45ZM109.72 210C109.693 209.793 109.59 209.617 109.41 209.47C109.237 209.317 109.043 209.24 108.83 209.24C108.497 209.24 108.23 209.373 108.03 209.64C107.83 209.907 107.73 210.267 107.73 210.72C107.73 211.713 108.057 212.21 108.71 212.21C108.983 212.21 109.22 212.107 109.42 211.9C109.62 211.687 109.72 211.437 109.72 211.15V210ZM118.24 211.5C118.614 210.133 119.114 208.523 119.74 206.67H121.64V213H120.32V207.86C120.007 209.213 119.494 210.927 118.78 213H117.69C116.937 210.713 116.427 209.017 116.16 207.91V213H114.87V206.67H116.69C117.317 208.377 117.834 209.987 118.24 211.5ZM125.079 208.34C125.826 208.34 126.406 208.603 126.819 209.13C127.166 209.57 127.339 210.107 127.339 210.74C127.339 211.48 127.083 212.08 126.569 212.54C126.143 212.927 125.646 213.12 125.079 213.12C124.419 213.12 123.866 212.873 123.419 212.38C123.019 211.933 122.819 211.387 122.819 210.74C122.819 210.007 123.043 209.413 123.489 208.96C123.896 208.547 124.426 208.34 125.079 208.34ZM125.079 212.18C125.726 212.18 126.049 211.7 126.049 210.74C126.049 209.74 125.726 209.24 125.079 209.24C124.433 209.24 124.109 209.74 124.109 210.74C124.109 211.7 124.433 212.18 125.079 212.18ZM131.053 209.56C130.726 209.347 130.353 209.24 129.933 209.24C129.613 209.24 129.453 209.377 129.453 209.65C129.453 209.903 129.669 210.083 130.103 210.19C130.643 210.323 131.009 210.473 131.203 210.64C131.483 210.88 131.623 211.24 131.623 211.72C131.623 212.147 131.469 212.487 131.163 212.74C130.863 212.993 130.456 213.12 129.943 213.12C129.216 213.12 128.603 212.913 128.103 212.5L128.563 211.8C128.909 212.073 129.326 212.21 129.813 212.21C130.006 212.21 130.163 212.163 130.283 212.07C130.403 211.977 130.463 211.853 130.463 211.7C130.463 211.42 130.226 211.237 129.753 211.15C128.739 210.957 128.233 210.463 128.233 209.67C128.233 209.29 128.386 208.973 128.693 208.72C129.006 208.467 129.396 208.34 129.863 208.34C130.496 208.34 131.046 208.523 131.513 208.89L131.053 209.56ZM135.56 214.77V212.53C135.527 212.663 135.383 212.797 135.13 212.93C134.883 213.057 134.647 213.12 134.42 213.12C133.72 213.12 133.19 212.877 132.83 212.39C132.53 211.99 132.38 211.48 132.38 210.86C132.38 210.02 132.627 209.367 133.12 208.9C133.507 208.527 133.977 208.34 134.53 208.34C135.05 208.34 135.46 208.543 135.76 208.95L135.83 208.46H136.83V214.77H135.56ZM135.56 211.16V210.05C135.56 210.043 135.56 210.033 135.56 210.02C135.56 209.833 135.473 209.657 135.3 209.49C135.133 209.323 134.953 209.24 134.76 209.24C134.427 209.24 134.16 209.373 133.96 209.64C133.76 209.907 133.66 210.267 133.66 210.72C133.66 211.713 134.003 212.21 134.69 212.21C134.943 212.21 135.15 212.117 135.31 211.93C135.477 211.743 135.56 211.503 135.56 211.21C135.56 211.19 135.56 211.173 135.56 211.16ZM141.148 212.48C140.814 212.907 140.358 213.12 139.778 213.12C139.204 213.12 138.794 212.973 138.548 212.68C138.308 212.38 138.188 211.88 138.188 211.18V208.46H139.428V210.85C139.428 211.303 139.488 211.623 139.608 211.81C139.728 211.99 139.934 212.08 140.228 212.08C140.354 212.08 140.498 212.047 140.658 211.98C140.818 211.913 140.914 211.843 140.948 211.77V208.46H142.208V213H141.268L141.158 212.48H141.148ZM144.789 208.46V213H143.519V208.46H144.789ZM143.369 207.3C143.369 207.087 143.442 206.903 143.589 206.75C143.742 206.59 143.922 206.51 144.129 206.51C144.349 206.51 144.535 206.587 144.689 206.74C144.849 206.893 144.929 207.08 144.929 207.3C144.929 207.533 144.852 207.723 144.699 207.87C144.552 208.017 144.362 208.09 144.129 208.09C143.909 208.09 143.725 208.017 143.579 207.87C143.439 207.717 143.369 207.527 143.369 207.3ZM148.928 209.47H147.628V211.72C147.628 212.053 147.738 212.22 147.958 212.22C148.158 212.22 148.408 212.133 148.708 211.96L149.128 212.6C148.655 212.973 148.132 213.16 147.558 213.16C146.758 213.16 146.358 212.72 146.358 211.84V209.47H145.728V208.46H146.368V207.65C146.702 207.47 147.125 207.247 147.638 206.98V208.46H148.928V209.47ZM151.925 208.34C152.672 208.34 153.252 208.603 153.665 209.13C154.012 209.57 154.185 210.107 154.185 210.74C154.185 211.48 153.928 212.08 153.415 212.54C152.988 212.927 152.492 213.12 151.925 213.12C151.265 213.12 150.712 212.873 150.265 212.38C149.865 211.933 149.665 211.387 149.665 210.74C149.665 210.007 149.888 209.413 150.335 208.96C150.742 208.547 151.272 208.34 151.925 208.34ZM151.925 212.18C152.572 212.18 152.895 211.7 152.895 210.74C152.895 209.74 152.572 209.24 151.925 209.24C151.278 209.24 150.955 209.74 150.955 210.74C150.955 211.7 151.278 212.18 151.925 212.18ZM157.771 213V206.68C157.864 206.66 158.127 206.633 158.561 206.6C158.994 206.567 159.324 206.55 159.551 206.55C161.164 206.55 161.971 207.21 161.971 208.53C161.971 209.35 161.691 209.95 161.131 210.33C160.757 210.59 160.317 210.72 159.811 210.72C159.411 210.72 159.167 210.693 159.081 210.64V213H157.771ZM159.081 207.67V209.58C159.254 209.647 159.471 209.68 159.731 209.68C159.997 209.68 160.207 209.587 160.361 209.4C160.514 209.207 160.591 208.943 160.591 208.61C160.591 207.937 160.294 207.6 159.701 207.6C159.361 207.6 159.154 207.623 159.081 207.67ZM164.708 208.34C165.455 208.34 166.035 208.603 166.448 209.13C166.795 209.57 166.968 210.107 166.968 210.74C166.968 211.48 166.712 212.08 166.198 212.54C165.772 212.927 165.275 213.12 164.708 213.12C164.048 213.12 163.495 212.873 163.048 212.38C162.648 211.933 162.448 211.387 162.448 210.74C162.448 210.007 162.672 209.413 163.118 208.96C163.525 208.547 164.055 208.34 164.708 208.34ZM164.708 212.18C165.355 212.18 165.678 211.7 165.678 210.74C165.678 209.74 165.355 209.24 164.708 209.24C164.062 209.24 163.738 209.74 163.738 210.74C163.738 211.7 164.062 212.18 164.708 212.18ZM168.982 208.46L169.102 208.89C169.382 208.523 169.775 208.34 170.282 208.34C170.995 208.34 171.552 208.58 171.952 209.06C172.292 209.473 172.462 210 172.462 210.64C172.462 211.48 172.208 212.127 171.702 212.58C171.302 212.94 170.812 213.12 170.232 213.12C170.058 213.12 169.875 213.083 169.682 213.01C169.488 212.937 169.352 212.853 169.272 212.76V214.78H168.032V208.46H168.982ZM169.272 210.23V211.39C169.272 211.623 169.352 211.823 169.512 211.99C169.678 212.157 169.872 212.24 170.092 212.24C170.392 212.24 170.642 212.097 170.842 211.81C171.042 211.523 171.142 211.167 171.142 210.74C171.142 210.287 171.052 209.927 170.872 209.66C170.698 209.387 170.462 209.25 170.162 209.25C169.928 209.25 169.722 209.35 169.542 209.55C169.362 209.743 169.272 209.97 169.272 210.23ZM176.48 212.48C176.147 212.907 175.69 213.12 175.11 213.12C174.537 213.12 174.127 212.973 173.88 212.68C173.64 212.38 173.52 211.88 173.52 211.18V208.46H174.76V210.85C174.76 211.303 174.82 211.623 174.94 211.81C175.06 211.99 175.267 212.08 175.56 212.08C175.687 212.08 175.83 212.047 175.99 211.98C176.15 211.913 176.247 211.843 176.28 211.77V208.46H177.54V213H176.6L176.49 212.48H176.48ZM180.161 206.55V213H178.901V207.21L180.161 206.55ZM185.178 213H184.168L184.068 212.57C183.628 212.937 183.181 213.12 182.728 213.12C181.721 213.12 181.218 212.63 181.218 211.65C181.218 211.163 181.428 210.783 181.848 210.51C182.275 210.23 182.905 210.09 183.738 210.09H183.948V210.07C183.948 209.783 183.888 209.587 183.768 209.48C183.648 209.373 183.431 209.32 183.118 209.32C182.678 209.32 182.275 209.46 181.908 209.74C181.788 209.52 181.675 209.303 181.568 209.09C181.948 208.797 182.278 208.6 182.558 208.5C182.845 208.393 183.185 208.34 183.578 208.34C184.645 208.34 185.178 209.007 185.178 210.34V213ZM183.908 210.86H183.758C183.378 210.86 183.071 210.927 182.838 211.06C182.605 211.193 182.488 211.37 182.488 211.59C182.488 212.003 182.668 212.21 183.028 212.21C183.248 212.21 183.441 212.147 183.608 212.02C183.775 211.893 183.875 211.733 183.908 211.54V210.86ZM189.377 209.47H188.077V211.72C188.077 212.053 188.187 212.22 188.407 212.22C188.607 212.22 188.857 212.133 189.157 211.96L189.577 212.6C189.104 212.973 188.581 213.16 188.007 213.16C187.207 213.16 186.807 212.72 186.807 211.84V209.47H186.177V208.46H186.817V207.65C187.151 207.47 187.574 207.247 188.087 206.98V208.46H189.377V209.47ZM191.732 208.46V213H190.462V208.46H191.732ZM190.312 207.3C190.312 207.087 190.385 206.903 190.532 206.75C190.685 206.59 190.865 206.51 191.072 206.51C191.292 206.51 191.479 206.587 191.632 206.74C191.792 206.893 191.872 207.08 191.872 207.3C191.872 207.533 191.795 207.723 191.642 207.87C191.495 208.017 191.305 208.09 191.072 208.09C190.852 208.09 190.669 208.017 190.522 207.87C190.382 207.717 190.312 207.527 190.312 207.3ZM194.992 208.34C195.738 208.34 196.318 208.603 196.732 209.13C197.078 209.57 197.252 210.107 197.252 210.74C197.252 211.48 196.995 212.08 196.482 212.54C196.055 212.927 195.558 213.12 194.992 213.12C194.332 213.12 193.778 212.873 193.332 212.38C192.932 211.933 192.732 211.387 192.732 210.74C192.732 210.007 192.955 209.413 193.402 208.96C193.808 208.547 194.338 208.34 194.992 208.34ZM194.992 212.18C195.638 212.18 195.962 211.7 195.962 210.74C195.962 209.74 195.638 209.24 194.992 209.24C194.345 209.24 194.022 209.74 194.022 210.74C194.022 211.7 194.345 212.18 194.992 212.18ZM199.535 208.9C199.668 208.747 199.868 208.617 200.135 208.51C200.401 208.397 200.655 208.34 200.895 208.34C201.468 208.34 201.881 208.497 202.135 208.81C202.395 209.123 202.525 209.63 202.525 210.33V213H201.255V210.38C201.255 209.727 200.965 209.4 200.385 209.4C200.238 209.4 200.081 209.433 199.915 209.5C199.748 209.56 199.635 209.63 199.575 209.71V213H198.315V208.46H199.385C199.418 208.633 199.451 208.78 199.485 208.9H199.535Z" fill="white"/>
<path d="M42.96 191.36C45.4347 191.36 47.4187 192.544 48.912 194.912C50.1707 196.875 50.8 199.211 50.8 201.92C50.8 205.184 50 207.797 48.4 209.76C46.992 211.509 45.1787 212.384 42.96 212.384C40.4213 212.384 38.4373 211.253 37.008 208.992C35.8133 207.115 35.216 204.757 35.216 201.92C35.216 198.763 36.0053 196.171 37.584 194.144C39.0133 192.288 40.8053 191.36 42.96 191.36ZM43.024 194.944C40.72 194.944 39.568 197.205 39.568 201.728C39.568 204.011 39.8987 205.803 40.56 207.104C41.1573 208.277 41.9467 208.864 42.928 208.864C44.016 208.864 44.8693 208.235 45.488 206.976C46.128 205.696 46.448 203.947 46.448 201.728C46.448 197.205 45.3067 194.944 43.024 194.944ZM61.2793 191.744V212H57.0873V196.512C56.7886 196.704 56.3513 196.971 55.7753 197.312C54.9433 197.803 54.3459 198.176 53.9833 198.432C53.7059 197.963 53.2366 197.184 52.5753 196.096L52.3833 195.808C52.2339 195.531 52.1166 195.328 52.0312 195.2C52.7139 194.709 53.7913 193.973 55.2633 192.992C56.0313 192.48 56.6393 192.064 57.0873 191.744H61.2793Z" fill="white"/>
<rect y="155" width="586" height="6" fill="url(#paint0_linear_1514_28)" fill-opacity="0.7"/>
<path d="M129.6 37V36.208L131.724 33.88C132.244 33.304 132.608 32.832 132.816 32.464C133.024 32.088 133.128 31.712 133.128 31.336C133.128 30.944 132.992 30.628 132.72 30.388C132.456 30.148 132.104 30.028 131.664 30.028C131.136 30.028 130.616 30.196 130.104 30.532L129.732 30.004C130.396 29.5 131.108 29.248 131.868 29.248C132.54 29.248 133.084 29.46 133.5 29.884C133.884 30.268 134.076 30.752 134.076 31.336C134.076 31.76 133.96 32.176 133.728 32.584C133.504 32.984 133.08 33.532 132.456 34.228L130.644 36.244H133.932V37H129.6ZM140.79 33.22C140.79 34.476 140.514 35.464 139.962 36.184C139.482 36.824 138.85 37.144 138.066 37.144C137.162 37.144 136.462 36.732 135.966 35.908C135.55 35.204 135.342 34.308 135.342 33.22C135.342 32.004 135.618 31.024 136.17 30.28C136.666 29.6 137.298 29.26 138.066 29.26C138.938 29.26 139.63 29.692 140.142 30.556C140.574 31.284 140.79 32.172 140.79 33.22ZM138.054 30.028C137.502 30.028 137.07 30.304 136.758 30.856C136.446 31.408 136.29 32.172 136.29 33.148C136.29 34.188 136.458 34.996 136.794 35.572C137.106 36.1 137.526 36.364 138.054 36.364C138.606 36.364 139.042 36.08 139.362 35.512C139.682 34.936 139.842 34.148 139.842 33.148C139.842 32.124 139.666 31.336 139.314 30.784C139.002 30.28 138.582 30.028 138.054 30.028ZM141.987 37V36.208L144.111 33.88C144.631 33.304 144.995 32.832 145.203 32.464C145.411 32.088 145.515 31.712 145.515 31.336C145.515 30.944 145.379 30.628 145.107 30.388C144.843 30.148 144.491 30.028 144.051 30.028C143.523 30.028 143.003 30.196 142.491 30.532L142.119 30.004C142.783 29.5 143.495 29.248 144.255 29.248C144.927 29.248 145.471 29.46 145.887 29.884C146.271 30.268 146.463 30.752 146.463 31.336C146.463 31.76 146.347 32.176 146.115 32.584C145.891 32.984 145.467 33.532 144.843 34.228L143.031 36.244H146.319V37H141.987ZM148.172 30.544L147.812 30.016C148.38 29.512 149.06 29.26 149.852 29.26C150.5 29.26 151.036 29.452 151.46 29.836C151.852 30.196 152.048 30.656 152.048 31.216C152.048 31.616 151.928 31.972 151.688 32.284C151.448 32.588 151.132 32.788 150.74 32.884C151.244 33.004 151.64 33.236 151.928 33.58C152.216 33.924 152.36 34.34 152.36 34.828C152.36 35.636 152.056 36.252 151.448 36.676C151 36.98 150.472 37.132 149.864 37.132C149.096 37.132 148.38 36.868 147.716 36.34L148.1 35.824C148.604 36.176 149.156 36.352 149.756 36.352C150.252 36.352 150.652 36.212 150.956 35.932C151.26 35.652 151.412 35.28 151.412 34.816C151.412 33.832 150.824 33.34 149.648 33.34H148.664V32.584H149.648C150.096 32.584 150.448 32.468 150.704 32.236C150.968 32.004 151.1 31.684 151.1 31.276C151.1 30.436 150.632 30.016 149.696 30.016C149.208 30.016 148.7 30.192 148.172 30.544Z" fill="white"/>
<path d="M429.6 37V36.208L431.724 33.88C432.244 33.304 432.608 32.832 432.816 32.464C433.024 32.088 433.128 31.712 433.128 31.336C433.128 30.944 432.992 30.628 432.72 30.388C432.456 30.148 432.104 30.028 431.664 30.028C431.136 30.028 430.616 30.196 430.104 30.532L429.732 30.004C430.396 29.5 431.108 29.248 431.868 29.248C432.54 29.248 433.084 29.46 433.5 29.884C433.884 30.268 434.076 30.752 434.076 31.336C434.076 31.76 433.96 32.176 433.728 32.584C433.504 32.984 433.08 33.532 432.456 34.228L430.644 36.244H433.932V37H429.6ZM440.79 33.22C440.79 34.476 440.514 35.464 439.962 36.184C439.482 36.824 438.85 37.144 438.066 37.144C437.162 37.144 436.462 36.732 435.966 35.908C435.55 35.204 435.342 34.308 435.342 33.22C435.342 32.004 435.618 31.024 436.17 30.28C436.666 29.6 437.298 29.26 438.066 29.26C438.938 29.26 439.63 29.692 440.142 30.556C440.574 31.284 440.79 32.172 440.79 33.22ZM438.054 30.028C437.502 30.028 437.07 30.304 436.758 30.856C436.446 31.408 436.29 32.172 436.29 33.148C436.29 34.188 436.458 34.996 436.794 35.572C437.106 36.1 437.526 36.364 438.054 36.364C438.606 36.364 439.042 36.08 439.362 35.512C439.682 34.936 439.842 34.148 439.842 33.148C439.842 32.124 439.666 31.336 439.314 30.784C439.002 30.28 438.582 30.028 438.054 30.028ZM441.987 37V36.208L444.111 33.88C444.631 33.304 444.995 32.832 445.203 32.464C445.411 32.088 445.515 31.712 445.515 31.336C445.515 30.944 445.379 30.628 445.107 30.388C444.843 30.148 444.491 30.028 444.051 30.028C443.523 30.028 443.003 30.196 442.491 30.532L442.119 30.004C442.783 29.5 443.495 29.248 444.255 29.248C444.927 29.248 445.471 29.46 445.887 29.884C446.271 30.268 446.463 30.752 446.463 31.336C446.463 31.76 446.347 32.176 446.115 32.584C445.891 32.984 445.467 33.532 444.843 34.228L443.031 36.244H446.319V37H441.987ZM452.408 29.86L452.096 30.364C451.672 30.14 451.212 30.028 450.716 30.028C450.18 30.028 449.744 30.272 449.408 30.76C449.072 31.248 448.888 31.904 448.856 32.728C449.288 32.28 449.804 32.056 450.404 32.056C451.044 32.056 451.576 32.264 452 32.68C452.464 33.128 452.696 33.756 452.696 34.564C452.696 35.284 452.464 35.9 452 36.412C451.568 36.9 451.024 37.144 450.368 37.144C449.488 37.144 448.832 36.724 448.4 35.884C448.064 35.236 447.896 34.432 447.896 33.472C447.896 32.112 448.176 31.048 448.736 30.28C449.232 29.6 449.876 29.26 450.668 29.26C451.324 29.26 451.904 29.46 452.408 29.86ZM448.808 33.556C448.816 34.476 448.968 35.192 449.264 35.704C449.536 36.16 449.9 36.388 450.356 36.388C450.772 36.388 451.108 36.224 451.364 35.896C451.62 35.56 451.748 35.116 451.748 34.564C451.748 33.988 451.616 33.544 451.352 33.232C451.088 32.92 450.72 32.764 450.248 32.764C449.648 32.764 449.168 33.028 448.808 33.556Z" fill="white"/>
<path d="M329.6 36V35.208L331.724 32.88C332.244 32.304 332.608 31.832 332.816 31.464C333.024 31.088 333.128 30.712 333.128 30.336C333.128 29.944 332.992 29.628 332.72 29.388C332.456 29.148 332.104 29.028 331.664 29.028C331.136 29.028 330.616 29.196 330.104 29.532L329.732 29.004C330.396 28.5 331.108 28.248 331.868 28.248C332.54 28.248 333.084 28.46 333.5 28.884C333.884 29.268 334.076 29.752 334.076 30.336C334.076 30.76 333.96 31.176 333.728 31.584C333.504 31.984 333.08 32.532 332.456 33.228L330.644 35.244H333.932V36H329.6ZM340.79 32.22C340.79 33.476 340.514 34.464 339.962 35.184C339.482 35.824 338.85 36.144 338.066 36.144C337.162 36.144 336.462 35.732 335.966 34.908C335.55 34.204 335.342 33.308 335.342 32.22C335.342 31.004 335.618 30.024 336.17 29.28C336.666 28.6 337.298 28.26 338.066 28.26C338.938 28.26 339.63 28.692 340.142 29.556C340.574 30.284 340.79 31.172 340.79 32.22ZM338.054 29.028C337.502 29.028 337.07 29.304 336.758 29.856C336.446 30.408 336.29 31.172 336.29 32.148C336.29 33.188 336.458 33.996 336.794 34.572C337.106 35.1 337.526 35.364 338.054 35.364C338.606 35.364 339.042 35.08 339.362 34.512C339.682 33.936 339.842 33.148 339.842 32.148C339.842 31.124 339.666 30.336 339.314 29.784C339.002 29.28 338.582 29.028 338.054 29.028ZM341.987 36V35.208L344.111 32.88C344.631 32.304 344.995 31.832 345.203 31.464C345.411 31.088 345.515 30.712 345.515 30.336C345.515 29.944 345.379 29.628 345.107 29.388C344.843 29.148 344.491 29.028 344.051 29.028C343.523 29.028 343.003 29.196 342.491 29.532L342.119 29.004C342.783 28.5 343.495 28.248 344.255 28.248C344.927 28.248 345.471 28.46 345.887 28.884C346.271 29.268 346.463 29.752 346.463 30.336C346.463 30.76 346.347 31.176 346.115 31.584C345.891 31.984 345.467 32.532 344.843 33.228L343.031 35.244H346.319V36H341.987ZM352.072 29.16H349.168V31.296C349.408 31.256 349.688 31.236 350.008 31.236C350.816 31.236 351.456 31.46 351.928 31.908C352.368 32.332 352.588 32.904 352.588 33.624C352.588 34.416 352.304 35.056 351.736 35.544C351.272 35.944 350.72 36.144 350.08 36.144C349.24 36.144 348.512 35.88 347.896 35.352L348.244 34.836C348.748 35.18 349.296 35.352 349.888 35.352C350.44 35.352 350.872 35.204 351.184 34.908C351.496 34.604 351.652 34.18 351.652 33.636C351.652 33.1 351.484 32.684 351.148 32.388C350.812 32.092 350.344 31.944 349.744 31.944C349.344 31.944 348.856 31.996 348.28 32.1V28.404H352.072V29.16Z" fill="white"/>
<path d="M229.6 37V36.208L231.724 33.88C232.244 33.304 232.608 32.832 232.816 32.464C233.024 32.088 233.128 31.712 233.128 31.336C233.128 30.944 232.992 30.628 232.72 30.388C232.456 30.148 232.104 30.028 231.664 30.028C231.136 30.028 230.616 30.196 230.104 30.532L229.732 30.004C230.396 29.5 231.108 29.248 231.868 29.248C232.54 29.248 233.084 29.46 233.5 29.884C233.884 30.268 234.076 30.752 234.076 31.336C234.076 31.76 233.96 32.176 233.728 32.584C233.504 32.984 233.08 33.532 232.456 34.228L230.644 36.244H233.932V37H229.6ZM240.79 33.22C240.79 34.476 240.514 35.464 239.962 36.184C239.482 36.824 238.85 37.144 238.066 37.144C237.162 37.144 236.462 36.732 235.966 35.908C235.55 35.204 235.342 34.308 235.342 33.22C235.342 32.004 235.618 31.024 236.17 30.28C236.666 29.6 237.298 29.26 238.066 29.26C238.938 29.26 239.63 29.692 240.142 30.556C240.574 31.284 240.79 32.172 240.79 33.22ZM238.054 30.028C237.502 30.028 237.07 30.304 236.758 30.856C236.446 31.408 236.29 32.172 236.29 33.148C236.29 34.188 236.458 34.996 236.794 35.572C237.106 36.1 237.526 36.364 238.054 36.364C238.606 36.364 239.042 36.08 239.362 35.512C239.682 34.936 239.842 34.148 239.842 33.148C239.842 32.124 239.666 31.336 239.314 30.784C239.002 30.28 238.582 30.028 238.054 30.028ZM241.987 37V36.208L244.111 33.88C244.631 33.304 244.995 32.832 245.203 32.464C245.411 32.088 245.515 31.712 245.515 31.336C245.515 30.944 245.379 30.628 245.107 30.388C244.843 30.148 244.491 30.028 244.051 30.028C243.523 30.028 243.003 30.196 242.491 30.532L242.119 30.004C242.783 29.5 243.495 29.248 244.255 29.248C244.927 29.248 245.471 29.46 245.887 29.884C246.271 30.268 246.463 30.752 246.463 31.336C246.463 31.76 246.347 32.176 246.115 32.584C245.891 32.984 245.467 33.532 244.843 34.228L243.031 36.244H246.319V37H241.987ZM247.572 34.624L250.98 29.404H251.916V34.624H253.308V35.38H251.916V37H251.04V35.38H247.572V34.624ZM248.46 34.624H251.04V30.628L248.46 34.624Z" fill="white"/>
<rect x="97" y="103" width="100" height="52" fill="url(#paint1_linear_1514_28)"/>
<rect x="197" y="103" width="100" height="52" fill="url(#paint2_linear_1514_28)"/>
<rect x="297" y="103" width="100" height="52" fill="url(#paint3_linear_1514_28)"/>
<rect x="397" y="103" width="100" height="52" fill="url(#paint4_linear_1514_28)"/>
<path d="M132.8 144V137.68C132.893 137.66 133.157 137.633 133.59 137.6C134.023 137.567 134.353 137.55 134.58 137.55C136.193 137.55 137 138.21 137 139.53C137 140.35 136.72 140.95 136.16 141.33C135.787 141.59 135.347 141.72 134.84 141.72C134.44 141.72 134.197 141.693 134.11 141.64V144H132.8ZM134.11 138.67V140.58C134.283 140.647 134.5 140.68 134.76 140.68C135.027 140.68 135.237 140.587 135.39 140.4C135.543 140.207 135.62 139.943 135.62 139.61C135.62 138.937 135.323 138.6 134.73 138.6C134.39 138.6 134.183 138.623 134.11 138.67ZM141.978 142.14H138.858C138.884 142.447 139.008 142.703 139.228 142.91C139.454 143.11 139.721 143.21 140.028 143.21C140.461 143.21 140.914 143.077 141.388 142.81L141.708 143.48C141.228 143.907 140.628 144.12 139.908 144.12C139.134 144.12 138.531 143.9 138.098 143.46C137.684 143.047 137.478 142.477 137.478 141.75C137.478 141.037 137.711 140.447 138.178 139.98C138.598 139.553 139.131 139.34 139.778 139.34C140.498 139.34 141.058 139.583 141.458 140.07C141.804 140.483 141.978 141.02 141.978 141.68V142.14ZM138.788 141.21H140.718C140.684 140.557 140.368 140.23 139.768 140.23C139.188 140.23 138.861 140.557 138.788 141.21ZM145.001 139.34C145.748 139.34 146.328 139.603 146.741 140.13C147.088 140.57 147.261 141.107 147.261 141.74C147.261 142.48 147.005 143.08 146.491 143.54C146.065 143.927 145.568 144.12 145.001 144.12C144.341 144.12 143.788 143.873 143.341 143.38C142.941 142.933 142.741 142.387 142.741 141.74C142.741 141.007 142.965 140.413 143.411 139.96C143.818 139.547 144.348 139.34 145.001 139.34ZM145.001 143.18C145.648 143.18 145.971 142.7 145.971 141.74C145.971 140.74 145.648 140.24 145.001 140.24C144.355 140.24 144.031 140.74 144.031 141.74C144.031 142.7 144.355 143.18 145.001 143.18ZM149.275 139.46L149.395 139.89C149.675 139.523 150.068 139.34 150.575 139.34C151.288 139.34 151.845 139.58 152.245 140.06C152.585 140.473 152.755 141 152.755 141.64C152.755 142.48 152.501 143.127 151.995 143.58C151.595 143.94 151.105 144.12 150.525 144.12C150.351 144.12 150.168 144.083 149.975 144.01C149.781 143.937 149.645 143.853 149.565 143.76V145.78H148.325V139.46H149.275ZM149.565 141.23V142.39C149.565 142.623 149.645 142.823 149.805 142.99C149.971 143.157 150.165 143.24 150.385 143.24C150.685 143.24 150.935 143.097 151.135 142.81C151.335 142.523 151.435 142.167 151.435 141.74C151.435 141.287 151.345 140.927 151.165 140.66C150.991 140.387 150.755 140.25 150.455 140.25C150.221 140.25 150.015 140.35 149.835 140.55C149.655 140.743 149.565 140.97 149.565 141.23ZM155.073 137.55V144H153.813V138.21L155.073 137.55ZM160.63 142.14H157.51C157.537 142.447 157.66 142.703 157.88 142.91C158.107 143.11 158.373 143.21 158.68 143.21C159.113 143.21 159.567 143.077 160.04 142.81L160.36 143.48C159.88 143.907 159.28 144.12 158.56 144.12C157.787 144.12 157.183 143.9 156.75 143.46C156.337 143.047 156.13 142.477 156.13 141.75C156.13 141.037 156.363 140.447 156.83 139.98C157.25 139.553 157.783 139.34 158.43 139.34C159.15 139.34 159.71 139.583 160.11 140.07C160.457 140.483 160.63 141.02 160.63 141.68V142.14ZM157.44 141.21H159.37C159.337 140.557 159.02 140.23 158.42 140.23C157.84 140.23 157.513 140.557 157.44 141.21Z" fill="white"/>
<path d="M332.8 143V136.68C332.893 136.66 333.157 136.633 333.59 136.6C334.023 136.567 334.353 136.55 334.58 136.55C336.193 136.55 337 137.21 337 138.53C337 139.35 336.72 139.95 336.16 140.33C335.787 140.59 335.347 140.72 334.84 140.72C334.44 140.72 334.197 140.693 334.11 140.64V143H332.8ZM334.11 137.67V139.58C334.283 139.647 334.5 139.68 334.76 139.68C335.027 139.68 335.237 139.587 335.39 139.4C335.543 139.207 335.62 138.943 335.62 138.61C335.62 137.937 335.323 137.6 334.73 137.6C334.39 137.6 334.183 137.623 334.11 137.67ZM341.978 141.14H338.858C338.884 141.447 339.008 141.703 339.228 141.91C339.454 142.11 339.721 142.21 340.028 142.21C340.461 142.21 340.914 142.077 341.388 141.81L341.708 142.48C341.228 142.907 340.628 143.12 339.908 143.12C339.134 143.12 338.531 142.9 338.098 142.46C337.684 142.047 337.478 141.477 337.478 140.75C337.478 140.037 337.711 139.447 338.178 138.98C338.598 138.553 339.131 138.34 339.778 138.34C340.498 138.34 341.058 138.583 341.458 139.07C341.804 139.483 341.978 140.02 341.978 140.68V141.14ZM338.788 140.21H340.718C340.684 139.557 340.368 139.23 339.768 139.23C339.188 139.23 338.861 139.557 338.788 140.21ZM345.001 138.34C345.748 138.34 346.328 138.603 346.741 139.13C347.088 139.57 347.261 140.107 347.261 140.74C347.261 141.48 347.005 142.08 346.491 142.54C346.065 142.927 345.568 143.12 345.001 143.12C344.341 143.12 343.788 142.873 343.341 142.38C342.941 141.933 342.741 141.387 342.741 140.74C342.741 140.007 342.965 139.413 343.411 138.96C343.818 138.547 344.348 138.34 345.001 138.34ZM345.001 142.18C345.648 142.18 345.971 141.7 345.971 140.74C345.971 139.74 345.648 139.24 345.001 139.24C344.355 139.24 344.031 139.74 344.031 140.74C344.031 141.7 344.355 142.18 345.001 142.18ZM349.275 138.46L349.395 138.89C349.675 138.523 350.068 138.34 350.575 138.34C351.288 138.34 351.845 138.58 352.245 139.06C352.585 139.473 352.755 140 352.755 140.64C352.755 141.48 352.501 142.127 351.995 142.58C351.595 142.94 351.105 143.12 350.525 143.12C350.351 143.12 350.168 143.083 349.975 143.01C349.781 142.937 349.645 142.853 349.565 142.76V144.78H348.325V138.46H349.275ZM349.565 140.23V141.39C349.565 141.623 349.645 141.823 349.805 141.99C349.971 142.157 350.165 142.24 350.385 142.24C350.685 142.24 350.935 142.097 351.135 141.81C351.335 141.523 351.435 141.167 351.435 140.74C351.435 140.287 351.345 139.927 351.165 139.66C350.991 139.387 350.755 139.25 350.455 139.25C350.221 139.25 350.015 139.35 349.835 139.55C349.655 139.743 349.565 139.97 349.565 140.23ZM355.073 136.55V143H353.813V137.21L355.073 136.55ZM360.63 141.14H357.51C357.537 141.447 357.66 141.703 357.88 141.91C358.107 142.11 358.373 142.21 358.68 142.21C359.113 142.21 359.567 142.077 360.04 141.81L360.36 142.48C359.88 142.907 359.28 143.12 358.56 143.12C357.787 143.12 357.183 142.9 356.75 142.46C356.337 142.047 356.13 141.477 356.13 140.75C356.13 140.037 356.363 139.447 356.83 138.98C357.25 138.553 357.783 138.34 358.43 138.34C359.15 138.34 359.71 138.583 360.11 139.07C360.457 139.483 360.63 140.02 360.63 140.68V141.14ZM357.44 140.21H359.37C359.337 139.557 359.02 139.23 358.42 139.23C357.84 139.23 357.513 139.557 357.44 140.21Z" fill="white"/>
<path d="M432.8 142V135.68C432.893 135.66 433.157 135.633 433.59 135.6C434.023 135.567 434.353 135.55 434.58 135.55C436.193 135.55 437 136.21 437 137.53C437 138.35 436.72 138.95 436.16 139.33C435.787 139.59 435.347 139.72 434.84 139.72C434.44 139.72 434.197 139.693 434.11 139.64V142H432.8ZM434.11 136.67V138.58C434.283 138.647 434.5 138.68 434.76 138.68C435.027 138.68 435.237 138.587 435.39 138.4C435.543 138.207 435.62 137.943 435.62 137.61C435.62 136.937 435.323 136.6 434.73 136.6C434.39 136.6 434.183 136.623 434.11 136.67ZM441.978 140.14H438.858C438.884 140.447 439.008 140.703 439.228 140.91C439.454 141.11 439.721 141.21 440.028 141.21C440.461 141.21 440.914 141.077 441.388 140.81L441.708 141.48C441.228 141.907 440.628 142.12 439.908 142.12C439.134 142.12 438.531 141.9 438.098 141.46C437.684 141.047 437.478 140.477 437.478 139.75C437.478 139.037 437.711 138.447 438.178 137.98C438.598 137.553 439.131 137.34 439.778 137.34C440.498 137.34 441.058 137.583 441.458 138.07C441.804 138.483 441.978 139.02 441.978 139.68V140.14ZM438.788 139.21H440.718C440.684 138.557 440.368 138.23 439.768 138.23C439.188 138.23 438.861 138.557 438.788 139.21ZM445.001 137.34C445.748 137.34 446.328 137.603 446.741 138.13C447.088 138.57 447.261 139.107 447.261 139.74C447.261 140.48 447.005 141.08 446.491 141.54C446.065 141.927 445.568 142.12 445.001 142.12C444.341 142.12 443.788 141.873 443.341 141.38C442.941 140.933 442.741 140.387 442.741 139.74C442.741 139.007 442.965 138.413 443.411 137.96C443.818 137.547 444.348 137.34 445.001 137.34ZM445.001 141.18C445.648 141.18 445.971 140.7 445.971 139.74C445.971 138.74 445.648 138.24 445.001 138.24C444.355 138.24 444.031 138.74 444.031 139.74C444.031 140.7 444.355 141.18 445.001 141.18ZM449.275 137.46L449.395 137.89C449.675 137.523 450.068 137.34 450.575 137.34C451.288 137.34 451.845 137.58 452.245 138.06C452.585 138.473 452.755 139 452.755 139.64C452.755 140.48 452.501 141.127 451.995 141.58C451.595 141.94 451.105 142.12 450.525 142.12C450.351 142.12 450.168 142.083 449.975 142.01C449.781 141.937 449.645 141.853 449.565 141.76V143.78H448.325V137.46H449.275ZM449.565 139.23V140.39C449.565 140.623 449.645 140.823 449.805 140.99C449.971 141.157 450.165 141.24 450.385 141.24C450.685 141.24 450.935 141.097 451.135 140.81C451.335 140.523 451.435 140.167 451.435 139.74C451.435 139.287 451.345 138.927 451.165 138.66C450.991 138.387 450.755 138.25 450.455 138.25C450.221 138.25 450.015 138.35 449.835 138.55C449.655 138.743 449.565 138.97 449.565 139.23ZM455.073 135.55V142H453.813V136.21L455.073 135.55ZM460.63 140.14H457.51C457.537 140.447 457.66 140.703 457.88 140.91C458.107 141.11 458.373 141.21 458.68 141.21C459.113 141.21 459.567 141.077 460.04 140.81L460.36 141.48C459.88 141.907 459.28 142.12 458.56 142.12C457.787 142.12 457.183 141.9 456.75 141.46C456.337 141.047 456.13 140.477 456.13 139.75C456.13 139.037 456.363 138.447 456.83 137.98C457.25 137.553 457.783 137.34 458.43 137.34C459.15 137.34 459.71 137.583 460.11 138.07C460.457 138.483 460.63 139.02 460.63 139.68V140.14ZM457.44 139.21H459.37C459.337 138.557 459.02 138.23 458.42 138.23C457.84 138.23 457.513 138.557 457.44 139.21Z" fill="white"/>
<path d="M232.8 144V137.68C232.893 137.66 233.157 137.633 233.59 137.6C234.023 137.567 234.353 137.55 234.58 137.55C236.193 137.55 237 138.21 237 139.53C237 140.35 236.72 140.95 236.16 141.33C235.787 141.59 235.347 141.72 234.84 141.72C234.44 141.72 234.197 141.693 234.11 141.64V144H232.8ZM234.11 138.67V140.58C234.283 140.647 234.5 140.68 234.76 140.68C235.027 140.68 235.237 140.587 235.39 140.4C235.543 140.207 235.62 139.943 235.62 139.61C235.62 138.937 235.323 138.6 234.73 138.6C234.39 138.6 234.183 138.623 234.11 138.67ZM241.978 142.14H238.858C238.884 142.447 239.008 142.703 239.228 142.91C239.454 143.11 239.721 143.21 240.028 143.21C240.461 143.21 240.914 143.077 241.388 142.81L241.708 143.48C241.228 143.907 240.628 144.12 239.908 144.12C239.134 144.12 238.531 143.9 238.098 143.46C237.684 143.047 237.478 142.477 237.478 141.75C237.478 141.037 237.711 140.447 238.178 139.98C238.598 139.553 239.131 139.34 239.778 139.34C240.498 139.34 241.058 139.583 241.458 140.07C241.804 140.483 241.978 141.02 241.978 141.68V142.14ZM238.788 141.21H240.718C240.684 140.557 240.368 140.23 239.768 140.23C239.188 140.23 238.861 140.557 238.788 141.21ZM245.001 139.34C245.748 139.34 246.328 139.603 246.741 140.13C247.088 140.57 247.261 141.107 247.261 141.74C247.261 142.48 247.005 143.08 246.491 143.54C246.065 143.927 245.568 144.12 245.001 144.12C244.341 144.12 243.788 143.873 243.341 143.38C242.941 142.933 242.741 142.387 242.741 141.74C242.741 141.007 242.965 140.413 243.411 139.96C243.818 139.547 244.348 139.34 245.001 139.34ZM245.001 143.18C245.648 143.18 245.971 142.7 245.971 141.74C245.971 140.74 245.648 140.24 245.001 140.24C244.355 140.24 244.031 140.74 244.031 141.74C244.031 142.7 244.355 143.18 245.001 143.18ZM249.275 139.46L249.395 139.89C249.675 139.523 250.068 139.34 250.575 139.34C251.288 139.34 251.845 139.58 252.245 140.06C252.585 140.473 252.755 141 252.755 141.64C252.755 142.48 252.501 143.127 251.995 143.58C251.595 143.94 251.105 144.12 250.525 144.12C250.351 144.12 250.168 144.083 249.975 144.01C249.781 143.937 249.645 143.853 249.565 143.76V145.78H248.325V139.46H249.275ZM249.565 141.23V142.39C249.565 142.623 249.645 142.823 249.805 142.99C249.971 143.157 250.165 143.24 250.385 143.24C250.685 143.24 250.935 143.097 251.135 142.81C251.335 142.523 251.435 142.167 251.435 141.74C251.435 141.287 251.345 140.927 251.165 140.66C250.991 140.387 250.755 140.25 250.455 140.25C250.221 140.25 250.015 140.35 249.835 140.55C249.655 140.743 249.565 140.97 249.565 141.23ZM255.073 137.55V144H253.813V138.21L255.073 137.55ZM260.63 142.14H257.51C257.537 142.447 257.66 142.703 257.88 142.91C258.107 143.11 258.373 143.21 258.68 143.21C259.113 143.21 259.567 143.077 260.04 142.81L260.36 143.48C259.88 143.907 259.28 144.12 258.56 144.12C257.787 144.12 257.183 143.9 256.75 143.46C256.337 143.047 256.13 142.477 256.13 141.75C256.13 141.037 256.363 140.447 256.83 139.98C257.25 139.553 257.783 139.34 258.43 139.34C259.15 139.34 259.71 139.583 260.11 140.07C260.457 140.483 260.63 141.02 260.63 141.68V142.14ZM257.44 141.21H259.37C259.337 140.557 259.02 140.23 258.42 140.23C257.84 140.23 257.513 140.557 257.44 141.21Z" fill="white"/>
<path d="M138.032 119.328H132.728V122.4C132.92 122.32 133.184 122.28 133.52 122.28C135.28 122.28 136.648 122.72 137.624 123.6C138.552 124.448 139.016 125.608 139.016 127.08C139.016 128.632 138.44 129.92 137.288 130.944C136.28 131.84 135.056 132.288 133.616 132.288C131.696 132.288 130.024 131.592 128.6 130.2L129.896 128.208C131.064 129.088 132.192 129.528 133.28 129.528C134.96 129.528 135.8 128.776 135.8 127.272C135.8 125.592 134.72 124.752 132.56 124.752C131.808 124.752 130.824 124.888 129.608 125.16V116.808H138.032V119.328ZM146.65 116.52C148.506 116.52 149.994 117.408 151.114 119.184C152.058 120.656 152.53 122.408 152.53 124.44C152.53 126.888 151.93 128.848 150.73 130.32C149.674 131.632 148.314 132.288 146.65 132.288C144.746 132.288 143.258 131.44 142.186 129.744C141.29 128.336 140.842 126.568 140.842 124.44C140.842 122.072 141.434 120.128 142.618 118.608C143.69 117.216 145.034 116.52 146.65 116.52ZM146.698 119.208C144.97 119.208 144.106 120.904 144.106 124.296C144.106 126.008 144.354 127.352 144.85 128.328C145.298 129.208 145.89 129.648 146.626 129.648C147.442 129.648 148.082 129.176 148.546 128.232C149.026 127.272 149.266 125.96 149.266 124.296C149.266 120.904 148.41 119.208 146.698 119.208ZM165.237 121.104L160.077 125.496C161.997 128.376 163.477 130.544 164.517 132H161.109C159.765 129.696 158.749 127.968 158.061 126.816V132H155.037V118.104L158.061 116.52V123.744C158.845 123.12 159.893 122.24 161.205 121.104H165.237Z" fill="white"/>
<path d="M428.936 115.808V131H425.792V119.384C425.568 119.528 425.24 119.728 424.808 119.984C424.184 120.352 423.736 120.632 423.464 120.824C423.256 120.472 422.904 119.888 422.408 119.072L422.264 118.856C422.152 118.648 422.064 118.496 422 118.4C422.512 118.032 423.32 117.48 424.424 116.744C425 116.36 425.456 116.048 425.792 115.808H428.936ZM436.595 129.344C436.595 129.36 436.595 129.376 436.595 129.392C436.595 129.904 436.435 130.32 436.115 130.64C435.795 130.96 435.371 131.12 434.843 131.12C434.299 131.12 433.859 130.96 433.523 130.64C433.203 130.304 433.043 129.864 433.043 129.32V129.272C433.075 128.776 433.251 128.376 433.571 128.072C433.907 127.768 434.331 127.616 434.843 127.616C435.371 127.616 435.795 127.776 436.115 128.096C436.435 128.416 436.595 128.832 436.595 129.344ZM448.766 118.328H443.462V121.4C443.654 121.32 443.918 121.28 444.254 121.28C446.014 121.28 447.382 121.72 448.358 122.6C449.286 123.448 449.75 124.608 449.75 126.08C449.75 127.632 449.174 128.92 448.022 129.944C447.014 130.84 445.79 131.288 444.35 131.288C442.43 131.288 440.758 130.592 439.334 129.2L440.63 127.208C441.798 128.088 442.926 128.528 444.014 128.528C445.694 128.528 446.534 127.776 446.534 126.272C446.534 124.592 445.454 123.752 443.294 123.752C442.542 123.752 441.558 123.888 440.342 124.16V115.808H448.766V118.328ZM460.672 127.4C461.568 124.12 462.768 120.256 464.272 115.808H468.832V131H465.664V118.664C464.912 121.912 463.68 126.024 461.968 131H459.352C457.544 125.512 456.32 121.44 455.68 118.784V131H452.584V115.808H456.952C458.456 119.904 459.696 123.768 460.672 127.4Z" fill="white"/>
<path d="M331.032 120.328H325.728V123.4C325.92 123.32 326.184 123.28 326.52 123.28C328.28 123.28 329.648 123.72 330.624 124.6C331.552 125.448 332.016 126.608 332.016 128.08C332.016 129.632 331.44 130.92 330.288 131.944C329.28 132.84 328.056 133.288 326.616 133.288C324.696 133.288 323.024 132.592 321.6 131.2L322.896 129.208C324.064 130.088 325.192 130.528 326.28 130.528C327.96 130.528 328.8 129.776 328.8 128.272C328.8 126.592 327.72 125.752 325.56 125.752C324.808 125.752 323.824 125.888 322.608 126.16V117.808H331.032V120.328ZM339.65 117.52C341.506 117.52 342.994 118.408 344.114 120.184C345.058 121.656 345.53 123.408 345.53 125.44C345.53 127.888 344.93 129.848 343.73 131.32C342.674 132.632 341.314 133.288 339.65 133.288C337.746 133.288 336.258 132.44 335.186 130.744C334.29 129.336 333.842 127.568 333.842 125.44C333.842 123.072 334.434 121.128 335.618 119.608C336.69 118.216 338.034 117.52 339.65 117.52ZM339.698 120.208C337.97 120.208 337.106 121.904 337.106 125.296C337.106 127.008 337.354 128.352 337.85 129.328C338.298 130.208 338.89 130.648 339.626 130.648C340.442 130.648 341.082 130.176 341.546 129.232C342.026 128.272 342.266 126.96 342.266 125.296C342.266 121.904 341.41 120.208 339.698 120.208ZM353.173 117.52C355.029 117.52 356.517 118.408 357.637 120.184C358.581 121.656 359.053 123.408 359.053 125.44C359.053 127.888 358.453 129.848 357.253 131.32C356.197 132.632 354.837 133.288 353.173 133.288C351.269 133.288 349.781 132.44 348.709 130.744C347.813 129.336 347.365 127.568 347.365 125.44C347.365 123.072 347.957 121.128 349.141 119.608C350.213 118.216 351.557 117.52 353.173 117.52ZM353.221 120.208C351.493 120.208 350.629 121.904 350.629 125.296C350.629 127.008 350.877 128.352 351.373 129.328C351.821 130.208 352.413 130.648 353.149 130.648C353.965 130.648 354.605 130.176 355.069 129.232C355.549 128.272 355.789 126.96 355.789 125.296C355.789 121.904 354.933 120.208 353.221 120.208ZM371.761 122.104L366.601 126.496C368.521 129.376 370.001 131.544 371.041 133H367.633C366.289 130.696 365.273 128.968 364.585 127.816V133H361.561V119.104L364.585 117.52V124.744C365.369 124.12 366.417 123.24 367.729 122.104H371.761Z" fill="white"/>
<path d="M221.96 133V130.336C222.344 129.904 222.856 129.32 223.496 128.584C224.504 127.464 225.248 126.616 225.728 126.04C226.8 124.76 227.472 123.888 227.744 123.424C228.016 122.944 228.152 122.416 228.152 121.84C228.152 121.36 227.976 120.96 227.624 120.64C227.272 120.32 226.824 120.16 226.28 120.16C225.336 120.16 224.296 120.544 223.16 121.312L221.84 119.392C223.44 118.128 225.112 117.496 226.856 117.496C228.248 117.496 229.36 117.872 230.192 118.624C231.008 119.36 231.416 120.376 231.416 121.672C231.416 122.632 231.096 123.64 230.456 124.696C229.832 125.736 228.608 127.288 226.784 129.352C226.336 129.864 226.008 130.24 225.8 130.48H231.248V133H221.96ZM238.9 117.52C240.756 117.52 242.244 118.408 243.364 120.184C244.308 121.656 244.78 123.408 244.78 125.44C244.78 127.888 244.18 129.848 242.98 131.32C241.924 132.632 240.564 133.288 238.9 133.288C236.996 133.288 235.508 132.44 234.436 130.744C233.54 129.336 233.092 127.568 233.092 125.44C233.092 123.072 233.684 121.128 234.868 119.608C235.94 118.216 237.284 117.52 238.9 117.52ZM238.948 120.208C237.22 120.208 236.356 121.904 236.356 125.296C236.356 127.008 236.604 128.352 237.1 129.328C237.548 130.208 238.14 130.648 238.876 130.648C239.692 130.648 240.332 130.176 240.796 129.232C241.276 128.272 241.516 126.96 241.516 125.296C241.516 121.904 240.66 120.208 238.948 120.208ZM252.423 117.52C254.279 117.52 255.767 118.408 256.887 120.184C257.831 121.656 258.303 123.408 258.303 125.44C258.303 127.888 257.703 129.848 256.503 131.32C255.447 132.632 254.087 133.288 252.423 133.288C250.519 133.288 249.031 132.44 247.959 130.744C247.063 129.336 246.615 127.568 246.615 125.44C246.615 123.072 247.207 121.128 248.391 119.608C249.463 118.216 250.807 117.52 252.423 117.52ZM252.471 120.208C250.743 120.208 249.879 121.904 249.879 125.296C249.879 127.008 250.127 128.352 250.623 129.328C251.071 130.208 251.663 130.648 252.399 130.648C253.215 130.648 253.855 130.176 254.319 129.232C254.799 128.272 255.039 126.96 255.039 125.296C255.039 121.904 254.183 120.208 252.471 120.208ZM271.011 122.104L265.851 126.496C267.771 129.376 269.251 131.544 270.291 133H266.883C265.539 130.696 264.523 128.968 263.835 127.816V133H260.811V119.104L263.835 117.52V124.744C264.619 124.12 265.667 123.24 266.979 122.104H271.011Z" fill="white"/>
<path d="M226.496 1.542C226.28 1.866 225.944 2.352 225.488 3C224.528 2.58 223.67 2.37 222.914 2.37C221.918 2.37 221.42 2.742 221.42 3.486C221.42 3.822 221.534 4.086 221.762 4.278C221.99 4.47 222.464 4.704 223.184 4.98C224.48 5.484 225.41 6.03 225.974 6.618C226.55 7.206 226.838 7.914 226.838 8.742C226.838 9.906 226.4 10.806 225.524 11.442C224.804 11.958 223.91 12.216 222.842 12.216C221.582 12.216 220.238 11.76 218.81 10.848L219.854 9.39C220.55 9.858 221.444 10.092 222.536 10.092C223.772 10.092 224.39 9.594 224.39 8.598C224.39 7.95 223.724 7.398 222.392 6.942C220.244 6.222 219.17 5.07 219.17 3.486C219.17 2.526 219.53 1.764 220.25 1.2C220.922 0.659999 221.816 0.389999 222.932 0.389999C224.204 0.389999 225.392 0.773999 226.496 1.542ZM231.07 3.828V12H228.784V3.828H231.07ZM228.514 1.74C228.514 1.356 228.646 1.026 228.91 0.75C229.186 0.461999 229.51 0.317999 229.882 0.317999C230.278 0.317999 230.614 0.455999 230.89 0.731999C231.178 1.008 231.322 1.344 231.322 1.74C231.322 2.16 231.184 2.502 230.908 2.766C230.644 3.03 230.302 3.162 229.882 3.162C229.486 3.162 229.156 3.03 228.892 2.766C228.64 2.49 228.514 2.148 228.514 1.74ZM240.268 10.956C239.416 11.796 238.408 12.216 237.244 12.216C235.852 12.216 234.748 11.772 233.932 10.884C233.224 10.104 232.87 9.126 232.87 7.95C232.87 6.63 233.326 5.55 234.238 4.71C235.03 3.978 235.996 3.612 237.136 3.612C238.396 3.612 239.41 4.008 240.178 4.8L239.494 6.024C238.882 5.484 238.216 5.214 237.496 5.214C236.824 5.214 236.272 5.478 235.84 6.006C235.408 6.522 235.192 7.188 235.192 8.004C235.192 8.76 235.402 9.384 235.822 9.876C236.254 10.356 236.8 10.596 237.46 10.596C238.252 10.596 238.93 10.302 239.494 9.714L240.268 10.956ZM249.602 3.828L245.732 7.122C247.172 9.282 248.282 10.908 249.062 12H246.506C245.498 10.272 244.736 8.976 244.22 8.112V12H241.952V1.578L244.22 0.389999V5.808C244.808 5.34 245.594 4.68 246.578 3.828H249.602ZM253.113 4.62C253.353 4.344 253.713 4.11 254.193 3.918C254.673 3.714 255.129 3.612 255.561 3.612C256.593 3.612 257.337 3.894 257.793 4.458C258.261 5.022 258.495 5.934 258.495 7.194V12H256.209V7.284C256.209 6.108 255.687 5.52 254.643 5.52C254.379 5.52 254.097 5.58 253.797 5.7C253.497 5.808 253.293 5.934 253.185 6.078V12H250.917V3.828H252.843C252.903 4.14 252.963 4.404 253.023 4.62H253.113ZM268.409 8.652H262.793C262.841 9.204 263.063 9.666 263.459 10.038C263.867 10.398 264.347 10.578 264.899 10.578C265.679 10.578 266.495 10.338 267.347 9.858L267.923 11.064C267.059 11.832 265.979 12.216 264.683 12.216C263.291 12.216 262.205 11.82 261.425 11.028C260.681 10.284 260.309 9.258 260.309 7.95C260.309 6.666 260.729 5.604 261.569 4.764C262.325 3.996 263.285 3.612 264.449 3.612C265.745 3.612 266.753 4.05 267.473 4.926C268.097 5.67 268.409 6.636 268.409 7.824V8.652ZM262.667 6.978H266.141C266.081 5.802 265.511 5.214 264.431 5.214C263.387 5.214 262.799 5.802 262.667 6.978ZM275.094 5.808C274.506 5.424 273.834 5.232 273.078 5.232C272.502 5.232 272.214 5.478 272.214 5.97C272.214 6.426 272.604 6.75 273.384 6.942C274.356 7.182 275.016 7.452 275.364 7.752C275.868 8.184 276.12 8.832 276.12 9.696C276.12 10.464 275.844 11.076 275.292 11.532C274.752 11.988 274.02 12.216 273.096 12.216C271.788 12.216 270.684 11.844 269.784 11.1L270.612 9.84C271.236 10.332 271.986 10.578 272.862 10.578C273.21 10.578 273.492 10.494 273.708 10.326C273.924 10.158 274.032 9.936 274.032 9.66C274.032 9.156 273.606 8.826 272.754 8.67C270.93 8.322 270.018 7.434 270.018 6.006C270.018 5.322 270.294 4.752 270.846 4.296C271.41 3.84 272.112 3.612 272.952 3.612C274.092 3.612 275.082 3.942 275.922 4.602L275.094 5.808ZM282.617 5.808C282.029 5.424 281.357 5.232 280.601 5.232C280.025 5.232 279.737 5.478 279.737 5.97C279.737 6.426 280.127 6.75 280.907 6.942C281.879 7.182 282.539 7.452 282.887 7.752C283.391 8.184 283.643 8.832 283.643 9.696C283.643 10.464 283.367 11.076 282.815 11.532C282.275 11.988 281.543 12.216 280.619 12.216C279.311 12.216 278.207 11.844 277.307 11.1L278.135 9.84C278.759 10.332 279.509 10.578 280.385 10.578C280.733 10.578 281.015 10.494 281.231 10.326C281.447 10.158 281.555 9.936 281.555 9.66C281.555 9.156 281.129 8.826 280.277 8.67C278.453 8.322 277.541 7.434 277.541 6.006C277.541 5.322 277.817 4.752 278.369 4.296C278.933 3.84 279.635 3.612 280.475 3.612C281.615 3.612 282.605 3.942 283.445 4.602L282.617 5.808ZM290.086 12V0.623999C290.254 0.587999 290.728 0.539999 291.508 0.479999C292.288 0.419999 292.882 0.389999 293.29 0.389999C296.194 0.389999 297.646 1.578 297.646 3.954C297.646 5.238 297.124 6.33 296.08 7.23C296.512 8.226 297.25 9.816 298.294 12H295.918C295.33 10.716 294.694 9.336 294.01 7.86C293.878 7.884 293.698 7.896 293.47 7.896C292.942 7.896 292.6 7.848 292.444 7.752V12H290.086ZM292.444 2.406V5.844C292.804 5.952 293.194 6.006 293.614 6.006C294.646 6.006 295.162 5.322 295.162 3.954C295.162 2.838 294.628 2.28 293.56 2.28C292.948 2.28 292.576 2.322 292.444 2.406ZM306.624 8.652H301.008C301.056 9.204 301.278 9.666 301.674 10.038C302.082 10.398 302.562 10.578 303.114 10.578C303.894 10.578 304.71 10.338 305.562 9.858L306.138 11.064C305.274 11.832 304.194 12.216 302.898 12.216C301.506 12.216 300.42 11.82 299.64 11.028C298.896 10.284 298.524 9.258 298.524 7.95C298.524 6.666 298.944 5.604 299.784 4.764C300.54 3.996 301.5 3.612 302.664 3.612C303.96 3.612 304.968 4.05 305.688 4.926C306.312 5.67 306.624 6.636 306.624 7.824V8.652ZM300.882 6.978H304.356C304.296 5.802 303.726 5.214 302.646 5.214C301.602 5.214 301.014 5.802 300.882 6.978ZM314.37 12L314.046 11.136C313.854 11.448 313.542 11.706 313.11 11.91C312.678 12.114 312.234 12.216 311.778 12.216C310.494 12.216 309.516 11.79 308.844 10.938C308.28 10.23 307.998 9.318 307.998 8.202C307.998 6.63 308.454 5.418 309.366 4.566C310.05 3.93 310.872 3.612 311.832 3.612C312.66 3.612 313.356 3.84 313.92 4.296V1.686L316.188 0.426V12H314.37ZM313.92 8.886V6.6C313.836 6.204 313.644 5.88 313.344 5.628C313.056 5.364 312.714 5.232 312.318 5.232C311.706 5.232 311.22 5.472 310.86 5.952C310.5 6.432 310.32 7.08 310.32 7.896C310.32 9.684 310.902 10.578 312.066 10.578C312.498 10.578 312.9 10.41 313.272 10.074C313.644 9.726 313.86 9.33 313.92 8.886ZM323.956 11.064C323.356 11.832 322.534 12.216 321.49 12.216C320.458 12.216 319.72 11.952 319.276 11.424C318.844 10.884 318.628 9.984 318.628 8.724V3.828H320.86V8.13C320.86 8.946 320.968 9.522 321.184 9.858C321.4 10.182 321.772 10.344 322.3 10.344C322.528 10.344 322.786 10.284 323.074 10.164C323.362 10.044 323.536 9.918 323.596 9.786V3.828H325.864V12H324.172L323.974 11.064H323.956ZM335.172 10.956C334.32 11.796 333.312 12.216 332.148 12.216C330.756 12.216 329.652 11.772 328.836 10.884C328.128 10.104 327.774 9.126 327.774 7.95C327.774 6.63 328.23 5.55 329.142 4.71C329.934 3.978 330.9 3.612 332.04 3.612C333.3 3.612 334.314 4.008 335.082 4.8L334.398 6.024C333.786 5.484 333.12 5.214 332.4 5.214C331.728 5.214 331.176 5.478 330.744 6.006C330.312 6.522 330.096 7.188 330.096 8.004C330.096 8.76 330.306 9.384 330.726 9.876C331.158 10.356 331.704 10.596 332.364 10.596C333.156 10.596 333.834 10.302 334.398 9.714L335.172 10.956ZM342.004 5.646H339.664V9.696C339.664 10.296 339.862 10.596 340.258 10.596C340.618 10.596 341.068 10.44 341.608 10.128L342.364 11.28C341.512 11.952 340.57 12.288 339.538 12.288C338.098 12.288 337.378 11.496 337.378 9.912V5.646H336.244V3.828H337.396V2.37C337.996 2.046 338.758 1.644 339.682 1.164V3.828H342.004V5.646ZM346.242 3.828V12H343.956V3.828H346.242ZM343.686 1.74C343.686 1.356 343.818 1.026 344.082 0.75C344.358 0.461999 344.682 0.317999 345.054 0.317999C345.45 0.317999 345.786 0.455999 346.062 0.731999C346.35 1.008 346.494 1.344 346.494 1.74C346.494 2.16 346.356 2.502 346.08 2.766C345.816 3.03 345.474 3.162 345.054 3.162C344.658 3.162 344.328 3.03 344.064 2.766C343.812 2.49 343.686 2.148 343.686 1.74ZM352.109 3.612C353.453 3.612 354.497 4.086 355.241 5.034C355.865 5.826 356.177 6.792 356.177 7.932C356.177 9.264 355.715 10.344 354.791 11.172C354.023 11.868 353.129 12.216 352.109 12.216C350.921 12.216 349.925 11.772 349.121 10.884C348.401 10.08 348.041 9.096 348.041 7.932C348.041 6.612 348.443 5.544 349.247 4.728C349.979 3.984 350.933 3.612 352.109 3.612ZM352.109 10.524C353.273 10.524 353.855 9.66 353.855 7.932C353.855 6.132 353.273 5.232 352.109 5.232C350.945 5.232 350.363 6.132 350.363 7.932C350.363 9.66 350.945 10.524 352.109 10.524ZM360.287 4.62C360.527 4.344 360.887 4.11 361.367 3.918C361.847 3.714 362.303 3.612 362.735 3.612C363.767 3.612 364.511 3.894 364.967 4.458C365.435 5.022 365.669 5.934 365.669 7.194V12H363.383V7.284C363.383 6.108 362.861 5.52 361.817 5.52C361.553 5.52 361.271 5.58 360.971 5.7C360.671 5.808 360.467 5.934 360.359 6.078V12H358.091V3.828H360.017C360.077 4.14 360.137 4.404 360.197 4.62H360.287Z" fill="white"/>
<path d="M447.5 90.5L349 82L250.5 61L151 55L99 39V103.5H499L447.5 90.5Z" fill="url(#paint5_linear_1514_28)"/>
<defs>
<linearGradient id="paint0_linear_1514_28" x1="586" y1="155" x2="0" y2="155" gradientUnits="userSpaceOnUse">
<stop stop-color="#3AFF36"/>
<stop offset="0.473958" stop-color="#005308"/>
<stop offset="1" stop-color="#56FF7B"/>
</linearGradient>
<linearGradient id="paint1_linear_1514_28" x1="60.5" y1="129" x2="229" y2="129" gradientUnits="userSpaceOnUse">
<stop stop-color="#373636"/>
<stop offset="1" stop-color="#5D5F69"/>
</linearGradient>
<linearGradient id="paint2_linear_1514_28" x1="160.5" y1="129" x2="329" y2="129" gradientUnits="userSpaceOnUse">
<stop stop-color="#373636"/>
<stop offset="1" stop-color="#5D5F69"/>
</linearGradient>
<linearGradient id="paint3_linear_1514_28" x1="260.5" y1="129" x2="429" y2="129" gradientUnits="userSpaceOnUse">
<stop stop-color="#373636"/>
<stop offset="1" stop-color="#5D5F69"/>
</linearGradient>
<linearGradient id="paint4_linear_1514_28" x1="360.5" y1="129" x2="529" y2="129" gradientUnits="userSpaceOnUse">
<stop stop-color="#373636"/>
<stop offset="1" stop-color="#5D5F69"/>
</linearGradient>
<linearGradient id="paint5_linear_1514_28" x1="95.4999" y1="63.5004" x2="495.5" y2="103.5" gradientUnits="userSpaceOnUse">
<stop stop-color="#00FF38"/>
<stop offset="0.156459" stop-color="#12621A"/>
<stop offset="0.393456" stop-color="#3BFD4F"/>
<stop offset="0.630695" stop-color="#217513"/>
<stop offset="0.852713" stop-color="#00FA0A"/>
<stop offset="0.984375" stop-color="#0A4E10"/>
</linearGradient>
</defs>
</svg>
