<svg width="586" height="224" viewBox="0 0 586 224" fill="none" xmlns="http://www.w3.org/2000/svg">
<path d="M494.468 205.404V213H492.896V207.192C492.784 207.264 492.62 207.364 492.404 207.492C492.092 207.676 491.868 207.816 491.732 207.912C491.628 207.736 491.452 207.444 491.204 207.036L491.132 206.928C491.076 206.824 491.032 206.748 491 206.7C491.256 206.516 491.66 206.24 492.212 205.872C492.5 205.68 492.728 205.524 492.896 205.404H494.468ZM498.898 205.404V213H497.326V207.192C497.214 207.264 497.05 207.364 496.834 207.492C496.522 207.676 496.298 207.816 496.162 207.912C496.058 207.736 495.882 207.444 495.634 207.036L495.562 206.928C495.506 206.824 495.462 206.748 495.43 206.7C495.686 206.516 496.09 206.24 496.642 205.872C496.93 205.68 497.158 205.524 497.326 205.404H498.898ZM502.727 212.172C502.727 212.18 502.727 212.188 502.727 212.196C502.727 212.452 502.647 212.66 502.487 212.82C502.327 212.98 502.115 213.06 501.851 213.06C501.579 213.06 501.359 212.98 501.191 212.82C501.031 212.652 500.951 212.432 500.951 212.16V212.136C500.967 211.888 501.055 211.688 501.215 211.536C501.383 211.384 501.595 211.308 501.851 211.308C502.115 211.308 502.327 211.388 502.487 211.548C502.647 211.708 502.727 211.916 502.727 212.172ZM507.157 205.26C508.085 205.26 508.829 205.704 509.389 206.592C509.861 207.328 510.097 208.204 510.097 209.22C510.097 210.444 509.797 211.424 509.197 212.16C508.669 212.816 507.989 213.144 507.157 213.144C506.205 213.144 505.461 212.72 504.925 211.872C504.477 211.168 504.253 210.284 504.253 209.22C504.253 208.036 504.549 207.064 505.141 206.304C505.677 205.608 506.349 205.26 507.157 205.26ZM507.181 206.604C506.317 206.604 505.885 207.452 505.885 209.148C505.885 210.004 506.009 210.676 506.257 211.164C506.481 211.604 506.777 211.824 507.145 211.824C507.553 211.824 507.873 211.588 508.105 211.116C508.345 210.636 508.465 209.98 508.465 209.148C508.465 207.452 508.037 206.604 507.181 206.604ZM513.919 205.26C514.847 205.26 515.591 205.704 516.151 206.592C516.623 207.328 516.859 208.204 516.859 209.22C516.859 210.444 516.559 211.424 515.959 212.16C515.431 212.816 514.751 213.144 513.919 213.144C512.967 213.144 512.223 212.72 511.687 211.872C511.239 211.168 511.015 210.284 511.015 209.22C511.015 208.036 511.311 207.064 511.903 206.304C512.439 205.608 513.111 205.26 513.919 205.26ZM513.943 206.604C513.079 206.604 512.647 207.452 512.647 209.148C512.647 210.004 512.771 210.676 513.019 211.164C513.243 211.604 513.539 211.824 513.907 211.824C514.315 211.824 514.635 211.588 514.867 211.116C515.107 210.636 515.227 209.98 515.227 209.148C515.227 207.452 514.799 206.604 513.943 206.604ZM520.176 205.404H521.496L524.292 213H522.696C522.56 212.6 522.392 212.072 522.192 211.416H519.468C519.356 211.776 519.184 212.304 518.952 213H517.38L520.176 205.404ZM520.848 207.456C520.624 208.088 520.316 208.976 519.924 210.12H521.748C521.372 209.016 521.072 208.128 520.848 207.456ZM529.356 211.2C529.804 209.56 530.404 207.628 531.156 205.404H533.436V213H531.852V206.832C531.476 208.456 530.86 210.512 530.004 213H528.696C527.792 210.256 527.18 208.22 526.86 206.892V213H525.312V205.404H527.496C528.248 207.452 528.868 209.384 529.356 211.2Z" fill="white"/>
<path d="M430.004 198.2C430.452 196.56 431.052 194.628 431.804 192.404H434.084V200H432.5V193.832C432.124 195.456 431.508 197.512 430.652 200H429.344C428.44 197.256 427.828 195.22 427.508 193.892V200H425.96V192.404H428.144C428.896 194.452 429.516 196.384 430.004 198.2ZM438.211 194.408C439.107 194.408 439.803 194.724 440.299 195.356C440.715 195.884 440.923 196.528 440.923 197.288C440.923 198.176 440.615 198.896 439.999 199.448C439.487 199.912 438.891 200.144 438.211 200.144C437.419 200.144 436.755 199.848 436.219 199.256C435.739 198.72 435.499 198.064 435.499 197.288C435.499 196.408 435.767 195.696 436.303 195.152C436.791 194.656 437.427 194.408 438.211 194.408ZM438.211 199.016C438.987 199.016 439.375 198.44 439.375 197.288C439.375 196.088 438.987 195.488 438.211 195.488C437.435 195.488 437.047 196.088 437.047 197.288C437.047 198.44 437.435 199.016 438.211 199.016ZM443.663 195.08C443.823 194.896 444.063 194.74 444.383 194.612C444.703 194.476 445.007 194.408 445.295 194.408C445.983 194.408 446.479 194.596 446.783 194.972C447.095 195.348 447.251 195.956 447.251 196.796V200H445.727V196.856C445.727 196.072 445.379 195.68 444.683 195.68C444.507 195.68 444.319 195.72 444.119 195.8C443.919 195.872 443.783 195.956 443.711 196.052V200H442.199V194.552H443.483C443.523 194.76 443.563 194.936 443.603 195.08H443.663ZM452.708 200L452.492 199.424C452.364 199.632 452.156 199.804 451.868 199.94C451.58 200.076 451.284 200.144 450.98 200.144C450.124 200.144 449.472 199.86 449.024 199.292C448.648 198.82 448.46 198.212 448.46 197.468C448.46 196.42 448.764 195.612 449.372 195.044C449.828 194.62 450.376 194.408 451.016 194.408C451.568 194.408 452.032 194.56 452.408 194.864V193.124L453.92 192.284V200H452.708ZM452.408 197.924V196.4C452.352 196.136 452.224 195.92 452.024 195.752C451.832 195.576 451.604 195.488 451.34 195.488C450.932 195.488 450.608 195.648 450.368 195.968C450.128 196.288 450.008 196.72 450.008 197.264C450.008 198.456 450.396 199.052 451.172 199.052C451.46 199.052 451.728 198.94 451.976 198.716C452.224 198.484 452.368 198.22 452.408 197.924ZM459.938 200H458.726L458.606 199.484C458.078 199.924 457.542 200.144 456.998 200.144C455.79 200.144 455.186 199.556 455.186 198.38C455.186 197.796 455.438 197.34 455.942 197.012C456.454 196.676 457.21 196.508 458.21 196.508H458.462V196.484C458.462 196.14 458.39 195.904 458.246 195.776C458.102 195.648 457.842 195.584 457.466 195.584C456.938 195.584 456.454 195.752 456.014 196.088C455.87 195.824 455.734 195.564 455.606 195.308C456.062 194.956 456.458 194.72 456.794 194.6C457.138 194.472 457.546 194.408 458.018 194.408C459.298 194.408 459.938 195.208 459.938 196.808V200ZM458.414 197.432H458.234C457.778 197.432 457.41 197.512 457.13 197.672C456.85 197.832 456.71 198.044 456.71 198.308C456.71 198.804 456.926 199.052 457.358 199.052C457.622 199.052 457.854 198.976 458.054 198.824C458.254 198.672 458.374 198.48 458.414 198.248V197.432ZM466.562 194.552C466.242 195.448 465.802 196.652 465.242 198.164C464.834 199.292 464.514 200.168 464.282 200.792C463.906 201.792 463.378 202.292 462.698 202.292C462.17 202.292 461.626 202.064 461.066 201.608C461.226 201.336 461.362 201.096 461.474 200.888C461.77 201.08 462.03 201.176 462.254 201.176C462.582 201.176 462.874 200.784 463.13 200H462.842L460.934 194.552H462.434C462.522 194.816 462.658 195.228 462.842 195.788L462.914 195.98C463.258 197.02 463.506 197.784 463.658 198.272L465.05 194.552H466.562ZM473.093 192.404V200H471.521V194.192C471.409 194.264 471.245 194.364 471.029 194.492C470.717 194.676 470.493 194.816 470.357 194.912C470.253 194.736 470.077 194.444 469.829 194.036L469.757 193.928C469.701 193.824 469.657 193.748 469.625 193.7C469.881 193.516 470.285 193.24 470.837 192.872C471.125 192.68 471.353 192.524 471.521 192.404H473.093ZM479.071 193.664H476.419V195.2C476.515 195.16 476.647 195.14 476.815 195.14C477.695 195.14 478.379 195.36 478.867 195.8C479.331 196.224 479.563 196.804 479.563 197.54C479.563 198.316 479.275 198.96 478.699 199.472C478.195 199.92 477.583 200.144 476.863 200.144C475.903 200.144 475.067 199.796 474.355 199.1L475.003 198.104C475.587 198.544 476.151 198.764 476.695 198.764C477.535 198.764 477.955 198.388 477.955 197.636C477.955 196.796 477.415 196.376 476.335 196.376C475.959 196.376 475.467 196.444 474.859 196.58V192.404H479.071V193.664ZM484.016 195.872C483.624 195.616 483.176 195.488 482.672 195.488C482.288 195.488 482.096 195.652 482.096 195.98C482.096 196.284 482.356 196.5 482.876 196.628C483.524 196.788 483.964 196.968 484.196 197.168C484.532 197.456 484.7 197.888 484.7 198.464C484.7 198.976 484.516 199.384 484.148 199.688C483.788 199.992 483.3 200.144 482.684 200.144C481.812 200.144 481.076 199.896 480.476 199.4L481.028 198.56C481.444 198.888 481.944 199.052 482.528 199.052C482.76 199.052 482.948 198.996 483.092 198.884C483.236 198.772 483.308 198.624 483.308 198.44C483.308 198.104 483.024 197.884 482.456 197.78C481.24 197.548 480.632 196.956 480.632 196.004C480.632 195.548 480.816 195.168 481.184 194.864C481.56 194.56 482.028 194.408 482.588 194.408C483.348 194.408 484.008 194.628 484.568 195.068L484.016 195.872ZM489.376 195.764H487.816V198.464C487.816 198.864 487.948 199.064 488.212 199.064C488.452 199.064 488.752 198.96 489.112 198.752L489.616 199.52C489.048 199.968 488.42 200.192 487.732 200.192C486.772 200.192 486.292 199.664 486.292 198.608V195.764H485.536V194.552H486.304V193.58C486.704 193.364 487.212 193.096 487.828 192.776V194.552H489.376V195.764ZM497.809 198.2C498.257 196.56 498.857 194.628 499.609 192.404H501.889V200H500.305V193.832C499.929 195.456 499.313 197.512 498.457 200H497.149C496.245 197.256 495.633 195.22 495.313 193.892V200H493.765V192.404H495.949C496.701 194.452 497.321 196.384 497.809 198.2ZM508.056 200H506.844L506.724 199.484C506.196 199.924 505.66 200.144 505.116 200.144C503.908 200.144 503.304 199.556 503.304 198.38C503.304 197.796 503.556 197.34 504.06 197.012C504.572 196.676 505.328 196.508 506.328 196.508H506.58V196.484C506.58 196.14 506.508 195.904 506.364 195.776C506.22 195.648 505.96 195.584 505.584 195.584C505.056 195.584 504.572 195.752 504.132 196.088C503.988 195.824 503.852 195.564 503.724 195.308C504.18 194.956 504.576 194.72 504.912 194.6C505.256 194.472 505.664 194.408 506.136 194.408C507.416 194.408 508.056 195.208 508.056 196.808V200ZM506.532 197.432H506.352C505.896 197.432 505.528 197.512 505.248 197.672C504.968 197.832 504.828 198.044 504.828 198.308C504.828 198.804 505.044 199.052 505.476 199.052C505.74 199.052 505.972 198.976 506.172 198.824C506.372 198.672 506.492 198.48 506.532 198.248V197.432ZM514.679 194.552C514.359 195.448 513.919 196.652 513.359 198.164C512.951 199.292 512.631 200.168 512.399 200.792C512.023 201.792 511.495 202.292 510.815 202.292C510.287 202.292 509.743 202.064 509.183 201.608C509.343 201.336 509.479 201.096 509.591 200.888C509.887 201.08 510.147 201.176 510.371 201.176C510.699 201.176 510.991 200.784 511.247 200H510.959L509.051 194.552H510.551C510.639 194.816 510.775 195.228 510.959 195.788L511.031 195.98C511.375 197.02 511.623 197.784 511.775 198.272L513.167 194.552H514.679ZM518.222 200V198.668C518.414 198.452 518.67 198.16 518.99 197.792C519.494 197.232 519.866 196.808 520.106 196.52C520.642 195.88 520.978 195.444 521.114 195.212C521.25 194.972 521.318 194.708 521.318 194.42C521.318 194.18 521.23 193.98 521.054 193.82C520.878 193.66 520.654 193.58 520.382 193.58C519.91 193.58 519.39 193.772 518.822 194.156L518.162 193.196C518.962 192.564 519.798 192.248 520.67 192.248C521.366 192.248 521.922 192.436 522.338 192.812C522.746 193.18 522.95 193.688 522.95 194.336C522.95 194.816 522.79 195.32 522.47 195.848C522.158 196.368 521.546 197.144 520.634 198.176C520.41 198.432 520.246 198.62 520.142 198.74H522.866V200H518.222ZM526.692 192.26C527.62 192.26 528.364 192.704 528.924 193.592C529.396 194.328 529.632 195.204 529.632 196.22C529.632 197.444 529.332 198.424 528.732 199.16C528.204 199.816 527.524 200.144 526.692 200.144C525.74 200.144 524.996 199.72 524.46 198.872C524.012 198.168 523.788 197.284 523.788 196.22C523.788 195.036 524.084 194.064 524.676 193.304C525.212 192.608 525.884 192.26 526.692 192.26ZM526.716 193.604C525.852 193.604 525.42 194.452 525.42 196.148C525.42 197.004 525.544 197.676 525.792 198.164C526.016 198.604 526.312 198.824 526.68 198.824C527.088 198.824 527.408 198.588 527.64 198.116C527.88 197.636 528 196.98 528 196.148C528 194.452 527.572 193.604 526.716 193.604ZM530.574 200V198.668C530.766 198.452 531.022 198.16 531.342 197.792C531.846 197.232 532.218 196.808 532.458 196.52C532.994 195.88 533.33 195.444 533.466 195.212C533.602 194.972 533.67 194.708 533.67 194.42C533.67 194.18 533.582 193.98 533.406 193.82C533.23 193.66 533.006 193.58 532.734 193.58C532.262 193.58 531.742 193.772 531.174 194.156L530.514 193.196C531.314 192.564 532.15 192.248 533.022 192.248C533.718 192.248 534.274 192.436 534.69 192.812C535.098 193.18 535.302 193.688 535.302 194.336C535.302 194.816 535.142 195.32 534.822 195.848C534.51 196.368 533.898 197.144 532.986 198.176C532.762 198.432 532.598 198.62 532.494 198.74H535.218V200H530.574ZM536.164 200V198.668C536.356 198.452 536.612 198.16 536.932 197.792C537.436 197.232 537.808 196.808 538.048 196.52C538.584 195.88 538.92 195.444 539.056 195.212C539.192 194.972 539.26 194.708 539.26 194.42C539.26 194.18 539.172 193.98 538.996 193.82C538.82 193.66 538.596 193.58 538.324 193.58C537.852 193.58 537.332 193.772 536.764 194.156L536.104 193.196C536.904 192.564 537.74 192.248 538.612 192.248C539.308 192.248 539.864 192.436 540.28 192.812C540.688 193.18 540.892 193.688 540.892 194.336C540.892 194.816 540.732 195.32 540.412 195.848C540.1 196.368 539.488 197.144 538.576 198.176C538.352 198.432 538.188 198.62 538.084 198.74H540.808V200H536.164Z" fill="white"/>
<path d="M72.024 202V191.872H78.648V193.552H74.12V195.952H77.896V197.632H74.12V202H72.024ZM81.9946 191.68V202H79.9786V192.736L81.9946 191.68ZM90.8221 194.736C90.3955 195.931 89.8088 197.536 89.0621 199.552C88.5181 201.056 88.0915 202.224 87.7821 203.056C87.2808 204.389 86.5768 205.056 85.6701 205.056C84.9661 205.056 84.2408 204.752 83.4941 204.144C83.7075 203.781 83.8888 203.461 84.0381 203.184C84.4328 203.44 84.7795 203.568 85.0781 203.568C85.5155 203.568 85.9048 203.045 86.2461 202H85.8621L83.3181 194.736H85.3181C85.4355 195.088 85.6168 195.637 85.8621 196.384L85.9581 196.64C86.4168 198.027 86.7475 199.045 86.9501 199.696L88.8061 194.736H90.8221ZM96.2945 191.68C97.8518 191.68 99.0518 192.299 99.8945 193.536C100.556 194.507 100.887 195.68 100.887 197.056C100.887 198.635 100.455 199.899 99.5905 200.848C98.7692 201.744 97.6705 202.192 96.2945 202.192C94.7158 202.192 93.5158 201.616 92.6945 200.464C92.0332 199.557 91.7025 198.421 91.7025 197.056C91.7025 195.456 92.1345 194.149 92.9985 193.136C93.8198 192.165 94.9185 191.68 96.2945 191.68ZM96.2945 200.432C97.0625 200.432 97.6545 200.144 98.0705 199.568C98.4865 198.981 98.6945 198.144 98.6945 197.056C98.6945 195.893 98.4652 194.987 98.0065 194.336C97.5798 193.76 97.0092 193.472 96.2945 193.472C95.5265 193.472 94.9292 193.787 94.5025 194.416C94.0865 195.045 93.8785 195.925 93.8785 197.056C93.8785 199.307 94.6838 200.432 96.2945 200.432ZM107.355 201.168C106.822 201.851 106.091 202.192 105.163 202.192C104.246 202.192 103.59 201.957 103.195 201.488C102.811 201.008 102.619 200.208 102.619 199.088V194.736H104.603V198.56C104.603 199.285 104.699 199.797 104.891 200.096C105.083 200.384 105.414 200.528 105.883 200.528C106.086 200.528 106.315 200.475 106.571 200.368C106.827 200.261 106.982 200.149 107.035 200.032V194.736H109.051V202H107.547L107.371 201.168H107.355ZM115.773 196.352H113.693V199.952C113.693 200.485 113.869 200.752 114.221 200.752C114.541 200.752 114.941 200.613 115.421 200.336L116.093 201.36C115.335 201.957 114.498 202.256 113.581 202.256C112.301 202.256 111.661 201.552 111.661 200.144V196.352H110.653V194.736H111.677V193.44C112.21 193.152 112.887 192.795 113.709 192.368V194.736H115.773V196.352Z" fill="white"/>
<path d="M72.8 213V206.68C72.8933 206.66 73.1567 206.633 73.59 206.6C74.0233 206.567 74.3533 206.55 74.58 206.55C76.1933 206.55 77 207.21 77 208.53C77 209.243 76.71 209.85 76.13 210.35C76.37 210.903 76.78 211.787 77.36 213H76.04C75.7133 212.287 75.36 211.52 74.98 210.7C74.9067 210.713 74.8067 210.72 74.68 210.72C74.3867 210.72 74.1967 210.693 74.11 210.64V213H72.8ZM74.11 207.67V209.58C74.31 209.64 74.5267 209.67 74.76 209.67C75.3333 209.67 75.62 209.29 75.62 208.53C75.62 207.91 75.3233 207.6 74.73 207.6C74.39 207.6 74.1833 207.623 74.11 207.67ZM81.9874 211.14H78.8674C78.8941 211.447 79.0174 211.703 79.2374 211.91C79.4641 212.11 79.7308 212.21 80.0374 212.21C80.4708 212.21 80.9241 212.077 81.3974 211.81L81.7174 212.48C81.2374 212.907 80.6374 213.12 79.9174 213.12C79.1441 213.12 78.5408 212.9 78.1074 212.46C77.6941 212.047 77.4874 211.477 77.4874 210.75C77.4874 210.037 77.7208 209.447 78.1874 208.98C78.6074 208.553 79.1408 208.34 79.7874 208.34C80.5074 208.34 81.0674 208.583 81.4674 209.07C81.8141 209.483 81.9874 210.02 81.9874 210.68V211.14ZM78.7974 210.21H80.7274C80.6941 209.557 80.3774 209.23 79.7774 209.23C79.1974 209.23 78.8708 209.557 78.7974 210.21ZM86.2911 213L86.1111 212.52C86.0044 212.693 85.8311 212.837 85.5911 212.95C85.3511 213.063 85.1044 213.12 84.8511 213.12C84.1378 213.12 83.5944 212.883 83.2211 212.41C82.9078 212.017 82.7511 211.51 82.7511 210.89C82.7511 210.017 83.0044 209.343 83.5111 208.87C83.8911 208.517 84.3478 208.34 84.8811 208.34C85.3411 208.34 85.7278 208.467 86.0411 208.72V207.27L87.3011 206.57V213H86.2911ZM86.0411 211.27V210C85.9944 209.78 85.8878 209.6 85.7211 209.46C85.5611 209.313 85.3711 209.24 85.1511 209.24C84.8111 209.24 84.5411 209.373 84.3411 209.64C84.1411 209.907 84.0411 210.267 84.0411 210.72C84.0411 211.713 84.3644 212.21 85.0111 212.21C85.2511 212.21 85.4744 212.117 85.6811 211.93C85.8878 211.737 86.0078 211.517 86.0411 211.27ZM91.6166 212.48C91.2832 212.907 90.8266 213.12 90.2466 213.12C89.6732 213.12 89.2632 212.973 89.0166 212.68C88.7766 212.38 88.6566 211.88 88.6566 211.18V208.46H89.8966V210.85C89.8966 211.303 89.9566 211.623 90.0766 211.81C90.1966 211.99 90.4032 212.08 90.6966 212.08C90.8232 212.08 90.9666 212.047 91.1266 211.98C91.2866 211.913 91.3832 211.843 91.4166 211.77V208.46H92.6766V213H91.7366L91.6266 212.48H91.6166ZM97.8474 212.42C97.3741 212.887 96.8141 213.12 96.1674 213.12C95.3941 213.12 94.7808 212.873 94.3274 212.38C93.9341 211.947 93.7374 211.403 93.7374 210.75C93.7374 210.017 93.9908 209.417 94.4974 208.95C94.9374 208.543 95.4741 208.34 96.1074 208.34C96.8074 208.34 97.3708 208.56 97.7974 209L97.4174 209.68C97.0774 209.38 96.7074 209.23 96.3074 209.23C95.9341 209.23 95.6274 209.377 95.3874 209.67C95.1474 209.957 95.0274 210.327 95.0274 210.78C95.0274 211.2 95.1441 211.547 95.3774 211.82C95.6174 212.087 95.9208 212.22 96.2874 212.22C96.7274 212.22 97.1041 212.057 97.4174 211.73L97.8474 212.42ZM100.023 208.46V213H98.753V208.46H100.023ZM98.603 207.3C98.603 207.087 98.6764 206.903 98.823 206.75C98.9764 206.59 99.1564 206.51 99.363 206.51C99.583 206.51 99.7697 206.587 99.923 206.74C100.083 206.893 100.163 207.08 100.163 207.3C100.163 207.533 100.086 207.723 99.933 207.87C99.7864 208.017 99.5964 208.09 99.363 208.09C99.143 208.09 98.9597 208.017 98.813 207.87C98.673 207.717 98.603 207.527 98.603 207.3ZM102.543 208.9C102.676 208.747 102.876 208.617 103.143 208.51C103.409 208.397 103.663 208.34 103.903 208.34C104.476 208.34 104.889 208.497 105.143 208.81C105.403 209.123 105.533 209.63 105.533 210.33V213H104.263V210.38C104.263 209.727 103.973 209.4 103.393 209.4C103.246 209.4 103.089 209.433 102.923 209.5C102.756 209.56 102.643 209.63 102.583 209.71V213H101.323V208.46H102.393C102.426 208.633 102.459 208.78 102.493 208.9H102.543ZM109.72 212.45C109.42 212.897 108.997 213.12 108.45 213.12C107.783 213.12 107.267 212.883 106.9 212.41C106.587 212.01 106.43 211.503 106.43 210.89C106.43 210.017 106.683 209.343 107.19 208.87C107.577 208.517 108.033 208.34 108.56 208.34C108.98 208.34 109.337 208.443 109.63 208.65C109.823 208.783 109.92 208.883 109.92 208.95L110.02 208.46H110.99V212.53C110.99 213.297 110.8 213.887 110.42 214.3C110.047 214.707 109.513 214.91 108.82 214.91C108.1 214.91 107.477 214.67 106.95 214.19L107.27 213.55C107.677 213.817 108.133 213.95 108.64 213.95C109.36 213.95 109.72 213.45 109.72 212.45ZM109.72 210C109.693 209.793 109.59 209.617 109.41 209.47C109.237 209.317 109.043 209.24 108.83 209.24C108.497 209.24 108.23 209.373 108.03 209.64C107.83 209.907 107.73 210.267 107.73 210.72C107.73 211.713 108.057 212.21 108.71 212.21C108.983 212.21 109.22 212.107 109.42 211.9C109.62 211.687 109.72 211.437 109.72 211.15V210ZM118.24 211.5C118.614 210.133 119.114 208.523 119.74 206.67H121.64V213H120.32V207.86C120.007 209.213 119.494 210.927 118.78 213H117.69C116.937 210.713 116.427 209.017 116.16 207.91V213H114.87V206.67H116.69C117.317 208.377 117.834 209.987 118.24 211.5ZM125.079 208.34C125.826 208.34 126.406 208.603 126.819 209.13C127.166 209.57 127.339 210.107 127.339 210.74C127.339 211.48 127.083 212.08 126.569 212.54C126.143 212.927 125.646 213.12 125.079 213.12C124.419 213.12 123.866 212.873 123.419 212.38C123.019 211.933 122.819 211.387 122.819 210.74C122.819 210.007 123.043 209.413 123.489 208.96C123.896 208.547 124.426 208.34 125.079 208.34ZM125.079 212.18C125.726 212.18 126.049 211.7 126.049 210.74C126.049 209.74 125.726 209.24 125.079 209.24C124.433 209.24 124.109 209.74 124.109 210.74C124.109 211.7 124.433 212.18 125.079 212.18ZM131.053 209.56C130.726 209.347 130.353 209.24 129.933 209.24C129.613 209.24 129.453 209.377 129.453 209.65C129.453 209.903 129.669 210.083 130.103 210.19C130.643 210.323 131.009 210.473 131.203 210.64C131.483 210.88 131.623 211.24 131.623 211.72C131.623 212.147 131.469 212.487 131.163 212.74C130.863 212.993 130.456 213.12 129.943 213.12C129.216 213.12 128.603 212.913 128.103 212.5L128.563 211.8C128.909 212.073 129.326 212.21 129.813 212.21C130.006 212.21 130.163 212.163 130.283 212.07C130.403 211.977 130.463 211.853 130.463 211.7C130.463 211.42 130.226 211.237 129.753 211.15C128.739 210.957 128.233 210.463 128.233 209.67C128.233 209.29 128.386 208.973 128.693 208.72C129.006 208.467 129.396 208.34 129.863 208.34C130.496 208.34 131.046 208.523 131.513 208.89L131.053 209.56ZM135.56 214.77V212.53C135.527 212.663 135.383 212.797 135.13 212.93C134.883 213.057 134.647 213.12 134.42 213.12C133.72 213.12 133.19 212.877 132.83 212.39C132.53 211.99 132.38 211.48 132.38 210.86C132.38 210.02 132.627 209.367 133.12 208.9C133.507 208.527 133.977 208.34 134.53 208.34C135.05 208.34 135.46 208.543 135.76 208.95L135.83 208.46H136.83V214.77H135.56ZM135.56 211.16V210.05C135.56 210.043 135.56 210.033 135.56 210.02C135.56 209.833 135.473 209.657 135.3 209.49C135.133 209.323 134.953 209.24 134.76 209.24C134.427 209.24 134.16 209.373 133.96 209.64C133.76 209.907 133.66 210.267 133.66 210.72C133.66 211.713 134.003 212.21 134.69 212.21C134.943 212.21 135.15 212.117 135.31 211.93C135.477 211.743 135.56 211.503 135.56 211.21C135.56 211.19 135.56 211.173 135.56 211.16ZM141.148 212.48C140.814 212.907 140.358 213.12 139.778 213.12C139.204 213.12 138.794 212.973 138.548 212.68C138.308 212.38 138.188 211.88 138.188 211.18V208.46H139.428V210.85C139.428 211.303 139.488 211.623 139.608 211.81C139.728 211.99 139.934 212.08 140.228 212.08C140.354 212.08 140.498 212.047 140.658 211.98C140.818 211.913 140.914 211.843 140.948 211.77V208.46H142.208V213H141.268L141.158 212.48H141.148ZM144.789 208.46V213H143.519V208.46H144.789ZM143.369 207.3C143.369 207.087 143.442 206.903 143.589 206.75C143.742 206.59 143.922 206.51 144.129 206.51C144.349 206.51 144.535 206.587 144.689 206.74C144.849 206.893 144.929 207.08 144.929 207.3C144.929 207.533 144.852 207.723 144.699 207.87C144.552 208.017 144.362 208.09 144.129 208.09C143.909 208.09 143.725 208.017 143.579 207.87C143.439 207.717 143.369 207.527 143.369 207.3ZM148.928 209.47H147.628V211.72C147.628 212.053 147.738 212.22 147.958 212.22C148.158 212.22 148.408 212.133 148.708 211.96L149.128 212.6C148.655 212.973 148.132 213.16 147.558 213.16C146.758 213.16 146.358 212.72 146.358 211.84V209.47H145.728V208.46H146.368V207.65C146.702 207.47 147.125 207.247 147.638 206.98V208.46H148.928V209.47ZM151.925 208.34C152.672 208.34 153.252 208.603 153.665 209.13C154.012 209.57 154.185 210.107 154.185 210.74C154.185 211.48 153.928 212.08 153.415 212.54C152.988 212.927 152.492 213.12 151.925 213.12C151.265 213.12 150.712 212.873 150.265 212.38C149.865 211.933 149.665 211.387 149.665 210.74C149.665 210.007 149.888 209.413 150.335 208.96C150.742 208.547 151.272 208.34 151.925 208.34ZM151.925 212.18C152.572 212.18 152.895 211.7 152.895 210.74C152.895 209.74 152.572 209.24 151.925 209.24C151.278 209.24 150.955 209.74 150.955 210.74C150.955 211.7 151.278 212.18 151.925 212.18ZM157.771 213V206.68C157.864 206.66 158.127 206.633 158.561 206.6C158.994 206.567 159.324 206.55 159.551 206.55C161.164 206.55 161.971 207.21 161.971 208.53C161.971 209.35 161.691 209.95 161.131 210.33C160.757 210.59 160.317 210.72 159.811 210.72C159.411 210.72 159.167 210.693 159.081 210.64V213H157.771ZM159.081 207.67V209.58C159.254 209.647 159.471 209.68 159.731 209.68C159.997 209.68 160.207 209.587 160.361 209.4C160.514 209.207 160.591 208.943 160.591 208.61C160.591 207.937 160.294 207.6 159.701 207.6C159.361 207.6 159.154 207.623 159.081 207.67ZM164.708 208.34C165.455 208.34 166.035 208.603 166.448 209.13C166.795 209.57 166.968 210.107 166.968 210.74C166.968 211.48 166.712 212.08 166.198 212.54C165.772 212.927 165.275 213.12 164.708 213.12C164.048 213.12 163.495 212.873 163.048 212.38C162.648 211.933 162.448 211.387 162.448 210.74C162.448 210.007 162.672 209.413 163.118 208.96C163.525 208.547 164.055 208.34 164.708 208.34ZM164.708 212.18C165.355 212.18 165.678 211.7 165.678 210.74C165.678 209.74 165.355 209.24 164.708 209.24C164.062 209.24 163.738 209.74 163.738 210.74C163.738 211.7 164.062 212.18 164.708 212.18ZM168.982 208.46L169.102 208.89C169.382 208.523 169.775 208.34 170.282 208.34C170.995 208.34 171.552 208.58 171.952 209.06C172.292 209.473 172.462 210 172.462 210.64C172.462 211.48 172.208 212.127 171.702 212.58C171.302 212.94 170.812 213.12 170.232 213.12C170.058 213.12 169.875 213.083 169.682 213.01C169.488 212.937 169.352 212.853 169.272 212.76V214.78H168.032V208.46H168.982ZM169.272 210.23V211.39C169.272 211.623 169.352 211.823 169.512 211.99C169.678 212.157 169.872 212.24 170.092 212.24C170.392 212.24 170.642 212.097 170.842 211.81C171.042 211.523 171.142 211.167 171.142 210.74C171.142 210.287 171.052 209.927 170.872 209.66C170.698 209.387 170.462 209.25 170.162 209.25C169.928 209.25 169.722 209.35 169.542 209.55C169.362 209.743 169.272 209.97 169.272 210.23ZM176.48 212.48C176.147 212.907 175.69 213.12 175.11 213.12C174.537 213.12 174.127 212.973 173.88 212.68C173.64 212.38 173.52 211.88 173.52 211.18V208.46H174.76V210.85C174.76 211.303 174.82 211.623 174.94 211.81C175.06 211.99 175.267 212.08 175.56 212.08C175.687 212.08 175.83 212.047 175.99 211.98C176.15 211.913 176.247 211.843 176.28 211.77V208.46H177.54V213H176.6L176.49 212.48H176.48ZM180.161 206.55V213H178.901V207.21L180.161 206.55ZM185.178 213H184.168L184.068 212.57C183.628 212.937 183.181 213.12 182.728 213.12C181.721 213.12 181.218 212.63 181.218 211.65C181.218 211.163 181.428 210.783 181.848 210.51C182.275 210.23 182.905 210.09 183.738 210.09H183.948V210.07C183.948 209.783 183.888 209.587 183.768 209.48C183.648 209.373 183.431 209.32 183.118 209.32C182.678 209.32 182.275 209.46 181.908 209.74C181.788 209.52 181.675 209.303 181.568 209.09C181.948 208.797 182.278 208.6 182.558 208.5C182.845 208.393 183.185 208.34 183.578 208.34C184.645 208.34 185.178 209.007 185.178 210.34V213ZM183.908 210.86H183.758C183.378 210.86 183.071 210.927 182.838 211.06C182.605 211.193 182.488 211.37 182.488 211.59C182.488 212.003 182.668 212.21 183.028 212.21C183.248 212.21 183.441 212.147 183.608 212.02C183.775 211.893 183.875 211.733 183.908 211.54V210.86ZM189.377 209.47H188.077V211.72C188.077 212.053 188.187 212.22 188.407 212.22C188.607 212.22 188.857 212.133 189.157 211.96L189.577 212.6C189.104 212.973 188.581 213.16 188.007 213.16C187.207 213.16 186.807 212.72 186.807 211.84V209.47H186.177V208.46H186.817V207.65C187.151 207.47 187.574 207.247 188.087 206.98V208.46H189.377V209.47ZM191.732 208.46V213H190.462V208.46H191.732ZM190.312 207.3C190.312 207.087 190.385 206.903 190.532 206.75C190.685 206.59 190.865 206.51 191.072 206.51C191.292 206.51 191.479 206.587 191.632 206.74C191.792 206.893 191.872 207.08 191.872 207.3C191.872 207.533 191.795 207.723 191.642 207.87C191.495 208.017 191.305 208.09 191.072 208.09C190.852 208.09 190.669 208.017 190.522 207.87C190.382 207.717 190.312 207.527 190.312 207.3ZM194.992 208.34C195.738 208.34 196.318 208.603 196.732 209.13C197.078 209.57 197.252 210.107 197.252 210.74C197.252 211.48 196.995 212.08 196.482 212.54C196.055 212.927 195.558 213.12 194.992 213.12C194.332 213.12 193.778 212.873 193.332 212.38C192.932 211.933 192.732 211.387 192.732 210.74C192.732 210.007 192.955 209.413 193.402 208.96C193.808 208.547 194.338 208.34 194.992 208.34ZM194.992 212.18C195.638 212.18 195.962 211.7 195.962 210.74C195.962 209.74 195.638 209.24 194.992 209.24C194.345 209.24 194.022 209.74 194.022 210.74C194.022 211.7 194.345 212.18 194.992 212.18ZM199.535 208.9C199.668 208.747 199.868 208.617 200.135 208.51C200.401 208.397 200.655 208.34 200.895 208.34C201.468 208.34 201.881 208.497 202.135 208.81C202.395 209.123 202.525 209.63 202.525 210.33V213H201.255V210.38C201.255 209.727 200.965 209.4 200.385 209.4C200.238 209.4 200.081 209.433 199.915 209.5C199.748 209.56 199.635 209.63 199.575 209.71V213H198.315V208.46H199.385C199.418 208.633 199.451 208.78 199.485 208.9H199.535Z" fill="white"/>
<path d="M42.96 191.36C45.4347 191.36 47.4187 192.544 48.912 194.912C50.1707 196.875 50.8 199.211 50.8 201.92C50.8 205.184 50 207.797 48.4 209.76C46.992 211.509 45.1787 212.384 42.96 212.384C40.4213 212.384 38.4373 211.253 37.008 208.992C35.8133 207.115 35.216 204.757 35.216 201.92C35.216 198.763 36.0053 196.171 37.584 194.144C39.0133 192.288 40.8053 191.36 42.96 191.36ZM43.024 194.944C40.72 194.944 39.568 197.205 39.568 201.728C39.568 204.011 39.8987 205.803 40.56 207.104C41.1573 208.277 41.9467 208.864 42.928 208.864C44.016 208.864 44.8693 208.235 45.488 206.976C46.128 205.696 46.448 203.947 46.448 201.728C46.448 197.205 45.3067 194.944 43.024 194.944ZM61.2793 191.744V212H57.0873V196.512C56.7886 196.704 56.3513 196.971 55.7753 197.312C54.9433 197.803 54.3459 198.176 53.9833 198.432C53.7059 197.963 53.2366 197.184 52.5753 196.096L52.3833 195.808C52.2339 195.531 52.1166 195.328 52.0312 195.2C52.7139 194.709 53.7913 193.973 55.2633 192.992C56.0313 192.48 56.6393 192.064 57.0873 191.744H61.2793Z" fill="white"/>
<rect y="155" width="586" height="6" fill="url(#paint0_linear_1514_29)" fill-opacity="0.7"/>
<path d="M129.6 37V36.208L131.724 33.88C132.244 33.304 132.608 32.832 132.816 32.464C133.024 32.088 133.128 31.712 133.128 31.336C133.128 30.944 132.992 30.628 132.72 30.388C132.456 30.148 132.104 30.028 131.664 30.028C131.136 30.028 130.616 30.196 130.104 30.532L129.732 30.004C130.396 29.5 131.108 29.248 131.868 29.248C132.54 29.248 133.084 29.46 133.5 29.884C133.884 30.268 134.076 30.752 134.076 31.336C134.076 31.76 133.96 32.176 133.728 32.584C133.504 32.984 133.08 33.532 132.456 34.228L130.644 36.244H133.932V37H129.6ZM140.79 33.22C140.79 34.476 140.514 35.464 139.962 36.184C139.482 36.824 138.85 37.144 138.066 37.144C137.162 37.144 136.462 36.732 135.966 35.908C135.55 35.204 135.342 34.308 135.342 33.22C135.342 32.004 135.618 31.024 136.17 30.28C136.666 29.6 137.298 29.26 138.066 29.26C138.938 29.26 139.63 29.692 140.142 30.556C140.574 31.284 140.79 32.172 140.79 33.22ZM138.054 30.028C137.502 30.028 137.07 30.304 136.758 30.856C136.446 31.408 136.29 32.172 136.29 33.148C136.29 34.188 136.458 34.996 136.794 35.572C137.106 36.1 137.526 36.364 138.054 36.364C138.606 36.364 139.042 36.08 139.362 35.512C139.682 34.936 139.842 34.148 139.842 33.148C139.842 32.124 139.666 31.336 139.314 30.784C139.002 30.28 138.582 30.028 138.054 30.028ZM141.987 37V36.208L144.111 33.88C144.631 33.304 144.995 32.832 145.203 32.464C145.411 32.088 145.515 31.712 145.515 31.336C145.515 30.944 145.379 30.628 145.107 30.388C144.843 30.148 144.491 30.028 144.051 30.028C143.523 30.028 143.003 30.196 142.491 30.532L142.119 30.004C142.783 29.5 143.495 29.248 144.255 29.248C144.927 29.248 145.471 29.46 145.887 29.884C146.271 30.268 146.463 30.752 146.463 31.336C146.463 31.76 146.347 32.176 146.115 32.584C145.891 32.984 145.467 33.532 144.843 34.228L143.031 36.244H146.319V37H141.987ZM148.172 30.544L147.812 30.016C148.38 29.512 149.06 29.26 149.852 29.26C150.5 29.26 151.036 29.452 151.46 29.836C151.852 30.196 152.048 30.656 152.048 31.216C152.048 31.616 151.928 31.972 151.688 32.284C151.448 32.588 151.132 32.788 150.74 32.884C151.244 33.004 151.64 33.236 151.928 33.58C152.216 33.924 152.36 34.34 152.36 34.828C152.36 35.636 152.056 36.252 151.448 36.676C151 36.98 150.472 37.132 149.864 37.132C149.096 37.132 148.38 36.868 147.716 36.34L148.1 35.824C148.604 36.176 149.156 36.352 149.756 36.352C150.252 36.352 150.652 36.212 150.956 35.932C151.26 35.652 151.412 35.28 151.412 34.816C151.412 33.832 150.824 33.34 149.648 33.34H148.664V32.584H149.648C150.096 32.584 150.448 32.468 150.704 32.236C150.968 32.004 151.1 31.684 151.1 31.276C151.1 30.436 150.632 30.016 149.696 30.016C149.208 30.016 148.7 30.192 148.172 30.544Z" fill="white"/>
<path d="M429.6 37V36.208L431.724 33.88C432.244 33.304 432.608 32.832 432.816 32.464C433.024 32.088 433.128 31.712 433.128 31.336C433.128 30.944 432.992 30.628 432.72 30.388C432.456 30.148 432.104 30.028 431.664 30.028C431.136 30.028 430.616 30.196 430.104 30.532L429.732 30.004C430.396 29.5 431.108 29.248 431.868 29.248C432.54 29.248 433.084 29.46 433.5 29.884C433.884 30.268 434.076 30.752 434.076 31.336C434.076 31.76 433.96 32.176 433.728 32.584C433.504 32.984 433.08 33.532 432.456 34.228L430.644 36.244H433.932V37H429.6ZM440.79 33.22C440.79 34.476 440.514 35.464 439.962 36.184C439.482 36.824 438.85 37.144 438.066 37.144C437.162 37.144 436.462 36.732 435.966 35.908C435.55 35.204 435.342 34.308 435.342 33.22C435.342 32.004 435.618 31.024 436.17 30.28C436.666 29.6 437.298 29.26 438.066 29.26C438.938 29.26 439.63 29.692 440.142 30.556C440.574 31.284 440.79 32.172 440.79 33.22ZM438.054 30.028C437.502 30.028 437.07 30.304 436.758 30.856C436.446 31.408 436.29 32.172 436.29 33.148C436.29 34.188 436.458 34.996 436.794 35.572C437.106 36.1 437.526 36.364 438.054 36.364C438.606 36.364 439.042 36.08 439.362 35.512C439.682 34.936 439.842 34.148 439.842 33.148C439.842 32.124 439.666 31.336 439.314 30.784C439.002 30.28 438.582 30.028 438.054 30.028ZM441.987 37V36.208L444.111 33.88C444.631 33.304 444.995 32.832 445.203 32.464C445.411 32.088 445.515 31.712 445.515 31.336C445.515 30.944 445.379 30.628 445.107 30.388C444.843 30.148 444.491 30.028 444.051 30.028C443.523 30.028 443.003 30.196 442.491 30.532L442.119 30.004C442.783 29.5 443.495 29.248 444.255 29.248C444.927 29.248 445.471 29.46 445.887 29.884C446.271 30.268 446.463 30.752 446.463 31.336C446.463 31.76 446.347 32.176 446.115 32.584C445.891 32.984 445.467 33.532 444.843 34.228L443.031 36.244H446.319V37H441.987ZM452.408 29.86L452.096 30.364C451.672 30.14 451.212 30.028 450.716 30.028C450.18 30.028 449.744 30.272 449.408 30.76C449.072 31.248 448.888 31.904 448.856 32.728C449.288 32.28 449.804 32.056 450.404 32.056C451.044 32.056 451.576 32.264 452 32.68C452.464 33.128 452.696 33.756 452.696 34.564C452.696 35.284 452.464 35.9 452 36.412C451.568 36.9 451.024 37.144 450.368 37.144C449.488 37.144 448.832 36.724 448.4 35.884C448.064 35.236 447.896 34.432 447.896 33.472C447.896 32.112 448.176 31.048 448.736 30.28C449.232 29.6 449.876 29.26 450.668 29.26C451.324 29.26 451.904 29.46 452.408 29.86ZM448.808 33.556C448.816 34.476 448.968 35.192 449.264 35.704C449.536 36.16 449.9 36.388 450.356 36.388C450.772 36.388 451.108 36.224 451.364 35.896C451.62 35.56 451.748 35.116 451.748 34.564C451.748 33.988 451.616 33.544 451.352 33.232C451.088 32.92 450.72 32.764 450.248 32.764C449.648 32.764 449.168 33.028 448.808 33.556Z" fill="white"/>
<path d="M329.6 36V35.208L331.724 32.88C332.244 32.304 332.608 31.832 332.816 31.464C333.024 31.088 333.128 30.712 333.128 30.336C333.128 29.944 332.992 29.628 332.72 29.388C332.456 29.148 332.104 29.028 331.664 29.028C331.136 29.028 330.616 29.196 330.104 29.532L329.732 29.004C330.396 28.5 331.108 28.248 331.868 28.248C332.54 28.248 333.084 28.46 333.5 28.884C333.884 29.268 334.076 29.752 334.076 30.336C334.076 30.76 333.96 31.176 333.728 31.584C333.504 31.984 333.08 32.532 332.456 33.228L330.644 35.244H333.932V36H329.6ZM340.79 32.22C340.79 33.476 340.514 34.464 339.962 35.184C339.482 35.824 338.85 36.144 338.066 36.144C337.162 36.144 336.462 35.732 335.966 34.908C335.55 34.204 335.342 33.308 335.342 32.22C335.342 31.004 335.618 30.024 336.17 29.28C336.666 28.6 337.298 28.26 338.066 28.26C338.938 28.26 339.63 28.692 340.142 29.556C340.574 30.284 340.79 31.172 340.79 32.22ZM338.054 29.028C337.502 29.028 337.07 29.304 336.758 29.856C336.446 30.408 336.29 31.172 336.29 32.148C336.29 33.188 336.458 33.996 336.794 34.572C337.106 35.1 337.526 35.364 338.054 35.364C338.606 35.364 339.042 35.08 339.362 34.512C339.682 33.936 339.842 33.148 339.842 32.148C339.842 31.124 339.666 30.336 339.314 29.784C339.002 29.28 338.582 29.028 338.054 29.028ZM341.987 36V35.208L344.111 32.88C344.631 32.304 344.995 31.832 345.203 31.464C345.411 31.088 345.515 30.712 345.515 30.336C345.515 29.944 345.379 29.628 345.107 29.388C344.843 29.148 344.491 29.028 344.051 29.028C343.523 29.028 343.003 29.196 342.491 29.532L342.119 29.004C342.783 28.5 343.495 28.248 344.255 28.248C344.927 28.248 345.471 28.46 345.887 28.884C346.271 29.268 346.463 29.752 346.463 30.336C346.463 30.76 346.347 31.176 346.115 31.584C345.891 31.984 345.467 32.532 344.843 33.228L343.031 35.244H346.319V36H341.987ZM352.072 29.16H349.168V31.296C349.408 31.256 349.688 31.236 350.008 31.236C350.816 31.236 351.456 31.46 351.928 31.908C352.368 32.332 352.588 32.904 352.588 33.624C352.588 34.416 352.304 35.056 351.736 35.544C351.272 35.944 350.72 36.144 350.08 36.144C349.24 36.144 348.512 35.88 347.896 35.352L348.244 34.836C348.748 35.18 349.296 35.352 349.888 35.352C350.44 35.352 350.872 35.204 351.184 34.908C351.496 34.604 351.652 34.18 351.652 33.636C351.652 33.1 351.484 32.684 351.148 32.388C350.812 32.092 350.344 31.944 349.744 31.944C349.344 31.944 348.856 31.996 348.28 32.1V28.404H352.072V29.16Z" fill="white"/>
<path d="M229.6 37V36.208L231.724 33.88C232.244 33.304 232.608 32.832 232.816 32.464C233.024 32.088 233.128 31.712 233.128 31.336C233.128 30.944 232.992 30.628 232.72 30.388C232.456 30.148 232.104 30.028 231.664 30.028C231.136 30.028 230.616 30.196 230.104 30.532L229.732 30.004C230.396 29.5 231.108 29.248 231.868 29.248C232.54 29.248 233.084 29.46 233.5 29.884C233.884 30.268 234.076 30.752 234.076 31.336C234.076 31.76 233.96 32.176 233.728 32.584C233.504 32.984 233.08 33.532 232.456 34.228L230.644 36.244H233.932V37H229.6ZM240.79 33.22C240.79 34.476 240.514 35.464 239.962 36.184C239.482 36.824 238.85 37.144 238.066 37.144C237.162 37.144 236.462 36.732 235.966 35.908C235.55 35.204 235.342 34.308 235.342 33.22C235.342 32.004 235.618 31.024 236.17 30.28C236.666 29.6 237.298 29.26 238.066 29.26C238.938 29.26 239.63 29.692 240.142 30.556C240.574 31.284 240.79 32.172 240.79 33.22ZM238.054 30.028C237.502 30.028 237.07 30.304 236.758 30.856C236.446 31.408 236.29 32.172 236.29 33.148C236.29 34.188 236.458 34.996 236.794 35.572C237.106 36.1 237.526 36.364 238.054 36.364C238.606 36.364 239.042 36.08 239.362 35.512C239.682 34.936 239.842 34.148 239.842 33.148C239.842 32.124 239.666 31.336 239.314 30.784C239.002 30.28 238.582 30.028 238.054 30.028ZM241.987 37V36.208L244.111 33.88C244.631 33.304 244.995 32.832 245.203 32.464C245.411 32.088 245.515 31.712 245.515 31.336C245.515 30.944 245.379 30.628 245.107 30.388C244.843 30.148 244.491 30.028 244.051 30.028C243.523 30.028 243.003 30.196 242.491 30.532L242.119 30.004C242.783 29.5 243.495 29.248 244.255 29.248C244.927 29.248 245.471 29.46 245.887 29.884C246.271 30.268 246.463 30.752 246.463 31.336C246.463 31.76 246.347 32.176 246.115 32.584C245.891 32.984 245.467 33.532 244.843 34.228L243.031 36.244H246.319V37H241.987ZM247.572 34.624L250.98 29.404H251.916V34.624H253.308V35.38H251.916V37H251.04V35.38H247.572V34.624ZM248.46 34.624H251.04V30.628L248.46 34.624Z" fill="white"/>
<rect x="97" y="103" width="100" height="52" fill="url(#paint1_linear_1514_29)"/>
<rect x="197" y="103" width="100" height="52" fill="url(#paint2_linear_1514_29)"/>
<rect x="297" y="103" width="100" height="52" fill="url(#paint3_linear_1514_29)"/>
<rect x="397" y="103" width="100" height="52" fill="url(#paint4_linear_1514_29)"/>
<path d="M131.8 137.68C132.127 137.593 132.703 137.55 133.53 137.55C134.67 137.55 135.54 137.883 136.14 138.55C136.653 139.117 136.91 139.857 136.91 140.77C136.91 141.91 136.583 142.767 135.93 143.34C135.337 143.86 134.51 144.12 133.45 144.12C132.783 144.12 132.233 144.077 131.8 143.99V137.68ZM133.11 143.04C133.243 143.073 133.41 143.09 133.61 143.09C134.897 143.09 135.54 142.33 135.54 140.81C135.54 140.057 135.327 139.48 134.9 139.08C134.553 138.76 134.113 138.6 133.58 138.6C133.427 138.6 133.27 138.617 133.11 138.65V143.04ZM139.949 139.34C140.695 139.34 141.275 139.603 141.689 140.13C142.035 140.57 142.209 141.107 142.209 141.74C142.209 142.48 141.952 143.08 141.439 143.54C141.012 143.927 140.515 144.12 139.949 144.12C139.289 144.12 138.735 143.873 138.289 143.38C137.889 142.933 137.689 142.387 137.689 141.74C137.689 141.007 137.912 140.413 138.359 139.96C138.765 139.547 139.295 139.34 139.949 139.34ZM139.949 143.18C140.595 143.18 140.919 142.7 140.919 141.74C140.919 140.74 140.595 140.24 139.949 140.24C139.302 140.24 138.979 140.74 138.979 141.74C138.979 142.7 139.302 143.18 139.949 143.18ZM144.532 137.55V144H143.272V138.21L144.532 137.55ZM147.149 137.55V144H145.889V138.21L147.149 137.55ZM152.166 144H151.156L151.056 143.57C150.616 143.937 150.17 144.12 149.716 144.12C148.71 144.12 148.206 143.63 148.206 142.65C148.206 142.163 148.416 141.783 148.836 141.51C149.263 141.23 149.893 141.09 150.726 141.09H150.936V141.07C150.936 140.783 150.876 140.587 150.756 140.48C150.636 140.373 150.42 140.32 150.106 140.32C149.666 140.32 149.263 140.46 148.896 140.74C148.776 140.52 148.663 140.303 148.556 140.09C148.936 139.797 149.266 139.6 149.546 139.5C149.833 139.393 150.173 139.34 150.566 139.34C151.633 139.34 152.166 140.007 152.166 141.34V144ZM150.896 141.86H150.746C150.366 141.86 150.06 141.927 149.826 142.06C149.593 142.193 149.476 142.37 149.476 142.59C149.476 143.003 149.656 143.21 150.016 143.21C150.236 143.21 150.43 143.147 150.596 143.02C150.763 142.893 150.863 142.733 150.896 142.54V141.86ZM154.596 139.46L154.716 139.86C154.782 139.72 154.909 139.6 155.096 139.5C155.289 139.393 155.486 139.34 155.686 139.34C156.286 139.34 156.732 139.623 157.026 140.19L155.966 140.77C155.746 140.517 155.512 140.39 155.266 140.39C155.039 140.39 154.872 140.507 154.766 140.74V144H153.526V139.46H154.596ZM160.199 140.56C159.872 140.347 159.499 140.24 159.079 140.24C158.759 140.24 158.599 140.377 158.599 140.65C158.599 140.903 158.816 141.083 159.249 141.19C159.789 141.323 160.156 141.473 160.349 141.64C160.629 141.88 160.769 142.24 160.769 142.72C160.769 143.147 160.616 143.487 160.309 143.74C160.009 143.993 159.602 144.12 159.089 144.12C158.362 144.12 157.749 143.913 157.249 143.5L157.709 142.8C158.056 143.073 158.472 143.21 158.959 143.21C159.152 143.21 159.309 143.163 159.429 143.07C159.549 142.977 159.609 142.853 159.609 142.7C159.609 142.42 159.372 142.237 158.899 142.15C157.886 141.957 157.379 141.463 157.379 140.67C157.379 140.29 157.532 139.973 157.839 139.72C158.152 139.467 158.542 139.34 159.009 139.34C159.642 139.34 160.192 139.523 160.659 139.89L160.199 140.56Z" fill="white"/>
<path d="M331.8 136.68C332.127 136.593 332.703 136.55 333.53 136.55C334.67 136.55 335.54 136.883 336.14 137.55C336.653 138.117 336.91 138.857 336.91 139.77C336.91 140.91 336.583 141.767 335.93 142.34C335.337 142.86 334.51 143.12 333.45 143.12C332.783 143.12 332.233 143.077 331.8 142.99V136.68ZM333.11 142.04C333.243 142.073 333.41 142.09 333.61 142.09C334.897 142.09 335.54 141.33 335.54 139.81C335.54 139.057 335.327 138.48 334.9 138.08C334.553 137.76 334.113 137.6 333.58 137.6C333.427 137.6 333.27 137.617 333.11 137.65V142.04ZM339.949 138.34C340.695 138.34 341.275 138.603 341.689 139.13C342.035 139.57 342.209 140.107 342.209 140.74C342.209 141.48 341.952 142.08 341.439 142.54C341.012 142.927 340.515 143.12 339.949 143.12C339.289 143.12 338.735 142.873 338.289 142.38C337.889 141.933 337.689 141.387 337.689 140.74C337.689 140.007 337.912 139.413 338.359 138.96C338.765 138.547 339.295 138.34 339.949 138.34ZM339.949 142.18C340.595 142.18 340.919 141.7 340.919 140.74C340.919 139.74 340.595 139.24 339.949 139.24C339.302 139.24 338.979 139.74 338.979 140.74C338.979 141.7 339.302 142.18 339.949 142.18ZM344.532 136.55V143H343.272V137.21L344.532 136.55ZM347.149 136.55V143H345.889V137.21L347.149 136.55ZM352.166 143H351.156L351.056 142.57C350.616 142.937 350.17 143.12 349.716 143.12C348.71 143.12 348.206 142.63 348.206 141.65C348.206 141.163 348.416 140.783 348.836 140.51C349.263 140.23 349.893 140.09 350.726 140.09H350.936V140.07C350.936 139.783 350.876 139.587 350.756 139.48C350.636 139.373 350.42 139.32 350.106 139.32C349.666 139.32 349.263 139.46 348.896 139.74C348.776 139.52 348.663 139.303 348.556 139.09C348.936 138.797 349.266 138.6 349.546 138.5C349.833 138.393 350.173 138.34 350.566 138.34C351.633 138.34 352.166 139.007 352.166 140.34V143ZM350.896 140.86H350.746C350.366 140.86 350.06 140.927 349.826 141.06C349.593 141.193 349.476 141.37 349.476 141.59C349.476 142.003 349.656 142.21 350.016 142.21C350.236 142.21 350.43 142.147 350.596 142.02C350.763 141.893 350.863 141.733 350.896 141.54V140.86ZM354.596 138.46L354.716 138.86C354.782 138.72 354.909 138.6 355.096 138.5C355.289 138.393 355.486 138.34 355.686 138.34C356.286 138.34 356.732 138.623 357.026 139.19L355.966 139.77C355.746 139.517 355.512 139.39 355.266 139.39C355.039 139.39 354.872 139.507 354.766 139.74V143H353.526V138.46H354.596ZM360.199 139.56C359.872 139.347 359.499 139.24 359.079 139.24C358.759 139.24 358.599 139.377 358.599 139.65C358.599 139.903 358.816 140.083 359.249 140.19C359.789 140.323 360.156 140.473 360.349 140.64C360.629 140.88 360.769 141.24 360.769 141.72C360.769 142.147 360.616 142.487 360.309 142.74C360.009 142.993 359.602 143.12 359.089 143.12C358.362 143.12 357.749 142.913 357.249 142.5L357.709 141.8C358.056 142.073 358.472 142.21 358.959 142.21C359.152 142.21 359.309 142.163 359.429 142.07C359.549 141.977 359.609 141.853 359.609 141.7C359.609 141.42 359.372 141.237 358.899 141.15C357.886 140.957 357.379 140.463 357.379 139.67C357.379 139.29 357.532 138.973 357.839 138.72C358.152 138.467 358.542 138.34 359.009 138.34C359.642 138.34 360.192 138.523 360.659 138.89L360.199 139.56Z" fill="white"/>
<path d="M431.8 135.68C432.127 135.593 432.703 135.55 433.53 135.55C434.67 135.55 435.54 135.883 436.14 136.55C436.653 137.117 436.91 137.857 436.91 138.77C436.91 139.91 436.583 140.767 435.93 141.34C435.337 141.86 434.51 142.12 433.45 142.12C432.783 142.12 432.233 142.077 431.8 141.99V135.68ZM433.11 141.04C433.243 141.073 433.41 141.09 433.61 141.09C434.897 141.09 435.54 140.33 435.54 138.81C435.54 138.057 435.327 137.48 434.9 137.08C434.553 136.76 434.113 136.6 433.58 136.6C433.427 136.6 433.27 136.617 433.11 136.65V141.04ZM439.949 137.34C440.695 137.34 441.275 137.603 441.689 138.13C442.035 138.57 442.209 139.107 442.209 139.74C442.209 140.48 441.952 141.08 441.439 141.54C441.012 141.927 440.515 142.12 439.949 142.12C439.289 142.12 438.735 141.873 438.289 141.38C437.889 140.933 437.689 140.387 437.689 139.74C437.689 139.007 437.912 138.413 438.359 137.96C438.765 137.547 439.295 137.34 439.949 137.34ZM439.949 141.18C440.595 141.18 440.919 140.7 440.919 139.74C440.919 138.74 440.595 138.24 439.949 138.24C439.302 138.24 438.979 138.74 438.979 139.74C438.979 140.7 439.302 141.18 439.949 141.18ZM444.532 135.55V142H443.272V136.21L444.532 135.55ZM447.149 135.55V142H445.889V136.21L447.149 135.55ZM452.166 142H451.156L451.056 141.57C450.616 141.937 450.17 142.12 449.716 142.12C448.71 142.12 448.206 141.63 448.206 140.65C448.206 140.163 448.416 139.783 448.836 139.51C449.263 139.23 449.893 139.09 450.726 139.09H450.936V139.07C450.936 138.783 450.876 138.587 450.756 138.48C450.636 138.373 450.42 138.32 450.106 138.32C449.666 138.32 449.263 138.46 448.896 138.74C448.776 138.52 448.663 138.303 448.556 138.09C448.936 137.797 449.266 137.6 449.546 137.5C449.833 137.393 450.173 137.34 450.566 137.34C451.633 137.34 452.166 138.007 452.166 139.34V142ZM450.896 139.86H450.746C450.366 139.86 450.06 139.927 449.826 140.06C449.593 140.193 449.476 140.37 449.476 140.59C449.476 141.003 449.656 141.21 450.016 141.21C450.236 141.21 450.43 141.147 450.596 141.02C450.763 140.893 450.863 140.733 450.896 140.54V139.86ZM454.596 137.46L454.716 137.86C454.782 137.72 454.909 137.6 455.096 137.5C455.289 137.393 455.486 137.34 455.686 137.34C456.286 137.34 456.732 137.623 457.026 138.19L455.966 138.77C455.746 138.517 455.512 138.39 455.266 138.39C455.039 138.39 454.872 138.507 454.766 138.74V142H453.526V137.46H454.596ZM460.199 138.56C459.872 138.347 459.499 138.24 459.079 138.24C458.759 138.24 458.599 138.377 458.599 138.65C458.599 138.903 458.816 139.083 459.249 139.19C459.789 139.323 460.156 139.473 460.349 139.64C460.629 139.88 460.769 140.24 460.769 140.72C460.769 141.147 460.616 141.487 460.309 141.74C460.009 141.993 459.602 142.12 459.089 142.12C458.362 142.12 457.749 141.913 457.249 141.5L457.709 140.8C458.056 141.073 458.472 141.21 458.959 141.21C459.152 141.21 459.309 141.163 459.429 141.07C459.549 140.977 459.609 140.853 459.609 140.7C459.609 140.42 459.372 140.237 458.899 140.15C457.886 139.957 457.379 139.463 457.379 138.67C457.379 138.29 457.532 137.973 457.839 137.72C458.152 137.467 458.542 137.34 459.009 137.34C459.642 137.34 460.192 137.523 460.659 137.89L460.199 138.56Z" fill="white"/>
<path d="M231.8 137.68C232.127 137.593 232.703 137.55 233.53 137.55C234.67 137.55 235.54 137.883 236.14 138.55C236.653 139.117 236.91 139.857 236.91 140.77C236.91 141.91 236.583 142.767 235.93 143.34C235.337 143.86 234.51 144.12 233.45 144.12C232.783 144.12 232.233 144.077 231.8 143.99V137.68ZM233.11 143.04C233.243 143.073 233.41 143.09 233.61 143.09C234.897 143.09 235.54 142.33 235.54 140.81C235.54 140.057 235.327 139.48 234.9 139.08C234.553 138.76 234.113 138.6 233.58 138.6C233.427 138.6 233.27 138.617 233.11 138.65V143.04ZM239.949 139.34C240.695 139.34 241.275 139.603 241.689 140.13C242.035 140.57 242.209 141.107 242.209 141.74C242.209 142.48 241.952 143.08 241.439 143.54C241.012 143.927 240.515 144.12 239.949 144.12C239.289 144.12 238.735 143.873 238.289 143.38C237.889 142.933 237.689 142.387 237.689 141.74C237.689 141.007 237.912 140.413 238.359 139.96C238.765 139.547 239.295 139.34 239.949 139.34ZM239.949 143.18C240.595 143.18 240.919 142.7 240.919 141.74C240.919 140.74 240.595 140.24 239.949 140.24C239.302 140.24 238.979 140.74 238.979 141.74C238.979 142.7 239.302 143.18 239.949 143.18ZM244.532 137.55V144H243.272V138.21L244.532 137.55ZM247.149 137.55V144H245.889V138.21L247.149 137.55ZM252.166 144H251.156L251.056 143.57C250.616 143.937 250.17 144.12 249.716 144.12C248.71 144.12 248.206 143.63 248.206 142.65C248.206 142.163 248.416 141.783 248.836 141.51C249.263 141.23 249.893 141.09 250.726 141.09H250.936V141.07C250.936 140.783 250.876 140.587 250.756 140.48C250.636 140.373 250.42 140.32 250.106 140.32C249.666 140.32 249.263 140.46 248.896 140.74C248.776 140.52 248.663 140.303 248.556 140.09C248.936 139.797 249.266 139.6 249.546 139.5C249.833 139.393 250.173 139.34 250.566 139.34C251.633 139.34 252.166 140.007 252.166 141.34V144ZM250.896 141.86H250.746C250.366 141.86 250.06 141.927 249.826 142.06C249.593 142.193 249.476 142.37 249.476 142.59C249.476 143.003 249.656 143.21 250.016 143.21C250.236 143.21 250.43 143.147 250.596 143.02C250.763 142.893 250.863 142.733 250.896 142.54V141.86ZM254.596 139.46L254.716 139.86C254.782 139.72 254.909 139.6 255.096 139.5C255.289 139.393 255.486 139.34 255.686 139.34C256.286 139.34 256.732 139.623 257.026 140.19L255.966 140.77C255.746 140.517 255.512 140.39 255.266 140.39C255.039 140.39 254.872 140.507 254.766 140.74V144H253.526V139.46H254.596ZM260.199 140.56C259.872 140.347 259.499 140.24 259.079 140.24C258.759 140.24 258.599 140.377 258.599 140.65C258.599 140.903 258.816 141.083 259.249 141.19C259.789 141.323 260.156 141.473 260.349 141.64C260.629 141.88 260.769 142.24 260.769 142.72C260.769 143.147 260.616 143.487 260.309 143.74C260.009 143.993 259.602 144.12 259.089 144.12C258.362 144.12 257.749 143.913 257.249 143.5L257.709 142.8C258.056 143.073 258.472 143.21 258.959 143.21C259.152 143.21 259.309 143.163 259.429 143.07C259.549 142.977 259.609 142.853 259.609 142.7C259.609 142.42 259.372 142.237 258.899 142.15C257.886 141.957 257.379 141.463 257.379 140.67C257.379 140.29 257.532 139.973 257.839 139.72C258.152 139.467 258.542 139.34 259.009 139.34C259.642 139.34 260.192 139.523 260.659 139.89L260.199 140.56Z" fill="white"/>
<path d="M129.936 116.808V132H126.792V120.384C126.568 120.528 126.24 120.728 125.808 120.984C125.184 121.352 124.736 121.632 124.464 121.824C124.256 121.472 123.904 120.888 123.408 120.072L123.264 119.856C123.152 119.648 123.064 119.496 123 119.4C123.512 119.032 124.32 118.48 125.424 117.744C126 117.36 126.456 117.048 126.792 116.808H129.936ZM141.891 119.328H136.587V122.4C136.779 122.32 137.043 122.28 137.379 122.28C139.139 122.28 140.507 122.72 141.483 123.6C142.411 124.448 142.875 125.608 142.875 127.08C142.875 128.632 142.299 129.92 141.147 130.944C140.139 131.84 138.915 132.288 137.475 132.288C135.555 132.288 133.883 131.592 132.459 130.2L133.755 128.208C134.923 129.088 136.051 129.528 137.139 129.528C138.819 129.528 139.659 128.776 139.659 127.272C139.659 125.592 138.579 124.752 136.419 124.752C135.667 124.752 134.683 124.888 133.467 125.16V116.808H141.891V119.328ZM150.509 116.52C152.365 116.52 153.853 117.408 154.973 119.184C155.917 120.656 156.389 122.408 156.389 124.44C156.389 126.888 155.789 128.848 154.589 130.32C153.533 131.632 152.173 132.288 150.509 132.288C148.605 132.288 147.117 131.44 146.045 129.744C145.149 128.336 144.701 126.568 144.701 124.44C144.701 122.072 145.293 120.128 146.477 118.608C147.549 117.216 148.893 116.52 150.509 116.52ZM150.557 119.208C148.829 119.208 147.965 120.904 147.965 124.296C147.965 126.008 148.213 127.352 148.709 128.328C149.157 129.208 149.749 129.648 150.485 129.648C151.301 129.648 151.941 129.176 152.405 128.232C152.885 127.272 153.125 125.96 153.125 124.296C153.125 120.904 152.269 119.208 150.557 119.208ZM169.097 121.104L163.937 125.496C165.857 128.376 167.337 130.544 168.377 132H164.969C163.625 129.696 162.609 127.968 161.921 126.816V132H158.896V118.104L161.921 116.52V123.744C162.705 123.12 163.753 122.24 165.065 121.104H169.097Z" fill="white"/>
<path d="M422.768 125.528C424.928 122.232 427.056 118.992 429.152 115.808H432.248V125.528H434.744V128.048H432.248V131H429.128V128.048H422.768V125.528ZM425.48 125.528H429.128V119.84L425.48 125.528ZM441.259 129.344C441.259 129.36 441.259 129.376 441.259 129.392C441.259 129.904 441.099 130.32 440.779 130.64C440.459 130.96 440.035 131.12 439.507 131.12C438.963 131.12 438.523 130.96 438.187 130.64C437.867 130.304 437.707 129.864 437.707 129.32V129.272C437.739 128.776 437.915 128.376 438.235 128.072C438.571 127.768 438.995 127.616 439.507 127.616C440.035 127.616 440.459 127.776 440.779 128.096C441.099 128.416 441.259 128.832 441.259 129.344ZM453.43 118.328H448.126V121.4C448.318 121.32 448.582 121.28 448.918 121.28C450.678 121.28 452.046 121.72 453.022 122.6C453.95 123.448 454.414 124.608 454.414 126.08C454.414 127.632 453.838 128.92 452.686 129.944C451.678 130.84 450.454 131.288 449.014 131.288C447.094 131.288 445.422 130.592 443.998 129.2L445.294 127.208C446.462 128.088 447.59 128.528 448.678 128.528C450.358 128.528 451.198 127.776 451.198 126.272C451.198 124.592 450.118 123.752 447.958 123.752C447.206 123.752 446.222 123.888 445.006 124.16V115.808H453.43V118.328ZM465.336 127.4C466.232 124.12 467.432 120.256 468.936 115.808H473.496V131H470.328V118.664C469.576 121.912 468.344 126.024 466.632 131H464.016C462.208 125.512 460.984 121.44 460.344 118.784V131H457.248V115.808H461.616C463.12 119.904 464.36 123.768 465.336 127.4Z" fill="white"/>
<path d="M328.936 117.808V133H325.792V121.384C325.568 121.528 325.24 121.728 324.808 121.984C324.184 122.352 323.736 122.632 323.464 122.824C323.256 122.472 322.904 121.888 322.408 121.072L322.264 120.856C322.152 120.648 322.064 120.496 322 120.4C322.512 120.032 323.32 119.48 324.424 118.744C325 118.36 325.456 118.048 325.792 117.808H328.936ZM336.595 131.344C336.595 131.36 336.595 131.376 336.595 131.392C336.595 131.904 336.435 132.32 336.115 132.64C335.795 132.96 335.371 133.12 334.843 133.12C334.299 133.12 333.859 132.96 333.523 132.64C333.203 132.304 333.043 131.864 333.043 131.32V131.272C333.075 130.776 333.251 130.376 333.571 130.072C333.907 129.768 334.331 129.616 334.843 129.616C335.371 129.616 335.795 129.776 336.115 130.096C336.435 130.416 336.595 130.832 336.595 131.344ZM348.766 120.328H343.462V123.4C343.654 123.32 343.918 123.28 344.254 123.28C346.014 123.28 347.382 123.72 348.358 124.6C349.286 125.448 349.75 126.608 349.75 128.08C349.75 129.632 349.174 130.92 348.022 131.944C347.014 132.84 345.79 133.288 344.35 133.288C342.43 133.288 340.758 132.592 339.334 131.2L340.63 129.208C341.798 130.088 342.926 130.528 344.014 130.528C345.694 130.528 346.534 129.776 346.534 128.272C346.534 126.592 345.454 125.752 343.294 125.752C342.542 125.752 341.558 125.888 340.342 126.16V117.808H348.766V120.328ZM360.672 129.4C361.568 126.12 362.768 122.256 364.272 117.808H368.832V133H365.664V120.664C364.912 123.912 363.68 128.024 361.968 133H359.352C357.544 127.512 356.32 123.44 355.68 120.784V133H352.584V117.808H356.952C358.456 121.904 359.696 125.768 360.672 129.4Z" fill="white"/>
<path d="M225.128 123.808C225.672 123.312 226.48 123.064 227.552 123.064C228.992 123.064 230.144 123.48 231.008 124.312C231.904 125.176 232.352 126.432 232.352 128.08C232.352 129.472 231.896 130.68 230.984 131.704C230.04 132.76 228.768 133.288 227.168 133.288C225.072 133.288 223.592 132.368 222.728 130.528C222.184 129.36 221.912 127.88 221.912 126.088C221.912 120.376 223.856 117.52 227.744 117.52C228.48 117.52 229.224 117.664 229.976 117.952C230.744 118.224 231.352 118.576 231.8 119.008L230.72 120.976C229.664 120.464 228.704 120.208 227.84 120.208C227.024 120.208 226.368 120.536 225.872 121.192C225.376 121.848 225.128 122.72 225.128 123.808ZM225.104 126.04C225.184 127.704 225.32 128.84 225.512 129.448C225.816 130.376 226.352 130.84 227.12 130.84C227.648 130.84 228.104 130.568 228.488 130.024C228.872 129.48 229.064 128.832 229.064 128.08C229.064 126.24 228.328 125.32 226.856 125.32C226.168 125.32 225.584 125.56 225.104 126.04ZM240.142 117.52C241.998 117.52 243.486 118.408 244.606 120.184C245.55 121.656 246.022 123.408 246.022 125.44C246.022 127.888 245.422 129.848 244.222 131.32C243.166 132.632 241.806 133.288 240.142 133.288C238.238 133.288 236.75 132.44 235.678 130.744C234.782 129.336 234.334 127.568 234.334 125.44C234.334 123.072 234.926 121.128 236.11 119.608C237.182 118.216 238.526 117.52 240.142 117.52ZM240.19 120.208C238.462 120.208 237.598 121.904 237.598 125.296C237.598 127.008 237.846 128.352 238.342 129.328C238.79 130.208 239.382 130.648 240.118 130.648C240.934 130.648 241.574 130.176 242.038 129.232C242.518 128.272 242.758 126.96 242.758 125.296C242.758 121.904 241.902 120.208 240.19 120.208ZM253.665 117.52C255.521 117.52 257.009 118.408 258.129 120.184C259.073 121.656 259.545 123.408 259.545 125.44C259.545 127.888 258.945 129.848 257.745 131.32C256.689 132.632 255.329 133.288 253.665 133.288C251.761 133.288 250.273 132.44 249.201 130.744C248.305 129.336 247.857 127.568 247.857 125.44C247.857 123.072 248.449 121.128 249.633 119.608C250.705 118.216 252.049 117.52 253.665 117.52ZM253.713 120.208C251.985 120.208 251.121 121.904 251.121 125.296C251.121 127.008 251.369 128.352 251.865 129.328C252.313 130.208 252.905 130.648 253.641 130.648C254.457 130.648 255.097 130.176 255.561 129.232C256.041 128.272 256.281 126.96 256.281 125.296C256.281 121.904 255.425 120.208 253.713 120.208ZM272.253 122.104L267.093 126.496C269.013 129.376 270.493 131.544 271.533 133H268.125C266.781 130.696 265.765 128.968 265.077 127.816V133H262.053V119.104L265.077 117.52V124.744C265.861 124.12 266.909 123.24 268.221 122.104H272.253Z" fill="white"/>
<path d="M209.762 12H207.44V0.606H209.762V5.178H214.658V0.606H217.016V12H214.658V7.068H209.762V12ZM223.215 3.612C224.559 3.612 225.603 4.086 226.347 5.034C226.971 5.826 227.283 6.792 227.283 7.932C227.283 9.264 226.821 10.344 225.897 11.172C225.129 11.868 224.235 12.216 223.215 12.216C222.027 12.216 221.031 11.772 220.227 10.884C219.507 10.08 219.147 9.096 219.147 7.932C219.147 6.612 219.549 5.544 220.353 4.728C221.085 3.984 222.039 3.612 223.215 3.612ZM223.215 10.524C224.379 10.524 224.961 9.66 224.961 7.932C224.961 6.132 224.379 5.232 223.215 5.232C222.051 5.232 221.469 6.132 221.469 7.932C221.469 9.66 222.051 10.524 223.215 10.524ZM233.967 5.808C233.379 5.424 232.707 5.232 231.951 5.232C231.375 5.232 231.087 5.478 231.087 5.97C231.087 6.426 231.477 6.75 232.257 6.942C233.229 7.182 233.889 7.452 234.237 7.752C234.741 8.184 234.993 8.832 234.993 9.696C234.993 10.464 234.717 11.076 234.165 11.532C233.625 11.988 232.893 12.216 231.969 12.216C230.661 12.216 229.557 11.844 228.657 11.1L229.485 9.84C230.109 10.332 230.859 10.578 231.735 10.578C232.083 10.578 232.365 10.494 232.581 10.326C232.797 10.158 232.905 9.936 232.905 9.66C232.905 9.156 232.479 8.826 231.627 8.67C229.803 8.322 228.891 7.434 228.891 6.006C228.891 5.322 229.167 4.752 229.719 4.296C230.283 3.84 230.985 3.612 231.825 3.612C232.965 3.612 233.955 3.942 234.795 4.602L233.967 5.808ZM238.606 3.828L238.822 4.602C239.326 3.942 240.034 3.612 240.946 3.612C242.23 3.612 243.232 4.044 243.952 4.908C244.564 5.652 244.87 6.6 244.87 7.752C244.87 9.264 244.414 10.428 243.502 11.244C242.782 11.892 241.9 12.216 240.856 12.216C240.544 12.216 240.214 12.15 239.866 12.018C239.518 11.886 239.272 11.736 239.128 11.568V15.204H236.896V3.828H238.606ZM239.128 7.014V9.102C239.128 9.522 239.272 9.882 239.56 10.182C239.86 10.482 240.208 10.632 240.604 10.632C241.144 10.632 241.594 10.374 241.954 9.858C242.314 9.342 242.494 8.7 242.494 7.932C242.494 7.116 242.332 6.468 242.008 5.988C241.696 5.496 241.27 5.25 240.73 5.25C240.31 5.25 239.938 5.43 239.614 5.79C239.29 6.138 239.128 6.546 239.128 7.014ZM248.971 3.828V12H246.685V3.828H248.971ZM246.415 1.74C246.415 1.356 246.547 1.026 246.811 0.75C247.087 0.461999 247.411 0.317999 247.783 0.317999C248.179 0.317999 248.515 0.455999 248.791 0.731999C249.079 1.008 249.223 1.344 249.223 1.74C249.223 2.16 249.085 2.502 248.809 2.766C248.545 3.03 248.203 3.162 247.783 3.162C247.387 3.162 247.057 3.03 246.793 2.766C246.541 2.49 246.415 2.148 246.415 1.74ZM256.422 5.646H254.082V9.696C254.082 10.296 254.28 10.596 254.676 10.596C255.036 10.596 255.486 10.44 256.026 10.128L256.782 11.28C255.93 11.952 254.988 12.288 253.956 12.288C252.516 12.288 251.796 11.496 251.796 9.912V5.646H250.662V3.828H251.814V2.37C252.414 2.046 253.176 1.644 254.1 1.164V3.828H256.422V5.646ZM265.052 12H263.234L263.054 11.226C262.262 11.886 261.458 12.216 260.642 12.216C258.83 12.216 257.924 11.334 257.924 9.57C257.924 8.694 258.302 8.01 259.058 7.518C259.826 7.014 260.96 6.762 262.46 6.762H262.838V6.726C262.838 6.21 262.73 5.856 262.514 5.664C262.298 5.472 261.908 5.376 261.344 5.376C260.552 5.376 259.826 5.628 259.166 6.132C258.95 5.736 258.746 5.346 258.554 4.962C259.238 4.434 259.832 4.08 260.336 3.9C260.852 3.708 261.464 3.612 262.172 3.612C264.092 3.612 265.052 4.812 265.052 7.212V12ZM262.766 8.148H262.496C261.812 8.148 261.26 8.268 260.84 8.508C260.42 8.748 260.21 9.066 260.21 9.462C260.21 10.206 260.534 10.578 261.182 10.578C261.578 10.578 261.926 10.464 262.226 10.236C262.526 10.008 262.706 9.72 262.766 9.372V8.148ZM269.767 0.389999V12H267.499V1.578L269.767 0.389999ZM274.406 3.828V12H272.12V3.828H274.406ZM271.85 1.74C271.85 1.356 271.982 1.026 272.246 0.75C272.522 0.461999 272.846 0.317999 273.218 0.317999C273.614 0.317999 273.95 0.455999 274.226 0.731999C274.514 1.008 274.658 1.344 274.658 1.74C274.658 2.16 274.52 2.502 274.244 2.766C273.98 3.03 273.638 3.162 273.218 3.162C272.822 3.162 272.492 3.03 272.228 2.766C271.976 2.49 271.85 2.148 271.85 1.74ZM281.515 5.808C280.927 5.424 280.255 5.232 279.499 5.232C278.923 5.232 278.635 5.478 278.635 5.97C278.635 6.426 279.025 6.75 279.805 6.942C280.777 7.182 281.437 7.452 281.785 7.752C282.289 8.184 282.541 8.832 282.541 9.696C282.541 10.464 282.265 11.076 281.713 11.532C281.173 11.988 280.441 12.216 279.517 12.216C278.209 12.216 277.105 11.844 276.205 11.1L277.033 9.84C277.657 10.332 278.407 10.578 279.283 10.578C279.631 10.578 279.913 10.494 280.129 10.326C280.345 10.158 280.453 9.936 280.453 9.66C280.453 9.156 280.027 8.826 279.175 8.67C277.351 8.322 276.439 7.434 276.439 6.006C276.439 5.322 276.715 4.752 277.267 4.296C277.831 3.84 278.533 3.612 279.373 3.612C280.513 3.612 281.503 3.942 282.343 4.602L281.515 5.808ZM291.033 12H289.215L289.035 11.226C288.243 11.886 287.439 12.216 286.623 12.216C284.811 12.216 283.905 11.334 283.905 9.57C283.905 8.694 284.283 8.01 285.039 7.518C285.807 7.014 286.941 6.762 288.441 6.762H288.819V6.726C288.819 6.21 288.711 5.856 288.495 5.664C288.279 5.472 287.889 5.376 287.325 5.376C286.533 5.376 285.807 5.628 285.147 6.132C284.931 5.736 284.727 5.346 284.535 4.962C285.219 4.434 285.813 4.08 286.317 3.9C286.833 3.708 287.445 3.612 288.153 3.612C290.073 3.612 291.033 4.812 291.033 7.212V12ZM288.747 8.148H288.477C287.793 8.148 287.241 8.268 286.821 8.508C286.401 8.748 286.191 9.066 286.191 9.462C286.191 10.206 286.515 10.578 287.163 10.578C287.559 10.578 287.907 10.464 288.207 10.236C288.507 10.008 288.687 9.72 288.747 9.372V8.148ZM298.592 5.646H296.252V9.696C296.252 10.296 296.45 10.596 296.846 10.596C297.206 10.596 297.656 10.44 298.196 10.128L298.952 11.28C298.1 11.952 297.158 12.288 296.126 12.288C294.686 12.288 293.966 11.496 293.966 9.912V5.646H292.832V3.828H293.984V2.37C294.584 2.046 295.346 1.644 296.27 1.164V3.828H298.592V5.646ZM302.83 3.828V12H300.544V3.828H302.83ZM300.274 1.74C300.274 1.356 300.406 1.026 300.67 0.75C300.946 0.461999 301.27 0.317999 301.642 0.317999C302.038 0.317999 302.374 0.455999 302.65 0.731999C302.938 1.008 303.082 1.344 303.082 1.74C303.082 2.16 302.944 2.502 302.668 2.766C302.404 3.03 302.062 3.162 301.642 3.162C301.246 3.162 300.916 3.03 300.652 2.766C300.4 2.49 300.274 2.148 300.274 1.74ZM308.697 3.612C310.041 3.612 311.085 4.086 311.829 5.034C312.453 5.826 312.765 6.792 312.765 7.932C312.765 9.264 312.303 10.344 311.379 11.172C310.611 11.868 309.717 12.216 308.697 12.216C307.509 12.216 306.513 11.772 305.709 10.884C304.989 10.08 304.629 9.096 304.629 7.932C304.629 6.612 305.031 5.544 305.835 4.728C306.567 3.984 307.521 3.612 308.697 3.612ZM308.697 10.524C309.861 10.524 310.443 9.66 310.443 7.932C310.443 6.132 309.861 5.232 308.697 5.232C307.533 5.232 306.951 6.132 306.951 7.932C306.951 9.66 307.533 10.524 308.697 10.524ZM316.875 4.62C317.115 4.344 317.475 4.11 317.955 3.918C318.435 3.714 318.891 3.612 319.323 3.612C320.355 3.612 321.099 3.894 321.555 4.458C322.023 5.022 322.257 5.934 322.257 7.194V12H319.971V7.284C319.971 6.108 319.449 5.52 318.405 5.52C318.141 5.52 317.859 5.58 317.559 5.7C317.259 5.808 317.055 5.934 316.947 6.078V12H314.679V3.828H316.605C316.665 4.14 316.725 4.404 316.785 4.62H316.875ZM336.207 1.542C335.991 1.866 335.655 2.352 335.199 3C334.239 2.58 333.381 2.37 332.625 2.37C331.629 2.37 331.131 2.742 331.131 3.486C331.131 3.822 331.245 4.086 331.473 4.278C331.701 4.47 332.175 4.704 332.895 4.98C334.191 5.484 335.121 6.03 335.685 6.618C336.261 7.206 336.549 7.914 336.549 8.742C336.549 9.906 336.111 10.806 335.235 11.442C334.515 11.958 333.621 12.216 332.553 12.216C331.293 12.216 329.949 11.76 328.521 10.848L329.565 9.39C330.261 9.858 331.155 10.092 332.247 10.092C333.483 10.092 334.101 9.594 334.101 8.598C334.101 7.95 333.435 7.398 332.103 6.942C329.955 6.222 328.881 5.07 328.881 3.486C328.881 2.526 329.241 1.764 329.961 1.2C330.633 0.659999 331.527 0.389999 332.643 0.389999C333.915 0.389999 335.103 0.773999 336.207 1.542ZM345.173 12H343.355L343.175 11.226C342.383 11.886 341.579 12.216 340.763 12.216C338.951 12.216 338.045 11.334 338.045 9.57C338.045 8.694 338.423 8.01 339.179 7.518C339.947 7.014 341.081 6.762 342.581 6.762H342.959V6.726C342.959 6.21 342.851 5.856 342.635 5.664C342.419 5.472 342.029 5.376 341.465 5.376C340.673 5.376 339.947 5.628 339.287 6.132C339.071 5.736 338.867 5.346 338.675 4.962C339.359 4.434 339.953 4.08 340.457 3.9C340.973 3.708 341.585 3.612 342.293 3.612C344.213 3.612 345.173 4.812 345.173 7.212V12ZM342.887 8.148H342.617C341.933 8.148 341.381 8.268 340.961 8.508C340.541 8.748 340.331 9.066 340.331 9.462C340.331 10.206 340.655 10.578 341.303 10.578C341.699 10.578 342.047 10.464 342.347 10.236C342.647 10.008 342.827 9.72 342.887 9.372V8.148ZM351.616 12H349.852L346.666 3.828H348.952L350.698 9.228L352.552 3.828H354.928L354.586 4.674L354.19 5.646C353.074 8.406 352.216 10.524 351.616 12ZM358.623 3.828V12H356.337V3.828H358.623ZM356.067 1.74C356.067 1.356 356.199 1.026 356.463 0.75C356.739 0.461999 357.063 0.317999 357.435 0.317999C357.831 0.317999 358.167 0.455999 358.443 0.731999C358.731 1.008 358.875 1.344 358.875 1.74C358.875 2.16 358.737 2.502 358.461 2.766C358.197 3.03 357.855 3.162 357.435 3.162C357.039 3.162 356.709 3.03 356.445 2.766C356.193 2.49 356.067 2.148 356.067 1.74ZM363.158 4.62C363.398 4.344 363.758 4.11 364.238 3.918C364.718 3.714 365.174 3.612 365.606 3.612C366.638 3.612 367.382 3.894 367.838 4.458C368.306 5.022 368.54 5.934 368.54 7.194V12H366.254V7.284C366.254 6.108 365.732 5.52 364.688 5.52C364.424 5.52 364.142 5.58 363.842 5.7C363.542 5.808 363.338 5.934 363.23 6.078V12H360.962V3.828H362.888C362.948 4.14 363.008 4.404 363.068 4.62H363.158ZM376.078 11.01C375.538 11.814 374.776 12.216 373.792 12.216C372.592 12.216 371.662 11.79 371.002 10.938C370.438 10.218 370.156 9.306 370.156 8.202C370.156 6.63 370.612 5.418 371.524 4.566C372.22 3.93 373.042 3.612 373.99 3.612C374.746 3.612 375.388 3.798 375.916 4.17C376.264 4.41 376.438 4.59 376.438 4.71L376.618 3.828H378.364V11.154C378.364 12.534 378.022 13.596 377.338 14.34C376.666 15.072 375.706 15.438 374.458 15.438C373.162 15.438 372.04 15.006 371.092 14.142L371.668 12.99C372.4 13.47 373.222 13.71 374.134 13.71C375.43 13.71 376.078 12.81 376.078 11.01ZM376.078 6.6C376.03 6.228 375.844 5.91 375.52 5.646C375.208 5.37 374.86 5.232 374.476 5.232C373.876 5.232 373.396 5.472 373.036 5.952C372.676 6.432 372.496 7.08 372.496 7.896C372.496 9.684 373.084 10.578 374.26 10.578C374.752 10.578 375.178 10.392 375.538 10.02C375.898 9.636 376.078 9.186 376.078 8.67V6.6Z" fill="white"/>
<circle cx="441" cy="59" r="15" fill="url(#paint5_linear_1514_29)"/>
<circle cx="343" cy="66" r="10" fill="url(#paint6_linear_1514_29)"/>
<line x1="352.966" y1="63.5012" x2="425.966" y2="58.5012" stroke="white" stroke-opacity="0.5"/>
<circle cx="243.5" cy="73.5" r="7.5" fill="url(#paint7_linear_1514_29)"/>
<line x1="249.97" y1="73.5009" x2="333.97" y2="68.5009" stroke="white" stroke-opacity="0.5"/>
<circle cx="139" cy="84" r="5" fill="url(#paint8_linear_1514_29)"/>
<line x1="143.956" y1="83.5019" x2="234.956" y2="75.5019" stroke="white" stroke-opacity="0.5"/>
<defs>
<linearGradient id="paint0_linear_1514_29" x1="586" y1="155" x2="0" y2="155" gradientUnits="userSpaceOnUse">
<stop stop-color="#3AFF36"/>
<stop offset="0.473958" stop-color="#005308"/>
<stop offset="1" stop-color="#56FF7B"/>
</linearGradient>
<linearGradient id="paint1_linear_1514_29" x1="60.5" y1="129" x2="229" y2="129" gradientUnits="userSpaceOnUse">
<stop stop-color="#373636"/>
<stop offset="1" stop-color="#5D5F69"/>
</linearGradient>
<linearGradient id="paint2_linear_1514_29" x1="160.5" y1="129" x2="329" y2="129" gradientUnits="userSpaceOnUse">
<stop stop-color="#373636"/>
<stop offset="1" stop-color="#5D5F69"/>
</linearGradient>
<linearGradient id="paint3_linear_1514_29" x1="260.5" y1="129" x2="429" y2="129" gradientUnits="userSpaceOnUse">
<stop stop-color="#373636"/>
<stop offset="1" stop-color="#5D5F69"/>
</linearGradient>
<linearGradient id="paint4_linear_1514_29" x1="360.5" y1="129" x2="529" y2="129" gradientUnits="userSpaceOnUse">
<stop stop-color="#373636"/>
<stop offset="1" stop-color="#5D5F69"/>
</linearGradient>
<linearGradient id="paint5_linear_1514_29" x1="456" y1="53" x2="426" y2="68" gradientUnits="userSpaceOnUse">
<stop stop-color="#489750"/>
<stop offset="0.307292" stop-color="#1B5F22"/>
<stop offset="0.708333" stop-color="#41EE53"/>
<stop offset="0.901042" stop-color="#058011"/>
</linearGradient>
<linearGradient id="paint6_linear_1514_29" x1="353" y1="62" x2="333" y2="72" gradientUnits="userSpaceOnUse">
<stop stop-color="#18531E"/>
<stop offset="0.901042" stop-color="#00FF19"/>
</linearGradient>
<linearGradient id="paint7_linear_1514_29" x1="251" y1="74" x2="234.5" y2="74" gradientUnits="userSpaceOnUse">
<stop stop-color="#18531E"/>
<stop offset="0.34375" stop-color="#02EF1A"/>
<stop offset="0.625" stop-color="#00FF19"/>
<stop offset="0.96875" stop-color="#0D5414"/>
</linearGradient>
<linearGradient id="paint8_linear_1514_29" x1="139" y1="79" x2="138.5" y2="90.5" gradientUnits="userSpaceOnUse">
<stop stop-color="#18531E"/>
<stop offset="0.901042" stop-color="#00FF19"/>
</linearGradient>
</defs>
</svg>
