<svg width="248" height="402" viewBox="0 0 248 402" fill="none" xmlns="http://www.w3.org/2000/svg">
  <g clip-path="url(#clip0_913_2039)">
  <g opacity="0.273">
  <path d="M117.057 91.5049L156.063 68.7715L194.981 89.8646V135.284L156.063 157.762L117.057 135.284V91.5049Z" stroke="#DD4D9B" stroke-width="0.890567"/>
  <path d="M194.982 90.6142L233.989 67.8809L272.907 88.974V134.393L233.989 156.871L194.982 134.393V90.6142Z" stroke="#DD4D9B" stroke-width="0.890567"/>
  <path d="M156.227 24.5791L195.233 1.8457L234.151 22.9388V68.3577L195.233 90.8363L156.227 68.3577V24.5791Z" stroke="#DD4D9B" stroke-width="0.890567"/>
  <path d="M233.943 23.2431L272.95 0.509766L311.868 21.6029V67.0218L272.95 89.5004L233.943 67.0218V23.2431Z" stroke="#DD4D9B" stroke-width="0.890567"/>
  <path d="M233.262 156.763L272.268 134.029L311.186 155.122V200.541L272.268 223.02L233.262 200.541V156.763Z" stroke="#DD4D9B" stroke-width="0.890567"/>
  <path d="M155.338 157.653L194.345 134.92L233.262 156.013V201.432L194.345 223.911L155.338 201.432V157.653Z" stroke="#DD4D9B" stroke-width="0.890567"/>
  <path d="M77.1895 158.544L116.196 135.811L155.114 156.904V202.323L116.196 224.801L77.1895 202.323V158.544Z" stroke="#DD4D9B" stroke-width="0.890567"/>
  <path d="M38.8945 92.1963L77.9012 69.4629L116.819 90.556V135.975L77.9012 158.453L38.8945 135.975V92.1963Z" stroke="#DD4D9B" stroke-width="0.890567"/>
  <path d="M78.0801 24.5791L117.087 1.8457L156.005 22.9388V68.3577L117.087 90.8363L78.0801 68.3577V24.5791Z" stroke="#DD4D9B" stroke-width="0.890567"/>
  <path d="M156.449 72.1344C158.17 72.1344 159.566 70.7388 159.566 69.0174C159.566 67.2959 158.17 65.9004 156.449 65.9004C154.728 65.9004 153.332 67.2959 153.332 69.0174C153.332 70.7388 154.728 72.1344 156.449 72.1344Z" fill="#DD389A"/>
  <path d="M155.558 160.3C157.28 160.3 158.675 158.905 158.675 157.183C158.675 155.462 157.28 154.066 155.558 154.066C153.837 154.066 152.441 155.462 152.441 157.183C152.441 158.905 153.837 160.3 155.558 160.3Z" fill="#DD389A"/>
  <path d="M117.263 138.037C118.985 138.037 120.38 136.641 120.38 134.92C120.38 133.198 118.985 131.803 117.263 131.803C115.542 131.803 114.146 133.198 114.146 134.92C114.146 136.641 115.542 138.037 117.263 138.037Z" fill="#DD389A"/>
  <path d="M194.744 138.037C196.465 138.037 197.861 136.641 197.861 134.92C197.861 133.198 196.465 131.803 194.744 131.803C193.022 131.803 191.627 133.198 191.627 134.92C191.627 136.641 193.022 138.037 194.744 138.037Z" fill="#DD389A"/>
  <path d="M194.744 92.6168C196.465 92.6168 197.861 91.2213 197.861 89.4998C197.861 87.7783 196.465 86.3828 194.744 86.3828C193.022 86.3828 191.627 87.7783 191.627 89.4998C191.627 91.2213 193.022 92.6168 194.744 92.6168Z" fill="#DD389A"/>
  <path d="M233.929 159.41C235.651 159.41 237.046 158.014 237.046 156.293C237.046 154.571 235.651 153.176 233.929 153.176C232.208 153.176 230.812 154.571 230.812 156.293C230.812 158.014 232.208 159.41 233.929 159.41Z" fill="#DD389A"/>
  <path d="M233.929 203.939C235.651 203.939 237.046 202.544 237.046 200.822C237.046 199.101 235.651 197.705 233.929 197.705C232.208 197.705 230.812 199.101 230.812 200.822C230.812 202.544 232.208 203.939 233.929 203.939Z" fill="#DD389A"/>
  <path d="M233.929 71.2437C235.651 71.2437 237.046 69.8482 237.046 68.1267C237.046 66.4053 235.651 65.0098 233.929 65.0098C232.208 65.0098 230.812 66.4053 230.812 68.1267C230.812 69.8482 232.208 71.2437 233.929 71.2437Z" fill="#DD389A"/>
  <path d="M78.0799 72.1344C79.8013 72.1344 81.1969 70.7388 81.1969 69.0174C81.1969 67.2959 79.8013 65.9004 78.0799 65.9004C76.3584 65.9004 74.9629 67.2959 74.9629 69.0174C74.9629 70.7388 76.3584 72.1344 78.0799 72.1344Z" fill="#DD389A"/>
  <path d="M77.1892 160.3C78.9107 160.3 80.3062 158.905 80.3062 157.183C80.3062 155.462 78.9107 154.066 77.1892 154.066C75.4678 154.066 74.0723 155.462 74.0723 157.183C74.0723 158.905 75.4678 160.3 77.1892 160.3Z" fill="#DD389A"/>
  <path d="M233.929 25.8258C235.651 25.8258 237.046 24.4302 237.046 22.7088C237.046 20.9873 235.651 19.5918 233.929 19.5918C232.208 19.5918 230.812 20.9873 230.812 22.7088C230.812 24.4302 232.208 25.8258 233.929 25.8258Z" fill="#DD389A"/>
  <path d="M155.558 205.72C157.28 205.72 158.675 204.325 158.675 202.603C158.675 200.882 157.28 199.486 155.558 199.486C153.837 199.486 152.441 200.882 152.441 202.603C152.441 204.325 153.837 205.72 155.558 205.72Z" fill="#DD389A"/>
  </g>
  <g opacity="0.304">
  <path d="M78.6074 267.706L117.614 244.973L156.532 266.066V311.485L117.614 333.963L78.6074 311.485V267.706Z" stroke="#DD4D9B" stroke-width="0.890567"/>
  <path d="M156.533 266.815L195.54 244.082L234.458 265.175V310.594L195.54 333.073L156.533 310.594V266.815Z" stroke="#DD4D9B" stroke-width="0.890567"/>
  <path d="M117.777 200.78L156.784 178.047L195.702 199.14V244.559L156.784 267.037L117.777 244.559V200.78Z" stroke="#DD4D9B" stroke-width="0.890567"/>
  <path d="M195.494 199.444L234.501 176.711L273.419 197.804V243.223L234.501 265.702L195.494 243.223V199.444Z" stroke="#DD4D9B" stroke-width="0.890567"/>
  <path d="M234.219 265.726L273.225 242.992L312.143 264.085V309.504L273.225 331.983L234.219 309.504V265.726Z" stroke="#DD4D9B" stroke-width="0.890567"/>
  <path d="M194.812 332.964L233.819 310.23L272.737 331.324V376.743L233.819 399.221L194.812 376.743V332.964Z" stroke="#DD4D9B" stroke-width="0.890567"/>
  <path d="M116.889 333.854L155.895 311.121L194.813 332.214V377.633L155.895 400.112L116.889 377.633V333.854Z" stroke="#DD4D9B" stroke-width="0.890567"/>
  <path d="M38.7402 334.745L77.7469 312.012L116.665 333.105V378.524L77.7469 401.002L38.7402 378.524V334.745Z" stroke="#DD4D9B" stroke-width="0.890567"/>
  <path d="M0.445312 268.397L39.452 245.664L78.3699 266.757V312.176L39.452 334.655L0.445312 312.176V268.397Z" stroke="#DD4D9B" stroke-width="0.890567"/>
  <path d="M39.6309 200.78L78.6375 178.047L117.555 199.14V244.559L78.6375 267.037L39.6309 244.559V200.78Z" stroke="#DD4D9B" stroke-width="0.890567"/>
  <path d="M118 248.336C119.721 248.336 121.117 246.94 121.117 245.219C121.117 243.497 119.721 242.102 118 242.102C116.278 242.102 114.883 243.497 114.883 245.219C114.883 246.94 116.278 248.336 118 248.336Z" fill="#DD389A"/>
  <path d="M117.109 336.502C118.831 336.502 120.226 335.106 120.226 333.385C120.226 331.663 118.831 330.268 117.109 330.268C115.388 330.268 113.992 331.663 113.992 333.385C113.992 335.106 115.388 336.502 117.109 336.502Z" fill="#DD389A"/>
  <path d="M78.8142 314.238C80.5357 314.238 81.9312 312.842 81.9312 311.121C81.9312 309.399 80.5357 308.004 78.8142 308.004C77.0928 308.004 75.6973 309.399 75.6973 311.121C75.6973 312.842 77.0928 314.238 78.8142 314.238Z" fill="#DD389A"/>
  <path d="M156.295 314.238C158.016 314.238 159.412 312.842 159.412 311.121C159.412 309.399 158.016 308.004 156.295 308.004C154.573 308.004 153.178 309.399 153.178 311.121C153.178 312.842 154.573 314.238 156.295 314.238Z" fill="#DD389A"/>
  <path d="M156.295 268.818C158.016 268.818 159.412 267.422 159.412 265.701C159.412 263.98 158.016 262.584 156.295 262.584C154.573 262.584 153.178 263.98 153.178 265.701C153.178 267.422 154.573 268.818 156.295 268.818Z" fill="#DD389A"/>
  <path d="M195.48 335.611C197.202 335.611 198.597 334.215 198.597 332.494C198.597 330.772 197.202 329.377 195.48 329.377C193.759 329.377 192.363 330.772 192.363 332.494C192.363 334.215 193.759 335.611 195.48 335.611Z" fill="#DD389A"/>
  <path d="M234.664 314.238C236.385 314.238 237.781 312.842 237.781 311.121C237.781 309.399 236.385 308.004 234.664 308.004C232.942 308.004 231.547 309.399 231.547 311.121C231.547 312.842 232.942 314.238 234.664 314.238Z" fill="#DD389A"/>
  <path d="M195.48 380.14C197.202 380.14 198.597 378.745 198.597 377.023C198.597 375.302 197.202 373.906 195.48 373.906C193.759 373.906 192.363 375.302 192.363 377.023C192.363 378.745 193.759 380.14 195.48 380.14Z" fill="#DD389A"/>
  <path d="M233.773 267.037C235.495 267.037 236.89 265.641 236.89 263.92C236.89 262.198 235.495 260.803 233.773 260.803C232.052 260.803 230.656 262.198 230.656 263.92C230.656 265.641 232.052 267.037 233.773 267.037Z" fill="#DD389A"/>
  <path d="M195.48 247.445C197.202 247.445 198.597 246.049 198.597 244.328C198.597 242.606 197.202 241.211 195.48 241.211C193.759 241.211 192.363 242.606 192.363 244.328C192.363 246.049 193.759 247.445 195.48 247.445Z" fill="#DD389A"/>
  <path d="M39.6307 248.336C41.3521 248.336 42.7476 246.94 42.7476 245.219C42.7476 243.497 41.3521 242.102 39.6307 242.102C37.9092 242.102 36.5137 243.497 36.5137 245.219C36.5137 246.94 37.9092 248.336 39.6307 248.336Z" fill="#DD389A"/>
  <path d="M38.74 336.502C40.4615 336.502 41.857 335.106 41.857 333.385C41.857 331.663 40.4615 330.268 38.74 330.268C37.0186 330.268 35.623 331.663 35.623 333.385C35.623 335.106 37.0186 336.502 38.74 336.502Z" fill="#DD389A"/>
  <path d="M195.48 202.027C197.202 202.027 198.597 200.631 198.597 198.91C198.597 197.188 197.202 195.793 195.48 195.793C193.759 195.793 192.363 197.188 192.363 198.91C192.363 200.631 193.759 202.027 195.48 202.027Z" fill="#DD389A"/>
  <path d="M117.109 381.921C118.831 381.921 120.226 380.526 120.226 378.804C120.226 377.083 118.831 375.688 117.109 375.688C115.388 375.688 113.992 377.083 113.992 378.804C113.992 380.526 115.388 381.921 117.109 381.921Z" fill="#DD389A"/>
  </g>
  </g>
  <defs>
  <clipPath id="clip0_913_2039">
  <rect width="389.999" height="401.516" fill="white"/>
  </clipPath>
  </defs>
  </svg>
  