<svg width="587" height="249" viewBox="0 0 587 249" fill="none" xmlns="http://www.w3.org/2000/svg">
<rect x="1" width="586" height="249" fill="url(#paint0_linear_1457_318)" fill-opacity="0.92"/>
<path d="M1 166H587V172H1V166Z" fill="url(#paint1_linear_1457_318)" fill-opacity="0.7"/>
<path d="M257.44 23V11.624C257.608 11.588 258.082 11.54 258.862 11.48C259.642 11.42 260.236 11.39 260.644 11.39C263.548 11.39 265 12.578 265 14.954C265 16.43 264.496 17.51 263.488 18.194C262.816 18.662 262.024 18.896 261.112 18.896C260.392 18.896 259.954 18.848 259.798 18.752V23H257.44ZM259.798 13.406V16.844C260.11 16.964 260.5 17.024 260.968 17.024C261.448 17.024 261.826 16.856 262.102 16.52C262.378 16.172 262.516 15.698 262.516 15.098C262.516 13.886 261.982 13.28 260.914 13.28C260.302 13.28 259.93 13.322 259.798 13.406ZM267.161 23V11.624C267.329 11.588 267.803 11.54 268.583 11.48C269.363 11.42 269.957 11.39 270.365 11.39C273.269 11.39 274.721 12.578 274.721 14.954C274.721 16.238 274.199 17.33 273.155 18.23C273.587 19.226 274.325 20.816 275.369 23H272.993C272.405 21.716 271.769 20.336 271.085 18.86C270.953 18.884 270.773 18.896 270.545 18.896C270.017 18.896 269.675 18.848 269.519 18.752V23H267.161ZM269.519 13.406V16.844C269.879 16.952 270.269 17.006 270.689 17.006C271.721 17.006 272.237 16.322 272.237 14.954C272.237 13.838 271.703 13.28 270.635 13.28C270.023 13.28 269.651 13.322 269.519 13.406ZM281.064 11.39C282.816 11.39 284.166 12.086 285.114 13.478C285.858 14.57 286.23 15.89 286.23 17.438C286.23 19.214 285.744 20.636 284.772 21.704C283.848 22.712 282.612 23.216 281.064 23.216C279.288 23.216 277.938 22.568 277.014 21.272C276.27 20.252 275.898 18.974 275.898 17.438C275.898 15.638 276.384 14.168 277.356 13.028C278.28 11.936 279.516 11.39 281.064 11.39ZM281.064 21.236C281.928 21.236 282.594 20.912 283.062 20.264C283.53 19.604 283.764 18.662 283.764 17.438C283.764 16.13 283.506 15.11 282.99 14.378C282.51 13.73 281.868 13.406 281.064 13.406C280.2 13.406 279.528 13.76 279.048 14.468C278.58 15.176 278.346 16.166 278.346 17.438C278.346 19.97 279.252 21.236 281.064 21.236ZM290.357 11.606V23.45C290.357 25.166 289.535 26.024 287.891 26.024C286.931 26.024 286.049 25.718 285.245 25.106L286.037 23.81C286.517 24.122 286.979 24.278 287.423 24.278C287.831 24.278 288.035 23.96 288.035 23.324V11.606H290.357ZM292.941 11.606H300.393V13.496H295.299V16.178H299.547V18.068H295.299V21.11H300.627V23H292.941V11.606ZM310.471 21.722C309.475 22.718 308.305 23.216 306.961 23.216C305.029 23.216 303.589 22.496 302.641 21.056C301.957 20.024 301.615 18.812 301.615 17.42C301.615 15.608 302.083 14.15 303.019 13.046C303.943 11.942 305.227 11.39 306.871 11.39C308.023 11.39 309.175 11.876 310.327 12.848L309.409 14.342C308.545 13.718 307.759 13.406 307.051 13.406C306.067 13.406 305.305 13.82 304.765 14.648C304.297 15.356 304.063 16.28 304.063 17.42C304.063 18.428 304.339 19.292 304.891 20.012C305.479 20.768 306.265 21.146 307.249 21.146C307.897 21.146 308.665 20.864 309.553 20.3L310.471 21.722ZM314.759 13.496H311.465V11.606H320.681V13.496H317.135V23H314.759V13.496ZM329.447 12.542C329.231 12.866 328.895 13.352 328.439 14C327.479 13.58 326.621 13.37 325.865 13.37C324.869 13.37 324.371 13.742 324.371 14.486C324.371 14.822 324.485 15.086 324.713 15.278C324.941 15.47 325.415 15.704 326.135 15.98C327.431 16.484 328.361 17.03 328.925 17.618C329.501 18.206 329.789 18.914 329.789 19.742C329.789 20.906 329.351 21.806 328.475 22.442C327.755 22.958 326.861 23.216 325.793 23.216C324.533 23.216 323.189 22.76 321.761 21.848L322.805 20.39C323.501 20.858 324.395 21.092 325.487 21.092C326.723 21.092 327.341 20.594 327.341 19.598C327.341 18.95 326.675 18.398 325.343 17.942C323.195 17.222 322.121 16.07 322.121 14.486C322.121 13.526 322.481 12.764 323.201 12.2C323.873 11.66 324.767 11.39 325.883 11.39C327.155 11.39 328.343 11.774 329.447 12.542Z" fill="white"/>
<circle cx="437.5" cy="62.5" r="2.5" fill="#D9D9D9"/>
<circle cx="342.5" cy="73.5" r="2.5" fill="#D9D9D9"/>
<circle cx="241.5" cy="82.5" r="2.5" fill="#D9D9D9"/>
<g filter="url(#filter0_d_1457_318)">
<path d="M342.5 72L356.789 114H328.211L342.5 72Z" fill="url(#paint2_linear_1457_318)" shape-rendering="crispEdges"/>
</g>
<path d="M344.5 78L362.508 114.024L355.51 114.018L344.5 78Z" fill="#9E63BA"/>
<g filter="url(#filter1_d_1457_318)">
<path d="M241.5 81L255.789 114H227.211L241.5 81Z" fill="url(#paint3_linear_1457_318)" shape-rendering="crispEdges"/>
</g>
<path d="M243.5 85.714L261.508 114.019L254.51 114.014L243.5 85.714Z" fill="#89D1E0"/>
<path d="M134.6 48V47.208L136.724 44.88C137.244 44.304 137.608 43.832 137.816 43.464C138.024 43.088 138.128 42.712 138.128 42.336C138.128 41.944 137.992 41.628 137.72 41.388C137.456 41.148 137.104 41.028 136.664 41.028C136.136 41.028 135.616 41.196 135.104 41.532L134.732 41.004C135.396 40.5 136.108 40.248 136.868 40.248C137.54 40.248 138.084 40.46 138.5 40.884C138.884 41.268 139.076 41.752 139.076 42.336C139.076 42.76 138.96 43.176 138.728 43.584C138.504 43.984 138.08 44.532 137.456 45.228L135.644 47.244H138.932V48H134.6ZM145.79 44.22C145.79 45.476 145.514 46.464 144.962 47.184C144.482 47.824 143.85 48.144 143.066 48.144C142.162 48.144 141.462 47.732 140.966 46.908C140.55 46.204 140.342 45.308 140.342 44.22C140.342 43.004 140.618 42.024 141.17 41.28C141.666 40.6 142.298 40.26 143.066 40.26C143.938 40.26 144.63 40.692 145.142 41.556C145.574 42.284 145.79 43.172 145.79 44.22ZM143.054 41.028C142.502 41.028 142.07 41.304 141.758 41.856C141.446 42.408 141.29 43.172 141.29 44.148C141.29 45.188 141.458 45.996 141.794 46.572C142.106 47.1 142.526 47.364 143.054 47.364C143.606 47.364 144.042 47.08 144.362 46.512C144.682 45.936 144.842 45.148 144.842 44.148C144.842 43.124 144.666 42.336 144.314 41.784C144.002 41.28 143.582 41.028 143.054 41.028ZM146.987 48V47.208L149.111 44.88C149.631 44.304 149.995 43.832 150.203 43.464C150.411 43.088 150.515 42.712 150.515 42.336C150.515 41.944 150.379 41.628 150.107 41.388C149.843 41.148 149.491 41.028 149.051 41.028C148.523 41.028 148.003 41.196 147.491 41.532L147.119 41.004C147.783 40.5 148.495 40.248 149.255 40.248C149.927 40.248 150.471 40.46 150.887 40.884C151.271 41.268 151.463 41.752 151.463 42.336C151.463 42.76 151.347 43.176 151.115 43.584C150.891 43.984 150.467 44.532 149.843 45.228L148.031 47.244H151.319V48H146.987ZM153.172 41.544L152.812 41.016C153.38 40.512 154.06 40.26 154.852 40.26C155.5 40.26 156.036 40.452 156.46 40.836C156.852 41.196 157.048 41.656 157.048 42.216C157.048 42.616 156.928 42.972 156.688 43.284C156.448 43.588 156.132 43.788 155.74 43.884C156.244 44.004 156.64 44.236 156.928 44.58C157.216 44.924 157.36 45.34 157.36 45.828C157.36 46.636 157.056 47.252 156.448 47.676C156 47.98 155.472 48.132 154.864 48.132C154.096 48.132 153.38 47.868 152.716 47.34L153.1 46.824C153.604 47.176 154.156 47.352 154.756 47.352C155.252 47.352 155.652 47.212 155.956 46.932C156.26 46.652 156.412 46.28 156.412 45.816C156.412 44.832 155.824 44.34 154.648 44.34H153.664V43.584H154.648C155.096 43.584 155.448 43.468 155.704 43.236C155.968 43.004 156.1 42.684 156.1 42.276C156.1 41.436 155.632 41.016 154.696 41.016C154.208 41.016 153.7 41.192 153.172 41.544Z" fill="white"/>
<path d="M428.6 48V47.208L430.724 44.88C431.244 44.304 431.608 43.832 431.816 43.464C432.024 43.088 432.128 42.712 432.128 42.336C432.128 41.944 431.992 41.628 431.72 41.388C431.456 41.148 431.104 41.028 430.664 41.028C430.136 41.028 429.616 41.196 429.104 41.532L428.732 41.004C429.396 40.5 430.108 40.248 430.868 40.248C431.54 40.248 432.084 40.46 432.5 40.884C432.884 41.268 433.076 41.752 433.076 42.336C433.076 42.76 432.96 43.176 432.728 43.584C432.504 43.984 432.08 44.532 431.456 45.228L429.644 47.244H432.932V48H428.6ZM439.79 44.22C439.79 45.476 439.514 46.464 438.962 47.184C438.482 47.824 437.85 48.144 437.066 48.144C436.162 48.144 435.462 47.732 434.966 46.908C434.55 46.204 434.342 45.308 434.342 44.22C434.342 43.004 434.618 42.024 435.17 41.28C435.666 40.6 436.298 40.26 437.066 40.26C437.938 40.26 438.63 40.692 439.142 41.556C439.574 42.284 439.79 43.172 439.79 44.22ZM437.054 41.028C436.502 41.028 436.07 41.304 435.758 41.856C435.446 42.408 435.29 43.172 435.29 44.148C435.29 45.188 435.458 45.996 435.794 46.572C436.106 47.1 436.526 47.364 437.054 47.364C437.606 47.364 438.042 47.08 438.362 46.512C438.682 45.936 438.842 45.148 438.842 44.148C438.842 43.124 438.666 42.336 438.314 41.784C438.002 41.28 437.582 41.028 437.054 41.028ZM440.987 48V47.208L443.111 44.88C443.631 44.304 443.995 43.832 444.203 43.464C444.411 43.088 444.515 42.712 444.515 42.336C444.515 41.944 444.379 41.628 444.107 41.388C443.843 41.148 443.491 41.028 443.051 41.028C442.523 41.028 442.003 41.196 441.491 41.532L441.119 41.004C441.783 40.5 442.495 40.248 443.255 40.248C443.927 40.248 444.471 40.46 444.887 40.884C445.271 41.268 445.463 41.752 445.463 42.336C445.463 42.76 445.347 43.176 445.115 43.584C444.891 43.984 444.467 44.532 443.843 45.228L442.031 47.244H445.319V48H440.987ZM451.408 40.86L451.096 41.364C450.672 41.14 450.212 41.028 449.716 41.028C449.18 41.028 448.744 41.272 448.408 41.76C448.072 42.248 447.888 42.904 447.856 43.728C448.288 43.28 448.804 43.056 449.404 43.056C450.044 43.056 450.576 43.264 451 43.68C451.464 44.128 451.696 44.756 451.696 45.564C451.696 46.284 451.464 46.9 451 47.412C450.568 47.9 450.024 48.144 449.368 48.144C448.488 48.144 447.832 47.724 447.4 46.884C447.064 46.236 446.896 45.432 446.896 44.472C446.896 43.112 447.176 42.048 447.736 41.28C448.232 40.6 448.876 40.26 449.668 40.26C450.324 40.26 450.904 40.46 451.408 40.86ZM447.808 44.556C447.816 45.476 447.968 46.192 448.264 46.704C448.536 47.16 448.9 47.388 449.356 47.388C449.772 47.388 450.108 47.224 450.364 46.896C450.62 46.56 450.748 46.116 450.748 45.564C450.748 44.988 450.616 44.544 450.352 44.232C450.088 43.92 449.72 43.764 449.248 43.764C448.648 43.764 448.168 44.028 447.808 44.556Z" fill="white"/>
<path d="M331.6 47V46.208L333.724 43.88C334.244 43.304 334.608 42.832 334.816 42.464C335.024 42.088 335.128 41.712 335.128 41.336C335.128 40.944 334.992 40.628 334.72 40.388C334.456 40.148 334.104 40.028 333.664 40.028C333.136 40.028 332.616 40.196 332.104 40.532L331.732 40.004C332.396 39.5 333.108 39.248 333.868 39.248C334.54 39.248 335.084 39.46 335.5 39.884C335.884 40.268 336.076 40.752 336.076 41.336C336.076 41.76 335.96 42.176 335.728 42.584C335.504 42.984 335.08 43.532 334.456 44.228L332.644 46.244H335.932V47H331.6ZM342.79 43.22C342.79 44.476 342.514 45.464 341.962 46.184C341.482 46.824 340.85 47.144 340.066 47.144C339.162 47.144 338.462 46.732 337.966 45.908C337.55 45.204 337.342 44.308 337.342 43.22C337.342 42.004 337.618 41.024 338.17 40.28C338.666 39.6 339.298 39.26 340.066 39.26C340.938 39.26 341.63 39.692 342.142 40.556C342.574 41.284 342.79 42.172 342.79 43.22ZM340.054 40.028C339.502 40.028 339.07 40.304 338.758 40.856C338.446 41.408 338.29 42.172 338.29 43.148C338.29 44.188 338.458 44.996 338.794 45.572C339.106 46.1 339.526 46.364 340.054 46.364C340.606 46.364 341.042 46.08 341.362 45.512C341.682 44.936 341.842 44.148 341.842 43.148C341.842 42.124 341.666 41.336 341.314 40.784C341.002 40.28 340.582 40.028 340.054 40.028ZM343.987 47V46.208L346.111 43.88C346.631 43.304 346.995 42.832 347.203 42.464C347.411 42.088 347.515 41.712 347.515 41.336C347.515 40.944 347.379 40.628 347.107 40.388C346.843 40.148 346.491 40.028 346.051 40.028C345.523 40.028 345.003 40.196 344.491 40.532L344.119 40.004C344.783 39.5 345.495 39.248 346.255 39.248C346.927 39.248 347.471 39.46 347.887 39.884C348.271 40.268 348.463 40.752 348.463 41.336C348.463 41.76 348.347 42.176 348.115 42.584C347.891 42.984 347.467 43.532 346.843 44.228L345.031 46.244H348.319V47H343.987ZM354.072 40.16H351.168V42.296C351.408 42.256 351.688 42.236 352.008 42.236C352.816 42.236 353.456 42.46 353.928 42.908C354.368 43.332 354.588 43.904 354.588 44.624C354.588 45.416 354.304 46.056 353.736 46.544C353.272 46.944 352.72 47.144 352.08 47.144C351.24 47.144 350.512 46.88 349.896 46.352L350.244 45.836C350.748 46.18 351.296 46.352 351.888 46.352C352.44 46.352 352.872 46.204 353.184 45.908C353.496 45.604 353.652 45.18 353.652 44.636C353.652 44.1 353.484 43.684 353.148 43.388C352.812 43.092 352.344 42.944 351.744 42.944C351.344 42.944 350.856 42.996 350.28 43.1V39.404H354.072V40.16Z" fill="white"/>
<path d="M232.6 48V47.208L234.724 44.88C235.244 44.304 235.608 43.832 235.816 43.464C236.024 43.088 236.128 42.712 236.128 42.336C236.128 41.944 235.992 41.628 235.72 41.388C235.456 41.148 235.104 41.028 234.664 41.028C234.136 41.028 233.616 41.196 233.104 41.532L232.732 41.004C233.396 40.5 234.108 40.248 234.868 40.248C235.54 40.248 236.084 40.46 236.5 40.884C236.884 41.268 237.076 41.752 237.076 42.336C237.076 42.76 236.96 43.176 236.728 43.584C236.504 43.984 236.08 44.532 235.456 45.228L233.644 47.244H236.932V48H232.6ZM243.79 44.22C243.79 45.476 243.514 46.464 242.962 47.184C242.482 47.824 241.85 48.144 241.066 48.144C240.162 48.144 239.462 47.732 238.966 46.908C238.55 46.204 238.342 45.308 238.342 44.22C238.342 43.004 238.618 42.024 239.17 41.28C239.666 40.6 240.298 40.26 241.066 40.26C241.938 40.26 242.63 40.692 243.142 41.556C243.574 42.284 243.79 43.172 243.79 44.22ZM241.054 41.028C240.502 41.028 240.07 41.304 239.758 41.856C239.446 42.408 239.29 43.172 239.29 44.148C239.29 45.188 239.458 45.996 239.794 46.572C240.106 47.1 240.526 47.364 241.054 47.364C241.606 47.364 242.042 47.08 242.362 46.512C242.682 45.936 242.842 45.148 242.842 44.148C242.842 43.124 242.666 42.336 242.314 41.784C242.002 41.28 241.582 41.028 241.054 41.028ZM244.987 48V47.208L247.111 44.88C247.631 44.304 247.995 43.832 248.203 43.464C248.411 43.088 248.515 42.712 248.515 42.336C248.515 41.944 248.379 41.628 248.107 41.388C247.843 41.148 247.491 41.028 247.051 41.028C246.523 41.028 246.003 41.196 245.491 41.532L245.119 41.004C245.783 40.5 246.495 40.248 247.255 40.248C247.927 40.248 248.471 40.46 248.887 40.884C249.271 41.268 249.463 41.752 249.463 42.336C249.463 42.76 249.347 43.176 249.115 43.584C248.891 43.984 248.467 44.532 247.843 45.228L246.031 47.244H249.319V48H244.987ZM250.572 45.624L253.98 40.404H254.916V45.624H256.308V46.38H254.916V48H254.04V46.38H250.572V45.624ZM251.46 45.624H254.04V41.628L251.46 45.624Z" fill="white"/>
<rect x="94" y="114" width="100" height="52" fill="url(#paint4_linear_1457_318)"/>
<rect x="194" y="114" width="100" height="52" fill="url(#paint5_linear_1457_318)"/>
<rect x="294" y="114" width="100" height="52" fill="url(#paint6_linear_1457_318)"/>
<rect x="394" y="114" width="100" height="52" fill="url(#paint7_linear_1457_318)"/>
<path d="M126.8 154V147.68C126.893 147.66 127.157 147.633 127.59 147.6C128.023 147.567 128.353 147.55 128.58 147.55C130.193 147.55 131 148.21 131 149.53C131 150.35 130.72 150.95 130.16 151.33C129.787 151.59 129.347 151.72 128.84 151.72C128.44 151.72 128.197 151.693 128.11 151.64V154H126.8ZM128.11 148.67V150.58C128.283 150.647 128.5 150.68 128.76 150.68C129.027 150.68 129.237 150.587 129.39 150.4C129.543 150.207 129.62 149.943 129.62 149.61C129.62 148.937 129.323 148.6 128.73 148.6C128.39 148.6 128.183 148.623 128.11 148.67ZM133.15 149.46L133.27 149.86C133.337 149.72 133.464 149.6 133.65 149.5C133.844 149.393 134.04 149.34 134.24 149.34C134.84 149.34 135.287 149.623 135.58 150.19L134.52 150.77C134.3 150.517 134.067 150.39 133.82 150.39C133.594 150.39 133.427 150.507 133.32 150.74V154H132.08V149.46H133.15ZM137.956 149.34C138.703 149.34 139.283 149.603 139.696 150.13C140.043 150.57 140.216 151.107 140.216 151.74C140.216 152.48 139.96 153.08 139.446 153.54C139.02 153.927 138.523 154.12 137.956 154.12C137.296 154.12 136.743 153.873 136.296 153.38C135.896 152.933 135.696 152.387 135.696 151.74C135.696 151.007 135.92 150.413 136.366 149.96C136.773 149.547 137.303 149.34 137.956 149.34ZM137.956 153.18C138.603 153.18 138.926 152.7 138.926 151.74C138.926 150.74 138.603 150.24 137.956 150.24C137.31 150.24 136.986 150.74 136.986 151.74C136.986 152.7 137.31 153.18 137.956 153.18ZM142.63 149.46V154.6C142.63 155.06 142.53 155.393 142.33 155.6C142.13 155.807 141.81 155.91 141.37 155.91C140.816 155.91 140.313 155.733 139.86 155.38L140.28 154.74C140.553 154.9 140.81 154.98 141.05 154.98H141.06C141.266 154.98 141.37 154.813 141.37 154.48V149.46H142.63ZM141.2 148.3C141.2 148.087 141.273 147.903 141.42 147.75C141.573 147.59 141.753 147.51 141.96 147.51C142.18 147.51 142.366 147.587 142.52 147.74C142.68 147.893 142.76 148.08 142.76 148.3C142.76 148.533 142.683 148.723 142.53 148.87C142.383 149.017 142.193 149.09 141.96 149.09C141.74 149.09 141.556 149.017 141.41 148.87C141.27 148.717 141.2 148.527 141.2 148.3ZM148.107 152.14H144.987C145.013 152.447 145.137 152.703 145.357 152.91C145.583 153.11 145.85 153.21 146.157 153.21C146.59 153.21 147.043 153.077 147.517 152.81L147.837 153.48C147.357 153.907 146.757 154.12 146.037 154.12C145.263 154.12 144.66 153.9 144.227 153.46C143.813 153.047 143.607 152.477 143.607 151.75C143.607 151.037 143.84 150.447 144.307 149.98C144.727 149.553 145.26 149.34 145.907 149.34C146.627 149.34 147.187 149.583 147.587 150.07C147.933 150.483 148.107 151.02 148.107 151.68V152.14ZM144.917 151.21H146.847C146.813 150.557 146.497 150.23 145.897 150.23C145.317 150.23 144.99 150.557 144.917 151.21ZM152.98 153.42C152.507 153.887 151.947 154.12 151.3 154.12C150.527 154.12 149.914 153.873 149.46 153.38C149.067 152.947 148.87 152.403 148.87 151.75C148.87 151.017 149.124 150.417 149.63 149.95C150.07 149.543 150.607 149.34 151.24 149.34C151.94 149.34 152.504 149.56 152.93 150L152.55 150.68C152.21 150.38 151.84 150.23 151.44 150.23C151.067 150.23 150.76 150.377 150.52 150.67C150.28 150.957 150.16 151.327 150.16 151.78C150.16 152.2 150.277 152.547 150.51 152.82C150.75 153.087 151.054 153.22 151.42 153.22C151.86 153.22 152.237 153.057 152.55 152.73L152.98 153.42ZM156.776 150.47H155.476V152.72C155.476 153.053 155.586 153.22 155.806 153.22C156.006 153.22 156.256 153.133 156.556 152.96L156.976 153.6C156.503 153.973 155.979 154.16 155.406 154.16C154.606 154.16 154.206 153.72 154.206 152.84V150.47H153.576V149.46H154.216V148.65C154.549 148.47 154.973 148.247 155.486 147.98V149.46H156.776V150.47ZM160.56 150.56C160.234 150.347 159.86 150.24 159.44 150.24C159.12 150.24 158.96 150.377 158.96 150.65C158.96 150.903 159.177 151.083 159.61 151.19C160.15 151.323 160.517 151.473 160.71 151.64C160.99 151.88 161.13 152.24 161.13 152.72C161.13 153.147 160.977 153.487 160.67 153.74C160.37 153.993 159.964 154.12 159.45 154.12C158.724 154.12 158.11 153.913 157.61 153.5L158.07 152.8C158.417 153.073 158.834 153.21 159.32 153.21C159.514 153.21 159.67 153.163 159.79 153.07C159.91 152.977 159.97 152.853 159.97 152.7C159.97 152.42 159.734 152.237 159.26 152.15C158.247 151.957 157.74 151.463 157.74 150.67C157.74 150.29 157.894 149.973 158.2 149.72C158.514 149.467 158.904 149.34 159.37 149.34C160.004 149.34 160.554 149.523 161.02 149.89L160.56 150.56Z" fill="white"/>
<path d="M326.8 154V147.68C326.893 147.66 327.157 147.633 327.59 147.6C328.023 147.567 328.353 147.55 328.58 147.55C330.193 147.55 331 148.21 331 149.53C331 150.35 330.72 150.95 330.16 151.33C329.787 151.59 329.347 151.72 328.84 151.72C328.44 151.72 328.197 151.693 328.11 151.64V154H326.8ZM328.11 148.67V150.58C328.283 150.647 328.5 150.68 328.76 150.68C329.027 150.68 329.237 150.587 329.39 150.4C329.543 150.207 329.62 149.943 329.62 149.61C329.62 148.937 329.323 148.6 328.73 148.6C328.39 148.6 328.183 148.623 328.11 148.67ZM333.15 149.46L333.27 149.86C333.337 149.72 333.464 149.6 333.65 149.5C333.844 149.393 334.04 149.34 334.24 149.34C334.84 149.34 335.287 149.623 335.58 150.19L334.52 150.77C334.3 150.517 334.067 150.39 333.82 150.39C333.594 150.39 333.427 150.507 333.32 150.74V154H332.08V149.46H333.15ZM337.956 149.34C338.703 149.34 339.283 149.603 339.696 150.13C340.043 150.57 340.216 151.107 340.216 151.74C340.216 152.48 339.96 153.08 339.446 153.54C339.02 153.927 338.523 154.12 337.956 154.12C337.296 154.12 336.743 153.873 336.296 153.38C335.896 152.933 335.696 152.387 335.696 151.74C335.696 151.007 335.92 150.413 336.366 149.96C336.773 149.547 337.303 149.34 337.956 149.34ZM337.956 153.18C338.603 153.18 338.926 152.7 338.926 151.74C338.926 150.74 338.603 150.24 337.956 150.24C337.31 150.24 336.986 150.74 336.986 151.74C336.986 152.7 337.31 153.18 337.956 153.18ZM342.63 149.46V154.6C342.63 155.06 342.53 155.393 342.33 155.6C342.13 155.807 341.81 155.91 341.37 155.91C340.816 155.91 340.313 155.733 339.86 155.38L340.28 154.74C340.553 154.9 340.81 154.98 341.05 154.98H341.06C341.266 154.98 341.37 154.813 341.37 154.48V149.46H342.63ZM341.2 148.3C341.2 148.087 341.273 147.903 341.42 147.75C341.573 147.59 341.753 147.51 341.96 147.51C342.18 147.51 342.366 147.587 342.52 147.74C342.68 147.893 342.76 148.08 342.76 148.3C342.76 148.533 342.683 148.723 342.53 148.87C342.383 149.017 342.193 149.09 341.96 149.09C341.74 149.09 341.556 149.017 341.41 148.87C341.27 148.717 341.2 148.527 341.2 148.3ZM348.107 152.14H344.987C345.013 152.447 345.137 152.703 345.357 152.91C345.583 153.11 345.85 153.21 346.157 153.21C346.59 153.21 347.043 153.077 347.517 152.81L347.837 153.48C347.357 153.907 346.757 154.12 346.037 154.12C345.263 154.12 344.66 153.9 344.227 153.46C343.813 153.047 343.607 152.477 343.607 151.75C343.607 151.037 343.84 150.447 344.307 149.98C344.727 149.553 345.26 149.34 345.907 149.34C346.627 149.34 347.187 149.583 347.587 150.07C347.933 150.483 348.107 151.02 348.107 151.68V152.14ZM344.917 151.21H346.847C346.813 150.557 346.497 150.23 345.897 150.23C345.317 150.23 344.99 150.557 344.917 151.21ZM352.98 153.42C352.507 153.887 351.947 154.12 351.3 154.12C350.527 154.12 349.914 153.873 349.46 153.38C349.067 152.947 348.87 152.403 348.87 151.75C348.87 151.017 349.124 150.417 349.63 149.95C350.07 149.543 350.607 149.34 351.24 149.34C351.94 149.34 352.504 149.56 352.93 150L352.55 150.68C352.21 150.38 351.84 150.23 351.44 150.23C351.067 150.23 350.76 150.377 350.52 150.67C350.28 150.957 350.16 151.327 350.16 151.78C350.16 152.2 350.277 152.547 350.51 152.82C350.75 153.087 351.054 153.22 351.42 153.22C351.86 153.22 352.237 153.057 352.55 152.73L352.98 153.42ZM356.776 150.47H355.476V152.72C355.476 153.053 355.586 153.22 355.806 153.22C356.006 153.22 356.256 153.133 356.556 152.96L356.976 153.6C356.503 153.973 355.979 154.16 355.406 154.16C354.606 154.16 354.206 153.72 354.206 152.84V150.47H353.576V149.46H354.216V148.65C354.549 148.47 354.973 148.247 355.486 147.98V149.46H356.776V150.47ZM360.56 150.56C360.234 150.347 359.86 150.24 359.44 150.24C359.12 150.24 358.96 150.377 358.96 150.65C358.96 150.903 359.177 151.083 359.61 151.19C360.15 151.323 360.517 151.473 360.71 151.64C360.99 151.88 361.13 152.24 361.13 152.72C361.13 153.147 360.977 153.487 360.67 153.74C360.37 153.993 359.964 154.12 359.45 154.12C358.724 154.12 358.11 153.913 357.61 153.5L358.07 152.8C358.417 153.073 358.834 153.21 359.32 153.21C359.514 153.21 359.67 153.163 359.79 153.07C359.91 152.977 359.97 152.853 359.97 152.7C359.97 152.42 359.734 152.237 359.26 152.15C358.247 151.957 357.74 151.463 357.74 150.67C357.74 150.29 357.894 149.973 358.2 149.72C358.514 149.467 358.904 149.34 359.37 149.34C360.004 149.34 360.554 149.523 361.02 149.89L360.56 150.56Z" fill="white"/>
<path d="M426.8 153V146.68C426.893 146.66 427.157 146.633 427.59 146.6C428.023 146.567 428.353 146.55 428.58 146.55C430.193 146.55 431 147.21 431 148.53C431 149.35 430.72 149.95 430.16 150.33C429.787 150.59 429.347 150.72 428.84 150.72C428.44 150.72 428.197 150.693 428.11 150.64V153H426.8ZM428.11 147.67V149.58C428.283 149.647 428.5 149.68 428.76 149.68C429.027 149.68 429.237 149.587 429.39 149.4C429.543 149.207 429.62 148.943 429.62 148.61C429.62 147.937 429.323 147.6 428.73 147.6C428.39 147.6 428.183 147.623 428.11 147.67ZM433.15 148.46L433.27 148.86C433.337 148.72 433.464 148.6 433.65 148.5C433.844 148.393 434.04 148.34 434.24 148.34C434.84 148.34 435.287 148.623 435.58 149.19L434.52 149.77C434.3 149.517 434.067 149.39 433.82 149.39C433.594 149.39 433.427 149.507 433.32 149.74V153H432.08V148.46H433.15ZM437.956 148.34C438.703 148.34 439.283 148.603 439.696 149.13C440.043 149.57 440.216 150.107 440.216 150.74C440.216 151.48 439.96 152.08 439.446 152.54C439.02 152.927 438.523 153.12 437.956 153.12C437.296 153.12 436.743 152.873 436.296 152.38C435.896 151.933 435.696 151.387 435.696 150.74C435.696 150.007 435.92 149.413 436.366 148.96C436.773 148.547 437.303 148.34 437.956 148.34ZM437.956 152.18C438.603 152.18 438.926 151.7 438.926 150.74C438.926 149.74 438.603 149.24 437.956 149.24C437.31 149.24 436.986 149.74 436.986 150.74C436.986 151.7 437.31 152.18 437.956 152.18ZM442.63 148.46V153.6C442.63 154.06 442.53 154.393 442.33 154.6C442.13 154.807 441.81 154.91 441.37 154.91C440.816 154.91 440.313 154.733 439.86 154.38L440.28 153.74C440.553 153.9 440.81 153.98 441.05 153.98H441.06C441.266 153.98 441.37 153.813 441.37 153.48V148.46H442.63ZM441.2 147.3C441.2 147.087 441.273 146.903 441.42 146.75C441.573 146.59 441.753 146.51 441.96 146.51C442.18 146.51 442.366 146.587 442.52 146.74C442.68 146.893 442.76 147.08 442.76 147.3C442.76 147.533 442.683 147.723 442.53 147.87C442.383 148.017 442.193 148.09 441.96 148.09C441.74 148.09 441.556 148.017 441.41 147.87C441.27 147.717 441.2 147.527 441.2 147.3ZM448.107 151.14H444.987C445.013 151.447 445.137 151.703 445.357 151.91C445.583 152.11 445.85 152.21 446.157 152.21C446.59 152.21 447.043 152.077 447.517 151.81L447.837 152.48C447.357 152.907 446.757 153.12 446.037 153.12C445.263 153.12 444.66 152.9 444.227 152.46C443.813 152.047 443.607 151.477 443.607 150.75C443.607 150.037 443.84 149.447 444.307 148.98C444.727 148.553 445.26 148.34 445.907 148.34C446.627 148.34 447.187 148.583 447.587 149.07C447.933 149.483 448.107 150.02 448.107 150.68V151.14ZM444.917 150.21H446.847C446.813 149.557 446.497 149.23 445.897 149.23C445.317 149.23 444.99 149.557 444.917 150.21ZM452.98 152.42C452.507 152.887 451.947 153.12 451.3 153.12C450.527 153.12 449.914 152.873 449.46 152.38C449.067 151.947 448.87 151.403 448.87 150.75C448.87 150.017 449.124 149.417 449.63 148.95C450.07 148.543 450.607 148.34 451.24 148.34C451.94 148.34 452.504 148.56 452.93 149L452.55 149.68C452.21 149.38 451.84 149.23 451.44 149.23C451.067 149.23 450.76 149.377 450.52 149.67C450.28 149.957 450.16 150.327 450.16 150.78C450.16 151.2 450.277 151.547 450.51 151.82C450.75 152.087 451.054 152.22 451.42 152.22C451.86 152.22 452.237 152.057 452.55 151.73L452.98 152.42ZM456.776 149.47H455.476V151.72C455.476 152.053 455.586 152.22 455.806 152.22C456.006 152.22 456.256 152.133 456.556 151.96L456.976 152.6C456.503 152.973 455.979 153.16 455.406 153.16C454.606 153.16 454.206 152.72 454.206 151.84V149.47H453.576V148.46H454.216V147.65C454.549 147.47 454.973 147.247 455.486 146.98V148.46H456.776V149.47ZM460.56 149.56C460.234 149.347 459.86 149.24 459.44 149.24C459.12 149.24 458.96 149.377 458.96 149.65C458.96 149.903 459.177 150.083 459.61 150.19C460.15 150.323 460.517 150.473 460.71 150.64C460.99 150.88 461.13 151.24 461.13 151.72C461.13 152.147 460.977 152.487 460.67 152.74C460.37 152.993 459.964 153.12 459.45 153.12C458.724 153.12 458.11 152.913 457.61 152.5L458.07 151.8C458.417 152.073 458.834 152.21 459.32 152.21C459.514 152.21 459.67 152.163 459.79 152.07C459.91 151.977 459.97 151.853 459.97 151.7C459.97 151.42 459.734 151.237 459.26 151.15C458.247 150.957 457.74 150.463 457.74 149.67C457.74 149.29 457.894 148.973 458.2 148.72C458.514 148.467 458.904 148.34 459.37 148.34C460.004 148.34 460.554 148.523 461.02 148.89L460.56 149.56Z" fill="white"/>
<path d="M225.8 154V147.68C225.893 147.66 226.157 147.633 226.59 147.6C227.023 147.567 227.353 147.55 227.58 147.55C229.193 147.55 230 148.21 230 149.53C230 150.35 229.72 150.95 229.16 151.33C228.787 151.59 228.347 151.72 227.84 151.72C227.44 151.72 227.197 151.693 227.11 151.64V154H225.8ZM227.11 148.67V150.58C227.283 150.647 227.5 150.68 227.76 150.68C228.027 150.68 228.237 150.587 228.39 150.4C228.543 150.207 228.62 149.943 228.62 149.61C228.62 148.937 228.323 148.6 227.73 148.6C227.39 148.6 227.183 148.623 227.11 148.67ZM232.15 149.46L232.27 149.86C232.337 149.72 232.464 149.6 232.65 149.5C232.844 149.393 233.04 149.34 233.24 149.34C233.84 149.34 234.287 149.623 234.58 150.19L233.52 150.77C233.3 150.517 233.067 150.39 232.82 150.39C232.594 150.39 232.427 150.507 232.32 150.74V154H231.08V149.46H232.15ZM236.956 149.34C237.703 149.34 238.283 149.603 238.696 150.13C239.043 150.57 239.216 151.107 239.216 151.74C239.216 152.48 238.96 153.08 238.446 153.54C238.02 153.927 237.523 154.12 236.956 154.12C236.296 154.12 235.743 153.873 235.296 153.38C234.896 152.933 234.696 152.387 234.696 151.74C234.696 151.007 234.92 150.413 235.366 149.96C235.773 149.547 236.303 149.34 236.956 149.34ZM236.956 153.18C237.603 153.18 237.926 152.7 237.926 151.74C237.926 150.74 237.603 150.24 236.956 150.24C236.31 150.24 235.986 150.74 235.986 151.74C235.986 152.7 236.31 153.18 236.956 153.18ZM241.63 149.46V154.6C241.63 155.06 241.53 155.393 241.33 155.6C241.13 155.807 240.81 155.91 240.37 155.91C239.816 155.91 239.313 155.733 238.86 155.38L239.28 154.74C239.553 154.9 239.81 154.98 240.05 154.98H240.06C240.266 154.98 240.37 154.813 240.37 154.48V149.46H241.63ZM240.2 148.3C240.2 148.087 240.273 147.903 240.42 147.75C240.573 147.59 240.753 147.51 240.96 147.51C241.18 147.51 241.366 147.587 241.52 147.74C241.68 147.893 241.76 148.08 241.76 148.3C241.76 148.533 241.683 148.723 241.53 148.87C241.383 149.017 241.193 149.09 240.96 149.09C240.74 149.09 240.556 149.017 240.41 148.87C240.27 148.717 240.2 148.527 240.2 148.3ZM247.107 152.14H243.987C244.013 152.447 244.137 152.703 244.357 152.91C244.583 153.11 244.85 153.21 245.157 153.21C245.59 153.21 246.043 153.077 246.517 152.81L246.837 153.48C246.357 153.907 245.757 154.12 245.037 154.12C244.263 154.12 243.66 153.9 243.227 153.46C242.813 153.047 242.607 152.477 242.607 151.75C242.607 151.037 242.84 150.447 243.307 149.98C243.727 149.553 244.26 149.34 244.907 149.34C245.627 149.34 246.187 149.583 246.587 150.07C246.933 150.483 247.107 151.02 247.107 151.68V152.14ZM243.917 151.21H245.847C245.813 150.557 245.497 150.23 244.897 150.23C244.317 150.23 243.99 150.557 243.917 151.21ZM251.98 153.42C251.507 153.887 250.947 154.12 250.3 154.12C249.527 154.12 248.914 153.873 248.46 153.38C248.067 152.947 247.87 152.403 247.87 151.75C247.87 151.017 248.124 150.417 248.63 149.95C249.07 149.543 249.607 149.34 250.24 149.34C250.94 149.34 251.504 149.56 251.93 150L251.55 150.68C251.21 150.38 250.84 150.23 250.44 150.23C250.067 150.23 249.76 150.377 249.52 150.67C249.28 150.957 249.16 151.327 249.16 151.78C249.16 152.2 249.277 152.547 249.51 152.82C249.75 153.087 250.054 153.22 250.42 153.22C250.86 153.22 251.237 153.057 251.55 152.73L251.98 153.42ZM255.776 150.47H254.476V152.72C254.476 153.053 254.586 153.22 254.806 153.22C255.006 153.22 255.256 153.133 255.556 152.96L255.976 153.6C255.503 153.973 254.979 154.16 254.406 154.16C253.606 154.16 253.206 153.72 253.206 152.84V150.47H252.576V149.46H253.216V148.65C253.549 148.47 253.973 148.247 254.486 147.98V149.46H255.776V150.47ZM259.56 150.56C259.234 150.347 258.86 150.24 258.44 150.24C258.12 150.24 257.96 150.377 257.96 150.65C257.96 150.903 258.177 151.083 258.61 151.19C259.15 151.323 259.517 151.473 259.71 151.64C259.99 151.88 260.13 152.24 260.13 152.72C260.13 153.147 259.977 153.487 259.67 153.74C259.37 153.993 258.964 154.12 258.45 154.12C257.724 154.12 257.11 153.913 256.61 153.5L257.07 152.8C257.417 153.073 257.834 153.21 258.32 153.21C258.514 153.21 258.67 153.163 258.79 153.07C258.91 152.977 258.97 152.853 258.97 152.7C258.97 152.42 258.734 152.237 258.26 152.15C257.247 151.957 256.74 151.463 256.74 150.67C256.74 150.29 256.894 149.973 257.2 149.72C257.514 149.467 257.904 149.34 258.37 149.34C259.004 149.34 259.554 149.523 260.02 149.89L259.56 150.56Z" fill="white"/>
<path d="M148.032 130.328H142.728V133.4C142.92 133.32 143.184 133.28 143.52 133.28C145.28 133.28 146.648 133.72 147.624 134.6C148.552 135.448 149.016 136.608 149.016 138.08C149.016 139.632 148.44 140.92 147.288 141.944C146.28 142.84 145.056 143.288 143.616 143.288C141.696 143.288 140.024 142.592 138.6 141.2L139.896 139.208C141.064 140.088 142.192 140.528 143.28 140.528C144.96 140.528 145.8 139.776 145.8 138.272C145.8 136.592 144.72 135.752 142.56 135.752C141.808 135.752 140.824 135.888 139.608 136.16V127.808H148.032V130.328Z" fill="white"/>
<path d="M436.448 135.208H434.168V132.664H436.448C437.088 132.664 437.528 132.576 437.768 132.4C438.136 132.128 438.32 131.64 438.32 130.936C438.32 130.392 438.16 129.96 437.84 129.64C437.52 129.304 437.088 129.136 436.544 129.136C435.568 129.136 434.552 129.584 433.496 130.48L432.344 128.464C433.672 127.168 435.176 126.52 436.856 126.52C438.264 126.52 439.416 126.912 440.312 127.696C441.176 128.464 441.608 129.456 441.608 130.672C441.608 132.176 440.984 133.184 439.736 133.696C441.352 134.32 442.16 135.52 442.16 137.296C442.16 139.168 441.52 140.528 440.24 141.376C439.344 141.968 438.224 142.264 436.88 142.264C436.144 142.264 435.304 142.072 434.36 141.688C433.432 141.288 432.672 140.808 432.08 140.248L433.352 138.352C434.216 139.136 435.32 139.528 436.664 139.528C437.352 139.528 437.896 139.336 438.296 138.952C438.696 138.552 438.896 138.016 438.896 137.344C438.896 135.92 438.08 135.208 436.448 135.208ZM449.79 126.52C451.646 126.52 453.134 127.408 454.254 129.184C455.198 130.656 455.67 132.408 455.67 134.44C455.67 136.888 455.07 138.848 453.87 140.32C452.814 141.632 451.454 142.288 449.79 142.288C447.886 142.288 446.398 141.44 445.326 139.744C444.43 138.336 443.982 136.568 443.982 134.44C443.982 132.072 444.574 130.128 445.758 128.608C446.83 127.216 448.174 126.52 449.79 126.52ZM449.838 129.208C448.11 129.208 447.246 130.904 447.246 134.296C447.246 136.008 447.494 137.352 447.99 138.328C448.438 139.208 449.03 139.648 449.766 139.648C450.582 139.648 451.222 139.176 451.686 138.232C452.166 137.272 452.406 135.96 452.406 134.296C452.406 130.904 451.55 129.208 449.838 129.208Z" fill="white"/>
<path d="M331.96 143V140.336C332.344 139.904 332.856 139.32 333.496 138.584C334.504 137.464 335.248 136.616 335.728 136.04C336.8 134.76 337.472 133.888 337.744 133.424C338.016 132.944 338.152 132.416 338.152 131.84C338.152 131.36 337.976 130.96 337.624 130.64C337.272 130.32 336.824 130.16 336.28 130.16C335.336 130.16 334.296 130.544 333.16 131.312L331.84 129.392C333.44 128.128 335.112 127.496 336.856 127.496C338.248 127.496 339.36 127.872 340.192 128.624C341.008 129.36 341.416 130.376 341.416 131.672C341.416 132.632 341.096 133.64 340.456 134.696C339.832 135.736 338.608 137.288 336.784 139.352C336.336 139.864 336.008 140.24 335.8 140.48H341.248V143H331.96ZM348.9 127.52C350.756 127.52 352.244 128.408 353.364 130.184C354.308 131.656 354.78 133.408 354.78 135.44C354.78 137.888 354.18 139.848 352.98 141.32C351.924 142.632 350.564 143.288 348.9 143.288C346.996 143.288 345.508 142.44 344.436 140.744C343.54 139.336 343.092 137.568 343.092 135.44C343.092 133.072 343.684 131.128 344.868 129.608C345.94 128.216 347.284 127.52 348.9 127.52ZM348.948 130.208C347.22 130.208 346.356 131.904 346.356 135.296C346.356 137.008 346.604 138.352 347.1 139.328C347.548 140.208 348.14 140.648 348.876 140.648C349.692 140.648 350.332 140.176 350.796 139.232C351.276 138.272 351.516 136.96 351.516 135.296C351.516 131.904 350.66 130.208 348.948 130.208Z" fill="white"/>
<path d="M239.936 127.808V143H236.792V131.384C236.568 131.528 236.24 131.728 235.808 131.984C235.184 132.352 234.736 132.632 234.464 132.824C234.256 132.472 233.904 131.888 233.408 131.072L233.264 130.856C233.152 130.648 233.064 130.496 233 130.4C233.512 130.032 234.32 129.48 235.424 128.744C236 128.36 236.456 128.048 236.792 127.808H239.936ZM242.819 143V140.336C243.203 139.904 243.715 139.32 244.355 138.584C245.363 137.464 246.107 136.616 246.587 136.04C247.659 134.76 248.331 133.888 248.603 133.424C248.875 132.944 249.011 132.416 249.011 131.84C249.011 131.36 248.835 130.96 248.483 130.64C248.131 130.32 247.683 130.16 247.139 130.16C246.195 130.16 245.155 130.544 244.019 131.312L242.699 129.392C244.299 128.128 245.971 127.496 247.715 127.496C249.107 127.496 250.219 127.872 251.051 128.624C251.867 129.36 252.275 130.376 252.275 131.672C252.275 132.632 251.955 133.64 251.315 134.696C250.691 135.736 249.467 137.288 247.643 139.352C247.195 139.864 246.867 140.24 246.659 140.48H252.107V143H242.819Z" fill="white"/>
<g filter="url(#filter2_d_1457_318)">
<path d="M437.5 62L451.789 113.75H423.211L437.5 62Z" fill="url(#paint8_linear_1457_318)" shape-rendering="crispEdges"/>
</g>
<path d="M439.5 69.393L457.508 113.78L450.51 113.772L439.5 69.393Z" fill="#6C7AAD"/>
<circle cx="141.5" cy="93.5" r="2.5" fill="#D9D9D9"/>
<path d="M141.5 93L155.789 114H127.211L141.5 93Z" fill="url(#paint9_linear_1457_318)"/>
<path d="M143.5 96L161.508 114.012L154.51 114.009L143.5 96Z" fill="#C5F4FF"/>
<line x1="140.945" y1="93.503" x2="240.945" y2="82.503" stroke="white" stroke-opacity="0.5"/>
<line x1="240.956" y1="82.502" x2="341.956" y2="73.502" stroke="white" stroke-opacity="0.5"/>
<line x1="341.943" y1="73.5033" x2="437.943" y2="62.5033" stroke="white" stroke-opacity="0.5"/>
<rect y="172" width="586" height="77" fill="black" fill-opacity="0.5"/>
<path d="M446.468 212.404V220H444.896V214.192C444.784 214.264 444.62 214.364 444.404 214.492C444.092 214.676 443.868 214.816 443.732 214.912C443.628 214.736 443.452 214.444 443.204 214.036L443.132 213.928C443.076 213.824 443.032 213.748 443 213.7C443.256 213.516 443.66 213.24 444.212 212.872C444.5 212.68 444.728 212.524 444.896 212.404H446.468ZM450.898 212.404V220H449.326V214.192C449.214 214.264 449.05 214.364 448.834 214.492C448.522 214.676 448.298 214.816 448.162 214.912C448.058 214.736 447.882 214.444 447.634 214.036L447.562 213.928C447.506 213.824 447.462 213.748 447.43 213.7C447.686 213.516 448.09 213.24 448.642 212.872C448.93 212.68 449.158 212.524 449.326 212.404H450.898ZM454.727 219.172C454.727 219.18 454.727 219.188 454.727 219.196C454.727 219.452 454.647 219.66 454.487 219.82C454.327 219.98 454.115 220.06 453.851 220.06C453.579 220.06 453.359 219.98 453.191 219.82C453.031 219.652 452.951 219.432 452.951 219.16V219.136C452.967 218.888 453.055 218.688 453.215 218.536C453.383 218.384 453.595 218.308 453.851 218.308C454.115 218.308 454.327 218.388 454.487 218.548C454.647 218.708 454.727 218.916 454.727 219.172ZM459.157 212.26C460.085 212.26 460.829 212.704 461.389 213.592C461.861 214.328 462.097 215.204 462.097 216.22C462.097 217.444 461.797 218.424 461.197 219.16C460.669 219.816 459.989 220.144 459.157 220.144C458.205 220.144 457.461 219.72 456.925 218.872C456.477 218.168 456.253 217.284 456.253 216.22C456.253 215.036 456.549 214.064 457.141 213.304C457.677 212.608 458.349 212.26 459.157 212.26ZM459.181 213.604C458.317 213.604 457.885 214.452 457.885 216.148C457.885 217.004 458.009 217.676 458.257 218.164C458.481 218.604 458.777 218.824 459.145 218.824C459.553 218.824 459.873 218.588 460.105 218.116C460.345 217.636 460.465 216.98 460.465 216.148C460.465 214.452 460.037 213.604 459.181 213.604ZM465.919 212.26C466.847 212.26 467.591 212.704 468.151 213.592C468.623 214.328 468.859 215.204 468.859 216.22C468.859 217.444 468.559 218.424 467.959 219.16C467.431 219.816 466.751 220.144 465.919 220.144C464.967 220.144 464.223 219.72 463.687 218.872C463.239 218.168 463.015 217.284 463.015 216.22C463.015 215.036 463.311 214.064 463.903 213.304C464.439 212.608 465.111 212.26 465.919 212.26ZM465.943 213.604C465.079 213.604 464.647 214.452 464.647 216.148C464.647 217.004 464.771 217.676 465.019 218.164C465.243 218.604 465.539 218.824 465.907 218.824C466.315 218.824 466.635 218.588 466.867 218.116C467.107 217.636 467.227 216.98 467.227 216.148C467.227 214.452 466.799 213.604 465.943 213.604ZM472.176 212.404H473.496L476.292 220H474.696C474.56 219.6 474.392 219.072 474.192 218.416H471.468C471.356 218.776 471.184 219.304 470.952 220H469.38L472.176 212.404ZM472.848 214.456C472.624 215.088 472.316 215.976 471.924 217.12H473.748C473.372 216.016 473.072 215.128 472.848 214.456ZM481.356 218.2C481.804 216.56 482.404 214.628 483.156 212.404H485.436V220H483.852V213.832C483.476 215.456 482.86 217.512 482.004 220H480.696C479.792 217.256 479.18 215.22 478.86 213.892V220H477.312V212.404H479.496C480.248 214.452 480.868 216.384 481.356 218.2Z" fill="white" fill-opacity="0.49"/>
<path d="M448.004 205.2C448.452 203.56 449.052 201.628 449.804 199.404H452.084V207H450.5V200.832C450.124 202.456 449.508 204.512 448.652 207H447.344C446.44 204.256 445.828 202.22 445.508 200.892V207H443.96V199.404H446.144C446.896 201.452 447.516 203.384 448.004 205.2ZM456.211 201.408C457.107 201.408 457.803 201.724 458.299 202.356C458.715 202.884 458.923 203.528 458.923 204.288C458.923 205.176 458.615 205.896 457.999 206.448C457.487 206.912 456.891 207.144 456.211 207.144C455.419 207.144 454.755 206.848 454.219 206.256C453.739 205.72 453.499 205.064 453.499 204.288C453.499 203.408 453.767 202.696 454.303 202.152C454.791 201.656 455.427 201.408 456.211 201.408ZM456.211 206.016C456.987 206.016 457.375 205.44 457.375 204.288C457.375 203.088 456.987 202.488 456.211 202.488C455.435 202.488 455.047 203.088 455.047 204.288C455.047 205.44 455.435 206.016 456.211 206.016ZM461.663 202.08C461.823 201.896 462.063 201.74 462.383 201.612C462.703 201.476 463.007 201.408 463.295 201.408C463.983 201.408 464.479 201.596 464.783 201.972C465.095 202.348 465.251 202.956 465.251 203.796V207H463.727V203.856C463.727 203.072 463.379 202.68 462.683 202.68C462.507 202.68 462.319 202.72 462.119 202.8C461.919 202.872 461.783 202.956 461.711 203.052V207H460.199V201.552H461.483C461.523 201.76 461.563 201.936 461.603 202.08H461.663ZM470.708 207L470.492 206.424C470.364 206.632 470.156 206.804 469.868 206.94C469.58 207.076 469.284 207.144 468.98 207.144C468.124 207.144 467.472 206.86 467.024 206.292C466.648 205.82 466.46 205.212 466.46 204.468C466.46 203.42 466.764 202.612 467.372 202.044C467.828 201.62 468.376 201.408 469.016 201.408C469.568 201.408 470.032 201.56 470.408 201.864V200.124L471.92 199.284V207H470.708ZM470.408 204.924V203.4C470.352 203.136 470.224 202.92 470.024 202.752C469.832 202.576 469.604 202.488 469.34 202.488C468.932 202.488 468.608 202.648 468.368 202.968C468.128 203.288 468.008 203.72 468.008 204.264C468.008 205.456 468.396 206.052 469.172 206.052C469.46 206.052 469.728 205.94 469.976 205.716C470.224 205.484 470.368 205.22 470.408 204.924ZM477.938 207H476.726L476.606 206.484C476.078 206.924 475.542 207.144 474.998 207.144C473.79 207.144 473.186 206.556 473.186 205.38C473.186 204.796 473.438 204.34 473.942 204.012C474.454 203.676 475.21 203.508 476.21 203.508H476.462V203.484C476.462 203.14 476.39 202.904 476.246 202.776C476.102 202.648 475.842 202.584 475.466 202.584C474.938 202.584 474.454 202.752 474.014 203.088C473.87 202.824 473.734 202.564 473.606 202.308C474.062 201.956 474.458 201.72 474.794 201.6C475.138 201.472 475.546 201.408 476.018 201.408C477.298 201.408 477.938 202.208 477.938 203.808V207ZM476.414 204.432H476.234C475.778 204.432 475.41 204.512 475.13 204.672C474.85 204.832 474.71 205.044 474.71 205.308C474.71 205.804 474.926 206.052 475.358 206.052C475.622 206.052 475.854 205.976 476.054 205.824C476.254 205.672 476.374 205.48 476.414 205.248V204.432ZM484.562 201.552C484.242 202.448 483.802 203.652 483.242 205.164C482.834 206.292 482.514 207.168 482.282 207.792C481.906 208.792 481.378 209.292 480.698 209.292C480.17 209.292 479.626 209.064 479.066 208.608C479.226 208.336 479.362 208.096 479.474 207.888C479.77 208.08 480.03 208.176 480.254 208.176C480.582 208.176 480.874 207.784 481.13 207H480.842L478.934 201.552H480.434C480.522 201.816 480.658 202.228 480.842 202.788L480.914 202.98C481.258 204.02 481.506 204.784 481.658 205.272L483.05 201.552H484.562ZM491.093 199.404V207H489.521V201.192C489.409 201.264 489.245 201.364 489.029 201.492C488.717 201.676 488.493 201.816 488.357 201.912C488.253 201.736 488.077 201.444 487.829 201.036L487.757 200.928C487.701 200.824 487.657 200.748 487.625 200.7C487.881 200.516 488.285 200.24 488.837 199.872C489.125 199.68 489.353 199.524 489.521 199.404H491.093ZM496.051 202.872C495.659 202.616 495.211 202.488 494.707 202.488C494.323 202.488 494.131 202.652 494.131 202.98C494.131 203.284 494.391 203.5 494.911 203.628C495.559 203.788 495.999 203.968 496.231 204.168C496.567 204.456 496.735 204.888 496.735 205.464C496.735 205.976 496.551 206.384 496.183 206.688C495.823 206.992 495.335 207.144 494.719 207.144C493.847 207.144 493.111 206.896 492.511 206.4L493.063 205.56C493.479 205.888 493.979 206.052 494.563 206.052C494.795 206.052 494.983 205.996 495.127 205.884C495.271 205.772 495.343 205.624 495.343 205.44C495.343 205.104 495.059 204.884 494.491 204.78C493.275 204.548 492.667 203.956 492.667 203.004C492.667 202.548 492.851 202.168 493.219 201.864C493.595 201.56 494.063 201.408 494.623 201.408C495.383 201.408 496.043 201.628 496.603 202.068L496.051 202.872ZM501.412 202.764H499.852V205.464C499.852 205.864 499.984 206.064 500.248 206.064C500.488 206.064 500.788 205.96 501.148 205.752L501.652 206.52C501.084 206.968 500.456 207.192 499.768 207.192C498.808 207.192 498.328 206.664 498.328 205.608V202.764H497.572V201.552H498.34V200.58C498.74 200.364 499.248 200.096 499.864 199.776V201.552H501.412V202.764ZM509.844 205.2C510.292 203.56 510.892 201.628 511.644 199.404H513.924V207H512.34V200.832C511.964 202.456 511.348 204.512 510.492 207H509.184C508.28 204.256 507.668 202.22 507.348 200.892V207H505.8V199.404H507.984C508.736 201.452 509.356 203.384 509.844 205.2ZM520.091 207H518.879L518.759 206.484C518.231 206.924 517.695 207.144 517.151 207.144C515.943 207.144 515.339 206.556 515.339 205.38C515.339 204.796 515.591 204.34 516.095 204.012C516.607 203.676 517.363 203.508 518.363 203.508H518.615V203.484C518.615 203.14 518.543 202.904 518.399 202.776C518.255 202.648 517.995 202.584 517.619 202.584C517.091 202.584 516.607 202.752 516.167 203.088C516.023 202.824 515.887 202.564 515.759 202.308C516.215 201.956 516.611 201.72 516.947 201.6C517.291 201.472 517.699 201.408 518.171 201.408C519.451 201.408 520.091 202.208 520.091 203.808V207ZM518.567 204.432H518.387C517.931 204.432 517.563 204.512 517.283 204.672C517.003 204.832 516.863 205.044 516.863 205.308C516.863 205.804 517.079 206.052 517.511 206.052C517.775 206.052 518.007 205.976 518.207 205.824C518.407 205.672 518.527 205.48 518.567 205.248V204.432ZM526.714 201.552C526.394 202.448 525.954 203.652 525.394 205.164C524.986 206.292 524.666 207.168 524.434 207.792C524.058 208.792 523.53 209.292 522.85 209.292C522.322 209.292 521.778 209.064 521.218 208.608C521.378 208.336 521.514 208.096 521.626 207.888C521.922 208.08 522.182 208.176 522.406 208.176C522.734 208.176 523.026 207.784 523.282 207H522.994L521.086 201.552H522.586C522.674 201.816 522.81 202.228 522.994 202.788L523.066 202.98C523.41 204.02 523.658 204.784 523.81 205.272L525.202 201.552H526.714ZM530.257 207V205.668C530.449 205.452 530.705 205.16 531.025 204.792C531.529 204.232 531.901 203.808 532.141 203.52C532.677 202.88 533.013 202.444 533.149 202.212C533.285 201.972 533.353 201.708 533.353 201.42C533.353 201.18 533.265 200.98 533.089 200.82C532.913 200.66 532.689 200.58 532.417 200.58C531.945 200.58 531.425 200.772 530.857 201.156L530.197 200.196C530.997 199.564 531.833 199.248 532.705 199.248C533.401 199.248 533.957 199.436 534.373 199.812C534.781 200.18 534.985 200.688 534.985 201.336C534.985 201.816 534.825 202.32 534.505 202.848C534.193 203.368 533.581 204.144 532.669 205.176C532.445 205.432 532.281 205.62 532.177 205.74H534.901V207H530.257ZM538.727 199.26C539.655 199.26 540.399 199.704 540.959 200.592C541.431 201.328 541.667 202.204 541.667 203.22C541.667 204.444 541.367 205.424 540.767 206.16C540.239 206.816 539.559 207.144 538.727 207.144C537.775 207.144 537.031 206.72 536.495 205.872C536.047 205.168 535.823 204.284 535.823 203.22C535.823 202.036 536.119 201.064 536.711 200.304C537.247 199.608 537.919 199.26 538.727 199.26ZM538.751 200.604C537.887 200.604 537.455 201.452 537.455 203.148C537.455 204.004 537.579 204.676 537.827 205.164C538.051 205.604 538.347 205.824 538.715 205.824C539.123 205.824 539.443 205.588 539.675 205.116C539.915 204.636 540.035 203.98 540.035 203.148C540.035 201.452 539.607 200.604 538.751 200.604ZM542.609 207V205.668C542.801 205.452 543.057 205.16 543.377 204.792C543.881 204.232 544.253 203.808 544.493 203.52C545.029 202.88 545.365 202.444 545.501 202.212C545.637 201.972 545.705 201.708 545.705 201.42C545.705 201.18 545.617 200.98 545.441 200.82C545.265 200.66 545.041 200.58 544.769 200.58C544.297 200.58 543.777 200.772 543.209 201.156L542.549 200.196C543.349 199.564 544.185 199.248 545.057 199.248C545.753 199.248 546.309 199.436 546.725 199.812C547.133 200.18 547.337 200.688 547.337 201.336C547.337 201.816 547.177 202.32 546.857 202.848C546.545 203.368 545.933 204.144 545.021 205.176C544.797 205.432 544.633 205.62 544.529 205.74H547.253V207H542.609ZM548.199 207V205.668C548.391 205.452 548.647 205.16 548.967 204.792C549.471 204.232 549.843 203.808 550.083 203.52C550.619 202.88 550.955 202.444 551.091 202.212C551.227 201.972 551.295 201.708 551.295 201.42C551.295 201.18 551.207 200.98 551.031 200.82C550.855 200.66 550.631 200.58 550.359 200.58C549.887 200.58 549.367 200.772 548.799 201.156L548.139 200.196C548.939 199.564 549.775 199.248 550.647 199.248C551.343 199.248 551.899 199.436 552.315 199.812C552.723 200.18 552.927 200.688 552.927 201.336C552.927 201.816 552.767 202.32 552.447 202.848C552.135 203.368 551.523 204.144 550.611 205.176C550.387 205.432 550.223 205.62 550.119 205.74H552.843V207H548.199Z" fill="white"/>
<path d="M72.168 199.552H69.24V197.872H77.432V199.552H74.28V208H72.168V199.552ZM80.4719 200.736L80.6639 201.376C80.7705 201.152 80.9732 200.96 81.2719 200.8C81.5812 200.629 81.8959 200.544 82.2159 200.544C83.1759 200.544 83.8905 200.997 84.3599 201.904L82.6639 202.832C82.3119 202.427 81.9385 202.224 81.5439 202.224C81.1812 202.224 80.9145 202.411 80.7439 202.784V208H78.7599V200.736H80.4719ZM90.9753 208H89.3593L89.1993 207.312C88.4953 207.899 87.7806 208.192 87.0553 208.192C85.4446 208.192 84.6393 207.408 84.6393 205.84C84.6393 205.061 84.9753 204.453 85.6473 204.016C86.3299 203.568 87.3379 203.344 88.6713 203.344H89.0073V203.312C89.0073 202.853 88.9113 202.539 88.7193 202.368C88.5273 202.197 88.1806 202.112 87.6793 202.112C86.9753 202.112 86.3299 202.336 85.7433 202.784C85.5513 202.432 85.3699 202.085 85.1993 201.744C85.8073 201.275 86.3353 200.96 86.7833 200.8C87.2419 200.629 87.7859 200.544 88.4153 200.544C90.1219 200.544 90.9753 201.611 90.9753 203.744V208ZM88.9433 204.576H88.7033C88.0953 204.576 87.6046 204.683 87.2313 204.896C86.8579 205.109 86.6713 205.392 86.6713 205.744C86.6713 206.405 86.9593 206.736 87.5353 206.736C87.8873 206.736 88.1966 206.635 88.4633 206.432C88.7299 206.229 88.8899 205.973 88.9433 205.664V204.576ZM99.2465 207.072C98.4892 207.819 97.5932 208.192 96.5585 208.192C95.3212 208.192 94.3398 207.797 93.6145 207.008C92.9852 206.315 92.6705 205.445 92.6705 204.4C92.6705 203.227 93.0758 202.267 93.8865 201.52C94.5905 200.869 95.4492 200.544 96.4625 200.544C97.5825 200.544 98.4838 200.896 99.1665 201.6L98.5585 202.688C98.0145 202.208 97.4225 201.968 96.7825 201.968C96.1852 201.968 95.6945 202.203 95.3105 202.672C94.9265 203.131 94.7345 203.723 94.7345 204.448C94.7345 205.12 94.9212 205.675 95.2945 206.112C95.6785 206.539 96.1638 206.752 96.7505 206.752C97.4545 206.752 98.0572 206.491 98.5585 205.968L99.2465 207.072ZM106.715 207.072C105.958 207.819 105.062 208.192 104.027 208.192C102.79 208.192 101.809 207.797 101.083 207.008C100.454 206.315 100.139 205.445 100.139 204.4C100.139 203.227 100.545 202.267 101.355 201.52C102.059 200.869 102.918 200.544 103.931 200.544C105.051 200.544 105.953 200.896 106.635 201.6L106.027 202.688C105.483 202.208 104.891 201.968 104.251 201.968C103.654 201.968 103.163 202.203 102.779 202.672C102.395 203.131 102.203 203.723 102.203 204.448C102.203 205.12 102.39 205.675 102.763 206.112C103.147 206.539 103.633 206.752 104.219 206.752C104.923 206.752 105.526 206.491 106.027 205.968L106.715 207.072ZM114.9 200.736C114.474 201.931 113.887 203.536 113.14 205.552C112.596 207.056 112.17 208.224 111.86 209.056C111.359 210.389 110.655 211.056 109.748 211.056C109.044 211.056 108.319 210.752 107.572 210.144C107.786 209.781 107.967 209.461 108.116 209.184C108.511 209.44 108.858 209.568 109.156 209.568C109.594 209.568 109.983 209.045 110.324 208H109.94L107.396 200.736H109.396C109.514 201.088 109.695 201.637 109.94 202.384L110.036 202.64C110.495 204.027 110.826 205.045 111.028 205.696L112.884 200.736H114.9ZM127.496 206.864C126.611 207.749 125.571 208.192 124.376 208.192C122.659 208.192 121.379 207.552 120.536 206.272C119.928 205.355 119.624 204.277 119.624 203.04C119.624 201.429 120.04 200.133 120.872 199.152C121.694 198.171 122.835 197.68 124.296 197.68C125.32 197.68 126.344 198.112 127.368 198.976L126.552 200.304C125.784 199.749 125.086 199.472 124.456 199.472C123.582 199.472 122.904 199.84 122.424 200.576C122.008 201.205 121.8 202.027 121.8 203.04C121.8 203.936 122.046 204.704 122.536 205.344C123.059 206.016 123.758 206.352 124.632 206.352C125.208 206.352 125.891 206.101 126.68 205.6L127.496 206.864ZM131.958 200.544C133.153 200.544 134.081 200.965 134.742 201.808C135.297 202.512 135.574 203.371 135.574 204.384C135.574 205.568 135.164 206.528 134.342 207.264C133.66 207.883 132.865 208.192 131.958 208.192C130.902 208.192 130.017 207.797 129.302 207.008C128.662 206.293 128.342 205.419 128.342 204.384C128.342 203.211 128.7 202.261 129.414 201.536C130.065 200.875 130.913 200.544 131.958 200.544ZM131.958 206.688C132.993 206.688 133.51 205.92 133.51 204.384C133.51 202.784 132.993 201.984 131.958 201.984C130.924 201.984 130.406 202.784 130.406 204.384C130.406 205.92 130.924 206.688 131.958 206.688ZM139.228 201.44C139.441 201.195 139.761 200.987 140.188 200.816C140.614 200.635 141.02 200.544 141.404 200.544C142.321 200.544 142.982 200.795 143.388 201.296C143.804 201.797 144.012 202.608 144.012 203.728V208H141.98V203.808C141.98 202.763 141.516 202.24 140.588 202.24C140.353 202.24 140.102 202.293 139.836 202.4C139.569 202.496 139.388 202.608 139.292 202.736V208H137.276V200.736H138.988C139.041 201.013 139.094 201.248 139.148 201.44H139.228ZM148.056 201.44C148.269 201.195 148.589 200.987 149.016 200.816C149.442 200.635 149.848 200.544 150.232 200.544C151.149 200.544 151.81 200.795 152.216 201.296C152.632 201.797 152.84 202.608 152.84 203.728V208H150.808V203.808C150.808 202.763 150.344 202.24 149.416 202.24C149.181 202.24 148.93 202.293 148.664 202.4C148.397 202.496 148.216 202.608 148.12 202.736V208H146.104V200.736H147.816C147.869 201.013 147.922 201.248 147.976 201.44H148.056ZM161.652 205.024H156.66C156.702 205.515 156.9 205.925 157.252 206.256C157.614 206.576 158.041 206.736 158.532 206.736C159.225 206.736 159.95 206.523 160.708 206.096L161.22 207.168C160.452 207.851 159.492 208.192 158.34 208.192C157.102 208.192 156.137 207.84 155.444 207.136C154.782 206.475 154.452 205.563 154.452 204.4C154.452 203.259 154.825 202.315 155.572 201.568C156.244 200.885 157.097 200.544 158.132 200.544C159.284 200.544 160.18 200.933 160.82 201.712C161.374 202.373 161.652 203.232 161.652 204.288V205.024ZM156.548 203.536H159.636C159.582 202.491 159.076 201.968 158.116 201.968C157.188 201.968 156.665 202.491 156.548 203.536ZM169.45 207.072C168.692 207.819 167.796 208.192 166.762 208.192C165.524 208.192 164.543 207.797 163.818 207.008C163.188 206.315 162.874 205.445 162.874 204.4C162.874 203.227 163.279 202.267 164.09 201.52C164.794 200.869 165.652 200.544 166.666 200.544C167.786 200.544 168.687 200.896 169.37 201.6L168.762 202.688C168.218 202.208 167.626 201.968 166.986 201.968C166.388 201.968 165.898 202.203 165.514 202.672C165.13 203.131 164.938 203.723 164.938 204.448C164.938 205.12 165.124 205.675 165.498 206.112C165.882 206.539 166.367 206.752 166.954 206.752C167.658 206.752 168.26 206.491 168.762 205.968L169.45 207.072ZM175.523 202.352H173.443V205.952C173.443 206.485 173.619 206.752 173.971 206.752C174.291 206.752 174.691 206.613 175.171 206.336L175.843 207.36C175.085 207.957 174.248 208.256 173.331 208.256C172.051 208.256 171.411 207.552 171.411 206.144V202.352H170.403V200.736H171.427V199.44C171.96 199.152 172.637 198.795 173.459 198.368V200.736H175.523V202.352Z" fill="white"/>
<path d="M72.09 212.67V219H70.8V212.67H72.09ZM74.7806 214.9C75.154 214.527 75.6206 214.34 76.1806 214.34C76.5673 214.34 76.9073 214.423 77.2006 214.59C77.5006 214.75 77.7073 214.967 77.8206 215.24C77.9673 214.973 78.194 214.757 78.5006 214.59C78.814 214.423 79.154 214.34 79.5206 214.34C80.5873 214.34 81.1206 214.987 81.1206 216.28V219H79.8506V216.62C79.8506 216.173 79.784 215.86 79.6506 215.68C79.524 215.493 79.3073 215.4 79.0006 215.4C78.5606 215.4 78.204 215.573 77.9306 215.92V219H76.6706V216.48C76.6706 216.087 76.6006 215.81 76.4606 215.65C76.3206 215.483 76.0806 215.4 75.7406 215.4C75.5406 215.4 75.3506 215.43 75.1706 215.49C74.9973 215.55 74.884 215.623 74.8306 215.71V219H73.5706V214.46H74.6406L74.7306 214.9H74.7806ZM83.378 214.46L83.498 214.89C83.778 214.523 84.1714 214.34 84.678 214.34C85.3914 214.34 85.948 214.58 86.348 215.06C86.688 215.473 86.858 216 86.858 216.64C86.858 217.48 86.6047 218.127 86.098 218.58C85.698 218.94 85.208 219.12 84.628 219.12C84.4547 219.12 84.2714 219.083 84.078 219.01C83.8847 218.937 83.748 218.853 83.668 218.76V220.78H82.428V214.46H83.378ZM83.668 216.23V217.39C83.668 217.623 83.748 217.823 83.908 217.99C84.0747 218.157 84.268 218.24 84.488 218.24C84.788 218.24 85.038 218.097 85.238 217.81C85.438 217.523 85.538 217.167 85.538 216.74C85.538 216.287 85.448 215.927 85.268 215.66C85.0947 215.387 84.858 215.25 84.558 215.25C84.3247 215.25 84.118 215.35 83.938 215.55C83.758 215.743 83.668 215.97 83.668 216.23ZM91.5763 219H90.5663L90.4663 218.57C90.0263 218.937 89.5797 219.12 89.1263 219.12C88.1197 219.12 87.6163 218.63 87.6163 217.65C87.6163 217.163 87.8263 216.783 88.2463 216.51C88.673 216.23 89.303 216.09 90.1363 216.09H90.3463V216.07C90.3463 215.783 90.2863 215.587 90.1663 215.48C90.0463 215.373 89.8297 215.32 89.5163 215.32C89.0763 215.32 88.673 215.46 88.3063 215.74C88.1863 215.52 88.073 215.303 87.9663 215.09C88.3463 214.797 88.6763 214.6 88.9563 214.5C89.243 214.393 89.583 214.34 89.9763 214.34C91.043 214.34 91.5763 215.007 91.5763 216.34V219ZM90.3063 216.86H90.1563C89.7763 216.86 89.4697 216.927 89.2363 217.06C89.003 217.193 88.8863 217.37 88.8863 217.59C88.8863 218.003 89.0663 218.21 89.4263 218.21C89.6463 218.21 89.8397 218.147 90.0063 218.02C90.173 217.893 90.273 217.733 90.3063 217.54V216.86ZM96.7459 218.42C96.2725 218.887 95.7125 219.12 95.0659 219.12C94.2925 219.12 93.6792 218.873 93.2259 218.38C92.8325 217.947 92.6359 217.403 92.6359 216.75C92.6359 216.017 92.8892 215.417 93.3959 214.95C93.8359 214.543 94.3725 214.34 95.0059 214.34C95.7059 214.34 96.2692 214.56 96.6959 215L96.3159 215.68C95.9759 215.38 95.6059 215.23 95.2059 215.23C94.8325 215.23 94.5259 215.377 94.2859 215.67C94.0459 215.957 93.9259 216.327 93.9259 216.78C93.9259 217.2 94.0425 217.547 94.2759 217.82C94.5159 218.087 94.8192 218.22 95.1859 218.22C95.6259 218.22 96.0025 218.057 96.3159 217.73L96.7459 218.42ZM100.541 215.47H99.2415V217.72C99.2415 218.053 99.3515 218.22 99.5715 218.22C99.7715 218.22 100.021 218.133 100.321 217.96L100.741 218.6C100.268 218.973 99.7448 219.16 99.1715 219.16C98.3715 219.16 97.9715 218.72 97.9715 217.84V215.47H97.3415V214.46H97.9815V213.65C98.3148 213.47 98.7382 213.247 99.2515 212.98V214.46H100.541V215.47ZM106.218 219H105.108L103.548 214.46H104.818L105.648 217.47L106.318 214.46H107.598C107.698 214.94 107.865 215.71 108.098 216.77L108.248 217.47L109.108 214.46H110.408L110.188 215.09L110.068 215.4C109.495 217.013 109.065 218.213 108.778 219H107.658C107.578 218.693 107.478 218.297 107.358 217.81C107.172 217.05 107.032 216.487 106.938 216.12C106.858 216.427 106.748 216.87 106.608 217.45C106.435 218.163 106.305 218.68 106.218 219ZM112.457 214.46V219H111.187V214.46H112.457ZM111.037 213.3C111.037 213.087 111.11 212.903 111.257 212.75C111.41 212.59 111.59 212.51 111.797 212.51C112.017 212.51 112.203 212.587 112.357 212.74C112.517 212.893 112.597 213.08 112.597 213.3C112.597 213.533 112.52 213.723 112.367 213.87C112.22 214.017 112.03 214.09 111.797 214.09C111.577 214.09 111.393 214.017 111.247 213.87C111.107 213.717 111.037 213.527 111.037 213.3ZM116.596 215.47H115.296V217.72C115.296 218.053 115.406 218.22 115.626 218.22C115.826 218.22 116.076 218.133 116.376 217.96L116.796 218.6C116.323 218.973 115.8 219.16 115.226 219.16C114.426 219.16 114.026 218.72 114.026 217.84V215.47H113.396V214.46H114.036V213.65C114.37 213.47 114.793 213.247 115.306 212.98V214.46H116.596V215.47ZM117.731 213.24L118.991 212.55V215C119.097 214.793 119.317 214.617 119.651 214.47C119.871 214.377 120.077 214.33 120.271 214.33C120.851 214.33 121.271 214.49 121.531 214.81C121.797 215.123 121.931 215.63 121.931 216.33V219H120.671V216.38C120.671 215.727 120.391 215.4 119.831 215.4C119.424 215.4 119.144 215.513 118.991 215.74V219H117.731V213.24ZM126.941 213.72H125.111V212.67H130.231V213.72H128.261V219H126.941V213.72ZM132.131 214.46L132.251 214.86C132.318 214.72 132.444 214.6 132.631 214.5C132.824 214.393 133.021 214.34 133.221 214.34C133.821 214.34 134.268 214.623 134.561 215.19L133.501 215.77C133.281 215.517 133.048 215.39 132.801 215.39C132.574 215.39 132.408 215.507 132.301 215.74V219H131.061V214.46H132.131ZM138.695 219H137.685L137.585 218.57C137.145 218.937 136.699 219.12 136.245 219.12C135.239 219.12 134.735 218.63 134.735 217.65C134.735 217.163 134.945 216.783 135.365 216.51C135.792 216.23 136.422 216.09 137.255 216.09H137.465V216.07C137.465 215.783 137.405 215.587 137.285 215.48C137.165 215.373 136.949 215.32 136.635 215.32C136.195 215.32 135.792 215.46 135.425 215.74C135.305 215.52 135.192 215.303 135.085 215.09C135.465 214.797 135.795 214.6 136.075 214.5C136.362 214.393 136.702 214.34 137.095 214.34C138.162 214.34 138.695 215.007 138.695 216.34V219ZM137.425 216.86H137.275C136.895 216.86 136.589 216.927 136.355 217.06C136.122 217.193 136.005 217.37 136.005 217.59C136.005 218.003 136.185 218.21 136.545 218.21C136.765 218.21 136.959 218.147 137.125 218.02C137.292 217.893 137.392 217.733 137.425 217.54V216.86ZM143.865 218.42C143.392 218.887 142.832 219.12 142.185 219.12C141.412 219.12 140.798 218.873 140.345 218.38C139.952 217.947 139.755 217.403 139.755 216.75C139.755 216.017 140.008 215.417 140.515 214.95C140.955 214.543 141.492 214.34 142.125 214.34C142.825 214.34 143.388 214.56 143.815 215L143.435 215.68C143.095 215.38 142.725 215.23 142.325 215.23C141.952 215.23 141.645 215.377 141.405 215.67C141.165 215.957 141.045 216.327 141.045 216.78C141.045 217.2 141.162 217.547 141.395 217.82C141.635 218.087 141.938 218.22 142.305 218.22C142.745 218.22 143.122 218.057 143.435 217.73L143.865 218.42ZM148.533 218.42C148.06 218.887 147.5 219.12 146.853 219.12C146.08 219.12 145.466 218.873 145.013 218.38C144.62 217.947 144.423 217.403 144.423 216.75C144.423 216.017 144.676 215.417 145.183 214.95C145.623 214.543 146.16 214.34 146.793 214.34C147.493 214.34 148.056 214.56 148.483 215L148.103 215.68C147.763 215.38 147.393 215.23 146.993 215.23C146.62 215.23 146.313 215.377 146.073 215.67C145.833 215.957 145.713 216.327 145.713 216.78C145.713 217.2 145.83 217.547 146.063 217.82C146.303 218.087 146.606 218.22 146.973 218.22C147.413 218.22 147.79 218.057 148.103 217.73L148.533 218.42ZM153.649 214.46C153.382 215.207 153.015 216.21 152.549 217.47C152.209 218.41 151.942 219.14 151.749 219.66C151.435 220.493 150.995 220.91 150.429 220.91C149.989 220.91 149.535 220.72 149.069 220.34C149.202 220.113 149.315 219.913 149.409 219.74C149.655 219.9 149.872 219.98 150.059 219.98C150.332 219.98 150.575 219.653 150.789 219H150.549L148.959 214.46H150.209C150.282 214.68 150.395 215.023 150.549 215.49L150.609 215.65C150.895 216.517 151.102 217.153 151.229 217.56L152.389 214.46H153.649Z" fill="white"/>
<path d="M40.96 197.36C43.4347 197.36 45.4187 198.544 46.912 200.912C48.1707 202.875 48.8 205.211 48.8 207.92C48.8 211.184 48 213.797 46.4 215.76C44.992 217.509 43.1787 218.384 40.96 218.384C38.4213 218.384 36.4373 217.253 35.008 214.992C33.8133 213.115 33.216 210.757 33.216 207.92C33.216 204.763 34.0053 202.171 35.584 200.144C37.0133 198.288 38.8053 197.36 40.96 197.36ZM41.024 200.944C38.72 200.944 37.568 203.205 37.568 207.728C37.568 210.011 37.8987 211.803 38.56 213.104C39.1573 214.277 39.9467 214.864 40.928 214.864C42.016 214.864 42.8693 214.235 43.488 212.976C44.128 211.696 44.448 209.947 44.448 207.728C44.448 203.205 43.3067 200.944 41.024 200.944ZM59.2793 197.744V218H55.0873V202.512C54.7886 202.704 54.3513 202.971 53.7753 203.312C52.9433 203.803 52.3459 204.176 51.9833 204.432C51.7059 203.963 51.2366 203.184 50.5753 202.096L50.3833 201.808C50.2339 201.531 50.1166 201.328 50.0312 201.2C50.7139 200.709 51.7913 199.973 53.2633 198.992C54.0313 198.48 54.6393 198.064 55.0873 197.744H59.2793Z" fill="white"/>
<defs>
<filter id="filter0_d_1457_318" x="324.211" y="72" width="36.5781" height="50" filterUnits="userSpaceOnUse" color-interpolation-filters="sRGB">
<feFlood flood-opacity="0" result="BackgroundImageFix"/>
<feColorMatrix in="SourceAlpha" type="matrix" values="0 0 0 0 0 0 0 0 0 0 0 0 0 0 0 0 0 0 127 0" result="hardAlpha"/>
<feOffset dy="4"/>
<feGaussianBlur stdDeviation="2"/>
<feComposite in2="hardAlpha" operator="out"/>
<feColorMatrix type="matrix" values="0 0 0 0 0 0 0 0 0 0 0 0 0 0 0 0 0 0 0.25 0"/>
<feBlend mode="normal" in2="BackgroundImageFix" result="effect1_dropShadow_1457_318"/>
<feBlend mode="normal" in="SourceGraphic" in2="effect1_dropShadow_1457_318" result="shape"/>
</filter>
<filter id="filter1_d_1457_318" x="223.211" y="81" width="36.5781" height="41" filterUnits="userSpaceOnUse" color-interpolation-filters="sRGB">
<feFlood flood-opacity="0" result="BackgroundImageFix"/>
<feColorMatrix in="SourceAlpha" type="matrix" values="0 0 0 0 0 0 0 0 0 0 0 0 0 0 0 0 0 0 127 0" result="hardAlpha"/>
<feOffset dy="4"/>
<feGaussianBlur stdDeviation="2"/>
<feComposite in2="hardAlpha" operator="out"/>
<feColorMatrix type="matrix" values="0 0 0 0 0 0 0 0 0 0 0 0 0 0 0 0 0 0 0.25 0"/>
<feBlend mode="normal" in2="BackgroundImageFix" result="effect1_dropShadow_1457_318"/>
<feBlend mode="normal" in="SourceGraphic" in2="effect1_dropShadow_1457_318" result="shape"/>
</filter>
<filter id="filter2_d_1457_318" x="419.211" y="62" width="36.5781" height="59.75" filterUnits="userSpaceOnUse" color-interpolation-filters="sRGB">
<feFlood flood-opacity="0" result="BackgroundImageFix"/>
<feColorMatrix in="SourceAlpha" type="matrix" values="0 0 0 0 0 0 0 0 0 0 0 0 0 0 0 0 0 0 127 0" result="hardAlpha"/>
<feOffset dy="4"/>
<feGaussianBlur stdDeviation="2"/>
<feComposite in2="hardAlpha" operator="out"/>
<feColorMatrix type="matrix" values="0 0 0 0 0 0 0 0 0 0 0 0 0 0 0 0 0 0 0.25 0"/>
<feBlend mode="normal" in2="BackgroundImageFix" result="effect1_dropShadow_1457_318"/>
<feBlend mode="normal" in="SourceGraphic" in2="effect1_dropShadow_1457_318" result="shape"/>
</filter>
<linearGradient id="paint0_linear_1457_318" x1="587" y1="109.5" x2="-4.52241" y2="107.697" gradientUnits="userSpaceOnUse">
<stop stop-opacity="0.79"/>
<stop offset="0.963639" stop-color="#1E1A26" stop-opacity="0.93"/>
</linearGradient>
<linearGradient id="paint1_linear_1457_318" x1="587" y1="166" x2="1" y2="166" gradientUnits="userSpaceOnUse">
<stop stop-color="#36FFF3"/>
<stop offset="0.473958" stop-color="#2300FB"/>
<stop offset="1" stop-color="#B556FF"/>
</linearGradient>
<linearGradient id="paint2_linear_1457_318" x1="342.5" y1="72" x2="342.5" y2="128" gradientUnits="userSpaceOnUse">
<stop stop-color="#AA1FFF"/>
<stop offset="1" stop-color="#C51FFF" stop-opacity="0"/>
</linearGradient>
<linearGradient id="paint3_linear_1457_318" x1="241.5" y1="81" x2="241.5" y2="125" gradientUnits="userSpaceOnUse">
<stop stop-color="#2686DF"/>
<stop offset="1" stop-color="#53DBEE" stop-opacity="0"/>
</linearGradient>
<linearGradient id="paint4_linear_1457_318" x1="57.5" y1="140" x2="226" y2="140" gradientUnits="userSpaceOnUse">
<stop stop-color="#373636"/>
<stop offset="1" stop-color="#5D5F69"/>
</linearGradient>
<linearGradient id="paint5_linear_1457_318" x1="157.5" y1="140" x2="326" y2="140" gradientUnits="userSpaceOnUse">
<stop stop-color="#373636"/>
<stop offset="1" stop-color="#5D5F69"/>
</linearGradient>
<linearGradient id="paint6_linear_1457_318" x1="257.5" y1="140" x2="426" y2="140" gradientUnits="userSpaceOnUse">
<stop stop-color="#373636"/>
<stop offset="1" stop-color="#5D5F69"/>
</linearGradient>
<linearGradient id="paint7_linear_1457_318" x1="357.5" y1="140" x2="526" y2="140" gradientUnits="userSpaceOnUse">
<stop stop-color="#373636"/>
<stop offset="1" stop-color="#5D5F69"/>
</linearGradient>
<linearGradient id="paint8_linear_1457_318" x1="437.5" y1="62" x2="437.5" y2="131" gradientUnits="userSpaceOnUse">
<stop stop-color="#1F78FF"/>
<stop offset="1" stop-color="#231FFF" stop-opacity="0"/>
</linearGradient>
<linearGradient id="paint9_linear_1457_318" x1="141.5" y1="93" x2="141.5" y2="121" gradientUnits="userSpaceOnUse">
<stop stop-color="#1FF2FF"/>
<stop offset="1" stop-color="#1FF2FF" stop-opacity="0"/>
</linearGradient>
</defs>
</svg>
