<svg width="587" height="249" viewBox="0 0 587 249" fill="none" xmlns="http://www.w3.org/2000/svg">
<line x1="512.273" y1="110.581" x2="522.324" y2="117.136" stroke="white"/>
<circle cx="115.5" cy="124.5" r="2.5" fill="#D9D9D9"/>
<circle cx="415.5" cy="90.5" r="2.5" fill="#D9D9D9"/>
<line x1="510.273" y1="107.581" x2="520.324" y2="114.136" stroke="white"/>
<rect x="1" width="586" height="249" fill="url(#paint0_linear_1515_46)" fill-opacity="0.92"/>
<path d="M1 166H587V172H1V166Z" fill="url(#paint1_linear_1515_46)" fill-opacity="0.7"/>
<path d="M207.44 23V11.624C207.608 11.588 208.082 11.54 208.862 11.48C209.642 11.42 210.236 11.39 210.644 11.39C213.548 11.39 215 12.578 215 14.954C215 16.43 214.496 17.51 213.488 18.194C212.816 18.662 212.024 18.896 211.112 18.896C210.392 18.896 209.954 18.848 209.798 18.752V23H207.44ZM209.798 13.406V16.844C210.11 16.964 210.5 17.024 210.968 17.024C211.448 17.024 211.826 16.856 212.102 16.52C212.378 16.172 212.516 15.698 212.516 15.098C212.516 13.886 211.982 13.28 210.914 13.28C210.302 13.28 209.93 13.322 209.798 13.406ZM221.607 11.39C223.359 11.39 224.709 12.086 225.657 13.478C226.401 14.57 226.773 15.89 226.773 17.438C226.773 19.214 226.287 20.636 225.315 21.704C224.391 22.712 223.155 23.216 221.607 23.216C219.831 23.216 218.481 22.568 217.557 21.272C216.813 20.252 216.441 18.974 216.441 17.438C216.441 15.638 216.927 14.168 217.899 13.028C218.823 11.936 220.059 11.39 221.607 11.39ZM221.607 21.236C222.471 21.236 223.137 20.912 223.605 20.264C224.073 19.604 224.307 18.662 224.307 17.438C224.307 16.13 224.049 15.11 223.533 14.378C223.053 13.73 222.411 13.406 221.607 13.406C220.743 13.406 220.071 13.76 219.591 14.468C219.123 15.176 218.889 16.166 218.889 17.438C218.889 19.97 219.795 21.236 221.607 21.236ZM229.736 11.606L232.364 19.202L234.992 11.606H237.422L233.264 23H231.464L227.324 11.606H229.736ZM238.634 11.606H246.086V13.496H240.992V16.178H245.24V18.068H240.992V21.11H246.32V23H238.634V11.606ZM248.028 23V11.624C248.196 11.588 248.67 11.54 249.45 11.48C250.23 11.42 250.824 11.39 251.232 11.39C254.136 11.39 255.588 12.578 255.588 14.954C255.588 16.238 255.066 17.33 254.022 18.23C254.454 19.226 255.192 20.816 256.236 23H253.86C253.272 21.716 252.636 20.336 251.952 18.86C251.82 18.884 251.64 18.896 251.412 18.896C250.884 18.896 250.542 18.848 250.386 18.752V23H248.028ZM250.386 13.406V16.844C250.746 16.952 251.136 17.006 251.556 17.006C252.588 17.006 253.104 16.322 253.104 14.954C253.104 13.838 252.57 13.28 251.502 13.28C250.89 13.28 250.518 13.322 250.386 13.406ZM259.609 13.496H256.315V11.606H265.531V13.496H261.985V23H259.609V13.496ZM265.891 11.606H268.429C269.269 13.31 270.121 15.014 270.985 16.718L273.487 11.606H276.025L272.155 18.5V23H269.797V18.5C268.429 16.1 267.127 13.802 265.891 11.606ZM281.883 23V11.624C282.051 11.588 282.525 11.54 283.305 11.48C284.085 11.42 284.679 11.39 285.087 11.39C287.991 11.39 289.443 12.578 289.443 14.954C289.443 16.238 288.921 17.33 287.877 18.23C288.309 19.226 289.047 20.816 290.091 23H287.715C287.127 21.716 286.491 20.336 285.807 18.86C285.675 18.884 285.495 18.896 285.267 18.896C284.739 18.896 284.397 18.848 284.241 18.752V23H281.883ZM284.241 13.406V16.844C284.601 16.952 284.991 17.006 285.411 17.006C286.443 17.006 286.959 16.322 286.959 14.954C286.959 13.838 286.425 13.28 285.357 13.28C284.745 13.28 284.373 13.322 284.241 13.406ZM291.052 11.606H298.504V13.496H293.41V16.178H297.658V18.068H293.41V21.11H298.738V23H291.052V11.606ZM300.446 11.624C301.034 11.468 302.072 11.39 303.56 11.39C305.612 11.39 307.178 11.99 308.258 13.19C309.182 14.21 309.644 15.542 309.644 17.186C309.644 19.238 309.056 20.78 307.88 21.812C306.812 22.748 305.324 23.216 303.416 23.216C302.216 23.216 301.226 23.138 300.446 22.982V11.624ZM302.804 21.272C303.044 21.332 303.344 21.362 303.704 21.362C306.02 21.362 307.178 19.994 307.178 17.258C307.178 15.902 306.794 14.864 306.026 14.144C305.402 13.568 304.61 13.28 303.65 13.28C303.374 13.28 303.092 13.31 302.804 13.37V21.272ZM320.585 18.212C320.585 21.548 319.121 23.216 316.193 23.216C313.265 23.216 311.801 21.548 311.801 18.212V11.606H314.177V18.536C314.177 20.336 314.849 21.236 316.193 21.236C317.561 21.236 318.245 20.336 318.245 18.536V11.606H320.585V18.212ZM331.609 21.722C330.613 22.718 329.443 23.216 328.099 23.216C326.167 23.216 324.727 22.496 323.779 21.056C323.095 20.024 322.753 18.812 322.753 17.42C322.753 15.608 323.221 14.15 324.157 13.046C325.081 11.942 326.365 11.39 328.009 11.39C329.161 11.39 330.313 11.876 331.465 12.848L330.547 14.342C329.683 13.718 328.897 13.406 328.189 13.406C327.205 13.406 326.443 13.82 325.903 14.648C325.435 15.356 325.201 16.28 325.201 17.42C325.201 18.428 325.477 19.292 326.029 20.012C326.617 20.768 327.403 21.146 328.387 21.146C329.035 21.146 329.803 20.864 330.691 20.3L331.609 21.722ZM336.618 11.606H338.598L342.792 23H340.398C340.194 22.4 339.942 21.608 339.642 20.624H335.556C335.388 21.164 335.13 21.956 334.782 23H332.424L336.618 11.606ZM337.626 14.684C337.29 15.632 336.828 16.964 336.24 18.68H338.976C338.412 17.024 337.962 15.692 337.626 14.684ZM345.267 13.496H341.973V11.606H351.189V13.496H347.643V23H345.267V13.496ZM355.221 11.606V23H352.899V11.606H355.221ZM362.548 11.39C364.3 11.39 365.65 12.086 366.598 13.478C367.342 14.57 367.714 15.89 367.714 17.438C367.714 19.214 367.228 20.636 366.256 21.704C365.332 22.712 364.096 23.216 362.548 23.216C360.772 23.216 359.422 22.568 358.498 21.272C357.754 20.252 357.382 18.974 357.382 17.438C357.382 15.638 357.868 14.168 358.84 13.028C359.764 11.936 361 11.39 362.548 11.39ZM362.548 21.236C363.412 21.236 364.078 20.912 364.546 20.264C365.014 19.604 365.248 18.662 365.248 17.438C365.248 16.13 364.99 15.11 364.474 14.378C363.994 13.73 363.352 13.406 362.548 13.406C361.684 13.406 361.012 13.76 360.532 14.468C360.064 15.176 359.83 16.166 359.83 17.438C359.83 19.97 360.736 21.236 362.548 21.236ZM372.201 15.368V23H369.879V11.606H371.841C373.761 14.102 375.669 16.724 377.565 19.472V11.606H379.923V23H377.907C376.779 21.668 374.877 19.124 372.201 15.368Z" fill="white"/>
<circle cx="439.5" cy="68.5" r="2.5" fill="#D9D9D9"/>
<circle cx="342.5" cy="84.5" r="2.5" fill="#D9D9D9"/>
<circle cx="241.5" cy="95.5" r="2.5" fill="#D9D9D9"/>
<path d="M134.6 48V47.208L136.724 44.88C137.244 44.304 137.608 43.832 137.816 43.464C138.024 43.088 138.128 42.712 138.128 42.336C138.128 41.944 137.992 41.628 137.72 41.388C137.456 41.148 137.104 41.028 136.664 41.028C136.136 41.028 135.616 41.196 135.104 41.532L134.732 41.004C135.396 40.5 136.108 40.248 136.868 40.248C137.54 40.248 138.084 40.46 138.5 40.884C138.884 41.268 139.076 41.752 139.076 42.336C139.076 42.76 138.96 43.176 138.728 43.584C138.504 43.984 138.08 44.532 137.456 45.228L135.644 47.244H138.932V48H134.6ZM145.79 44.22C145.79 45.476 145.514 46.464 144.962 47.184C144.482 47.824 143.85 48.144 143.066 48.144C142.162 48.144 141.462 47.732 140.966 46.908C140.55 46.204 140.342 45.308 140.342 44.22C140.342 43.004 140.618 42.024 141.17 41.28C141.666 40.6 142.298 40.26 143.066 40.26C143.938 40.26 144.63 40.692 145.142 41.556C145.574 42.284 145.79 43.172 145.79 44.22ZM143.054 41.028C142.502 41.028 142.07 41.304 141.758 41.856C141.446 42.408 141.29 43.172 141.29 44.148C141.29 45.188 141.458 45.996 141.794 46.572C142.106 47.1 142.526 47.364 143.054 47.364C143.606 47.364 144.042 47.08 144.362 46.512C144.682 45.936 144.842 45.148 144.842 44.148C144.842 43.124 144.666 42.336 144.314 41.784C144.002 41.28 143.582 41.028 143.054 41.028ZM146.987 48V47.208L149.111 44.88C149.631 44.304 149.995 43.832 150.203 43.464C150.411 43.088 150.515 42.712 150.515 42.336C150.515 41.944 150.379 41.628 150.107 41.388C149.843 41.148 149.491 41.028 149.051 41.028C148.523 41.028 148.003 41.196 147.491 41.532L147.119 41.004C147.783 40.5 148.495 40.248 149.255 40.248C149.927 40.248 150.471 40.46 150.887 40.884C151.271 41.268 151.463 41.752 151.463 42.336C151.463 42.76 151.347 43.176 151.115 43.584C150.891 43.984 150.467 44.532 149.843 45.228L148.031 47.244H151.319V48H146.987ZM153.172 41.544L152.812 41.016C153.38 40.512 154.06 40.26 154.852 40.26C155.5 40.26 156.036 40.452 156.46 40.836C156.852 41.196 157.048 41.656 157.048 42.216C157.048 42.616 156.928 42.972 156.688 43.284C156.448 43.588 156.132 43.788 155.74 43.884C156.244 44.004 156.64 44.236 156.928 44.58C157.216 44.924 157.36 45.34 157.36 45.828C157.36 46.636 157.056 47.252 156.448 47.676C156 47.98 155.472 48.132 154.864 48.132C154.096 48.132 153.38 47.868 152.716 47.34L153.1 46.824C153.604 47.176 154.156 47.352 154.756 47.352C155.252 47.352 155.652 47.212 155.956 46.932C156.26 46.652 156.412 46.28 156.412 45.816C156.412 44.832 155.824 44.34 154.648 44.34H153.664V43.584H154.648C155.096 43.584 155.448 43.468 155.704 43.236C155.968 43.004 156.1 42.684 156.1 42.276C156.1 41.436 155.632 41.016 154.696 41.016C154.208 41.016 153.7 41.192 153.172 41.544Z" fill="white"/>
<path d="M428.6 48V47.208L430.724 44.88C431.244 44.304 431.608 43.832 431.816 43.464C432.024 43.088 432.128 42.712 432.128 42.336C432.128 41.944 431.992 41.628 431.72 41.388C431.456 41.148 431.104 41.028 430.664 41.028C430.136 41.028 429.616 41.196 429.104 41.532L428.732 41.004C429.396 40.5 430.108 40.248 430.868 40.248C431.54 40.248 432.084 40.46 432.5 40.884C432.884 41.268 433.076 41.752 433.076 42.336C433.076 42.76 432.96 43.176 432.728 43.584C432.504 43.984 432.08 44.532 431.456 45.228L429.644 47.244H432.932V48H428.6ZM439.79 44.22C439.79 45.476 439.514 46.464 438.962 47.184C438.482 47.824 437.85 48.144 437.066 48.144C436.162 48.144 435.462 47.732 434.966 46.908C434.55 46.204 434.342 45.308 434.342 44.22C434.342 43.004 434.618 42.024 435.17 41.28C435.666 40.6 436.298 40.26 437.066 40.26C437.938 40.26 438.63 40.692 439.142 41.556C439.574 42.284 439.79 43.172 439.79 44.22ZM437.054 41.028C436.502 41.028 436.07 41.304 435.758 41.856C435.446 42.408 435.29 43.172 435.29 44.148C435.29 45.188 435.458 45.996 435.794 46.572C436.106 47.1 436.526 47.364 437.054 47.364C437.606 47.364 438.042 47.08 438.362 46.512C438.682 45.936 438.842 45.148 438.842 44.148C438.842 43.124 438.666 42.336 438.314 41.784C438.002 41.28 437.582 41.028 437.054 41.028ZM440.987 48V47.208L443.111 44.88C443.631 44.304 443.995 43.832 444.203 43.464C444.411 43.088 444.515 42.712 444.515 42.336C444.515 41.944 444.379 41.628 444.107 41.388C443.843 41.148 443.491 41.028 443.051 41.028C442.523 41.028 442.003 41.196 441.491 41.532L441.119 41.004C441.783 40.5 442.495 40.248 443.255 40.248C443.927 40.248 444.471 40.46 444.887 40.884C445.271 41.268 445.463 41.752 445.463 42.336C445.463 42.76 445.347 43.176 445.115 43.584C444.891 43.984 444.467 44.532 443.843 45.228L442.031 47.244H445.319V48H440.987ZM451.408 40.86L451.096 41.364C450.672 41.14 450.212 41.028 449.716 41.028C449.18 41.028 448.744 41.272 448.408 41.76C448.072 42.248 447.888 42.904 447.856 43.728C448.288 43.28 448.804 43.056 449.404 43.056C450.044 43.056 450.576 43.264 451 43.68C451.464 44.128 451.696 44.756 451.696 45.564C451.696 46.284 451.464 46.9 451 47.412C450.568 47.9 450.024 48.144 449.368 48.144C448.488 48.144 447.832 47.724 447.4 46.884C447.064 46.236 446.896 45.432 446.896 44.472C446.896 43.112 447.176 42.048 447.736 41.28C448.232 40.6 448.876 40.26 449.668 40.26C450.324 40.26 450.904 40.46 451.408 40.86ZM447.808 44.556C447.816 45.476 447.968 46.192 448.264 46.704C448.536 47.16 448.9 47.388 449.356 47.388C449.772 47.388 450.108 47.224 450.364 46.896C450.62 46.56 450.748 46.116 450.748 45.564C450.748 44.988 450.616 44.544 450.352 44.232C450.088 43.92 449.72 43.764 449.248 43.764C448.648 43.764 448.168 44.028 447.808 44.556Z" fill="white"/>
<path d="M331.6 47V46.208L333.724 43.88C334.244 43.304 334.608 42.832 334.816 42.464C335.024 42.088 335.128 41.712 335.128 41.336C335.128 40.944 334.992 40.628 334.72 40.388C334.456 40.148 334.104 40.028 333.664 40.028C333.136 40.028 332.616 40.196 332.104 40.532L331.732 40.004C332.396 39.5 333.108 39.248 333.868 39.248C334.54 39.248 335.084 39.46 335.5 39.884C335.884 40.268 336.076 40.752 336.076 41.336C336.076 41.76 335.96 42.176 335.728 42.584C335.504 42.984 335.08 43.532 334.456 44.228L332.644 46.244H335.932V47H331.6ZM342.79 43.22C342.79 44.476 342.514 45.464 341.962 46.184C341.482 46.824 340.85 47.144 340.066 47.144C339.162 47.144 338.462 46.732 337.966 45.908C337.55 45.204 337.342 44.308 337.342 43.22C337.342 42.004 337.618 41.024 338.17 40.28C338.666 39.6 339.298 39.26 340.066 39.26C340.938 39.26 341.63 39.692 342.142 40.556C342.574 41.284 342.79 42.172 342.79 43.22ZM340.054 40.028C339.502 40.028 339.07 40.304 338.758 40.856C338.446 41.408 338.29 42.172 338.29 43.148C338.29 44.188 338.458 44.996 338.794 45.572C339.106 46.1 339.526 46.364 340.054 46.364C340.606 46.364 341.042 46.08 341.362 45.512C341.682 44.936 341.842 44.148 341.842 43.148C341.842 42.124 341.666 41.336 341.314 40.784C341.002 40.28 340.582 40.028 340.054 40.028ZM343.987 47V46.208L346.111 43.88C346.631 43.304 346.995 42.832 347.203 42.464C347.411 42.088 347.515 41.712 347.515 41.336C347.515 40.944 347.379 40.628 347.107 40.388C346.843 40.148 346.491 40.028 346.051 40.028C345.523 40.028 345.003 40.196 344.491 40.532L344.119 40.004C344.783 39.5 345.495 39.248 346.255 39.248C346.927 39.248 347.471 39.46 347.887 39.884C348.271 40.268 348.463 40.752 348.463 41.336C348.463 41.76 348.347 42.176 348.115 42.584C347.891 42.984 347.467 43.532 346.843 44.228L345.031 46.244H348.319V47H343.987ZM354.072 40.16H351.168V42.296C351.408 42.256 351.688 42.236 352.008 42.236C352.816 42.236 353.456 42.46 353.928 42.908C354.368 43.332 354.588 43.904 354.588 44.624C354.588 45.416 354.304 46.056 353.736 46.544C353.272 46.944 352.72 47.144 352.08 47.144C351.24 47.144 350.512 46.88 349.896 46.352L350.244 45.836C350.748 46.18 351.296 46.352 351.888 46.352C352.44 46.352 352.872 46.204 353.184 45.908C353.496 45.604 353.652 45.18 353.652 44.636C353.652 44.1 353.484 43.684 353.148 43.388C352.812 43.092 352.344 42.944 351.744 42.944C351.344 42.944 350.856 42.996 350.28 43.1V39.404H354.072V40.16Z" fill="white"/>
<path d="M232.6 48V47.208L234.724 44.88C235.244 44.304 235.608 43.832 235.816 43.464C236.024 43.088 236.128 42.712 236.128 42.336C236.128 41.944 235.992 41.628 235.72 41.388C235.456 41.148 235.104 41.028 234.664 41.028C234.136 41.028 233.616 41.196 233.104 41.532L232.732 41.004C233.396 40.5 234.108 40.248 234.868 40.248C235.54 40.248 236.084 40.46 236.5 40.884C236.884 41.268 237.076 41.752 237.076 42.336C237.076 42.76 236.96 43.176 236.728 43.584C236.504 43.984 236.08 44.532 235.456 45.228L233.644 47.244H236.932V48H232.6ZM243.79 44.22C243.79 45.476 243.514 46.464 242.962 47.184C242.482 47.824 241.85 48.144 241.066 48.144C240.162 48.144 239.462 47.732 238.966 46.908C238.55 46.204 238.342 45.308 238.342 44.22C238.342 43.004 238.618 42.024 239.17 41.28C239.666 40.6 240.298 40.26 241.066 40.26C241.938 40.26 242.63 40.692 243.142 41.556C243.574 42.284 243.79 43.172 243.79 44.22ZM241.054 41.028C240.502 41.028 240.07 41.304 239.758 41.856C239.446 42.408 239.29 43.172 239.29 44.148C239.29 45.188 239.458 45.996 239.794 46.572C240.106 47.1 240.526 47.364 241.054 47.364C241.606 47.364 242.042 47.08 242.362 46.512C242.682 45.936 242.842 45.148 242.842 44.148C242.842 43.124 242.666 42.336 242.314 41.784C242.002 41.28 241.582 41.028 241.054 41.028ZM244.987 48V47.208L247.111 44.88C247.631 44.304 247.995 43.832 248.203 43.464C248.411 43.088 248.515 42.712 248.515 42.336C248.515 41.944 248.379 41.628 248.107 41.388C247.843 41.148 247.491 41.028 247.051 41.028C246.523 41.028 246.003 41.196 245.491 41.532L245.119 41.004C245.783 40.5 246.495 40.248 247.255 40.248C247.927 40.248 248.471 40.46 248.887 40.884C249.271 41.268 249.463 41.752 249.463 42.336C249.463 42.76 249.347 43.176 249.115 43.584C248.891 43.984 248.467 44.532 247.843 45.228L246.031 47.244H249.319V48H244.987ZM250.572 45.624L253.98 40.404H254.916V45.624H256.308V46.38H254.916V48H254.04V46.38H250.572V45.624ZM251.46 45.624H254.04V41.628L251.46 45.624Z" fill="white"/>
<rect x="94" y="114" width="100" height="52" fill="url(#paint2_linear_1515_46)"/>
<rect x="194" y="114" width="100" height="52" fill="url(#paint3_linear_1515_46)"/>
<rect x="294" y="114" width="100" height="52" fill="url(#paint4_linear_1515_46)"/>
<rect x="394" y="114" width="100" height="52" fill="url(#paint5_linear_1515_46)"/>
<path d="M126.8 154V147.68C126.893 147.66 127.157 147.633 127.59 147.6C128.023 147.567 128.353 147.55 128.58 147.55C130.193 147.55 131 148.21 131 149.53C131 150.35 130.72 150.95 130.16 151.33C129.787 151.59 129.347 151.72 128.84 151.72C128.44 151.72 128.197 151.693 128.11 151.64V154H126.8ZM128.11 148.67V150.58C128.283 150.647 128.5 150.68 128.76 150.68C129.027 150.68 129.237 150.587 129.39 150.4C129.543 150.207 129.62 149.943 129.62 149.61C129.62 148.937 129.323 148.6 128.73 148.6C128.39 148.6 128.183 148.623 128.11 148.67ZM133.738 149.34C134.484 149.34 135.064 149.603 135.478 150.13C135.824 150.57 135.998 151.107 135.998 151.74C135.998 152.48 135.741 153.08 135.228 153.54C134.801 153.927 134.304 154.12 133.738 154.12C133.078 154.12 132.524 153.873 132.078 153.38C131.678 152.933 131.478 152.387 131.478 151.74C131.478 151.007 131.701 150.413 132.148 149.96C132.554 149.547 133.084 149.34 133.738 149.34ZM133.738 153.18C134.384 153.18 134.708 152.7 134.708 151.74C134.708 150.74 134.384 150.24 133.738 150.24C133.091 150.24 132.768 150.74 132.768 151.74C132.768 152.7 133.091 153.18 133.738 153.18ZM139.711 150.56C139.384 150.347 139.011 150.24 138.591 150.24C138.271 150.24 138.111 150.377 138.111 150.65C138.111 150.903 138.328 151.083 138.761 151.19C139.301 151.323 139.668 151.473 139.861 151.64C140.141 151.88 140.281 152.24 140.281 152.72C140.281 153.147 140.128 153.487 139.821 153.74C139.521 153.993 139.114 154.12 138.601 154.12C137.874 154.12 137.261 153.913 136.761 153.5L137.221 152.8C137.568 153.073 137.984 153.21 138.471 153.21C138.664 153.21 138.821 153.163 138.941 153.07C139.061 152.977 139.121 152.853 139.121 152.7C139.121 152.42 138.884 152.237 138.411 152.15C137.398 151.957 136.891 151.463 136.891 150.67C136.891 150.29 137.044 149.973 137.351 149.72C137.664 149.467 138.054 149.34 138.521 149.34C139.154 149.34 139.704 149.523 140.171 149.89L139.711 150.56ZM142.558 149.46V154H141.288V149.46H142.558ZM141.138 148.3C141.138 148.087 141.212 147.903 141.358 147.75C141.512 147.59 141.692 147.51 141.898 147.51C142.118 147.51 142.305 147.587 142.458 147.74C142.618 147.893 142.698 148.08 142.698 148.3C142.698 148.533 142.622 148.723 142.468 148.87C142.322 149.017 142.132 149.09 141.898 149.09C141.678 149.09 141.495 149.017 141.348 148.87C141.208 148.717 141.138 148.527 141.138 148.3ZM146.698 150.47H145.398V152.72C145.398 153.053 145.508 153.22 145.728 153.22C145.928 153.22 146.178 153.133 146.478 152.96L146.898 153.6C146.424 153.973 145.901 154.16 145.328 154.16C144.528 154.16 144.128 153.72 144.128 152.84V150.47H143.498V149.46H144.138V148.65C144.471 148.47 144.894 148.247 145.408 147.98V149.46H146.698V150.47ZM149.052 149.46V154H147.782V149.46H149.052ZM147.632 148.3C147.632 148.087 147.706 147.903 147.852 147.75C148.006 147.59 148.186 147.51 148.392 147.51C148.612 147.51 148.799 147.587 148.952 147.74C149.112 147.893 149.192 148.08 149.192 148.3C149.192 148.533 149.116 148.723 148.962 148.87C148.816 149.017 148.626 149.09 148.392 149.09C148.172 149.09 147.989 149.017 147.842 148.87C147.702 148.717 147.632 148.527 147.632 148.3ZM152.312 149.34C153.059 149.34 153.639 149.603 154.052 150.13C154.399 150.57 154.572 151.107 154.572 151.74C154.572 152.48 154.315 153.08 153.802 153.54C153.375 153.927 152.879 154.12 152.312 154.12C151.652 154.12 151.099 153.873 150.652 153.38C150.252 152.933 150.052 152.387 150.052 151.74C150.052 151.007 150.275 150.413 150.722 149.96C151.129 149.547 151.659 149.34 152.312 149.34ZM152.312 153.18C152.959 153.18 153.282 152.7 153.282 151.74C153.282 150.74 152.959 150.24 152.312 150.24C151.665 150.24 151.342 150.74 151.342 151.74C151.342 152.7 151.665 153.18 152.312 153.18ZM156.855 149.9C156.988 149.747 157.188 149.617 157.455 149.51C157.722 149.397 157.975 149.34 158.215 149.34C158.788 149.34 159.202 149.497 159.455 149.81C159.715 150.123 159.845 150.63 159.845 151.33V154H158.575V151.38C158.575 150.727 158.285 150.4 157.705 150.4C157.558 150.4 157.402 150.433 157.235 150.5C157.068 150.56 156.955 150.63 156.895 150.71V154H155.635V149.46H156.705C156.738 149.633 156.772 149.78 156.805 149.9H156.855ZM163.803 150.56C163.476 150.347 163.103 150.24 162.683 150.24C162.363 150.24 162.203 150.377 162.203 150.65C162.203 150.903 162.419 151.083 162.853 151.19C163.393 151.323 163.759 151.473 163.953 151.64C164.233 151.88 164.373 152.24 164.373 152.72C164.373 153.147 164.219 153.487 163.913 153.74C163.613 153.993 163.206 154.12 162.693 154.12C161.966 154.12 161.353 153.913 160.853 153.5L161.313 152.8C161.659 153.073 162.076 153.21 162.563 153.21C162.756 153.21 162.913 153.163 163.033 153.07C163.153 152.977 163.213 152.853 163.213 152.7C163.213 152.42 162.976 152.237 162.503 152.15C161.489 151.957 160.983 151.463 160.983 150.67C160.983 150.29 161.136 149.973 161.443 149.72C161.756 149.467 162.146 149.34 162.613 149.34C163.246 149.34 163.796 149.523 164.263 149.89L163.803 150.56Z" fill="white"/>
<path d="M324.8 154V147.68C324.893 147.66 325.157 147.633 325.59 147.6C326.023 147.567 326.353 147.55 326.58 147.55C328.193 147.55 329 148.21 329 149.53C329 150.35 328.72 150.95 328.16 151.33C327.787 151.59 327.347 151.72 326.84 151.72C326.44 151.72 326.197 151.693 326.11 151.64V154H324.8ZM326.11 148.67V150.58C326.283 150.647 326.5 150.68 326.76 150.68C327.027 150.68 327.237 150.587 327.39 150.4C327.543 150.207 327.62 149.943 327.62 149.61C327.62 148.937 327.323 148.6 326.73 148.6C326.39 148.6 326.183 148.623 326.11 148.67ZM331.738 149.34C332.484 149.34 333.064 149.603 333.478 150.13C333.824 150.57 333.998 151.107 333.998 151.74C333.998 152.48 333.741 153.08 333.228 153.54C332.801 153.927 332.304 154.12 331.738 154.12C331.078 154.12 330.524 153.873 330.078 153.38C329.678 152.933 329.478 152.387 329.478 151.74C329.478 151.007 329.701 150.413 330.148 149.96C330.554 149.547 331.084 149.34 331.738 149.34ZM331.738 153.18C332.384 153.18 332.708 152.7 332.708 151.74C332.708 150.74 332.384 150.24 331.738 150.24C331.091 150.24 330.768 150.74 330.768 151.74C330.768 152.7 331.091 153.18 331.738 153.18ZM337.711 150.56C337.384 150.347 337.011 150.24 336.591 150.24C336.271 150.24 336.111 150.377 336.111 150.65C336.111 150.903 336.328 151.083 336.761 151.19C337.301 151.323 337.668 151.473 337.861 151.64C338.141 151.88 338.281 152.24 338.281 152.72C338.281 153.147 338.128 153.487 337.821 153.74C337.521 153.993 337.114 154.12 336.601 154.12C335.874 154.12 335.261 153.913 334.761 153.5L335.221 152.8C335.568 153.073 335.984 153.21 336.471 153.21C336.664 153.21 336.821 153.163 336.941 153.07C337.061 152.977 337.121 152.853 337.121 152.7C337.121 152.42 336.884 152.237 336.411 152.15C335.398 151.957 334.891 151.463 334.891 150.67C334.891 150.29 335.044 149.973 335.351 149.72C335.664 149.467 336.054 149.34 336.521 149.34C337.154 149.34 337.704 149.523 338.171 149.89L337.711 150.56ZM340.558 149.46V154H339.288V149.46H340.558ZM339.138 148.3C339.138 148.087 339.212 147.903 339.358 147.75C339.512 147.59 339.692 147.51 339.898 147.51C340.118 147.51 340.305 147.587 340.458 147.74C340.618 147.893 340.698 148.08 340.698 148.3C340.698 148.533 340.622 148.723 340.468 148.87C340.322 149.017 340.132 149.09 339.898 149.09C339.678 149.09 339.495 149.017 339.348 148.87C339.208 148.717 339.138 148.527 339.138 148.3ZM344.698 150.47H343.398V152.72C343.398 153.053 343.508 153.22 343.728 153.22C343.928 153.22 344.178 153.133 344.478 152.96L344.898 153.6C344.424 153.973 343.901 154.16 343.328 154.16C342.528 154.16 342.128 153.72 342.128 152.84V150.47H341.498V149.46H342.138V148.65C342.471 148.47 342.894 148.247 343.408 147.98V149.46H344.698V150.47ZM347.052 149.46V154H345.782V149.46H347.052ZM345.632 148.3C345.632 148.087 345.706 147.903 345.852 147.75C346.006 147.59 346.186 147.51 346.392 147.51C346.612 147.51 346.799 147.587 346.952 147.74C347.112 147.893 347.192 148.08 347.192 148.3C347.192 148.533 347.116 148.723 346.962 148.87C346.816 149.017 346.626 149.09 346.392 149.09C346.172 149.09 345.989 149.017 345.842 148.87C345.702 148.717 345.632 148.527 345.632 148.3ZM350.312 149.34C351.059 149.34 351.639 149.603 352.052 150.13C352.399 150.57 352.572 151.107 352.572 151.74C352.572 152.48 352.315 153.08 351.802 153.54C351.375 153.927 350.879 154.12 350.312 154.12C349.652 154.12 349.099 153.873 348.652 153.38C348.252 152.933 348.052 152.387 348.052 151.74C348.052 151.007 348.275 150.413 348.722 149.96C349.129 149.547 349.659 149.34 350.312 149.34ZM350.312 153.18C350.959 153.18 351.282 152.7 351.282 151.74C351.282 150.74 350.959 150.24 350.312 150.24C349.665 150.24 349.342 150.74 349.342 151.74C349.342 152.7 349.665 153.18 350.312 153.18ZM354.855 149.9C354.988 149.747 355.188 149.617 355.455 149.51C355.722 149.397 355.975 149.34 356.215 149.34C356.788 149.34 357.202 149.497 357.455 149.81C357.715 150.123 357.845 150.63 357.845 151.33V154H356.575V151.38C356.575 150.727 356.285 150.4 355.705 150.4C355.558 150.4 355.402 150.433 355.235 150.5C355.068 150.56 354.955 150.63 354.895 150.71V154H353.635V149.46H354.705C354.738 149.633 354.772 149.78 354.805 149.9H354.855ZM361.803 150.56C361.476 150.347 361.103 150.24 360.683 150.24C360.363 150.24 360.203 150.377 360.203 150.65C360.203 150.903 360.419 151.083 360.853 151.19C361.393 151.323 361.759 151.473 361.953 151.64C362.233 151.88 362.373 152.24 362.373 152.72C362.373 153.147 362.219 153.487 361.913 153.74C361.613 153.993 361.206 154.12 360.693 154.12C359.966 154.12 359.353 153.913 358.853 153.5L359.313 152.8C359.659 153.073 360.076 153.21 360.563 153.21C360.756 153.21 360.913 153.163 361.033 153.07C361.153 152.977 361.213 152.853 361.213 152.7C361.213 152.42 360.976 152.237 360.503 152.15C359.489 151.957 358.983 151.463 358.983 150.67C358.983 150.29 359.136 149.973 359.443 149.72C359.756 149.467 360.146 149.34 360.613 149.34C361.246 149.34 361.796 149.523 362.263 149.89L361.803 150.56Z" fill="white"/>
<path d="M424.8 153V146.68C424.893 146.66 425.157 146.633 425.59 146.6C426.023 146.567 426.353 146.55 426.58 146.55C428.193 146.55 429 147.21 429 148.53C429 149.35 428.72 149.95 428.16 150.33C427.787 150.59 427.347 150.72 426.84 150.72C426.44 150.72 426.197 150.693 426.11 150.64V153H424.8ZM426.11 147.67V149.58C426.283 149.647 426.5 149.68 426.76 149.68C427.027 149.68 427.237 149.587 427.39 149.4C427.543 149.207 427.62 148.943 427.62 148.61C427.62 147.937 427.323 147.6 426.73 147.6C426.39 147.6 426.183 147.623 426.11 147.67ZM431.738 148.34C432.484 148.34 433.064 148.603 433.478 149.13C433.824 149.57 433.998 150.107 433.998 150.74C433.998 151.48 433.741 152.08 433.228 152.54C432.801 152.927 432.304 153.12 431.738 153.12C431.078 153.12 430.524 152.873 430.078 152.38C429.678 151.933 429.478 151.387 429.478 150.74C429.478 150.007 429.701 149.413 430.148 148.96C430.554 148.547 431.084 148.34 431.738 148.34ZM431.738 152.18C432.384 152.18 432.708 151.7 432.708 150.74C432.708 149.74 432.384 149.24 431.738 149.24C431.091 149.24 430.768 149.74 430.768 150.74C430.768 151.7 431.091 152.18 431.738 152.18ZM437.711 149.56C437.384 149.347 437.011 149.24 436.591 149.24C436.271 149.24 436.111 149.377 436.111 149.65C436.111 149.903 436.328 150.083 436.761 150.19C437.301 150.323 437.668 150.473 437.861 150.64C438.141 150.88 438.281 151.24 438.281 151.72C438.281 152.147 438.128 152.487 437.821 152.74C437.521 152.993 437.114 153.12 436.601 153.12C435.874 153.12 435.261 152.913 434.761 152.5L435.221 151.8C435.568 152.073 435.984 152.21 436.471 152.21C436.664 152.21 436.821 152.163 436.941 152.07C437.061 151.977 437.121 151.853 437.121 151.7C437.121 151.42 436.884 151.237 436.411 151.15C435.398 150.957 434.891 150.463 434.891 149.67C434.891 149.29 435.044 148.973 435.351 148.72C435.664 148.467 436.054 148.34 436.521 148.34C437.154 148.34 437.704 148.523 438.171 148.89L437.711 149.56ZM440.558 148.46V153H439.288V148.46H440.558ZM439.138 147.3C439.138 147.087 439.212 146.903 439.358 146.75C439.512 146.59 439.692 146.51 439.898 146.51C440.118 146.51 440.305 146.587 440.458 146.74C440.618 146.893 440.698 147.08 440.698 147.3C440.698 147.533 440.622 147.723 440.468 147.87C440.322 148.017 440.132 148.09 439.898 148.09C439.678 148.09 439.495 148.017 439.348 147.87C439.208 147.717 439.138 147.527 439.138 147.3ZM444.698 149.47H443.398V151.72C443.398 152.053 443.508 152.22 443.728 152.22C443.928 152.22 444.178 152.133 444.478 151.96L444.898 152.6C444.424 152.973 443.901 153.16 443.328 153.16C442.528 153.16 442.128 152.72 442.128 151.84V149.47H441.498V148.46H442.138V147.65C442.471 147.47 442.894 147.247 443.408 146.98V148.46H444.698V149.47ZM447.052 148.46V153H445.782V148.46H447.052ZM445.632 147.3C445.632 147.087 445.706 146.903 445.852 146.75C446.006 146.59 446.186 146.51 446.392 146.51C446.612 146.51 446.799 146.587 446.952 146.74C447.112 146.893 447.192 147.08 447.192 147.3C447.192 147.533 447.116 147.723 446.962 147.87C446.816 148.017 446.626 148.09 446.392 148.09C446.172 148.09 445.989 148.017 445.842 147.87C445.702 147.717 445.632 147.527 445.632 147.3ZM450.312 148.34C451.059 148.34 451.639 148.603 452.052 149.13C452.399 149.57 452.572 150.107 452.572 150.74C452.572 151.48 452.315 152.08 451.802 152.54C451.375 152.927 450.879 153.12 450.312 153.12C449.652 153.12 449.099 152.873 448.652 152.38C448.252 151.933 448.052 151.387 448.052 150.74C448.052 150.007 448.275 149.413 448.722 148.96C449.129 148.547 449.659 148.34 450.312 148.34ZM450.312 152.18C450.959 152.18 451.282 151.7 451.282 150.74C451.282 149.74 450.959 149.24 450.312 149.24C449.665 149.24 449.342 149.74 449.342 150.74C449.342 151.7 449.665 152.18 450.312 152.18ZM454.855 148.9C454.988 148.747 455.188 148.617 455.455 148.51C455.722 148.397 455.975 148.34 456.215 148.34C456.788 148.34 457.202 148.497 457.455 148.81C457.715 149.123 457.845 149.63 457.845 150.33V153H456.575V150.38C456.575 149.727 456.285 149.4 455.705 149.4C455.558 149.4 455.402 149.433 455.235 149.5C455.068 149.56 454.955 149.63 454.895 149.71V153H453.635V148.46H454.705C454.738 148.633 454.772 148.78 454.805 148.9H454.855ZM461.803 149.56C461.476 149.347 461.103 149.24 460.683 149.24C460.363 149.24 460.203 149.377 460.203 149.65C460.203 149.903 460.419 150.083 460.853 150.19C461.393 150.323 461.759 150.473 461.953 150.64C462.233 150.88 462.373 151.24 462.373 151.72C462.373 152.147 462.219 152.487 461.913 152.74C461.613 152.993 461.206 153.12 460.693 153.12C459.966 153.12 459.353 152.913 458.853 152.5L459.313 151.8C459.659 152.073 460.076 152.21 460.563 152.21C460.756 152.21 460.913 152.163 461.033 152.07C461.153 151.977 461.213 151.853 461.213 151.7C461.213 151.42 460.976 151.237 460.503 151.15C459.489 150.957 458.983 150.463 458.983 149.67C458.983 149.29 459.136 148.973 459.443 148.72C459.756 148.467 460.146 148.34 460.613 148.34C461.246 148.34 461.796 148.523 462.263 148.89L461.803 149.56Z" fill="white"/>
<path d="M224.8 154V147.68C224.893 147.66 225.157 147.633 225.59 147.6C226.023 147.567 226.353 147.55 226.58 147.55C228.193 147.55 229 148.21 229 149.53C229 150.35 228.72 150.95 228.16 151.33C227.787 151.59 227.347 151.72 226.84 151.72C226.44 151.72 226.197 151.693 226.11 151.64V154H224.8ZM226.11 148.67V150.58C226.283 150.647 226.5 150.68 226.76 150.68C227.027 150.68 227.237 150.587 227.39 150.4C227.543 150.207 227.62 149.943 227.62 149.61C227.62 148.937 227.323 148.6 226.73 148.6C226.39 148.6 226.183 148.623 226.11 148.67ZM231.738 149.34C232.484 149.34 233.064 149.603 233.478 150.13C233.824 150.57 233.998 151.107 233.998 151.74C233.998 152.48 233.741 153.08 233.228 153.54C232.801 153.927 232.304 154.12 231.738 154.12C231.078 154.12 230.524 153.873 230.078 153.38C229.678 152.933 229.478 152.387 229.478 151.74C229.478 151.007 229.701 150.413 230.148 149.96C230.554 149.547 231.084 149.34 231.738 149.34ZM231.738 153.18C232.384 153.18 232.708 152.7 232.708 151.74C232.708 150.74 232.384 150.24 231.738 150.24C231.091 150.24 230.768 150.74 230.768 151.74C230.768 152.7 231.091 153.18 231.738 153.18ZM237.711 150.56C237.384 150.347 237.011 150.24 236.591 150.24C236.271 150.24 236.111 150.377 236.111 150.65C236.111 150.903 236.328 151.083 236.761 151.19C237.301 151.323 237.668 151.473 237.861 151.64C238.141 151.88 238.281 152.24 238.281 152.72C238.281 153.147 238.128 153.487 237.821 153.74C237.521 153.993 237.114 154.12 236.601 154.12C235.874 154.12 235.261 153.913 234.761 153.5L235.221 152.8C235.568 153.073 235.984 153.21 236.471 153.21C236.664 153.21 236.821 153.163 236.941 153.07C237.061 152.977 237.121 152.853 237.121 152.7C237.121 152.42 236.884 152.237 236.411 152.15C235.398 151.957 234.891 151.463 234.891 150.67C234.891 150.29 235.044 149.973 235.351 149.72C235.664 149.467 236.054 149.34 236.521 149.34C237.154 149.34 237.704 149.523 238.171 149.89L237.711 150.56ZM240.558 149.46V154H239.288V149.46H240.558ZM239.138 148.3C239.138 148.087 239.212 147.903 239.358 147.75C239.512 147.59 239.692 147.51 239.898 147.51C240.118 147.51 240.305 147.587 240.458 147.74C240.618 147.893 240.698 148.08 240.698 148.3C240.698 148.533 240.622 148.723 240.468 148.87C240.322 149.017 240.132 149.09 239.898 149.09C239.678 149.09 239.495 149.017 239.348 148.87C239.208 148.717 239.138 148.527 239.138 148.3ZM244.698 150.47H243.398V152.72C243.398 153.053 243.508 153.22 243.728 153.22C243.928 153.22 244.178 153.133 244.478 152.96L244.898 153.6C244.424 153.973 243.901 154.16 243.328 154.16C242.528 154.16 242.128 153.72 242.128 152.84V150.47H241.498V149.46H242.138V148.65C242.471 148.47 242.894 148.247 243.408 147.98V149.46H244.698V150.47ZM247.052 149.46V154H245.782V149.46H247.052ZM245.632 148.3C245.632 148.087 245.706 147.903 245.852 147.75C246.006 147.59 246.186 147.51 246.392 147.51C246.612 147.51 246.799 147.587 246.952 147.74C247.112 147.893 247.192 148.08 247.192 148.3C247.192 148.533 247.116 148.723 246.962 148.87C246.816 149.017 246.626 149.09 246.392 149.09C246.172 149.09 245.989 149.017 245.842 148.87C245.702 148.717 245.632 148.527 245.632 148.3ZM250.312 149.34C251.059 149.34 251.639 149.603 252.052 150.13C252.399 150.57 252.572 151.107 252.572 151.74C252.572 152.48 252.315 153.08 251.802 153.54C251.375 153.927 250.879 154.12 250.312 154.12C249.652 154.12 249.099 153.873 248.652 153.38C248.252 152.933 248.052 152.387 248.052 151.74C248.052 151.007 248.275 150.413 248.722 149.96C249.129 149.547 249.659 149.34 250.312 149.34ZM250.312 153.18C250.959 153.18 251.282 152.7 251.282 151.74C251.282 150.74 250.959 150.24 250.312 150.24C249.665 150.24 249.342 150.74 249.342 151.74C249.342 152.7 249.665 153.18 250.312 153.18ZM254.855 149.9C254.988 149.747 255.188 149.617 255.455 149.51C255.722 149.397 255.975 149.34 256.215 149.34C256.788 149.34 257.202 149.497 257.455 149.81C257.715 150.123 257.845 150.63 257.845 151.33V154H256.575V151.38C256.575 150.727 256.285 150.4 255.705 150.4C255.558 150.4 255.402 150.433 255.235 150.5C255.068 150.56 254.955 150.63 254.895 150.71V154H253.635V149.46H254.705C254.738 149.633 254.772 149.78 254.805 149.9H254.855ZM261.803 150.56C261.476 150.347 261.103 150.24 260.683 150.24C260.363 150.24 260.203 150.377 260.203 150.65C260.203 150.903 260.419 151.083 260.853 151.19C261.393 151.323 261.759 151.473 261.953 151.64C262.233 151.88 262.373 152.24 262.373 152.72C262.373 153.147 262.219 153.487 261.913 153.74C261.613 153.993 261.206 154.12 260.693 154.12C259.966 154.12 259.353 153.913 258.853 153.5L259.313 152.8C259.659 153.073 260.076 153.21 260.563 153.21C260.756 153.21 260.913 153.163 261.033 153.07C261.153 152.977 261.213 152.853 261.213 152.7C261.213 152.42 260.976 152.237 260.503 152.15C259.489 151.957 258.983 151.463 258.983 150.67C258.983 150.29 259.136 149.973 259.443 149.72C259.756 149.467 260.146 149.34 260.613 149.34C261.246 149.34 261.796 149.523 262.263 149.89L261.803 150.56Z" fill="white"/>
<path d="M142.032 130.328H136.728V133.4C136.92 133.32 137.184 133.28 137.52 133.28C139.28 133.28 140.648 133.72 141.624 134.6C142.552 135.448 143.016 136.608 143.016 138.08C143.016 139.632 142.44 140.92 141.288 141.944C140.28 142.84 139.056 143.288 137.616 143.288C135.696 143.288 134.024 142.592 132.6 141.2L133.896 139.208C135.064 140.088 136.192 140.528 137.28 140.528C138.96 140.528 139.8 139.776 139.8 138.272C139.8 136.592 138.72 135.752 136.56 135.752C135.808 135.752 134.824 135.888 133.608 136.16V127.808H142.032V130.328ZM155.714 132.104L150.554 136.496C152.474 139.376 153.954 141.544 154.994 143H151.586C150.242 140.696 149.226 138.968 148.538 137.816V143H145.514V129.104L148.538 127.52V134.744C149.322 134.12 150.37 133.24 151.682 132.104H155.714Z" fill="white"/>
<path d="M435.936 126.808V142H432.792V130.384C432.568 130.528 432.24 130.728 431.808 130.984C431.184 131.352 430.736 131.632 430.464 131.824C430.256 131.472 429.904 130.888 429.408 130.072L429.264 129.856C429.152 129.648 429.064 129.496 429 129.4C429.512 129.032 430.32 128.48 431.424 127.744C432 127.36 432.456 127.048 432.792 126.808H435.936ZM447.867 138.4C448.763 135.12 449.963 131.256 451.467 126.808H456.027V142H452.859V129.664C452.107 132.912 450.875 137.024 449.163 142H446.547C444.739 136.512 443.515 132.44 442.875 129.784V142H439.779V126.808H444.147C445.651 130.904 446.891 134.768 447.867 138.4Z" fill="white"/>
<path d="M319.96 143V140.336C320.344 139.904 320.856 139.32 321.496 138.584C322.504 137.464 323.248 136.616 323.728 136.04C324.8 134.76 325.472 133.888 325.744 133.424C326.016 132.944 326.152 132.416 326.152 131.84C326.152 131.36 325.976 130.96 325.624 130.64C325.272 130.32 324.824 130.16 324.28 130.16C323.336 130.16 322.296 130.544 321.16 131.312L319.84 129.392C321.44 128.128 323.112 127.496 324.856 127.496C326.248 127.496 327.36 127.872 328.192 128.624C329.008 129.36 329.416 130.376 329.416 131.672C329.416 132.632 329.096 133.64 328.456 134.696C327.832 135.736 326.608 137.288 324.784 139.352C324.336 139.864 324.008 140.24 323.8 140.48H329.248V143H319.96ZM340.212 130.328H334.908V133.4C335.1 133.32 335.364 133.28 335.7 133.28C337.46 133.28 338.828 133.72 339.804 134.6C340.732 135.448 341.196 136.608 341.196 138.08C341.196 139.632 340.62 140.92 339.468 141.944C338.46 142.84 337.236 143.288 335.796 143.288C333.876 143.288 332.204 142.592 330.78 141.2L332.076 139.208C333.244 140.088 334.372 140.528 335.46 140.528C337.14 140.528 337.98 139.776 337.98 138.272C337.98 136.592 336.9 135.752 334.74 135.752C333.988 135.752 333.004 135.888 331.788 136.16V127.808H340.212V130.328ZM348.829 127.52C350.685 127.52 352.173 128.408 353.293 130.184C354.237 131.656 354.709 133.408 354.709 135.44C354.709 137.888 354.109 139.848 352.909 141.32C351.853 142.632 350.493 143.288 348.829 143.288C346.925 143.288 345.437 142.44 344.365 140.744C343.469 139.336 343.021 137.568 343.021 135.44C343.021 133.072 343.613 131.128 344.797 129.608C345.869 128.216 347.213 127.52 348.829 127.52ZM348.877 130.208C347.149 130.208 346.285 131.904 346.285 135.296C346.285 137.008 346.533 138.352 347.029 139.328C347.477 140.208 348.069 140.648 348.805 140.648C349.621 140.648 350.261 140.176 350.725 139.232C351.205 138.272 351.445 136.96 351.445 135.296C351.445 131.904 350.589 130.208 348.877 130.208ZM367.417 132.104L362.257 136.496C364.177 139.376 365.657 141.544 366.697 143H363.289C361.945 140.696 360.929 138.968 360.241 137.816V143H357.217V129.104L360.241 127.52V134.744C361.025 134.12 362.073 133.24 363.385 132.104H367.417Z" fill="white"/>
<path d="M225.96 143V140.336C226.344 139.904 226.856 139.32 227.496 138.584C228.504 137.464 229.248 136.616 229.728 136.04C230.8 134.76 231.472 133.888 231.744 133.424C232.016 132.944 232.152 132.416 232.152 131.84C232.152 131.36 231.976 130.96 231.624 130.64C231.272 130.32 230.824 130.16 230.28 130.16C229.336 130.16 228.296 130.544 227.16 131.312L225.84 129.392C227.44 128.128 229.112 127.496 230.856 127.496C232.248 127.496 233.36 127.872 234.192 128.624C235.008 129.36 235.416 130.376 235.416 131.672C235.416 132.632 235.096 133.64 234.456 134.696C233.832 135.736 232.608 137.288 230.784 139.352C230.336 139.864 230.008 140.24 229.8 140.48H235.248V143H225.96ZM242.9 127.52C244.756 127.52 246.244 128.408 247.364 130.184C248.308 131.656 248.78 133.408 248.78 135.44C248.78 137.888 248.18 139.848 246.98 141.32C245.924 142.632 244.564 143.288 242.9 143.288C240.996 143.288 239.508 142.44 238.436 140.744C237.54 139.336 237.092 137.568 237.092 135.44C237.092 133.072 237.684 131.128 238.868 129.608C239.94 128.216 241.284 127.52 242.9 127.52ZM242.948 130.208C241.22 130.208 240.356 131.904 240.356 135.296C240.356 137.008 240.604 138.352 241.1 139.328C241.548 140.208 242.14 140.648 242.876 140.648C243.692 140.648 244.332 140.176 244.796 139.232C245.276 138.272 245.516 136.96 245.516 135.296C245.516 131.904 244.66 130.208 242.948 130.208ZM261.487 132.104L256.327 136.496C258.247 139.376 259.727 141.544 260.767 143H257.359C256.015 140.696 254.999 138.968 254.311 137.816V143H251.287V129.104L254.311 127.52V134.744C255.095 134.12 256.143 133.24 257.455 132.104H261.487Z" fill="white"/>
<circle cx="140.5" cy="103.5" r="2.5" fill="#D9D9D9"/>
<path d="M140.5 103.5L240.96 95.5016" stroke="white" stroke-opacity="0.5"/>
<line x1="241.945" y1="95.503" x2="341.945" y2="84.503" stroke="white" stroke-opacity="0.5"/>
<line x1="341.919" y1="84.5065" x2="439.919" y2="68.5065" stroke="white" stroke-opacity="0.5"/>
<path d="M447 69C447 73.1421 443.642 76.5 439.5 76.5C435.358 76.5 432 73.1421 432 69C432 64.8579 435.358 61.5 439.5 61.5C443.642 61.5 447 64.8579 447 69Z" fill="black" fill-opacity="0.3"/>
<circle cx="440" cy="69" r="19.5" stroke="url(#paint6_linear_1515_46)"/>
<rect y="172" width="586" height="77" fill="black" fill-opacity="0.5"/>
<path d="M446.468 212.404V220H444.896V214.192C444.784 214.264 444.62 214.364 444.404 214.492C444.092 214.676 443.868 214.816 443.732 214.912C443.628 214.736 443.452 214.444 443.204 214.036L443.132 213.928C443.076 213.824 443.032 213.748 443 213.7C443.256 213.516 443.66 213.24 444.212 212.872C444.5 212.68 444.728 212.524 444.896 212.404H446.468ZM450.898 212.404V220H449.326V214.192C449.214 214.264 449.05 214.364 448.834 214.492C448.522 214.676 448.298 214.816 448.162 214.912C448.058 214.736 447.882 214.444 447.634 214.036L447.562 213.928C447.506 213.824 447.462 213.748 447.43 213.7C447.686 213.516 448.09 213.24 448.642 212.872C448.93 212.68 449.158 212.524 449.326 212.404H450.898ZM454.727 219.172C454.727 219.18 454.727 219.188 454.727 219.196C454.727 219.452 454.647 219.66 454.487 219.82C454.327 219.98 454.115 220.06 453.851 220.06C453.579 220.06 453.359 219.98 453.191 219.82C453.031 219.652 452.951 219.432 452.951 219.16V219.136C452.967 218.888 453.055 218.688 453.215 218.536C453.383 218.384 453.595 218.308 453.851 218.308C454.115 218.308 454.327 218.388 454.487 218.548C454.647 218.708 454.727 218.916 454.727 219.172ZM459.157 212.26C460.085 212.26 460.829 212.704 461.389 213.592C461.861 214.328 462.097 215.204 462.097 216.22C462.097 217.444 461.797 218.424 461.197 219.16C460.669 219.816 459.989 220.144 459.157 220.144C458.205 220.144 457.461 219.72 456.925 218.872C456.477 218.168 456.253 217.284 456.253 216.22C456.253 215.036 456.549 214.064 457.141 213.304C457.677 212.608 458.349 212.26 459.157 212.26ZM459.181 213.604C458.317 213.604 457.885 214.452 457.885 216.148C457.885 217.004 458.009 217.676 458.257 218.164C458.481 218.604 458.777 218.824 459.145 218.824C459.553 218.824 459.873 218.588 460.105 218.116C460.345 217.636 460.465 216.98 460.465 216.148C460.465 214.452 460.037 213.604 459.181 213.604ZM465.919 212.26C466.847 212.26 467.591 212.704 468.151 213.592C468.623 214.328 468.859 215.204 468.859 216.22C468.859 217.444 468.559 218.424 467.959 219.16C467.431 219.816 466.751 220.144 465.919 220.144C464.967 220.144 464.223 219.72 463.687 218.872C463.239 218.168 463.015 217.284 463.015 216.22C463.015 215.036 463.311 214.064 463.903 213.304C464.439 212.608 465.111 212.26 465.919 212.26ZM465.943 213.604C465.079 213.604 464.647 214.452 464.647 216.148C464.647 217.004 464.771 217.676 465.019 218.164C465.243 218.604 465.539 218.824 465.907 218.824C466.315 218.824 466.635 218.588 466.867 218.116C467.107 217.636 467.227 216.98 467.227 216.148C467.227 214.452 466.799 213.604 465.943 213.604ZM472.176 212.404H473.496L476.292 220H474.696C474.56 219.6 474.392 219.072 474.192 218.416H471.468C471.356 218.776 471.184 219.304 470.952 220H469.38L472.176 212.404ZM472.848 214.456C472.624 215.088 472.316 215.976 471.924 217.12H473.748C473.372 216.016 473.072 215.128 472.848 214.456ZM481.356 218.2C481.804 216.56 482.404 214.628 483.156 212.404H485.436V220H483.852V213.832C483.476 215.456 482.86 217.512 482.004 220H480.696C479.792 217.256 479.18 215.22 478.86 213.892V220H477.312V212.404H479.496C480.248 214.452 480.868 216.384 481.356 218.2Z" fill="white" fill-opacity="0.49"/>
<path d="M448.004 205.2C448.452 203.56 449.052 201.628 449.804 199.404H452.084V207H450.5V200.832C450.124 202.456 449.508 204.512 448.652 207H447.344C446.44 204.256 445.828 202.22 445.508 200.892V207H443.96V199.404H446.144C446.896 201.452 447.516 203.384 448.004 205.2ZM456.211 201.408C457.107 201.408 457.803 201.724 458.299 202.356C458.715 202.884 458.923 203.528 458.923 204.288C458.923 205.176 458.615 205.896 457.999 206.448C457.487 206.912 456.891 207.144 456.211 207.144C455.419 207.144 454.755 206.848 454.219 206.256C453.739 205.72 453.499 205.064 453.499 204.288C453.499 203.408 453.767 202.696 454.303 202.152C454.791 201.656 455.427 201.408 456.211 201.408ZM456.211 206.016C456.987 206.016 457.375 205.44 457.375 204.288C457.375 203.088 456.987 202.488 456.211 202.488C455.435 202.488 455.047 203.088 455.047 204.288C455.047 205.44 455.435 206.016 456.211 206.016ZM461.663 202.08C461.823 201.896 462.063 201.74 462.383 201.612C462.703 201.476 463.007 201.408 463.295 201.408C463.983 201.408 464.479 201.596 464.783 201.972C465.095 202.348 465.251 202.956 465.251 203.796V207H463.727V203.856C463.727 203.072 463.379 202.68 462.683 202.68C462.507 202.68 462.319 202.72 462.119 202.8C461.919 202.872 461.783 202.956 461.711 203.052V207H460.199V201.552H461.483C461.523 201.76 461.563 201.936 461.603 202.08H461.663ZM470.708 207L470.492 206.424C470.364 206.632 470.156 206.804 469.868 206.94C469.58 207.076 469.284 207.144 468.98 207.144C468.124 207.144 467.472 206.86 467.024 206.292C466.648 205.82 466.46 205.212 466.46 204.468C466.46 203.42 466.764 202.612 467.372 202.044C467.828 201.62 468.376 201.408 469.016 201.408C469.568 201.408 470.032 201.56 470.408 201.864V200.124L471.92 199.284V207H470.708ZM470.408 204.924V203.4C470.352 203.136 470.224 202.92 470.024 202.752C469.832 202.576 469.604 202.488 469.34 202.488C468.932 202.488 468.608 202.648 468.368 202.968C468.128 203.288 468.008 203.72 468.008 204.264C468.008 205.456 468.396 206.052 469.172 206.052C469.46 206.052 469.728 205.94 469.976 205.716C470.224 205.484 470.368 205.22 470.408 204.924ZM477.938 207H476.726L476.606 206.484C476.078 206.924 475.542 207.144 474.998 207.144C473.79 207.144 473.186 206.556 473.186 205.38C473.186 204.796 473.438 204.34 473.942 204.012C474.454 203.676 475.21 203.508 476.21 203.508H476.462V203.484C476.462 203.14 476.39 202.904 476.246 202.776C476.102 202.648 475.842 202.584 475.466 202.584C474.938 202.584 474.454 202.752 474.014 203.088C473.87 202.824 473.734 202.564 473.606 202.308C474.062 201.956 474.458 201.72 474.794 201.6C475.138 201.472 475.546 201.408 476.018 201.408C477.298 201.408 477.938 202.208 477.938 203.808V207ZM476.414 204.432H476.234C475.778 204.432 475.41 204.512 475.13 204.672C474.85 204.832 474.71 205.044 474.71 205.308C474.71 205.804 474.926 206.052 475.358 206.052C475.622 206.052 475.854 205.976 476.054 205.824C476.254 205.672 476.374 205.48 476.414 205.248V204.432ZM484.562 201.552C484.242 202.448 483.802 203.652 483.242 205.164C482.834 206.292 482.514 207.168 482.282 207.792C481.906 208.792 481.378 209.292 480.698 209.292C480.17 209.292 479.626 209.064 479.066 208.608C479.226 208.336 479.362 208.096 479.474 207.888C479.77 208.08 480.03 208.176 480.254 208.176C480.582 208.176 480.874 207.784 481.13 207H480.842L478.934 201.552H480.434C480.522 201.816 480.658 202.228 480.842 202.788L480.914 202.98C481.258 204.02 481.506 204.784 481.658 205.272L483.05 201.552H484.562ZM491.093 199.404V207H489.521V201.192C489.409 201.264 489.245 201.364 489.029 201.492C488.717 201.676 488.493 201.816 488.357 201.912C488.253 201.736 488.077 201.444 487.829 201.036L487.757 200.928C487.701 200.824 487.657 200.748 487.625 200.7C487.881 200.516 488.285 200.24 488.837 199.872C489.125 199.68 489.353 199.524 489.521 199.404H491.093ZM496.051 202.872C495.659 202.616 495.211 202.488 494.707 202.488C494.323 202.488 494.131 202.652 494.131 202.98C494.131 203.284 494.391 203.5 494.911 203.628C495.559 203.788 495.999 203.968 496.231 204.168C496.567 204.456 496.735 204.888 496.735 205.464C496.735 205.976 496.551 206.384 496.183 206.688C495.823 206.992 495.335 207.144 494.719 207.144C493.847 207.144 493.111 206.896 492.511 206.4L493.063 205.56C493.479 205.888 493.979 206.052 494.563 206.052C494.795 206.052 494.983 205.996 495.127 205.884C495.271 205.772 495.343 205.624 495.343 205.44C495.343 205.104 495.059 204.884 494.491 204.78C493.275 204.548 492.667 203.956 492.667 203.004C492.667 202.548 492.851 202.168 493.219 201.864C493.595 201.56 494.063 201.408 494.623 201.408C495.383 201.408 496.043 201.628 496.603 202.068L496.051 202.872ZM501.412 202.764H499.852V205.464C499.852 205.864 499.984 206.064 500.248 206.064C500.488 206.064 500.788 205.96 501.148 205.752L501.652 206.52C501.084 206.968 500.456 207.192 499.768 207.192C498.808 207.192 498.328 206.664 498.328 205.608V202.764H497.572V201.552H498.34V200.58C498.74 200.364 499.248 200.096 499.864 199.776V201.552H501.412V202.764ZM509.844 205.2C510.292 203.56 510.892 201.628 511.644 199.404H513.924V207H512.34V200.832C511.964 202.456 511.348 204.512 510.492 207H509.184C508.28 204.256 507.668 202.22 507.348 200.892V207H505.8V199.404H507.984C508.736 201.452 509.356 203.384 509.844 205.2ZM520.091 207H518.879L518.759 206.484C518.231 206.924 517.695 207.144 517.151 207.144C515.943 207.144 515.339 206.556 515.339 205.38C515.339 204.796 515.591 204.34 516.095 204.012C516.607 203.676 517.363 203.508 518.363 203.508H518.615V203.484C518.615 203.14 518.543 202.904 518.399 202.776C518.255 202.648 517.995 202.584 517.619 202.584C517.091 202.584 516.607 202.752 516.167 203.088C516.023 202.824 515.887 202.564 515.759 202.308C516.215 201.956 516.611 201.72 516.947 201.6C517.291 201.472 517.699 201.408 518.171 201.408C519.451 201.408 520.091 202.208 520.091 203.808V207ZM518.567 204.432H518.387C517.931 204.432 517.563 204.512 517.283 204.672C517.003 204.832 516.863 205.044 516.863 205.308C516.863 205.804 517.079 206.052 517.511 206.052C517.775 206.052 518.007 205.976 518.207 205.824C518.407 205.672 518.527 205.48 518.567 205.248V204.432ZM526.714 201.552C526.394 202.448 525.954 203.652 525.394 205.164C524.986 206.292 524.666 207.168 524.434 207.792C524.058 208.792 523.53 209.292 522.85 209.292C522.322 209.292 521.778 209.064 521.218 208.608C521.378 208.336 521.514 208.096 521.626 207.888C521.922 208.08 522.182 208.176 522.406 208.176C522.734 208.176 523.026 207.784 523.282 207H522.994L521.086 201.552H522.586C522.674 201.816 522.81 202.228 522.994 202.788L523.066 202.98C523.41 204.02 523.658 204.784 523.81 205.272L525.202 201.552H526.714ZM530.257 207V205.668C530.449 205.452 530.705 205.16 531.025 204.792C531.529 204.232 531.901 203.808 532.141 203.52C532.677 202.88 533.013 202.444 533.149 202.212C533.285 201.972 533.353 201.708 533.353 201.42C533.353 201.18 533.265 200.98 533.089 200.82C532.913 200.66 532.689 200.58 532.417 200.58C531.945 200.58 531.425 200.772 530.857 201.156L530.197 200.196C530.997 199.564 531.833 199.248 532.705 199.248C533.401 199.248 533.957 199.436 534.373 199.812C534.781 200.18 534.985 200.688 534.985 201.336C534.985 201.816 534.825 202.32 534.505 202.848C534.193 203.368 533.581 204.144 532.669 205.176C532.445 205.432 532.281 205.62 532.177 205.74H534.901V207H530.257ZM538.727 199.26C539.655 199.26 540.399 199.704 540.959 200.592C541.431 201.328 541.667 202.204 541.667 203.22C541.667 204.444 541.367 205.424 540.767 206.16C540.239 206.816 539.559 207.144 538.727 207.144C537.775 207.144 537.031 206.72 536.495 205.872C536.047 205.168 535.823 204.284 535.823 203.22C535.823 202.036 536.119 201.064 536.711 200.304C537.247 199.608 537.919 199.26 538.727 199.26ZM538.751 200.604C537.887 200.604 537.455 201.452 537.455 203.148C537.455 204.004 537.579 204.676 537.827 205.164C538.051 205.604 538.347 205.824 538.715 205.824C539.123 205.824 539.443 205.588 539.675 205.116C539.915 204.636 540.035 203.98 540.035 203.148C540.035 201.452 539.607 200.604 538.751 200.604ZM542.609 207V205.668C542.801 205.452 543.057 205.16 543.377 204.792C543.881 204.232 544.253 203.808 544.493 203.52C545.029 202.88 545.365 202.444 545.501 202.212C545.637 201.972 545.705 201.708 545.705 201.42C545.705 201.18 545.617 200.98 545.441 200.82C545.265 200.66 545.041 200.58 544.769 200.58C544.297 200.58 543.777 200.772 543.209 201.156L542.549 200.196C543.349 199.564 544.185 199.248 545.057 199.248C545.753 199.248 546.309 199.436 546.725 199.812C547.133 200.18 547.337 200.688 547.337 201.336C547.337 201.816 547.177 202.32 546.857 202.848C546.545 203.368 545.933 204.144 545.021 205.176C544.797 205.432 544.633 205.62 544.529 205.74H547.253V207H542.609ZM548.199 207V205.668C548.391 205.452 548.647 205.16 548.967 204.792C549.471 204.232 549.843 203.808 550.083 203.52C550.619 202.88 550.955 202.444 551.091 202.212C551.227 201.972 551.295 201.708 551.295 201.42C551.295 201.18 551.207 200.98 551.031 200.82C550.855 200.66 550.631 200.58 550.359 200.58C549.887 200.58 549.367 200.772 548.799 201.156L548.139 200.196C548.939 199.564 549.775 199.248 550.647 199.248C551.343 199.248 551.899 199.436 552.315 199.812C552.723 200.18 552.927 200.688 552.927 201.336C552.927 201.816 552.767 202.32 552.447 202.848C552.135 203.368 551.523 204.144 550.611 205.176C550.387 205.432 550.223 205.62 550.119 205.74H552.843V207H548.199Z" fill="white"/>
<path d="M72.168 199.552H69.24V197.872H77.432V199.552H74.28V208H72.168V199.552ZM80.4719 200.736L80.6639 201.376C80.7705 201.152 80.9732 200.96 81.2719 200.8C81.5812 200.629 81.8959 200.544 82.2159 200.544C83.1759 200.544 83.8905 200.997 84.3599 201.904L82.6639 202.832C82.3119 202.427 81.9385 202.224 81.5439 202.224C81.1812 202.224 80.9145 202.411 80.7439 202.784V208H78.7599V200.736H80.4719ZM90.9753 208H89.3593L89.1993 207.312C88.4953 207.899 87.7806 208.192 87.0553 208.192C85.4446 208.192 84.6393 207.408 84.6393 205.84C84.6393 205.061 84.9753 204.453 85.6473 204.016C86.3299 203.568 87.3379 203.344 88.6713 203.344H89.0073V203.312C89.0073 202.853 88.9113 202.539 88.7193 202.368C88.5273 202.197 88.1806 202.112 87.6793 202.112C86.9753 202.112 86.3299 202.336 85.7433 202.784C85.5513 202.432 85.3699 202.085 85.1993 201.744C85.8073 201.275 86.3353 200.96 86.7833 200.8C87.2419 200.629 87.7859 200.544 88.4153 200.544C90.1219 200.544 90.9753 201.611 90.9753 203.744V208ZM88.9433 204.576H88.7033C88.0953 204.576 87.6046 204.683 87.2313 204.896C86.8579 205.109 86.6713 205.392 86.6713 205.744C86.6713 206.405 86.9593 206.736 87.5353 206.736C87.8873 206.736 88.1966 206.635 88.4633 206.432C88.7299 206.229 88.8899 205.973 88.9433 205.664V204.576ZM99.2465 207.072C98.4892 207.819 97.5932 208.192 96.5585 208.192C95.3212 208.192 94.3398 207.797 93.6145 207.008C92.9852 206.315 92.6705 205.445 92.6705 204.4C92.6705 203.227 93.0758 202.267 93.8865 201.52C94.5905 200.869 95.4492 200.544 96.4625 200.544C97.5825 200.544 98.4838 200.896 99.1665 201.6L98.5585 202.688C98.0145 202.208 97.4225 201.968 96.7825 201.968C96.1852 201.968 95.6945 202.203 95.3105 202.672C94.9265 203.131 94.7345 203.723 94.7345 204.448C94.7345 205.12 94.9212 205.675 95.2945 206.112C95.6785 206.539 96.1638 206.752 96.7505 206.752C97.4545 206.752 98.0572 206.491 98.5585 205.968L99.2465 207.072ZM106.715 207.072C105.958 207.819 105.062 208.192 104.027 208.192C102.79 208.192 101.809 207.797 101.083 207.008C100.454 206.315 100.139 205.445 100.139 204.4C100.139 203.227 100.545 202.267 101.355 201.52C102.059 200.869 102.918 200.544 103.931 200.544C105.051 200.544 105.953 200.896 106.635 201.6L106.027 202.688C105.483 202.208 104.891 201.968 104.251 201.968C103.654 201.968 103.163 202.203 102.779 202.672C102.395 203.131 102.203 203.723 102.203 204.448C102.203 205.12 102.39 205.675 102.763 206.112C103.147 206.539 103.633 206.752 104.219 206.752C104.923 206.752 105.526 206.491 106.027 205.968L106.715 207.072ZM114.9 200.736C114.474 201.931 113.887 203.536 113.14 205.552C112.596 207.056 112.17 208.224 111.86 209.056C111.359 210.389 110.655 211.056 109.748 211.056C109.044 211.056 108.319 210.752 107.572 210.144C107.786 209.781 107.967 209.461 108.116 209.184C108.511 209.44 108.858 209.568 109.156 209.568C109.594 209.568 109.983 209.045 110.324 208H109.94L107.396 200.736H109.396C109.514 201.088 109.695 201.637 109.94 202.384L110.036 202.64C110.495 204.027 110.826 205.045 111.028 205.696L112.884 200.736H114.9ZM127.496 206.864C126.611 207.749 125.571 208.192 124.376 208.192C122.659 208.192 121.379 207.552 120.536 206.272C119.928 205.355 119.624 204.277 119.624 203.04C119.624 201.429 120.04 200.133 120.872 199.152C121.694 198.171 122.835 197.68 124.296 197.68C125.32 197.68 126.344 198.112 127.368 198.976L126.552 200.304C125.784 199.749 125.086 199.472 124.456 199.472C123.582 199.472 122.904 199.84 122.424 200.576C122.008 201.205 121.8 202.027 121.8 203.04C121.8 203.936 122.046 204.704 122.536 205.344C123.059 206.016 123.758 206.352 124.632 206.352C125.208 206.352 125.891 206.101 126.68 205.6L127.496 206.864ZM131.958 200.544C133.153 200.544 134.081 200.965 134.742 201.808C135.297 202.512 135.574 203.371 135.574 204.384C135.574 205.568 135.164 206.528 134.342 207.264C133.66 207.883 132.865 208.192 131.958 208.192C130.902 208.192 130.017 207.797 129.302 207.008C128.662 206.293 128.342 205.419 128.342 204.384C128.342 203.211 128.7 202.261 129.414 201.536C130.065 200.875 130.913 200.544 131.958 200.544ZM131.958 206.688C132.993 206.688 133.51 205.92 133.51 204.384C133.51 202.784 132.993 201.984 131.958 201.984C130.924 201.984 130.406 202.784 130.406 204.384C130.406 205.92 130.924 206.688 131.958 206.688ZM139.228 201.44C139.441 201.195 139.761 200.987 140.188 200.816C140.614 200.635 141.02 200.544 141.404 200.544C142.321 200.544 142.982 200.795 143.388 201.296C143.804 201.797 144.012 202.608 144.012 203.728V208H141.98V203.808C141.98 202.763 141.516 202.24 140.588 202.24C140.353 202.24 140.102 202.293 139.836 202.4C139.569 202.496 139.388 202.608 139.292 202.736V208H137.276V200.736H138.988C139.041 201.013 139.094 201.248 139.148 201.44H139.228ZM148.056 201.44C148.269 201.195 148.589 200.987 149.016 200.816C149.442 200.635 149.848 200.544 150.232 200.544C151.149 200.544 151.81 200.795 152.216 201.296C152.632 201.797 152.84 202.608 152.84 203.728V208H150.808V203.808C150.808 202.763 150.344 202.24 149.416 202.24C149.181 202.24 148.93 202.293 148.664 202.4C148.397 202.496 148.216 202.608 148.12 202.736V208H146.104V200.736H147.816C147.869 201.013 147.922 201.248 147.976 201.44H148.056ZM161.652 205.024H156.66C156.702 205.515 156.9 205.925 157.252 206.256C157.614 206.576 158.041 206.736 158.532 206.736C159.225 206.736 159.95 206.523 160.708 206.096L161.22 207.168C160.452 207.851 159.492 208.192 158.34 208.192C157.102 208.192 156.137 207.84 155.444 207.136C154.782 206.475 154.452 205.563 154.452 204.4C154.452 203.259 154.825 202.315 155.572 201.568C156.244 200.885 157.097 200.544 158.132 200.544C159.284 200.544 160.18 200.933 160.82 201.712C161.374 202.373 161.652 203.232 161.652 204.288V205.024ZM156.548 203.536H159.636C159.582 202.491 159.076 201.968 158.116 201.968C157.188 201.968 156.665 202.491 156.548 203.536ZM169.45 207.072C168.692 207.819 167.796 208.192 166.762 208.192C165.524 208.192 164.543 207.797 163.818 207.008C163.188 206.315 162.874 205.445 162.874 204.4C162.874 203.227 163.279 202.267 164.09 201.52C164.794 200.869 165.652 200.544 166.666 200.544C167.786 200.544 168.687 200.896 169.37 201.6L168.762 202.688C168.218 202.208 167.626 201.968 166.986 201.968C166.388 201.968 165.898 202.203 165.514 202.672C165.13 203.131 164.938 203.723 164.938 204.448C164.938 205.12 165.124 205.675 165.498 206.112C165.882 206.539 166.367 206.752 166.954 206.752C167.658 206.752 168.26 206.491 168.762 205.968L169.45 207.072ZM175.523 202.352H173.443V205.952C173.443 206.485 173.619 206.752 173.971 206.752C174.291 206.752 174.691 206.613 175.171 206.336L175.843 207.36C175.085 207.957 174.248 208.256 173.331 208.256C172.051 208.256 171.411 207.552 171.411 206.144V202.352H170.403V200.736H171.427V199.44C171.96 199.152 172.637 198.795 173.459 198.368V200.736H175.523V202.352Z" fill="white"/>
<path d="M72.09 212.67V219H70.8V212.67H72.09ZM74.7806 214.9C75.154 214.527 75.6206 214.34 76.1806 214.34C76.5673 214.34 76.9073 214.423 77.2006 214.59C77.5006 214.75 77.7073 214.967 77.8206 215.24C77.9673 214.973 78.194 214.757 78.5006 214.59C78.814 214.423 79.154 214.34 79.5206 214.34C80.5873 214.34 81.1206 214.987 81.1206 216.28V219H79.8506V216.62C79.8506 216.173 79.784 215.86 79.6506 215.68C79.524 215.493 79.3073 215.4 79.0006 215.4C78.5606 215.4 78.204 215.573 77.9306 215.92V219H76.6706V216.48C76.6706 216.087 76.6006 215.81 76.4606 215.65C76.3206 215.483 76.0806 215.4 75.7406 215.4C75.5406 215.4 75.3506 215.43 75.1706 215.49C74.9973 215.55 74.884 215.623 74.8306 215.71V219H73.5706V214.46H74.6406L74.7306 214.9H74.7806ZM83.378 214.46L83.498 214.89C83.778 214.523 84.1714 214.34 84.678 214.34C85.3914 214.34 85.948 214.58 86.348 215.06C86.688 215.473 86.858 216 86.858 216.64C86.858 217.48 86.6047 218.127 86.098 218.58C85.698 218.94 85.208 219.12 84.628 219.12C84.4547 219.12 84.2714 219.083 84.078 219.01C83.8847 218.937 83.748 218.853 83.668 218.76V220.78H82.428V214.46H83.378ZM83.668 216.23V217.39C83.668 217.623 83.748 217.823 83.908 217.99C84.0747 218.157 84.268 218.24 84.488 218.24C84.788 218.24 85.038 218.097 85.238 217.81C85.438 217.523 85.538 217.167 85.538 216.74C85.538 216.287 85.448 215.927 85.268 215.66C85.0947 215.387 84.858 215.25 84.558 215.25C84.3247 215.25 84.118 215.35 83.938 215.55C83.758 215.743 83.668 215.97 83.668 216.23ZM91.5763 219H90.5663L90.4663 218.57C90.0263 218.937 89.5797 219.12 89.1263 219.12C88.1197 219.12 87.6163 218.63 87.6163 217.65C87.6163 217.163 87.8263 216.783 88.2463 216.51C88.673 216.23 89.303 216.09 90.1363 216.09H90.3463V216.07C90.3463 215.783 90.2863 215.587 90.1663 215.48C90.0463 215.373 89.8297 215.32 89.5163 215.32C89.0763 215.32 88.673 215.46 88.3063 215.74C88.1863 215.52 88.073 215.303 87.9663 215.09C88.3463 214.797 88.6763 214.6 88.9563 214.5C89.243 214.393 89.583 214.34 89.9763 214.34C91.043 214.34 91.5763 215.007 91.5763 216.34V219ZM90.3063 216.86H90.1563C89.7763 216.86 89.4697 216.927 89.2363 217.06C89.003 217.193 88.8863 217.37 88.8863 217.59C88.8863 218.003 89.0663 218.21 89.4263 218.21C89.6463 218.21 89.8397 218.147 90.0063 218.02C90.173 217.893 90.273 217.733 90.3063 217.54V216.86ZM96.7459 218.42C96.2725 218.887 95.7125 219.12 95.0659 219.12C94.2925 219.12 93.6792 218.873 93.2259 218.38C92.8325 217.947 92.6359 217.403 92.6359 216.75C92.6359 216.017 92.8892 215.417 93.3959 214.95C93.8359 214.543 94.3725 214.34 95.0059 214.34C95.7059 214.34 96.2692 214.56 96.6959 215L96.3159 215.68C95.9759 215.38 95.6059 215.23 95.2059 215.23C94.8325 215.23 94.5259 215.377 94.2859 215.67C94.0459 215.957 93.9259 216.327 93.9259 216.78C93.9259 217.2 94.0425 217.547 94.2759 217.82C94.5159 218.087 94.8192 218.22 95.1859 218.22C95.6259 218.22 96.0025 218.057 96.3159 217.73L96.7459 218.42ZM100.541 215.47H99.2415V217.72C99.2415 218.053 99.3515 218.22 99.5715 218.22C99.7715 218.22 100.021 218.133 100.321 217.96L100.741 218.6C100.268 218.973 99.7448 219.16 99.1715 219.16C98.3715 219.16 97.9715 218.72 97.9715 217.84V215.47H97.3415V214.46H97.9815V213.65C98.3148 213.47 98.7382 213.247 99.2515 212.98V214.46H100.541V215.47ZM106.218 219H105.108L103.548 214.46H104.818L105.648 217.47L106.318 214.46H107.598C107.698 214.94 107.865 215.71 108.098 216.77L108.248 217.47L109.108 214.46H110.408L110.188 215.09L110.068 215.4C109.495 217.013 109.065 218.213 108.778 219H107.658C107.578 218.693 107.478 218.297 107.358 217.81C107.172 217.05 107.032 216.487 106.938 216.12C106.858 216.427 106.748 216.87 106.608 217.45C106.435 218.163 106.305 218.68 106.218 219ZM112.457 214.46V219H111.187V214.46H112.457ZM111.037 213.3C111.037 213.087 111.11 212.903 111.257 212.75C111.41 212.59 111.59 212.51 111.797 212.51C112.017 212.51 112.203 212.587 112.357 212.74C112.517 212.893 112.597 213.08 112.597 213.3C112.597 213.533 112.52 213.723 112.367 213.87C112.22 214.017 112.03 214.09 111.797 214.09C111.577 214.09 111.393 214.017 111.247 213.87C111.107 213.717 111.037 213.527 111.037 213.3ZM116.596 215.47H115.296V217.72C115.296 218.053 115.406 218.22 115.626 218.22C115.826 218.22 116.076 218.133 116.376 217.96L116.796 218.6C116.323 218.973 115.8 219.16 115.226 219.16C114.426 219.16 114.026 218.72 114.026 217.84V215.47H113.396V214.46H114.036V213.65C114.37 213.47 114.793 213.247 115.306 212.98V214.46H116.596V215.47ZM117.731 213.24L118.991 212.55V215C119.097 214.793 119.317 214.617 119.651 214.47C119.871 214.377 120.077 214.33 120.271 214.33C120.851 214.33 121.271 214.49 121.531 214.81C121.797 215.123 121.931 215.63 121.931 216.33V219H120.671V216.38C120.671 215.727 120.391 215.4 119.831 215.4C119.424 215.4 119.144 215.513 118.991 215.74V219H117.731V213.24ZM126.941 213.72H125.111V212.67H130.231V213.72H128.261V219H126.941V213.72ZM132.131 214.46L132.251 214.86C132.318 214.72 132.444 214.6 132.631 214.5C132.824 214.393 133.021 214.34 133.221 214.34C133.821 214.34 134.268 214.623 134.561 215.19L133.501 215.77C133.281 215.517 133.048 215.39 132.801 215.39C132.574 215.39 132.408 215.507 132.301 215.74V219H131.061V214.46H132.131ZM138.695 219H137.685L137.585 218.57C137.145 218.937 136.699 219.12 136.245 219.12C135.239 219.12 134.735 218.63 134.735 217.65C134.735 217.163 134.945 216.783 135.365 216.51C135.792 216.23 136.422 216.09 137.255 216.09H137.465V216.07C137.465 215.783 137.405 215.587 137.285 215.48C137.165 215.373 136.949 215.32 136.635 215.32C136.195 215.32 135.792 215.46 135.425 215.74C135.305 215.52 135.192 215.303 135.085 215.09C135.465 214.797 135.795 214.6 136.075 214.5C136.362 214.393 136.702 214.34 137.095 214.34C138.162 214.34 138.695 215.007 138.695 216.34V219ZM137.425 216.86H137.275C136.895 216.86 136.589 216.927 136.355 217.06C136.122 217.193 136.005 217.37 136.005 217.59C136.005 218.003 136.185 218.21 136.545 218.21C136.765 218.21 136.959 218.147 137.125 218.02C137.292 217.893 137.392 217.733 137.425 217.54V216.86ZM143.865 218.42C143.392 218.887 142.832 219.12 142.185 219.12C141.412 219.12 140.798 218.873 140.345 218.38C139.952 217.947 139.755 217.403 139.755 216.75C139.755 216.017 140.008 215.417 140.515 214.95C140.955 214.543 141.492 214.34 142.125 214.34C142.825 214.34 143.388 214.56 143.815 215L143.435 215.68C143.095 215.38 142.725 215.23 142.325 215.23C141.952 215.23 141.645 215.377 141.405 215.67C141.165 215.957 141.045 216.327 141.045 216.78C141.045 217.2 141.162 217.547 141.395 217.82C141.635 218.087 141.938 218.22 142.305 218.22C142.745 218.22 143.122 218.057 143.435 217.73L143.865 218.42ZM148.533 218.42C148.06 218.887 147.5 219.12 146.853 219.12C146.08 219.12 145.466 218.873 145.013 218.38C144.62 217.947 144.423 217.403 144.423 216.75C144.423 216.017 144.676 215.417 145.183 214.95C145.623 214.543 146.16 214.34 146.793 214.34C147.493 214.34 148.056 214.56 148.483 215L148.103 215.68C147.763 215.38 147.393 215.23 146.993 215.23C146.62 215.23 146.313 215.377 146.073 215.67C145.833 215.957 145.713 216.327 145.713 216.78C145.713 217.2 145.83 217.547 146.063 217.82C146.303 218.087 146.606 218.22 146.973 218.22C147.413 218.22 147.79 218.057 148.103 217.73L148.533 218.42ZM153.649 214.46C153.382 215.207 153.015 216.21 152.549 217.47C152.209 218.41 151.942 219.14 151.749 219.66C151.435 220.493 150.995 220.91 150.429 220.91C149.989 220.91 149.535 220.72 149.069 220.34C149.202 220.113 149.315 219.913 149.409 219.74C149.655 219.9 149.872 219.98 150.059 219.98C150.332 219.98 150.575 219.653 150.789 219H150.549L148.959 214.46H150.209C150.282 214.68 150.395 215.023 150.549 215.49L150.609 215.65C150.895 216.517 151.102 217.153 151.229 217.56L152.389 214.46H153.649Z" fill="white"/>
<path d="M40.96 197.36C43.4347 197.36 45.4187 198.544 46.912 200.912C48.1707 202.875 48.8 205.211 48.8 207.92C48.8 211.184 48 213.797 46.4 215.76C44.992 217.509 43.1787 218.384 40.96 218.384C38.4213 218.384 36.4373 217.253 35.008 214.992C33.8133 213.115 33.216 210.757 33.216 207.92C33.216 204.763 34.0053 202.171 35.584 200.144C37.0133 198.288 38.8053 197.36 40.96 197.36ZM41.024 200.944C38.72 200.944 37.568 203.205 37.568 207.728C37.568 210.011 37.8987 211.803 38.56 213.104C39.1573 214.277 39.9467 214.864 40.928 214.864C42.016 214.864 42.8693 214.235 43.488 212.976C44.128 211.696 44.448 209.947 44.448 207.728C44.448 203.205 43.3067 200.944 41.024 200.944ZM59.2793 197.744V218H55.0873V202.512C54.7886 202.704 54.3513 202.971 53.7753 203.312C52.9433 203.803 52.3459 204.176 51.9833 204.432C51.7059 203.963 51.2366 203.184 50.5753 202.096L50.3833 201.808C50.2339 201.531 50.1166 201.328 50.0312 201.2C50.7139 200.709 51.7913 199.973 53.2633 198.992C54.0313 198.48 54.6393 198.064 55.0873 197.744H59.2793Z" fill="white"/>
<path d="M350 85C350 89.1421 346.642 92.5 342.5 92.5C338.358 92.5 335 89.1421 335 85C335 80.8579 338.358 77.5 342.5 77.5C346.642 77.5 350 80.8579 350 85Z" fill="black" fill-opacity="0.3"/>
<circle cx="342.5" cy="85.5" r="17" stroke="url(#paint7_linear_1515_46)"/>
<path d="M247 95.5C247 98.8137 244.314 101.5 241 101.5C237.686 101.5 235 98.8137 235 95.5C235 92.1863 237.686 89.5 241 89.5C244.314 89.5 247 92.1863 247 95.5Z" fill="black" fill-opacity="0.3"/>
<circle cx="240.5" cy="95.5" r="12" stroke="url(#paint8_linear_1515_46)"/>
<path d="M145 103.5C145 106.261 142.761 108.5 140 108.5C137.239 108.5 135 106.261 135 103.5C135 100.739 137.239 98.5 140 98.5C142.761 98.5 145 100.739 145 103.5Z" fill="black" fill-opacity="0.3"/>
<circle cx="140" cy="104" r="9.5" stroke="url(#paint9_linear_1515_46)"/>
<defs>
<linearGradient id="paint0_linear_1515_46" x1="587" y1="109.5" x2="-4.52241" y2="107.697" gradientUnits="userSpaceOnUse">
<stop stop-opacity="0.79"/>
<stop offset="0.963639" stop-color="#1E1A26" stop-opacity="0.93"/>
</linearGradient>
<linearGradient id="paint1_linear_1515_46" x1="587" y1="166" x2="1" y2="166" gradientUnits="userSpaceOnUse">
<stop stop-color="#36FFF3"/>
<stop offset="0.473958" stop-color="#2300FB"/>
<stop offset="1" stop-color="#B556FF"/>
</linearGradient>
<linearGradient id="paint2_linear_1515_46" x1="57.5" y1="140" x2="226" y2="140" gradientUnits="userSpaceOnUse">
<stop stop-color="#373636"/>
<stop offset="1" stop-color="#5D5F69"/>
</linearGradient>
<linearGradient id="paint3_linear_1515_46" x1="157.5" y1="140" x2="326" y2="140" gradientUnits="userSpaceOnUse">
<stop stop-color="#373636"/>
<stop offset="1" stop-color="#5D5F69"/>
</linearGradient>
<linearGradient id="paint4_linear_1515_46" x1="257.5" y1="140" x2="426" y2="140" gradientUnits="userSpaceOnUse">
<stop stop-color="#373636"/>
<stop offset="1" stop-color="#5D5F69"/>
</linearGradient>
<linearGradient id="paint5_linear_1515_46" x1="357.5" y1="140" x2="526" y2="140" gradientUnits="userSpaceOnUse">
<stop stop-color="#373636"/>
<stop offset="1" stop-color="#5D5F69"/>
</linearGradient>
<linearGradient id="paint6_linear_1515_46" x1="440" y1="49" x2="440" y2="89" gradientUnits="userSpaceOnUse">
<stop stop-color="#41DDFF"/>
<stop offset="0.598958" stop-color="#1400FF"/>
<stop offset="1" stop-color="#8F00FF"/>
</linearGradient>
<linearGradient id="paint7_linear_1515_46" x1="342.5" y1="68" x2="342.5" y2="103" gradientUnits="userSpaceOnUse">
<stop stop-color="#41DDFF"/>
<stop offset="0.598958" stop-color="#1400FF"/>
<stop offset="1" stop-color="#8F00FF"/>
</linearGradient>
<linearGradient id="paint8_linear_1515_46" x1="240.5" y1="83" x2="240.5" y2="108" gradientUnits="userSpaceOnUse">
<stop stop-color="#41DDFF"/>
<stop offset="0.598958" stop-color="#1400FF"/>
<stop offset="1" stop-color="#8F00FF"/>
</linearGradient>
<linearGradient id="paint9_linear_1515_46" x1="140" y1="94" x2="140" y2="114" gradientUnits="userSpaceOnUse">
<stop stop-color="#41DDFF"/>
<stop offset="0.598958" stop-color="#1400FF"/>
<stop offset="1" stop-color="#8F00FF"/>
</linearGradient>
</defs>
</svg>
