<svg version="1.2" xmlns="http://www.w3.org/2000/svg" viewBox="0 0 496 296" width="496" height="296">
	<title>roadmap-svg</title>
	<style>
		.s0 { fill: #000000 } 
		.s1 { fill: #0c0b0b } 
		.s2 { opacity: .4;fill: #d9d9d9 } 
		.s3 { opacity: .1;fill: none;stroke: #000000;stroke-width: 2 } 
		.s4 { fill: #d9d9d9 } 
		.s5 { fill: #605c5c } 
		.s6 { fill: none;stroke: #000000 } 
	</style>
	<path id="Layer" class="s0" d="m99.5 47c-0.8 0-1.5-0.7-1.5-1.5 0-0.8 0.7-1.5 1.5-1.5 0.8 0 1.5 0.7 1.5 1.5 0 0.8-0.7 1.5-1.5 1.5z"/>
	<path id="Layer" class="s0" d="m98.5 109c-0.8 0-1.5-0.7-1.5-1.5 0-0.8 0.7-1.5 1.5-1.5 0.8 0 1.5 0.7 1.5 1.5 0 0.8-0.7 1.5-1.5 1.5z"/>
	<path id="Layer" class="s0" d="m98.5 78c-0.8 0-1.5-0.7-1.5-1.5 0-0.8 0.7-1.5 1.5-1.5 0.8 0 1.5 0.7 1.5 1.5 0 0.8-0.7 1.5-1.5 1.5z"/>
	<path id="Layer" class="s0" d="m167.5 189c-0.8 0-1.5-0.7-1.5-1.5 0-0.8 0.7-1.5 1.5-1.5 0.8 0 1.5 0.7 1.5 1.5 0 0.8-0.7 1.5-1.5 1.5z"/>
	<path id="Layer" class="s0" d="m315.5 188c-0.8 0-1.5-0.7-1.5-1.5 0-0.8 0.7-1.5 1.5-1.5 0.8 0 1.5 0.7 1.5 1.5 0 0.8-0.7 1.5-1.5 1.5z"/>
	<path id="Layer" class="s0" d="m315.5 251c-0.8 0-1.5-0.7-1.5-1.5 0-0.8 0.7-1.5 1.5-1.5 0.8 0 1.5 0.7 1.5 1.5 0 0.8-0.7 1.5-1.5 1.5z"/>
	<path id="Layer" class="s0" d="m315.5 220c-0.8 0-1.5-0.7-1.5-1.5 0-0.8 0.7-1.5 1.5-1.5 0.8 0 1.5 0.7 1.5 1.5 0 0.8-0.7 1.5-1.5 1.5z"/>
	<path id="Layer" class="s0" d="m167.5 251c-0.8 0-1.5-0.7-1.5-1.5 0-0.8 0.7-1.5 1.5-1.5 0.8 0 1.5 0.7 1.5 1.5 0 0.8-0.7 1.5-1.5 1.5z"/>
	<path id="Layer" class="s0" d="m167.5 220c-0.8 0-1.5-0.7-1.5-1.5 0-0.8 0.7-1.5 1.5-1.5 0.8 0 1.5 0.7 1.5 1.5 0 0.8-0.7 1.5-1.5 1.5z"/>
	<path id="Layer" class="s0" d="m15.5 189c-0.8 0-1.5-0.7-1.5-1.5 0-0.8 0.7-1.5 1.5-1.5 0.8 0 1.5 0.7 1.5 1.5 0 0.8-0.7 1.5-1.5 1.5z"/>
	<path id="Layer" class="s0" d="m241.5 38c-0.8 0-1.5-0.7-1.5-1.5 0-0.8 0.7-1.5 1.5-1.5 0.8 0 1.5 0.7 1.5 1.5 0 0.8-0.7 1.5-1.5 1.5z"/>
	<path id="Layer" class="s0" d="m241.5 69c-0.8 0-1.5-0.7-1.5-1.5 0-0.8 0.7-1.5 1.5-1.5 0.8 0 1.5 0.7 1.5 1.5 0 0.8-0.7 1.5-1.5 1.5z"/>
	<path id="Layer" class="s0" d="m241.5 99c-0.8 0-1.5-0.7-1.5-1.5 0-0.8 0.7-1.5 1.5-1.5 0.8 0 1.5 0.7 1.5 1.5 0 0.8-0.7 1.5-1.5 1.5z"/>
	<path id="Layer" class="s0" d="m15.5 274c-0.8 0-1.5-0.7-1.5-1.5 0-0.8 0.7-1.5 1.5-1.5 0.8 0 1.5 0.7 1.5 1.5 0 0.8-0.7 1.5-1.5 1.5z"/>
	<path id="Layer" class="s0" d="m15.5 243c-0.8 0-1.5-0.7-1.5-1.5 0-0.8 0.7-1.5 1.5-1.5 0.8 0 1.5 0.7 1.5 1.5 0 0.8-0.7 1.5-1.5 1.5z"/>
	<path id="Layer" class="s0" d="m15.5 225c-0.8 0-1.5-0.7-1.5-1.5 0-0.8 0.7-1.5 1.5-1.5 0.8 0 1.5 0.7 1.5 1.5 0 0.8-0.7 1.5-1.5 1.5z"/>
	<path id="Layer" class="s0" d="m15.5 207c-0.8 0-1.5-0.7-1.5-1.5 0-0.8 0.7-1.5 1.5-1.5 0.8 0 1.5 0.7 1.5 1.5 0 0.8-0.7 1.5-1.5 1.5z"/>
	<path id="Layer" fill-rule="evenodd" class="s1" d="m6.1 26v-12.6q0.3-0.1 1.6-0.2 1.3-0.1 2-0.1 4.8 0 4.8 4 0 2.1-1.7 3.6 0.7 1.7 2.5 5.3h-2.7q-1-2.1-2.1-4.6-0.2 0-0.6 0-0.9 0-1.1-0.1v4.7zm2.6-10.7v3.9q0.6 0.1 1.3 0.1 1.7 0 1.7-2.2 0-1.9-1.8-1.9-1 0-1.2 0.1zm11.3 1.4q2.2 0 3.4 1.6 1.1 1.3 1.1 3.2 0 2.2-1.6 3.6-1.2 1.1-2.9 1.1-2 0-3.4-1.4-1.2-1.4-1.2-3.3 0-2.2 1.4-3.6 1.2-1.2 3.2-1.2zm0 7.7q1.9 0 1.9-2.9 0-3-1.9-3-2 0-2 3 0 2.9 2 2.9zm13.9 1.6h-2l-0.2-0.9q-1.3 1.1-2.7 1.1-3 0-3-2.9 0-1.5 1.3-2.3 1.2-0.8 3.7-0.8h0.5v-0.1q0-0.8-0.4-1.1-0.4-0.4-1.3-0.4-1.3 0-2.4 0.9-0.4-0.7-0.7-1.3 1.1-0.9 2-1.2 0.8-0.3 2-0.3 3.2 0 3.2 4zm-2.5-4.3h-0.3q-1.2 0-1.9 0.4-0.7 0.4-0.7 1.1 0 1.2 1.1 1.2 0.7 0 1.2-0.4 0.5-0.4 0.6-0.9zm11.7 4.2l-0.3-0.9q-0.4 0.5-1.1 0.8-0.7 0.4-1.5 0.4-2.1 0-3.2-1.4-1-1.2-1-3.1 0-2.6 1.6-4 1.1-1.1 2.7-1.1 1.4 0 2.3 0.8v-2.9l2.5-1.4v12.8zm-0.5-3.4v-2.6q-0.1-0.6-0.6-1-0.5-0.5-1.1-0.5-1.1 0-1.7 0.8-0.6 0.8-0.6 2.2 0 3 2 3 0.7 0 1.3-0.6 0.6-0.6 0.7-1.3zm7.7-4.8q1.1-1.1 2.8-1.1 1.2 0 2 0.5 0.9 0.5 1.3 1.3 0.4-0.8 1.3-1.3 1-0.5 2.1-0.5 3.2 0 3.2 3.9v5.4h-2.6v-4.7q0-1.4-0.4-1.9-0.3-0.6-1.3-0.6-1.3 0-2.1 1.1v6.1h-2.5v-5q0-1.2-0.4-1.7-0.5-0.5-1.5-0.5-0.6 0-1.1 0.2-0.5 0.2-0.7 0.5v6.5h-2.5v-9h2.1l0.2 0.8zm22.6 8.2h-2l-0.2-0.8q-1.3 1.1-2.7 1.1-3 0-3-3 0-1.4 1.2-2.2 1.3-0.9 3.8-0.9h0.4q0-0.9-0.3-1.2-0.4-0.3-1.3-0.3-1.3 0-2.4 0.8-0.4-0.6-0.7-1.3 1.1-0.9 2-1.2 0.8-0.3 2-0.3 3.2 0 3.2 4zm-2.5-4.3h-0.3q-1.2 0-1.9 0.4-0.7 0.4-0.7 1.1 0 1.2 1.1 1.2 0.7 0 1.2-0.3 0.5-0.4 0.6-1zm7.1-4.8l0.3 0.9q0.8-1.1 2.3-1.1 2.2 0 3.4 1.4 1 1.2 1 3.2 0 2.5-1.5 3.8-1.2 1.1-3 1.1-0.5 0-1.1-0.2-0.6-0.2-0.8-0.5v4h-2.5v-12.6zm0.6 3.5v2.4q0 0.7 0.5 1.2 0.5 0.5 1.1 0.5 0.9 0 1.5-0.9 0.6-0.9 0.6-2.1 0-1.4-0.5-2.2-0.5-0.8-1.4-0.8-0.7 0-1.3 0.6-0.5 0.6-0.5 1.3z"/>
	<path id="Layer" class="s2" d="m162 177h95v104h-95z"/>
	<path id="Layer" fill-rule="evenodd" class="s0" d="m47.6 119v-1.7q0.4-0.4 1-1.1 0.9-1 1.4-1.5 1-1.3 1.2-1.7 0.3-0.4 0.3-1 0-0.4-0.3-0.7-0.4-0.3-0.9-0.3-0.9 0-1.9 0.7l-0.9-1.2q1.5-1.2 3.2-1.2 1.3 0 2.1 0.7 0.7 0.7 0.7 1.9 0 0.9-0.6 1.9-0.6 1-2.3 2.9-0.4 0.5-0.6 0.7h3.4v1.6zm10.6-9.7q1.7 0 2.8 1.7 0.9 1.4 0.9 3.3 0 2.3-1.1 3.7-1 1.2-2.6 1.2-1.8 0-2.8-1.6-0.8-1.3-0.8-3.3 0-2.2 1.1-3.7 1-1.3 2.5-1.3zm0 1.7q-1.6 0-1.6 3.2 0 1.6 0.5 2.5 0.4 0.8 1.1 0.8 0.8 0 1.2-0.9 0.4-0.9 0.4-2.4 0-3.2-1.6-3.2zm4.9 8v-1.7q0.3-0.4 0.9-1.1 1-1 1.4-1.5 1-1.3 1.3-1.7 0.2-0.4 0.2-1 0-0.4-0.3-0.7-0.3-0.3-0.8-0.3-0.9 0-2 0.7l-0.8-1.2q1.5-1.2 3.1-1.2 1.3 0 2.1 0.7 0.8 0.7 0.8 1.9 0 0.9-0.6 1.9-0.6 1-2.3 2.9-0.4 0.5-0.6 0.7h3.4v1.6zm9.8-4.2h-1.5v-1.6h1.5q0.6 0 0.8-0.2 0.3-0.3 0.3-0.9 0-0.5-0.3-0.8-0.3-0.3-0.8-0.3-0.9 0-1.9 0.8l-0.7-1.3q1.2-1.2 2.8-1.2 1.3 0 2.2 0.8 0.8 0.7 0.8 1.8 0 1.4-1.2 1.9 1.5 0.6 1.5 2.3 0 1.7-1.2 2.5-0.8 0.6-2.1 0.6-0.7 0-1.5-0.4-0.9-0.4-1.5-0.9l0.8-1.2q0.8 0.8 2.1 0.8 0.6 0 1-0.4 0.4-0.4 0.4-1 0-1.3-1.5-1.3zm-13.9 20.3q-0.4 0.1-0.8 0.1-2.2 0-3.3-1.6-1-1.3-1-3.2 0-2.3 1.3-3.8 1.1-1.3 3-1.3 2.2 0 3.4 1.8 0.9 1.4 0.9 3.3 0 2.8-1.8 4.1 0.9 1 1.9 2.1h-2.3zm-0.8-1.6q2.3 0 2.3-3.1 0-1.7-0.7-2.6-0.6-0.8-1.6-0.8-1.1 0-1.7 0.9-0.5 0.9-0.5 2.5 0 3.1 2.2 3.1zm8.3-2.8h-1.4v-1.6h1.4q0.6 0.1 0.9-0.1 0.3-0.3 0.3-0.9 0-0.5-0.3-0.8-0.3-0.4-0.8-0.4-0.9 0-1.9 0.9l-0.7-1.3q1.2-1.2 2.8-1.2 1.3 0 2.2 0.7 0.8 0.8 0.8 1.9 0 1.4-1.2 1.9 1.5 0.6 1.5 2.2 0 1.8-1.2 2.6-0.8 0.5-2.1 0.5-0.7 0.1-1.6-0.3-0.8-0.4-1.4-0.9l0.8-1.2q0.8 0.7 2.1 0.7 0.6 0 1-0.3 0.4-0.4 0.4-1 0-1.4-1.6-1.4z"/>
	<path id="Layer" fill-rule="evenodd" class="s0" d="m135.6 171.1q-0.5 0.1-0.8 0.1-2.2 0-3.4-1.6-0.9-1.3-0.9-3.2 0-2.3 1.2-3.8 1.2-1.3 3.1-1.3 2.2 0 3.3 1.8 1 1.4 1 3.3 0 2.8-1.9 4.1 0.9 1 1.9 2.1h-2.3zm-0.7-1.6q2.2 0 2.2-3.1 0-1.7-0.6-2.6-0.6-0.8-1.6-0.8-1.1 0-1.7 0.9-0.6 0.9-0.6 2.5 0 3.1 2.3 3.1zm5.4-1.9q2-3.1 3.9-6.1h2v6.1h1.5v1.5h-1.5v1.9h-2v-1.9h-3.9zm1.6 0h2.3v-3.5zm-17.2 19.4v-1.7q0.3-0.4 0.9-1.1 1-1 1.4-1.5 1-1.2 1.3-1.7 0.3-0.4 0.3-1 0-0.4-0.4-0.7-0.3-0.3-0.8-0.3-0.9 0-2 0.7l-0.8-1.2q1.5-1.2 3.1-1.2 1.4 0 2.1 0.7 0.8 0.7 0.8 1.9 0 0.9-0.6 1.9-0.6 1-2.3 2.9-0.4 0.5-0.6 0.7h3.4v1.6zm10.6-9.7q1.7 0 2.8 1.7 0.9 1.4 0.9 3.3 0 2.3-1.2 3.7-1 1.2-2.5 1.2-1.8 0-2.8-1.6-0.9-1.3-0.9-3.3 0-2.2 1.2-3.7 1-1.3 2.5-1.3zm0 1.7q-1.6 0-1.6 3.2 0 1.6 0.5 2.5 0.4 0.8 1.1 0.8 0.7 0 1.2-0.9 0.4-0.9 0.4-2.4 0-3.2-1.6-3.2zm4.8 8v-1.7q0.4-0.4 1-1.1 0.9-1 1.4-1.5 1-1.2 1.2-1.7 0.3-0.4 0.3-1 0-0.4-0.3-0.7-0.4-0.3-0.9-0.3-0.9 0-1.9 0.7l-0.8-1.2q1.5-1.2 3.1-1.2 1.3 0 2.1 0.7 0.7 0.7 0.7 1.9 0 0.9-0.6 1.9-0.5 1-2.3 2.9-0.4 0.5-0.6 0.7h3.4v1.6zm9.8-4.2h-1.4v-1.6h1.4q0.6 0 0.9-0.2 0.3-0.3 0.3-0.9 0-0.5-0.3-0.8-0.3-0.3-0.8-0.3-0.9 0-1.9 0.8l-0.7-1.3q1.2-1.2 2.8-1.2 1.3 0 2.1 0.8 0.9 0.7 0.9 1.8 0 1.4-1.2 1.9 1.5 0.6 1.5 2.3 0 1.7-1.2 2.5-0.8 0.6-2.1 0.6-0.7 0-1.6-0.4-0.8-0.4-1.4-0.9l0.8-1.2q0.8 0.8 2.1 0.8 0.6 0 1-0.4 0.4-0.4 0.4-1 0-1.3-1.6-1.3z"/>
	<path id="Layer" fill-rule="evenodd" class="s0" d="m345.7 118v-1.7q0.3-0.4 0.9-1.1 1-1 1.4-1.5 1-1.3 1.3-1.7 0.2-0.4 0.2-1 0-0.4-0.3-0.7-0.3-0.3-0.8-0.3-0.9 0-2 0.7l-0.8-1.2q1.5-1.2 3.1-1.2 1.3 0 2.1 0.7 0.8 0.7 0.8 1.9 0 0.9-0.6 1.9-0.6 1-2.3 2.9-0.4 0.5-0.6 0.7h3.4v1.6zm10.6-9.7q1.7 0 2.7 1.7 0.9 1.4 0.9 3.3 0 2.3-1.1 3.7-1 1.2-2.5 1.2-1.8 0-2.8-1.6-0.9-1.3-0.9-3.3 0-2.2 1.1-3.7 1-1.3 2.6-1.3zm0 1.7q-1.6 0-1.6 3.2 0 1.6 0.4 2.5 0.4 0.8 1.1 0.8 0.8 0 1.2-0.9 0.5-0.9 0.5-2.4 0-3.2-1.6-3.2zm4.8 8v-1.7q0.4-0.4 1-1.1 0.9-1 1.4-1.5 1-1.3 1.2-1.7 0.3-0.4 0.3-1 0-0.4-0.4-0.7-0.3-0.3-0.8-0.3-0.9 0-1.9 0.7l-0.9-1.2q1.5-1.2 3.2-1.2 1.3 0 2.1 0.7 0.7 0.7 0.7 1.9 0 0.9-0.6 1.9-0.6 1-2.3 2.9-0.4 0.5-0.6 0.7h3.4v1.6zm6.9-3.4q2-3.1 4-6.1h1.9v6.1h1.6v1.6h-1.6v1.8h-1.9v-1.8h-4zm1.7 0h2.3v-3.6zm-12.2 19.5q-0.4 0.1-0.8 0.1-2.2 0-3.4-1.6-0.9-1.3-0.9-3.2 0-2.3 1.3-3.7 1.1-1.4 3-1.4 2.2 0 3.4 1.8 0.9 1.4 0.9 3.3 0 2.8-1.8 4.1 0.8 1 1.9 2.1h-2.3zm-0.8-1.6q2.3 0 2.3-3.1 0-1.6-0.7-2.6-0.6-0.8-1.6-0.8-1.1 0-1.7 0.9-0.6 0.9-0.6 2.5 0 3.1 2.3 3.1zm8.3-2.7h-1.4v-1.6h1.4q0.6 0 0.8-0.2 0.4-0.2 0.4-0.9 0-0.5-0.3-0.8-0.3-0.3-0.8-0.3-0.9 0-1.9 0.8l-0.7-1.3q1.2-1.2 2.8-1.2 1.3 0 2.1 0.8 0.8 0.7 0.8 1.8 0 1.4-1.1 1.9 1.5 0.6 1.5 2.3 0 1.7-1.2 2.5-0.8 0.6-2.1 0.6-0.7 0-1.6-0.4-0.9-0.4-1.4-0.9l0.8-1.2q0.8 0.8 2.1 0.8 0.6 0 1-0.4 0.4-0.4 0.4-1 0-1.3-1.6-1.3z"/>
	<path id="Layer" fill-rule="evenodd" class="s0" d="m434.1 170.1q-0.5 0.1-0.8 0.1-2.2 0-3.4-1.6-0.9-1.3-0.9-3.2 0-2.3 1.2-3.8 1.2-1.3 3.1-1.3 2.2 0 3.3 1.8 1 1.4 1 3.3 0 2.8-1.9 4.1 0.9 1 1.9 2.1h-2.3zm-0.7-1.6q2.2 0 2.2-3.1 0-1.7-0.6-2.6-0.6-0.8-1.6-0.8-1.1 0-1.7 0.9-0.6 0.9-0.6 2.5 0 3.1 2.3 3.1zm5.4-1.9q2-3.1 3.9-6.1h2v6.1h1.5v1.5h-1.5v1.9h-2v-1.9h-3.9zm1.6 0h2.3v-3.5zm-17.7 19.4v-1.7q0.4-0.4 1-1.1 0.9-1 1.4-1.5 1-1.2 1.2-1.7 0.3-0.4 0.3-1 0-0.4-0.3-0.7-0.4-0.3-0.9-0.3-0.9 0-1.9 0.7l-0.8-1.2q1.5-1.2 3.1-1.2 1.3 0 2.1 0.7 0.7 0.7 0.7 1.9 0 0.9-0.6 1.9-0.5 1-2.3 2.9-0.4 0.5-0.6 0.7h3.4v1.6zm10.6-9.7q1.8 0 2.8 1.7 0.9 1.4 0.9 3.3 0 2.3-1.1 3.7-1 1.2-2.6 1.2-1.8 0-2.8-1.6-0.8-1.3-0.8-3.3 0-2.2 1.1-3.7 1-1.3 2.5-1.3zm0.1 1.7q-1.7 0-1.7 3.2 0 1.6 0.5 2.5 0.4 0.8 1.1 0.8 0.8 0 1.2-0.9 0.5-0.9 0.5-2.4 0-3.2-1.6-3.2zm4.8 8v-1.7q0.3-0.4 0.9-1.1 1-1 1.4-1.5 1-1.2 1.3-1.7 0.2-0.4 0.2-1 0-0.4-0.3-0.7-0.3-0.3-0.8-0.3-0.9 0-2 0.7l-0.8-1.2q1.5-1.2 3.1-1.2 1.3 0 2.1 0.7 0.8 0.7 0.8 1.9 0 0.9-0.6 1.9-0.6 1-2.3 2.9-0.4 0.5-0.6 0.7h3.4v1.6zm6.8-3.4q2.1-3.1 4-6.1h2v6.1h1.5v1.6h-1.5v1.8h-2v-1.8h-4zm1.7 0h2.3v-3.6z"/>
	<path id="Layer" fill-rule="evenodd" class="s0" d="m191.7 118v-1.7q0.3-0.4 0.9-1.1 1-1 1.4-1.5 1-1.3 1.3-1.7 0.2-0.4 0.2-1 0-0.4-0.3-0.7-0.3-0.3-0.8-0.3-0.9 0-2 0.7l-0.8-1.2q1.5-1.2 3.1-1.2 1.3 0 2.1 0.7 0.8 0.7 0.8 1.9 0 0.9-0.6 1.9-0.6 1-2.3 2.9-0.4 0.5-0.6 0.7h3.4v1.6zm10.6-9.7q1.7 0 2.7 1.7 0.9 1.4 0.9 3.3 0 2.3-1.1 3.7-1 1.2-2.5 1.2-1.8 0-2.8-1.6-0.9-1.3-0.9-3.3 0-2.2 1.1-3.7 1-1.3 2.6-1.3zm0 1.7q-1.6 0-1.6 3.2 0 1.6 0.4 2.5 0.4 0.8 1.1 0.8 0.8 0 1.2-0.9 0.5-0.9 0.5-2.4 0-3.2-1.6-3.2zm4.8 8v-1.7q0.4-0.4 1-1.1 0.9-1 1.4-1.5 1-1.3 1.2-1.7 0.3-0.4 0.3-1 0-0.4-0.4-0.7-0.3-0.3-0.8-0.3-0.9 0-1.9 0.7l-0.9-1.2q1.5-1.2 3.2-1.2 1.3 0 2.1 0.7 0.7 0.7 0.7 1.9 0 0.9-0.6 1.9-0.6 1-2.3 2.9-0.4 0.5-0.6 0.7h3.4v1.6zm6.9-3.4q2-3.1 4-6.1h1.9v6.1h1.6v1.6h-1.6v1.8h-1.9v-1.8h-4zm1.7 0h2.3v-3.6zm-11.2 19.5q-0.4 0.1-0.8 0.1-2.2 0-3.4-1.6-0.9-1.3-0.9-3.2 0-2.3 1.3-3.7 1.1-1.4 3-1.4 2.2 0 3.4 1.8 0.9 1.4 0.9 3.3 0 2.8-1.8 4.1 0.8 1 1.9 2.1h-2.3zm-0.8-1.6q2.3 0 2.3-3.1 0-1.6-0.7-2.6-0.6-0.8-1.6-0.8-1.1 0-1.7 0.9-0.6 0.9-0.6 2.5 0 3.1 2.3 3.1zm9.3-8v9.5h-2v-7.3q-0.2 0.2-0.6 0.4-0.6 0.4-0.9 0.5-0.2-0.3-0.6-1.1l-0.1-0.1q-0.1-0.2-0.2-0.3 0.5-0.3 1.5-1 0.6-0.4 0.9-0.6z"/>
	<path id="Layer" fill-rule="evenodd" class="s0" d="m280.8 170.1q-0.4 0.1-0.8 0.1-2.2 0-3.4-1.6-0.9-1.3-0.9-3.2 0-2.3 1.3-3.8 1.1-1.3 3-1.3 2.2 0 3.4 1.8 0.9 1.4 0.9 3.3 0 2.8-1.8 4.1 0.8 1 1.9 2.1h-2.3zm-0.8-1.6q2.2 0 2.2-3.1 0-1.7-0.6-2.6-0.6-0.8-1.6-0.8-1.1 0-1.7 0.9-0.6 0.9-0.6 2.5 0 3.1 2.3 3.1zm5.5 1.5v-1.7q0.4-0.4 1-1.1 0.9-1 1.4-1.6 1-1.2 1.2-1.6 0.3-0.5 0.3-1 0-0.4-0.4-0.7-0.3-0.3-0.8-0.3-0.9 0-1.9 0.7l-0.9-1.2q1.5-1.2 3.2-1.2 1.3 0 2 0.7 0.8 0.7 0.8 1.9 0 0.9-0.6 1.9-0.6 1-2.3 2.9-0.4 0.5-0.6 0.7h3.4v1.6zm-16.8 16v-1.7q0.3-0.4 0.9-1.1 1-1 1.4-1.6 1-1.2 1.3-1.6 0.2-0.5 0.2-1 0-0.4-0.3-0.7-0.3-0.3-0.8-0.3-0.9 0-2 0.7l-0.8-1.2q1.5-1.2 3.1-1.2 1.3 0 2.1 0.7 0.8 0.7 0.8 1.9 0 0.9-0.6 1.9-0.6 1-2.3 2.9-0.4 0.5-0.6 0.7h3.4v1.6zm10.5-9.7q1.8 0 2.8 1.7 0.9 1.4 0.9 3.3 0 2.3-1.1 3.6-1 1.3-2.6 1.3-1.7 0-2.7-1.6-0.9-1.3-0.9-3.3 0-2.3 1.1-3.7 1-1.3 2.5-1.3zm0.1 1.7q-1.6 0-1.6 3.2 0 1.6 0.4 2.5 0.4 0.8 1.1 0.8 0.8 0 1.2-0.9 0.5-0.9 0.5-2.4 0-3.2-1.6-3.2zm4.8 8v-1.7q0.4-0.4 1-1.1 0.9-1 1.4-1.6 1-1.2 1.2-1.6 0.3-0.5 0.3-1 0-0.4-0.4-0.7-0.3-0.3-0.8-0.3-0.9 0-1.9 0.7l-0.9-1.2q1.5-1.2 3.2-1.2 1.3 0 2 0.7 0.8 0.7 0.8 1.9 0 0.9-0.6 1.9-0.6 1-2.3 2.9-0.4 0.5-0.6 0.7h3.4v1.6zm6.9-3.4q2-3.1 4-6.1h1.9v6.1h1.6v1.5h-1.6v1.9h-2v-1.9h-3.9zm1.7 0h2.2v-3.5z"/>
	<path id="Layer" class="s3" d="m52 147.5l386-1.5"/>
	<path id="Layer" class="s4" d="m62 158c-5.5 0-10-4.5-10-10 0-5.5 4.5-10 10-10 5.5 0 10 4.5 10 10 0 5.5-4.5 10-10 10z"/>
	<path id="Layer" class="s5" d="m62 153c-2.8 0-5-2.2-5-5 0-2.8 2.2-5 5-5 2.8 0 5 2.2 5 5 0 2.8-2.2 5-5 5z"/>
	<path id="Layer" class="s4" d="m438 157c-5.5 0-10-4.5-10-10 0-5.5 4.5-10 10-10 5.5 0 10 4.5 10 10 0 5.5-4.5 10-10 10z"/>
	<path id="Layer" class="s5" d="m438 152c-2.8 0-5-2.2-5-5 0-2.8 2.2-5 5-5 2.8 0 5 2.2 5 5 0 2.8-2.2 5-5 5z"/>
	<path id="Layer" class="s4" d="m360 158c-5.5 0-10-4.5-10-10 0-5.5 4.5-10 10-10 5.5 0 10 4.5 10 10 0 5.5-4.5 10-10 10z"/>
	<path id="Layer" class="s5" d="m360 153c-2.8 0-5-2.2-5-5 0-2.8 2.2-5 5-5 2.8 0 5 2.2 5 5 0 2.8-2.2 5-5 5z"/>
	<path id="Layer" class="s4" d="m283 158c-5.5 0-10-4.5-10-10 0-5.5 4.5-10 10-10 5.5 0 10 4.5 10 10 0 5.5-4.5 10-10 10z"/>
	<path id="Layer" class="s5" d="m283 153c-2.8 0-5-2.2-5-5 0-2.8 2.2-5 5-5 2.8 0 5 2.2 5 5 0 2.8-2.2 5-5 5z"/>
	<path id="Layer" class="s4" d="m206 158c-5.5 0-10-4.5-10-10 0-5.5 4.5-10 10-10 5.5 0 10 4.5 10 10 0 5.5-4.5 10-10 10z"/>
	<path id="Layer" class="s5" d="m206 153c-2.8 0-5-2.2-5-5 0-2.8 2.2-5 5-5 2.8 0 5 2.2 5 5 0 2.8-2.2 5-5 5z"/>
	<path id="Layer" class="s4" d="m139 158c-5.5 0-10-4.5-10-10 0-5.5 4.5-10 10-10 5.5 0 10 4.5 10 10 0 5.5-4.5 10-10 10z"/>
	<path id="Layer" class="s5" d="m139 153c-2.8 0-5-2.2-5-5 0-2.8 2.2-5 5-5 2.8 0 5 2.2 5 5 0 2.8-2.2 5-5 5z"/>
	<path id="Layer" class="s6" d="m139.5 119v19"/>
	<path id="Layer" class="s6" d="m62.5 158v19"/>
	<path id="Layer" class="s2" d="m11 177h100v104h-100z"/>
	<path id="Layer" class="s2" d="m96 34h89v85h-89z"/>
	<path id="Layer" fill-rule="evenodd" class="s0" d="m106.6 74.3h-2.3v-0.9h5.9v0.9h-2.5v6.7h-1.1zm8.6 4.3h-3.8q0.1 0.8 0.6 1.3 0.5 0.4 1.2 0.4 0.8 0 1.5-0.4l0.4 0.5q-0.9 0.7-2 0.7-1.4 0-2.1-0.8-0.8-0.8-0.8-2 0-1.3 0.8-2.2 0.7-0.7 1.8-0.7 1.2 0 1.9 0.9 0.5 0.8 0.5 1.9zm-3.8-0.8h2.8q0-0.7-0.4-1.2-0.4-0.4-1-0.4-0.6 0-1 0.4-0.4 0.5-0.4 1.2zm8.3-1.3q-0.6-0.3-1.3-0.3-0.4 0-0.6 0.2-0.3 0.2-0.3 0.5 0 0.3 0.2 0.5 0.3 0.2 0.9 0.4 0.9 0.2 1.3 0.5 0.4 0.5 0.4 1.2 0 0.8-0.5 1.2-0.5 0.5-1.4 0.5-1.2 0-2-0.7l0.3-0.6q0.7 0.5 1.5 0.5 1.2 0 1.2-0.9 0-0.3-0.3-0.5-0.2-0.2-0.9-0.4-1.7-0.4-1.7-1.7 0-0.6 0.5-1 0.5-0.5 1.3-0.5 1 0 1.8 0.6zm3.5-0.2v3.2q0 0.8 0.6 0.8 0.4 0 0.9-0.2l0.3 0.5q-0.6 0.5-1.4 0.5-1.4 0-1.4-1.5v-3.3h-0.8v-0.8h0.8v-1.1l1-0.6v1.7h1.7v0.8zm6.1 4.6v-7.5q1.1-0.2 2-0.2 2.7 0 2.7 2.3 0 1.3-0.8 1.9-0.7 0.6-1.8 0.6-0.5 0-1-0.1v3zm1.2-6.7v2.8q0.4 0.1 1 0.1 1.4 0 1.4-1.6 0-1.4-1.6-1.4-0.5 0-0.8 0.1zm6.1 1.8q0.6-0.6 1.3-0.6 1 0 1.5 0.7l-0.9 0.5q-0.4-0.4-0.9-0.4-0.6 0-1 0.7v4h-1v-5.4h0.9zm5.9 5.1q-1.3 0-2-1-0.7-0.8-0.7-1.9 0-1.3 0.8-2.1 0.7-0.8 1.9-0.8 1.3 0 2 1 0.6 0.8 0.6 1.9 0 1.3-0.8 2.1-0.8 0.8-1.8 0.8zm-0.1-0.9q0.8 0 1.2-0.5 0.4-0.6 0.4-1.5 0-1-0.4-1.6-0.5-0.5-1.1-0.5-0.7 0-1.2 0.6-0.4 0.6-0.4 1.5 0 1 0.5 1.6 0.4 0.4 1 0.4zm8.1 0.7l-0.1-0.6q-0.6 0.8-1.6 0.8-1.3 0-1.9-0.9-0.6-0.8-0.6-1.9 0-1.5 0.8-2.3 0.7-0.7 1.7-0.7 0.9 0 1.5 0.6v-2.1l1-0.6v7.7zm-0.2-1.7v-2.2q-0.1-0.3-0.5-0.6-0.4-0.3-0.8-0.3-0.7 0-1.2 0.6-0.4 0.6-0.4 1.5 0 1 0.4 1.6 0.5 0.4 1.1 0.4 0.5 0 0.9-0.3 0.4-0.3 0.5-0.7zm6.4-3.7h1.1v5.4h-0.8l-0.1-0.6h-0.1q-0.3 0.3-0.8 0.5-0.4 0.3-0.9 0.3-1.9 0-1.9-2.4v-3.2h1v3q0 1.7 1.2 1.7 0.4 0 0.8-0.2 0.3-0.2 0.5-0.4zm7.3 4.8q-0.7 0.7-1.9 0.7-1.4 0-2.2-0.8-0.6-0.8-0.6-2 0-1.3 0.9-2.2 0.7-0.7 1.8-0.7 1.1 0 1.9 0.7l-0.3 0.5q-0.7-0.4-1.4-0.4-0.8 0-1.3 0.6-0.5 0.6-0.5 1.5 0 0.9 0.5 1.5 0.6 0.5 1.4 0.5 0.8 0 1.3-0.5zm2.9-4v3.2q0 0.8 0.6 0.8 0.4 0 0.8-0.3l0.4 0.6q-0.7 0.5-1.5 0.5-1.3 0-1.3-1.6v-3.2h-0.9v-0.8h0.9v-1.2l1-0.5v1.7h1.6v0.8zm-59.9 17.6h-1l-1.8-5.4h1.1l1.2 4.2 1.2-4.2h1.1l1.1 4.2 1.3-4.2h1l-1.8 5.4h-1l-1.2-4.1zm7.4-5.5v5.5h-1v-5.5zm-1.2-1.7q0-0.2 0.2-0.4 0.2-0.2 0.5-0.2 0.2 0 0.4 0.2 0.2 0.2 0.2 0.4 0 0.3-0.2 0.5-0.2 0.2-0.4 0.2-0.3 0-0.5-0.2-0.2-0.2-0.2-0.5zm4.5 2.6v3.1q0 0.8 0.6 0.8 0.4 0 0.8-0.2l0.4 0.5q-0.7 0.5-1.5 0.5-1.4 0-1.4-1.5v-3.2h-0.8v-0.9h0.8v-1.1l1.1-0.5v1.6h1.6v0.9zm4.3-3.2v2.9q0.6-0.7 1.6-0.7 2 0 2 2.3v3.3h-1v-3.2q0-1.5-1.3-1.5-0.4 0-0.8 0.1-0.4 0.2-0.5 0.5v4.1h-1.1v-7.2zm14 4.5q0 3.4-2.7 3.4-2.8 0-2.8-3.4v-4.4h1.1v4.7q0 2.1 1.7 2.1 1.6 0 1.6-2.1v-4.7h1.1zm3-1.7h0.1q0.6-0.7 1.7-0.7 2 0 2 2.4v3.2h-1.1v-3.2q0-1.5-1.3-1.5-0.4 0-0.8 0.2-0.3 0.2-0.5 0.4v4.1h-1v-5.5h0.8zm6.7-0.5v5.5h-1.1v-5.5zm-1.1-1.7q0-0.2 0.2-0.4 0.2-0.2 0.4-0.2 0.3 0 0.4 0.2 0.2 0.2 0.2 0.4 0 0.3-0.1 0.5-0.2 0.2-0.5 0.2-0.2 0-0.4-0.2-0.2-0.2-0.2-0.5zm5.3 7.2h-1l-2-5.5h1l1.5 4.2 1.5-4.2h1.1zm7.7-2.4h-3.8q0.1 0.8 0.6 1.3 0.5 0.4 1.2 0.4 0.8 0 1.5-0.4l0.3 0.6q-0.8 0.7-1.9 0.7-1.4 0-2.1-0.9-0.8-0.7-0.8-2 0-1.3 0.8-2.1 0.7-0.8 1.8-0.8 1.2 0 1.9 1 0.5 0.7 0.5 1.9zm-3.8-0.8h2.8q-0.1-0.8-0.4-1.2-0.4-0.5-1-0.5-0.6 0-1 0.5-0.4 0.4-0.4 1.2zm6.3-1.8h0.1q0.5-0.6 1.3-0.6 0.9 0 1.4 0.7l-0.9 0.5q-0.4-0.4-0.8-0.4-0.6 0-1 0.7v4h-1.1v-5.4h0.9zm6.7 0.4q-0.6-0.3-1.3-0.3-0.4 0-0.6 0.2-0.3 0.2-0.3 0.5 0 0.3 0.2 0.5 0.3 0.2 0.9 0.4 0.9 0.2 1.3 0.5 0.5 0.5 0.5 1.2 0 0.8-0.6 1.2-0.5 0.5-1.4 0.5-1.2 0-2-0.7l0.4-0.6q0.6 0.4 1.5 0.4 1.1 0 1.1-0.8 0-0.4-0.3-0.5-0.2-0.2-0.9-0.4-1.7-0.4-1.7-1.7 0-0.6 0.5-1.1 0.5-0.4 1.3-0.4 1 0 1.8 0.6zm3.2-1v5.4h-1.1v-5.4zm-1.1-1.7q0-0.2 0.2-0.4 0.2-0.2 0.4-0.2 0.3 0 0.5 0.2 0.2 0.2 0.2 0.4 0 0.3-0.2 0.5-0.2 0.1-0.5 0.1-0.2 0-0.4-0.1-0.2-0.2-0.2-0.5zm4.5 2.5l-0.1 3.2q0 0.8 0.6 0.8 0.5 0 0.9-0.2l0.3 0.5q-0.6 0.5-1.4 0.5-1.4 0-1.4-1.5v-3.3h-0.8v-0.8h0.8v-1.1l1.1-0.6v1.7h1.6v0.8zm7.7-0.8l-2.3 6.3q-0.6 1.4-1.5 1.4-0.7 0-1.4-0.5l0.3-0.5q0.4 0.2 0.7 0.2 0.6 0 0.9-0.8l0.3-0.7h-0.2l-2.1-5.4h1.1l1.6 4.3 1.6-4.3z"/>
	<path id="Layer" class="s6" d="m438.5 119v19"/>
	<path id="Layer" class="s6" d="m361.5 158v19"/>
	<path id="Layer" class="s2" d="m310 177h100v104h-100z"/>
	<path id="Layer" class="s2" d="m393 27h95v92h-95z"/>
	<path id="Layer" class="s6" d="m283.5 119v19"/>
	<path id="Layer" class="s6" d="m206.5 158v19"/>
	<path id="Layer" fill-rule="evenodd" class="s0" d="m175.4 214.4v7.6h-1.1v-6.4l-1.4 0.8-0.5-0.8 1.9-1.2zm4.4 7.7q-1.3 0-2.1-1.2-0.6-1.1-0.6-2.7 0-1.8 0.8-2.9 0.8-1 1.9-1 1.4 0 2.2 1.3 0.6 1.1 0.6 2.6 0 1.9-0.8 3-0.8 0.9-2 0.9zm0-6.9q-0.7 0-1.1 0.8-0.5 0.7-0.5 2.1 0 1.5 0.5 2.3 0.4 0.8 1.1 0.8 0.8 0 1.2-0.8 0.5-0.8 0.5-2.3 0-1.4-0.5-2.2-0.4-0.7-1.2-0.7zm8.5 0.5v6.3h-1.1v-7.6h1.4q0.9 1.9 1.9 5.3 0.2 0.7 0.4 1.1 0.1-0.3 0.2-0.8 1.1-3.6 2.1-5.6h1.4v7.6h-1.1v-6.3q-0.5 1.7-2.2 6.3h-0.9q-0.5-1.3-1.2-3.3-0.7-2-0.9-3zm12.4 6.3h-0.8l-0.1-0.6q-0.6 0.7-1.7 0.7-0.9 0-1.4-0.4-0.5-0.5-0.5-1.3 0-0.9 0.8-1.4 0.7-0.4 2.1-0.4h0.6v-0.1q0-1.3-1.2-1.3-0.9 0-1.5 0.6l-0.4-0.6q1-0.8 2.2-0.8 1.9 0 1.9 2.3zm-1-2.7h-0.5q-1.9 0-1.9 1.1 0 0.4 0.3 0.7 0.3 0.3 0.7 0.3 0.5 0 0.9-0.3 0.4-0.2 0.5-0.6zm7.2 2.2q-0.7 0.7-1.9 0.7-1.3 0-2.1-0.9-0.7-0.7-0.7-1.9 0-1.3 0.9-2.2 0.7-0.7 1.8-0.7 1.1 0 1.9 0.6l-0.3 0.6q-0.6-0.4-1.4-0.4-0.8 0-1.3 0.6-0.5 0.6-0.5 1.5 0 0.9 0.6 1.5 0.5 0.5 1.3 0.5 0.8 0 1.4-0.5zm2.4-7.2v2.9q0.7-0.7 1.7-0.7 2 0 2 2.3v3.3h-1v-3.2q0-1.5-1.4-1.5-0.3 0-0.7 0.2-0.4 0.1-0.6 0.4v4.1h-1v-7.2zm6.6 2.3v5.4h-1.1v-5.4zm-1.1-1.7q0-0.2 0.2-0.4 0.2-0.2 0.4-0.2 0.3 0 0.5 0.2 0.1 0.2 0.1 0.4 0 0.3-0.1 0.5-0.2 0.1-0.5 0.1-0.2 0-0.4-0.1-0.2-0.2-0.2-0.5zm4 2.2q0.7-0.7 1.8-0.7 2 0 2 2.4v3.2h-1.1v-3.1q0-1.6-1.3-1.6-0.4 0-0.8 0.2-0.4 0.2-0.5 0.4v4.1h-1.1v-5.4h0.9zm10.2 2.5h-3.8q0 0.8 0.5 1.3 0.5 0.4 1.3 0.4 0.7 0 1.5-0.4l0.3 0.6q-0.8 0.6-2 0.6-1.3 0-2.1-0.8-0.7-0.8-0.7-2 0-1.3 0.8-2.1 0.7-0.8 1.7-0.8 1.3 0 2 1 0.5 0.7 0.5 1.9zm-3.9-0.8h2.8q0-0.8-0.3-1.2-0.4-0.5-1-0.5-0.6 0-1 0.5-0.4 0.4-0.5 1.2zm8.4-1.3q-0.6-0.4-1.3-0.4-0.4 0-0.7 0.2-0.2 0.2-0.2 0.5 0 0.4 0.2 0.6 0.2 0.1 0.8 0.3 1 0.3 1.3 0.6 0.5 0.4 0.5 1.2 0 0.7-0.5 1.1-0.6 0.5-1.4 0.5-1.2 0-2.1-0.7l0.4-0.5q0.7 0.4 1.5 0.4 1.1 0 1.1-0.9 0-0.3-0.2-0.5-0.3-0.2-0.9-0.4-1.8-0.4-1.8-1.7 0-0.6 0.6-1 0.5-0.5 1.3-0.5 1 0 1.7 0.6zm9.1 4.5h-0.8l-0.1-0.6q-0.7 0.7-1.8 0.7-0.8 0-1.3-0.4-0.5-0.5-0.5-1.3 0-0.9 0.8-1.4 0.7-0.5 2.1-0.5h0.6q0-1.3-1.3-1.3-0.8 0-1.5 0.5l-0.3-0.5q1-0.8 2.2-0.8 1.9 0 1.9 2.3zm-1-2.8h-0.6q-1.8 0-1.8 1.2 0 0.4 0.3 0.7 0.2 0.2 0.7 0.2 0.5 0 0.8-0.2 0.4-0.2 0.6-0.6zm4.2-1.9v3.2q0 0.8 0.6 0.8 0.4 0 0.9-0.2l0.3 0.5q-0.6 0.5-1.4 0.5-1.4 0-1.4-1.5v-3.3h-0.8v-0.8h0.8v-1.1l1-0.5v1.6h1.7v0.8zm-66.2 17.7l-0.1-0.6q-0.6 0.7-1.6 0.7-1.2 0-1.9-0.9-0.6-0.7-0.6-1.9 0-1.4 0.8-2.3 0.7-0.6 1.7-0.6 0.9 0 1.5 0.5v-2.1l1-0.6v7.8zm-0.2-1.8v-2.1q-0.1-0.4-0.5-0.7-0.3-0.2-0.8-0.2-0.7 0-1.2 0.5-0.4 0.6-0.4 1.5 0 1.1 0.4 1.6 0.5 0.5 1.1 0.5 0.5 0 0.9-0.3 0.4-0.3 0.5-0.8zm7 1.8h-0.8l-0.1-0.6q-0.6 0.7-1.7 0.7-0.9 0-1.4-0.5-0.4-0.4-0.4-1.2 0-0.9 0.7-1.4 0.7-0.5 2.1-0.5h0.6q0-1.3-1.2-1.3-0.8 0-1.5 0.5l-0.3-0.5q0.9-0.8 2.1-0.8 1.9 0 1.9 2.3zm-1-2.8h-0.5q-1.9 0-1.9 1.1 0 0.5 0.3 0.8 0.3 0.2 0.7 0.2 0.5 0 0.9-0.2 0.4-0.2 0.5-0.6zm7.4-2.7l-2.3 6.3q-0.6 1.4-1.6 1.4-0.6 0-1.3-0.5l0.3-0.5q0.4 0.2 0.7 0.2 0.6 0 0.9-0.8l0.3-0.7h-0.3l-2-5.4h1.1l1.5 4.3 1.6-4.3zm4.1 5.4v-7.5q1-0.2 1.9-0.2 2.8 0 2.8 2.3 0 1.3-0.9 1.9-0.6 0.6-1.7 0.6-0.5 0-1-0.1v3zm1.1-6.7v2.8q0.5 0.1 1 0.1 1.4 0 1.4-1.6 0-1.4-1.5-1.4-0.6 0-0.9 0.1zm6.1 1.8h0.1q0.5-0.7 1.3-0.7 0.9 0 1.4 0.8l-0.9 0.5q-0.4-0.4-0.8-0.4-0.6 0-1 0.6v4.1h-1.1v-5.4h0.9zm5.9 5q-1.2 0-2-0.9-0.6-0.8-0.6-1.9 0-1.3 0.8-2.1 0.7-0.8 1.8-0.8 1.3 0 2.1 1 0.6 0.7 0.6 1.9 0 1.3-0.9 2.1-0.7 0.7-1.8 0.7zm0-0.8q0.7 0 1.1-0.5 0.5-0.6 0.5-1.5 0-1-0.5-1.6-0.4-0.5-1.1-0.5-0.7 0-1.1 0.6-0.4 0.6-0.4 1.5 0 1 0.4 1.5 0.5 0.5 1.1 0.5zm8.1 0.7l-0.2-0.6q-0.5 0.7-1.6 0.7-1.2 0-1.9-0.8-0.6-0.8-0.6-1.9 0-1.5 0.9-2.3 0.7-0.7 1.7-0.7 0.9 0 1.5 0.6v-2.1l1-0.6v7.7zm-0.2-1.7v-2.2q-0.1-0.3-0.5-0.6-0.4-0.3-0.8-0.3-0.8 0-1.2 0.6-0.5 0.6-0.5 1.5 0 1 0.5 1.6 0.4 0.4 1.1 0.4 0.4 0 0.8-0.3 0.4-0.3 0.6-0.7zm6.4-3.7h1v5.4h-0.8l-0.1-0.6q-0.3 0.3-0.8 0.5-0.5 0.2-0.9 0.2-1.9 0-1.9-2.3v-3.2h1v3q0 1.7 1.2 1.7 0.3 0 0.7-0.2 0.4-0.2 0.6-0.5zm7.2 4.9q-0.7 0.7-1.9 0.7-1.3 0-2.1-0.9-0.7-0.7-0.7-1.9 0-1.3 0.9-2.2 0.8-0.7 1.9-0.7 1 0 1.8 0.6l-0.3 0.6q-0.6-0.4-1.4-0.4-0.8 0-1.3 0.6-0.5 0.6-0.5 1.5 0 0.9 0.6 1.5 0.5 0.5 1.3 0.5 0.8 0 1.4-0.5zm2.8-4v3.2q0 0.7 0.6 0.7 0.5 0 0.9-0.2l0.3 0.6q-0.6 0.4-1.4 0.4-1.4 0-1.4-1.5v-3.2h-0.8v-0.9h0.8v-1.1l1-0.5v1.6h1.7v0.9zm4.2-0.9v5.5h-1v-5.5zm-1.1-1.6q0-0.3 0.2-0.5 0.2-0.1 0.4-0.1 0.3 0 0.4 0.1 0.2 0.2 0.2 0.5 0 0.2-0.1 0.4-0.2 0.2-0.5 0.2-0.3 0-0.4-0.2-0.2-0.2-0.2-0.4zm5.3 7.2q-1.2 0-2-0.9-0.6-0.8-0.6-1.9 0-1.3 0.8-2.2 0.7-0.7 1.8-0.7 1.3 0 2 0.9 0.7 0.8 0.7 2 0 1.3-0.9 2.1-0.7 0.7-1.8 0.7zm0-0.8q0.7 0 1.1-0.5 0.5-0.6 0.5-1.5 0-1-0.5-1.6-0.4-0.5-1.1-0.5-0.7 0-1.1 0.6-0.5 0.5-0.5 1.5 0 1 0.5 1.5 0.4 0.5 1.1 0.5zm5.1-4.2h0.1q0.6-0.7 1.7-0.7 2 0 2 2.4v3.2h-1v-3.2q0-1.5-1.4-1.5-0.4 0-0.7 0.2-0.4 0.1-0.6 0.4v4.1h-1v-5.5h0.8z"/>
	<path id="Layer" class="s2" d="m237 27h93v92h-93z"/>
	<path id="Layer" fill-rule="evenodd" class="s0" d="m24.8 184.6q-0.8-0.4-1.6-0.4-0.6 0-1 0.3-0.4 0.2-0.4 0.7 0 0.7 1 1.1 1.5 0.5 2.2 1.2 0.6 0.6 0.6 1.4 0 1.1-0.8 1.7-0.7 0.5-1.7 0.5-1.2 0-2.5-0.8l0.5-0.7q0.8 0.5 1.9 0.5 1.4 0 1.4-1.2 0-1-1.2-1.4-1.3-0.4-1.9-1-0.6-0.5-0.6-1.3 0-0.9 0.7-1.4 0.7-0.5 1.7-0.5 1.2 0 2.2 0.6zm7.1 4h-3.8q0 0.8 0.5 1.3 0.5 0.5 1.3 0.5 0.7 0 1.5-0.5l0.3 0.6q-0.8 0.7-2 0.7-1.3 0-2.1-0.9-0.7-0.7-0.7-2 0-1.3 0.8-2.1 0.7-0.8 1.7-0.8 1.3 0 2 1 0.5 0.7 0.5 1.9zm-3.9-0.8h2.8q0-0.8-0.4-1.2-0.3-0.5-0.9-0.5-0.6 0-1 0.5-0.4 0.4-0.5 1.2zm6.8-1.5v3.2q0 0.8 0.6 0.8 0.4 0 0.8-0.2l0.4 0.5q-0.7 0.5-1.4 0.5-1.4 0-1.4-1.5v-3.3h-0.8v-0.8h0.8v-1.1l1-0.5v1.6h1.7v0.8zm9.5-0.8h1v5.5h-0.8l-0.1-0.7q-0.3 0.4-0.8 0.6-0.5 0.2-0.9 0.2-1.9 0-1.9-2.3v-3.3h1v3q0 1.7 1.2 1.7 0.3 0 0.7-0.2 0.4-0.1 0.6-0.4zm2.9 0h0.8l0.1 0.6q0.7-0.7 1.7-0.7 1.2 0 1.9 0.8 0.6 0.8 0.6 1.9 0 1.5-0.9 2.3-0.7 0.7-1.7 0.7-0.9 0-1.5-0.6v2.6h-1zm1 1.7v2.2q0.1 0.3 0.5 0.6 0.4 0.3 0.8 0.3 0.7 0 1.2-0.6 0.5-0.6 0.5-1.5 0-1-0.5-1.6-0.4-0.4-1.1-0.4-0.5 0-0.9 0.3-0.4 0.3-0.5 0.7zm12.7 3.2q-0.7 0.7-1.9 0.7-1.3 0-2.1-0.9-0.7-0.8-0.7-2 0-1.3 0.9-2.1 0.8-0.7 1.9-0.7 1 0 1.8 0.6l-0.3 0.6q-0.6-0.5-1.4-0.5-0.8 0-1.3 0.6-0.5 0.6-0.5 1.6 0 0.9 0.6 1.5 0.5 0.5 1.3 0.5 0.8 0 1.4-0.5zm3.7 0.7q-1.2 0-2-0.9-0.6-0.8-0.6-2 0-1.3 0.8-2.1 0.7-0.7 1.8-0.7 1.3 0 2.1 0.9 0.6 0.8 0.6 1.9 0 1.3-0.9 2.2-0.7 0.7-1.8 0.7zm0-0.8q0.7 0 1.1-0.6 0.5-0.5 0.5-1.5 0-0.9-0.5-1.5-0.4-0.6-1.1-0.6-0.7 0-1.1 0.6-0.4 0.6-0.4 1.5 0 1 0.4 1.6 0.5 0.5 1.1 0.5zm5.1-4.3h0.1q0.6-0.6 1.7-0.6 1.3 0 1.8 0.9 0.6-0.9 1.9-0.9 2 0 2 2.3v3.2h-1v-3q0-0.9-0.4-1.3-0.3-0.4-1-0.4-0.8 0-1.4 0.7 0.1 0.3 0.1 0.8v3.2h-1v-3.1q0-0.8-0.4-1.2-0.3-0.4-1-0.4-0.4 0-0.7 0.2-0.4 0.2-0.6 0.5v4h-1v-5.4h0.8zm9.3-0.5h0.8l0.1 0.5q0.7-0.7 1.7-0.7 1.2 0 1.9 0.9 0.6 0.7 0.6 1.9 0 1.5-0.9 2.3-0.7 0.6-1.7 0.6-0.9 0-1.5-0.5v2.6h-1zm1 1.6v2.2q0.1 0.4 0.5 0.7 0.4 0.3 0.8 0.3 0.8 0 1.2-0.6 0.5-0.6 0.5-1.5 0-1.1-0.5-1.6-0.4-0.5-1.1-0.5-0.4 0-0.8 0.3-0.5 0.3-0.6 0.7zm9.7 3.8h-0.8l-0.1-0.6q-0.6 0.7-1.7 0.7-0.9 0-1.4-0.4-0.5-0.5-0.5-1.3 0-0.9 0.8-1.4 0.7-0.4 2.1-0.4h0.6v-0.1q0-1.3-1.3-1.3-0.8 0-1.5 0.6l-0.3-0.6q1-0.8 2.2-0.8 1.9 0 1.9 2.3zm-1-2.7h-0.5q-1.9 0-1.9 1.1 0 0.4 0.3 0.7 0.3 0.3 0.7 0.3 0.5 0 0.9-0.3 0.4-0.2 0.5-0.6zm3.8-2.1h0.1q0.6-0.7 1.7-0.7 2 0 2 2.3v3.3h-1.1v-3.2q0-1.5-1.3-1.5-0.4 0-0.8 0.2-0.3 0.1-0.5 0.4v4.1h-1.1v-5.5h0.9zm10.1-0.5l-2.3 6.3q-0.6 1.4-1.5 1.4-0.7 0-1.4-0.5l0.3-0.5q0.4 0.2 0.7 0.2 0.6 0 0.9-0.8l0.3-0.7h-0.2l-2.1-5.4h1.1l1.5 4.3 1.6-4.3z"/>
	<path id="Layer" fill-rule="evenodd" class="s0" d="m22.2 201.4v7.6h-1.1v-7.6zm3 2.7q0.6-0.7 1.7-0.7 2 0 2 2.4v3.2h-1v-3.2q0-1.5-1.3-1.5-0.4 0-0.8 0.2-0.4 0.2-0.6 0.4v4.1h-1v-5.4h0.9zm8.5 0.4q-0.6-0.3-1.3-0.3-0.4 0-0.6 0.2-0.3 0.1-0.3 0.4 0 0.4 0.2 0.6 0.3 0.2 0.9 0.3 0.9 0.3 1.3 0.6 0.4 0.4 0.4 1.2 0 0.7-0.5 1.2-0.5 0.4-1.4 0.4-1.2 0-2-0.6l0.3-0.6q0.7 0.4 1.5 0.4 1.1 0 1.1-0.8 0-0.4-0.2-0.6-0.2-0.2-0.9-0.3-1.7-0.5-1.7-1.7 0-0.7 0.5-1.1 0.5-0.4 1.3-0.4 1 0 1.8 0.5zm3.5-0.1v3.2q0 0.7 0.6 0.7 0.4 0 0.8-0.2l0.4 0.6q-0.7 0.5-1.4 0.5-1.4 0-1.4-1.6v-3.2h-0.8v-0.9h0.8v-1.1l1-0.5v1.6h1.7v0.9zm7.3 4.6h-0.8l-0.1-0.6q-0.7 0.7-1.8 0.7-0.8 0-1.3-0.4-0.5-0.5-0.5-1.3 0-0.9 0.7-1.4 0.8-0.4 2.1-0.4h0.7v-0.1q0-1.3-1.3-1.3-0.8 0-1.5 0.6l-0.3-0.6q0.9-0.8 2.2-0.8 1.9 0 1.9 2.3zm-1-2.7h-0.6q-1.8 0-1.8 1.1 0 0.4 0.3 0.7 0.2 0.3 0.7 0.3 0.4 0 0.8-0.3 0.4-0.2 0.6-0.6zm3.8-5v7.8h-1v-7.2zm2.9 0v7.7h-1v-7.2zm4.8 7.8v-7.6q1.1-0.2 2-0.2 2.7 0 2.7 2.4 0 1.2-0.8 1.9-0.7 0.5-1.8 0.5-0.5 0-1-0.1v3.1zm1.1-6.8v2.8q0.5 0.1 1 0.1 1.5 0 1.5-1.5 0-1.5-1.6-1.5-0.5 0-0.9 0.1zm6.2 1.9q0.6-0.7 1.3-0.7 1 0 1.4 0.7l-0.8 0.6q-0.4-0.4-0.9-0.4-0.6 0-1 0.6v4.1h-1v-5.5h0.9zm5.9 5.1q-1.3 0-2-0.9-0.7-0.8-0.7-2 0-1.3 0.8-2.1 0.7-0.7 1.8-0.7 1.3 0 2.1 0.9 0.6 0.8 0.6 1.9 0 1.3-0.8 2.2-0.8 0.7-1.8 0.7zm-0.1-0.8q0.8 0 1.2-0.6 0.4-0.5 0.4-1.5 0-0.9-0.4-1.5-0.5-0.6-1.2-0.6-0.6 0-1.1 0.6-0.4 0.6-0.4 1.5 0 1 0.5 1.6 0.4 0.5 1 0.5zm5.6-4v3.2q0 0.8 0.6 0.8 0.4 0 0.8-0.2l0.4 0.5q-0.7 0.5-1.4 0.5-1.4 0-1.4-1.5v-3.3h-0.8v-0.8h0.8v-1.1l1-0.6v1.7h1.7v0.8zm5.4 4.8q-1.3 0-2-0.9-0.7-0.8-0.7-2 0-1.3 0.8-2.1 0.7-0.7 1.8-0.7 1.3 0 2.1 0.9 0.6 0.8 0.6 1.9 0 1.3-0.8 2.2-0.8 0.7-1.8 0.7zm-0.1-0.8q0.8 0 1.2-0.6 0.4-0.5 0.4-1.5 0-0.9-0.4-1.5-0.5-0.6-1.2-0.6-0.6 0-1.1 0.6-0.4 0.6-0.4 1.5 0 1 0.5 1.6 0.4 0.5 1 0.5zm5.6-4v3.2q0 0.8 0.6 0.8 0.4 0 0.8-0.2l0.4 0.5q-0.7 0.5-1.4 0.5-1.4 0-1.4-1.5v-3.3h-0.8v-0.8h0.8v-1.1l1-0.6v1.7h1.7v0.8zm7.7-0.8l-2.3 6.3q-0.6 1.4-1.6 1.4-0.6 0-1.3-0.5l0.3-0.5q0.4 0.2 0.7 0.2 0.6 0 0.9-0.8l0.3-0.7h-0.2l-2.1-5.4h1.1l1.5 4.3 1.6-4.3zm1.1 0h0.8l0.2 0.6q0.6-0.7 1.6-0.7 1.2 0 1.9 0.8 0.6 0.8 0.6 1.9 0 1.5-0.8 2.3-0.7 0.7-1.7 0.7-1 0-1.5-0.6v2.6h-1.1zm1.1 1.7v2.2q0.1 0.3 0.4 0.6 0.4 0.3 0.9 0.3 0.7 0 1.2-0.6 0.4-0.6 0.4-1.5 0-1-0.5-1.6-0.4-0.4-1-0.4-0.5 0-0.9 0.3-0.4 0.3-0.5 0.7zm10.2 1.4h-3.9q0.1 0.8 0.6 1.2 0.5 0.5 1.3 0.5 0.7 0 1.5-0.5l0.3 0.6q-0.9 0.7-2 0.7-1.3 0-2.1-0.8-0.7-0.8-0.7-2.1 0-1.2 0.7-2.1 0.8-0.8 1.8-0.8 1.2 0 1.9 1 0.6 0.8 0.6 1.9zm-3.9-0.8h2.8q0-0.8-0.4-1.2-0.4-0.4-1-0.4-0.6 0-1 0.4-0.4 0.5-0.4 1.2z"/>
	<path id="Layer" fill-rule="evenodd" class="s0" d="m22.6 238.3h-2.3v-0.9h5.9v0.9h-2.5v6.7h-1.1zm8.6 4.3h-3.8q0.1 0.8 0.6 1.3 0.5 0.4 1.2 0.4 0.8 0 1.5-0.4l0.4 0.5q-0.9 0.7-2 0.7-1.4 0-2.1-0.8-0.8-0.8-0.8-2 0-1.3 0.8-2.2 0.7-0.7 1.8-0.7 1.2 0 1.9 0.9 0.5 0.8 0.5 1.9zm-3.8-0.8h2.8q0-0.7-0.4-1.2-0.4-0.4-1-0.4-0.6 0-1 0.4-0.4 0.5-0.4 1.2zm8.3-1.3q-0.6-0.3-1.3-0.3-0.4 0-0.6 0.2-0.3 0.2-0.3 0.5 0 0.3 0.2 0.5 0.3 0.2 0.9 0.4 0.9 0.2 1.3 0.5 0.4 0.5 0.4 1.2 0 0.8-0.5 1.2-0.5 0.5-1.4 0.5-1.2 0-2-0.7l0.3-0.6q0.7 0.5 1.5 0.5 1.2 0 1.2-0.9 0-0.3-0.3-0.5-0.2-0.2-0.9-0.4-1.7-0.4-1.7-1.7 0-0.6 0.5-1 0.5-0.5 1.3-0.5 1 0 1.8 0.6zm3.5-0.2v3.2q0 0.8 0.6 0.8 0.4 0 0.8-0.2l0.4 0.5q-0.7 0.5-1.4 0.5-1.4 0-1.4-1.5v-3.3h-0.8v-0.8h0.8v-1.1l1-0.6v1.7h1.7v0.8zm6.1 4.6v-7.5q1.1-0.2 2-0.2 2.7 0 2.7 2.3 0 1.3-0.8 1.9-0.7 0.6-1.8 0.6-0.5 0-1-0.1v3zm1.2-6.7v2.8q0.4 0.1 1 0.1 1.4 0 1.4-1.6 0-1.4-1.6-1.4-0.5 0-0.8 0.1zm6.1 1.8q0.6-0.6 1.3-0.6 1 0 1.5 0.7l-0.9 0.5q-0.4-0.4-0.9-0.4-0.6 0-1 0.7v4h-1v-5.4h0.9zm5.9 5.1q-1.3 0-2-1-0.7-0.8-0.7-1.9 0-1.3 0.8-2.1 0.7-0.8 1.9-0.8 1.3 0 2 1 0.6 0.8 0.6 1.9 0 1.3-0.8 2.1-0.8 0.8-1.8 0.8zm-0.1-0.9q0.8 0 1.2-0.5 0.4-0.6 0.4-1.5 0-1-0.4-1.6-0.5-0.5-1.1-0.5-0.7 0-1.2 0.6-0.4 0.6-0.4 1.5 0 1 0.5 1.6 0.4 0.4 1 0.4zm8.1 0.7l-0.1-0.6q-0.6 0.8-1.6 0.8-1.3 0-1.9-0.9-0.6-0.8-0.6-1.9 0-1.5 0.8-2.3 0.7-0.7 1.7-0.7 0.9 0 1.5 0.6v-2.1l1-0.6v7.7zm-0.2-1.7v-2.2q-0.1-0.3-0.5-0.6-0.4-0.3-0.8-0.3-0.7 0-1.2 0.6-0.4 0.6-0.4 1.5 0 1 0.4 1.6 0.5 0.4 1.1 0.4 0.5 0 0.9-0.3 0.4-0.3 0.5-0.7zm6.4-3.7h1.1v5.4h-0.8l-0.1-0.6h-0.1q-0.3 0.3-0.8 0.5-0.4 0.3-0.9 0.3-1.9 0-1.9-2.4v-3.2h1v3q0 1.7 1.2 1.7 0.4 0 0.8-0.2 0.3-0.2 0.5-0.4zm7.3 4.8q-0.7 0.7-1.9 0.7-1.4 0-2.2-0.8-0.6-0.8-0.6-2 0-1.3 0.9-2.2 0.7-0.7 1.8-0.7 1.1 0 1.9 0.7l-0.3 0.5q-0.7-0.4-1.4-0.4-0.8 0-1.3 0.6-0.5 0.6-0.5 1.5 0 0.9 0.5 1.5 0.6 0.5 1.4 0.5 0.8 0 1.3-0.5zm2.9-4v3.2q0 0.8 0.6 0.8 0.4 0 0.8-0.3l0.4 0.6q-0.7 0.5-1.5 0.5-1.3 0-1.3-1.6v-3.2h-0.9v-0.8h0.9v-1.2l1-0.5v1.7h1.6v0.8zm-59.9 17.6h-1l-1.8-5.4h1.1l1.2 4.2 1.2-4.2h1.1l1.1 4.2 1.3-4.2h1l-1.8 5.4h-1l-1.2-4.1zm7.4-5.5v5.5h-1v-5.5zm-1.2-1.7q0-0.2 0.2-0.4 0.2-0.2 0.5-0.2 0.2 0 0.4 0.2 0.2 0.2 0.2 0.4 0 0.3-0.2 0.5-0.2 0.2-0.4 0.2-0.3 0-0.5-0.2-0.2-0.2-0.2-0.5zm4.5 2.6v3.1q0 0.8 0.6 0.8 0.4 0 0.8-0.2l0.4 0.5q-0.7 0.5-1.5 0.5-1.4 0-1.4-1.5v-3.2h-0.8v-0.9h0.8v-1.1l1.1-0.5v1.6h1.6v0.9zm4.3-3.2v2.9q0.6-0.7 1.6-0.7 2 0 2 2.3v3.3h-1v-3.2q0-1.5-1.3-1.5-0.4 0-0.8 0.1-0.4 0.2-0.5 0.5v4.1h-1.1v-7.2zm14 4.5q0 3.4-2.7 3.4-2.8 0-2.8-3.4v-4.4h1.1v4.7q0 2.1 1.7 2.1 1.6 0 1.6-2.1v-4.7h1.1zm3-1.7h0.1q0.6-0.7 1.7-0.7 2 0 2 2.4v3.2h-1.1v-3.2q0-1.5-1.3-1.5-0.4 0-0.8 0.2-0.3 0.2-0.5 0.4v4.1h-1v-5.5h0.8zm6.6-0.5v5.5h-1v-5.5zm-1.1-1.7q0-0.2 0.2-0.4 0.2-0.2 0.4-0.2 0.3 0 0.4 0.2 0.2 0.2 0.2 0.4 0 0.3-0.1 0.5-0.2 0.2-0.5 0.2-0.3 0-0.4-0.2-0.2-0.2-0.2-0.5zm5.3 7.2h-1l-2-5.5h1l1.5 4.2 1.5-4.2h1.1zm7.7-2.4h-3.8q0.1 0.8 0.6 1.3 0.5 0.4 1.2 0.4 0.8 0 1.5-0.4l0.3 0.6q-0.8 0.7-1.9 0.7-1.4 0-2.1-0.9-0.8-0.7-0.8-2 0-1.3 0.8-2.1 0.7-0.8 1.8-0.8 1.2 0 1.9 1 0.5 0.7 0.5 1.9zm-3.8-0.8h2.8q-0.1-0.8-0.4-1.2-0.4-0.5-1-0.5-0.6 0-1 0.5-0.4 0.4-0.4 1.2zm6.3-1.8h0.1q0.5-0.6 1.3-0.6 0.9 0 1.4 0.7l-0.9 0.5q-0.4-0.4-0.8-0.4-0.6 0-1 0.7v4h-1.1v-5.4h0.9zm6.7 0.4q-0.6-0.3-1.3-0.3-0.4 0-0.6 0.2-0.3 0.2-0.3 0.5 0 0.3 0.2 0.5 0.3 0.2 0.9 0.4 0.9 0.2 1.3 0.5 0.5 0.5 0.5 1.2 0 0.8-0.6 1.2-0.5 0.5-1.4 0.5-1.2 0-2-0.7l0.4-0.6q0.6 0.4 1.5 0.4 1.1 0 1.1-0.8 0-0.4-0.3-0.5-0.2-0.2-0.9-0.4-1.7-0.4-1.7-1.7 0-0.6 0.5-1.1 0.5-0.4 1.3-0.4 1 0 1.8 0.6zm3.2-1v5.4h-1.1v-5.4zm-1.1-1.7q0-0.2 0.2-0.4 0.2-0.2 0.4-0.2 0.3 0 0.5 0.2 0.2 0.2 0.2 0.4 0 0.3-0.2 0.5-0.2 0.1-0.5 0.1-0.2 0-0.4-0.1-0.2-0.2-0.2-0.5zm4.5 2.5l-0.1 3.2q0 0.8 0.6 0.8 0.5 0 0.9-0.2l0.3 0.5q-0.6 0.5-1.4 0.5-1.4 0-1.4-1.5v-3.3h-0.8v-0.8h0.8v-1.1l1.1-0.6v1.7h1.6v0.8zm7.7-0.8l-2.3 6.3q-0.6 1.4-1.5 1.4-0.7 0-1.4-0.5l0.3-0.5q0.4 0.2 0.7 0.2 0.6 0 0.9-0.8l0.3-0.7h-0.2l-2.1-5.4h1.1l1.6 4.3 1.6-4.3z"/>
	<path id="Layer" fill-rule="evenodd" class="s0" d="m21 227v-7.6h4.6v0.9h-3.5v2.3h3v0.9h-3v3.5zm7.9 0.1q-1.2 0-2-0.9-0.6-0.8-0.6-1.9 0-1.3 0.8-2.1 0.7-0.8 1.8-0.8 1.3 0 2.1 1 0.6 0.7 0.6 1.9 0 1.3-0.9 2.1-0.7 0.7-1.8 0.7zm0-0.8q0.7 0 1.1-0.5 0.5-0.6 0.5-1.5 0-1-0.5-1.6-0.4-0.5-1.1-0.5-0.7 0-1.1 0.6-0.4 0.6-0.4 1.5 0 1 0.4 1.5 0.5 0.5 1.1 0.5zm5.2-4.2q0.6-0.7 1.3-0.7 1 0 1.4 0.8l-0.8 0.5q-0.4-0.4-0.9-0.4-0.6 0-1 0.6v4.1h-1v-5.4h0.9zm4.7 0h0.1q0.6-0.7 1.7-0.7 1.3 0 1.7 0.9 0.7-0.9 2-0.9 2 0 2 2.3v3.3h-1.1v-3.1q0-0.9-0.3-1.3-0.3-0.3-1-0.3-0.8 0-1.4 0.6 0.1 0.4 0.1 0.8v3.3h-1v-3.2q0-0.8-0.4-1.2-0.3-0.3-1-0.3-0.4 0-0.8 0.1-0.3 0.2-0.5 0.5v4.1h-1v-5.5h0.8zm10.3-0.5v5.4h-1v-5.4zm-1.1-1.7q0-0.3 0.2-0.4 0.2-0.2 0.4-0.2 0.3 0 0.4 0.2 0.2 0.1 0.2 0.4 0 0.3-0.1 0.4-0.2 0.2-0.5 0.2-0.3 0-0.4-0.2-0.2-0.1-0.2-0.4zm4 2.2q0.6-0.7 1.7-0.7 2 0 2 2.4v3.2h-1v-3.2q0-1.5-1.3-1.5-0.4 0-0.8 0.2-0.4 0.2-0.6 0.4v4.1h-1v-5.4h0.9zm9.2 4.4v-0.1q-0.5 0.7-1.5 0.7-1.2 0-1.9-0.9-0.6-0.7-0.6-1.8 0-1.5 0.9-2.3 0.7-0.7 1.6-0.7 0.5 0 1 0.2 0.5 0.2 0.6 0.5l0.2-0.6h0.8v5q0 2.8-2.5 2.8-1.1 0-2.1-0.8l0.3-0.6q0.8 0.5 1.7 0.5 1.5 0 1.5-1.9zm0-1.2v-2.2q0-0.4-0.4-0.6-0.4-0.3-0.9-0.3-0.7 0-1.2 0.6-0.4 0.5-0.4 1.4 0 1.1 0.5 1.6 0.4 0.5 1 0.5 0.5 0 0.9-0.3 0.4-0.3 0.5-0.7zm7.4-5h-2.3v-0.9h5.9v0.9h-2.5v6.7h-1.1zm8.6 4.3h-3.8q0.1 0.8 0.6 1.2 0.5 0.5 1.2 0.5 0.8 0 1.6-0.5l0.3 0.6q-0.9 0.7-2 0.7-1.3 0-2.1-0.8-0.7-0.8-0.7-2 0-1.3 0.7-2.2 0.7-0.7 1.8-0.7 1.2 0 1.9 0.9 0.5 0.8 0.5 1.9zm-3.8-0.8h2.8q0-0.8-0.4-1.2-0.4-0.4-1-0.4-0.6 0-1 0.4-0.4 0.5-0.4 1.2zm9.5 3.2h-0.8l-0.1-0.6q-0.7 0.7-1.8 0.7-0.8 0-1.3-0.4-0.5-0.5-0.5-1.3 0-0.9 0.7-1.4 0.8-0.5 2.1-0.5h0.7q0-1.3-1.3-1.3-0.8 0-1.5 0.6l-0.3-0.6q0.9-0.8 2.1-0.8 2 0 2 2.3zm-1.1-2.7h-0.5q-1.8 0-1.8 1.1 0 0.4 0.2 0.7 0.3 0.3 0.8 0.3 0.4 0 0.8-0.3 0.4-0.2 0.5-0.6zm3.9-2.1q0.6-0.7 1.7-0.7 1.4 0 1.8 1 0.7-1 2-1 1.9 0 1.9 2.3v3.3h-1v-3.1q0-0.9-0.3-1.2-0.3-0.4-1.1-0.4-0.7 0-1.3 0.6 0 0.4 0 0.8v3.3h-1v-3.1q0-0.9-0.3-1.2-0.4-0.4-1.1-0.4-0.3 0-0.7 0.2-0.4 0.1-0.6 0.4v4.1h-1v-5.5h0.9z"/>
	<path id="Layer" fill-rule="evenodd" class="s0" d="m22.9 276.1q-1.7 0-2.6-1.3-0.7-1-0.7-2.6 0-1.7 0.9-2.9 0.9-1 2.4-1 1.7 0 2.6 1.3 0.7 1.1 0.7 2.6 0 1.8-0.9 2.9-0.9 1-2.4 1zm0-0.9q1.1 0 1.7-0.9 0.5-0.8 0.5-2.1 0-1.4-0.6-2.2-0.6-0.8-1.6-0.8-1.1 0-1.7 1-0.4 0.8-0.4 2 0 1.5 0.6 2.3 0.6 0.7 1.5 0.7zm4.9-4.6h0.8l0.1 0.5q0.7-0.7 1.7-0.7 1.2 0 1.9 0.9 0.6 0.7 0.6 1.9 0 1.5-0.9 2.3-0.7 0.6-1.7 0.6-0.9 0-1.5-0.5v2.5h-1zm1 1.7v2.2q0.1 0.4 0.5 0.7 0.4 0.2 0.8 0.2 0.7 0 1.2-0.5 0.5-0.6 0.5-1.5 0-1.1-0.5-1.6-0.4-0.5-1.1-0.5-0.4 0-0.9 0.3-0.4 0.3-0.5 0.7zm10.2 1.4h-3.8q0 0.8 0.5 1.3 0.5 0.4 1.3 0.4 0.7 0 1.5-0.4l0.3 0.6q-0.8 0.6-2 0.6-1.3 0-2.1-0.8-0.7-0.8-0.7-2 0-1.3 0.8-2.1 0.7-0.8 1.7-0.8 1.3 0 2 1 0.5 0.7 0.5 1.9zm-3.9-0.8h2.8q0-0.8-0.3-1.2-0.4-0.5-1-0.5-0.6 0-1 0.5-0.4 0.4-0.5 1.2zm6.4-1.8q0.6-0.7 1.7-0.7 2 0 2 2.4v3.2h-1v-3.1q0-1.6-1.3-1.6-0.4 0-0.8 0.2-0.4 0.2-0.6 0.4v4.1h-1v-5.4h0.9zm12.7 0.3h-2.9v4.6h-1.1v-4.6h-0.8v-0.9h0.8v-0.7q0-1.5 1.4-1.5 0.8 0 1.5 0.4l-0.4 0.6q-0.4-0.2-0.8-0.2-0.6 0-0.6 0.8v0.6h3.9v5.5h-1zm-0.1-2.5q0-0.3 0.2-0.5 0.2-0.1 0.4-0.1 0.3 0 0.4 0.1 0.2 0.2 0.2 0.5 0 0.2-0.1 0.4-0.2 0.2-0.5 0.2-0.2 0-0.4-0.2-0.2-0.2-0.2-0.4zm4 2.2h0.1q0.5-0.7 1.3-0.7 0.9 0 1.4 0.8l-0.9 0.5q-0.4-0.4-0.8-0.4-0.6 0-1 0.6v4.1h-1.1v-5.4h0.9zm6.7 0.4q-0.6-0.3-1.3-0.3-0.4 0-0.7 0.2-0.2 0.1-0.2 0.4 0 0.4 0.2 0.6 0.3 0.2 0.9 0.3 0.9 0.3 1.2 0.6 0.5 0.4 0.5 1.2 0 0.7-0.5 1.2-0.5 0.4-1.4 0.4-1.2 0-2-0.6l0.3-0.6q0.7 0.4 1.5 0.4 1.1 0 1.1-0.8 0-0.4-0.2-0.6-0.2-0.2-0.9-0.3-1.7-0.5-1.7-1.7 0-0.7 0.5-1.1 0.5-0.4 1.3-0.4 1 0 1.8 0.5zm3.5-0.1v3.2q0 0.8 0.6 0.8 0.4 0 0.8-0.3l0.4 0.6q-0.7 0.5-1.4 0.5-1.4 0-1.4-1.6v-3.2h-0.8v-0.8h0.8v-1.2l1-0.5v1.7h1.7v0.8zm8.3 4.7q-1.3 0-2-0.9-0.7-0.8-0.7-1.9 0-1.3 0.8-2.1 0.7-0.8 1.9-0.8 1.3 0 2 1 0.6 0.7 0.6 1.9 0 1.3-0.8 2.1-0.8 0.7-1.8 0.7zm0-0.8q0.7 0 1.1-0.5 0.4-0.6 0.4-1.5 0-1-0.4-1.6-0.5-0.5-1.1-0.5-0.7 0-1.2 0.6-0.4 0.6-0.4 1.5 0 1 0.5 1.5 0.4 0.5 1.1 0.5zm8.8-3.9h-3.3v4.6h-1v-4.6h-0.8v-0.8h0.8v-0.8q0-1.5 1.4-1.5 0.8 0 1.4 0.5l-0.3 0.5q-0.4-0.2-0.9-0.2-0.6 0-0.6 0.8v0.7h3.3v-0.8q0-1.5 1.4-1.5 0.8 0 1.4 0.5l-0.3 0.5q-0.4-0.2-0.9-0.2-0.6 0-0.6 0.8v0.7h4v5.4h-1v-4.6h-3v4.6h-1zm3.9-2.5q0-0.3 0.2-0.5 0.1-0.1 0.4-0.1 0.2 0 0.4 0.1 0.2 0.2 0.2 0.5 0 0.2-0.2 0.4-0.1 0.2-0.4 0.2-0.3 0-0.4-0.2-0.2-0.2-0.2-0.4zm7.3 6.6q-0.7 0.7-1.8 0.7-1.4 0-2.2-0.9-0.7-0.8-0.7-2 0-1.3 0.9-2.2 0.8-0.7 1.9-0.7 1 0 1.8 0.7l-0.2 0.5q-0.7-0.4-1.4-0.4-0.8 0-1.4 0.6-0.5 0.6-0.5 1.5 0 1 0.6 1.5 0.5 0.5 1.3 0.5 0.8 0 1.4-0.4zm6.1-1.9h-3.9q0.1 0.8 0.6 1.3 0.5 0.4 1.3 0.4 0.7 0 1.5-0.4l0.3 0.6q-0.8 0.7-2 0.7-1.3 0-2.1-0.9-0.7-0.7-0.7-2 0-1.3 0.8-2.1 0.7-0.8 1.7-0.8 1.3 0 1.9 1 0.6 0.7 0.6 1.9zm-3.9-0.8h2.8q0-0.8-0.4-1.2-0.3-0.5-1-0.5-0.6 0-1 0.5-0.3 0.4-0.4 1.2z"/>
	<path id="Layer" fill-rule="evenodd" class="s0" d="m177.9 184.3h-2.8v2q0.3-0.1 0.7-0.1 1.2 0 2 0.7 0.6 0.6 0.6 1.6 0 1.3-0.8 2-0.7 0.6-1.8 0.6-1.2 0-2.2-0.8l0.4-0.7q0.8 0.6 1.7 0.6 0.7 0 1.1-0.4 0.5-0.5 0.5-1.2 0-1.5-1.8-1.5-0.7 0-1.5 0.2v-3.9h3.9zm4.5 6.8q-1.4 0-2.1-1.2-0.7-1.1-0.7-2.7 0-1.8 0.9-2.9 0.7-1.1 1.9-1.1 1.3 0 2.1 1.3 0.7 1.1 0.7 2.7 0 1.9-0.8 2.9-0.8 1-2 1zm0-6.9q-0.8 0-1.2 0.8-0.4 0.7-0.4 2.1 0 1.5 0.4 2.3 0.5 0.8 1.2 0.8 0.8 0 1.2-0.8 0.4-0.9 0.4-2.3 0-1.4-0.4-2.2-0.5-0.7-1.2-0.7zm8.1 1.9h0.1q0.6-0.7 1.7-0.7 1.3 0 1.7 1 0.7-1 2-1 2 0 2 2.3v3.3h-1.1v-3.1q0-0.9-0.3-1.2-0.3-0.4-1-0.4-0.8 0-1.4 0.6 0.1 0.4 0.1 0.8v3.3h-1v-3.1q0-0.9-0.4-1.2-0.3-0.4-1-0.4-0.4 0-0.8 0.2-0.3 0.1-0.5 0.4v4.1h-1v-5.5h0.8zm11.6 5.1q-1.2 0-2-0.9-0.7-0.8-0.7-2 0-1.3 0.8-2.1 0.8-0.8 1.9-0.8 1.3 0 2 1 0.6 0.8 0.6 1.9 0 1.3-0.8 2.2-0.7 0.7-1.8 0.7zm0-0.8q0.7 0 1.1-0.6 0.4-0.5 0.4-1.5 0-0.9-0.4-1.5-0.4-0.6-1.1-0.6-0.7 0-1.1 0.6-0.5 0.6-0.5 1.5 0 1 0.5 1.6 0.4 0.5 1.1 0.5zm5.1-4.3h0.1q0.6-0.7 1.7-0.7 2 0 2 2.4v3.2h-1.1v-3.1q0-1.6-1.3-1.6-0.4 0-0.8 0.2-0.3 0.2-0.5 0.4v4.1h-1.1v-5.4h0.9zm6.6-0.6v5.5h-1v-5.5zm-1.1-1.6q0-0.3 0.2-0.5 0.2-0.1 0.4-0.1 0.3 0 0.4 0.1 0.2 0.2 0.2 0.5 0 0.2-0.1 0.4-0.2 0.2-0.5 0.2-0.3 0-0.4-0.2-0.2-0.2-0.2-0.4zm4.4 2.5v3.2q0 0.7 0.6 0.7 0.4 0 0.8-0.2l0.4 0.6q-0.7 0.5-1.4 0.5-1.4 0-1.4-1.6v-3.2h-0.8v-0.9h0.8v-1.1l1-0.5v1.6h1.7v0.9zm5.4 4.7q-1.3 0-2-0.9-0.7-0.8-0.7-1.9 0-1.3 0.8-2.2 0.7-0.7 1.8-0.7 1.3 0 2.1 1 0.6 0.7 0.6 1.9 0 1.3-0.8 2.1-0.8 0.7-1.8 0.7zm-0.1-0.8q0.8 0 1.2-0.5 0.4-0.6 0.4-1.5 0-1-0.4-1.6-0.5-0.5-1.2-0.5-0.6 0-1.1 0.6-0.4 0.5-0.4 1.5 0 1 0.5 1.5 0.4 0.5 1 0.5zm5.2-4.2q0.6-0.7 1.4-0.7 0.9 0 1.4 0.7l-0.9 0.6q-0.4-0.4-0.8-0.4-0.6 0-1.1 0.6v4.1h-1v-5.5h0.9zm4.8-0.5v5.5h-1v-5.5zm-1.1-1.7q0-0.2 0.2-0.4 0.2-0.2 0.4-0.2 0.3 0 0.4 0.2 0.2 0.2 0.2 0.4 0 0.3-0.1 0.5-0.2 0.2-0.5 0.2-0.3 0-0.4-0.2-0.2-0.2-0.2-0.5zm4 2.2q0.6-0.6 1.7-0.6 2 0 2 2.3v3.3h-1v-3.2q0-1.5-1.3-1.5-0.4 0-0.8 0.1-0.4 0.2-0.6 0.5v4.1h-1v-5.5h0.9zm9.2 4.4v-0.1q-0.5 0.8-1.5 0.8-1.2 0-1.9-0.9-0.6-0.8-0.6-1.9 0-1.5 0.9-2.3 0.7-0.7 1.6-0.7 0.5 0 1 0.2 0.5 0.2 0.6 0.5l0.2-0.5h0.8v4.9q0 2.8-2.5 2.8-1.1 0-2.1-0.8l0.3-0.5q0.8 0.5 1.7 0.5 1.5 0 1.5-2zm0-1.2v-2.2q0-0.3-0.4-0.6-0.4-0.3-0.9-0.3-0.7 0-1.2 0.6-0.4 0.6-0.4 1.5 0 1 0.5 1.6 0.4 0.5 1 0.5 0.5 0 0.9-0.3 0.4-0.4 0.5-0.8zm-69.6 9.3v5.4h-1.1v-5.4zm-1.1-1.7q0-0.3 0.2-0.4 0.2-0.2 0.4-0.2 0.3 0 0.5 0.2 0.2 0.1 0.2 0.4 0 0.3-0.2 0.4-0.2 0.2-0.5 0.2-0.2 0-0.4-0.2-0.2-0.1-0.2-0.4zm4 2.2h0.1q0.6-0.7 1.7-0.7 2 0 2 2.4v3.2h-1.1v-3.2q0-1.5-1.3-1.5-0.4 0-0.8 0.2-0.3 0.2-0.5 0.4v4.1h-1.1v-5.4h0.9zm8.5 0.4q-0.6-0.3-1.3-0.3-0.4 0-0.6 0.2-0.2 0.1-0.2 0.5 0 0.3 0.2 0.5 0.2 0.2 0.8 0.3 0.9 0.3 1.3 0.6 0.5 0.4 0.5 1.2 0 0.7-0.6 1.2-0.5 0.4-1.4 0.4-1.1 0-2-0.6l0.4-0.6q0.7 0.4 1.5 0.4 1.1 0 1.1-0.8 0-0.4-0.3-0.6-0.2-0.2-0.8-0.3-1.8-0.5-1.8-1.7 0-0.7 0.5-1.1 0.6-0.4 1.3-0.4 1.1 0 1.8 0.5zm3.6-0.1v3.2q0 0.8 0.6 0.8 0.4 0 0.8-0.3l0.3 0.6q-0.6 0.5-1.4 0.5-1.4 0-1.4-1.6v-3.2h-0.8v-0.8h0.8v-1.2l1.1-0.5v1.7h1.6v0.8zm7.3 4.6h-0.8l-0.1-0.6q-0.6 0.8-1.7 0.8-0.9 0-1.4-0.5-0.4-0.5-0.4-1.3 0-0.9 0.7-1.3 0.7-0.5 2.1-0.5h0.6v-0.1q0-1.2-1.2-1.2-0.8 0-1.5 0.5l-0.3-0.6q0.9-0.8 2.1-0.8 1.9 0 1.9 2.3zm-1-2.7h-0.5q-1.9 0-1.9 1.1 0 0.4 0.3 0.7 0.3 0.3 0.7 0.3 0.5 0 0.9-0.3 0.4-0.2 0.5-0.6zm3.9-4.9v7.7h-1v-7.2zm2.9 0v7.7h-1.1v-7.1zm6 7.7h-0.8l-0.1-0.6q-0.6 0.7-1.7 0.7-0.9 0-1.4-0.4-0.5-0.5-0.5-1.3 0-0.9 0.8-1.4 0.7-0.4 2.1-0.4h0.6v-0.1q0-1.3-1.2-1.3-0.9 0-1.5 0.6l-0.4-0.6q1-0.8 2.2-0.8 1.9 0 1.9 2.3zm-1-2.7h-0.5q-1.9 0-1.9 1.1 0 0.4 0.3 0.7 0.3 0.3 0.7 0.3 0.5 0 0.9-0.3 0.4-0.2 0.5-0.6zm4.3-1.8v3.1q0 0.8 0.6 0.8 0.4 0 0.8-0.2l0.3 0.5q-0.6 0.5-1.4 0.5-1.4 0-1.4-1.5v-3.2h-0.8v-0.9h0.8v-1.1l1.1-0.5v1.6h1.6v0.9zm4.3-0.9v5.5h-1.1v-5.5zm-1.1-1.6q0-0.3 0.2-0.5 0.2-0.2 0.4-0.2 0.3 0 0.5 0.2 0.2 0.2 0.2 0.5 0 0.2-0.2 0.4-0.2 0.2-0.5 0.2-0.2 0-0.4-0.2-0.2-0.2-0.2-0.4zm5.3 7.2q-1.2 0-2-0.9-0.6-0.8-0.6-1.9 0-1.3 0.8-2.2 0.7-0.7 1.8-0.7 1.3 0 2.1 0.9 0.6 0.8 0.6 2 0 1.3-0.9 2.1-0.7 0.7-1.8 0.7zm0-0.8q0.7 0 1.1-0.5 0.5-0.6 0.5-1.5 0-1-0.5-1.6-0.4-0.5-1.1-0.5-0.7 0-1.1 0.6-0.4 0.5-0.4 1.5 0 1 0.4 1.5 0.5 0.5 1.1 0.5zm5.1-4.2h0.1q0.6-0.7 1.7-0.7 2 0 2 2.3v3.3h-1v-3.2q0-1.5-1.4-1.5-0.3 0-0.7 0.2-0.4 0.1-0.6 0.4v4.1h-1v-5.5h0.8zm8.6 0.5q-0.6-0.4-1.3-0.4-0.4 0-0.7 0.2-0.2 0.2-0.2 0.5 0 0.4 0.2 0.6 0.2 0.1 0.9 0.3 0.9 0.3 1.2 0.6 0.5 0.4 0.5 1.2 0 0.7-0.5 1.1-0.5 0.5-1.4 0.5-1.2 0-2-0.7l0.3-0.5q0.7 0.4 1.5 0.4 1.1 0 1.1-0.9 0-0.3-0.2-0.5-0.2-0.2-0.9-0.4-1.7-0.4-1.7-1.6 0-0.7 0.5-1.1 0.5-0.4 1.3-0.4 1 0 1.8 0.5z"/>
	<path id="Layer" fill-rule="evenodd" class="s0" d="m176.9 246.3h-2.8v2q0.3-0.1 0.7-0.1 1.2 0 2 0.7 0.6 0.6 0.6 1.6 0 1.3-0.8 2-0.7 0.6-1.8 0.6-1.2 0-2.2-0.8l0.4-0.7q0.8 0.6 1.7 0.6 0.7 0 1.1-0.4 0.5-0.5 0.5-1.2 0-1.5-1.8-1.5-0.7 0-1.5 0.2v-3.9h3.9zm4.5 6.8q-1.4 0-2.1-1.2-0.7-1.1-0.7-2.7 0-1.8 0.9-2.9 0.7-1.1 1.9-1.1 1.3 0 2.1 1.3 0.7 1.1 0.7 2.7 0 1.9-0.8 2.9-0.8 1-2 1zm0-6.9q-0.8 0-1.2 0.8-0.4 0.7-0.4 2.1 0 1.5 0.4 2.3 0.5 0.8 1.2 0.8 0.8 0 1.2-0.8 0.4-0.9 0.4-2.3 0-1.4-0.4-2.2-0.5-0.7-1.2-0.7zm7.2-0.8h4.6v0.9h-3.5v2.3h3v0.9h-3v2.6h3.7v0.9h-4.8zm7.2 2.7h0.1q0.6-0.7 1.7-0.7 1.3 0 1.7 1 0.7-1 2-1 2 0 2 2.3v3.3h-1v-3.1q0-0.9-0.4-1.2-0.3-0.4-1-0.4-0.8 0-1.4 0.6 0.1 0.4 0.1 0.8v3.3h-1v-3.1q0-0.9-0.4-1.2-0.3-0.4-1-0.4-0.4 0-0.7 0.1-0.4 0.2-0.6 0.5v4.1h-1v-5.5h0.8zm9.3-0.5h0.8l0.1 0.5q0.7-0.7 1.7-0.7 1.2 0 1.9 0.9 0.6 0.8 0.6 1.9 0 1.5-0.9 2.3-0.7 0.7-1.7 0.7-0.9 0-1.5-0.6v2.6h-1zm1 1.7v2.2q0.1 0.3 0.5 0.6 0.4 0.3 0.8 0.3 0.8 0 1.2-0.6 0.5-0.6 0.5-1.5 0-1-0.5-1.6-0.4-0.5-1.1-0.5-0.4 0-0.8 0.4-0.5 0.3-0.6 0.7zm6.6-4v7.7h-1v-7.2zm4.2 7.9q-1.3 0-2-0.9-0.7-0.8-0.7-1.9 0-1.4 0.8-2.2 0.7-0.7 1.9-0.7 1.3 0 2 0.9 0.6 0.8 0.6 2 0 1.3-0.8 2.1-0.8 0.7-1.8 0.7zm-0.1-0.8q0.8 0 1.2-0.5 0.4-0.6 0.4-1.5 0-1-0.4-1.6-0.5-0.5-1.1-0.5-0.7 0-1.2 0.6-0.4 0.5-0.4 1.5 0 1 0.5 1.5 0.4 0.5 1 0.5zm8.8-4.8l-2.4 6.3q-0.5 1.5-1.5 1.5-0.7 0-1.3-0.5l0.3-0.6q0.4 0.3 0.7 0.3 0.5 0 0.8-0.8l0.3-0.7h-0.2l-2-5.5h1l1.6 4.4 1.6-4.4zm5.6 3.1h-3.8q0.1 0.8 0.5 1.3 0.5 0.4 1.3 0.4 0.7 0 1.5-0.4l0.3 0.6q-0.8 0.6-2 0.6-1.3 0-2.1-0.8-0.7-0.8-0.7-2 0-1.3 0.8-2.1 0.7-0.8 1.7-0.8 1.3 0 2 0.9 0.5 0.8 0.5 1.9zm-3.9-0.8h2.9q-0.1-0.7-0.4-1.2-0.4-0.4-1-0.4-0.6 0-1 0.5-0.4 0.4-0.5 1.1zm10 0.8h-3.8q0.1 0.8 0.6 1.3 0.5 0.5 1.2 0.5 0.8 0 1.6-0.5l0.3 0.6q-0.9 0.7-2 0.7-1.3 0-2.1-0.9-0.7-0.7-0.7-2 0-1.3 0.7-2.1 0.7-0.8 1.8-0.8 1.2 0 1.9 1 0.5 0.7 0.5 1.9zm-3.8-0.8h2.8q0-0.8-0.4-1.2-0.4-0.5-1-0.5-0.6 0-1 0.5-0.4 0.4-0.4 1.2zm8.3-1.3q-0.6-0.3-1.3-0.3-0.4 0-0.6 0.2-0.3 0.1-0.3 0.4 0 0.4 0.2 0.6 0.3 0.2 0.9 0.3 0.9 0.3 1.3 0.6 0.5 0.4 0.5 1.2 0 0.7-0.6 1.2-0.5 0.4-1.4 0.4-1.2 0-2-0.6l0.4-0.6q0.6 0.4 1.5 0.4 1.1 0 1.1-0.8 0-0.4-0.3-0.6-0.2-0.2-0.9-0.3-1.7-0.5-1.7-1.7 0-0.7 0.5-1.1 0.5-0.4 1.3-0.4 1 0 1.8 0.5zm-69.3 12.9v-0.9h0.8v-0.7q0-1.5 1.4-1.5 0.7 0 1.4 0.4l-0.4 0.6q-0.4-0.2-0.8-0.2-0.6 0-0.6 0.8v0.6h1.4v0.9h-1.4v4.6h-1v-4.6zm6.8 4.7q-1.3 0-2-0.9-0.7-0.8-0.7-1.9 0-1.3 0.8-2.2 0.7-0.7 1.9-0.7 1.3 0 2 1 0.6 0.7 0.6 1.9 0 1.3-0.8 2.1-0.8 0.7-1.8 0.7zm-0.1-0.8q0.8 0 1.2-0.5 0.4-0.6 0.4-1.5 0-1-0.4-1.6-0.5-0.5-1.1-0.5-0.7 0-1.2 0.6-0.4 0.5-0.4 1.5 0 1 0.5 1.5 0.4 0.5 1 0.5zm5.2-4.2h0.1q0.5-0.7 1.3-0.7 0.9 0 1.4 0.7l-0.9 0.6q-0.4-0.4-0.8-0.4-0.6 0-1 0.6v4.1h-1.1v-5.5h0.9zm4.8 0q0.6-0.6 1.7-0.6 1.4 0 1.8 0.9 0.7-0.9 2-0.9 1.9 0 1.9 2.3v3.3h-1v-3.1q0-0.9-0.3-1.3-0.3-0.3-1.1-0.3-0.7 0-1.3 0.6 0 0.3 0 0.8v3.3h-1v-3.2q0-0.8-0.3-1.2-0.4-0.3-1.1-0.3-0.3 0-0.7 0.1-0.4 0.2-0.6 0.5v4.1h-1v-5.5h0.9zm13.9 2.5h-3.9q0.1 0.8 0.6 1.3 0.5 0.5 1.3 0.5 0.7 0 1.5-0.5l0.3 0.6q-0.9 0.7-2 0.7-1.3 0-2.1-0.9-0.7-0.7-0.7-2 0-1.3 0.8-2.1 0.7-0.8 1.7-0.8 1.3 0 1.9 1 0.6 0.7 0.6 1.9zm-3.9-0.8h2.8q0-0.8-0.4-1.2-0.3-0.5-1-0.5-0.6 0-1 0.5-0.3 0.4-0.4 1.2zm9.3 3.2l-0.2-0.6q-0.5 0.7-1.6 0.7-1.2 0-1.9-0.9-0.6-0.7-0.6-1.9 0-1.4 0.9-2.3 0.7-0.6 1.7-0.6 0.9 0 1.5 0.5v-2.1l1-0.6v7.8zm-0.2-1.8v-2.1q-0.1-0.4-0.5-0.7-0.4-0.2-0.8-0.2-0.8 0-1.2 0.5-0.5 0.6-0.5 1.5 0 1.1 0.5 1.6 0.4 0.5 1.1 0.5 0.4 0 0.8-0.3 0.4-0.3 0.6-0.8z"/>
	<path id="Layer" fill-rule="evenodd" class="s0" d="m323.4 214.4v7.6h-1.1v-6.4l-1.4 0.8-0.5-0.8 1.9-1.2zm4.4 7.7q-1.3 0-2.1-1.2-0.6-1.1-0.6-2.7 0-1.8 0.8-2.9 0.8-1 1.9-1 1.4 0 2.2 1.3 0.6 1.1 0.6 2.6 0 1.9-0.8 3-0.8 0.9-2 0.9zm0-6.9q-0.7 0-1.1 0.8-0.5 0.7-0.5 2.1 0 1.5 0.5 2.3 0.4 0.8 1.1 0.8 0.8 0 1.2-0.8 0.5-0.8 0.5-2.3 0-1.4-0.5-2.2-0.4-0.7-1.2-0.7zm6.8 6.9q-1.4 0-2.1-1.2-0.7-1.1-0.7-2.7 0-1.8 0.9-2.9 0.8-1 1.9-1 1.4 0 2.2 1.3 0.6 1.1 0.6 2.6 0 1.9-0.8 3-0.8 0.9-2 0.9zm0-6.9q-0.7 0-1.2 0.8-0.4 0.7-0.4 2.1 0 1.5 0.5 2.3 0.4 0.8 1.1 0.8 0.8 0 1.2-0.8 0.4-0.8 0.4-2.3 0-1.4-0.4-2.2-0.4-0.7-1.2-0.7zm6.8 6.9q-1.4 0-2.1-1.2-0.7-1.1-0.7-2.7 0-1.8 0.9-2.9 0.7-1 1.9-1 1.3 0 2.1 1.3 0.7 1.1 0.7 2.6 0 1.9-0.8 3-0.8 0.9-2 0.9zm0-6.9q-0.8 0-1.2 0.8-0.4 0.7-0.4 2.1 0 1.5 0.5 2.3 0.4 0.8 1.1 0.8 0.8 0 1.2-0.8 0.4-0.8 0.4-2.3 0-1.4-0.4-2.2-0.4-0.7-1.2-0.7zm8.4 0.5v6.3h-1.1v-7.6h1.4q1 1.9 2 5.3 0.2 0.7 0.3 1.1 0.1-0.3 0.3-0.8 1.1-3.6 2-5.6h1.5v7.6h-1.2v-6.3q-0.4 1.7-2.1 6.3h-0.9q-0.5-1.3-1.2-3.3-0.7-2-1-3zm10.7 6.4q-1.3 0-2-0.9-0.7-0.8-0.7-1.9 0-1.3 0.8-2.1 0.7-0.8 1.9-0.8 1.3 0 2 1 0.6 0.7 0.6 1.9 0 1.3-0.8 2.1-0.8 0.7-1.8 0.7zm0-0.8q0.7 0 1.1-0.5 0.4-0.6 0.4-1.5 0-1-0.4-1.6-0.5-0.5-1.1-0.5-0.7 0-1.2 0.6-0.4 0.6-0.4 1.5 0 1 0.5 1.5 0.4 0.5 1.1 0.5zm5.1-4.2h0.1q0.6-0.7 1.7-0.7 2 0 2 2.4v3.2h-1.1v-3.2q0-1.5-1.3-1.5-0.4 0-0.8 0.2-0.4 0.2-0.5 0.4v4.1h-1.1v-5.4h0.9zm6.6-0.6v5.5h-1v-5.5zm-1.1-1.7q0-0.2 0.2-0.4 0.1-0.2 0.4-0.2 0.2 0 0.4 0.2 0.2 0.2 0.2 0.4 0 0.3-0.2 0.5-0.1 0.2-0.4 0.2-0.3 0-0.5-0.2-0.1-0.2-0.1-0.5zm4.4 2.6v3.1q0 0.8 0.6 0.8 0.4 0 0.8-0.2l0.4 0.5q-0.7 0.5-1.4 0.5-1.4 0-1.4-1.5v-3.2h-0.8v-0.9h0.8v-1.1l1-0.5v1.6h1.6v0.9zm5.4 4.7q-1.2 0-2-0.9-0.6-0.8-0.6-2 0-1.3 0.8-2.1 0.7-0.7 1.8-0.7 1.3 0 2.1 0.9 0.6 0.8 0.6 1.9 0 1.4-0.9 2.2-0.7 0.7-1.8 0.7zm0-0.8q0.7 0 1.2-0.6 0.4-0.5 0.4-1.5 0-0.9-0.5-1.5-0.4-0.5-1.1-0.5-0.7 0-1.1 0.5-0.4 0.6-0.4 1.5 0 1.1 0.5 1.6 0.4 0.5 1 0.5zm5.2-4.2q0.6-0.7 1.3-0.7 1 0 1.5 0.7l-0.9 0.6q-0.4-0.4-0.9-0.4-0.6 0-1 0.6v4.1h-1v-5.5h0.9zm4.8-0.5v5.4h-1v-5.4zm-1.1-1.7q0-0.3 0.2-0.4 0.1-0.2 0.4-0.2 0.2 0 0.4 0.2 0.2 0.1 0.2 0.4 0 0.3-0.2 0.4-0.1 0.2-0.4 0.2-0.3 0-0.5-0.2-0.1-0.1-0.1-0.4zm4 2.2q0.6-0.7 1.7-0.7 2 0 2 2.4v3.2h-1v-3.2q0-1.5-1.4-1.5-0.3 0-0.7 0.2-0.4 0.2-0.6 0.4v4.1h-1v-5.4h0.9zm9.2 4.4v-0.1q-0.5 0.7-1.5 0.7-1.2 0-1.9-0.9-0.6-0.7-0.6-1.8 0-1.5 0.8-2.3 0.7-0.7 1.7-0.7 0.5 0 1 0.2 0.4 0.2 0.6 0.5l0.1-0.6h0.8v5q0 2.8-2.4 2.8-1.1 0-2.1-0.8l0.3-0.6q0.8 0.5 1.7 0.5 1.5 0 1.5-1.9zm0-1.2v-2.2q-0.1-0.4-0.5-0.6-0.3-0.3-0.8-0.3-0.7 0-1.2 0.6-0.4 0.5-0.4 1.4 0 1.1 0.4 1.6 0.5 0.5 1.1 0.5 0.5 0 0.9-0.3 0.4-0.3 0.5-0.7zm-78.1 7.1v7.6h-1.1v-7.6zm3 2.7h0.1q0.6-0.7 1.7-0.7 2 0 2 2.3v3.3h-1v-3.2q0-1.5-1.4-1.5-0.4 0-0.7 0.2-0.4 0.1-0.6 0.4v4.1h-1v-5.5h0.8zm8.6 0.5q-0.6-0.4-1.3-0.4-0.4 0-0.7 0.2-0.2 0.2-0.2 0.5 0 0.4 0.2 0.6 0.2 0.1 0.8 0.3 1 0.3 1.3 0.6 0.5 0.4 0.5 1.2 0 0.7-0.5 1.1-0.6 0.5-1.4 0.5-1.2 0-2.1-0.7l0.4-0.5q0.7 0.4 1.5 0.4 1.1 0 1.1-0.9 0-0.3-0.2-0.5-0.3-0.2-0.9-0.4-1.8-0.4-1.8-1.7 0-0.6 0.5-1 0.6-0.5 1.4-0.5 1 0 1.7 0.6zm3.6-0.1v3.1q0 0.8 0.6 0.8 0.4 0 0.8-0.2l0.4 0.5q-0.7 0.5-1.5 0.5-1.3 0-1.3-1.5v-3.2h-0.9v-0.9h0.9v-1.1l1-0.5v1.6h1.6v0.9zm7.4 4.6h-0.8l-0.2-0.6q-0.6 0.7-1.7 0.7-0.8 0-1.3-0.4-0.5-0.5-0.5-1.3 0-0.9 0.7-1.4 0.8-0.5 2.1-0.5h0.6q0-1.3-1.2-1.3-0.8 0-1.5 0.5l-0.3-0.5q0.9-0.8 2.1-0.8 2 0 2 2.3zm-1.1-2.7h-0.5q-1.8 0-1.8 1.1 0 0.4 0.2 0.7 0.3 0.2 0.8 0.2 0.4 0 0.8-0.2 0.4-0.2 0.5-0.6zm3.9-5v7.8h-1v-7.2zm2.9 0v7.7h-1v-7.2zm6 7.8h-0.8l-0.2-0.6q-0.6 0.7-1.7 0.7-0.9 0-1.4-0.4-0.4-0.5-0.4-1.3 0-0.9 0.7-1.4 0.7-0.5 2.1-0.5h0.6q0-1.3-1.2-1.3-0.8 0-1.5 0.5l-0.3-0.5q0.9-0.8 2.1-0.8 2 0 2 2.3zm-1.1-2.8h-0.5q-1.9 0-1.9 1.1 0 0.5 0.3 0.8 0.3 0.2 0.7 0.2 0.5 0 0.9-0.2 0.4-0.2 0.5-0.6zm4.3-1.9v3.2q0 0.8 0.6 0.8 0.4 0 0.8-0.2l0.4 0.5q-0.7 0.5-1.5 0.5-1.4 0-1.4-1.5v-3.3h-0.8v-0.8h0.9v-1.1l1-0.6v1.7h1.6v0.8zm4.3-0.8v5.4h-1v-5.4zm-1.2-1.7q0-0.2 0.2-0.4 0.2-0.2 0.5-0.2 0.2 0 0.4 0.2 0.2 0.2 0.2 0.4 0 0.3-0.2 0.5-0.2 0.1-0.4 0.1-0.3 0-0.5-0.1-0.2-0.2-0.2-0.5zm5.4 7.3q-1.3 0-2-0.9-0.7-0.8-0.7-2 0-1.3 0.8-2.1 0.7-0.7 1.8-0.7 1.3 0 2.1 0.9 0.6 0.8 0.6 1.9 0 1.3-0.8 2.2-0.8 0.7-1.8 0.7zm-0.1-0.8q0.8 0 1.2-0.6 0.4-0.5 0.4-1.5 0-0.9-0.5-1.5-0.4-0.6-1.1-0.6-0.7 0-1.1 0.6-0.4 0.6-0.4 1.5 0 1 0.5 1.6 0.4 0.5 1 0.5zm5.2-4.3q0.6-0.6 1.7-0.6 2 0 2 2.3v3.2h-1v-3.1q0-1.6-1.3-1.6-0.4 0-0.8 0.2-0.4 0.2-0.6 0.5v4h-1v-5.4h0.9zm8.5 0.4q-0.6-0.3-1.3-0.3-0.4 0-0.6 0.2-0.3 0.2-0.3 0.5 0 0.3 0.2 0.5 0.3 0.2 0.9 0.4 0.9 0.2 1.3 0.5 0.5 0.5 0.5 1.2 0 0.8-0.6 1.2-0.5 0.5-1.4 0.5-1.2 0-2-0.7l0.4-0.6q0.6 0.4 1.5 0.4 1.1 0 1.1-0.8 0-0.4-0.3-0.5-0.2-0.2-0.9-0.4-1.7-0.4-1.7-1.7 0-0.6 0.5-1.1 0.5-0.4 1.3-0.4 1 0 1.8 0.6z"/>
	<path id="Layer" fill-rule="evenodd" class="s0" d="m407.8 51.6q-0.8-0.4-1.6-0.4-0.6 0-1 0.3-0.4 0.2-0.4 0.7 0 0.7 1 1.1 1.5 0.5 2.2 1.2 0.6 0.6 0.6 1.4 0 1.1-0.8 1.7-0.7 0.5-1.7 0.5-1.2 0-2.5-0.8l0.5-0.7q0.8 0.5 1.9 0.5 1.4 0 1.4-1.2 0-1-1.2-1.4-1.3-0.4-1.9-1-0.6-0.5-0.6-1.3 0-0.9 0.7-1.4 0.7-0.5 1.7-0.5 1.2 0 2.2 0.6zm3.9 1.8v3.2q0 0.8 0.6 0.8 0.4 0 0.8-0.3l0.4 0.6q-0.7 0.5-1.5 0.5-1.4 0-1.4-1.6v-3.2h-0.8v-0.8h0.9v-1.1l1-0.6v1.7h1.6v0.8zm7.4 4.6h-0.8l-0.2-0.5q-0.6 0.7-1.7 0.7-0.9 0-1.4-0.5-0.4-0.5-0.4-1.3 0-0.9 0.7-1.3 0.7-0.5 2.1-0.5h0.6v-0.1q0-1.2-1.2-1.2-0.8 0-1.5 0.5l-0.3-0.6q0.9-0.8 2.1-0.8 2 0 2 2.3zm-1.1-2.7h-0.5q-1.9 0-1.9 1.1 0 0.5 0.3 0.7 0.3 0.3 0.7 0.3 0.5 0 0.9-0.2 0.4-0.3 0.5-0.6zm3.9-2.2q0.6-0.7 1.3-0.7 1 0 1.4 0.8l-0.8 0.5q-0.4-0.4-0.9-0.4-0.6 0-1 0.6v4.1h-1v-5.4h0.9zm5.3 0.3v3.1q0 0.8 0.6 0.8 0.4 0 0.8-0.2l0.4 0.5q-0.7 0.5-1.5 0.5-1.4 0-1.4-1.5v-3.2h-0.8v-0.9h0.8v-1.1l1.1-0.5v1.6h1.6v0.9zm5.6 0v-0.9h0.8v-0.8q0-1.5 1.4-1.5 0.8 0 1.4 0.5l-0.3 0.6q-0.5-0.3-0.9-0.3-0.6 0-0.6 0.8v0.7h1.5v0.9h-1.5v4.6h-1v-4.6zm8.2-0.9h1.1v5.5h-0.8l-0.1-0.7h-0.1q-0.2 0.4-0.7 0.6-0.5 0.2-1 0.2-1.9 0-1.9-2.3v-3.3h1.1v3q0 1.7 1.2 1.7 0.3 0 0.7-0.2 0.4-0.1 0.5-0.4zm4-2.3v7.8h-1.1v-7.2zm3 0v7.7h-1.1v-7.2zm-40.9 20.9q-1.7 0-2.6-1.3-0.7-1.1-0.7-2.6 0-1.8 0.9-2.9 0.9-1.1 2.4-1.1 1.7 0 2.6 1.4 0.7 1.1 0.7 2.6 0 1.8-0.9 2.9-0.9 1-2.4 1zm0-1q1.1 0 1.7-0.9 0.5-0.8 0.5-2 0-1.5-0.7-2.3-0.5-0.7-1.5-0.7-1.1 0-1.7 0.9-0.4 0.8-0.4 2.1 0 1.4 0.6 2.2 0.5 0.7 1.5 0.7zm4.9-4.6h0.8l0.1 0.6q0.7-0.7 1.7-0.7 1.2 0 1.9 0.9 0.6 0.7 0.6 1.8 0 1.5-0.9 2.3-0.7 0.7-1.7 0.7-1 0-1.5-0.6v2.6h-1zm1 1.7v2.2q0.1 0.4 0.5 0.6 0.4 0.3 0.8 0.3 0.7 0 1.2-0.6 0.4-0.5 0.4-1.5 0-1-0.4-1.6-0.5-0.4-1.1-0.4-0.5 0-0.9 0.3-0.4 0.3-0.5 0.7zm10.2 1.4h-3.8q0 0.8 0.5 1.2 0.5 0.5 1.3 0.5 0.7 0 1.5-0.5l0.3 0.6q-0.8 0.7-2 0.7-1.3 0-2.1-0.8-0.7-0.8-0.7-2 0-1.3 0.8-2.2 0.7-0.7 1.7-0.7 1.3 0 2 0.9 0.5 0.8 0.5 1.9zm-3.9-0.8h2.8q0-0.8-0.4-1.2-0.3-0.4-0.9-0.4-0.6 0-1 0.4-0.4 0.5-0.5 1.2zm6.4-1.7q0.6-0.7 1.4-0.7 0.9 0 1.4 0.7l-0.9 0.6q-0.4-0.4-0.9-0.4-0.6 0-1 0.6v4.1h-1v-5.5h0.9zm7.8 5h-0.8l-0.1-0.6q-0.7 0.7-1.8 0.7-0.8 0-1.3-0.5-0.5-0.4-0.5-1.2 0-0.9 0.7-1.4 0.8-0.5 2.1-0.5h0.7v-0.1q0-1.2-1.3-1.2-0.8 0-1.5 0.5l-0.3-0.5q0.9-0.8 2.1-0.8 2 0 2 2.3zm-1-2.8h-0.6q-1.8 0-1.8 1.1 0 0.5 0.2 0.8 0.3 0.2 0.8 0.2 0.4 0 0.8-0.2 0.4-0.3 0.6-0.6zm4.2-1.9v3.2q0 0.8 0.6 0.8 0.4 0 0.8-0.3l0.4 0.6q-0.7 0.5-1.4 0.5-1.4 0-1.4-1.5v-3.3h-0.8v-0.8h0.8v-1.1l1-0.6v1.7h1.6v0.8zm4.3-0.8v5.4h-1v-5.4zm-1.1-1.7q0-0.2 0.1-0.4 0.2-0.2 0.5-0.2 0.2 0 0.4 0.2 0.2 0.2 0.2 0.4 0 0.3-0.2 0.5-0.2 0.1-0.4 0.1-0.3 0-0.5-0.1-0.1-0.2-0.1-0.5zm5.3 7.3q-1.2 0-2-0.9-0.7-0.8-0.7-2 0-1.3 0.8-2.1 0.7-0.8 1.9-0.8 1.3 0 2 1 0.6 0.8 0.6 1.9 0 1.3-0.8 2.2-0.8 0.7-1.8 0.7zm0-0.8q0.7 0 1.1-0.6 0.4-0.5 0.4-1.5 0-0.9-0.4-1.5-0.4-0.6-1.1-0.6-0.7 0-1.2 0.6-0.4 0.6-0.4 1.5 0 1 0.5 1.6 0.4 0.5 1.1 0.5zm5.1-4.3h0.1q0.6-0.7 1.7-0.7 2 0 2 2.4v3.2h-1.1v-3.1q0-1.6-1.3-1.6-0.4 0-0.8 0.2-0.3 0.2-0.5 0.4v4.1h-1.1v-5.4h0.9zm-44.5 14.3h-1.1v-0.9h1.1q1.3 0 1.3-1.2 0-0.5-0.4-0.8-0.3-0.3-0.9-0.3-0.7 0-1.5 0.6l-0.4-0.7q0.9-0.8 2.1-0.8 1 0 1.6 0.5 0.6 0.6 0.6 1.4 0 0.6-0.3 1.1-0.3 0.4-0.9 0.6 1.5 0.4 1.5 1.9 0 1.2-0.9 1.9-0.7 0.4-1.6 0.4-1.2 0-2.2-0.8l0.4-0.7q0.7 0.6 1.7 0.6 0.7 0 1.1-0.4 0.4-0.4 0.4-1 0-1.4-1.6-1.4zm6.7 3.7q-1.4 0-2.1-1.2-0.7-1.1-0.7-2.7 0-1.8 0.9-2.9 0.7-1 1.9-1 1.3 0 2.1 1.3 0.7 1.1 0.7 2.6 0 1.9-0.8 3-0.8 0.9-2 0.9zm0-6.9q-0.8 0-1.2 0.8-0.4 0.7-0.4 2.1 0 1.5 0.5 2.3 0.4 0.8 1.1 0.8 0.8 0 1.2-0.8 0.4-0.8 0.4-2.3 0-1.4-0.4-2.2-0.4-0.7-1.2-0.7zm6.8 6.9q-1.4 0-2.1-1.2-0.7-1.1-0.7-2.7 0-1.8 0.9-2.9 0.7-1 1.9-1 1.3 0 2.1 1.3 0.7 1.1 0.7 2.6 0 1.9-0.9 3-0.7 0.9-1.9 0.9zm0-6.9q-0.8 0-1.2 0.8-0.4 0.7-0.4 2.1 0 1.5 0.4 2.3 0.5 0.8 1.2 0.8 0.7 0 1.2-0.8 0.4-0.8 0.4-2.3 0-1.4-0.4-2.2-0.5-0.7-1.2-0.7zm6.8 6.9q-1.4 0-2.2-1.2-0.6-1.1-0.6-2.7 0-1.8 0.8-2.9 0.8-1 2-1 1.3 0 2.1 1.3 0.7 1.1 0.7 2.6 0 1.9-0.9 3-0.7 0.9-1.9 0.9zm0-6.9q-0.8 0-1.2 0.8-0.4 0.7-0.4 2.1 0 1.5 0.4 2.3 0.5 0.8 1.2 0.8 0.7 0 1.2-0.8 0.4-0.8 0.4-2.3 0-1.4-0.5-2.2-0.4-0.7-1.1-0.7zm-20.7 12.2v7.6h-1.1v-7.6zm3 2.7q0.6-0.7 1.7-0.7 2 0 2 2.4v3.2h-1v-3.2q0-1.5-1.4-1.5-0.3 0-0.7 0.2-0.4 0.2-0.6 0.4v4.1h-1v-5.5h0.9zm8.5 0.5q-0.6-0.3-1.3-0.3-0.4 0-0.7 0.1-0.2 0.2-0.2 0.5 0 0.4 0.2 0.6 0.3 0.2 0.9 0.3 0.9 0.3 1.2 0.6 0.5 0.4 0.5 1.2 0 0.7-0.5 1.2-0.5 0.4-1.4 0.4-1.2 0-2-0.6l0.3-0.6q0.7 0.4 1.5 0.4 1.1 0 1.1-0.8 0-0.4-0.2-0.6-0.2-0.2-0.9-0.3-1.7-0.5-1.7-1.7 0-0.7 0.5-1.1 0.5-0.4 1.3-0.4 1 0 1.8 0.5zm3.5-0.1v3.2q0 0.7 0.6 0.7 0.4 0 0.8-0.2l0.4 0.6q-0.7 0.4-1.4 0.4-1.4 0-1.4-1.5v-3.2h-0.8v-0.9h0.8v-1.1l1-0.5v1.6h1.7v0.9zm7.3 4.6h-0.8l-0.1-0.6q-0.7 0.7-1.8 0.7-0.8 0-1.3-0.4-0.5-0.5-0.5-1.3 0-0.9 0.7-1.4 0.8-0.5 2.1-0.5h0.7q0-1.3-1.3-1.3-0.8 0-1.5 0.6l-0.3-0.6q0.9-0.8 2.2-0.8 1.9 0 1.9 2.3zm-1-2.7h-0.6q-1.8 0-1.8 1.1 0 0.4 0.3 0.7 0.2 0.3 0.7 0.3 0.4 0 0.8-0.3 0.4-0.2 0.6-0.6zm3.8-5v7.8h-1v-7.2zm2.9 0v7.7h-1v-7.2zm6 7.8h-0.8l-0.1-0.6q-0.7 0.7-1.8 0.7-0.8 0-1.3-0.4-0.5-0.5-0.5-1.3 0-0.9 0.7-1.4 0.8-0.5 2.1-0.5h0.7q0-1.3-1.3-1.3-0.8 0-1.5 0.5l-0.3-0.5q0.9-0.8 2.1-0.8 2 0 2 2.3zm-1-2.7h-0.6q-1.8 0-1.8 1.1 0 0.4 0.2 0.7 0.3 0.2 0.8 0.2 0.4 0 0.8-0.2 0.4-0.2 0.6-0.6zm4.2-1.8v3.1q0 0.8 0.6 0.8 0.4 0 0.8-0.2l0.4 0.5q-0.7 0.5-1.4 0.5-1.4 0-1.4-1.5v-3.2h-0.8v-0.9h0.8v-1.1l1-0.5v1.6h1.6v0.9zm4.3-0.9v5.5h-1v-5.5zm-1.1-1.7q0-0.2 0.2-0.4 0.1-0.2 0.4-0.2 0.2 0 0.4 0.2 0.2 0.2 0.2 0.4 0 0.3-0.2 0.5-0.2 0.2-0.4 0.2-0.3 0-0.5-0.2-0.1-0.2-0.1-0.5zm5.3 7.3q-1.2 0-2-0.9-0.7-0.8-0.7-1.9 0-1.4 0.8-2.2 0.7-0.7 1.9-0.7 1.3 0 2 0.9 0.6 0.8 0.6 2 0 1.3-0.8 2.1-0.8 0.7-1.8 0.7zm0-0.8q0.7 0 1.1-0.6 0.4-0.5 0.4-1.4 0-1-0.4-1.6-0.4-0.5-1.1-0.5-0.7 0-1.2 0.5-0.4 0.6-0.4 1.6 0 1 0.5 1.5 0.4 0.5 1.1 0.5zm5.1-4.2h0.1q0.6-0.7 1.7-0.7 2 0 2 2.3v3.3h-1.1v-3.2q0-1.5-1.3-1.5-0.4 0-0.8 0.1-0.3 0.2-0.5 0.5v4.1h-1.1v-5.5h0.9zm8.5 0.5q-0.6-0.4-1.3-0.4-0.4 0-0.6 0.2-0.2 0.2-0.2 0.5 0 0.4 0.2 0.5 0.2 0.2 0.8 0.4 0.9 0.3 1.3 0.6 0.5 0.4 0.5 1.1 0 0.8-0.6 1.2-0.5 0.5-1.4 0.5-1.1 0-2-0.7l0.4-0.6q0.7 0.5 1.5 0.5 1.1 0 1.1-0.9 0-0.3-0.3-0.5-0.2-0.2-0.8-0.4-1.8-0.4-1.8-1.7 0-0.6 0.5-1 0.6-0.5 1.3-0.5 1.1 0 1.8 0.6zm5.6-3.1l-3.8 7.9h-0.9l3.8-7.9zm1 0h1.2l2 3.7 1.9-3.7h1.2l-2.6 4.6v3h-1.1v-3zm8.4 2.7q0.6-0.7 1.3-0.7 1 0 1.5 0.7l-0.9 0.6q-0.4-0.4-0.9-0.4-0.6 0-1 0.6v4.1h-1v-5.5h0.9z"/>
	<path id="Layer" fill-rule="evenodd" class="s0" d="m323.4 245.4v7.6h-1.1v-6.4l-1.4 0.8-0.5-0.8 1.9-1.2zm1.7 7.6v-1l1.9-2.1q0.9-1 1.2-1.5 0.3-0.5 0.3-1.1 0-0.5-0.4-0.8-0.4-0.3-1-0.3-0.7 0-1.5 0.5l-0.4-0.6q1-0.9 2.1-0.9 1.1 0 1.7 0.7 0.6 0.5 0.6 1.4 0 0.6-0.2 1.2-0.3 0.5-1 1.3l-2 2.3h3.1v0.9zm8.5 0.1q-1.4 0-2.1-1.2-0.7-1.1-0.7-2.7 0-1.8 0.9-2.9 0.7-1 1.9-1 1.3 0 2.1 1.3 0.7 1.1 0.7 2.6 0 1.9-0.8 3-0.8 0.9-2 0.9zm0-6.9q-0.8 0-1.2 0.8-0.4 0.7-0.4 2.1 0 1.5 0.4 2.3 0.5 0.8 1.2 0.8 0.8 0 1.2-0.8 0.4-0.8 0.4-2.3 0-1.4-0.4-2.2-0.5-0.7-1.2-0.7zm6.8 6.9q-1.4 0-2.1-1.2-0.7-1.1-0.7-2.7 0-1.8 0.9-2.9 0.7-1 1.9-1 1.3 0 2.1 1.3 0.7 1.1 0.7 2.6 0 1.9-0.9 3-0.7 0.9-1.9 0.9zm0-6.9q-0.8 0-1.2 0.8-0.4 0.7-0.4 2.1 0 1.5 0.4 2.3 0.5 0.8 1.2 0.8 0.7 0 1.2-0.8 0.4-0.8 0.4-2.3 0-1.4-0.4-2.2-0.5-0.7-1.2-0.7zm10.9 1.9h0.1q0.6-0.7 1.7-0.7 2 0 2 2.4v3.2h-1.1v-3.2q0-1.5-1.3-1.5-0.4 0-0.8 0.2-0.3 0.2-0.5 0.4v4.1h-1v-5.4h0.8zm10.2 2.5h-3.8q0.1 0.8 0.6 1.2 0.5 0.5 1.2 0.5 0.8 0 1.5-0.5l0.3 0.6q-0.8 0.7-1.9 0.7-1.4 0-2.1-0.8-0.8-0.8-0.8-2 0-1.3 0.8-2.2 0.7-0.7 1.8-0.7 1.2 0 1.9 0.9 0.5 0.8 0.5 1.9zm-3.9-0.8h2.9q-0.1-0.8-0.4-1.2-0.4-0.4-1-0.4-0.6 0-1 0.4-0.4 0.5-0.5 1.2zm7.5 3.2h-1l-1.8-5.4h1.1l1.2 4.2 1.1-4.2h1.2l1.1 4.2 1.2-4.2h1.1l-1.8 5.4h-1.1l-1.1-4.1zm-43.2 7.5v5.5h-1v-5.5zm-1.1-1.7q0-0.2 0.2-0.4 0.2-0.2 0.4-0.2 0.3 0 0.4 0.2 0.2 0.2 0.2 0.4 0 0.3-0.1 0.5-0.2 0.2-0.5 0.2-0.3 0-0.4-0.2-0.2-0.2-0.2-0.5zm4 2.3q0.6-0.7 1.7-0.7 2 0 2 2.3v3.3h-1v-3.2q0-1.5-1.3-1.5-0.4 0-0.8 0.1-0.4 0.2-0.6 0.5v4.1h-1v-5.5h0.9zm8.5 0.5q-0.6-0.4-1.3-0.4-0.4 0-0.6 0.2-0.3 0.2-0.3 0.5 0 0.4 0.2 0.5 0.3 0.2 0.9 0.4 0.9 0.3 1.3 0.6 0.5 0.4 0.5 1.1 0 0.8-0.6 1.2-0.5 0.5-1.4 0.5-1.2 0-2-0.7l0.4-0.6q0.6 0.5 1.5 0.5 1.1 0 1.1-0.9 0-0.3-0.3-0.5-0.2-0.2-0.9-0.4-1.7-0.4-1.7-1.7 0-0.6 0.5-1 0.5-0.5 1.3-0.5 1 0 1.8 0.6zm3.5-0.2v3.2q0 0.8 0.6 0.8 0.4 0 0.9-0.2l0.3 0.5q-0.6 0.5-1.4 0.5-1.4 0-1.4-1.5v-3.3h-0.8v-0.8h0.8v-1.1l1-0.5v1.6h1.7v0.8zm7.3 4.7h-0.8l-0.1-0.6q-0.7 0.7-1.8 0.7-0.8 0-1.3-0.5-0.5-0.4-0.5-1.2 0-0.9 0.8-1.4 0.7-0.5 2.1-0.5h0.6q0-1.3-1.3-1.3-0.8 0-1.5 0.5l-0.3-0.5q1-0.8 2.2-0.8 1.9 0 1.9 2.3zm-1-2.8h-0.5q-1.9 0-1.9 1.1 0 0.5 0.3 0.8 0.2 0.2 0.7 0.2 0.5 0 0.9-0.2 0.3-0.2 0.5-0.6zm3.9-5v7.7h-1.1v-7.1zm2.9 0v7.7h-1v-7.2zm6 7.7h-0.8l-0.1-0.5q-0.7 0.7-1.8 0.7-0.8 0-1.3-0.5-0.5-0.4-0.5-1.2 0-0.9 0.7-1.4 0.8-0.5 2.1-0.5h0.7v-0.1q0-1.2-1.3-1.2-0.8 0-1.5 0.5l-0.3-0.5q0.9-0.8 2.2-0.8 1.9 0 1.9 2.3zm-1-2.8h-0.6q-1.8 0-1.8 1.1 0 0.5 0.3 0.7 0.2 0.3 0.7 0.3 0.4 0 0.8-0.2 0.4-0.3 0.6-0.6zm4.2-1.9v3.2q0 0.8 0.6 0.8 0.4 0 0.8-0.3l0.4 0.6q-0.7 0.5-1.4 0.5-1.4 0-1.4-1.5v-3.3h-0.8v-0.8h0.8v-1.1l1-0.6v1.7h1.7v0.8zm4.2-0.8v5.4h-1v-5.4zm-1.1-1.7q0-0.3 0.2-0.4 0.1-0.2 0.4-0.2 0.3 0 0.4 0.2 0.2 0.1 0.2 0.4 0 0.3-0.2 0.4-0.1 0.2-0.4 0.2-0.3 0-0.4-0.2-0.2-0.1-0.2-0.4zm5.3 7.3q-1.2 0-2-1-0.7-0.7-0.7-1.9 0-1.3 0.8-2.1 0.8-0.8 1.9-0.8 1.3 0 2 1 0.6 0.8 0.6 1.9 0 1.3-0.8 2.2-0.7 0.7-1.8 0.7zm0-0.8q0.7 0 1.1-0.6 0.5-0.5 0.5-1.5 0-1-0.5-1.5-0.4-0.6-1.1-0.6-0.7 0-1.1 0.6-0.5 0.6-0.5 1.5 0 1 0.5 1.6 0.4 0.5 1.1 0.5zm5.1-4.3h0.1q0.6-0.7 1.7-0.7 2 0 2 2.4v3.2h-1v-3.2q0-1.5-1.4-1.5-0.4 0-0.7 0.2-0.4 0.2-0.6 0.4v4.1h-1v-5.4h0.8zm8.6 0.4q-0.6-0.3-1.4-0.3-0.4 0-0.6 0.2-0.2 0.2-0.2 0.5 0 0.3 0.2 0.5 0.2 0.2 0.8 0.4 0.9 0.2 1.3 0.5 0.5 0.4 0.5 1.2 0 0.7-0.5 1.2-0.6 0.4-1.4 0.4-1.2 0-2.1-0.6l0.4-0.6q0.7 0.4 1.5 0.4 1.1 0 1.1-0.8 0-0.4-0.2-0.6-0.3-0.1-0.9-0.3-1.8-0.4-1.8-1.7 0-0.7 0.5-1.1 0.6-0.4 1.4-0.4 1 0 1.7 0.6z"/>
	<path id="Layer" fill-rule="evenodd" class="s0" d="m320.4 188.5l3.4-5.1h1.1v5.1h1.3v0.9h-1.3v1.6h-1.1v-1.6h-3.4zm1.1 0h2.3v-3.6zm10.2-3.7v6.2h-1.1v-7.6h1.4q0.9 1.9 1.9 5.3 0.3 0.7 0.4 1.1 0.1-0.3 0.2-0.8 1.1-3.6 2.1-5.6h1.4v7.6h-1.1v-6.3q-0.5 1.7-2.2 6.3h-0.9q-0.5-1.2-1.2-3.2-0.7-2-0.9-3zm12.4 6.2h-0.8l-0.1-0.6q-0.6 0.8-1.7 0.8-0.9 0-1.4-0.5-0.4-0.5-0.4-1.3 0-0.9 0.7-1.3 0.7-0.5 2.1-0.5h0.6v-0.1q0-1.2-1.2-1.2-0.8 0-1.5 0.5l-0.3-0.6q0.9-0.8 2.1-0.8 1.9 0 1.9 2.3zm-1-2.7h-0.5q-1.9 0-1.9 1.1 0 0.4 0.3 0.7 0.3 0.3 0.7 0.3 0.5 0 0.9-0.3 0.4-0.2 0.5-0.6zm3.8-2.1h0.1q0.6-0.7 1.7-0.7 2 0 2 2.4v3.2h-1v-3.2q0-1.5-1.4-1.5-0.4 0-0.7 0.2-0.4 0.2-0.6 0.4v4.1h-1v-5.5h0.8zm9.7 5h-0.8l-0.1-0.6q-0.6 0.7-1.7 0.7-0.9 0-1.4-0.5-0.5-0.4-0.5-1.2 0-0.9 0.8-1.4 0.7-0.5 2.1-0.5h0.6q0-1.3-1.2-1.3-0.9 0-1.5 0.5l-0.4-0.5q1-0.8 2.2-0.8 1.9 0 1.9 2.3zm-1-2.8h-0.5q-1.9 0-1.9 1.1 0 0.5 0.3 0.8 0.3 0.2 0.7 0.2 0.5 0 0.9-0.2 0.4-0.2 0.5-0.6zm6.5 2.2q-0.5 0.7-1.5 0.7-1.2 0-1.9-0.9-0.6-0.7-0.6-1.9 0-1.5 0.8-2.3 0.7-0.7 1.7-0.7 0.5 0 1 0.3 0.5 0.2 0.6 0.5l0.2-0.6h0.8v4.9q0 2.8-2.5 2.8-1.1 0-2.1-0.8l0.3-0.5q0.8 0.5 1.7 0.5 1.5 0 1.5-2zm0-1.2v-2.1q-0.1-0.4-0.5-0.7-0.3-0.3-0.8-0.3-0.7 0-1.2 0.6-0.4 0.6-0.4 1.5 0 1 0.5 1.6 0.4 0.5 1 0.5 0.5 0 0.9-0.3 0.4-0.3 0.5-0.8zm7.6-0.6h-3.9q0.1 0.8 0.6 1.2 0.5 0.5 1.3 0.5 0.7 0 1.5-0.5l0.3 0.6q-0.9 0.7-2 0.7-1.3 0-2.1-0.8-0.7-0.8-0.7-2.1 0-1.2 0.8-2.1 0.7-0.8 1.7-0.8 1.3 0 1.9 1 0.6 0.8 0.6 1.9zm-3.9-0.8h2.8q0-0.8-0.4-1.2-0.3-0.4-1-0.4-0.6 0-1 0.4-0.4 0.5-0.4 1.2zm6.3-1.7h0.1q0.6-0.7 1.7-0.7 1.3 0 1.7 1 0.7-1 2-1 2 0 2 2.3v3.3h-1v-3.1q0-0.9-0.4-1.2-0.3-0.4-1-0.4-0.8 0-1.4 0.6 0.1 0.4 0.1 0.8v3.3h-1v-3.1q0-0.9-0.4-1.2-0.3-0.4-1-0.4-0.4 0-0.7 0.2-0.4 0.1-0.6 0.4v4.1h-1v-5.5h0.8zm13.9 2.6h-3.8q0.1 0.8 0.6 1.2 0.5 0.5 1.2 0.5 0.8 0 1.5-0.5l0.4 0.6q-0.9 0.7-2 0.7-1.4 0-2.1-0.8-0.8-0.8-0.8-2.1 0-1.2 0.8-2.1 0.7-0.8 1.8-0.8 1.2 0 1.9 1 0.5 0.8 0.5 1.9zm-3.8-0.8h2.8q0-0.8-0.4-1.2-0.4-0.4-1-0.4-0.6 0-1 0.4-0.4 0.5-0.4 1.2zm6.3-1.7h0.1q0.6-0.7 1.7-0.7 2 0 2 2.3v3.3h-1.1v-3.2q0-1.5-1.3-1.5-0.4 0-0.8 0.2-0.3 0.1-0.5 0.4v4.1h-1.1v-5.5h0.9zm6.9 0.3v3.2q0 0.8 0.6 0.8 0.4 0 0.8-0.2l0.4 0.5q-0.7 0.5-1.5 0.5-1.4 0-1.4-1.5v-3.3h-0.8v-0.8h0.9v-1.1l1-0.6v1.7h1.6v0.8zm-72.1 17.8q-1.2 0-2-0.9-0.7-0.8-0.7-2 0-1.3 0.9-2.1 0.7-0.8 1.8-0.8 1.3 0 2 1 0.7 0.8 0.7 1.9 0 1.3-0.9 2.2-0.7 0.7-1.8 0.7zm0-0.8q0.7 0 1.1-0.6 0.5-0.5 0.5-1.5 0-0.9-0.5-1.5-0.4-0.6-1.1-0.6-0.7 0-1.1 0.6-0.5 0.6-0.5 1.5 0 1 0.5 1.6 0.4 0.5 1.1 0.5zm8.8-4h-3.2v4.6h-1.1v-4.6h-0.8v-0.8h0.8v-0.8q0-1.5 1.4-1.5 0.8 0 1.5 0.5l-0.4 0.5q-0.4-0.2-0.8-0.2-0.6 0-0.6 0.8v0.7h3.2v-0.8q0-1.5 1.4-1.5 0.8 0 1.5 0.5l-0.4 0.5q-0.4-0.2-0.8-0.2-0.6 0-0.6 0.8v0.7h3.9v5.4h-1v-4.6h-2.9v4.6h-1.1zm3.9-2.5q0-0.2 0.2-0.4 0.2-0.2 0.4-0.2 0.3 0 0.5 0.2 0.2 0.2 0.2 0.4 0 0.3-0.2 0.5-0.2 0.1-0.5 0.1-0.2 0-0.4-0.1-0.2-0.2-0.2-0.5zm7.4 6.6q-0.7 0.7-1.9 0.7-1.4 0-2.1-0.9-0.7-0.8-0.7-2 0-1.3 0.9-2.1 0.7-0.7 1.8-0.7 1.1 0 1.9 0.6l-0.3 0.6q-0.6-0.5-1.4-0.5-0.8 0-1.3 0.6-0.5 0.6-0.5 1.6 0 0.9 0.5 1.5 0.6 0.5 1.4 0.5 0.8 0 1.3-0.5zm6.1-1.8h-3.8q0.1 0.8 0.6 1.2 0.4 0.5 1.2 0.5 0.8 0 1.5-0.5l0.3 0.6q-0.8 0.7-2 0.7-1.3 0-2.1-0.8-0.7-0.8-0.7-2.1 0-1.2 0.8-2.1 0.7-0.7 1.7-0.7 1.3 0 2 0.9 0.5 0.8 0.5 1.9zm-3.9-0.8h2.9q-0.1-0.8-0.4-1.2-0.4-0.4-1-0.4-0.6 0-1 0.4-0.4 0.5-0.5 1.2zm8.4-1.3q-0.6-0.3-1.3-0.3-0.4 0-0.7 0.2-0.2 0.2-0.2 0.5 0 0.3 0.2 0.5 0.2 0.2 0.8 0.4 1 0.2 1.3 0.5 0.5 0.4 0.5 1.2 0 0.7-0.5 1.2-0.5 0.4-1.4 0.4-1.2 0-2-0.6l0.3-0.6q0.7 0.4 1.5 0.4 1.1 0 1.1-0.8 0-0.4-0.2-0.6-0.2-0.1-0.9-0.3-1.8-0.4-1.8-1.7 0-0.7 0.6-1.1 0.5-0.4 1.3-0.4 1 0 1.7 0.6z"/>
	<path id="Layer" fill-rule="evenodd" class="s0" d="m249.4 94.4v7.6h-1.1v-6.4l-1.4 0.8-0.5-0.8 1.9-1.2zm4.4 7.7q-1.3 0-2.1-1.2-0.6-1.1-0.6-2.7 0-1.8 0.8-2.9 0.8-1 1.9-1 1.4 0 2.2 1.3 0.6 1.1 0.6 2.6 0 1.9-0.8 3-0.8 0.9-2 0.9zm0-6.9q-0.7 0-1.1 0.8-0.5 0.7-0.5 2.1 0 1.5 0.5 2.3 0.4 0.8 1.1 0.8 0.8 0 1.2-0.8 0.5-0.8 0.5-2.3 0-1.4-0.5-2.2-0.4-0.7-1.2-0.7zm6.8 6.9q-1.4 0-2.1-1.2-0.7-1.1-0.7-2.7 0-1.8 0.9-2.9 0.8-1 1.9-1 1.4 0 2.2 1.3 0.6 1.1 0.6 2.6 0 1.9-0.8 3-0.8 0.9-2 0.9zm0-6.9q-0.7 0-1.2 0.8-0.4 0.7-0.4 2.1 0 1.5 0.5 2.3 0.4 0.8 1.1 0.8 0.8 0 1.2-0.8 0.4-0.8 0.4-2.3 0-1.4-0.4-2.2-0.4-0.7-1.2-0.7zm7.2-0.8h4.7v0.9h-3.5v2.3h2.9v0.9h-2.9v2.6h3.6v0.9h-4.8zm7.3 2.7q0.6-0.7 1.7-0.7 1.4 0 1.8 1 0.7-1 2-1 1.9 0 1.9 2.3v3.3h-1v-3q0-0.9-0.3-1.3-0.3-0.4-1.1-0.4-0.7 0-1.3 0.7 0 0.3 0 0.7v3.3h-1v-3.1q0-0.9-0.3-1.2-0.4-0.4-1.1-0.4-0.3 0-0.7 0.2-0.4 0.2-0.6 0.4v4.1h-1v-5.5h0.9zm9.2-0.5h0.8l0.2 0.6q0.6-0.7 1.6-0.7 1.2 0 1.9 0.9 0.6 0.7 0.6 1.8 0 1.5-0.8 2.3-0.7 0.7-1.7 0.7-1 0-1.5-0.6v2.6h-1.1zm1.1 1.7v2.2q0.1 0.4 0.4 0.6 0.4 0.3 0.9 0.3 0.7 0 1.2-0.6 0.4-0.5 0.4-1.5 0-1-0.5-1.6-0.4-0.4-1-0.4-0.5 0-0.9 0.3-0.4 0.3-0.5 0.7zm6.6-4v7.8h-1.1v-7.2zm4.2 7.8q-1.2 0-2-0.9-0.7-0.8-0.7-1.9 0-1.3 0.8-2.1 0.8-0.8 1.9-0.8 1.3 0 2 1 0.6 0.8 0.6 1.9 0 1.3-0.8 2.1-0.7 0.7-1.8 0.7zm0-0.8q0.7 0 1.1-0.5 0.5-0.6 0.5-1.5 0-1-0.5-1.6-0.4-0.5-1.1-0.5-0.7 0-1.1 0.6-0.5 0.6-0.5 1.5 0 1 0.5 1.6 0.4 0.4 1.1 0.4zm8.7-4.7l-2.3 6.2q-0.6 1.5-1.6 1.5-0.6 0-1.3-0.5l0.3-0.5q0.4 0.2 0.7 0.2 0.6 0 0.9-0.8l0.3-0.7h-0.3l-2-5.4h1.1l1.5 4.3 1.6-4.3zm5.6 3h-3.8q0.1 0.8 0.6 1.3 0.5 0.4 1.2 0.4 0.8 0 1.5-0.4l0.4 0.6q-0.9 0.6-2 0.6-1.3 0-2.1-0.8-0.7-0.7-0.8-2 0.1-1.3 0.8-2.1 0.7-0.8 1.8-0.8 1.2 0 1.9 1 0.5 0.7 0.5 1.9zm-3.8-0.8h2.8q0-0.8-0.4-1.2-0.4-0.5-1-0.5-0.6 0-1 0.5-0.4 0.4-0.4 1.2zm10 0.8h-3.9q0.1 0.8 0.6 1.2 0.5 0.5 1.3 0.5 0.7 0 1.5-0.5l0.3 0.6q-0.8 0.7-2 0.7-1.3 0-2.1-0.8-0.7-0.8-0.7-2.1 0-1.2 0.8-2.1 0.7-0.7 1.7-0.7 1.3 0 1.9 0.9 0.6 0.8 0.6 1.9zm-3.9-0.8h2.8q0-0.8-0.4-1.2-0.3-0.4-1-0.4-0.6 0-0.9 0.4-0.4 0.5-0.5 1.2zm8.4-1.3q-0.6-0.3-1.4-0.3-0.4 0-0.6 0.2-0.2 0.2-0.2 0.5 0 0.3 0.2 0.5 0.2 0.2 0.8 0.4 0.9 0.2 1.3 0.5 0.5 0.4 0.5 1.2 0 0.7-0.5 1.2-0.6 0.4-1.5 0.4-1.1 0-2-0.6l0.4-0.6q0.7 0.4 1.5 0.4 1.1 0 1.1-0.8 0-0.4-0.2-0.6-0.3-0.1-0.9-0.3-1.8-0.4-1.8-1.7 0-0.7 0.5-1.1 0.6-0.4 1.4-0.4 1 0 1.7 0.6zm-74.6 12.8v-0.8h0.8v-0.8q0-1.5 1.4-1.5 0.8 0 1.5 0.5l-0.4 0.5q-0.4-0.2-0.8-0.2-0.6 0-0.6 0.8v0.7h1.4v0.8h-1.4v4.6h-1.1v-4.6zm6.9 4.8q-1.3 0-2-1-0.7-0.8-0.7-1.9 0-1.3 0.8-2.1 0.7-0.8 1.8-0.8 1.3 0 2.1 1 0.6 0.8 0.6 1.9 0 1.3-0.8 2.1-0.8 0.8-1.8 0.8zm-0.1-0.9q0.8 0 1.2-0.5 0.4-0.6 0.4-1.5 0-1-0.5-1.5-0.4-0.6-1.1-0.6-0.7 0-1.1 0.6-0.4 0.6-0.4 1.5 0 1 0.5 1.6 0.4 0.4 1 0.4zm5.2-4.2q0.6-0.7 1.4-0.7 0.9 0 1.4 0.8l-0.9 0.5q-0.4-0.4-0.8-0.4-0.6 0-1.1 0.6v4.1h-1v-5.4h0.9zm4.7 0h0.1q0.6-0.7 1.7-0.7 1.4 0 1.8 1 0.7-1 1.9-1 2 0 2 2.3v3.3h-1v-3.1q0-0.9-0.3-1.2-0.4-0.4-1.1-0.4-0.7 0-1.4 0.6 0.1 0.4 0.1 0.8v3.3h-1v-3.1q0-0.9-0.4-1.2-0.3-0.4-1-0.4-0.4 0-0.7 0.2-0.4 0.1-0.6 0.4v4.1h-1v-5.5h0.8zm14 2.6h-3.9q0.1 0.8 0.6 1.2 0.5 0.5 1.2 0.5 0.8 0 1.6-0.5l0.3 0.6q-0.9 0.7-2 0.7-1.3 0-2.1-0.8-0.7-0.8-0.7-2.1 0-1.2 0.7-2.1 0.7-0.8 1.8-0.8 1.2 0 1.9 1 0.6 0.8 0.6 1.9zm-3.9-0.8h2.8q0-0.8-0.4-1.2-0.4-0.4-1-0.4-0.6 0-1 0.4-0.4 0.5-0.4 1.2zm9.3 3.2l-0.2-0.6q-0.5 0.7-1.6 0.7-1.2 0-1.9-0.9-0.6-0.7-0.6-1.8 0-1.5 0.9-2.3 0.7-0.7 1.7-0.7 0.9 0 1.4 0.6v-2.2l1.1-0.5v7.7zm-0.3-1.7v-2.2q0-0.4-0.4-0.6-0.4-0.3-0.9-0.3-0.7 0-1.1 0.6-0.5 0.5-0.5 1.4 0 1.1 0.5 1.6 0.4 0.5 1.1 0.5 0.4 0 0.8-0.3 0.4-0.3 0.5-0.7z"/>
	<path id="Layer" fill-rule="evenodd" class="s0" d="m248.6 67.4h-1.1v-0.9h1.1q1.3 0 1.3-1.2 0-0.5-0.4-0.8-0.3-0.3-0.9-0.3-0.7 0-1.5 0.6l-0.4-0.7q0.9-0.8 2.1-0.8 1 0 1.6 0.5 0.6 0.6 0.6 1.5 0 0.6-0.3 1-0.3 0.4-0.8 0.6 1.4 0.4 1.4 1.9 0 1.2-0.9 1.9-0.7 0.4-1.6 0.4-1.2 0-2.2-0.8l0.4-0.7q0.8 0.6 1.7 0.6 0.7 0 1.1-0.4 0.4-0.4 0.4-1 0-1.4-1.6-1.4zm6.7 3.7q-1.4 0-2.1-1.2-0.7-1.1-0.7-2.7 0-1.8 0.9-2.9 0.7-1 1.9-1 1.3 0 2.1 1.3 0.7 1.1 0.7 2.6 0 1.9-0.8 3-0.8 0.9-2 0.9zm0-6.9q-0.8 0-1.2 0.8-0.4 0.7-0.4 2.1 0 1.5 0.5 2.3 0.4 0.8 1.1 0.8 0.8 0 1.2-0.8 0.4-0.8 0.4-2.3 0-1.4-0.4-2.2-0.4-0.7-1.2-0.7zm6.8 6.9q-1.4 0-2.1-1.2-0.7-1.1-0.7-2.7 0-1.8 0.9-2.9 0.7-1 1.9-1 1.3 0 2.1 1.3 0.7 1.1 0.7 2.6 0 1.9-0.8 3-0.8 0.9-2 0.9zm0-6.9q-0.8 0-1.2 0.8-0.4 0.7-0.4 2.1 0 1.5 0.4 2.3 0.5 0.8 1.2 0.8 0.8 0 1.2-0.8 0.4-0.8 0.4-2.3 0-1.4-0.4-2.2-0.5-0.7-1.2-0.7zm8.1 1.9h0.1q0.6-0.7 1.7-0.7 1.3 0 1.7 1 0.7-1 2-1 2 0 2 2.3v3.3h-1v-3q0-0.9-0.4-1.3-0.3-0.4-1-0.4-0.8 0-1.4 0.7 0.1 0.3 0.1 0.7v3.3h-1v-3.1q0-0.8-0.4-1.2-0.3-0.4-1-0.4-0.4 0-0.8 0.2-0.3 0.2-0.5 0.4v4.1h-1v-5.4h0.8zm11.6 5q-1.2 0-2-0.9-0.7-0.8-0.7-2 0-1.3 0.8-2.1 0.8-0.7 1.9-0.7 1.3 0 2 0.9 0.6 0.8 0.6 1.9 0 1.4-0.8 2.2-0.7 0.7-1.8 0.7zm0-0.8q0.7 0 1.1-0.6 0.4-0.5 0.4-1.5 0-0.9-0.4-1.5-0.4-0.5-1.1-0.5-0.7 0-1.1 0.5-0.5 0.6-0.5 1.5 0 1.1 0.5 1.6 0.4 0.5 1.1 0.5zm5.1-4.2h0.1q0.6-0.7 1.7-0.7 2 0 2 2.3v3.3h-1.1v-3.2q0-1.5-1.3-1.5-0.4 0-0.8 0.1-0.3 0.2-0.5 0.5v4.1h-1v-5.5h0.8zm6.7-0.5v5.4h-1.1v-5.4zm-1.1-1.7q0-0.3 0.2-0.4 0.2-0.2 0.4-0.2 0.3 0 0.4 0.2 0.2 0.1 0.2 0.4 0 0.3-0.1 0.4-0.2 0.2-0.5 0.2-0.2 0-0.4-0.2-0.2-0.1-0.2-0.4zm4.4 2.5v3.2q0 0.8 0.6 0.8 0.4 0 0.8-0.3l0.4 0.6q-0.7 0.5-1.4 0.5-1.4 0-1.4-1.5v-3.3h-0.8v-0.8h0.8v-1.1l1-0.6v1.7h1.7v0.8zm5.4 4.8q-1.3 0-2-1-0.7-0.8-0.7-1.9 0-1.3 0.8-2.1 0.7-0.8 1.9-0.8 1.2 0 2 1 0.6 0.8 0.6 1.9 0 1.3-0.8 2.1-0.8 0.8-1.8 0.8zm-0.1-0.9q0.8 0 1.2-0.5 0.4-0.6 0.4-1.5 0-1-0.4-1.5-0.5-0.6-1.1-0.6-0.7 0-1.2 0.6-0.4 0.6-0.4 1.5 0 1 0.5 1.6 0.4 0.4 1 0.4zm5.2-4.2q0.6-0.7 1.4-0.7 0.9 0 1.4 0.8l-0.9 0.5q-0.4-0.4-0.8-0.4-0.6 0-1.1 0.6v4.1h-1v-5.4h0.9zm4.8-0.6v5.5h-1v-5.5zm-1.1-1.6q0-0.3 0.2-0.5 0.2-0.2 0.4-0.2 0.3 0 0.4 0.2 0.2 0.2 0.2 0.5 0 0.2-0.1 0.4-0.2 0.2-0.5 0.2-0.3 0-0.4-0.2-0.2-0.2-0.2-0.4zm4 2.2q0.6-0.7 1.7-0.7 2 0 2 2.3v3.3h-1v-3.2q0-1.5-1.3-1.5-0.4 0-0.8 0.2-0.4 0.1-0.6 0.4v4.1h-1v-5.5h0.9zm9.2 4.4q-0.5 0.7-1.5 0.7-1.2 0-1.9-0.9-0.6-0.7-0.6-1.9 0-1.5 0.9-2.3 0.7-0.7 1.7-0.7 0.4 0 0.9 0.3 0.5 0.2 0.6 0.5l0.2-0.6h0.8v4.9q0 2.8-2.5 2.8-1.1 0-2.1-0.8l0.3-0.5q0.8 0.5 1.7 0.5 1.5 0 1.5-2zm0-1.2v-2.1q0-0.4-0.4-0.7-0.4-0.3-0.9-0.3-0.7 0-1.2 0.6-0.4 0.6-0.4 1.5 0 1 0.5 1.6 0.4 0.5 1 0.5 0.5 0 0.9-0.3 0.4-0.3 0.5-0.8zm-76.3 9.3v5.4h-1.1v-5.4zm-1.1-1.7q0-0.2 0.2-0.4 0.2-0.2 0.4-0.2 0.3 0 0.5 0.2 0.2 0.2 0.2 0.4 0 0.3-0.2 0.5-0.2 0.1-0.5 0.1-0.2 0-0.4-0.1-0.2-0.2-0.2-0.5zm4 2.2h0.1q0.6-0.7 1.7-0.7 2 0 2 2.4v3.2h-1.1v-3.1q0-1.6-1.3-1.6-0.4 0-0.8 0.2-0.3 0.2-0.5 0.4v4.1h-1.1v-5.4h0.9zm8.5 0.4q-0.6-0.3-1.3-0.3-0.4 0-0.6 0.2-0.2 0.2-0.2 0.5 0 0.3 0.2 0.5 0.2 0.2 0.8 0.4 0.9 0.2 1.3 0.5 0.5 0.5 0.5 1.2 0 0.8-0.6 1.2-0.5 0.4-1.4 0.4-1.1 0-2-0.6l0.4-0.6q0.7 0.4 1.5 0.4 1.1 0 1.1-0.8 0-0.4-0.3-0.5-0.2-0.2-0.8-0.4-1.8-0.4-1.8-1.7 0-0.6 0.5-1.1 0.6-0.4 1.3-0.4 1.1 0 1.8 0.6zm3.6-0.2v3.2q0 0.8 0.6 0.8 0.4 0 0.8-0.3l0.3 0.6q-0.6 0.5-1.4 0.5-1.4 0-1.4-1.5v-3.3h-0.8v-0.8h0.8v-1.1l1.1-0.6v1.7h1.6v0.8zm7.3 4.6h-0.8l-0.1-0.5q-0.6 0.7-1.7 0.7-0.9 0-1.4-0.5-0.4-0.4-0.4-1.2 0-0.9 0.7-1.4 0.7-0.5 2.1-0.5h0.6v-0.1q0-1.2-1.2-1.2-0.8 0-1.5 0.5l-0.3-0.6q0.9-0.8 2.1-0.8 1.9 0 1.9 2.4zm-1-2.8h-0.5q-1.9 0-1.9 1.1 0 0.5 0.3 0.7 0.3 0.3 0.7 0.3 0.5 0 0.9-0.2 0.4-0.3 0.5-0.6zm3.9-5v7.7h-1v-7.2zm2.9 0v7.8h-1.1v-7.2zm6 7.7h-0.8l-0.1-0.5q-0.6 0.7-1.7 0.7-0.9 0-1.4-0.5-0.5-0.5-0.5-1.2 0-0.9 0.8-1.4 0.7-0.5 2.1-0.5h0.6v-0.1q0-1.2-1.2-1.2-0.9 0-1.5 0.5l-0.4-0.6q1-0.8 2.2-0.8 1.9 0 1.9 2.3zm-1-2.7h-0.5q-1.9 0-1.9 1.1 0 0.5 0.3 0.7 0.3 0.3 0.7 0.3 0.5 0 0.9-0.2 0.4-0.3 0.5-0.6zm4.3-1.9v3.2q0 0.8 0.6 0.8 0.4 0 0.8-0.3l0.3 0.6q-0.6 0.5-1.4 0.5-1.4 0-1.4-1.6v-3.2h-0.8v-0.8h0.8v-1.2l1.1-0.5v1.7h1.6v0.8zm4.3-0.8v5.4h-1.1v-5.4zm-1.1-1.7q0-0.3 0.2-0.5 0.2-0.1 0.4-0.1 0.3 0 0.5 0.1 0.2 0.2 0.2 0.5 0 0.2-0.2 0.4-0.2 0.2-0.5 0.2-0.2 0-0.4-0.2-0.2-0.2-0.2-0.4zm5.3 7.3q-1.2 0-2-1-0.6-0.8-0.6-1.9 0-1.3 0.8-2.1 0.7-0.8 1.8-0.8 1.3 0 2.1 1 0.6 0.8 0.6 1.9 0 1.3-0.9 2.1-0.7 0.8-1.8 0.8zm0-0.9q0.7 0 1.1-0.5 0.5-0.6 0.5-1.5 0-1-0.5-1.6-0.4-0.5-1.1-0.5-0.7 0-1.1 0.6-0.4 0.6-0.4 1.5 0 1 0.4 1.6 0.5 0.4 1.1 0.4zm5.1-4.2h0.1q0.6-0.7 1.7-0.7 2 0 2 2.4v3.2h-1v-3.2q0-1.5-1.4-1.5-0.3 0-0.7 0.2-0.4 0.2-0.6 0.4v4.1h-1v-5.4h0.8zm8.6 0.4q-0.6-0.3-1.3-0.3-0.4 0-0.7 0.2-0.2 0.1-0.2 0.5 0 0.3 0.2 0.5 0.2 0.2 0.9 0.3 0.9 0.3 1.2 0.6 0.5 0.4 0.5 1.2 0 0.7-0.5 1.2-0.5 0.4-1.4 0.4-1.2 0-2-0.6l0.3-0.6q0.7 0.4 1.5 0.4 1.1 0 1.1-0.8 0-0.4-0.2-0.6-0.2-0.2-0.9-0.3-1.7-0.5-1.7-1.7 0-0.7 0.5-1.1 0.5-0.4 1.3-0.4 1 0 1.8 0.5z"/>
	<path id="Layer" fill-rule="evenodd" class="s0" d="m246.6 40v-1l1.9-2.1q0.9-1 1.2-1.5 0.3-0.5 0.3-1.1 0-0.5-0.4-0.8-0.3-0.3-0.9-0.3-0.8 0-1.6 0.5l-0.4-0.6q1-0.9 2.2-0.9 1 0 1.6 0.7 0.7 0.5 0.7 1.4 0 0.6-0.3 1.2-0.3 0.5-1 1.3l-2 2.3h3.1v0.9zm8.5 0.1q-1.4 0-2.1-1.2-0.7-1.1-0.7-2.7 0-1.8 0.9-2.9 0.7-1 1.9-1 1.3 0 2.2 1.3 0.6 1.1 0.6 2.6 0 1.9-0.8 3-0.8 0.9-2 0.9zm0-6.9q-0.8 0-1.2 0.8-0.4 0.7-0.4 2.1 0 1.5 0.5 2.3 0.4 0.8 1.1 0.8 0.8 0 1.2-0.8 0.4-0.8 0.4-2.3 0-1.4-0.4-2.2-0.4-0.7-1.2-0.7zm6.8 6.9q-1.4 0-2.1-1.2-0.7-1.1-0.7-2.7 0-1.8 0.9-2.9 0.7-1 1.9-1 1.3 0 2.1 1.3 0.7 1.1 0.7 2.6 0 1.9-0.8 3-0.8 0.9-2 0.9zm0-6.9q-0.8 0-1.2 0.8-0.4 0.7-0.4 2.1 0 1.5 0.5 2.3 0.4 0.8 1.1 0.8 0.8 0 1.2-0.8 0.4-0.8 0.4-2.3 0-1.4-0.4-2.2-0.5-0.7-1.2-0.7zm8.1 1.9h0.1q0.6-0.7 1.7-0.7 1.3 0 1.7 1 0.7-1 2-1 2 0 2 2.3v3.3h-1v-3q0-0.9-0.4-1.3-0.3-0.4-1-0.4-0.8 0-1.4 0.7 0.1 0.3 0.1 0.7v3.3h-1v-3.1q0-0.8-0.4-1.2-0.3-0.4-1-0.4-0.4 0-0.8 0.2-0.3 0.2-0.5 0.4v4.1h-1v-5.4h0.8zm11.6 5q-1.2 0-2-0.9-0.7-0.8-0.7-2 0-1.3 0.8-2.1 0.8-0.7 1.9-0.7 1.3 0 2 0.9 0.6 0.8 0.6 1.9 0 1.4-0.8 2.2-0.7 0.7-1.8 0.7zm0-0.8q0.7 0 1.1-0.6 0.5-0.5 0.5-1.5 0-0.9-0.5-1.5-0.4-0.5-1.1-0.5-0.7 0-1.1 0.5-0.5 0.6-0.5 1.5 0 1.1 0.5 1.6 0.4 0.5 1.1 0.5zm5.1-4.2h0.1q0.6-0.7 1.7-0.7 2 0 2 2.3v3.3h-1v-3.2q0-1.5-1.4-1.5-0.4 0-0.7 0.1-0.4 0.2-0.6 0.5v4.1h-1v-5.5h0.8zm6.7-0.5v5.4h-1.1v-5.4zm-1.1-1.7q0-0.3 0.2-0.4 0.2-0.2 0.4-0.2 0.3 0 0.5 0.2 0.1 0.1 0.1 0.4 0 0.3-0.1 0.4-0.2 0.2-0.5 0.2-0.2 0-0.4-0.2-0.2-0.1-0.2-0.4zm4.4 2.5v3.2q0 0.8 0.6 0.8 0.4 0 0.9-0.3l0.3 0.6q-0.6 0.5-1.4 0.5-1.4 0-1.4-1.5v-3.3h-0.8v-0.8h0.8v-1.1l1-0.6v1.7h1.7v0.8zm5.4 4.8q-1.3 0-2-1-0.7-0.8-0.7-1.9 0-1.3 0.8-2.1 0.7-0.8 1.9-0.8 1.3 0 2 1 0.6 0.8 0.6 1.9 0 1.3-0.8 2.1-0.8 0.8-1.8 0.8zm-0.1-0.9q0.8 0 1.2-0.5 0.4-0.6 0.4-1.5 0-1-0.4-1.5-0.5-0.6-1.1-0.6-0.7 0-1.2 0.6-0.4 0.6-0.4 1.5 0 1 0.5 1.6 0.4 0.4 1 0.4zm5.2-4.2h0.1q0.5-0.7 1.3-0.7 0.9 0 1.4 0.8l-0.9 0.5q-0.4-0.4-0.8-0.4-0.6 0-1 0.6v4.1h-1.1v-5.4h0.9zm4.9-0.6v5.5h-1.1v-5.5zm-1.1-1.6q0-0.3 0.2-0.5 0.2-0.2 0.4-0.2 0.3 0 0.4 0.2 0.2 0.2 0.2 0.5 0 0.2-0.1 0.4-0.2 0.2-0.5 0.2-0.2 0-0.4-0.2-0.2-0.2-0.2-0.4zm4 2.2q0.6-0.7 1.7-0.7 2 0 2 2.3v3.3h-1v-3.2q0-1.5-1.3-1.5-0.4 0-0.8 0.2-0.4 0.1-0.6 0.4v4.1h-1v-5.5h0.9zm9.2 4.4q-0.5 0.7-1.5 0.7-1.2 0-1.9-0.9-0.6-0.7-0.6-1.9 0-1.5 0.9-2.3 0.7-0.7 1.7-0.7 0.4 0 0.9 0.3 0.5 0.2 0.7 0.5l0.1-0.6h0.8v4.9q0 2.8-2.5 2.8-1.1 0-2.1-0.8l0.4-0.5q0.7 0.5 1.6 0.5 1.5 0 1.5-2zm0-1.2v-2.1q0-0.4-0.4-0.7-0.4-0.3-0.9-0.3-0.7 0-1.2 0.6-0.4 0.6-0.4 1.5 0 1 0.5 1.6 0.4 0.5 1.1 0.5 0.4 0 0.8-0.3 0.4-0.3 0.5-0.8zm-76.1 9.3v5.4h-1.1v-5.4zm-1.1-1.7q0-0.2 0.2-0.4 0.2-0.2 0.4-0.2 0.3 0 0.5 0.2 0.2 0.2 0.2 0.4 0 0.3-0.2 0.5-0.2 0.1-0.5 0.1-0.2 0-0.4-0.1-0.2-0.2-0.2-0.5zm4 2.2h0.1q0.6-0.7 1.7-0.7 2 0 2 2.4v3.2h-1.1v-3.1q0-1.6-1.3-1.6-0.4 0-0.8 0.2-0.4 0.2-0.5 0.4v4.1h-1.1v-5.4h0.9zm8.5 0.4q-0.6-0.3-1.3-0.3-0.4 0-0.6 0.2-0.3 0.2-0.3 0.5 0 0.3 0.3 0.5 0.2 0.2 0.8 0.4 0.9 0.2 1.3 0.5 0.5 0.5 0.5 1.2 0 0.8-0.6 1.2-0.5 0.4-1.4 0.4-1.1 0-2-0.6l0.4-0.6q0.6 0.4 1.5 0.4 1.1 0 1.1-0.8 0-0.4-0.3-0.5-0.2-0.2-0.8-0.4-1.8-0.4-1.8-1.7 0-0.6 0.5-1.1 0.5-0.4 1.3-0.4 1 0 1.8 0.6zm3.6-0.2l-0.1 3.2q0 0.8 0.6 0.8 0.5 0 0.9-0.3l0.3 0.6q-0.6 0.5-1.4 0.5-1.4 0-1.4-1.5v-3.3h-0.8v-0.8h0.8v-1.1l1.1-0.6v1.7h1.6v0.8zm7.3 4.6h-0.8l-0.1-0.5q-0.6 0.7-1.7 0.7-0.9 0-1.4-0.5-0.5-0.4-0.5-1.2 0-0.9 0.8-1.4 0.7-0.5 2.1-0.5h0.6v-0.1q0-1.2-1.2-1.2-0.9 0-1.5 0.5l-0.4-0.6q1-0.8 2.2-0.8 1.9 0 1.9 2.4zm-1-2.8h-0.5q-1.9 0-1.9 1.1 0 0.5 0.3 0.7 0.3 0.3 0.7 0.3 0.5 0 0.9-0.2 0.4-0.3 0.5-0.6zm3.9-5v7.7h-1.1v-7.2zm3 0v7.8h-1.1v-7.2zm6 7.7h-0.8l-0.1-0.5q-0.6 0.7-1.8 0.7-0.8 0-1.3-0.5-0.5-0.5-0.5-1.2 0-0.9 0.8-1.4 0.7-0.5 2.1-0.5h0.6v-0.1q0-1.2-1.3-1.2-0.8 0-1.5 0.5l-0.3-0.6q1-0.8 2.2-0.8 1.9 0 1.9 2.3zm-1-2.7h-0.5q-1.9 0-1.9 1.1 0 0.5 0.3 0.7 0.3 0.3 0.7 0.3 0.5 0 0.9-0.2 0.4-0.3 0.5-0.6zm4.3-1.9l-0.1 3.2q0 0.8 0.6 0.8 0.5 0 0.9-0.3l0.3 0.6q-0.6 0.5-1.4 0.5-1.4 0-1.4-1.6v-3.2h-0.8v-0.8h0.8v-1.2l1.1-0.5v1.7h1.6v0.8zm4.3-0.8v5.4h-1.1v-5.4zm-1.1-1.7q0-0.3 0.2-0.5 0.2-0.1 0.4-0.1 0.3 0 0.5 0.1 0.1 0.2 0.1 0.5 0 0.2-0.1 0.4-0.2 0.2-0.5 0.2-0.2 0-0.4-0.2-0.2-0.2-0.2-0.4zm5.3 7.3q-1.2 0-2-1-0.6-0.8-0.6-1.9 0-1.3 0.8-2.1 0.7-0.8 1.8-0.8 1.3 0 2.1 1 0.6 0.8 0.6 1.9 0 1.3-0.9 2.1-0.7 0.8-1.8 0.8zm0-0.9q0.7 0 1.1-0.5 0.5-0.6 0.5-1.5 0-1-0.5-1.6-0.4-0.5-1.1-0.5-0.7 0-1.1 0.6-0.4 0.6-0.4 1.5 0 1 0.4 1.6 0.5 0.4 1.1 0.4zm5.1-4.2h0.1q0.6-0.7 1.7-0.7 2 0 2 2.4v3.2h-1v-3.2q0-1.5-1.4-1.5-0.3 0-0.7 0.2-0.4 0.2-0.6 0.4v4.1h-1v-5.4h0.8zm8.6 0.4q-0.6-0.3-1.3-0.3-0.4 0-0.7 0.2-0.2 0.1-0.2 0.5 0 0.3 0.2 0.5 0.2 0.2 0.8 0.3 1 0.3 1.3 0.6 0.5 0.4 0.5 1.2 0 0.7-0.5 1.2-0.5 0.4-1.4 0.4-1.2 0-2-0.6l0.3-0.6q0.7 0.4 1.5 0.4 1.1 0 1.1-0.8 0-0.4-0.2-0.6-0.2-0.2-0.9-0.3-1.8-0.5-1.8-1.7 0-0.7 0.6-1.1 0.5-0.4 1.3-0.4 1 0 1.7 0.5z"/>
	<path id="Layer" fill-rule="evenodd" class="s0" d="m105 111v-7.6h4.6v0.9h-3.5v2.3h3v0.9h-3v3.5zm7.9 0.1q-1.2 0-2-0.9-0.6-0.8-0.6-1.9 0-1.3 0.8-2.1 0.7-0.8 1.8-0.8 1.3 0 2.1 1 0.6 0.7 0.6 1.9 0 1.3-0.9 2.1-0.7 0.7-1.8 0.7zm0-0.8q0.7 0 1.1-0.5 0.5-0.6 0.5-1.5 0-1-0.5-1.6-0.4-0.5-1.1-0.5-0.7 0-1.1 0.6-0.4 0.6-0.4 1.5 0 1 0.4 1.5 0.5 0.5 1.1 0.5zm5.2-4.2q0.6-0.7 1.3-0.7 1 0 1.4 0.8l-0.8 0.5q-0.4-0.4-0.9-0.4-0.6 0-1 0.6v4.1h-1v-5.4h0.9zm4.7 0h0.1q0.6-0.7 1.7-0.7 1.3 0 1.7 0.9 0.7-0.9 2-0.9 2 0 2 2.3v3.3h-1.1v-3.1q0-0.9-0.3-1.3-0.3-0.3-1-0.3-0.8 0-1.4 0.6 0.1 0.4 0.1 0.8v3.3h-1.1v-3.2q0-0.8-0.3-1.2-0.3-0.3-1-0.3-0.4 0-0.8 0.1-0.3 0.2-0.5 0.5v4.1h-1v-5.5h0.8zm10.3-0.5v5.4h-1v-5.4zm-1.1-1.7q0-0.3 0.2-0.4 0.2-0.2 0.4-0.2 0.3 0 0.4 0.2 0.2 0.1 0.2 0.4 0 0.3-0.1 0.4-0.2 0.2-0.5 0.2-0.3 0-0.4-0.2-0.2-0.1-0.2-0.4zm4 2.2q0.6-0.7 1.7-0.7 2 0 2 2.4v3.2h-1v-3.2q0-1.5-1.3-1.5-0.4 0-0.8 0.2-0.4 0.2-0.6 0.4v4.1h-1v-5.4h0.9zm9.2 4.4v-0.1q-0.5 0.7-1.5 0.7-1.2 0-1.9-0.9-0.6-0.7-0.6-1.8 0-1.5 0.9-2.3 0.7-0.7 1.6-0.7 0.5 0 1 0.2 0.5 0.2 0.6 0.5l0.2-0.6h0.8v5q0 2.8-2.5 2.8-1.1 0-2.1-0.8l0.3-0.6q0.8 0.5 1.7 0.5 1.5 0 1.5-1.9zm0-1.2v-2.2q0-0.4-0.4-0.6-0.4-0.3-0.9-0.3-0.7 0-1.2 0.6-0.4 0.5-0.4 1.4 0 1.1 0.5 1.6 0.4 0.5 1 0.5 0.5 0 0.9-0.3 0.4-0.3 0.5-0.7zm7.4-5h-2.3v-0.9h5.9v0.9h-2.5v6.7h-1.1zm8.6 4.3h-3.8q0.1 0.8 0.6 1.2 0.5 0.5 1.2 0.5 0.8 0 1.6-0.5l0.3 0.6q-0.9 0.7-2 0.7-1.3 0-2.1-0.8-0.7-0.8-0.7-2 0-1.3 0.7-2.2 0.7-0.7 1.8-0.7 1.2 0 1.9 0.9 0.5 0.8 0.5 1.9zm-3.8-0.8h2.8q0-0.8-0.4-1.2-0.4-0.4-1-0.4-0.6 0-1 0.4-0.4 0.5-0.4 1.2zm9.5 3.2h-0.8l-0.1-0.6q-0.7 0.7-1.8 0.7-0.8 0-1.3-0.4-0.5-0.5-0.5-1.3 0-0.9 0.7-1.4 0.8-0.5 2.1-0.5h0.7q0-1.3-1.3-1.3-0.8 0-1.5 0.6l-0.3-0.6q0.9-0.8 2.1-0.8 2 0 2 2.3zm-1.1-2.7h-0.5q-1.8 0-1.8 1.1 0 0.4 0.2 0.7 0.3 0.3 0.8 0.3 0.4 0 0.8-0.3 0.4-0.2 0.5-0.6zm3.9-2.1q0.6-0.7 1.7-0.7 1.4 0 1.8 1 0.7-1 1.9-1 2 0 2 2.3v3.3h-1v-3.1q0-0.9-0.3-1.2-0.4-0.4-1.1-0.4-0.7 0-1.4 0.6 0.1 0.4 0.1 0.8v3.3h-1v-3.1q0-0.9-0.3-1.2-0.4-0.4-1.1-0.4-0.4 0-0.7 0.2-0.4 0.1-0.6 0.4v4.1h-1v-5.5h0.9z"/>
	<path id="Layer" fill-rule="evenodd" class="s0" d="m107.4 42.4v7.6h-1.1v-6.4l-1.4 0.8-0.5-0.8 1.9-1.2zm4.4 7.7q-1.3 0-2.1-1.2-0.6-1.1-0.6-2.7 0-1.8 0.8-2.9 0.8-1 1.9-1 1.4 0 2.2 1.3 0.6 1.1 0.6 2.6 0 1.9-0.8 3-0.8 0.9-2 0.9zm0-6.9q-0.7 0-1.1 0.8-0.5 0.7-0.5 2.1 0 1.5 0.5 2.3 0.4 0.8 1.1 0.8 0.8 0 1.2-0.8 0.5-0.8 0.5-2.3 0-1.4-0.5-2.2-0.4-0.7-1.2-0.7zm8.2 1.9q0.6-0.7 1.7-0.7 1.4 0 1.8 1 0.7-1 2-1 1.9 0 1.9 2.3v3.3h-1v-3q0-0.9-0.3-1.3-0.3-0.4-1.1-0.4-0.7 0-1.3 0.7 0 0.3 0 0.7v3.3h-1v-3.1q0-0.8-0.3-1.2-0.4-0.4-1.1-0.4-0.3 0-0.7 0.2-0.4 0.2-0.6 0.4v4.1h-1v-5.4h0.9zm11.5 5q-1.2 0-2-0.9-0.6-0.8-0.6-2 0-1.3 0.8-2.1 0.7-0.7 1.8-0.7 1.3 0 2.1 0.9 0.6 0.8 0.6 1.9 0 1.4-0.9 2.2-0.7 0.7-1.8 0.7zm0-0.8q0.7 0 1.2-0.6 0.4-0.5 0.4-1.5 0-0.9-0.5-1.5-0.4-0.5-1.1-0.5-0.7 0-1.1 0.5-0.4 0.6-0.4 1.5 0 1.1 0.5 1.6 0.4 0.5 1 0.5zm5.2-4.2q0.6-0.7 1.7-0.7 2 0 2 2.3v3.3h-1v-3.2q0-1.5-1.4-1.5-0.3 0-0.7 0.1-0.4 0.2-0.6 0.5v4.1h-1v-5.5h0.9zm6.6-0.5v5.4h-1v-5.4zm-1.2-1.7q0-0.3 0.2-0.4 0.2-0.2 0.5-0.2 0.2 0 0.4 0.2 0.2 0.1 0.2 0.4 0 0.3-0.2 0.4-0.2 0.2-0.4 0.2-0.3 0-0.5-0.2-0.2-0.1-0.2-0.4zm4.5 2.5v3.2q0 0.8 0.6 0.8 0.4 0 0.8-0.3l0.4 0.6q-0.7 0.5-1.5 0.5-1.4 0-1.4-1.5v-3.3h-0.8v-0.8h0.8v-1.1l1.1-0.6v1.7h1.6v0.8zm5.4 4.8q-1.2 0-2-1-0.7-0.8-0.7-1.9 0-1.3 0.8-2.1 0.8-0.8 1.9-0.8 1.3 0 2 1 0.6 0.8 0.6 1.9 0 1.3-0.8 2.1-0.7 0.8-1.8 0.8zm0-0.9q0.7 0 1.1-0.5 0.5-0.6 0.5-1.5 0-1-0.5-1.5-0.4-0.6-1.1-0.6-0.7 0-1.1 0.6-0.5 0.6-0.5 1.5 0 1 0.5 1.6 0.4 0.4 1.1 0.4zm5.1-4.2h0.1q0.6-0.7 1.3-0.7 1 0 1.4 0.8l-0.8 0.5q-0.4-0.4-0.9-0.4-0.6 0-1 0.6v4.1h-1v-5.4h0.8zm4.9-0.6v5.5h-1v-5.5zm-1.2-1.6q0-0.3 0.2-0.5 0.2-0.2 0.5-0.2 0.2 0 0.4 0.2 0.2 0.2 0.2 0.5 0 0.2-0.2 0.4-0.2 0.2-0.4 0.2-0.3 0-0.5-0.2-0.2-0.2-0.2-0.4zm4 2.2h0.1q0.6-0.7 1.7-0.7 2 0 2 2.3v3.3h-1v-3.2q0-1.5-1.4-1.5-0.4 0-0.7 0.2-0.4 0.1-0.6 0.4v4.1h-1v-5.5h0.8zm9.3 4.4q-0.6 0.7-1.6 0.7-1.2 0-1.9-0.9-0.6-0.7-0.6-1.9 0-1.5 0.9-2.3 0.7-0.7 1.7-0.7 0.5 0 0.9 0.3 0.5 0.2 0.7 0.5l0.1-0.6h0.8v4.9q0 2.8-2.4 2.8-1.1 0-2.1-0.8l0.3-0.5q0.7 0.5 1.6 0.5 1.6 0 1.6-2zm0-1.2v-2.1q-0.1-0.4-0.5-0.7-0.4-0.3-0.8-0.3-0.8 0-1.2 0.6-0.5 0.6-0.5 1.5 0 1 0.5 1.6 0.4 0.5 1.1 0.5 0.4 0 0.8-0.3 0.5-0.3 0.6-0.8zm-68.1 9.3v5.4h-1.1v-5.4zm-1.1-1.7q0-0.2 0.2-0.4 0.2-0.2 0.4-0.2 0.3 0 0.5 0.2 0.1 0.2 0.1 0.4 0 0.3-0.1 0.5-0.2 0.1-0.5 0.1-0.2 0-0.4-0.1-0.2-0.2-0.2-0.5zm4 2.2q0.7-0.7 1.7-0.7 2.1 0 2.1 2.4v3.2h-1.1v-3.1q0-1.6-1.3-1.6-0.4 0-0.8 0.2-0.4 0.2-0.5 0.4v4.1h-1.1v-5.4h0.9zm8.5 0.4q-0.6-0.3-1.3-0.3-0.4 0-0.6 0.2-0.3 0.2-0.3 0.5 0 0.3 0.3 0.5 0.2 0.2 0.8 0.4 0.9 0.2 1.3 0.5 0.5 0.5 0.5 1.2 0 0.8-0.6 1.2-0.5 0.4-1.4 0.4-1.1 0-2-0.6l0.4-0.6q0.6 0.4 1.5 0.4 1.1 0 1.1-0.8 0-0.4-0.3-0.5-0.2-0.2-0.9-0.4-1.7-0.4-1.7-1.7 0-0.6 0.5-1.1 0.5-0.4 1.3-0.4 1 0 1.8 0.6zm3.6-0.2l-0.1 3.2q0 0.8 0.6 0.8 0.5 0 0.9-0.3l0.3 0.6q-0.6 0.5-1.4 0.5-1.4 0-1.4-1.5v-3.3h-0.8v-0.8h0.8v-1.1l1.1-0.6v1.7h1.6v0.8zm7.3 4.6h-0.8l-0.1-0.5q-0.6 0.7-1.8 0.7-0.8 0-1.3-0.5-0.5-0.4-0.5-1.2 0-0.9 0.8-1.4 0.7-0.5 2.1-0.5h0.6v-0.1q0-1.2-1.3-1.2-0.8 0-1.5 0.5l-0.3-0.6q1-0.8 2.2-0.8 1.9 0 1.9 2.4zm-1-2.8h-0.5q-1.9 0-1.9 1.1 0 0.5 0.3 0.7 0.3 0.3 0.7 0.3 0.5 0 0.9-0.2 0.4-0.3 0.5-0.6zm3.9-5v7.7h-1.1v-7.2zm2.9 0v7.8h-1v-7.2zm6 7.7h-0.8l-0.1-0.5q-0.7 0.7-1.8 0.7-0.8 0-1.3-0.5-0.5-0.5-0.5-1.2 0-0.9 0.8-1.4 0.7-0.5 2.1-0.5h0.6v-0.1q0-1.2-1.3-1.2-0.8 0-1.5 0.5l-0.3-0.6q1-0.8 2.2-0.8 1.9 0 1.9 2.3zm-1-2.7h-0.5q-1.9 0-1.9 1.1 0 0.5 0.3 0.7 0.2 0.3 0.7 0.3 0.5 0 0.9-0.2 0.4-0.3 0.5-0.6zm4.2-1.9v3.2q0 0.8 0.6 0.8 0.5 0 0.9-0.3l0.3 0.6q-0.6 0.5-1.4 0.5-1.4 0-1.4-1.6v-3.2h-0.8v-0.8h0.8v-1.2l1-0.5v1.7h1.7v0.8zm4.2-0.8v5.4h-1v-5.4zm-1.1-1.7q0-0.3 0.2-0.5 0.2-0.1 0.4-0.1 0.3 0 0.4 0.1 0.2 0.2 0.2 0.5 0 0.2-0.1 0.4-0.2 0.2-0.5 0.2-0.3 0-0.4-0.2-0.2-0.2-0.2-0.4zm5.3 7.3q-1.2 0-2-1-0.6-0.8-0.6-1.9 0-1.3 0.8-2.1 0.7-0.8 1.8-0.8 1.3 0 2 1 0.7 0.8 0.7 1.9 0 1.3-0.9 2.1-0.7 0.8-1.8 0.8zm0-0.9q0.7 0 1.1-0.5 0.5-0.6 0.5-1.5 0-1-0.5-1.6-0.4-0.5-1.1-0.5-0.7 0-1.1 0.6-0.5 0.6-0.5 1.5 0 1 0.5 1.6 0.4 0.4 1.1 0.4zm5.1-4.2h0.1q0.6-0.7 1.7-0.7 2 0 2 2.4v3.2h-1v-3.2q0-1.5-1.4-1.5-0.4 0-0.7 0.2-0.4 0.2-0.6 0.4v4.1h-1v-5.4h0.8zm8.6 0.4q-0.6-0.3-1.3-0.3-0.4 0-0.7 0.2-0.2 0.1-0.2 0.5 0 0.3 0.2 0.5 0.2 0.2 0.8 0.3 1 0.3 1.3 0.6 0.5 0.4 0.5 1.2 0 0.7-0.5 1.2-0.6 0.4-1.4 0.4-1.2 0-2-0.6l0.3-0.6q0.7 0.4 1.5 0.4 1.1 0 1.1-0.8 0-0.4-0.2-0.6-0.3-0.2-0.9-0.3-1.8-0.5-1.8-1.7 0-0.7 0.6-1.1 0.5-0.4 1.3-0.4 1 0 1.7 0.5z"/>
</svg>