<svg width="37" height="34" viewBox="0 0 37 34" fill="none" xmlns="http://www.w3.org/2000/svg">
<path d="M21.5 10.5C21.5 16.0012 16.8212 20.5 11 20.5C5.17884 20.5 0.5 16.0012 0.5 10.5C0.5 4.99882 5.17884 0.5 11 0.5C16.8212 0.5 21.5 4.99882 21.5 10.5Z" stroke="url(#paint0_linear_1513_23)"/>
<path d="M36.5 22.5C36.5 27.4247 32.0711 31.5 26.5 31.5C20.9289 31.5 16.5 27.4247 16.5 22.5C16.5 17.5753 20.9289 13.5 26.5 13.5C32.0711 13.5 36.5 17.5753 36.5 22.5Z" fill="#D9D9D9" fill-opacity="0.1" stroke="url(#paint1_linear_1513_23)"/>
<path d="M26.9238 14.1289V16.8096H25.6055V14.1289H26.9238ZM26.7656 28.4814V30.8281H25.4561V28.4814H26.7656ZM28.5234 25.7041C28.5234 25.3525 28.4443 25.0361 28.2861 24.7549C28.1279 24.4736 27.8672 24.2158 27.5039 23.9814C27.1406 23.7471 26.6543 23.5303 26.0449 23.3311C25.3066 23.1025 24.668 22.8242 24.1289 22.4961C23.5957 22.168 23.1826 21.7607 22.8896 21.2744C22.6025 20.7881 22.459 20.1992 22.459 19.5078C22.459 18.7871 22.6143 18.166 22.9248 17.6445C23.2354 17.123 23.6748 16.7217 24.2432 16.4404C24.8115 16.1592 25.4795 16.0186 26.2471 16.0186C26.8447 16.0186 27.3779 16.1094 27.8467 16.291C28.3154 16.4668 28.7109 16.7305 29.0332 17.082C29.3613 17.4336 29.6104 17.8643 29.7803 18.374C29.9561 18.8838 30.0439 19.4727 30.0439 20.1406H28.4268C28.4268 19.748 28.3799 19.3877 28.2861 19.0596C28.1924 18.7314 28.0518 18.4473 27.8643 18.207C27.6768 17.9609 27.4482 17.7734 27.1787 17.6445C26.9092 17.5098 26.5986 17.4424 26.2471 17.4424C25.7549 17.4424 25.3477 17.5273 25.0254 17.6973C24.709 17.8672 24.4746 18.1074 24.3223 18.418C24.1699 18.7227 24.0938 19.0771 24.0938 19.4814C24.0938 19.8564 24.1699 20.1846 24.3223 20.4658C24.4746 20.7471 24.7324 21.002 25.0957 21.2305C25.4648 21.4531 25.9717 21.6729 26.6162 21.8896C27.3721 22.1299 28.0137 22.4141 28.541 22.7422C29.0684 23.0645 29.4697 23.4629 29.7451 23.9375C30.0205 24.4062 30.1582 24.9893 30.1582 25.6865C30.1582 26.4424 29.9883 27.0811 29.6484 27.6025C29.3086 28.1182 28.8311 28.5107 28.2158 28.7803C27.6006 29.0498 26.8799 29.1846 26.0537 29.1846C25.5557 29.1846 25.0635 29.1172 24.5771 28.9824C24.0908 28.8477 23.6514 28.6279 23.2588 28.3232C22.8662 28.0127 22.5527 27.6055 22.3184 27.1016C22.084 26.5918 21.9668 25.9678 21.9668 25.2295H23.6016C23.6016 25.7275 23.6719 26.1406 23.8125 26.4688C23.959 26.791 24.1523 27.0488 24.3926 27.2422C24.6328 27.4297 24.8965 27.5645 25.1836 27.6465C25.4766 27.7227 25.7666 27.7607 26.0537 27.7607C26.5811 27.7607 27.0264 27.6787 27.3896 27.5146C27.7588 27.3447 28.04 27.1045 28.2334 26.7939C28.4268 26.4834 28.5234 26.1201 28.5234 25.7041Z" fill="url(#paint2_linear_1513_23)"/>
<line x1="4" y1="10" x2="19" y2="10" stroke="url(#paint3_linear_1513_23)" stroke-width="4"/>
<line x1="11" y1="17" x2="11" y2="3" stroke="url(#paint4_linear_1513_23)" stroke-width="4"/>
<defs>
<linearGradient id="paint0_linear_1513_23" x1="11" y1="0" x2="11" y2="21" gradientUnits="userSpaceOnUse">
<stop stop-color="#05FE00"/>
<stop offset="1" stop-color="#0D5B0B"/>
</linearGradient>
<linearGradient id="paint1_linear_1513_23" x1="26.5" y1="13" x2="26.5" y2="32" gradientUnits="userSpaceOnUse">
<stop stop-color="#24FF00"/>
<stop offset="1" stop-color="#123F0B"/>
</linearGradient>
<linearGradient id="paint2_linear_1513_23" x1="27.5" y1="13" x2="27.5" y2="34" gradientUnits="userSpaceOnUse">
<stop stop-color="#295223"/>
<stop offset="1" stop-color="#24FF00"/>
</linearGradient>
<linearGradient id="paint3_linear_1513_23" x1="3.25" y1="9.99999" x2="19" y2="9.99999" gradientUnits="userSpaceOnUse">
<stop stop-color="#33FF00"/>
<stop offset="0.380208" stop-color="#29551E"/>
<stop offset="0.708333" stop-color="#1F5C0F"/>
<stop offset="0.973958" stop-color="#38FF06"/>
</linearGradient>
<linearGradient id="paint4_linear_1513_23" x1="10.5" y1="3" x2="11.2371" y2="17.0401" gradientUnits="userSpaceOnUse">
<stop stop-color="#33FF00"/>
<stop offset="0.380208" stop-color="#29551E"/>
<stop offset="0.708333" stop-color="#1F5C0F"/>
<stop offset="0.973958" stop-color="#38FF06"/>
</linearGradient>
</defs>
</svg>
