<svg width="25" height="23" viewBox="0 0 25 23" fill="none" xmlns="http://www.w3.org/2000/svg">
<path d="M12.5 10C12.5 13.0006 9.85214 15.5 6.5 15.5C3.14786 15.5 0.5 13.0006 0.5 10C0.5 6.99936 3.14786 4.5 6.5 4.5C9.85214 4.5 12.5 6.99936 12.5 10Z" stroke="url(#paint0_linear_1473_1282)"/>
<circle cx="12" cy="6" r="5.5" stroke="url(#paint1_linear_1473_1282)"/>
<circle cx="9" cy="17" r="5.5" stroke="url(#paint2_linear_1473_1282)"/>
<path d="M24.5 10C24.5 13.0006 21.8521 15.5 18.5 15.5C15.1479 15.5 12.5 13.0006 12.5 10C12.5 6.99936 15.1479 4.5 18.5 4.5C21.8521 4.5 24.5 6.99936 24.5 10Z" stroke="url(#paint3_linear_1473_1282)"/>
<circle cx="15" cy="17" r="5.5" stroke="url(#paint4_linear_1473_1282)"/>
<defs>
<linearGradient id="paint0_linear_1473_1282" x1="6.5" y1="4" x2="6.5" y2="16" gradientUnits="userSpaceOnUse">
<stop stop-color="#24FF00"/>
<stop offset="0.3125" stop-color="#17520D"/>
<stop offset="0.6875" stop-color="#43FF24"/>
<stop offset="1" stop-color="#126006"/>
</linearGradient>
<linearGradient id="paint1_linear_1473_1282" x1="12" y1="0" x2="12" y2="12" gradientUnits="userSpaceOnUse">
<stop stop-color="#24FF00"/>
<stop offset="0.3125" stop-color="#17520D"/>
<stop offset="0.6875" stop-color="#43FF24"/>
<stop offset="1" stop-color="#126006"/>
</linearGradient>
<linearGradient id="paint2_linear_1473_1282" x1="9" y1="11" x2="9" y2="23" gradientUnits="userSpaceOnUse">
<stop stop-color="#24FF00"/>
<stop offset="0.3125" stop-color="#17520D"/>
<stop offset="0.6875" stop-color="#43FF24"/>
<stop offset="1" stop-color="#126006"/>
</linearGradient>
<linearGradient id="paint3_linear_1473_1282" x1="18.5" y1="4" x2="18.5" y2="16" gradientUnits="userSpaceOnUse">
<stop stop-color="#24FF00"/>
<stop offset="0.3125" stop-color="#17520D"/>
<stop offset="0.6875" stop-color="#43FF24"/>
<stop offset="1" stop-color="#126006"/>
</linearGradient>
<linearGradient id="paint4_linear_1473_1282" x1="15" y1="11" x2="15" y2="23" gradientUnits="userSpaceOnUse">
<stop stop-color="#24FF00"/>
<stop offset="0.3125" stop-color="#17520D"/>
<stop offset="0.6875" stop-color="#43FF24"/>
<stop offset="1" stop-color="#126006"/>
</linearGradient>
</defs>
</svg>
